<?xml version="1.0" standalone="no"?>
<!DOCTYPE svg PUBLIC "-//W3C//DTD SVG 1.1//EN" "http://www.w3.org/Graphics/SVG/1.1/DTD/svg11.dtd" >
<svg xmlns="http://www.w3.org/2000/svg" xmlns:xlink="http://www.w3.org/1999/xlink" version="1.1">
<metadata>
Created by FontForge 20170731 at Sat Feb  4 13:27:49 2017
 By Aleksey,,,
Copyright 2015 The Cormorant Project Authors (github.com/CatharsisFonts/Cormorant)
</metadata>
<defs>
<font id="CormorantGaramond-Italic" horiz-adv-x="697" >
  <font-face 
    font-family="Cormorant Garamond"
    font-weight="400"
    font-style="italic"
    font-stretch="normal"
    units-per-em="1000"
    panose-1="0 0 5 0 0 0 0 0 0 0"
    ascent="800"
    descent="-200"
    x-height="395"
    cap-height="625"
    bbox="-327 -281 1278.06 903.471"
    underline-thickness="50"
    underline-position="-150"
    slope="-10"
    unicode-range="U+000D-FB06"
  />
<missing-glyph horiz-adv-x="450" 
d="M1 -275l177 1000h285l-176 -1000h-286zM214 556h150l6 32h-60l6 38h61l5 32h-148l-6 -32h57l-5 -38h-60zM192 426h150l5 34h-60l12 69h-90zM227 460l6 35h30l-7 -35h-29zM168 295h90l12 70h60l6 33h-149l-6 -33h59l-6 -36h-60zM159 239h149l17 99h-29l-12 -65h-119z
M135 103h149l20 113h-90l-10 -56h30l5 24h30l-8 -48h-91l14 80h-30zM104 -70h150l20 113h-150zM139 -37l8 48h92l-9 -48h-91zM81 -206h148l6 33h-91l70 47h29l6 34h-148l-6 -34h63l-71 -47z" />
    <glyph glyph-name="f_f.liga" unicode="ff" horiz-adv-x="509" 
d="M620.5 710.5q19.5 -15.5 17.5 -36.5q-3 -15 -12.5 -22.5t-22.5 -7.5q-14 0 -20.5 8t-13.5 26q-6 16 -13 24.5t-21 8.5q-39 0 -67 -68t-48 -204l-9 -62l64 4l39 2q9 0 7 -9q-3 -10 -13.5 -21.5t-20.5 -10.5l-21 3q-33 6 -59 7l-54 -373q-14 -97 -32.5 -151.5t-45 -78.5
t-68.5 -24q-33 0 -49.5 12.5t-13.5 30.5q1 14 11 22.5t25 8.5t22 -8t12 -23q4 -13 8.5 -19t14.5 -6q12 0 20.5 15.5t17.5 59.5t22 135l51 353q1 7 1 19q0 17 -8.5 21t-37.5 6q-46 3 -142 3l-55 -376q-14 -97 -32.5 -151.5t-45 -78.5t-68.5 -24q-33 0 -49.5 12.5t-13.5 30.5
q1 14 11 22.5t25 8.5t22 -8t12 -23q4 -13 8.5 -19t14.5 -6q12 0 20.5 15.5t17.5 59.5t22 135l51 353q2 20 2 26q0 19 -11 24t-46 5q-3 0 -3 5q0 2 1.5 4.5t2.5 2.5q35 0 50.5 10t19.5 35q27 135 81.5 192.5t138.5 57.5q52 0 90 -21q23 43 56 61t83 18q35 0 54.5 -15.5z
M164 375q110 0 143 1q38 2 51 22q4 7 6 20q18 106 39 173q-15 27 -39.5 44.5t-52.5 17.5q-49 0 -84 -54.5t-54 -159.5z" />
    <glyph glyph-name="fi" unicode="fi" horiz-adv-x="465" 
d="M438 77q3 0 5 -3.5t-1 -6.5q-34 -39 -61 -57.5t-53 -18.5q-18 0 -26.5 10.5t-8.5 34.5q0 20 6 53l37 200q3 15 3 26q0 22 -14.5 31t-48.5 11t-115 2l-55 -380q-14 -97 -32.5 -151.5t-45 -78.5t-68.5 -24q-33 0 -49.5 12.5t-13.5 30.5q1 14 11 22.5t25 8.5t22 -8t12 -23
q4 -13 8.5 -19t14.5 -6q12 0 20.5 15.5t17.5 59.5t22 135l51 353q2 20 2 26q0 19 -11 24t-46 5q-3 0 -3 5q0 2 1.5 4.5t2.5 2.5q35 0 50.5 10t19.5 35q31 170 89.5 239t138.5 69q47 0 72.5 -19t21.5 -45q-6 -30 -32 -30q-14 0 -21 8.5t-15 27.5q-8 21 -18 32t-31 11
q-52 0 -90.5 -69t-58.5 -203l-9 -61q84 1 175 6q40 2 49 2q7 0 10 -2t3 -8q0 -2 -4 -26q-4 -18 -10 -58l-36 -203q-3 -16 -3 -27q0 -31 18 -31q24 0 68 44q2 2 4 2z" />
    <glyph glyph-name="fl" unicode="fl" horiz-adv-x="494" 
d="M369 89q-3 -16 -3 -27q0 -31 20 -31q22 0 66 46q2 2 4 2q3 0 5 -3.5t-1 -6.5q-35 -40 -61 -59t-52 -19q-18 0 -26.5 10.5t-8.5 34.5q0 22 6 53l102 548q-14 31 -40 52.5t-57 21.5q-52 0 -90.5 -69.5t-59.5 -202.5l-9 -62q42 1 103 6q9 0 7 -9q-3 -10 -14 -22t-20 -10
q-9 1 -33 5t-47 5l-54 -373q-14 -97 -32.5 -151.5t-45 -78.5t-68.5 -24q-33 0 -49.5 12.5t-13.5 30.5q1 14 11 22.5t25 8.5t22 -8t12 -23q4 -13 8.5 -19t14.5 -6q12 0 20.5 15.5t17.5 59.5t22 135l51 353q2 20 2 26q0 19 -11 24t-46 5q-3 0 -3 5q0 2 1.5 4.5t2.5 2.5
q35 0 50.5 10t19.5 35q30 169 86 238.5t146 69.5q59 0 102 -29q22 15 29 47q1 4 6.5 2.5t4.5 -3.5z" />
    <glyph glyph-name="f_f_i.liga" unicode="ffi" horiz-adv-x="712" 
d="M685 77q3 0 5 -3.5t-1 -6.5q-34 -39 -61 -57.5t-53 -18.5q-18 0 -26.5 10.5t-8.5 34.5q0 20 6 53l37 200q3 15 3 26q0 22 -14.5 31t-48.5 11t-115 2l-55 -380q-14 -97 -32.5 -151.5t-45 -78.5t-68.5 -24q-33 0 -49.5 12.5t-13.5 30.5q1 14 11 22.5t25 8.5t22 -8t12 -23
q4 -13 8.5 -19t14.5 -6q12 0 20.5 15.5t17.5 59.5t22 135l51 353q1 7 1 19q0 17 -8.5 21t-37.5 6q-46 3 -142 3l-55 -376q-14 -97 -32.5 -151.5t-45 -78.5t-68.5 -24q-33 0 -49.5 12.5t-13.5 30.5q1 14 11 22.5t25 8.5t22 -8t12 -23q4 -13 8.5 -19t14.5 -6q12 0 20.5 15.5
t17.5 59.5t22 135l51 353q2 20 2 26q0 19 -11 24t-46 5q-3 0 -3 5q0 2 1.5 4.5t2.5 2.5q35 0 50.5 10t19.5 35q27 135 81.5 192.5t138.5 57.5q56 0 104 -28q57 86 151 86q47 0 72.5 -19t21.5 -45q-6 -30 -32 -30q-14 0 -21 8.5t-15 27.5q-8 21 -18 32t-31 11
q-52 0 -90.5 -69t-58.5 -203l-9 -61q84 1 175 6q40 2 49 2q7 0 10 -2t3 -8q0 -2 -4 -26q-4 -18 -10 -58l-36 -203q-3 -16 -3 -27q0 -31 18 -31q24 0 68 44q2 2 4 2zM164 375q110 0 143 1q38 2 51 22q4 7 6 20q18 99 45 162q-14 32 -40.5 52.5t-57.5 20.5q-49 0 -84 -54.5
t-54 -159.5z" />
    <glyph glyph-name="f_f_l.liga" unicode="ffl" horiz-adv-x="741" 
d="M616 89q-3 -16 -3 -27q0 -31 20 -31q22 0 66 46q2 2 4 2q3 0 5 -3.5t-1 -6.5q-35 -40 -61 -59t-52 -19q-18 0 -26.5 10.5t-8.5 34.5q0 22 6 53l102 548q-14 31 -40 52.5t-57 21.5q-52 0 -90.5 -69.5t-59.5 -202.5l-9 -62q42 1 103 6q9 0 7 -9q-3 -10 -14 -22t-20 -10
q-9 1 -33 5t-47 5l-54 -373q-14 -97 -32.5 -151.5t-45 -78.5t-68.5 -24q-33 0 -49.5 12.5t-13.5 30.5q1 14 11 22.5t25 8.5t22 -8t12 -23q4 -13 8.5 -19t14.5 -6q12 0 20.5 15.5t17.5 59.5t22 135l51 353q1 7 1 19q0 17 -8.5 21t-37.5 6q-46 3 -142 3l-55 -376
q-14 -97 -32.5 -151.5t-45 -78.5t-68.5 -24q-33 0 -49.5 12.5t-13.5 30.5q1 14 11 22.5t25 8.5t22 -8t12 -23q4 -13 8.5 -19t14.5 -6q12 0 20.5 15.5t17.5 59.5t22 135l51 353q2 20 2 26q0 19 -11 24t-46 5q-3 0 -3 5q0 2 1.5 4.5t2.5 2.5q35 0 50.5 10t19.5 35
q27 135 81.5 192.5t138.5 57.5q56 0 102 -27q29 45 67.5 65t89.5 20q59 0 102 -29q22 15 29 47q1 4 6.5 2.5t4.5 -3.5zM164 375q110 0 143 1q38 2 51 22q4 7 6 20q18 103 44 164q-14 31 -40.5 51t-56.5 20q-49 0 -84 -54.5t-54 -159.5z" />
    <glyph glyph-name="Aogonek_acutecomb.liga" unicode="&#x104;&#x301;" horiz-adv-x="600" 
d="M337 678q-4 0 -5 4.5t2 6.5q37 19 113 65l49 30q4 2 23.5 -4.5t34 -14.5t7.5 -9q-62 -15 -113.5 -33.5t-108.5 -43.5zM567 6q0 -6 -4 -6l-68 1q-46 0 -82.5 -21t-57.5 -57t-21 -80q0 -39 22 -63t64 -24q18 0 28.5 4t21.5 11h1q2 0 4 -3t0 -5q-24 -20 -45.5 -29t-47.5 -9
q-45 0 -70.5 21.5t-25.5 61.5q0 16 2 25q6 40 25 68.5t55 67.5q30 32 44 53.5t14 47.5q0 9 -1 14l-37 246h-148l-106 -198q-33 -61 -33 -87q0 -19 15 -26t47 -7q4 0 3.5 -6t-4.5 -6q-11 0 -45 2q-38 2 -59 2t-49 -2t-43 -2q-4 0 -4 6t4 6q31 0 66 25t68 86l282 512q2 3 7 3
q9 0 11 -5l87 -539q5 -35 13 -52t22 -23.5t41 -6.5q4 0 4 -6zM252 351h132l-29 192z" />
    <glyph glyph-name="Eogonek_acutecomb.liga" unicode="&#x118;&#x301;" horiz-adv-x="514" 
d="M281 678q-4 0 -5 4.5t2 6.5q37 19 113 65l49 30q4 2 23.5 -4.5t34 -14.5t7.5 -9q-62 -15 -113.5 -33.5t-108.5 -43.5zM512 616l-9 -57q-4 -36 -10 -67q-1 -4 -7 -3t-5 4q1 8 1 23q0 43 -20 68.5t-57 25.5h-82q-32 0 -47.5 -5t-22.5 -18.5t-12 -43.5l-37 -207h141
q39 0 57.5 15.5t25.5 54.5q0 3 6 3q2 0 4.5 -1.5t1.5 -3.5q-4 -28 -9 -48l-6 -31l-6 -39q0 -3 -8 -54q-1 -4 -7 -3.5t-5 4.5q3 17 3 30q0 28 -15 40t-49 12h-137l-41 -230q-3 -18 -3 -30q0 -21 13 -28.5t49 -7.5h109q38 0 74 36t56 94q1 3 6.5 2t4.5 -4q-15 -47 -31 -132
q-2 -8 -5.5 -11.5t-10.5 -3.5h-41q-42 -40 -67.5 -76t-31.5 -72q-3 -15 -3 -28q0 -32 16 -50.5t46 -18.5q18 0 30.5 6.5t28.5 19.5h1q3 0 5.5 -3.5t0.5 -5.5q-50 -47 -101 -47q-36 0 -56.5 20.5t-20.5 55.5q0 6 2 22q7 40 41.5 83.5t90.5 93.5h-347q-2 0 -2 6t2 6
q33 0 48.5 5t23 19t13.5 45l82 463q3 20 3 32q0 22 -13 29.5t-50 7.5q-3 0 -3 6t3 6h383q8 0 6 -9z" />
    <glyph glyph-name="IJ_acutecomb.liga" unicode="&#x132;&#x301;" horiz-adv-x="619" 
d="M127 678q-4 0 -5 4.5t2 6.5q37 19 113 65l49 30q4 2 23.5 -4.5t34 -14.5t7.5 -9q-62 -15 -113.5 -33.5t-108.5 -43.5zM478 678q-4 0 -5 4.5t2 6.5q37 19 113 65l49 30q4 2 23.5 -4.5t34 -14.5t7.5 -9q-62 -15 -113.5 -33.5t-108.5 -43.5zM49 275q0 6 4 6q34 0 50.5 5
t24.5 19.5t13 44.5l34 194q4 26 4 32q0 22 -14.5 29.5t-53.5 7.5q-4 0 -4 6t4 6l46 -1q40 -2 62 -2q26 0 66 2l41 1q5 0 5 -6t-5 -6q-34 0 -51 -6t-25 -20.5t-13 -44.5l-34 -192q-4 -19 -4 -33q0 -22 14 -29t53 -7q4 0 4 -6t-4 -6q-27 0 -42 1l-65 1l-62 -1q-16 -1 -44 -1
q-4 0 -4 6zM184.5 7q-42.5 20 -65.5 51.5t-23 64.5q0 22 10.5 35.5t26.5 13.5q22 0 28 -14.5t7 -46.5q2 -47 23.5 -78t86.5 -31q151 0 185 198l61 344q3 18 3 30q0 23 -16.5 31t-61.5 8q-3 0 -3 6t3 6l52 -1q40 -2 65 -2q24 0 60 2l38 1q4 0 4 -6t-4 -6q-30 0 -45 -6
t-22.5 -20.5t-12.5 -44.5l-49 -284q-23 -129 -91.5 -200t-161.5 -71q-55 0 -97.5 20z" />
    <glyph glyph-name="Iogonek_acutecomb.liga" unicode="&#x12e;&#x301;" horiz-adv-x="308" 
d="M357.5 779.5q19.5 -6.5 34 -14.5t7.5 -9q-62 -15 -113.5 -33.5t-108.5 -43.5l-2 -1q-4 0 -5 4.5t2 6.5q37 19 113 65l49 30q4 2 23.5 -4.5zM332 619q0 -6 -2 -6q-32 0 -47.5 -6t-23.5 -20.5t-14 -44.5l-82 -461q-3 -19 -3 -32q0 -22 13.5 -29.5t51.5 -7.5q2 0 2 -6t-2 -6
q-25 0 -39 1l-56 1q-57 -70 -69 -150q-3 -17 -3 -31q0 -30 12.5 -47.5t36.5 -17.5q16 0 27 6t25 18h2q3 0 6 -3t0 -5q-26 -26 -47 -36.5t-45 -10.5q-32 0 -50 20t-18 53q0 48 28.5 98.5t80.5 105.5l-56 -1q-14 -1 -40 -1q-3 0 -3 6t3 6q32 0 47.5 5t23.5 19.5t13 44.5
l82 463q4 26 4 31q0 23 -14 30.5t-51 7.5q-3 0 -3 6t3 6l43 -1q36 -2 58 -2q26 0 64 2l40 1q2 0 2 -6z" />
    <glyph glyph-name="J_acutecomb.liga" unicode="J&#x301;" horiz-adv-x="280" 
d="M119 678q-4 0 -5.5 4.5t1.5 6.5q43 22 103 59q40 24 60 35q4 3 23.5 -3.5t34 -14.5t6.5 -9q-118 -30 -222 -78h-1zM-21 -193q-2 0 -4.5 4.5t-0.5 6.5q45 27 71.5 81.5t42.5 140.5l89 504q3 18 3 31q0 23 -13.5 30.5t-51.5 7.5q-2 0 -2 6t2 6l41 -1q38 -2 60 -2q27 0 65 2
l39 1q3 0 3 -6t-3 -6q-32 0 -48 -6t-24 -20.5t-13 -44.5l-84 -475q-15 -79 -35 -127t-52 -78.5t-84 -54.5h-1z" />
    <glyph glyph-name="uni01EA0301.liga" unicode="&#x1ea;&#x301;" horiz-adv-x="651" 
d="M350 678q-4 0 -5 4.5t2 6.5q37 19 113 65l49 30q4 2 23.5 -4.5t34 -14.5t7.5 -9q-62 -15 -113.5 -33.5t-108.5 -43.5zM531 603.5q51 -32.5 77.5 -89t26.5 -127.5q0 -39 -7 -74q-20 -114 -90 -197t-164 -114q-42 -40 -68.5 -77t-32.5 -73q-3 -15 -3 -28q0 -32 16 -50.5
t46 -18.5q18 0 30.5 6.5t28.5 19.5h1q3 0 5.5 -3.5t0.5 -5.5q-50 -47 -101 -47q-36 0 -56.5 20.5t-20.5 55.5q0 43 34.5 91t94.5 103q-37 -7 -65 -7q-69 0 -119 32.5t-76 90t-26 129.5q0 36 6 73q16 93 66 166.5t122 115t152 41.5q71 0 122 -32.5zM571 359q0 74 -24 131
t-70 89.5t-108 32.5q-89 0 -151 -66t-83 -180q-9 -48 -9 -93q0 -73 23.5 -132t68.5 -93t108 -34q87 0 149 64t86 182q10 49 10 99z" />
    <glyph glyph-name="aogonek_acutecomb.liga" unicode="&#x105;&#x301;" horiz-adv-x="435" 
d="M386 726q20 5 33 5q10 0 9 -4l-147 -254q-1 -3 -6.5 -1t-3.5 4l93 240q2 5 22 10zM412 78q3 0 5 -3.5t0 -5.5l-47 -47q-59 -59 -87 -94t-37 -77q-3 -14 -3 -26q0 -30 16 -49t46 -19q18 0 29.5 6.5t29.5 20.5h1q3 0 5.5 -3.5t0.5 -5.5q-27 -27 -51 -38.5t-50 -11.5
q-36 0 -57 22t-21 55q0 42 33.5 89.5t92.5 101.5q-8 -2 -13 -2q-17 0 -25.5 10.5t-8.5 34.5q0 20 6 53l16 100q-46 -91 -103 -146.5t-109 -55.5q-62 0 -62 74q0 8 2 30q10 71 53 143t101 118.5t109 46.5q20 0 37.5 -7t28.5 -20q20 14 24 35q1 3 7 2t5 -3l-58 -317
q-3 -15 -3 -27q0 -31 19 -31q21 0 65 46q1 1 3 1zM311 300q0 30 -15.5 47t-46.5 17q-35 -1 -71.5 -31.5t-63.5 -82t-36 -114.5q-3 -22 -3 -40q0 -60 42 -60q36 0 76.5 37t72.5 93.5t43 110.5q3 13 2 23z" />
    <glyph glyph-name="eogonek_acutecomb.liga" unicode="&#x119;&#x301;" horiz-adv-x="348" 
d="M314 726q20 5 33 5q10 0 9 -4l-147 -254q-1 -3 -6.5 -1t-3.5 4l93 240q2 5 22 10zM311 387q18 -12 18 -33q0 -31 -32.5 -59.5t-87 -49.5t-117.5 -31q-5 -32 -5 -55q0 -62 28 -99.5t79 -37.5q46 0 81 21l17 12l1 -1l1 1h2q3 0 5.5 -3t-0.5 -6l-24 -18
q-73 -61 -104.5 -100.5t-39.5 -79.5q-2 -9 -2 -25q0 -30 15 -47.5t45 -17.5q19 0 32.5 7t27.5 19h1q3 0 6 -3.5t0 -5.5q-50 -50 -101 -50q-35 0 -56 20t-21 54q0 6 2 22q7 39 38 80.5t98 96.5q-30 -10 -63 -10q-63 0 -95.5 40.5t-32.5 104.5q0 22 5 52q9 51 42 100.5
t82.5 81.5t103.5 32q33 0 51 -12zM263 338q0 17 -14 25.5t-33 8.5q-46 0 -77.5 -40.5t-43.5 -103.5q70 12 113.5 36t52.5 60q2 10 2 14z" />
    <glyph glyph-name="ij_acutecomb.liga" unicode="&#x133;&#x301;" horiz-adv-x="436" 
d="M137.5 472q-5.5 2 -3.5 4l93 240q2 5 22 10t33 5q10 0 9 -4l-147 -254q-1 -3 -6.5 -1zM459 726q20 5 33 5q10 0 9 -4l-147 -254q-1 -3 -6.5 -1t-3.5 4l93 240q2 5 22 10zM400 392.5q5 -1.5 5 -4.5q-1 -6 -6.5 -30.5t-9.5 -45.5l-70 -382q-18 -100 -69 -155.5t-136 -55.5
q-44 0 -71 19t-27 47q0 6 1 10q2 17 11 24.5t21 7.5q11 0 16.5 -7.5t12.5 -23.5q11 -26 26 -41t50 -15q37 0 66 36t46 130l54 308q-36 -106 -86 -166.5t-104 -60.5q-33 0 -49 17.5t-16 55.5q0 27 7 59l36 178q3 15 3 26q0 32 -20 32t-66 -46q-2 -2 -3 -2q-3 0 -5 3.5t0 6.5
q35 40 61.5 59t50.5 19q18 0 27 -10.5t9 -34.5q0 -22 -7 -53l-32 -159q-7 -37 -7 -55q0 -57 44 -57q33 0 68.5 42.5t66.5 122.5t51 189q1 6 9 10t21 4q16 0 21 -1.5z" />
    <glyph glyph-name="iogonek_acutecomb.liga" unicode="&#x12f;&#x301;" horiz-adv-x="248" 
d="M201.5 725.5q19.5 5.5 32.5 5.5q9 0 8 -4l-102 -253q-1 -3 -6 -1.5t-4 3.5l51 240q1 4 20.5 9.5zM219 78q3 0 5.5 -3.5t0.5 -5.5l-48 -47q-61 -60 -88.5 -94.5t-35.5 -76.5q-3 -14 -3 -27q0 -30 16 -48.5t46 -18.5q15 0 25.5 5t23.5 15l2 1q3 0 5 -4t0 -6
q-47 -43 -91 -43q-36 0 -57 22t-21 55q0 43 33.5 90t93.5 101q-10 -2 -15 -2q-17 0 -25.5 11t-8.5 36q0 16 5 51l39 208q2 10 2 26q0 33 -19 33q-12 0 -30.5 -12t-38.5 -34q-1 -1 -3 -1q-3 0 -5.5 3.5t0.5 5.5q35 40 63 58.5t53 18.5q18 0 26 -10.5t8 -34.5q0 -25 -5 -51
l-38 -210q-3 -15 -3 -27q0 -31 19 -31q20 0 66 46q1 1 3 1z" />
    <glyph glyph-name="j_acutecomb.liga" unicode="j&#x301;" horiz-adv-x="239" 
d="M151.5 472q-5.5 2 -3.5 4l93 240q2 5 22 10t33 5q10 0 9 -4l-147 -254q-1 -3 -6.5 -1zM-70.5 -262.5q-16.5 12.5 -14.5 30.5q3 15 12 23t22 8t18 -7.5t10 -24.5q4 -14 8.5 -20.5t13.5 -6.5q14 0 24.5 19t20.5 60.5t23 119.5l62 358q3 15 3 27q0 32 -20 32
q-11 0 -29.5 -12t-39.5 -34q-1 -1 -3 -1q-3 0 -5.5 3.5t0.5 5.5q35 40 63 58.5t54 18.5q17 0 25 -10.5t8 -33.5q0 -26 -5 -52l-58 -337q-16 -94 -34 -144.5t-44 -71.5t-67 -21q-31 0 -47.5 12.5z" />
    <glyph glyph-name="uni01EB0301.liga" unicode="&#x1eb;&#x301;" horiz-adv-x="398" 
d="M346 726q20 5 33 5q10 0 9 -4l-147 -254q-1 -3 -6.5 -1t-3.5 4l93 240q2 5 22 10zM339 357.5q34 -41.5 34 -107.5q0 -28 -6 -57q-14 -69 -53.5 -119.5t-91.5 -73.5q-42 -39 -67.5 -75.5t-31.5 -72.5q-3 -15 -3 -28q0 -32 16 -50.5t46 -18.5q18 0 30.5 6.5t28.5 19.5h1
q3 0 5.5 -3.5t0.5 -5.5q-50 -47 -101 -47q-36 0 -56.5 20.5t-20.5 55.5q0 78 124 190q-22 -5 -40 -5q-59 0 -92.5 42t-33.5 110q0 31 5 55q11 58 42 105t75 74t93 27q62 0 96 -41.5zM316 207q0 69 -26.5 118.5t-75.5 49.5q-43 0 -77 -37.5t-47 -101.5q-6 -30 -6 -61
q0 -67 28 -115.5t77 -48.5q42 0 76 37t46 101q5 32 5 58z" />
    <glyph glyph-name="T_T.liga" unicode="TT" horiz-adv-x="1024" 
d="M140 6q0 6 2 6q34 0 51 5t25.5 19.5t13.5 44.5l81 463q4 24 4 31q0 20 -12.5 26.5t-45.5 6.5h-25q-56 0 -89.5 -33.5t-55.5 -110.5q0 -2 -4.5 -2t-7.5 1.5t0 2.5q8 24 22 81.5t23 99.5q1 3 6.5 2.5t4.5 -3.5q-3 -21 39 -21q78 -3 184 -3q52 0 108 2l57 1q33 0 46 1.5
t17.5 6.5t8.5 19q1 3 7 2.5t5 -3.5l-2 -12q0 -9 9.5 -11.5t37.5 -2.5q72 -3 173 -3q55 0 115 2l63 1q30 0 45 5t21 20q1 3 6.5 2.5t4.5 -4.5q-8 -27 -22 -91.5t-18 -90.5q-1 -3 -6.5 -2.5t-4.5 4.5q5 33 5 54q0 46 -23 66t-77 20h-18q-27 0 -41 -5.5t-20.5 -19t-11.5 -41.5
l-83 -461q-4 -26 -4 -32q0 -22 14.5 -29.5t55.5 -7.5q2 0 2 -6t-2 -6q-27 0 -43 1l-65 1l-61 -1q-17 -1 -45 -1q-3 0 -3 6t3 6q34 0 50.5 5t25 19.5t14.5 44.5l81 463q4 24 4 31q0 20 -12.5 26.5t-44.5 6.5h-18q-58 0 -80.5 -8t-34 -35t-26.5 -100q0 -2 -5.5 -1.5t-5.5 2.5
q12 70 12 90q0 24 -9.5 35t-30.5 14t-66 3h-17q-28 0 -41.5 -5.5t-20.5 -19t-12 -41.5l-83 -461q-3 -18 -3 -31q0 -23 14.5 -30.5t55.5 -7.5q2 0 2 -6t-2 -6q-27 0 -43 1l-65 1l-62 -1q-16 -1 -45 -1q-2 0 -2 6z" />
    <glyph glyph-name="T_h.liga" unicode="Th" horiz-adv-x="928" 
d="M907 79q3 0 5 -3.5t0 -6.5q-36 -40 -62 -59t-52 -19q-17 0 -25 10.5t-8 33.5q0 21 6 54l29 159q5 26 5 53q0 30 -10.5 44.5t-32.5 14.5q-32 0 -67.5 -42t-66.5 -122.5t-51 -188.5q-3 -15 -32 -15q-14 0 -18.5 1.5t-4.5 4.5l4 23q6 24 11 53l97 525v3q0 6 -8 6h-185
q-26 0 -39.5 -5.5t-20 -19t-11.5 -41.5l-81 -461q-3 -18 -3 -31q0 -23 14.5 -30.5t55.5 -7.5q2 0 2 -6t-2 -6q-27 0 -43 1l-65 1l-62 -1q-16 -1 -44 -1q-3 0 -3 6t3 6q34 0 50.5 5t25 19.5t13.5 44.5l82 463q3 18 3 30q0 20 -11.5 27t-42.5 7h-24q-59 0 -93.5 -33.5
t-56.5 -110.5q0 -2 -4 -2q-3 0 -6 1.5t-2 2.5q8 25 23 86.5t21 94.5q1 3 7 2.5t5 -3.5q-3 -21 39 -21q74 -3 183 -3q114 0 185 5q59 2 97.5 26t58.5 74q0 2 5 2q3 0 5.5 -1.5t1.5 -2.5l-98 -544q35 102 84 160t102 58q33 0 49 -18t16 -57q0 -24 -6 -57l-33 -178
q-3 -15 -3 -27q0 -31 19 -31q21 0 67 46q2 2 3 2z" />
    <glyph glyph-name="f_b.liga" unicode="fb" horiz-adv-x="691" 
d="M651 370q22 -29 22 -77q0 -22 -4 -42q-16 -82 -61 -142t-101 -91t-105 -31q-45 0 -71.5 19t-26.5 53q0 6 2 18l108 573q-15 26 -39.5 43.5t-51.5 17.5q-52 0 -90.5 -69.5t-59.5 -202.5l-9 -62q42 1 103 6q9 0 7 -9q-3 -10 -14 -22t-20 -10q-9 1 -33 5t-47 5l-54 -373
q-14 -97 -32.5 -151.5t-45 -78.5t-68.5 -24q-33 0 -49.5 12.5t-13.5 30.5q1 14 11 22.5t25 8.5t22 -8t12 -23q4 -13 8.5 -19t14.5 -6q12 0 20.5 15.5t17.5 59.5t22 135l51 353q2 20 2 26q0 19 -11 24t-46 5q-3 0 -3 5q0 2 1.5 4.5t2.5 2.5q35 0 50.5 10t19.5 35
q30 169 86 238.5t146 69.5q56 0 97 -26q18 15 24 44q0 3 5 3q3 0 5.5 -1.5t1.5 -2.5l-97 -523q34 79 90 129t116 50q38 0 60 -29zM610 273q0 37 -15 58.5t-45 21.5q-41 0 -78.5 -31.5t-66 -89t-42.5 -132.5l-1 -4q-1 -5 -1 -14q0 -31 22.5 -50t60.5 -19q33 0 65.5 24.5
t57.5 71.5t37 111q6 29 6 53z" />
    <glyph glyph-name="f_f_b.liga" unicode="ffb" horiz-adv-x="938" 
d="M898 370q22 -29 22 -77q0 -22 -4 -42q-16 -82 -61 -142t-101 -91t-105 -31q-45 0 -71.5 19t-26.5 53q0 6 2 18l108 573q-15 26 -39.5 43.5t-51.5 17.5q-52 0 -90.5 -69.5t-59.5 -202.5l-9 -62q42 1 103 6q9 0 7 -9q-3 -10 -14 -22t-20 -10q-9 1 -33 5t-47 5l-54 -373
q-14 -97 -32.5 -151.5t-45 -78.5t-68.5 -24q-33 0 -49.5 12.5t-13.5 30.5q1 14 11 22.5t25 8.5t22 -8t12 -23q4 -13 8.5 -19t14.5 -6q12 0 20.5 15.5t17.5 59.5t22 135l51 353q1 7 1 19q0 17 -8.5 21t-37.5 6q-46 3 -142 3l-55 -376q-14 -97 -32.5 -151.5t-45 -78.5
t-68.5 -24q-33 0 -49.5 12.5t-13.5 30.5q1 14 11 22.5t25 8.5t22 -8t12 -23q4 -13 8.5 -19t14.5 -6q12 0 20.5 15.5t17.5 59.5t22 135l51 353q2 20 2 26q0 19 -11 24t-46 5q-3 0 -3 5q0 2 1.5 4.5t2.5 2.5q35 0 50.5 10t19.5 35q27 135 81.5 192.5t138.5 57.5q56 0 102 -27
q29 45 67.5 65t89.5 20q56 0 97 -26q18 15 24 44q0 3 5 3q3 0 5.5 -1.5t1.5 -2.5l-97 -523q34 79 90 129t116 50q38 0 60 -29zM164 375q110 0 143 1q38 2 51 22q4 7 6 20q18 103 44 164q-14 31 -40.5 51t-56.5 20q-49 0 -84 -54.5t-54 -159.5zM857 273q0 37 -15 58.5
t-45 21.5q-41 0 -78.5 -31.5t-66 -89t-42.5 -132.5l-1 -4q-1 -5 -1 -14q0 -31 22.5 -50t60.5 -19q33 0 65.5 24.5t57.5 71.5t37 111q6 29 6 53z" />
    <glyph glyph-name="f_f_f.liga" unicode="fff" horiz-adv-x="756" 
d="M796.5 710.5q19.5 -15.5 17.5 -36.5q-3 -15 -12.5 -22.5t-22.5 -7.5q-14 0 -20.5 8t-13.5 26q-6 16 -13 24.5t-21 8.5q-25 0 -46 -29q15 -8 33 -24l-37 -63q-8 22 -20 40q-27 -67 -45 -196l-8 -56q21 9 25 35l11 -39l66 4q9 0 7 -9q-3 -10 -13.5 -21.5t-20.5 -10.5l-45 6
l-22 -42q1 7 1 18t-3 16.5t-11 7.5l-54 -369q-14 -97 -32.5 -151.5t-45 -78.5t-68.5 -24q-33 0 -49.5 12.5t-13.5 30.5q1 14 11 22.5t25 8.5t22 -8t12 -23q4 -13 8.5 -19t14.5 -6q12 0 20.5 15.5t17.5 59.5t22 135l51 353q3 15 3 26q0 15 -8 21q-58 2 -111 2l-54 -376
q-14 -97 -32.5 -151.5t-45 -78.5t-68.5 -24q-34 0 -50 12.5t-14 30.5q1 14 11 22.5t25 8.5q16 0 22.5 -8t11.5 -23q5 -13 9.5 -19t14.5 -6q12 0 20 15.5t17 59.5t22 135l51 353q1 7 1 19q0 17 -8.5 21t-37.5 6q-46 3 -142 3l-55 -376q-14 -97 -32.5 -151.5t-45 -78.5
t-68.5 -24q-33 0 -49.5 12.5t-13.5 30.5q1 14 11 22.5t25 8.5t22 -8t12 -23q4 -13 8.5 -19t14.5 -6q12 0 20.5 15.5t17.5 59.5t22 135l51 353q2 20 2 26q0 19 -11 24t-46 5q-3 0 -3 5q0 2 1.5 4.5t2.5 2.5q35 0 50.5 10t19.5 35q27 135 81.5 192.5t138.5 57.5q61 0 108 -31
q53 66 139 66q26 0 55 -9q38 32 103 32q35 0 54.5 -15.5zM572.5 571.5q17.5 59.5 41.5 93.5q-26 23 -56 23q-49 0 -84 -63.5t-54 -185.5l-9 -64h89q19 4 28 13.5t12 29.5q15 94 32.5 153.5zM164 375q110 0 143 1q22 2 35.5 8.5t19.5 20.5l3 13q15 91 45 159q-13 32 -40.5 54
t-58.5 22q-49 0 -84 -54.5t-54 -159.5z" />
    <glyph glyph-name="f_f_h.liga" unicode="ffh" horiz-adv-x="954" 
d="M932 79q3 0 5 -3.5t-1 -6.5q-34 -40 -60.5 -59t-51.5 -19q-18 0 -26 10.5t-8 33.5q0 21 6 54l29 159q5 26 5 53q0 30 -10 44.5t-32 14.5q-32 0 -67 -41t-66.5 -119.5t-51.5 -185.5l-1 -7q-3 -15 -33 -15q-13 0 -17 1.5t-4 4.5q1 5 3 16t5 26l7 34l104 563
q-14 31 -40 52.5t-57 21.5q-52 0 -90.5 -69.5t-59.5 -202.5l-9 -62q42 1 103 6q9 0 7 -9q-3 -10 -14 -22t-20 -10q-9 1 -33 5t-47 5l-54 -373q-14 -97 -32.5 -151.5t-45 -78.5t-68.5 -24q-33 0 -49.5 12.5t-13.5 30.5q1 14 11 22.5t25 8.5t22 -8t12 -23q4 -13 8.5 -19
t14.5 -6q12 0 20.5 15.5t17.5 59.5t22 135l51 353q1 7 1 19q0 17 -8.5 21t-37.5 6q-46 3 -142 3l-55 -376q-14 -97 -32.5 -151.5t-45 -78.5t-68.5 -24q-33 0 -49.5 12.5t-13.5 30.5q1 14 11 22.5t25 8.5t22 -8t12 -23q4 -13 8.5 -19t14.5 -6q12 0 20.5 15.5t17.5 59.5
t22 135l51 353q2 20 2 26q0 19 -11 24t-46 5q-3 0 -3 5q0 2 1.5 4.5t2.5 2.5q35 0 50.5 10t19.5 35q27 135 81.5 192.5t138.5 57.5q56 0 102 -27q29 45 67.5 65t89.5 20q59 0 102 -29q22 15 29 47q1 4 6.5 2.5t4.5 -3.5l-104 -561q36 102 84.5 159.5t101.5 57.5q33 0 49 -18
t16 -57q0 -24 -6 -57l-32 -178q-3 -16 -3 -27q0 -31 18 -31q22 0 66 46q2 2 4 2zM164 375q110 0 143 1q38 2 51 22q4 7 6 20q18 103 44 164q-14 31 -40.5 51t-56.5 20q-49 0 -84 -54.5t-54 -159.5z" />
    <glyph glyph-name="f_f_j.liga" unicode="ffj" horiz-adv-x="709" 
d="M676 707q25 -19 22 -45q-6 -30 -33 -30q-14 0 -21 8.5t-14 26.5q-9 22 -19 33t-31 11q-56 0 -98 -69.5t-62 -202.5l-9 -64q102 1 195 8q33 3 53 3q7 0 10 -2t3 -8t-5 -29l-10 -55l-57 -330q-17 -95 -35 -145t-43.5 -71t-66.5 -21q-30 0 -46 11t-16 28t10 26t23 9t18 -7.5
t11 -24.5q4 -14 8 -20.5t13 -6.5q15 0 25.5 19t20 59.5t23.5 120.5l61 350q3 17 3 28q0 21 -16.5 29.5t-52.5 10t-132 1.5l-55 -379q-14 -97 -32.5 -151.5t-45 -78.5t-68.5 -24q-33 0 -49.5 12.5t-13.5 30.5q1 14 11 22.5t25 8.5t22 -8t12 -23q4 -13 8.5 -19t14.5 -6
q12 0 20.5 15.5t17.5 59.5t22 135l51 353q1 7 1 19q0 17 -8.5 21t-37.5 6q-46 3 -142 3l-55 -376q-14 -97 -32.5 -151.5t-45 -78.5t-68.5 -24q-33 0 -49.5 12.5t-13.5 30.5q1 14 11 22.5t25 8.5t22 -8t12 -23q4 -13 8.5 -19t14.5 -6q12 0 20.5 15.5t17.5 59.5t22 135l51 353
q2 20 2 26q0 19 -11 24t-46 5q-3 0 -3 5q0 2 1.5 4.5t2.5 2.5q35 0 50.5 10t19.5 35q27 135 81.5 192.5t138.5 57.5q61 0 106 -30q60 88 161 88q47 0 72 -19zM164 375q110 0 143 1q38 2 51 22q4 7 6 20q17 91 46 160q-14 32 -41 53.5t-58 21.5q-49 0 -84 -54.5t-54 -159.5z
" />
    <glyph glyph-name="f_f_k.liga" unicode="ffk" horiz-adv-x="915" 
d="M916 76q3 0 5 -3.5t0 -5.5q-67 -76 -106 -76q-23 0 -40 14.5t-40 52.5l-58 101q-9 15 -16 21t-18 6l-9 -1l-32 -178q-3 -15 -33 -15q-13 0 -17 1.5t-4 4.5q1 5 3 16t5 26l7 34l104 563q-14 31 -40 52.5t-57 21.5q-52 0 -90.5 -69.5t-59.5 -202.5l-9 -62q42 1 103 6
q9 0 7 -9q-3 -10 -14 -22t-20 -10q-9 1 -33 5t-47 5l-54 -373q-14 -97 -32.5 -151.5t-45 -78.5t-68.5 -24q-33 0 -49.5 12.5t-13.5 30.5q1 14 11 22.5t25 8.5t22 -8t12 -23q4 -13 8.5 -19t14.5 -6q12 0 20.5 15.5t17.5 59.5t22 135l51 353q1 7 1 19q0 17 -8.5 21t-37.5 6
q-46 3 -142 3l-55 -376q-14 -97 -32.5 -151.5t-45 -78.5t-68.5 -24q-33 0 -49.5 12.5t-13.5 30.5q1 14 11 22.5t25 8.5t22 -8t12 -23q4 -13 8.5 -19t14.5 -6q12 0 20.5 15.5t17.5 59.5t22 135l51 353q2 20 2 26q0 19 -11 24t-46 5q-3 0 -3 5q0 2 1.5 4.5t2.5 2.5
q35 0 50.5 10t19.5 35q27 135 81.5 192.5t138.5 57.5q56 0 102 -27q29 45 67.5 65t89.5 20q59 0 102 -29q22 15 29 47q1 4 6.5 2.5t4.5 -3.5l-81 -434q38 42 83.5 66t91.5 24q30 0 43 -15t13 -34q0 -39 -47 -77t-128 -65l68 -116q20 -34 34 -46t30 -12q26 0 68 41q1 1 3 1z
M164 375q110 0 143 1q38 2 51 22q4 7 6 20q18 103 44 164q-14 31 -40.5 51t-56.5 20q-49 0 -84 -54.5t-54 -159.5zM696 324q-41 -45 -58 -119l-1 -6q90 21 130.5 48t49.5 74q1 5 1 14q0 16 -8 25t-22 9q-51 0 -92 -45z" />
    <glyph glyph-name="f_f_thorn.liga" unicode="ff&#xfe;" horiz-adv-x="924" 
d="M879 364q26 -29 26 -78q0 -17 -3 -35q-14 -75 -54 -132.5t-91.5 -88.5t-96.5 -31q-36 0 -56 3l-33 -180q-4 -24 -4 -30q0 -17 8.5 -24.5t28.5 -7.5q6 0 24 2h1q4 0 5 -5t-3 -6l-174 -26q-3 -1 -4.5 5t2.5 7q23 4 33.5 10.5t16 20.5t11.5 47l87 476l-19 -14l-27 -21l-2 -1
q-3 0 -5 4t0 5q26 23 57 46l60 327q-14 31 -40 52.5t-57 21.5q-52 0 -90.5 -69.5t-59.5 -202.5l-9 -62q42 1 103 6q9 0 7 -9q-3 -10 -14 -22t-20 -10q-9 1 -33 5t-47 5l-54 -373q-14 -97 -32.5 -151.5t-45 -78.5t-68.5 -24q-33 0 -49.5 12.5t-13.5 30.5q1 14 11 22.5t25 8.5
t22 -8t12 -23q4 -13 8.5 -19t14.5 -6q12 0 20.5 15.5t17.5 59.5t22 135l51 353q1 7 1 19q0 17 -8.5 21t-37.5 6q-46 3 -142 3l-55 -376q-14 -97 -32.5 -151.5t-45 -78.5t-68.5 -24q-33 0 -49.5 12.5t-13.5 30.5q1 14 11 22.5t25 8.5t22 -8t12 -23q4 -13 8.5 -19t14.5 -6
q12 0 20.5 15.5t17.5 59.5t22 135l51 353q2 20 2 26q0 19 -11 24t-46 5q-3 0 -3 5q0 2 1.5 4.5t2.5 2.5q35 0 50.5 10t19.5 35q27 135 81.5 192.5t138.5 57.5q56 0 102 -27q29 45 67.5 65t89.5 20q59 0 102 -29q22 15 29 47q1 4 6.5 2.5t4.5 -3.5l-71 -394q77 44 141 44
q45 0 71 -29zM164 375q110 0 143 1q38 2 51 22q4 7 6 20q18 103 44 164q-14 31 -40.5 51t-56.5 20q-49 0 -84 -54.5t-54 -159.5zM842 258q0 44 -19 71.5t-61 27.5q-46 0 -99 -30l-52 -284q36 -16 77 -16q64 0 99.5 49.5t51.5 143.5q3 20 3 38z" />
    <glyph glyph-name="f_f_t.liga" unicode="fft" horiz-adv-x="782" 
d="M782 380.5q2 -2.5 1 -6.5q-3 -10 -14 -22t-20 -10q-63 9 -106 10l-44 -248q-3 -16 -3 -29q0 -25 12 -37t37 -12q27 0 49 11.5t48 32.5h1q3 0 6 -3t1 -5q-44 -39 -78 -56.5t-64 -17.5t-49.5 14t-19.5 47q0 11 3 24l42 233q2 16 2 21q0 17 -9.5 20.5t-42.5 5.5l-126 3
l-55 -377q-14 -97 -32.5 -151.5t-45 -78.5t-68.5 -24q-33 0 -49.5 12.5t-13.5 30.5q1 14 11 22.5t25 8.5t22 -8t12 -23q4 -13 8.5 -19t14.5 -6q12 0 20.5 15.5t17.5 59.5t22 135l51 353q1 7 1 19q0 17 -8.5 21t-37.5 6q-46 3 -142 3l-55 -376q-14 -97 -32.5 -151.5
t-45 -78.5t-68.5 -24q-33 0 -49.5 12.5t-13.5 30.5q1 14 11 22.5t25 8.5t22 -8t12 -23q4 -13 8.5 -19t14.5 -6q12 0 20.5 15.5t17.5 59.5t22 135l51 353q2 20 2 26q0 19 -11 24t-46 5q-3 0 -3 5q0 2 1.5 4.5t2.5 2.5q35 0 50.5 10t19.5 35q27 135 81.5 192.5t138.5 57.5
q52 0 90 -21q23 43 56 61t83 18q35 0 54.5 -15.5t17.5 -36.5q-3 -15 -12.5 -22.5t-22.5 -7.5q-14 0 -20.5 8t-13.5 26q-6 16 -13 24.5t-21 8.5q-39 0 -67 -68t-48 -204l-9 -65q100 0 133 2q39 0 65.5 20t35.5 54q0 3 8 3q10 0 8 -3l-13 -74q35 1 128 7q4 0 6 -2.5zM164 375
q110 0 143 1q38 2 51 22q4 7 6 20q18 106 39 173q-15 27 -39.5 44.5t-52.5 17.5q-49 0 -84 -54.5t-54 -159.5z" />
    <glyph glyph-name="f_h.liga" unicode="fh" horiz-adv-x="706" 
d="M685 79q3 0 5 -3.5t-1 -6.5q-34 -40 -60.5 -59t-51.5 -19q-18 0 -26 10.5t-8 33.5q0 21 6 54l29 159q5 26 5 53q0 30 -10 44.5t-32 14.5q-32 0 -67 -41t-66.5 -119.5t-51.5 -185.5l-1 -7q-3 -15 -33 -15q-13 0 -17 1.5t-4 4.5q1 5 3 16t5 26l7 34l104 563
q-14 31 -40 52.5t-57 21.5q-52 0 -90.5 -69.5t-59.5 -202.5l-9 -62q42 1 103 6q9 0 7 -9q-3 -10 -14 -22t-20 -10q-9 1 -33 5t-47 5l-54 -373q-14 -97 -32.5 -151.5t-45 -78.5t-68.5 -24q-33 0 -49.5 12.5t-13.5 30.5q1 14 11 22.5t25 8.5t22 -8t12 -23q4 -13 8.5 -19
t14.5 -6q12 0 20.5 15.5t17.5 59.5t22 135l51 353q2 20 2 26q0 19 -11 24t-46 5q-3 0 -3 5q0 2 1.5 4.5t2.5 2.5q35 0 50.5 10t19.5 35q30 169 86 238.5t146 69.5q59 0 102 -29q22 15 29 47q1 4 6.5 2.5t4.5 -3.5l-104 -561q36 102 84.5 159.5t101.5 57.5q33 0 49 -18
t16 -57q0 -24 -6 -57l-32 -178q-3 -16 -3 -27q0 -31 18 -31q22 0 66 46q2 2 4 2z" />
    <glyph glyph-name="f_j.liga" unicode="fj" horiz-adv-x="471" 
d="M429 707q25 -19 22 -45q-6 -30 -33 -30q-14 0 -21 8.5t-14 26.5q-9 22 -19 33t-31 11q-56 0 -98 -69.5t-62 -202.5l-9 -64q102 1 195 8q33 3 53 3q7 0 10 -2t3 -8t-5 -29l-10 -55l-57 -330q-17 -95 -35 -145t-43.5 -71t-66.5 -21q-30 0 -46 11t-16 28t10 26t23 9t18 -7.5
t11 -24.5q4 -14 8 -20.5t13 -6.5q15 0 25.5 19t20 59.5t23.5 120.5l61 350q3 17 3 28q0 21 -16.5 29.5t-52.5 10t-132 1.5l-55 -379q-14 -97 -32.5 -151.5t-45 -78.5t-68.5 -24q-33 0 -49.5 12.5t-13.5 30.5q1 14 11 22.5t25 8.5t22 -8t12 -23q4 -13 8.5 -19t14.5 -6
q12 0 20.5 15.5t17.5 59.5t22 135l51 353q2 20 2 26q0 19 -11 24t-46 5q-3 0 -3 5q0 2 1.5 4.5t2.5 2.5q35 0 50.5 10t19.5 35q31 170 93 239t147 69q47 0 72 -19z" />
    <glyph glyph-name="f_k.liga" unicode="fk" horiz-adv-x="667" 
d="M669 76q3 0 5 -3.5t0 -5.5q-67 -76 -106 -76q-23 0 -40 14.5t-40 52.5l-58 101q-9 15 -16 21t-18 6l-9 -1l-32 -178q-3 -15 -33 -15q-13 0 -17 1.5t-4 4.5q1 5 3 16t5 26l7 34l104 563q-14 31 -40 52.5t-57 21.5q-52 0 -90.5 -69.5t-59.5 -202.5l-9 -62q42 1 103 6
q9 0 7 -9q-3 -10 -14 -22t-20 -10q-9 1 -33 5t-47 5l-54 -373q-14 -97 -32.5 -151.5t-45 -78.5t-68.5 -24q-33 0 -49.5 12.5t-13.5 30.5q1 14 11 22.5t25 8.5t22 -8t12 -23q4 -13 8.5 -19t14.5 -6q12 0 20.5 15.5t17.5 59.5t22 135l51 353q2 20 2 26q0 19 -11 24t-46 5
q-3 0 -3 5q0 2 1.5 4.5t2.5 2.5q35 0 50.5 10t19.5 35q30 169 86 238.5t146 69.5q59 0 102 -29q22 15 29 47q1 4 6.5 2.5t4.5 -3.5l-81 -434q38 42 83.5 66t91.5 24q30 0 43 -15t13 -34q0 -39 -47 -77t-128 -65l68 -116q20 -34 34 -46t30 -12q26 0 68 41q1 1 3 1zM449 324
q-41 -45 -58 -119l-1 -6q90 21 130.5 48t49.5 74q1 5 1 14q0 16 -8 25t-22 9q-51 0 -92 -45z" />
    <glyph glyph-name="f_thorn.liga" unicode="f&#xfe;" horiz-adv-x="677" 
d="M632 364q26 -29 26 -78q0 -17 -3 -35q-14 -75 -54 -132.5t-91.5 -88.5t-96.5 -31q-36 0 -56 3l-33 -180q-4 -24 -4 -30q0 -17 8.5 -24.5t28.5 -7.5q6 0 24 2h1q4 0 5 -5t-3 -6l-174 -26q-3 -1 -4.5 5t2.5 7q23 4 33.5 10.5t16 20.5t11.5 47l87 476l-19 -14l-27 -21l-2 -1
q-3 0 -5 4t0 5q26 23 57 46l60 327q-14 31 -40 52.5t-57 21.5q-52 0 -90.5 -69.5t-59.5 -202.5l-9 -62q42 1 103 6q9 0 7 -9q-3 -10 -14 -22t-20 -10q-9 1 -33 5t-47 5l-54 -373q-14 -97 -32.5 -151.5t-45 -78.5t-68.5 -24q-33 0 -49.5 12.5t-13.5 30.5q1 14 11 22.5t25 8.5
t22 -8t12 -23q4 -13 8.5 -19t14.5 -6q12 0 20.5 15.5t17.5 59.5t22 135l51 353q2 20 2 26q0 19 -11 24t-46 5q-3 0 -3 5q0 2 1.5 4.5t2.5 2.5q35 0 50.5 10t19.5 35q30 169 86 238.5t146 69.5q59 0 102 -29q22 15 29 47q1 4 6.5 2.5t4.5 -3.5l-71 -394q77 44 141 44
q45 0 71 -29zM595 258q0 44 -19 71.5t-61 27.5q-47 0 -99 -30l-52 -284q36 -16 77 -16q64 0 99.5 49.5t51.5 143.5q3 20 3 38z" />
    <glyph glyph-name="f_t.liga" unicode="ft" horiz-adv-x="535" 
d="M535 380.5q2 -2.5 1 -6.5q-3 -10 -14 -22t-20 -10q-63 9 -106 10l-44 -248q-3 -16 -3 -29q0 -25 12 -37t37 -12q27 0 49 11.5t48 32.5h1q3 0 6 -3t1 -5q-44 -39 -78 -56.5t-64 -17.5t-49.5 14t-19.5 47q0 11 3 24l42 233q2 16 2 21q0 17 -9.5 20.5t-42.5 5.5l-126 3
l-55 -377q-14 -97 -32.5 -151.5t-45 -78.5t-68.5 -24q-33 0 -49.5 12.5t-13.5 30.5q1 14 11 22.5t25 8.5t22 -8t12 -23q4 -13 8.5 -19t14.5 -6q12 0 20.5 15.5t17.5 59.5t22 135l51 353q2 20 2 26q0 19 -11 24t-46 5q-3 0 -3 5q0 2 1.5 4.5t2.5 2.5q35 0 50.5 10t19.5 35
q20 123 44.5 188.5t61 92.5t96.5 27q35 0 54.5 -15.5t17.5 -36.5q-3 -15 -12.5 -22.5t-22.5 -7.5q-14 0 -20.5 8t-13.5 26q-6 16 -13 24.5t-21 8.5q-39 0 -67 -68t-48 -204l-9 -65q100 0 133 2q39 0 65.5 20t35.5 54q0 3 8 3q10 0 8 -3l-13 -74q35 1 128 7q4 0 6 -2.5z" />
    <glyph glyph-name="g_g.liga" unicode="gg" horiz-adv-x="758" 
d="M351 353q-22 0 -45 -6q15 -27 15 -63q0 -21 -4 -38q-9 -44 -34.5 -78t-60.5 -52t-71 -18q-9 0 -25 2q-14 -16 -14 -38q0 -25 21 -42t66 -40q36 -19 57 -32.5t36 -33.5t15 -47q0 -5 -2 -19q-8 -37 -38 -66.5t-74.5 -46t-92.5 -16.5q-68 0 -106 29.5t-38 72.5
q0 44 35.5 76.5t106.5 73.5q-34 25 -34 56q0 21 11.5 37t37.5 40q-30 11 -47 38.5t-17 63.5q0 17 5 40q12 63 60 104.5t107 41.5q49 0 77 -34q27 17 56.5 26.5t53.5 9.5q5 0 5 -12q0 -13 -4.5 -27t-8.5 -12q-20 10 -49 10zM769 382q0 -12 -4.5 -25.5t-8.5 -11.5
q-24 12 -56 12q-14 0 -20 -1q21 -27 21 -70q0 -17 -5 -40q-9 -44 -35 -77.5t-61 -52t-71 -18.5q-10 0 -24 2q-14 -16 -14 -37q0 -26 22.5 -43.5t69.5 -40.5q55 -26 84.5 -50.5t29.5 -63.5q0 -42 -29.5 -75.5t-78 -52t-101.5 -18.5q-64 0 -103 29t-39 73q0 43 30.5 74.5
t102.5 75.5q-37 25 -37 57q0 21 12 37.5t37 38.5q-30 11 -46 38t-16 65q0 22 4 39q12 63 59.5 104.5t106.5 41.5q42 0 68 -23q55 25 97 25q5 0 5 -12zM266 256q0 48 -18 83t-52 35q-30 0 -55.5 -29.5t-32.5 -73.5q-3 -19 -3 -38q0 -48 19 -82t52 -34q30 0 54.5 27.5
t32.5 74.5q3 18 3 37zM645 256q0 48 -18 83t-52 35q-30 0 -55.5 -29.5t-32.5 -73.5q-3 -19 -3 -38q0 -48 19 -82t52 -34q30 0 55 27.5t32 74.5q3 18 3 37zM618.5 -109q-28.5 23 -83.5 49q-32 16 -46 24q-43 -29 -64.5 -52.5t-21.5 -61.5q0 -44 36.5 -73.5t94.5 -29.5
q55 0 84 22t29 60q0 39 -28.5 62zM231 -111q-26 22 -78 50q-28 14 -45 25q-33 -21 -51 -34.5t-31 -34.5t-13 -48q0 -42 36.5 -71t96.5 -29q52 0 81.5 22.5t29.5 61.5q0 36 -26 58z" />
    <glyph glyph-name="g_y.liga" unicode="gy" horiz-adv-x="795" 
d="M757 341q0 -82 -65 -234t-151 -270t-144 -118q-18 0 -29.5 8t-11.5 25q0 18 11 27t30 9q77 0 113 40q29 33 52 70q-9 133 -34 237.5t-61 163t-77 58.5q-40 0 -73 -36q5 -18 5 -36q0 -16 -5 -39q-9 -44 -35 -77.5t-60.5 -52t-70.5 -18.5q-10 0 -24 2q-13 -15 -15 -32
q-3 -26 19.5 -44.5t70.5 -42.5q38 -20 60.5 -34t39 -35t16.5 -48q0 -38 -29 -71.5t-77.5 -53.5t-104.5 -20q-69 0 -110 29.5t-41 71.5q0 44 37 78t107 74q-36 26 -36 56q0 19 12.5 37t36.5 39q-30 11 -47 38.5t-17 63.5q0 17 5 40q12 63 60 104.5t107 41.5q33 0 56.5 -15.5
t34.5 -41.5q24 28 53.5 44t53.5 16q51 0 91.5 -58.5t66.5 -154t34 -203.5q34 61 59 123t34 109q5 28 5 45q0 36 -17 74q-9 22 -9 33q0 15 9.5 24t26.5 9q38 0 38 -55zM266 256q0 48 -18 83t-52 35q-30 0 -55.5 -29.5t-32.5 -73.5q-3 -19 -3 -38q0 -48 19 -82t52 -34
q30 0 54.5 27.5t32.5 74.5q3 18 3 37zM240 -113.5q-28 23.5 -82 52.5q-28 13 -48 26q-48 -30 -72.5 -54.5t-24.5 -63.5q0 -43 39 -71.5t103 -28.5q54 0 83.5 23t29.5 58t-28 58.5z" />
    <glyph glyph-name="g_yacute.liga" unicode="g&#xfd;" horiz-adv-x="795" 
d="M587.5 472q-5.5 2 -3.5 4l93 240q2 5 22 10t33 5q10 0 9 -4l-147 -254q-1 -3 -6.5 -1zM757 341q0 -82 -65 -234t-151 -270t-144 -118q-18 0 -29.5 8t-11.5 25q0 18 11 27t30 9q77 0 113 40q29 33 52 70q-9 133 -34 237.5t-61 163t-77 58.5q-40 0 -73 -36q5 -18 5 -36
q0 -16 -5 -39q-9 -44 -35 -77.5t-60.5 -52t-70.5 -18.5q-10 0 -24 2q-13 -15 -15 -32q-3 -26 19.5 -44.5t70.5 -42.5q38 -20 60.5 -34t39 -35t16.5 -48q0 -38 -29 -71.5t-77.5 -53.5t-104.5 -20q-69 0 -110 29.5t-41 71.5q0 44 37 78t107 74q-36 26 -36 56q0 19 12.5 37
t36.5 39q-30 11 -47 38.5t-17 63.5q0 17 5 40q12 63 60 104.5t107 41.5q33 0 56.5 -15.5t34.5 -41.5q24 28 53.5 44t53.5 16q51 0 91.5 -58.5t66.5 -154t34 -203.5q34 61 59 123t34 109q5 28 5 45q0 36 -17 74q-9 22 -9 33q0 15 9.5 24t26.5 9q38 0 38 -55zM266 256
q0 48 -18 83t-52 35q-30 0 -55.5 -29.5t-32.5 -73.5q-3 -19 -3 -38q0 -48 19 -82t52 -34q30 0 54.5 27.5t32.5 74.5q3 18 3 37zM240 -113.5q-28 23.5 -82 52.5q-28 13 -48 26q-48 -30 -72.5 -54.5t-24.5 -63.5q0 -43 39 -71.5t103 -28.5q54 0 83.5 23t29.5 58t-28 58.5z" />
    <glyph glyph-name="g_ycircumflex.liga" unicode="g&#x177;" horiz-adv-x="795" 
d="M533 473q-3 0 -6 1.5t-2 3.5l105 249q3 5 11 5t8 -5l18 -249q0 -3 -6 -3.5t-6 2.5l-32 154l-87 -157q-1 -1 -3 -1zM757 341q0 -82 -65 -234t-151 -270t-144 -118q-18 0 -29.5 8t-11.5 25q0 18 11 27t30 9q77 0 113 40q29 33 52 70q-9 133 -34 237.5t-61 163t-77 58.5
q-40 0 -73 -36q5 -18 5 -36q0 -16 -5 -39q-9 -44 -35 -77.5t-60.5 -52t-70.5 -18.5q-10 0 -24 2q-13 -15 -15 -32q-3 -26 19.5 -44.5t70.5 -42.5q38 -20 60.5 -34t39 -35t16.5 -48q0 -38 -29 -71.5t-77.5 -53.5t-104.5 -20q-69 0 -110 29.5t-41 71.5q0 44 37 78t107 74
q-36 26 -36 56q0 19 12.5 37t36.5 39q-30 11 -47 38.5t-17 63.5q0 17 5 40q12 63 60 104.5t107 41.5q33 0 56.5 -15.5t34.5 -41.5q24 28 53.5 44t53.5 16q51 0 91.5 -58.5t66.5 -154t34 -203.5q34 61 59 123t34 109q5 28 5 45q0 36 -17 74q-9 22 -9 33q0 15 9.5 24t26.5 9
q38 0 38 -55zM266 256q0 48 -18 83t-52 35q-30 0 -55.5 -29.5t-32.5 -73.5q-3 -19 -3 -38q0 -48 19 -82t52 -34q30 0 54.5 27.5t32.5 74.5q3 18 3 37zM240 -113.5q-28 23.5 -82 52.5q-28 13 -48 26q-48 -30 -72.5 -54.5t-24.5 -63.5q0 -43 39 -71.5t103 -28.5q54 0 83.5 23
t29.5 58t-28 58.5z" />
    <glyph glyph-name="g_ydieresis.liga" unicode="g&#xff;" horiz-adv-x="795" 
d="M504 489q-11 11 -11 30t11 30t31 11t30.5 -10.5t10.5 -30.5q0 -19 -10.5 -30t-30.5 -11t-31 11zM654.5 489q-11.5 11 -11.5 30t11.5 30t31.5 11t30.5 -10.5t10.5 -30.5q0 -19 -10.5 -30t-30.5 -11t-31.5 11zM757 341q0 -82 -65 -234t-151 -270t-144 -118q-18 0 -29.5 8
t-11.5 25q0 18 11 27t30 9q77 0 113 40q29 33 52 70q-9 133 -34 237.5t-61 163t-77 58.5q-40 0 -73 -36q5 -18 5 -36q0 -16 -5 -39q-9 -44 -35 -77.5t-60.5 -52t-70.5 -18.5q-10 0 -24 2q-13 -15 -15 -32q-3 -26 19.5 -44.5t70.5 -42.5q38 -20 60.5 -34t39 -35t16.5 -48
q0 -38 -29 -71.5t-77.5 -53.5t-104.5 -20q-69 0 -110 29.5t-41 71.5q0 44 37 78t107 74q-36 26 -36 56q0 19 12.5 37t36.5 39q-30 11 -47 38.5t-17 63.5q0 17 5 40q12 63 60 104.5t107 41.5q33 0 56.5 -15.5t34.5 -41.5q24 28 53.5 44t53.5 16q51 0 91.5 -58.5t66.5 -154
t34 -203.5q34 61 59 123t34 109q5 28 5 45q0 36 -17 74q-9 22 -9 33q0 15 9.5 24t26.5 9q38 0 38 -55zM266 256q0 48 -18 83t-52 35q-30 0 -55.5 -29.5t-32.5 -73.5q-3 -19 -3 -38q0 -48 19 -82t52 -34q30 0 54.5 27.5t32.5 74.5q3 18 3 37zM240 -113.5q-28 23.5 -82 52.5
q-28 13 -48 26q-48 -30 -72.5 -54.5t-24.5 -63.5q0 -43 39 -71.5t103 -28.5q54 0 83.5 23t29.5 58t-28 58.5z" />
    <glyph glyph-name="g_ygrave.liga" unicode="g&#x1ef3;" horiz-adv-x="795" 
d="M563 727q-1 4 9 4q13 0 30 -5t17 -10l-5 -240q0 -2 -4.5 -3t-4.5 2zM757 341q0 -82 -65 -234t-151 -270t-144 -118q-18 0 -29.5 8t-11.5 25q0 18 11 27t30 9q77 0 113 40q29 33 52 70q-9 133 -34 237.5t-61 163t-77 58.5q-40 0 -73 -36q5 -18 5 -36q0 -16 -5 -39
q-9 -44 -35 -77.5t-60.5 -52t-70.5 -18.5q-10 0 -24 2q-13 -15 -15 -32q-3 -26 19.5 -44.5t70.5 -42.5q38 -20 60.5 -34t39 -35t16.5 -48q0 -38 -29 -71.5t-77.5 -53.5t-104.5 -20q-69 0 -110 29.5t-41 71.5q0 44 37 78t107 74q-36 26 -36 56q0 19 12.5 37t36.5 39
q-30 11 -47 38.5t-17 63.5q0 17 5 40q12 63 60 104.5t107 41.5q33 0 56.5 -15.5t34.5 -41.5q24 28 53.5 44t53.5 16q51 0 91.5 -58.5t66.5 -154t34 -203.5q34 61 59 123t34 109q5 28 5 45q0 36 -17 74q-9 22 -9 33q0 15 9.5 24t26.5 9q38 0 38 -55zM266 256q0 48 -18 83
t-52 35q-30 0 -55.5 -29.5t-32.5 -73.5q-3 -19 -3 -38q0 -48 19 -82t52 -34q30 0 54.5 27.5t32.5 74.5q3 18 3 37zM240 -113.5q-28 23.5 -82 52.5q-28 13 -48 26q-48 -30 -72.5 -54.5t-24.5 -63.5q0 -43 39 -71.5t103 -28.5q54 0 83.5 23t29.5 58t-28 58.5z" />
    <glyph glyph-name="uni00670233.liga" unicode="g&#x233;" horiz-adv-x="795" 
d="M486 493q0 14 6 14h238q6 0 6 -14t-6 -14h-238q-6 0 -6 14zM757 341q0 -82 -65 -234t-151 -270t-144 -118q-18 0 -29.5 8t-11.5 25q0 18 11 27t30 9q77 0 113 40q29 33 52 70q-9 133 -34 237.5t-61 163t-77 58.5q-40 0 -73 -36q5 -18 5 -36q0 -16 -5 -39
q-9 -44 -35 -77.5t-60.5 -52t-70.5 -18.5q-10 0 -24 2q-13 -15 -15 -32q-3 -26 19.5 -44.5t70.5 -42.5q38 -20 60.5 -34t39 -35t16.5 -48q0 -38 -29 -71.5t-77.5 -53.5t-104.5 -20q-69 0 -110 29.5t-41 71.5q0 44 37 78t107 74q-36 26 -36 56q0 19 12.5 37t36.5 39
q-30 11 -47 38.5t-17 63.5q0 17 5 40q12 63 60 104.5t107 41.5q33 0 56.5 -15.5t34.5 -41.5q24 28 53.5 44t53.5 16q51 0 91.5 -58.5t66.5 -154t34 -203.5q34 61 59 123t34 109q5 28 5 45q0 36 -17 74q-9 22 -9 33q0 15 9.5 24t26.5 9q38 0 38 -55zM266 256q0 48 -18 83
t-52 35q-30 0 -55.5 -29.5t-32.5 -73.5q-3 -19 -3 -38q0 -48 19 -82t52 -34q30 0 54.5 27.5t32.5 74.5q3 18 3 37zM240 -113.5q-28 23.5 -82 52.5q-28 13 -48 26q-48 -30 -72.5 -54.5t-24.5 -63.5q0 -43 39 -71.5t103 -28.5q54 0 83.5 23t29.5 58t-28 58.5z" />
    <glyph glyph-name="uni00671EF9.liga" unicode="g&#x1ef9;" horiz-adv-x="795" 
d="M479 480q-3 0 -5 2.5t0 4.5q17 23 40 42t47 19q14 0 50 -10q46 -14 75 -14q18 0 29 7t22 20h1q3 0 5.5 -2.5t0.5 -4.5q-27 -36 -44.5 -49t-36.5 -13q-21 0 -61 12q-4 1 -25.5 7t-44.5 6q-17 0 -26 -5.5t-16 -12.5l-9 -9h-2zM757 341q0 -82 -65 -234t-151 -270t-144 -118
q-18 0 -29.5 8t-11.5 25q0 18 11 27t30 9q77 0 113 40q29 33 52 70q-9 133 -34 237.5t-61 163t-77 58.5q-40 0 -73 -36q5 -18 5 -36q0 -16 -5 -39q-9 -44 -35 -77.5t-60.5 -52t-70.5 -18.5q-10 0 -24 2q-13 -15 -15 -32q-3 -26 19.5 -44.5t70.5 -42.5q38 -20 60.5 -34
t39 -35t16.5 -48q0 -38 -29 -71.5t-77.5 -53.5t-104.5 -20q-69 0 -110 29.5t-41 71.5q0 44 37 78t107 74q-36 26 -36 56q0 19 12.5 37t36.5 39q-30 11 -47 38.5t-17 63.5q0 17 5 40q12 63 60 104.5t107 41.5q33 0 56.5 -15.5t34.5 -41.5q24 28 53.5 44t53.5 16
q51 0 91.5 -58.5t66.5 -154t34 -203.5q34 61 59 123t34 109q5 28 5 45q0 36 -17 74q-9 22 -9 33q0 15 9.5 24t26.5 9q38 0 38 -55zM266 256q0 48 -18 83t-52 35q-30 0 -55.5 -29.5t-32.5 -73.5q-3 -19 -3 -38q0 -48 19 -82t52 -34q30 0 54.5 27.5t32.5 74.5q3 18 3 37z
M240 -113.5q-28 23.5 -82 52.5q-28 13 -48 26q-48 -30 -72.5 -54.5t-24.5 -63.5q0 -43 39 -71.5t103 -28.5q54 0 83.5 23t29.5 58t-28 58.5z" />
    <glyph glyph-name="longs_b.liga" unicode="&#x17f;b" horiz-adv-x="701" 
d="M663 370.5q22 -28.5 22 -75.5q0 -19 -5 -44q-16 -81 -61 -141t-101 -91.5t-104 -31.5q-45 0 -72 19.5t-27 53.5q0 5 2 17l108 574q-15 26 -39.5 43t-50.5 17q-53 0 -92 -70t-58 -202l-68 -460q-14 -97 -32 -151.5t-45 -78.5t-68 -24q-32 0 -48.5 11.5t-16.5 28.5
q0 14 10.5 24t26.5 10t22.5 -8t11.5 -23q4 -13 8.5 -19t14.5 -6q13 0 21 15.5t17 59t22 135.5l68 465q25 168 82 238t149 70q58 0 97 -26q18 15 24 44q1 3 7 2.5t5 -3.5l-97 -524q34 80 90.5 130t115.5 50q39 0 61 -28.5zM621 274q0 37 -14.5 58t-45.5 21q-41 0 -78.5 -31.5
t-66 -89t-42.5 -132.5l-1 -4q-1 -5 -1 -15q0 -31 22.5 -49.5t60.5 -18.5q33 0 65.5 24.5t57.5 71.5t37 111q6 29 6 54z" />
    <glyph glyph-name="longs_h.liga" unicode="&#x17f;h" horiz-adv-x="708" 
d="M687 79q3 0 5 -3.5t-1 -6.5q-34 -40 -60.5 -59t-51.5 -19q-18 0 -26.5 10.5t-8.5 34.5q0 20 6 53l30 159q6 32 6 54q0 58 -43 58q-32 0 -67 -41t-66.5 -119.5t-51.5 -185.5l-1 -7q-3 -15 -32 -15q-14 0 -18.5 1.5t-4.5 4.5q0 4 2 12t4 18l10 46l107 577q-15 26 -39.5 43
t-50.5 17q-53 0 -92 -70t-58 -202l-68 -460q-14 -97 -32 -151.5t-45 -78.5t-68 -24q-32 0 -48.5 11.5t-16.5 28.5q0 14 10.5 24t26.5 10t22.5 -8t11.5 -23q4 -13 8.5 -19t14.5 -6q13 0 21 15.5t17 59t22 135.5l68 465q25 168 82 238t149 70q58 0 97 -26q18 15 24 44
q1 3 7 2.5t5 -3.5l-103 -558q36 100 84 157t101 57q33 0 49 -18t16 -57q0 -24 -6 -57l-33 -178q-3 -15 -3 -27q0 -31 19 -31q22 0 66 46q2 2 4 2z" />
    <glyph glyph-name="longs_i.liga" unicode="&#x17f;i" horiz-adv-x="477" 
d="M-76.5 -263.5q-16.5 11.5 -16.5 28.5q0 14 10.5 24t26.5 10t22.5 -8t11.5 -23q4 -13 8.5 -19t14.5 -6q13 0 21 15.5t17 59t22 135.5l68 465q25 170 84.5 239t142.5 69q44 0 69 -16.5t25 -40.5q0 -19 -9 -28t-23 -9q-15 0 -22 9t-14 27q-9 21 -18.5 32t-30.5 11
q-51 0 -90 -69.5t-59 -202.5l-67 -460q-14 -97 -32 -151.5t-45 -78.5t-68 -24q-32 0 -48.5 11.5zM279 1.5q-9 10.5 -9 34.5q0 15 7 53l41 208q3 15 3 27q0 32 -20 32q-12 0 -30.5 -12t-38.5 -34q-1 -1 -3 -1q-3 0 -5.5 3.5t0.5 5.5q35 40 63 58.5t53 18.5q18 0 26.5 -10.5
t8.5 -34.5q0 -19 -6 -51l-41 -210q-3 -16 -3 -27q0 -31 19 -31q24 0 68 44q2 2 4 2q3 0 5 -3.5t-1 -6.5q-34 -39 -61 -57.5t-53 -18.5q-18 0 -27 10.5z" />
    <glyph glyph-name="longs_j.liga" unicode="&#x17f;j" horiz-adv-x="488" 
d="M-76.5 -263.5q-16.5 11.5 -16.5 28.5q0 14 10.5 24t26.5 10t22.5 -8t11.5 -23q4 -13 8.5 -19t14.5 -6q13 0 21 15.5t17 59t22 135.5l68 465q48 308 237 308q49 0 74 -18.5t22 -45.5q-6 -30 -32 -30q-15 0 -22 8.5t-14 26.5q-8 21 -18 32.5t-33 11.5q-54 0 -96 -69.5
t-63 -202.5l-67 -460q-14 -97 -32 -151.5t-45 -78.5t-68 -24q-32 0 -48.5 11.5zM141.5 -262.5q-16.5 12.5 -14.5 30.5q3 15 12 23t22 8t18 -7.5t10 -24.5q4 -14 8.5 -20.5t13.5 -6.5q14 0 24.5 19t20.5 60.5t23 119.5l62 358q3 15 3 27q0 32 -20 32q-11 0 -29.5 -12
t-39.5 -34q-1 -1 -3 -1q-3 0 -5.5 3.5t0.5 5.5q35 40 63 58.5t54 18.5q17 0 25 -10.5t8 -33.5q0 -26 -5 -52l-58 -337q-16 -94 -34 -144.5t-44 -71.5t-67 -21q-31 0 -47.5 12.5z" />
    <glyph glyph-name="longs_k.liga" unicode="&#x17f;k" horiz-adv-x="679" 
d="M670 76q4 0 6 -3.5t0 -5.5q-67 -76 -106 -76q-23 0 -40 14.5t-40 52.5l-58 101q-9 15 -16 21t-18 6l-9 -1l-32 -178q-3 -15 -32 -15q-14 0 -18.5 1.5t-4.5 4.5q0 4 2 12t4 18l10 46l107 577q-15 26 -39.5 43t-50.5 17q-53 0 -92 -70t-58 -202l-68 -460
q-14 -97 -32 -151.5t-45 -78.5t-68 -24q-32 0 -48.5 11.5t-16.5 28.5q0 14 10.5 24t26.5 10t22.5 -8t11.5 -23q4 -13 8.5 -19t14.5 -6q13 0 21 15.5t17 59t22 135.5l68 465q25 168 82 238t149 70q58 0 97 -26q18 15 24 44q1 3 7 2.5t5 -3.5l-81 -434q37 42 82.5 66t92.5 24
q30 0 42.5 -14.5t12.5 -33.5q0 -8 -1 -12q-7 -36 -52 -70.5t-120 -60.5l67 -116q20 -35 34 -46.5t30 -11.5q26 0 67 41q1 1 3 1zM451 324q-41 -45 -58 -119l-1 -6q91 21 131.5 48t48.5 74q1 5 1 14q0 16 -8 25t-22 9q-51 0 -92 -45z" />
    <glyph glyph-name="longs_l.liga" unicode="&#x17f;l" horiz-adv-x="496" 
d="M371 89q-3 -16 -3 -27q0 -31 20 -31q22 0 66 46q2 2 3 2q3 0 5.5 -3.5t-0.5 -6.5q-35 -40 -61 -59t-52 -19q-18 0 -26.5 10.5t-8.5 34.5q0 22 6 53l105 562q-15 26 -39.5 43t-50.5 17q-53 0 -92 -70t-58 -202l-68 -460q-14 -97 -32 -151.5t-45 -78.5t-68 -24
q-32 0 -48.5 11.5t-16.5 28.5q0 14 10.5 24t26.5 10t22.5 -8t11.5 -23q4 -13 8.5 -19t14.5 -6q13 0 21 15.5t17 59t22 135.5l68 465q25 168 82 238t149 70q58 0 97 -26q18 15 24 44q1 3 7 2.5t5 -3.5z" />
    <glyph glyph-name="longs_thorn.liga" unicode="&#x17f;&#xfe;" horiz-adv-x="683" 
d="M639 364q26 -29 26 -78q0 -17 -3 -35q-14 -75 -54.5 -132.5t-91.5 -88.5t-96 -31q-37 0 -57 3l-33 -180q-3 -17 -3 -28q0 -18 8.5 -26t27.5 -8q6 0 24 2h1q4 0 5 -5t-3 -6l-173 -26q-4 -1 -5 5t3 7q23 4 33.5 10.5t15.5 20.5t12 47l88 476q-40 -30 -47 -35l-2 -1
q-4 0 -6 4t1 5q20 18 57 47l61 333q-14 28 -39 47.5t-54 19.5q-53 0 -92 -70t-58 -202l-68 -460q-14 -97 -32 -151.5t-45 -78.5t-68 -24q-32 0 -48.5 11.5t-16.5 28.5q0 14 10.5 24t26.5 10t22.5 -8t11.5 -23q4 -13 8.5 -19t14.5 -6q13 0 21 15.5t17 59t22 135.5l68 465
q25 168 82 238t149 70q59 0 100 -28q20 17 26 46q0 3 5 3q3 0 5.5 -1.5t1.5 -2.5l-72 -394q77 44 142 44q45 0 71 -29zM602 257q0 44 -19.5 72t-60.5 28q-46 0 -100 -30l-52 -283q36 -17 78 -17q64 0 99.5 49.5t51.5 143.5q3 20 3 37z" />
    <glyph glyph-name="longs_longs.liga" unicode="&#x17f;&#x17f;" horiz-adv-x="480" 
d="M611.5 711q17.5 -15 15.5 -37q-1 -13 -9 -21t-22 -8q-18 0 -24.5 9.5t-9.5 26.5q-2 15 -7 23t-18 8q-35 0 -59.5 -65.5t-45.5 -207.5l-68 -460q-14 -97 -32 -151.5t-45 -78.5t-68 -24q-33 0 -49 12.5t-14 31.5q1 13 11 21.5t25 8.5t22 -8t12 -23q5 -13 9.5 -19t13.5 -6
q13 0 21 15.5t16.5 58.5t21.5 136l68 465q16 118 40 184q-16 23 -38 37t-47 14q-50 0 -86 -55.5t-52 -158.5l-67 -460q-14 -97 -32 -151.5t-45 -78.5t-68 -24q-32 0 -48.5 11.5t-16.5 28.5q0 14 10.5 24t26.5 10t22.5 -8t11.5 -23q4 -13 8.5 -19t14.5 -6q13 0 21 15.5t17 59
t22 135.5l68 465q36 250 218 250q44 0 81 -16q21 40 50 57t69 17q38 0 55.5 -15z" />
    <glyph glyph-name="longs_longs_b.liga" unicode="&#x17f;&#x17f;b" horiz-adv-x="947" 
d="M908 370.5q22 -28.5 22 -75.5q0 -19 -5 -44q-16 -81 -61 -141t-101 -91.5t-104 -31.5q-45 0 -72 19.5t-27 53.5q0 5 2 17l108 574q-15 26 -39.5 43t-50.5 17q-53 0 -92 -70t-58 -202l-68 -460q-14 -97 -32 -151.5t-45 -78.5t-68 -24q-32 0 -48.5 11.5t-16.5 28.5
q0 14 10.5 24t26.5 10t22.5 -8t11.5 -23q4 -13 8.5 -19t14.5 -6q13 0 21 15.5t17 59t22 135.5l68 465q16 107 47 177q-17 26 -40 42t-50 16q-50 0 -86 -55.5t-52 -158.5l-67 -460q-14 -97 -32 -151.5t-45 -78.5t-68 -24q-32 0 -48.5 11.5t-16.5 28.5q0 14 10.5 24t26.5 10
t22.5 -8t11.5 -23q4 -13 8.5 -19t14.5 -6q13 0 21 15.5t17 59t22 135.5l68 465q36 250 218 250q51 0 93 -22q30 42 68.5 61t87.5 19q58 0 97 -26q18 15 24 44q1 3 7 2.5t5 -3.5l-97 -524q34 80 90.5 130t115.5 50q39 0 61 -28.5zM866 274q0 37 -14.5 58t-45.5 21
q-41 0 -78.5 -31.5t-66 -89t-42.5 -132.5l-1 -4q-1 -5 -1 -15q0 -31 22.5 -49.5t60.5 -18.5q33 0 65.5 24.5t57.5 71.5t37 111q6 29 6 54z" />
    <glyph glyph-name="longs_longs_h.liga" unicode="&#x17f;&#x17f;h" horiz-adv-x="958" 
d="M938 79q3 0 5 -3.5t-1 -6.5q-34 -40 -60.5 -59t-51.5 -19q-18 0 -26.5 10.5t-8.5 34.5q0 20 6 53l30 159q6 32 6 54q0 58 -43 58q-32 0 -67 -41t-66.5 -119.5t-51.5 -185.5l-1 -7q-3 -15 -32 -15q-14 0 -18.5 1.5t-4.5 4.5q0 4 2 12t4 18l10 46l107 577q-15 26 -39.5 43
t-50.5 17q-53 0 -92 -70t-58 -202l-68 -460q-14 -97 -32 -151.5t-45 -78.5t-68 -24q-32 0 -48.5 11.5t-16.5 28.5q0 14 10.5 24t26.5 10t22.5 -8t11.5 -23q4 -13 8.5 -19t14.5 -6q13 0 21 15.5t17 59t22 135.5l68 465q17 108 44 171q-16 28 -40.5 46t-52.5 18
q-50 0 -86 -55.5t-52 -158.5l-67 -460q-14 -97 -32 -151.5t-45 -78.5t-68 -24q-32 0 -48.5 11.5t-16.5 28.5q0 14 10.5 24t26.5 10t22.5 -8t11.5 -23q4 -13 8.5 -19t14.5 -6q13 0 21 15.5t17 59t22 135.5l68 465q36 250 218 250q54 0 98 -24q29 43 68 62.5t89 19.5
q58 0 97 -26q18 15 24 44q1 3 7 2.5t5 -3.5l-103 -558q36 100 84 157t101 57q33 0 49 -18t16 -57q0 -24 -6 -57l-33 -178q-3 -15 -3 -27q0 -31 19 -31q22 0 66 46q2 2 4 2z" />
    <glyph glyph-name="longs_longs_i.liga" unicode="&#x17f;&#x17f;i" horiz-adv-x="722" 
d="M670 709.5q25 -16.5 25 -40.5q0 -19 -9 -28t-23 -9q-15 0 -22 9t-14 27q-9 21 -18.5 32t-30.5 11q-51 0 -90 -69.5t-59 -202.5l-67 -460q-14 -97 -32 -151.5t-45 -78.5t-68 -24q-32 0 -48.5 11.5t-16.5 28.5q0 14 10.5 24t26.5 10t22.5 -8t11.5 -23q4 -13 8.5 -19
t14.5 -6q13 0 21 15.5t17 59t22 135.5l68 465q16 108 47 176q-16 26 -39.5 42.5t-50.5 16.5q-50 0 -86 -55.5t-52 -158.5l-67 -460q-14 -97 -32 -151.5t-45 -78.5t-68 -24q-32 0 -48.5 11.5t-16.5 28.5q0 14 10.5 24t26.5 10t22.5 -8t11.5 -23q4 -13 8.5 -19t14.5 -6
q13 0 21 15.5t17 59t22 135.5l68 465q36 250 218 250q54 0 94 -22q57 80 151 80q44 0 69 -16.5zM661 77q3 0 5 -3.5t-1 -6.5q-34 -39 -61 -57.5t-53 -18.5q-18 0 -27 10.5t-9 34.5q0 15 7 53l41 208q3 15 3 27q0 32 -20 32q-12 0 -30.5 -12t-38.5 -34q-1 -1 -3 -1
q-3 0 -5.5 3.5t0.5 5.5q35 40 63 58.5t53 18.5q18 0 26.5 -10.5t8.5 -34.5q0 -19 -6 -51l-41 -210q-3 -16 -3 -27q0 -31 19 -31q24 0 68 44q2 2 4 2z" />
    <glyph glyph-name="longs_longs_j.liga" unicode="&#x17f;&#x17f;j" horiz-adv-x="719" 
d="M685 707.5q25 -18.5 22 -45.5q-6 -30 -32 -30q-15 0 -22 8.5t-14 26.5q-8 21 -18 32.5t-33 11.5q-54 0 -96 -69.5t-63 -202.5l-67 -460q-14 -97 -32 -151.5t-45 -78.5t-68 -24q-32 0 -48.5 11.5t-16.5 28.5q0 14 10.5 24t26.5 10t22.5 -8t11.5 -23q4 -13 8.5 -19t14.5 -6
q13 0 21 15.5t17 59t22 135.5l68 465q16 105 49 173q-16 28 -40.5 45t-51.5 17q-50 0 -86 -55.5t-52 -158.5l-67 -460q-14 -97 -32 -151.5t-45 -78.5t-68 -24q-32 0 -48.5 11.5t-16.5 28.5q0 14 10.5 24t26.5 10t22.5 -8t11.5 -23q4 -13 8.5 -19t14.5 -6q13 0 21 15.5t17 59
t22 135.5l68 465q36 250 218 250q56 0 98 -24q60 82 157 82q49 0 74 -18.5zM634 384.5q8 -10.5 8 -33.5q0 -26 -5 -52l-58 -337q-16 -94 -34 -144.5t-44 -71.5t-67 -21q-31 0 -47.5 12.5t-14.5 30.5q3 15 12 23t22 8t18 -7.5t10 -24.5q4 -14 8.5 -20.5t13.5 -6.5
q14 0 24.5 19t20.5 60.5t23 119.5l62 358q3 15 3 27q0 32 -20 32q-11 0 -29.5 -12t-39.5 -34q-1 -1 -3 -1q-3 0 -5.5 3.5t0.5 5.5q35 40 63 58.5t54 18.5q17 0 25 -10.5z" />
    <glyph glyph-name="longs_longs_k.liga" unicode="&#x17f;&#x17f;k" horiz-adv-x="920" 
d="M921 76q4 0 6 -3.5t0 -5.5q-67 -76 -106 -76q-23 0 -40 14.5t-40 52.5l-58 101q-9 15 -16 21t-18 6l-9 -1l-32 -178q-3 -15 -32 -15q-14 0 -18.5 1.5t-4.5 4.5q0 4 2 12t4 18l10 46l107 577q-15 26 -39.5 43t-50.5 17q-53 0 -92 -70t-58 -202l-68 -460
q-14 -97 -32 -151.5t-45 -78.5t-68 -24q-32 0 -48.5 11.5t-16.5 28.5q0 14 10.5 24t26.5 10t22.5 -8t11.5 -23q4 -13 8.5 -19t14.5 -6q13 0 21 15.5t17 59t22 135.5l68 465q17 108 44 171q-16 28 -40.5 46t-52.5 18q-50 0 -86 -55.5t-52 -158.5l-67 -460q-14 -97 -32 -151.5
t-45 -78.5t-68 -24q-32 0 -48.5 11.5t-16.5 28.5q0 14 10.5 24t26.5 10t22.5 -8t11.5 -23q4 -13 8.5 -19t14.5 -6q13 0 21 15.5t17 59t22 135.5l68 465q36 250 218 250q54 0 98 -24q29 43 68 62.5t89 19.5q58 0 97 -26q18 15 24 44q1 3 7 2.5t5 -3.5l-81 -434q37 42 82.5 66
t92.5 24q30 0 42.5 -14.5t12.5 -33.5q0 -8 -1 -12q-7 -36 -52 -70.5t-120 -60.5l67 -116q20 -35 34 -46.5t30 -11.5q26 0 67 41q1 1 3 1zM702 324q-41 -45 -58 -119l-1 -6q91 21 131.5 48t48.5 74q1 5 1 14q0 16 -8 25t-22 9q-51 0 -92 -45z" />
    <glyph glyph-name="longs_longs_l.liga" unicode="&#x17f;&#x17f;l" horiz-adv-x="746" 
d="M622 89q-3 -16 -3 -27q0 -31 20 -31q22 0 66 46q2 2 3 2q3 0 5.5 -3.5t-0.5 -6.5q-35 -40 -61 -59t-52 -19q-18 0 -26.5 10.5t-8.5 34.5q0 22 6 53l105 562q-15 26 -39.5 43t-50.5 17q-53 0 -92 -70t-58 -202l-68 -460q-14 -97 -32 -151.5t-45 -78.5t-68 -24
q-32 0 -48.5 11.5t-16.5 28.5q0 14 10.5 24t26.5 10t22.5 -8t11.5 -23q4 -13 8.5 -19t14.5 -6q13 0 21 15.5t17 59t22 135.5l68 465q17 108 44 171q-16 28 -40.5 46t-52.5 18q-50 0 -86 -55.5t-52 -158.5l-67 -460q-14 -97 -32 -151.5t-45 -78.5t-68 -24q-32 0 -48.5 11.5
t-16.5 28.5q0 14 10.5 24t26.5 10t22.5 -8t11.5 -23q4 -13 8.5 -19t14.5 -6q13 0 21 15.5t17 59t22 135.5l68 465q36 250 218 250q54 0 98 -24q29 43 68 62.5t89 19.5q58 0 97 -26q18 15 24 44q1 3 7 2.5t5 -3.5z" />
    <glyph glyph-name="longs_longs_thorn.liga" unicode="&#x17f;&#x17f;&#xfe;" horiz-adv-x="933" 
d="M890 364q26 -29 26 -78q0 -17 -3 -35q-14 -75 -54.5 -132.5t-91.5 -88.5t-96 -31q-37 0 -57 3l-33 -180q-3 -17 -3 -28q0 -18 8.5 -26t27.5 -8q6 0 24 2h1q4 0 5 -5t-3 -6l-173 -26q-4 -1 -5 5t3 7q23 4 33.5 10.5t15.5 20.5t12 47l88 476q-40 -30 -47 -35l-2 -1
q-4 0 -6 4t1 5q20 18 57 47l61 333q-14 28 -39 47.5t-54 19.5q-53 0 -92 -70t-58 -202l-68 -460q-14 -97 -32 -151.5t-45 -78.5t-68 -24q-32 0 -48.5 11.5t-16.5 28.5q0 14 10.5 24t26.5 10t22.5 -8t11.5 -23q4 -13 8.5 -19t14.5 -6q13 0 21 15.5t17 59t22 135.5l68 465
q17 108 44 171q-16 28 -40.5 46t-52.5 18q-50 0 -86 -55.5t-52 -158.5l-67 -460q-14 -97 -32 -151.5t-45 -78.5t-68 -24q-32 0 -48.5 11.5t-16.5 28.5q0 14 10.5 24t26.5 10t22.5 -8t11.5 -23q4 -13 8.5 -19t14.5 -6q13 0 21 15.5t17 59t22 135.5l68 465q36 250 218 250
q54 0 98 -24q29 43 68 62.5t89 19.5q59 0 100 -28q20 17 26 46q0 3 5 3q3 0 5.5 -1.5t1.5 -2.5l-72 -394q77 44 142 44q45 0 71 -29zM853 257q0 44 -19.5 72t-60.5 28q-46 0 -100 -30l-52 -283q36 -17 78 -17q64 0 99.5 49.5t51.5 143.5q3 20 3 37z" />
    <glyph glyph-name=".notdef" horiz-adv-x="450" 
d="M1 -275l177 1000h285l-176 -1000h-286zM214 556h150l6 32h-60l6 38h61l5 32h-148l-6 -32h57l-5 -38h-60zM192 426h150l5 34h-60l12 69h-90zM227 460l6 35h30l-7 -35h-29zM168 295h90l12 70h60l6 33h-149l-6 -33h59l-6 -36h-60zM159 239h149l17 99h-29l-12 -65h-119z
M135 103h149l20 113h-90l-10 -56h30l5 24h30l-8 -48h-91l14 80h-30zM104 -70h150l20 113h-150zM139 -37l8 48h92l-9 -48h-91zM81 -206h148l6 33h-91l70 47h29l6 34h-148l-6 -34h63l-71 -47z" />
    <glyph glyph-name=".null" horiz-adv-x="0" 
 />
    <glyph glyph-name="nonmarkingreturn" unicode="&#xd;" horiz-adv-x="234" 
 />
    <glyph glyph-name="NULL" horiz-adv-x="0" 
 />
    <glyph glyph-name="NULL" horiz-adv-x="0" 
 />
    <glyph glyph-name="space" unicode=" " horiz-adv-x="234" 
 />
    <glyph glyph-name="exclam" unicode="!" horiz-adv-x="219" 
d="M106.5 186.5q-5.5 0.5 -4.5 5.5l6 50q15 123 24 212.5t12 166.5q0 4 13.5 8t28.5 4q16 0 29 -4t12 -8q-30 -87 -55.5 -187.5t-58.5 -242.5q-1 -5 -6.5 -4.5zM48.5 1q-11.5 11 -11.5 31q0 19 11.5 30t31.5 11t31 -11t11 -30q0 -20 -11 -31t-31 -11t-31.5 11z" />
    <glyph glyph-name="quotedbl" unicode="&#x22;" horiz-adv-x="320" 
d="M129 609q0 9 19.5 18t39 12t18.5 -2l-109 -331q-1 -3 -6 -3.5t-5 1.5zM274 609q0 9 19.5 18t39 12t18.5 -2l-109 -331q-1 -3 -6 -3.5t-5 1.5z" />
    <glyph glyph-name="numbersign" unicode="#" horiz-adv-x="435" 
d="M413 299q0 -24 -4 -24h-73l-54 -159h62q3 0 3 -15q0 -9 -1.5 -17t-2.5 -8h-74l-53 -158q0 -2 -5 -2q-7 0 -16 3.5t-8 6.5l50 150h-119l-53 -158q0 -2 -5 -2q-7 0 -16 3.5t-8 6.5l50 150h-59q-1 0 -2.5 6.5t-1.5 13.5t1.5 13.5t2.5 6.5h72l54 159h-59q-1 0 -2.5 6.5
t-1.5 13.5t1.5 13t2.5 6h72l56 169q0 2 4 2q6 0 16 -4.5t9 -7.5l-53 -159h119l56 169q0 2 4 2q6 0 16 -4.5t9 -7.5l-53 -159h62q2 0 2 -15zM250 116l54 159h-119l-54 -159h119z" />
    <glyph glyph-name="dollar" unicode="$" horiz-adv-x="375" 
d="M341.5 448q2.5 -3 1.5 -9l-9 -88q-1 -4 -5.5 -3t-4.5 5q0 35 -21 68.5t-56 41.5l-34 -195l13 -9q45 -28 67.5 -52.5t22.5 -63.5q0 -58 -42.5 -102.5t-109.5 -51.5l-16 -92q-1 -6 -10 -6q-4 0 -7.5 2t-2.5 6l16 89h-2q-61 0 -102 36q-5 3 -6 7t0 12l8 99q0 5 5 5t5 -5
q2 -51 28.5 -90.5t66.5 -46.5l37 213l-10 7q-42 27 -64 52t-22 63q0 60 42 97t100 42l15 84q2 6 9 6q5 0 8 -2.5t2 -6.5l-14 -80q42 -2 81 -24q8 -5 10.5 -8zM140 363q0 -25 14.5 -44.5t40.5 -38.5l33 185q-34 -1 -57 -24t-29 -60q-2 -12 -2 -18zM260 114q0 29 -15 50.5
t-43 41.5l-35 -202q32 2 57.5 23.5t33.5 65.5q2 14 2 21z" />
    <glyph glyph-name="percent" unicode="%" horiz-adv-x="519" 
d="M91 331q-24 28 -24 73q0 40 18.5 76t49.5 58t66 22q40 0 63 -28t23 -72q0 -15 -3 -30q-10 -54 -46.5 -90.5t-82.5 -36.5q-40 0 -64 28zM60 -6q-4 0 -12 5t-6 8l429 544l2 1q5 0 12.5 -6t5.5 -9l-429 -543h-2zM207 342.5q14 27.5 23 80.5q5 26 5 55q0 70 -42 70
q-30 0 -46 -30t-24 -82q-5 -32 -5 -52q0 -69 46 -69q29 0 43 27.5zM286.5 23.5q-24.5 28.5 -24.5 72.5q0 41 18.5 77t49 58t65.5 22q40 0 63.5 -28.5t23.5 -72.5q0 -42 -18 -78t-48.5 -57.5t-64.5 -21.5q-40 0 -64.5 28.5zM403 35.5q14 27.5 22 80.5q5 26 5 55q0 69 -42 69
q-29 0 -45.5 -29.5t-24.5 -81.5q-5 -32 -5 -52q0 -69 46 -69q30 0 44 27.5z" />
    <glyph glyph-name="ampersand" unicode="&#x26;" horiz-adv-x="751" 
d="M753 349q0 -25 -13.5 -48.5t-36.5 -38.5t-49 -15q-28 0 -72 21q-18 -137 -91.5 -208.5t-182.5 -71.5q-68 0 -121.5 32.5t-83.5 86.5t-30 117q0 27 6 54q12 53 46 96t80 67t93 24q50 0 82 -28q60 67 60 117q0 19 -6 29.5t-17 19.5q-8 8 -12 14t-4 17q0 15 9 24t23 9
q22 0 36 -20t14 -53q0 -56 -42 -114t-101 -108.5t-148 -117.5l-58 -45q10 -54 41 -95.5t74.5 -64t91.5 -22.5q91 0 151.5 64t73.5 184l-19 10q-42 22 -67 32.5t-48 10.5q-14 0 -22.5 -6t-8.5 -15q0 -12 8 -28q8 -18 8 -26q0 -9 -6 -16.5t-18 -7.5t-19.5 7.5t-7.5 24.5
q0 26 16.5 50t43 38.5t54.5 14.5q25 0 51.5 -10.5t65.5 -30.5q32 -17 55 -26.5t42 -9.5q13 0 21.5 5.5t8.5 13.5q0 9 -10 23q-6 8 -9 14t-3 14q0 23 26 23q25 0 25 -31zM129 256q0 -11 2 -31q27 22 56 44q91 70 142 116q-25 53 -82 53q-39 0 -69.5 -36.5t-43.5 -91.5
q-5 -32 -5 -54z" />
    <glyph glyph-name="quotesingle" unicode="'" horiz-adv-x="129" 
d="M108 609q0 9 19.5 18t39 12t18.5 -2l-109 -331q-1 -3 -6 -3.5t-5 1.5z" />
    <glyph glyph-name="parenleft" unicode="(" horiz-adv-x="280" 
d="M101 1q-32 77 -32 177q0 60 12 126q25 142 94.5 255t166.5 166h1q3 0 5.5 -3.5t-0.5 -4.5q-79 -71 -129 -173.5t-74 -239.5q-15 -84 -15 -156q0 -155 71 -257v-1q0 -3 -2.5 -5.5t-4.5 -1.5q-61 41 -93 118z" />
    <glyph glyph-name="parenright" unicode=")" horiz-adv-x="280" 
d="M219 607q32 -77 32 -177q0 -60 -12 -126q-25 -142 -94.5 -255t-166.5 -166h-1q-3 0 -5.5 3.5t0.5 4.5q79 71 129 173.5t74 239.5q15 84 15 156q0 155 -71 257v1q0 3 2.5 5.5t4.5 1.5q61 -41 93 -118z" />
    <glyph glyph-name="asterisk" unicode="*" horiz-adv-x="448" 
d="M265 658q0 9 19.5 18t40 12t18.5 -2l-67 -157q-1 -3 -6 -3t-5 3v129zM121 550q-12 4 -12 42q0 17 3 30.5t6 10.5l129 -113q1 -1 1 -3t-1.5 -4.5t-3.5 -1.5zM291 503q-2 0 -3.5 4.5t0.5 5.5l123 40q9 3 23 -13t23.5 -34t3.5 -18zM166 376q-12 0 -29.5 6t-29 13t-8.5 9
l147 87l2 1q2 0 4.5 -3t1.5 -4l-75 -104q-3 -5 -13 -5zM273 481v1q0 2 3.5 5t4.5 1l77 -104q5 -8 -6 -26.5t-25.5 -33.5t-15.5 -9z" />
    <glyph glyph-name="plus" unicode="+" horiz-adv-x="398" 
d="M367.5 203q1.5 -6 1.5 -13t-1.5 -13.5t-3.5 -6.5h-145v-145q0 -2 -7.5 -3.5t-15.5 -1.5q-17 0 -17 3v147h-145q-2 0 -3.5 6.5t-1.5 14.5q0 7 1.5 12.5t2.5 5.5h146v145q0 2 6.5 3.5t13.5 1.5t13.5 -1.5t6.5 -3.5v-145h145q2 0 3.5 -6z" />
    <glyph glyph-name="comma" unicode="," horiz-adv-x="224" 
d="M112 54.5q15 -16.5 15 -46.5q0 -87 -111 -167q-1 -1 -3 -1q-3 0 -5 4t1 6q37 28 57.5 56.5t25.5 61.5q2 12 2 17q0 9 -3 17q-9 -10 -27 -10t-28.5 11.5t-10.5 27.5q0 19 12.5 29.5t34.5 10.5q25 0 40 -16.5z" />
    <glyph glyph-name="hyphen" unicode="-" horiz-adv-x="305" 
d="M28.5 174.5q-1.5 8.5 -1.5 17.5q0 19 3 20l250 46q4 1 4 -23q0 -21 -4 -21l-248 -47q-2 -1 -3.5 7.5z" />
    <glyph glyph-name="period" unicode="." horiz-adv-x="197" 
d="M36.5 1q-11.5 11 -11.5 31q0 19 11.5 30t31.5 11t31 -11t11 -30q0 -20 -11 -31t-31 -11t-31.5 11z" />
    <glyph glyph-name="slash" unicode="/" horiz-adv-x="305" 
d="M-18 -168.5q-9 1.5 -16.5 6t-6.5 6.5l384 887q2 3 6 3q8 0 18 -6t7 -10l-382 -885q-1 -3 -10 -1.5z" />
    <glyph glyph-name="zero" unicode="0" horiz-adv-x="438" 
d="M72 32q-42 45 -42 118q0 25 4 46q10 59 42.5 105t80 72t100.5 26q69 0 110.5 -44t41.5 -116q0 -25 -4 -46q-11 -60 -43 -106.5t-79 -73t-100 -26.5q-69 0 -111 45zM288 50q36 49 50 131q6 36 6 66q0 67 -27 102.5t-71 35.5q-54 0 -93.5 -50t-53.5 -131q-5 -33 -5 -58
q0 -66 27 -105.5t76 -39.5q55 0 91 49z" />
    <glyph glyph-name="one" unicode="1" horiz-adv-x="291" 
d="M10 6q0 6 4 6q37 0 56 5t28 19.5t15 44.5l34 189q6 38 6 45q0 11 -3.5 16t-11.5 5q-9 0 -28 -7t-43 -18l-2 -1q-4 0 -5 5t3 7l151 74q3 2 6 0t1 -4l-56 -311q-3 -18 -3 -30q0 -24 16.5 -31.5t63.5 -7.5q3 0 3 -6t-3 -6q-30 0 -47 1l-66 1l-67 -1q-17 -1 -48 -1q-4 0 -4 6
z" />
    <glyph glyph-name="two" unicode="2" horiz-adv-x="363" 
d="M154.5 138q53.5 49 79 90t25.5 82q0 30 -17 48.5t-46 18.5q-69 0 -122 -121q-2 -2 -4 -2q-3 0 -6 2t-2 5l58 148q2 3 6.5 2t3.5 -5q-3 -10 -3 -16q0 -11 10 -11q9 0 30 7q39 13 66 13q39 0 61.5 -21t22.5 -57q0 -41 -24 -78t-70 -77t-142 -113q-3 -1 -2 -2.5t4 -1.5
q97 0 138 3.5t60.5 17t31.5 46.5q2 3 5 3t5.5 -2t1.5 -4l-32 -104q-2 -9 -9 -9h-274q-5 0 -7 5t2 9q96 75 149.5 124z" />
    <glyph glyph-name="three" unicode="3" horiz-adv-x="342" 
d="M261.5 193.5q-32.5 -41.5 -79.5 -62.5q49 -6 74 -37.5t25 -76.5q0 -50 -35 -106.5t-105 -107t-170 -79.5q-4 -1 -5.5 5t0.5 7q115 37 174.5 106.5t71.5 141.5q3 17 3 34q0 40 -20 65t-62 25q-16 0 -44 -7q-4 -1 -6 6t2 8q74 19 110.5 56t47.5 101q4 26 4 35
q0 33 -15.5 51.5t-46.5 18.5q-40 0 -72.5 -29t-59.5 -91q-1 -1 -3 -1q-3 0 -6.5 2t-2.5 4l60 145q1 1 3 1q3 0 5.5 -2t1.5 -5q-4 -8 -4 -14q0 -10 12 -10q6 0 30 8q20 7 35 10.5t32 3.5q43 0 66 -25.5t23 -64.5q0 -13 -3 -27q-8 -47 -40.5 -88.5z" />
    <glyph glyph-name="four" unicode="4" horiz-adv-x="423" 
d="M361 25q-4 -23 -8 -23q-24 2 -74 4l-29 -164q-2 -11 -9 -14l-40 -16l-6 -2q-4 0 -3 8l33 189q-63 2 -237 2q-4 0 -5.5 4t2.5 8l350 377q2 2 5 2t5.5 -1.5t1.5 -4.5l-61 -348q23 0 75 2q4 0 0 -23zM232 44l46 262l-241 -257q-3 -3 -2 -5t6 -2q81 0 191 2z" />
    <glyph glyph-name="five" unicode="5" horiz-adv-x="374" 
d="M353 425q3 0 5.5 -2t1.5 -4l-30 -69q-6 -12 -11.5 -15t-17.5 -3l-172 -4q-11 0 -17 -15l-39 -117q110 -1 162.5 -40.5t52.5 -108.5q0 -18 -3 -38q-15 -83 -86.5 -148t-221.5 -136h-1q-4 0 -6 4.5t2 6.5q123 61 179.5 123t68.5 133q3 20 3 36q0 66 -43 102.5t-126 36.5
q-4 0 -6 3.5t0 8.5l60 178q2 7 4 8.5t10 2.5q116 15 156 21t52.5 12.5t19.5 21.5q2 2 3 2z" />
    <glyph glyph-name="six" unicode="6" horiz-adv-x="420" 
d="M77.5 28q-41.5 41 -41.5 116q0 32 7 64q17 93 71.5 183t139.5 161t189 109q4 1 5.5 -4.5t-1.5 -7.5q-93 -43 -165.5 -112.5t-117 -150.5t-57.5 -160q-7 -32 -7 -66q0 -69 31.5 -111.5t89.5 -42.5q38 0 64 28.5t35 81.5q3 21 3 41q0 45 -18.5 71.5t-55.5 26.5
q-22 0 -44 -10.5t-51 -33.5l-2 -1q-3 0 -5 3t-1 5q59 64 137 64q53 0 79 -31t26 -78q0 -16 -3 -31q-7 -42 -35.5 -77.5t-70 -56.5t-87.5 -21q-73 0 -114.5 41z" />
    <glyph glyph-name="seven" unicode="7" horiz-adv-x="387" 
d="M-4 -273q-2 3 -1 5l348 599q4 7 -3 7q-132 0 -185.5 -4.5t-73 -17.5t-34.5 -47q0 -2 -4 -2q-3 0 -6 2t-2 4l56 142q0 2 3 2t6.5 -2t2.5 -3q-3 -9 -3 -14q0 -7 8.5 -9.5t31.5 -2.5h239q4 0 6 -4.5t0 -8.5l-302 -593q-9 -17 -23 -24l-60 -31q-2 -1 -4 2z" />
    <glyph glyph-name="eight" unicode="8" horiz-adv-x="440" 
d="M354.5 300q22.5 -19 38.5 -46.5t16 -62.5q0 -15 -3 -30q-9 -50 -41 -89.5t-78 -62t-94 -22.5q-51 0 -88 18.5t-56 49.5t-19 68q0 66 53 126t121 90q-33 23 -50.5 45.5t-17.5 52.5q0 5 2 19q6 38 30.5 64.5t57.5 40t66 13.5q35 0 60.5 -14.5t38.5 -37t13 -45.5
q0 -7 -2 -17q-5 -28 -34 -59t-73 -57q37 -25 59.5 -44zM215.5 406q23.5 -25 69.5 -56q55 46 62 98q2 14 2 22q0 37 -21 62.5t-56 25.5t-57.5 -24.5t-22.5 -66.5q0 -36 23.5 -61zM348 165q0 37 -16 65t-39 47t-60 43l-18 12q-48 -25 -78.5 -65.5t-39.5 -91.5q-3 -16 -3 -32
q0 -58 34 -98t93 -40q45 0 79.5 34.5t44.5 92.5q3 18 3 33z" />
    <glyph glyph-name="nine" unicode="9" horiz-adv-x="420" 
d="M-28.5 -270.5q-1.5 5.5 1.5 7.5q93 43 164 112.5t115.5 150.5t60.5 160q7 29 7 62q0 68 -31.5 113t-88.5 45q-38 0 -64 -24t-35 -74q-4 -17 -4 -38q0 -48 24 -80.5t62 -32.5q20 0 38.5 10.5t43.5 33.5q1 1 3 1q3 0 5.5 -2.5t1.5 -4.5q-54 -65 -126 -65q-56 0 -86 38
t-30 88q0 45 27.5 84t72.5 62t96 23q72 0 112.5 -44.5t40.5 -120.5q0 -31 -5 -56q-16 -92 -71 -182.5t-140 -161.5t-189 -109q-4 -1 -5.5 4.5z" />
    <glyph glyph-name="colon" unicode=":" horiz-adv-x="197" 
d="M73.5 282q-11.5 11 -11.5 31q0 19 11.5 30t31.5 11t31 -11t11 -30q0 -20 -11 -31t-31 -11t-31.5 11zM36.5 1q-11.5 11 -11.5 31q0 19 11.5 30t31.5 11t31 -11t11 -30q0 -20 -11 -31t-31 -11t-31.5 11z" />
    <glyph glyph-name="semicolon" unicode=";" horiz-adv-x="222" 
d="M136 343q11 -11 11 -30q0 -20 -11 -31t-31 -11t-31.5 11t-11.5 31q0 19 11.5 30t31.5 11t31 -11zM112 54.5q15 -16.5 15 -46.5q0 -87 -111 -167q-1 -1 -3 -1q-3 0 -5 4t1 6q37 28 57.5 56.5t25.5 61.5q2 12 2 17q0 9 -3 17q-9 -10 -27 -10t-28.5 11.5t-10.5 27.5
q0 19 12.5 29.5t34.5 10.5q25 0 40 -16.5z" />
    <glyph glyph-name="less" unicode="&#x3c;" horiz-adv-x="407" 
d="M377 42q0 -20 -7 -17l-334 148q-5 3 -5 17q0 15 5 17l334 147q3 2 5 -3t2 -13q0 -20 -7 -24l-289 -124l289 -124q7 -3 7 -24z" />
    <glyph glyph-name="equal" unicode="=" horiz-adv-x="468" 
d="M30.5 246.5q-1.5 6.5 -1.5 14.5q0 7 1.5 12.5t2.5 5.5h401q2 0 3.5 -6t1.5 -13t-1.5 -13.5t-3.5 -6.5h-400q-2 0 -3.5 6.5zM30.5 106.5q-1.5 6.5 -1.5 14.5q0 7 1.5 12.5t2.5 5.5h401q2 0 3.5 -6t1.5 -13t-1.5 -13.5t-3.5 -6.5h-400q-2 0 -3.5 6.5z" />
    <glyph glyph-name="greater" unicode="&#x3e;" horiz-adv-x="407" 
d="M376 189q0 -14 -5 -17l-334 -147q-3 -1 -5 3.5t-2 12.5t2 15.5t5 8.5l289 124l-289 124q-3 1 -5 8.5t-2 15.5t2 13.5t5 3.5l334 -148q5 -2 5 -17z" />
    <glyph glyph-name="question" unicode="?" horiz-adv-x="295" 
d="M125 274q0 22 3 35q5 31 21.5 51.5t47.5 46.5q33 27 51.5 50t25.5 60q2 9 2 25q0 32 -16 50.5t-46 18.5q-26 0 -37.5 -12.5t-17.5 -33.5q-7 -20 -15 -31.5t-25 -11.5q-14 0 -21 8t-7 20q0 5 1 8q4 28 42.5 47.5t86.5 19.5q52 0 83 -24.5t31 -68.5q0 -13 -3 -27
q-8 -40 -30 -67t-43 -44t-27 -22q-40 -34 -57.5 -61.5t-23.5 -62.5q-5 -19 -3 -57q0 -4 -5 -4.5t-6 3.5q-12 38 -12 84zM80.5 1q-11.5 11 -11.5 31q0 19 11.5 30t31.5 11t31 -11t11 -30q0 -20 -11 -31t-31 -11t-31.5 11z" />
    <glyph glyph-name="at" unicode="@" horiz-adv-x="719" 
d="M424.5 66.5q-13.5 15.5 -13.5 43.5q0 13 3 28l10 51q-35 -63 -77.5 -101.5t-80.5 -38.5q-23 0 -37.5 15t-14.5 47q0 11 1 18q8 53 41 106t77.5 86.5t83.5 33.5q31 0 48 -21q14 12 17 28q2 2 8 2q12 0 10 -3l-41 -224q-3 -16 -3 -29q0 -18 8 -27.5t29 -9.5q27 0 54.5 20
t45.5 57.5t18 87.5q0 64 -32.5 117.5t-88.5 85t-125 31.5q-78 0 -134 -36t-85 -98t-29 -137q0 -79 34.5 -139t97.5 -93t144 -33q48 0 84.5 10t81.5 36h1q2 0 4.5 -3.5t0.5 -4.5q-88 -69 -204 -69q-81 0 -146.5 32.5t-103.5 94t-38 145.5q0 92 45 164.5t119 113t159 40.5
q75 0 132.5 -31t88.5 -83t31 -114q0 -56 -25 -105t-67 -79t-90 -30q-28 0 -41.5 15.5zM349.5 116q30.5 27 55 69.5t33.5 84.5q2 12 2 17q0 20 -10.5 32.5t-31.5 12.5q-25 0 -52.5 -23.5t-49 -63t-28.5 -84.5q-3 -19 -3 -33q0 -39 28 -39q26 0 56.5 27z" />
    <glyph glyph-name="A" unicode="A" horiz-adv-x="600" 
d="M567 6q0 -6 -4 -6q-15 0 -45 2q-36 2 -56 2q-21 0 -53 -2q-30 -2 -44 -2q-3 0 -3 6t3 6q37 0 51.5 9.5t14.5 34.5q0 17 -2 28l-31 191h-191l-78 -143q-31 -58 -31 -84q0 -21 16 -28.5t49 -7.5q4 0 3.5 -6t-4.5 -6q-11 0 -45 2q-38 2 -59 2t-49 -2t-43 -2q-4 0 -4 6t4 6
q29 0 62 25.5t68 85.5l286 512q2 3 7 3q9 0 11 -5l88 -549q5 -31 11 -45t20.5 -20.5t43.5 -6.5q4 0 4 -6zM218 295h177l-40 249z" />
    <glyph glyph-name="B" unicode="B" horiz-adv-x="521" 
d="M439 308.5q38 -37.5 38 -95.5q0 -16 -3 -33q-9 -50 -42 -92t-81 -67t-102 -25q-30 0 -65 3q-12 1 -29 2t-38 1l-63 -1q-16 -1 -44 -1q-3 0 -2.5 6t2.5 6q34 0 51.5 5.5t26.5 20t14 44.5l82 463q3 18 3 30q0 23 -14 30.5t-54 7.5q-4 0 -3.5 6t3.5 6l46 -1q38 -2 59 -2
q18 0 32.5 1t25.5 2q29 3 50 3q73 0 109 -28.5t36 -76.5q0 -14 -3 -31q-11 -49 -47 -84.5t-93 -55.5q67 -6 105 -43.5zM208 352l40 -1q71 0 113.5 39t53.5 102q3 17 3 33q0 41 -25.5 65t-80.5 24q-24 0 -36.5 -5t-21 -20.5t-13.5 -48.5zM410 203q0 60 -35 93t-102 34
q-30 1 -70 -2l-43 -249q-3 -13 -3 -25q0 -23 17 -32t62 -9q73 0 116 41t55 110q3 21 3 39z" />
    <glyph glyph-name="C" unicode="C" horiz-adv-x="586" 
d="M121.5 60.5q-62.5 73.5 -62.5 184.5q0 31 7 73q17 93 73 165.5t134.5 112.5t160.5 40q42 0 82 -9.5t63 -25.5q6 -5 7.5 -9t0.5 -15l-10 -111q-1 -4 -6 -4t-5 4q-7 76 -51.5 112t-118.5 36q-64 0 -118 -33t-90.5 -93.5t-49.5 -141.5q-7 -41 -7 -84q0 -74 23.5 -133.5
t67.5 -93.5t101 -34q58 0 112 37.5t97 112.5q2 2 3 2q3 0 5.5 -2t1.5 -4l-30 -107q-3 -13 -6 -17t-12 -7q-87 -29 -177 -29q-133 0 -195.5 73.5z" />
    <glyph glyph-name="D" unicode="D" horiz-adv-x="612" 
d="M180 -1q-11 1 -28 2t-39 1l-61 -1q-15 -1 -41 -1q-3 0 -3 6t3 6q32 0 48.5 5t24.5 19.5t13 44.5l82 463q4 26 4 32q0 22 -14 29.5t-51 7.5q-2 0 -2 6t2 6l43 -1q38 -2 61 -2q30 0 61 3q38 2 52 2q80 0 139.5 -31.5t91 -87t31.5 -127.5q0 -25 -5 -58q-17 -97 -71 -171.5
t-129.5 -115t-155.5 -40.5q-24 0 -56 3zM359.5 44q59.5 34 101.5 99.5t58 157.5q7 39 7 81q0 102 -48.5 166.5t-139.5 64.5q-51 0 -72.5 -14t-29.5 -57l-79 -450q-4 -22 -4 -31q0 -27 17.5 -39t59.5 -12q70 0 129.5 34z" />
    <glyph glyph-name="E" unicode="E" horiz-adv-x="514" 
d="M512 616l-9 -57q-4 -36 -10 -67q-1 -4 -7 -3t-5 4q1 8 1 23q0 43 -20 68.5t-57 25.5h-82q-32 0 -47.5 -5t-22.5 -18.5t-12 -43.5l-37 -207h141q39 0 57.5 15.5t25.5 54.5q0 3 6 3q2 0 4.5 -1.5t1.5 -3.5q-4 -28 -9 -48l-6 -31l-6 -39q0 -3 -8 -54q-1 -4 -7 -3.5t-5 4.5
q3 17 3 30q0 28 -15 40t-49 12h-137l-41 -230q-3 -18 -3 -30q0 -21 13 -28.5t49 -7.5h109q38 0 74 36t56 94q1 3 6.5 2t4.5 -4q-15 -47 -31 -132q-2 -8 -5.5 -11.5t-10.5 -3.5h-406q-2 0 -2 6t2 6q33 0 48.5 5t23 19t13.5 45l82 463q3 20 3 32q0 22 -13 29.5t-50 7.5
q-3 0 -3 6t3 6h383q8 0 6 -9z" />
    <glyph glyph-name="F" unicode="F" horiz-adv-x="483" 
d="M509 616l-18 -124q-1 -4 -7 -3t-5 4q1 8 1 22q0 44 -20.5 69.5t-56.5 25.5h-82q-32 0 -47.5 -5t-23 -18.5t-13.5 -43.5l-38 -219h129q39 0 57.5 15.5t25.5 54.5q1 4 7 3.5t5 -4.5q-3 -23 -9 -51l-5 -29q-7 -41 -8 -51l-7 -42q-1 -4 -7 -3.5t-5 4.5q3 17 3 29
q0 28 -15 40.5t-49 12.5h-126l-38 -218q-4 -24 -4 -31q0 -25 20.5 -33.5t78.5 -8.5q2 0 2 -6t-2 -6q-31 0 -50 1l-89 1l-58 -1q-15 -1 -42 -1q-2 0 -2 6t2 6q32 0 48 5t24 19.5t14 44.5l81 463q4 17 4 32q0 22 -14 29.5t-50 7.5q-2 0 -2 6t2 6h384q8 0 5 -9z" />
    <glyph glyph-name="G" unicode="G" horiz-adv-x="631" 
d="M184.5 20q-60.5 32 -91.5 89.5t-31 131.5q0 33 6 69q17 94 74.5 168.5t142 116t179.5 41.5q42 0 78.5 -9.5t58.5 -26.5q6 -6 6 -12l-1 -11l-9 -111q-1 -4 -6.5 -4t-5.5 4q-6 72 -47.5 110t-113.5 38q-111 0 -186 -72t-97 -196q-8 -48 -8 -84q0 -77 27.5 -135t78 -89.5
t117.5 -31.5q43 0 67.5 9.5t39.5 35t23 75.5q7 46 7 61q0 20 -7.5 29.5t-25.5 13t-54 3.5q-2 0 -3.5 2.5t-1.5 5.5t1.5 5.5t3.5 2.5q67 -5 108 -5t86 3q3 0 3.5 -7t-3.5 -7q-21 1 -30.5 -6.5t-15.5 -30.5t-16 -80q-7 -44 -7.5 -62t-1.5 -26q-1 -6 -3 -7.5t-9 -4.5
q-107 -28 -187 -28q-85 0 -145.5 32z" />
    <glyph glyph-name="H" unicode="H" horiz-adv-x="671" 
d="M702 619q0 -6 -2 -6q-32 0 -48 -5.5t-24 -19.5t-13 -44l-82 -463q-3 -18 -3 -31q0 -23 13.5 -30.5t50.5 -7.5q3 0 3 -6t-3 -6q-25 0 -40 1l-60 1l-60 -1q-16 -1 -43 -1q-2 0 -2 6t2 6q33 0 48.5 5t23.5 19.5t13 44.5l41 234h-321l-42 -234q-4 -26 -4 -33
q0 -21 13.5 -28.5t50.5 -7.5q3 0 3 -6t-3 -6q-26 0 -42 1l-61 1l-59 -1q-15 -1 -41 -1q-3 0 -3 6t3 6q32 0 48.5 5t24.5 19.5t13 44.5l82 463q3 20 3 31q0 23 -13.5 30.5t-50.5 7.5q-2 0 -2 6t2 6l42 -1q36 -2 58 -2q24 0 62 2l41 1q2 0 2 -6t-2 -6q-32 0 -47.5 -6
t-23.5 -20.5t-14 -44.5l-37 -206h322l36 206q4 26 4 33q0 22 -13.5 30t-49.5 8q-3 0 -3 6t3 6l41 -1q36 -2 59 -2q22 0 60 2l42 1q2 0 2 -6z" />
    <glyph glyph-name="I" unicode="I" horiz-adv-x="308" 
d="M17 6q0 6 3 6q32 0 47.5 5t23.5 19.5t13 44.5l82 463q4 26 4 31q0 23 -14 30.5t-51 7.5q-3 0 -3 6t3 6l43 -1q36 -2 58 -2q26 0 64 2l40 1q2 0 2 -6t-2 -6q-32 0 -47.5 -6t-23.5 -20.5t-14 -44.5l-82 -461q-3 -19 -3 -32q0 -22 13.5 -29.5t51.5 -7.5q2 0 2 -6t-2 -6
q-26 0 -41 1l-62 1l-59 -1q-15 -1 -43 -1q-3 0 -3 6z" />
    <glyph glyph-name="J" unicode="J" horiz-adv-x="280" 
d="M-21 -193q-2 0 -4.5 4.5t-0.5 6.5q45 27 71.5 81.5t42.5 140.5l89 504q3 18 3 31q0 23 -13.5 30.5t-51.5 7.5q-2 0 -2 6t2 6l41 -1q38 -2 60 -2q27 0 65 2l39 1q3 0 3 -6t-3 -6q-32 0 -48 -6t-24 -20.5t-13 -44.5l-84 -475q-15 -79 -35 -127t-52 -78.5t-84 -54.5h-1z" />
    <glyph glyph-name="K" unicode="K" horiz-adv-x="595" 
d="M622 619q0 -6 -3 -6q-36 0 -78.5 -17.5t-82.5 -56.5l-179 -158l100 -179q51 -92 78.5 -131t45.5 -49t47 -10q3 0 3 -6t-3 -6h-85q-36 0 -45 5t-39 63t-42 80l-107 191l-38 -33l-40 -225q-6 -36 -6 -42q0 -16 12 -21.5t46 -5.5q2 0 2 -6t-2 -6q-26 0 -39 1l-56 1l-59 -1
q-15 -1 -41 -1q-3 0 -3 6t3 6q32 0 48.5 5t24.5 19.5t13 44.5l82 463q3 20 3 31q0 23 -13.5 30.5t-50.5 7.5q-2 0 -2 6t2 6l42 -1q36 -2 58 -2q24 0 62 2l41 1q2 0 2 -6t-2 -6q-32 0 -47.5 -6t-23.5 -20.5t-14 -44.5l-38 -213l239 216q37 34 37 51t-46 17q-2 0 -2 6t2 6
l38 -1q36 -2 65 -2q27 0 57 2l31 1q3 0 3 -6z" />
    <glyph glyph-name="L" unicode="L" horiz-adv-x="496" 
d="M10 6q0 6 2 6q32 0 48 5t24 19.5t13 44.5l82 463q3 20 3 31q0 23 -13.5 30.5t-50.5 7.5q-2 0 -2 6t2 6l42 -1q36 -2 58 -2q24 0 62 2l41 1q2 0 2 -6t-2 -6q-32 0 -47.5 -5.5t-23.5 -20t-14 -44.5l-81 -458q-3 -18 -3 -30q0 -21 13 -28.5t47 -7.5h101q55 0 91.5 34
t60.5 99q0 2 4 2q3 0 6 -1.5t2 -2.5q-22 -73 -32 -135q-2 -8 -5.5 -11.5t-10.5 -3.5h-417q-2 0 -2 6z" />
    <glyph glyph-name="M" unicode="M" horiz-adv-x="732" 
d="M767 619q0 -6 -2 -6q-42 0 -62 -13.5t-26 -53.5l-69 -465q-3 -18 -3 -30q0 -24 13.5 -31.5t50.5 -7.5q3 0 3 -6t-3 -6q-25 0 -40 1l-62 1l-60 -1q-15 -1 -41 -1q-3 0 -3 6t3 6q33 0 49 5t23.5 19.5t11.5 44.5l72 476l-292 -550q-2 -4 -7 -4t-7 5l-113 534l-1 4l-79 -437
q-4 -32 -4 -40q0 -30 12.5 -43.5t40.5 -13.5q3 0 3 -6t-3 -6q-21 0 -32 1l-45 1l-42 -1q-12 -1 -35 -1q-3 0 -3 6t3 6q35 0 55 22.5t30 74.5l87 470q-20 34 -64 34q-2 0 -2 6t2 6l28 -1q10 -1 27 -1q18 0 28.5 1t15.5 1q11 0 17.5 -10t13.5 -42l102 -477l266 504
q15 25 32 25q7 0 18.5 -1t24.5 -1l39 1q9 1 27 1q2 0 2 -6z" />
    <glyph glyph-name="N" unicode="N" horiz-adv-x="651" 
d="M689 619q0 -6 -2 -6q-36 0 -57.5 -22.5t-29.5 -72.5l-94 -528q0 -2 -2.5 -3.5t-5.5 -1.5q-6 0 -7 4l-289 554l-6 11l-77 -448q-4 -20 -4 -39q0 -29 13 -42t42 -13q2 0 2 -6t-2 -6q-21 0 -32 1l-47 1l-43 -1q-13 -1 -36 -1q-3 0 -3 6t3 6q36 0 57 22t29 72l84 471
q-28 36 -63 36q-3 0 -3 6t3 6l35 -1q12 -1 31 -1q16 0 27.5 1t16.5 1q6 0 9 -4t7 -15q1 -3 4.5 -13t8.5 -20l247 -477l74 422q4 20 4 39q0 29 -13 42.5t-41 13.5q-3 0 -3 6t3 6l30 -1q28 -2 48 -2q16 0 44 2l36 1q2 0 2 -6z" />
    <glyph glyph-name="O" unicode="O" horiz-adv-x="651" 
d="M165 20.5q-50 32.5 -76 90t-26 129.5q0 36 6 73q16 93 66 166.5t122 115t152 41.5q71 0 122 -32.5t77.5 -89t26.5 -127.5q0 -39 -7 -74q-17 -94 -68.5 -168t-124.5 -115.5t-151 -41.5q-69 0 -119 32.5zM475 78q62 64 86 182q10 49 10 99q0 74 -24 131t-70 89.5t-108 32.5
q-89 0 -151 -66t-83 -180q-9 -48 -9 -93q0 -73 23.5 -132t68.5 -93t108 -34q87 0 149 64z" />
    <glyph glyph-name="P" unicode="P" horiz-adv-x="503" 
d="M10 6q0 6 3 6q32 0 48 5t24 19.5t14 44.5l81 463q4 17 4 33q0 21 -13.5 28.5t-50.5 7.5q-2 0 -2 6t2 6l40 -1q36 -2 59 -2q11 0 47 2q46 4 76 4q74 0 121.5 -35t47.5 -102q0 -19 -4 -38q-11 -63 -51.5 -106t-93 -64t-101.5 -21q-25 0 -41 5q-2 0 -2 4q0 3 2 7t4 3
q13 -4 30 -4q40 0 78.5 17t67 52.5t38.5 86.5q4 20 4 43q0 64 -35 100.5t-86 36.5q-33 0 -47.5 -4t-22.5 -18.5t-15 -48.5l-81 -461q-3 -19 -3 -32q0 -22 13.5 -29.5t50.5 -7.5q3 0 3 -6t-3 -6q-26 0 -41 1l-63 1l-59 -1q-15 -1 -40 -1q-3 0 -3 6z" />
    <glyph glyph-name="Q" unicode="Q" horiz-adv-x="651" 
d="M685.5 -177q1.5 -5 -0.5 -7q-45 -12 -83 -12q-60 0 -124 52t-110 145q-39 -13 -84 -13q-69 0 -119 32.5t-76 90t-26 129.5q0 36 6 73q16 93 66 166.5t122 115t152 41.5q71 0 122 -32.5t77.5 -89t26.5 -127.5q0 -39 -7 -74q-17 -95 -69.5 -170t-126.5 -115q24 -59 61 -106
t78 -73t75 -26q17 0 35 4q3 1 4.5 -4zM126 273q0 -73 23.5 -132t68.5 -93t108 -34q87 0 149 64t86 182q10 49 10 99q0 74 -24 131t-70 89.5t-108 32.5q-89 0 -151 -66t-83 -180q-9 -48 -9 -93z" />
    <glyph glyph-name="R" unicode="R" horiz-adv-x="614" 
d="M592 6q0 -6 -4 -6h-108q-24 0 -72.5 82.5t-109.5 230.5q-28 -7 -60 -7l-32 1l-40 -226q-4 -19 -4 -34q0 -21 14 -28t52 -7q4 0 4 -6t-3 -6q-29 0 -45 1l-62 1l-61 -1q-17 -1 -46 -1q-4 0 -4 6t4 6q34 0 51.5 5.5t26.5 19.5t15 44l82 463q4 26 4 32q0 22 -14.5 29.5
t-53.5 7.5q-4 0 -4 6t4 6l44 -1q38 -2 61 -2q16 0 30.5 1t25.5 2q29 3 51 3q72 0 108 -26.5t36 -77.5q0 -15 -3 -33q-10 -52 -46 -94.5t-87 -66.5q56 -122 96 -190t74.5 -98t71.5 -30q4 0 4 -6zM257 329q70 0 106 30t50 100q6 30 6 53q0 101 -102 101q-25 0 -37 -3.5
t-19.5 -18.5t-12.5 -49l-37 -209q20 -4 46 -4z" />
    <glyph glyph-name="S" unicode="S" horiz-adv-x="462" 
d="M118 -4.5q-31 7.5 -65 26.5q-8 5 -6 19l14 132q0 5 5.5 5t5.5 -5q2 -72 35.5 -120.5t100.5 -48.5q49 0 86.5 28.5t47.5 88.5q3 17 3 30q0 49 -28.5 81.5t-82.5 69.5q-37 27 -58.5 45.5t-36.5 44.5t-15 60q0 14 3 29q10 50 40.5 85t73.5 52.5t89 17.5q53 0 108 -24
q13 -7 12 -17l-13 -111q0 -4 -5.5 -4t-6.5 4q-4 59 -29 98t-82 39q-43 0 -71.5 -21.5t-42 -53.5t-13.5 -63t15 -55.5t36 -41.5t58 -43q57 -38 87 -72t30 -85q0 -18 -2 -28q-13 -73 -73 -121.5t-155 -48.5q-34 0 -65 7.5z" />
    <glyph glyph-name="T" unicode="T" horiz-adv-x="553" 
d="M139 6q0 6 3 6q34 0 50.5 5t25 19.5t13.5 44.5l82 463q3 18 3 30q0 20 -11.5 27t-42.5 7h-24q-59 0 -93.5 -33.5t-56.5 -110.5q0 -2 -4 -2q-3 0 -6 1.5t-2 2.5q8 25 23 86.5t21 94.5q1 3 7 2.5t5 -3.5q-3 -21 39 -21q74 -3 183 -3q51 0 113 2l63 1q30 0 45 5t21 20
q2 3 7 2.5t4 -4.5q-8 -27 -22 -91.5t-18 -90.5q-1 -3 -6.5 -2.5t-4.5 4.5q5 33 5 54q0 46 -22.5 66t-73.5 20h-24q-26 0 -39.5 -5.5t-20 -19t-11.5 -41.5l-81 -461q-3 -18 -3 -31q0 -23 14.5 -30.5t55.5 -7.5q2 0 2 -6t-2 -6q-27 0 -43 1l-65 1l-62 -1q-16 -1 -44 -1
q-3 0 -3 6z" />
    <glyph glyph-name="U" unicode="U" horiz-adv-x="618" 
d="M566 548q0 65 -64 65q-3 0 -3 6t3 6l41 -1q30 -2 49 -2q16 0 46 2l36 1q4 0 3.5 -6t-3.5 -6q-73 0 -91 -99l-50 -289q-20 -112 -89.5 -175t-168.5 -63q-86 0 -134 47.5t-48 131.5q0 23 5 55l58 324q3 18 3 31q0 23 -14 30t-53 7q-3 0 -3 6t3 6l45 -1q38 -2 60 -2
q26 0 66 2l40 1q4 0 4 -6t-4 -6q-33 0 -50.5 -6.5t-26 -21.5t-13.5 -45l-52 -288q-7 -45 -7 -71q0 -81 38.5 -122.5t106.5 -41.5q82 0 138.5 56t73.5 154l52 291q3 17 3 30z" />
    <glyph glyph-name="V" unicode="V" horiz-adv-x="593" 
d="M663 619q0 -6 -4 -6q-30 0 -53 -16t-47 -61l-277 -535q-3 -4 -11 -4q-10 0 -11 4l-117 541q-8 39 -22 55t-40 16q-2 0 -2 6t2 6l37 -1q26 -2 40 -2q26 0 62 2l39 1q3 0 3 -6t-3 -6q-29 0 -44 -9t-15 -32q0 -13 2 -20l102 -463l235 453q12 23 12 38q0 17 -15 25t-47 8
q-3 0 -3 6t3 6l36 -1q30 -2 56 -2q16 0 40 2l38 1q4 0 4 -6z" />
    <glyph glyph-name="W" unicode="W" horiz-adv-x="823" 
d="M893 619q0 -6 -4 -6q-30 0 -53 -16t-46 -61l-279 -535q-1 -4 -11 -4q-9 0 -10 4l-62 283l-146 -283q-3 -4 -12 -4t-10 4l-117 541q-8 39 -22 55t-40 16q-3 0 -3 6t3 6l37 -1q26 -2 40 -2q26 0 60 2l36 1q4 0 4 -6t-4 -6q-27 0 -41 -9t-14 -32q0 -13 2 -20l105 -468
l116 228l-50 230q-8 40 -20.5 55.5t-38.5 15.5q-3 0 -3 6t3 6l36 -1q26 -2 39 -2q18 0 42 2l25 1q5 0 5 -6t-5 -6q-17 0 -23.5 -4t-6.5 -16t6 -41l37 -166l80 156q17 32 17 49q0 22 -35 22q-3 0 -3 6t3 6l23 -1q20 -2 36 -2q15 0 39 2l36 1q3 0 3 -6t-3 -6q-29 0 -51 -16
t-46 -61l-93 -180l61 -273l235 459q13 26 13 39q0 16 -14.5 24t-45.5 8q-4 0 -4 6t4 6l35 -1q30 -2 53 -2q16 0 40 2l38 1q4 0 4 -6z" />
    <glyph glyph-name="X" unicode="X" horiz-adv-x="579" 
d="M622 619q0 -6 -5 -6q-58 0 -135 -94l-144 -181l99 -255q14 -39 34.5 -55t56.5 -16q4 0 4 -6t-4 -6q-22 0 -35 1l-49 1l-68 -1q-17 -1 -44 -1q-4 0 -4 6t4 6q26 0 38.5 5.5t12.5 18.5q0 6 -3 15l-91 235l-150 -192q-28 -35 -28 -55q0 -27 47 -27q4 0 4 -6t-4 -6
q-26 0 -40 1l-62 1l-36 -1q-10 -1 -33 -1q-4 0 -4 6t4 6q29 0 63.5 22t68.5 64l163 206l-92 238q-15 39 -33.5 55t-47.5 16q-4 0 -4 6t4 6l31 -1q22 -2 33 -2q31 0 73 2l45 1q4 0 4 -6t-4 -6q-48 0 -48 -24q0 -4 4 -16l84 -217l131 168q31 40 31 62q0 27 -45 27q-4 0 -4 6
t4 6l40 -1q34 -2 62 -2q14 0 36 2l31 1q5 0 5 -6z" />
    <glyph glyph-name="Y" unicode="Y" horiz-adv-x="529" 
d="M604 619q0 -6 -4 -6q-64 0 -131 -94l-152 -209l-40 -229q-4 -19 -4 -34q0 -21 14 -28t52 -7q4 0 4 -6t-4 -6q-27 0 -42 1l-61 1l-63 -1q-15 -1 -42 -1q-4 0 -4 6t4 6q33 0 50 5.5t25 19.5t13 44l38 220l-102 241q-17 39 -34.5 55t-45.5 16q-4 0 -4 6t4 6l34 -1
q24 -2 35 -2q25 0 69 2l46 1q2 0 2 -5q0 -7 -4 -7q-27 0 -38.5 -5t-11.5 -17q0 -6 5 -18l101 -242l136 193q27 38 27 60q0 29 -42 29q-4 0 -4 6t4 6l40 -1q34 -2 59 -2q15 0 35 2l32 1q4 0 4 -6z" />
    <glyph glyph-name="Z" unicode="Z" horiz-adv-x="547" 
d="M22 0q-4 0 -5 4.5t1 8.5l467 587q5 5 4.5 6.5t-6.5 1.5q-160 0 -221.5 -6.5t-88 -27.5t-56.5 -80q-2 -4 -7 -2.5t-3 5.5l64 158q0 1 3 1t6 -1.5t2 -3.5q-2 -5 -2 -12q0 -9 9.5 -11.5t37.5 -2.5h334q4 0 5.5 -5t-0.5 -8l-462 -585q-4 -5 -3.5 -6.5t5.5 -1.5h210
q71 0 110.5 26t66.5 91q0 3 4 3q3 0 5.5 -1.5t1.5 -3.5l-35 -126q0 -3 -3 -6.5t-6 -3.5q-135 2 -438 2z" />
    <glyph glyph-name="bracketleft" unicode="[" horiz-adv-x="248" 
d="M26 -115q-1 2 1 9l145 821q1 7 2.5 8.5t6.5 1.5h127q4 0 4 -6t-4 -6q-36 0 -54.5 -6t-27.5 -20.5t-14 -44.5l-119 -676q-4 -24 -4 -31q0 -23 16 -31.5t57 -8.5q5 0 5 -6t-5 -6h-130q-5 0 -6 2z" />
    <glyph glyph-name="backslash" unicode="\" horiz-adv-x="305" 
d="M114 723q-1 4 6.5 7t15.5 3q13 0 14 -6l72 -886q1 -4 -7 -6.5t-17 -2.5q-4 0 -8 1.5t-4 3.5z" />
    <glyph glyph-name="bracketright" unicode="]" horiz-adv-x="248" 
d="M262 723q1 -2 -1 -9l-145 -821q-1 -7 -2.5 -8.5t-6.5 -1.5h-127q-4 0 -4 6t4 6q36 0 54.5 6t27.5 20.5t14 44.5l119 676q4 24 4 31q0 23 -16 31.5t-57 8.5q-4 0 -4 6t4 6h130q5 0 6 -2z" />
    <glyph glyph-name="asciicircum" unicode="^" horiz-adv-x="353" 
d="M93 374q-3 0 -6 2t-2 4l158 249q3 5 11 5q9 0 9 -5l70 -249q0 -2 -4.5 -4t-5.5 1l-85 166l-142 -168q-1 -1 -3 -1z" />
    <glyph glyph-name="underscore" unicode="_" horiz-adv-x="363" 
d="M-10.5 -69.5q-1.5 6.5 -1.5 14.5q0 7 1 13t3 6h319q2 0 3.5 -6.5t1.5 -13.5t-1.5 -13.5t-3.5 -6.5h-318q-2 0 -3.5 6.5z" />
    <glyph glyph-name="grave" unicode="`" horiz-adv-x="166" 
d="M130 727q-1 4 9 4q13 0 30 -5t17 -10l-5 -240q0 -2 -4.5 -3t-4.5 2z" />
    <glyph glyph-name="a" unicode="a" horiz-adv-x="434" 
d="M412 78q3 0 5 -3.5t0 -5.5q-34 -39 -60.5 -58.5t-51.5 -19.5q-17 0 -25.5 10.5t-8.5 34.5q0 20 6 53l18 104q-46 -93 -103.5 -149.5t-110.5 -56.5q-62 0 -62 74q0 8 2 30q10 71 53 143t101 118.5t109 46.5q19 0 37 -7t29 -21q18 15 24 36q1 3 7 2t5 -3l-58 -317
q-3 -15 -3 -27q0 -31 18 -31q22 0 66 46q1 1 3 1zM193.5 73q40.5 37 72.5 93.5t43 110.5q3 13 2 23q0 30 -15.5 47t-46.5 17q-35 -1 -71.5 -31.5t-63.5 -82t-36 -114.5q-3 -22 -3 -40q0 -60 42 -60q36 0 76.5 37z" />
    <glyph glyph-name="b" unicode="b" horiz-adv-x="434" 
d="M396 370.5q22 -28.5 22 -75.5q0 -19 -5 -44q-16 -81 -61 -141t-101 -91.5t-104 -31.5q-45 0 -72 19.5t-27 53.5q0 5 2 17l102 542q2 16 2 20q0 27 -23 27q-16 0 -48 -15h-2q-4 0 -5 5t3 6l129 63h2q4 0 7 -3t2 -5l-91 -499q35 80 91 130.5t116 50.5q39 0 61 -28.5z
M354 274q0 37 -14.5 58t-45.5 21q-41 0 -79 -32t-66.5 -90.5t-42.5 -134.5q-1 -5 -1 -14q0 -31 22.5 -50t60.5 -19q33 0 65.5 24.5t57.5 71.5t37 111q6 29 6 54z" />
    <glyph glyph-name="c" unicode="c" horiz-adv-x="345" 
d="M60.5 31.5q-31.5 44.5 -31.5 110.5q0 32 6 60q12 60 46 105t79 68.5t89 23.5q37 0 63 -17t23 -42q-1 -14 -9.5 -23t-23.5 -9q-26 0 -36 32q-4 14 -16.5 25.5t-35.5 11.5q-47 0 -76.5 -40t-41.5 -104q-7 -40 -7 -66q0 -64 28 -104.5t82 -40.5q51 0 106 45l2 1q3 0 5.5 -4
t0.5 -6q-80 -71 -156 -71q-65 0 -96.5 44.5z" />
    <glyph glyph-name="d" unicode="d" horiz-adv-x="444" 
d="M338 89q-3 -15 -3 -26q0 -32 20 -32t66 46q2 2 3 2q3 0 5.5 -3.5t-0.5 -6.5q-36 -40 -62 -59t-51 -19q-35 0 -35 44q0 16 7 54l19 99q-46 -94 -97.5 -147.5t-104.5 -53.5q-36 0 -59 23.5t-23 74.5q0 11 4 41q13 72 54.5 135t99 100.5t114.5 37.5q28 0 48 -13l44 233
q2 16 2 21q0 26 -22 26q-16 0 -49 -15h-2q-3 0 -4.5 5t2.5 6l130 63h2q3 0 6 -3t2 -5zM225.5 85q43.5 49 71.5 114t28 101q0 31 -18 47.5t-49 16.5q-65 -2 -112.5 -53t-63.5 -145q-4 -23 -4 -45q0 -42 15.5 -63.5t43.5 -21.5q45 0 88.5 49z" />
    <glyph glyph-name="e" unicode="e" horiz-adv-x="343" 
d="M296.5 294.5q-32.5 -28.5 -87 -49.5t-117.5 -31q-5 -32 -5 -55q0 -62 28 -99.5t79 -37.5q56 0 100 33h2q3 0 5.5 -3t-0.5 -6q-70 -58 -146 -58q-63 0 -95.5 40.5t-32.5 104.5q0 22 5 52q9 51 42 100.5t82.5 81.5t103.5 32q33 0 51 -12t18 -33q0 -31 -32.5 -59.5z
M138.5 331.5q-31.5 -40.5 -43.5 -103.5q70 12 113.5 36t52.5 60q2 10 2 14q0 17 -14 25.5t-33 8.5q-46 0 -77.5 -40.5z" />
    <glyph glyph-name="f" unicode="f" horiz-adv-x="262" 
d="M373.5 710.5q19.5 -15.5 17.5 -36.5q-3 -15 -12.5 -22.5t-22.5 -7.5q-14 0 -20.5 8t-13.5 26q-6 16 -13 24.5t-21 8.5q-39 0 -67 -68t-48 -204l-9 -62l64 4l39 2q9 0 7 -9q-3 -10 -13.5 -21.5t-20.5 -10.5l-21 3q-33 6 -59 7l-54 -373q-14 -97 -32.5 -151.5t-45 -78.5
t-68.5 -24q-33 0 -49.5 12.5t-13.5 30.5q1 14 11 22.5t25 8.5t22 -8t12 -23q4 -13 8.5 -19t14.5 -6q12 0 20.5 15.5t17.5 59.5t22 135l51 353q2 20 2 26q0 19 -11 24t-46 5q-3 0 -3 5q0 2 1.5 4.5t2.5 2.5q35 0 50.5 10t19.5 35q20 123 44.5 188.5t61 92.5t96.5 27
q35 0 54.5 -15.5z" />
    <glyph glyph-name="g" unicode="g" horiz-adv-x="379" 
d="M389 382q0 -12 -4.5 -25.5t-8.5 -11.5q-23 12 -56 12q-13 0 -20 -1q21 -29 21 -72q0 -21 -4 -38q-9 -44 -35 -77.5t-60.5 -52t-70.5 -18.5q-10 0 -24 2q-13 -15 -15 -32q-3 -26 19.5 -44.5t70.5 -42.5q38 -20 60.5 -34t39 -35t16.5 -48q0 -38 -29 -71.5t-77.5 -53.5
t-104.5 -20q-69 0 -110 29.5t-41 71.5q0 44 37 78t107 74q-36 26 -36 56q0 20 12 37.5t36 38.5q-30 11 -46.5 39t-16.5 64q0 17 5 39q12 63 60 104.5t107 41.5q41 0 67 -23q53 25 96 25q5 0 5 -12zM266 256q0 48 -18 83t-52 35q-30 0 -55.5 -29.5t-32.5 -73.5q-3 -19 -3 -38
q0 -48 19 -82t52 -34q30 0 54.5 27.5t32.5 74.5q3 18 3 37zM240 -113.5q-28 23.5 -82 52.5q-28 13 -48 26q-48 -30 -72.5 -54.5t-24.5 -63.5q0 -43 39 -71.5t103 -28.5q54 0 83.5 23t29.5 58t-28 58.5z" />
    <glyph glyph-name="h" unicode="h" horiz-adv-x="445" 
d="M425 79q3 0 5 -3.5t-1 -6.5q-34 -40 -60.5 -59t-51.5 -19q-18 0 -26.5 10.5t-8.5 34.5q0 20 6 53l29 159q6 32 6 54q0 58 -43 58q-32 0 -67 -41t-66 -118.5t-50 -183.5l-2 -10q-2 -7 -10.5 -11t-22.5 -4q-23 0 -23 6l4 23q6 24 11 53l102 545q2 16 2 21q0 26 -22 26
q-16 0 -48 -15h-2q-4 0 -5 4.5t2 6.5l129 63h2q4 0 7.5 -3t2.5 -5l-97 -533q36 101 84.5 158t101.5 57q33 0 49 -18.5t16 -57.5q0 -23 -6 -56l-33 -178q-3 -15 -3 -27q0 -31 19 -31q22 0 66 46q2 2 4 2z" />
    <glyph glyph-name="i" unicode="i" horiz-adv-x="247" 
d="M140.5 524.5q-11.5 11.5 -11.5 31.5q0 19 11.5 30t31.5 11t31 -11t11 -30q0 -20 -11 -31.5t-31 -11.5t-31.5 11.5zM82 1.5q-9 10.5 -9 34.5q0 15 7 53l41 208q3 15 3 27q0 32 -20 32q-12 0 -30.5 -12t-38.5 -34q-1 -1 -3 -1q-3 0 -5.5 3.5t0.5 5.5q35 40 63 58.5t53 18.5
q18 0 26.5 -10.5t8.5 -34.5q0 -19 -6 -51l-41 -210q-3 -16 -3 -27q0 -31 19 -31q24 0 68 44q2 2 4 2q3 0 5 -3.5t-1 -6.5q-34 -39 -61 -57.5t-53 -18.5q-18 0 -27 10.5z" />
    <glyph glyph-name="j" unicode="j" horiz-adv-x="239" 
d="M151.5 524.5q-11.5 11.5 -11.5 31.5q0 19 11.5 30t31.5 11t31 -11t11 -30q0 -20 -11 -31.5t-31 -11.5t-31.5 11.5zM-70.5 -262.5q-16.5 12.5 -14.5 30.5q3 15 12 23t22 8t18 -7.5t10 -24.5q4 -14 8.5 -20.5t13.5 -6.5q14 0 24.5 19t20.5 60.5t23 119.5l62 358q3 15 3 27
q0 32 -20 32q-11 0 -29.5 -12t-39.5 -34q-1 -1 -3 -1q-3 0 -5.5 3.5t0.5 5.5q35 40 63 58.5t54 18.5q17 0 25 -10.5t8 -33.5q0 -26 -5 -52l-58 -337q-16 -94 -34 -144.5t-44 -71.5t-67 -21q-31 0 -47.5 12.5z" />
    <glyph glyph-name="k" unicode="k" horiz-adv-x="417" 
d="M407 76q4 0 6 -3.5t0 -5.5q-67 -76 -106 -76q-23 0 -39.5 14t-39.5 53l-58 101q-9 15 -16 21t-18 6l-9 -1l-32 -178q-2 -7 -10.5 -11t-22.5 -4q-23 0 -23 6l4 23q6 24 11 53l102 545q2 16 2 21q0 26 -22 26q-16 0 -48 -15h-2q-4 0 -5 4.5t2 6.5l129 63h2q4 0 7.5 -3
t2.5 -5l-75 -409q38 42 83.5 66.5t92.5 24.5q29 0 42 -14.5t13 -33.5q0 -9 -1 -12q-7 -36 -52.5 -70.5t-120.5 -60.5l67 -116q20 -34 34.5 -46t30.5 -12q26 0 66 41q1 1 3 1zM188.5 325q-41.5 -44 -57.5 -118l-1 -8q90 21 130.5 48t48.5 74q2 10 2 14q0 16 -8 25t-22 9
q-51 0 -92.5 -44z" />
    <glyph glyph-name="l" unicode="l" horiz-adv-x="237" 
d="M63.5 1.5q-8.5 10.5 -8.5 35.5q0 21 6 52l99 530q2 8 2 22q0 25 -20 25q-16 0 -48 -15h-2q-4 0 -5.5 5t2.5 6l129 63h2q4 0 7.5 -3t2.5 -5l-116 -628q-4 -22 -4 -28q0 -15 5.5 -22.5t14.5 -7.5q21 0 65 46q2 2 4 2q3 0 5 -3.5t-1 -6.5q-34 -40 -60.5 -59t-51.5 -19
q-19 0 -27.5 10.5z" />
    <glyph glyph-name="m" unicode="m" horiz-adv-x="676" 
d="M655 79q3 0 5 -3.5t-1 -6.5q-34 -40 -60.5 -59t-51.5 -19q-18 0 -26 10.5t-8 33.5q0 21 6 54l29 159q5 26 5 54q0 29 -9.5 43.5t-29.5 14.5q-31 0 -64.5 -40.5t-64 -118t-50.5 -182.5l-2 -12q-1 -7 -9 -11t-22 -4t-18.5 1.5t-4.5 4.5l5 23l10 53l33 174q4 27 4 51
q0 61 -37 61q-31 0 -65 -41t-64 -119t-49 -183l-2 -10q-3 -15 -32 -15q-14 0 -18.5 1.5t-4.5 4.5q0 1 8 41l6 30l42 228q3 15 3 27q0 32 -20 32q-12 0 -30.5 -12t-38.5 -34q-1 -1 -3 -1q-3 0 -5.5 3.5t0.5 5.5q34 39 62.5 58t54.5 19q17 0 25 -10.5t8 -33.5q0 -26 -5 -52
l-20 -113q35 100 82.5 156.5t98.5 56.5q30 0 44.5 -17.5t14.5 -55.5q0 -24 -6 -59l-16 -88q35 104 83 162t100 58q31 0 46 -18t15 -57q0 -24 -6 -57l-32 -178q-3 -16 -3 -27q0 -31 18 -31q22 0 66 46q2 2 4 2z" />
    <glyph glyph-name="n" unicode="n" horiz-adv-x="465" 
d="M444 79q3 0 5.5 -3.5t-0.5 -6.5q-34 -40 -60.5 -59t-51.5 -19q-18 0 -26.5 10.5t-8.5 34.5q0 20 6 53l29 159q6 32 6 54q0 58 -43 58q-33 0 -68.5 -42t-66.5 -122.5t-50 -188.5q-2 -7 -10.5 -11t-22.5 -4t-18.5 1.5t-4.5 4.5l4 23q6 24 11 53l41 223q3 15 3 27
q0 32 -20 32q-12 0 -30.5 -12t-38.5 -34q-1 -1 -3 -1q-3 0 -5.5 3.5t0.5 5.5q34 39 62.5 58t54.5 19q17 0 25 -10.5t8 -33.5q0 -26 -5 -52l-21 -121q36 104 85 162.5t103 58.5q33 0 49 -18t16 -57q0 -24 -6 -57l-33 -178q-3 -15 -3 -27q0 -31 20 -31q21 0 65 46q2 2 3 2z
" />
    <glyph glyph-name="o" unicode="o" horiz-adv-x="398" 
d="M61.5 28q-33.5 42 -33.5 110q0 31 5 55q11 58 42 105t75 74t93 27q62 0 96 -41.5t34 -107.5q0 -28 -6 -57q-12 -61 -45 -108.5t-77.5 -73t-90.5 -25.5q-59 0 -92.5 42zM265 48q34 37 46 101q5 32 5 58q0 69 -26.5 118.5t-75.5 49.5q-43 0 -77 -37.5t-47 -101.5
q-6 -30 -6 -61q0 -67 28 -115.5t77 -48.5q42 0 76 37z" />
    <glyph glyph-name="p" unicode="p" horiz-adv-x="407" 
d="M358 366.5q25 -26.5 25 -77.5q0 -16 -3 -36q-9 -67 -45 -125.5t-87 -93.5t-103 -35q-36 0 -57 3l-32 -180q-3 -17 -3 -28q0 -18 8.5 -26t27.5 -8q6 0 24 2h1q3 0 4 -5t-3 -6l-172 -26q-4 -1 -5 5t3 7q22 4 33 10.5t16.5 21t11.5 46.5l85 475l-45 -34l-2 -1q-3 0 -5.5 4.5
t-0.5 5.5q32 29 57 46l13 75q0 2 14 14.5t25 26.5t15 32q0 3 5 3q2 0 4.5 -1.5t1.5 -3.5l-19 -106q73 42 135 42q48 0 73 -26.5zM326 261q0 96 -83 96q-45 0 -97 -29l-51 -284q36 -17 78 -17q63 0 101 53t49 140q3 21 3 41z" />
    <glyph glyph-name="q" unicode="q" horiz-adv-x="415" 
d="M282 -178q-3 -15 -3 -26q0 -19 9.5 -28t31.5 -9q6 0 22 2h1q3 0 4 -5t-3 -6l-176 -25q-4 -1 -5 5t3 7q24 4 34.5 10t16.5 20.5t12 47.5l60 340q-37 -79 -89 -123.5t-102 -44.5q-34 0 -54.5 26t-20.5 69q0 14 1 21q9 77 48.5 145.5t97 109.5t116.5 41q19 0 36.5 -7
t28.5 -21q19 16 25 36q1 3 6.5 2t4.5 -3zM206 65q37 29 63.5 79t36.5 109q4 20 4 41q0 70 -57 70q-64 0 -112 -56.5t-62 -160.5q-1 -9 -1 -26q0 -85 52 -85q39 0 76 29z" />
    <glyph glyph-name="r" unicode="r" horiz-adv-x="340" 
d="M326 381q18 -14 18 -33q0 -15 -9.5 -25t-23.5 -10q-11 0 -17.5 5t-13.5 15q-4 5 -9 9.5t-11 4.5q-22 0 -52.5 -58t-57.5 -139t-39 -143q-1 -7 -9.5 -11t-22.5 -4q-13 0 -17.5 1.5t-4.5 4.5l5 23l10 53l33 185q6 33 6 52q0 45 -24 45q-22 0 -61 -37l-2 -1q-3 0 -5 3.5
t-1 5.5q31 34 57 51t51 17q20 0 29.5 -13t9.5 -45q0 -25 -8 -76l-21 -114q34 105 74.5 176.5t78.5 71.5q19 0 37 -14z" />
    <glyph glyph-name="s" unicode="s" horiz-adv-x="302" 
d="M34.5 7q-27.5 18 -23.5 44q1 13 10 20.5t20 7.5q9 0 14.5 -6t13.5 -20q12 -20 24.5 -31t37.5 -11q55 0 64 61q1 5 1 13q0 29 -16 50t-50 49q-33 27 -49.5 47.5t-16.5 49.5q0 5 2 17q9 45 47.5 71.5t85.5 26.5q34 0 57.5 -13t23.5 -33q0 -15 -9.5 -23t-21.5 -8
q-11 0 -18.5 6t-16.5 18q-11 16 -21.5 23.5t-29.5 7.5q-24 0 -38.5 -13.5t-14.5 -39.5q0 -27 16.5 -48.5t48.5 -48.5q35 -31 51.5 -52.5t16.5 -51.5q0 -32 -19 -62.5t-52 -49.5t-71 -19q-39 0 -66.5 18z" />
    <glyph glyph-name="t" unicode="t" horiz-adv-x="295" 
d="M297 376q0 -8 -11 -21t-21 -13q-5 0 -39.5 4.5t-67.5 5.5l-44 -248q-3 -16 -3 -29q0 -25 12 -37t37 -12q26 0 49 11.5t47 32.5h1q3 0 6.5 -3t0.5 -5q-45 -39 -78.5 -56.5t-64.5 -17.5q-29 0 -48 15t-19 48q0 6 2 22l43 233q4 19 4 32q0 14 -8 18.5t-30 4.5q-3 0 -3 5
q0 2 1.5 4.5t2.5 2.5q34 0 59 22t34 55q2 3 9 3q10 0 8 -3l-13 -74q49 2 93 5l34 2q7 0 7 -7z" />
    <glyph glyph-name="u" unicode="u" horiz-adv-x="465" 
d="M439 77q3 0 5 -3.5t0 -5.5q-35 -40 -63 -58.5t-54 -18.5q-17 0 -25 10.5t-8 33.5q0 26 5 52l21 121q-36 -104 -85 -162.5t-103 -58.5q-66 0 -66 74q0 27 7 58l36 178q3 17 3 27q0 31 -19 31q-20 0 -66 -46q-2 -2 -4 -2q-3 0 -5 3.5t1 6.5q35 40 61.5 59t51.5 19
q35 0 35 -46q0 -15 -7 -52l-32 -159q-7 -38 -7 -55q0 -57 43 -57q33 0 68.5 42t67 122t50.5 189q3 15 32 15q24 0 24 -6l-4 -23q-6 -24 -11 -53l-41 -223q-3 -15 -3 -27q0 -32 20 -32q11 0 29.5 12t39.5 34q1 1 3 1z" />
    <glyph glyph-name="v" unicode="v" horiz-adv-x="432" 
d="M118 21q-24 34 -24 83q0 33 13.5 68.5t39.5 89.5l22 48q4 8 4 15q0 10 -14 10h-51q-27 0 -39.5 -3.5t-20 -14t-15.5 -34.5q-1 -3 -6 -3q-3 0 -4.5 2t-0.5 5q16 46 26.5 66t26 27t46.5 7h89q11 0 11 -4q0 -2 -3 -8q-31 -71 -52 -137.5t-21 -109.5t18.5 -67.5t50.5 -24.5
q45 0 87 44t60 115q9 35 9 58q0 29 -8.5 44.5t-21.5 26.5q-11 10 -17.5 18t-6.5 20q0 17 12 25.5t27 8.5q23 0 34 -26t11 -68q0 -32 -4 -57q-11 -75 -45.5 -134t-79.5 -91.5t-86 -32.5q-43 0 -67 34z" />
    <glyph glyph-name="w" unicode="w" horiz-adv-x="618" 
d="M586 304q0 -32 -4 -59q-10 -74 -42 -133.5t-72.5 -92t-76.5 -32.5q-27 0 -48 18.5t-34 51.5q-30 -34 -62 -52t-62 -18q-43 0 -66 32t-23 81q0 37 16 80t44 102q4 9 7.5 16t5.5 12q4 8 4 15q0 10 -14 10h-51q-27 0 -39.5 -3.5t-20 -14t-15.5 -34.5q-1 -3 -6 -3
q-3 0 -4.5 2t-0.5 5q16 46 26.5 66t26 27t46.5 7h89q11 0 11 -4q0 -2 -3 -8q-25 -56 -43.5 -115t-24.5 -103q-2 -22 -2 -31q0 -43 17.5 -68t48.5 -25q21 0 43.5 12.5t43.5 35.5q-10 36 -10 84q0 36 6 72q10 67 31.5 111t46.5 44q18 0 27 -18t9 -48q0 -12 -4 -42
q-18 -112 -71 -191q29 -60 83 -60q25 0 51.5 20.5t48 57.5t29.5 84q4 24 4 47q0 32 -8 50t-23 37q-9 9 -13.5 16t-4.5 17q0 17 12 25.5t27 8.5q44 0 44 -92zM313 207q0 -52 14 -92q39 62 51 140q2 20 2 26q0 23 -6.5 36t-19.5 13q-14 0 -23.5 -20t-13.5 -49q-4 -25 -4 -54z
" />
    <glyph glyph-name="x" unicode="x" horiz-adv-x="421" 
d="M397 382q16 -13 16 -31q0 -13 -8 -21t-20 -8q-13 0 -26 11q-11 9 -20 9q-23 0 -43 -30l-64 -93l39 -134q10 -32 21.5 -42t25.5 -10q27 0 66 42q1 1 3 1q4 0 6 -3.5t0 -5.5q-35 -39 -61.5 -57.5t-47.5 -18.5q-22 0 -35.5 12.5t-24.5 49.5l-32 109l-62 -99
q-28 -45 -43 -58.5t-38 -13.5q-20 0 -36 15t-14 34q2 11 10 17t19 6q9 0 14 -2.5t11 -7.5q11 -9 21 -9q22 0 43 29l70 105l-34 114q-10 36 -23 48t-28 12q-26 0 -66 -41q-1 -1 -3 -1q-3 0 -5.5 3.5t0.5 5.5q35 39 61.5 57.5t47.5 18.5t37 -15.5t27 -54.5l26 -88l55 86
q28 45 43 58.5t37 13.5q19 0 35 -13z" />
    <glyph glyph-name="y" unicode="y" horiz-adv-x="443" 
d="M406 341q0 -82 -77.5 -233.5t-178.5 -270t-168 -118.5q-20 0 -31.5 10t-8.5 32q6 27 40 27q43 0 69.5 3.5t49.5 20.5q31 21 81 91l1 51q0 188 -30.5 292.5t-83.5 104.5q-31 0 -50 -37q-1 -3 -6 -3q-7 0 -6 6q38 78 93 78q42 0 72 -48t46 -131t16 -186q0 -35 -1 -53
q43 67 76 132t42 102q5 19 5 42q0 34 -16 80q-8 19 -8 30q0 14 10 23.5t26 9.5q38 0 38 -55z" />
    <glyph glyph-name="z" unicode="z" horiz-adv-x="344" 
d="M348 397q3 0 5.5 -4t0.5 -6l-281 -320q11 4 29 4q25 0 96 -13q58 -10 73 -10q16 0 25.5 10t19.5 36q0 1 3 1t6 -1.5t2 -3.5q-14 -43 -23.5 -62.5t-20 -26t-28.5 -6.5q-25 0 -59 6t-41 7q-62 13 -99 14q-16 0 -28 -6t-27 -23h-1q-2 0 -5 4t-2 5l282 321q-9 -5 -29 -5
q-15 0 -38 4t-45 9q-46 11 -63 11q-16 0 -26 -11t-21 -38q-1 -3 -4 -3t-5.5 2.5t-1.5 6.5q16 47 26 66t22 24.5t35 4.5q21 -1 77 -13q59 -12 89 -14q16 0 28 6t27 23z" />
    <glyph glyph-name="braceleft" unicode="{" horiz-adv-x="261" 
d="M91.5 -100.5q-22.5 16.5 -22.5 66.5q0 34 13 114q14 79 14 122q0 42 -12 66.5t-41 29.5q-2 0 -2 6.5t2 6.5q49 6 74.5 62t43.5 156q15 86 32.5 126.5t45.5 55t81 14.5q3 0 3 -6t-3 -6q-34 0 -57 -27.5t-32 -78.5q-24 -120 -38.5 -171t-39.5 -79.5t-77 -51.5
q40 -21 56 -45t16 -68q0 -29 -7 -79.5t-17 -111.5q-4 -26 -4 -37q0 -33 14 -51t40 -18q3 0 3 -6t-3 -6q-60 0 -82.5 16.5z" />
    <glyph glyph-name="bar" unicode="|" horiz-adv-x="152" 
d="M19 -160q-8 0 -14.5 2.5t-5.5 6.5l154 882q1 5 15 5q8 0 15 -2.5t6 -6.5l-155 -881q-1 -6 -15 -6z" />
    <glyph glyph-name="braceright" unicode="}" horiz-adv-x="261" 
d="M208.5 708.5q22.5 -16.5 22.5 -66.5q0 -34 -13 -114q-14 -79 -14 -122q0 -42 12 -66.5t41 -29.5q2 0 2 -6.5t-2 -6.5q-49 -6 -74.5 -62t-43.5 -156q-15 -86 -32.5 -126.5t-45.5 -55t-81 -14.5q-3 0 -3 6t3 6q34 0 57 27.5t32 78.5q24 120 38.5 171t39.5 79.5t77 51.5
q-40 21 -56 45t-16 68q0 29 7 79.5t17 111.5q4 26 4 37q0 33 -14 51t-40 18q-3 0 -3 6t3 6q60 0 82.5 -16.5z" />
    <glyph glyph-name="asciitilde" unicode="~" horiz-adv-x="443" 
d="M52 152q-2 0 -4.5 2.5t-1.5 4.5q26 33 53 53t59 20q15 0 34 -5t38 -11q51 -19 84 -19q29 0 45 10t32 28h1q3 0 5.5 -2.5t0.5 -4.5q-35 -43 -57.5 -58t-49.5 -15q-18 0 -39 5.5t-40 11.5q-26 9 -45.5 13.5t-38.5 4.5t-31 -4.5t-22.5 -13.5t-21.5 -20h-1z" />
    <glyph glyph-name="uni00A0" unicode="&#xa0;" horiz-adv-x="234" 
 />
    <glyph glyph-name="exclamdown" unicode="&#xa1;" horiz-adv-x="220" 
d="M172.5 353q11.5 -11 11.5 -31q0 -19 -11.5 -30t-31.5 -11t-31 11t-11 30q0 20 11 31t31 11t31.5 -11zM114.5 167.5q5.5 -0.5 4.5 -5.5l-6 -50q-15 -123 -24 -212.5t-12 -166.5q0 -4 -13.5 -8t-28.5 -4q-16 0 -29 4t-12 8q30 87 55.5 187.5t58.5 242.5q1 5 6.5 4.5z" />
    <glyph glyph-name="cent" unicode="&#xa2;" horiz-adv-x="489" 
d="M468.5 443q1.5 -3 0.5 -11l-10 -101q0 -5 -5 -5t-5 5q-3 64 -37.5 98t-93.5 36l-81 -463h13q55 0 99 34t73 104q2 3 5 3t5.5 -1.5t1.5 -3.5l-31 -106q-2 -9 -3.5 -11.5t-10.5 -6.5q-77 -26 -148 -26h-7l-16 -91q0 -6 -8 -6q-5 0 -8.5 2t-2.5 6l16 90q-93 8 -135.5 65
t-42.5 135q0 30 4 51q10 63 47.5 115t93 85t119.5 39l15 84q0 6 8 6q5 0 8.5 -2.5t2.5 -6.5l-14 -80h8q34 0 71 -8.5t60 -21.5q7 -4 8.5 -7zM101 189q0 -71 29 -122t88 -62l81 460q-69 -5 -122.5 -66t-70.5 -151q-5 -33 -5 -59z" />
    <glyph glyph-name="sterling" unicode="&#xa3;" horiz-adv-x="388" 
d="M366 444l-12 -102q0 -2 -2 -3t-4 -1t-4.5 1.5t-1.5 4.5q1 49 -17.5 85.5t-60.5 36.5q-46 0 -72 -31t-35 -76q-4 -21 -4 -46q0 -19 2 -41t3 -31h100q7 0 7 -11t-6 -11h-99q2 -43 -4 -75q-7 -37 -23 -60.5t-40 -41.5h111q39 0 59.5 6t33 23t26.5 53q2 3 4 3q3 0 5.5 -2
t1.5 -5q-23 -77 -28 -109q-1 -7 -4 -9t-11 -2h-291q-5 0 -5 6q0 5 5 7q49 12 70 35t28 65q5 28 5 58q0 26 -3 48h-44q-3 0 -4.5 3.5t-1.5 7.5q0 11 6 11h42q-4 30 -4 47q0 18 5 48q12 72 62 108t114 36q42 0 78 -18q14 -6 13 -18z" />
    <glyph glyph-name="currency" unicode="&#xa4;" horiz-adv-x="375" 
d="M300 292q20 -28 20 -66q0 -67 -50 -115l35 -48l-30 -27l-33 54q-41 -25 -84 -25q-38 0 -64 21l-49 -50l-17 23l48 47q-19 28 -19 71q0 72 52 117l-35 49l30 25l35 -54q38 21 76 21q40 0 68 -23l55 53l16 -22zM231.5 109.5q23.5 26.5 32.5 74.5q3 17 3 34q0 42 -18.5 70.5
t-53.5 28.5q-31 0 -53.5 -24.5t-31.5 -72.5q-3 -19 -3 -39q0 -42 16.5 -70t51.5 -28q33 0 56.5 26.5z" />
    <glyph glyph-name="yen" unicode="&#xa5;" horiz-adv-x="433" 
d="M479 462q0 -6 -4 -6q-58 0 -125 -91l-99 -137l-3 -15h93q6 0 6 -10q0 -11 -6 -11h-248q-6 0 -6 11q0 10 6 10h99l1 6l-69 167q-16 39 -32.5 54.5t-43.5 15.5q-3 0 -3 6t3 6q12 0 32 -2l26 -1q27 0 71 2l44 1q3 0 3 -6t-3 -6q-46 0 -46 -25q0 -7 5 -19l69 -164l83 120
q25 37 25 60q0 28 -31 28q-4 0 -4 6t4 6l39 -1q30 -2 53 -2q14 0 32 2l25 1q4 0 4 -6zM336 141q0 -11 -6 -11h-97l-9 -51q-4 -26 -4 -31q0 -22 14.5 -29t54.5 -7q4 0 4 -6t-4 -6q-29 0 -45 1l-61 1l-61 -1q-17 -1 -44 -1q-3 0 -3 6t3 6q34 0 51.5 5.5t26 20t13.5 44.5l9 48
h-95q-6 0 -6 11q0 10 6 10h247q6 0 6 -10z" />
    <glyph glyph-name="brokenbar" unicode="&#xa6;" horiz-adv-x="152" 
d="M110 351q-8 0 -15 2.5t-6 6.5l64 371q1 5 14 5q9 0 16 -2.5t6 -6.5l-65 -370q0 -6 -14 -6zM19 -163q-8 0 -15 2.5t-6 6.5l64 370q0 6 14 6q8 0 15.5 -2.5t6.5 -6.5l-65 -371q-1 -5 -14 -5z" />
    <glyph glyph-name="section" unicode="&#xa7;" horiz-adv-x="391" 
d="M370 538l-12 -100q0 -2 -5 -2t-5 2q0 24 -12.5 49.5t-35.5 43t-52 17.5q-26 0 -45.5 -17.5t-25.5 -54.5q-2 -14 -2 -21q0 -34 18.5 -57.5t57.5 -56.5q45 -36 68.5 -67.5t23.5 -80.5q0 -14 -3 -31q-6 -36 -25 -67t-58 -65q23 -30 23 -66q0 -15 -2 -24q-11 -63 -56 -95.5
t-101 -32.5q-48 0 -77 17q-8 7 -7 17l11 99q2 3 7 3t4 -3q1 -23 13.5 -49t35 -43.5t51.5 -17.5q26 0 45.5 17.5t26.5 55.5q2 14 2 20q0 35 -18.5 58.5t-58.5 56.5q-30 24 -48 42.5t-30.5 45t-12.5 60.5q0 15 3 31q5 36 24.5 66.5t57.5 64.5q-24 33 -24 68q0 7 2 23
q12 63 57.5 95.5t101.5 32.5q47 0 76 -18q8 -6 7 -16zM292 158q0 48 -22.5 79t-65.5 66q-34 28 -46 42q-30 -34 -40 -88q-3 -18 -3 -33q0 -47 22.5 -77.5t65.5 -65.5q31 -24 47 -42q28 32 39 87q3 17 3 32z" />
    <glyph glyph-name="dieresis" unicode="&#xa8;" horiz-adv-x="275" 
d="M88 489q-11 11 -11 30t11 30t31 11t30.5 -10.5t10.5 -30.5q0 -19 -10.5 -30t-30.5 -11t-31 11zM238.5 489q-11.5 11 -11.5 30t11.5 30t31.5 11t30.5 -10.5t10.5 -30.5q0 -19 -10.5 -30t-30.5 -11t-31.5 11z" />
    <glyph glyph-name="copyright" unicode="&#xa9;" horiz-adv-x="725" 
d="M231 -68.5q-68 33.5 -112 99.5t-44 159q0 89 45.5 159t120 109.5t158.5 39.5q75 0 132 -31t87.5 -83t30.5 -114t-32 -115t-88.5 -84.5t-125.5 -31.5q-60 0 -100 22.5t-59 58t-19 75.5q0 51 25 89.5t64.5 59t81.5 20.5q37 0 66 -14t31 -36q0 -12 -8.5 -20.5t-21.5 -8.5
q-19 0 -36 26q-13 18 -24.5 27t-32.5 9q-44 0 -63 -32.5t-19 -93.5q0 -69 35.5 -112.5t113.5 -43.5q46 0 85.5 19.5t64 59t24.5 97.5q0 64 -32 117.5t-87.5 85t-123.5 31.5q-78 0 -133.5 -35t-84.5 -94.5t-29 -132.5q0 -91 42 -155.5t106 -96.5t129 -32q59 0 101.5 9
t95.5 37h1q2 0 4 -2.5t1 -4.5q-54 -40 -109 -55t-122 -15q-71 0 -139 33.5z" />
    <glyph glyph-name="ordfeminine" unicode="&#xaa;" horiz-adv-x="276" 
d="M309 424q2 0 5 -3.5t2 -4.5q-44 -52 -75 -52q-23 0 -23 30q0 15 4 34l10 60q-29 -58 -66.5 -92.5t-71.5 -34.5q-40 0 -40 49q0 48 27.5 100.5t68.5 87.5t77 35q27 0 43 -17q9 11 13 23q0 1 3 1q2 0 4.5 -1t2.5 -2l-38 -209q-2 -14 -2 -18q0 -20 12 -20t42 33q0 1 2 1z
M163.5 417q27.5 25 50 63t30.5 74q1 5 1 14q0 19 -9.5 30.5t-28.5 11.5q-23 0 -47.5 -20.5t-43 -54.5t-24.5 -74q-2 -10 -2 -27q0 -42 26 -42q20 0 47.5 25zM274 300q0 -5 -1.5 -9t-3.5 -4h-225q-4 0 -4 14q0 12 3 12h226q5 0 5 -13z" />
    <glyph glyph-name="guillemotleft" unicode="&#xab;" horiz-adv-x="424" 
d="M243 364q3 0 6 -3t1 -5l-137 -155l83 -154v-1q0 -3 -3.5 -6t-4.5 0l-135 149q-3 5 -3 10q0 7 6 13l186 152h1zM391 364q3 0 6 -3t0 -5l-137 -155l84 -154v-1q0 -3 -3.5 -6t-5.5 0l-135 149q-3 3 -3 9q0 8 7 14l185 152h2z" />
    <glyph glyph-name="logicalnot" unicode="&#xac;" horiz-adv-x="397" 
d="M365 78q0 -2 -6.5 -3.5t-14.5 -1.5q-7 0 -13 1t-6 3v151h-290q-2 0 -3.5 6.5t-1.5 14.5q0 7 1 13t3 6h331v-190z" />
    <glyph glyph-name="uni00AD" unicode="&#xad;" horiz-adv-x="305" 
d="M28.5 174.5q-1.5 8.5 -1.5 17.5q0 19 3 20l250 46q4 1 4 -23q0 -21 -4 -21l-248 -47q-2 -1 -3.5 7.5z" />
    <glyph glyph-name="registered" unicode="&#xae;" horiz-adv-x="762" 
d="M587 688q64 -37 99 -99.5t35 -137.5q0 -86 -42 -158t-113.5 -113.5t-154.5 -41.5q-73 0 -141 34.5t-110.5 100.5t-42.5 155q0 85 45 153t119 106t158 38t148 -37zM567.5 197.5q55.5 31.5 85.5 89.5t30 135q0 79 -36 143t-99.5 100.5t-141.5 36.5t-133.5 -34t-84 -90.5
t-28.5 -123.5q0 -89 41 -154.5t105 -99.5t132 -34q74 0 129.5 31.5zM585 281.5q-1 -3.5 -3 -3.5h-78q-10 0 -27.5 40.5t-45.5 121.5q-23 -4 -55 -4l-18 -102q-2 -18 -2 -21q0 -15 9.5 -19.5t36.5 -4.5q1 0 1 -2q0 -3 -1 -5.5t-2 -3.5l-73 1l-71 -1q-1 0 -1 2q0 3 1 5.5
t2 3.5q23 0 33 3t15 12t9 30l39 215q2 16 2 19q0 15 -9.5 20t-35.5 5q-1 0 -1 2q0 3 1 6t2 4l71 -1q14 0 44 2l39 1q81 0 81 -51q0 -9 -1 -14q-11 -60 -71 -88q23 -68 36 -100t30 -49t42 -19q2 -1 1 -4.5zM416 452q35 0 55 15.5t27 50.5q2 18 2 24q0 52 -51 52
q-20 0 -29 -2.5t-15 -12t-10 -32.5l-16 -92q19 -3 37 -3z" />
    <glyph glyph-name="macron" unicode="&#xaf;" horiz-adv-x="333" 
d="M94 493q0 14 6 14h238q6 0 6 -14t-6 -14h-238q-6 0 -6 14z" />
    <glyph glyph-name="degree" unicode="&#xb0;" horiz-adv-x="299" 
d="M97.5 407q-29.5 34 -29.5 80q0 15 3 28q10 47 53.5 81t101.5 34q56 0 84.5 -32.5t28.5 -79.5q0 -41 -21 -74t-56.5 -52t-77.5 -19q-57 0 -86.5 34zM252.5 411.5q18.5 24.5 27.5 70.5q5 26 5 56q0 40 -15.5 59.5t-49.5 19.5q-42 0 -62.5 -26.5t-30.5 -72.5q-6 -27 -6 -51
q0 -80 73 -80q40 0 58.5 24.5z" />
    <glyph glyph-name="plusminus" unicode="&#xb1;" horiz-adv-x="398" 
d="M30.5 239.5q-1.5 6.5 -1.5 14.5q0 7 1.5 12.5t2.5 5.5h146v146q0 4 20 4t20 -4v-146h145q2 0 3.5 -6t1.5 -13t-1.5 -13.5t-3.5 -6.5h-145v-145q0 -2 -6.5 -3.5t-14.5 -1.5q-7 0 -13 1t-6 3v146h-145q-2 0 -3.5 6.5zM367.5 31.5q1.5 -5.5 1.5 -12.5t-1.5 -12.5t-3.5 -5.5
h-330q-2 0 -3.5 6t-1.5 13q0 6 1 11.5t3 5.5h331q2 0 3.5 -5.5z" />
    <glyph glyph-name="uni00B2" unicode="&#xb2;" horiz-adv-x="228" 
d="M255 713q16 -16 16 -43q0 -10 -1 -16q-5 -28 -28 -57t-66 -74q-28 -28 -44.5 -47t-25.5 -36h1q60 0 82 3t31 13t22 40q2 3 5 3t5.5 -1.5t1.5 -4.5l-17 -87q0 -3 -3 -3h-161q-2 0 -3 2.5t1 6.5q9 20 28.5 46t39.5 51q40 48 61.5 80t26.5 64q1 4 1 13q0 19 -10 30t-27 11
q-21 0 -40.5 -17t-29.5 -42q-2 -2 -5 -2t-5.5 1.5t-1.5 4.5q35 77 100 77q30 0 46 -16z" />
    <glyph glyph-name="uni00B3" unicode="&#xb3;" horiz-adv-x="228" 
d="M246 611.5q-21 -26.5 -53 -38.5q58 -14 58 -65q0 -25 -14 -51t-39 -43t-58 -17q-61 0 -71 69q-1 4 5 5t7 -3q10 -53 55 -53q26 0 44 18t24 55q2 14 2 20q0 29 -15.5 43t-39.5 14q-3 0 -3 6t3 6q20 0 36.5 14.5t26 36t9.5 38.5q0 18 -10 29.5t-28 11.5q-20 0 -38.5 -16
t-28.5 -40q-2 -2 -3 -2q-3 0 -6 2t-2 4q15 33 39.5 53.5t58.5 20.5q29 0 45.5 -16.5t16.5 -42.5q0 -32 -21 -58.5z" />
    <glyph glyph-name="acute" unicode="&#xb4;" horiz-adv-x="212" 
d="M112.5 472q-5.5 2 -3.5 4l93 240q2 5 22 10t33 5q10 0 9 -4l-147 -254q-1 -3 -6.5 -1z" />
    <glyph glyph-name="paragraph" unicode="&#xb6;" horiz-adv-x="594" 
d="M210 -180.5q-16 12.5 -13 30.5q2 16 12 24t23 8q14 0 19.5 -6t9.5 -19q5 -13 11 -19.5t22 -6.5q20 0 31.5 13.5t21 49.5t23.5 114l21 117q-36 -3 -79 -3q-99 0 -167.5 48.5t-68.5 153.5q0 29 6 62q23 119 103 180.5t201 61.5q28 0 59 -3q66 -3 74 -3q19 0 53 2l47 1
q5 0 5 -6t-5 -6q-39 0 -64.5 -21t-32.5 -60l-83 -477q-23 -129 -67 -188.5t-115 -59.5q-31 0 -47 12.5z" />
    <glyph glyph-name="periodcentered" unicode="&#xb7;" horiz-adv-x="200" 
d="M69.5 173q-11.5 11 -11.5 31q0 19 11.5 30t31.5 11t31 -11t11 -30q0 -20 -11 -31t-31 -11t-31.5 11z" />
    <glyph glyph-name="cedilla" unicode="&#xb8;" horiz-adv-x="196" 
d="M-39 -265q-16 10 -16 29q0 5 1 8q1 9 9.5 15t19.5 6t17 -6t13 -20q5 -11 10 -17t14 -6q28 0 37 38q3 30 -38 80q-16 19 -16 41q0 15 10 37l30 60h12q-14 -33 -14 -51q0 -23 23 -53q16 -21 24 -37.5t8 -33.5q0 -9 -1 -13q-4 -31 -32 -59t-71 -28q-24 0 -40 10z" />
    <glyph glyph-name="uni00B9" unicode="&#xb9;" horiz-adv-x="237" 
d="M78 408.5q0 5.5 4 5.5q30 0 42.5 4t19 17.5t12.5 47.5l21 118q9 54 9 62q0 17 -11 17q-7 0 -21.5 -6t-32.5 -14h-2q-4 0 -5.5 4.5t2.5 6.5l115 58h2q3 0 4.5 -2.5t0.5 -4.5l-41 -239q-6 -36 -6 -42q0 -17 10.5 -22t40.5 -5q4 0 4 -5.5t-4 -5.5q-20 0 -32 1l-45 1l-48 -1
q-13 -1 -35 -1q-4 0 -4 5.5z" />
    <glyph glyph-name="ordmasculine" unicode="&#xba;" horiz-adv-x="269" 
d="M88 388.5q-23 29.5 -23 75.5q0 16 3 34q7 41 29.5 71t52.5 45.5t59 15.5q42 0 64.5 -30t22.5 -76q0 -45 -21.5 -83t-55 -60t-68.5 -22q-40 0 -63 29.5zM222 402q22 25 31 73q3 21 3 39q0 45 -18 72t-50 27q-30 0 -51 -24t-29 -71q-4 -19 -4 -41q0 -44 18 -72t49 -28
q29 0 51 25zM45.5 291.5q-1.5 4.5 -1.5 9.5q0 4 1.5 8t2.5 4h221q5 0 5 -13q0 -5 -1.5 -9t-3.5 -4h-220q-2 0 -3.5 4.5z" />
    <glyph glyph-name="guillemotright" unicode="&#xbb;" horiz-adv-x="423" 
d="M35 37q-3 0 -6 3t-1 6l138 154l-84 154v1q0 3 3.5 6t4.5 0l136 -149q3 -4 3 -10q0 -7 -6 -13l-187 -152h-1zM182 37q-3 0 -6 3t-1 6l138 154l-84 154v1q0 3 3.5 6t4.5 0l136 -149q3 -4 3 -10q0 -7 -6 -13l-186 -152h-2z" />
    <glyph glyph-name="onequarter" unicode="&#xbc;" horiz-adv-x="548" 
d="M192 310l-45 1l-48 -1q-13 -1 -35 -1q-4 0 -4 5.5t4 5.5q30 0 42.5 4t19 17.5t12.5 47.5l21 118q9 54 9 62q0 17 -11 17q-7 0 -21.5 -6t-32.5 -14h-2q-4 0 -5.5 4.5t2.5 6.5l115 58h2q3 0 4.5 -2.5t0.5 -4.5l-41 -239q-6 -36 -6 -42q0 -17 10.5 -22t40.5 -5q4 0 4 -5.5
t-4 -5.5q-20 0 -32 1zM469 626q6 0 14 -4.5t6 -8.5l-338 -616q0 -1 -2 -1q-5 0 -13.5 4.5t-7.5 6.5l338 618q1 1 3 1zM511 112q0 -7 -2 -16t-4 -9l-39 3l-8 -49l-2 -16q0 -9 7 -12t28 -3q5 0 5 -6t-5 -6q-14 0 -22 1l-33 1l-42 -1q-10 -1 -29 -1q-4 0 -4 6t4 6
q32 0 41.5 5.5t13.5 25.5l9 50q-62 2 -112 2q-1 0 -2 2.5t1 3.5l181 226l2 1q3 0 5.5 -1.5t1.5 -4.5l-35 -206l39 2q1 0 1 -4zM432 112l25 143l-102 -141q-4 -4 2 -4q33 0 75 2z" />
    <glyph glyph-name="onehalf" unicode="&#xbd;" horiz-adv-x="563" 
d="M192 310l-45 1l-48 -1q-13 -1 -35 -1q-4 0 -4 5.5t4 5.5q30 0 42.5 4t19 17.5t12.5 47.5l21 118q9 54 9 62q0 17 -11 17q-7 0 -21.5 -6t-32.5 -14h-2q-4 0 -5.5 4.5t2.5 6.5l115 58h2q3 0 4.5 -2.5t0.5 -4.5l-41 -239q-6 -36 -6 -42q0 -17 10.5 -22t40.5 -5q4 0 4 -5.5
t-4 -5.5q-20 0 -32 1zM469 626q6 0 14 -4.5t6 -8.5l-338 -616q0 -1 -2 -1q-5 0 -13.5 4.5t-7.5 6.5l338 618q1 1 3 1zM519 310q16 -16 16 -43q0 -10 -1 -16q-5 -28 -28 -57t-66 -74q-28 -28 -44.5 -47t-25.5 -36h1q60 0 82 3t31 13t22 40q2 3 5 3t5.5 -1.5t1.5 -4.5l-17 -87
q0 -3 -3 -3h-161q-2 0 -3 2.5t1 6.5q9 20 28.5 46t39.5 51q40 48 61.5 80t26.5 64q1 4 1 13q0 19 -10 30t-27 11q-21 0 -40.5 -17t-29.5 -42q-2 -2 -5 -2t-5.5 1.5t-1.5 4.5q35 77 100 77q30 0 46 -16z" />
    <glyph glyph-name="threequarters" unicode="&#xbe;" horiz-adv-x="540" 
d="M219 363q-14 -26 -39 -43t-58 -17q-61 0 -71 69q-1 4 5 5t7 -3q10 -53 55 -53q26 0 44 18t24 55q2 14 2 20q0 29 -15.5 43t-39.5 14q-3 0 -3 6t3 6q20 0 36.5 14.5t26 36t9.5 38.5q0 18 -10 29.5t-28 11.5q-20 0 -38.5 -16t-28.5 -40q-2 -2 -3 -2q-3 0 -6 2t-2 4
q15 33 39.5 53.5t58.5 20.5q29 0 45.5 -16.5t16.5 -42.5q0 -32 -21 -58.5t-53 -38.5q58 -14 58 -65q0 -25 -14 -51zM460 626q6 0 14 -4.5t6 -8.5l-338 -616q0 -1 -2 -1q-5 0 -13.5 4.5t-7.5 6.5l338 618q1 1 3 1zM502 112q0 -7 -2 -16t-4 -9l-39 3l-8 -49l-2 -16q0 -9 7 -12
t28 -3q5 0 5 -6t-5 -6q-14 0 -22 1l-33 1l-42 -1q-10 -1 -29 -1q-4 0 -4 6t4 6q32 0 41.5 5.5t13.5 25.5l9 50q-62 2 -112 2q-1 0 -2 2.5t1 3.5l181 226l2 1q3 0 5.5 -1.5t1.5 -4.5l-35 -206l39 2q1 0 1 -4zM423 112l25 143l-102 -141q-4 -4 2 -4q33 0 75 2z" />
    <glyph glyph-name="questiondown" unicode="&#xbf;" horiz-adv-x="304" 
d="M237.5 349q11.5 -11 11.5 -31q0 -19 -11.5 -30t-31.5 -11t-31 11t-11 30q0 20 11 31t31 11t31.5 -11zM193 76q0 -21 -3 -35q-5 -31 -21.5 -51.5t-47.5 -46.5q-33 -27 -51.5 -50t-25.5 -60q-2 -9 -2 -25q0 -32 16 -50.5t46 -18.5q26 0 37.5 12.5t17.5 33.5q7 20 15 31.5
t25 11.5q14 0 21 -8t7 -20q0 -5 -1 -8q-4 -28 -42.5 -47.5t-86.5 -19.5q-52 0 -83 24.5t-31 68.5q0 13 3 27q8 40 30 67t43 44t27 22q40 34 57.5 61.5t23.5 62.5q5 19 3 57q0 4 5 4.5t6 -3.5q12 -37 12 -84z" />
    <glyph glyph-name="Agrave" unicode="&#xc0;" horiz-adv-x="600" 
d="M271.5 765q14.5 8 34 14.5t23.5 4.5l29 -18q99 -59 133 -77q2 -1 2 -4t-2 -5t-4 -1q-113 50 -223 77q-7 1 7.5 9zM567 6q0 -6 -4 -6q-15 0 -45 2q-36 2 -56 2q-21 0 -53 -2q-30 -2 -44 -2q-3 0 -3 6t3 6q37 0 51.5 9.5t14.5 34.5q0 17 -2 28l-31 191h-191l-78 -143
q-31 -58 -31 -84q0 -21 16 -28.5t49 -7.5q4 0 3.5 -6t-4.5 -6q-11 0 -45 2q-38 2 -59 2t-49 -2t-43 -2q-4 0 -4 6t4 6q29 0 62 25.5t68 85.5l286 512q2 3 7 3q9 0 11 -5l88 -549q5 -31 11 -45t20.5 -20.5t43.5 -6.5q4 0 4 -6zM218 295h177l-40 249z" />
    <glyph glyph-name="Aacute" unicode="&#xc1;" horiz-adv-x="600" 
d="M290 678q-4 0 -5.5 4.5t1.5 6.5q43 22 103 59q40 24 60 35q4 3 23.5 -3.5t34 -14.5t6.5 -9q-118 -30 -222 -78h-1zM567 6q0 -6 -4 -6q-15 0 -45 2q-36 2 -56 2q-21 0 -53 -2q-30 -2 -44 -2q-3 0 -3 6t3 6q37 0 51.5 9.5t14.5 34.5q0 17 -2 28l-31 191h-191l-78 -143
q-31 -58 -31 -84q0 -21 16 -28.5t49 -7.5q4 0 3.5 -6t-4.5 -6q-11 0 -45 2q-38 2 -59 2t-49 -2t-43 -2q-4 0 -4 6t4 6q29 0 62 25.5t68 85.5l286 512q2 3 7 3q9 0 11 -5l88 -549q5 -31 11 -45t20.5 -20.5t43.5 -6.5q4 0 4 -6zM218 295h177l-40 249z" />
    <glyph glyph-name="Acircumflex" unicode="&#xc2;" horiz-adv-x="600" 
d="M302 660q-3 0 -5 2.5t0 4.5l107 97q5 5 9 5q6 0 9 -5l75 -97v-1q0 -3 -2.5 -5.5t-4.5 -0.5l-86 57l-101 -57h-1zM567 6q0 -6 -4 -6q-15 0 -45 2q-36 2 -56 2q-21 0 -53 -2q-30 -2 -44 -2q-3 0 -3 6t3 6q37 0 51.5 9.5t14.5 34.5q0 17 -2 28l-31 191h-191l-78 -143
q-31 -58 -31 -84q0 -21 16 -28.5t49 -7.5q4 0 3.5 -6t-4.5 -6q-11 0 -45 2q-38 2 -59 2t-49 -2t-43 -2q-4 0 -4 6t4 6q29 0 62 25.5t68 85.5l286 512q2 3 7 3q9 0 11 -5l88 -549q5 -31 11 -45t20.5 -20.5t43.5 -6.5q4 0 4 -6zM218 295h177l-40 249z" />
    <glyph glyph-name="Atilde" unicode="&#xc3;" horiz-adv-x="600" 
d="M280 719q-3 0 -5 2.5t0 4.5q17 23 40 42t47 19q14 0 50 -10q46 -14 75 -14q18 0 29 7t22 20h1q3 0 5.5 -2.5t0.5 -4.5q-27 -36 -44.5 -49t-36.5 -13q-21 0 -61 12q-4 1 -25.5 7t-44.5 6q-17 0 -26 -5.5t-16 -12.5l-9 -9h-2zM567 6q0 -6 -4 -6q-15 0 -45 2q-36 2 -56 2
q-21 0 -53 -2q-30 -2 -44 -2q-3 0 -3 6t3 6q37 0 51.5 9.5t14.5 34.5q0 17 -2 28l-31 191h-191l-78 -143q-31 -58 -31 -84q0 -21 16 -28.5t49 -7.5q4 0 3.5 -6t-4.5 -6q-11 0 -45 2q-38 2 -59 2t-49 -2t-43 -2q-4 0 -4 6t4 6q29 0 62 25.5t68 85.5l286 512q2 3 7 3
q9 0 11 -5l88 -549q5 -31 11 -45t20.5 -20.5t43.5 -6.5q4 0 4 -6zM218 295h177l-40 249z" />
    <glyph glyph-name="Adieresis" unicode="&#xc4;" horiz-adv-x="600" 
d="M293.5 728q-11.5 11 -11.5 30t11.5 30t31.5 11t30.5 -10.5t10.5 -30.5q0 -19 -10.5 -30t-30.5 -11t-31.5 11zM468.5 728q-11.5 11 -11.5 30t11.5 30t31.5 11t30.5 -10.5t10.5 -30.5q0 -19 -10.5 -30t-30.5 -11t-31.5 11zM567 6q0 -6 -4 -6q-15 0 -45 2q-36 2 -56 2
q-21 0 -53 -2q-30 -2 -44 -2q-3 0 -3 6t3 6q37 0 51.5 9.5t14.5 34.5q0 17 -2 28l-31 191h-191l-78 -143q-31 -58 -31 -84q0 -21 16 -28.5t49 -7.5q4 0 3.5 -6t-4.5 -6q-11 0 -45 2q-38 2 -59 2t-49 -2t-43 -2q-4 0 -4 6t4 6q29 0 62 25.5t68 85.5l286 512q2 3 7 3
q9 0 11 -5l88 -549q5 -31 11 -45t20.5 -20.5t43.5 -6.5q4 0 4 -6zM218 295h177l-40 249z" />
    <glyph glyph-name="Aring" unicode="&#xc5;" horiz-adv-x="600" 
d="M338.5 694.5q-21.5 23.5 -21.5 56.5q0 36 27.5 56.5t60.5 20.5t56 -23t23 -57q0 -35 -27 -56t-61 -21q-36 0 -57.5 23.5zM359 771q0 -34 14.5 -62t37.5 -28q30 0 30 50q0 35 -17 60.5t-39 25.5q-26 0 -26 -46zM567 6q0 -6 -4 -6q-15 0 -45 2q-36 2 -56 2q-21 0 -53 -2
q-30 -2 -44 -2q-3 0 -3 6t3 6q37 0 51.5 9.5t14.5 34.5q0 17 -2 28l-31 191h-191l-78 -143q-31 -58 -31 -84q0 -21 16 -28.5t49 -7.5q4 0 3.5 -6t-4.5 -6q-11 0 -45 2q-38 2 -59 2t-49 -2t-43 -2q-4 0 -4 6t4 6q29 0 62 25.5t68 85.5l286 512q2 3 7 3q9 0 11 -5l88 -549
q5 -31 11 -45t20.5 -20.5t43.5 -6.5q4 0 4 -6zM218 295h177l-40 249z" />
    <glyph glyph-name="AE" unicode="&#xc6;" horiz-adv-x="769" 
d="M764.5 623q1.5 -2 0.5 -7l-9 -57q-4 -36 -10 -67q-1 -4 -7 -3t-4 4q1 6 1 19q0 45 -23 72t-66 27h-38q-40 0 -60 -5.5t-28.5 -19.5t-12.5 -43l-26 -207h115q41 0 61 16.5t28 55.5q0 3 4 3q3 0 5.5 -1.5t1.5 -3.5q-3 -18 -5.5 -30.5t-3.5 -21.5l-6 -29l-15 -93q0 -1 -4 -1
q-7 0 -7 3q3 15 3 28q0 29 -16 41t-53 12h-110l-29 -230q-2 -24 -2 -29q0 -23 12.5 -30.5t51.5 -7.5h69q39 0 74.5 36t56.5 95q1 3 6.5 2t4.5 -4q-21 -68 -32 -132q-2 -9 -5 -12t-11 -3h-373q-4 0 -4 6t4 6q33 0 50.5 5.5t25.5 19.5t12 44l30 234h-151l-143 -192
q-37 -51 -37 -76q0 -35 65 -35q4 0 3.5 -6t-3.5 -6q-17 0 -51 2q-40 2 -64 2q-23 0 -53 -2q-26 -2 -43 -2q-5 0 -5 6t5 6q39 0 73.5 25t87.5 96l328 442q6 9 10.5 16t4.5 11q0 8 -13.5 9.5t-54.5 1.5q-4 0 -4 6t4 6h378q5 0 6.5 -2zM286 336h138l29 223z" />
    <glyph glyph-name="Ccedilla" unicode="&#xc7;" horiz-adv-x="586" 
d="M586.5 592q1.5 -4 0.5 -15l-10 -111q-1 -4 -6 -4t-5 4q-7 76 -51.5 112t-118.5 36q-64 0 -118 -33t-90.5 -93.5t-49.5 -141.5q-7 -41 -7 -84q0 -74 23.5 -133.5t67.5 -93.5t101 -34q58 0 112 37.5t97 112.5q2 2 3 2q3 0 5.5 -2t1.5 -4l-30 -107q-3 -13 -6 -17t-12 -7
q-87 -29 -176 -29q-9 -23 -9 -39q0 -14 5.5 -26t17.5 -26q16 -21 24 -37.5t8 -33.5q0 -9 -1 -13q-4 -31 -32 -59t-71 -28q-24 0 -40 10t-16 29q0 5 1 8q1 9 9.5 15t19.5 6t17 -6t13 -20q5 -11 10 -17t14 -6q28 0 37 38q3 30 -38 80q-16 19 -16 41q0 15 10 37l24 47
q-127 4 -186.5 77t-59.5 180q0 32 7 74q17 93 73 165.5t134.5 112.5t160.5 40q42 0 82 -9.5t63 -25.5q6 -5 7.5 -9z" />
    <glyph glyph-name="Egrave" unicode="&#xc8;" horiz-adv-x="514" 
d="M248 766q17 8 40 14t27 4q72 -61 119 -93q1 0 1 -2q0 -3 -2.5 -5.5t-5.5 -1.5q-49 24 -91.5 41.5t-95.5 32.5q-9 2 8 10zM512 616l-9 -57q-4 -36 -10 -67q-1 -4 -7 -3t-5 4q1 8 1 23q0 43 -20 68.5t-57 25.5h-82q-32 0 -47.5 -5t-22.5 -18.5t-12 -43.5l-37 -207h141
q39 0 57.5 15.5t25.5 54.5q0 3 6 3q2 0 4.5 -1.5t1.5 -3.5q-4 -28 -9 -48l-6 -31l-6 -39q0 -3 -8 -54q-1 -4 -7 -3.5t-5 4.5q3 17 3 30q0 28 -15 40t-49 12h-137l-41 -230q-3 -18 -3 -30q0 -21 13 -28.5t49 -7.5h109q38 0 74 36t56 94q1 3 6.5 2t4.5 -4q-15 -47 -31 -132
q-2 -8 -5.5 -11.5t-10.5 -3.5h-406q-2 0 -2 6t2 6q33 0 48.5 5t23 19t13.5 45l82 463q3 20 3 32q0 22 -13 29.5t-50 7.5q-3 0 -3 6t3 6h383q8 0 6 -9z" />
    <glyph glyph-name="Eacute" unicode="&#xc9;" horiz-adv-x="514" 
d="M283 678q-4 0 -5 4.5t2 6.5q37 19 113 65l49 30q4 2 23.5 -4.5t34 -14.5t7.5 -9q-62 -15 -113.5 -33.5t-108.5 -43.5zM512 616l-9 -57q-4 -36 -10 -67q-1 -4 -7 -3t-5 4q1 8 1 23q0 43 -20 68.5t-57 25.5h-82q-32 0 -47.5 -5t-22.5 -18.5t-12 -43.5l-37 -207h141
q39 0 57.5 15.5t25.5 54.5q0 3 6 3q2 0 4.5 -1.5t1.5 -3.5q-4 -28 -9 -48l-6 -31l-6 -39q0 -3 -8 -54q-1 -4 -7 -3.5t-5 4.5q3 17 3 30q0 28 -15 40t-49 12h-137l-41 -230q-3 -18 -3 -30q0 -21 13 -28.5t49 -7.5h109q38 0 74 36t56 94q1 3 6.5 2t4.5 -4q-15 -47 -31 -132
q-2 -8 -5.5 -11.5t-10.5 -3.5h-406q-2 0 -2 6t2 6q33 0 48.5 5t23 19t13.5 45l82 463q3 20 3 32q0 22 -13 29.5t-50 7.5q-3 0 -3 6t3 6h383q8 0 6 -9z" />
    <glyph glyph-name="Ecircumflex" unicode="&#xca;" horiz-adv-x="514" 
d="M249 660q-3 0 -5 2.5t0 4.5l107 97q5 5 9 5q6 0 9 -5l75 -97v-1q0 -3 -2.5 -5.5t-4.5 -0.5l-86 57l-101 -57h-1zM512 616l-9 -57q-4 -36 -10 -67q-1 -4 -7 -3t-5 4q1 8 1 23q0 43 -20 68.5t-57 25.5h-82q-32 0 -47.5 -5t-22.5 -18.5t-12 -43.5l-37 -207h141
q39 0 57.5 15.5t25.5 54.5q0 3 6 3q2 0 4.5 -1.5t1.5 -3.5q-4 -28 -9 -48l-6 -31l-6 -39q0 -3 -8 -54q-1 -4 -7 -3.5t-5 4.5q3 17 3 30q0 28 -15 40t-49 12h-137l-41 -230q-3 -18 -3 -30q0 -21 13 -28.5t49 -7.5h109q38 0 74 36t56 94q1 3 6.5 2t4.5 -4q-15 -47 -31 -132
q-2 -8 -5.5 -11.5t-10.5 -3.5h-406q-2 0 -2 6t2 6q33 0 48.5 5t23 19t13.5 45l82 463q3 20 3 32q0 22 -13 29.5t-50 7.5q-3 0 -3 6t3 6h383q8 0 6 -9z" />
    <glyph glyph-name="Edieresis" unicode="&#xcb;" horiz-adv-x="514" 
d="M252 728q-11 11 -11 30t11 30t31 11t30.5 -10.5t10.5 -30.5q0 -19 -10.5 -30t-30.5 -11t-31 11zM402.5 728q-11.5 11 -11.5 30t11.5 30t31.5 11t30.5 -10.5t10.5 -30.5q0 -19 -10.5 -30t-30.5 -11t-31.5 11zM512 616l-9 -57q-4 -36 -10 -67q-1 -4 -7 -3t-5 4q1 8 1 23
q0 43 -20 68.5t-57 25.5h-82q-32 0 -47.5 -5t-22.5 -18.5t-12 -43.5l-37 -207h141q39 0 57.5 15.5t25.5 54.5q0 3 6 3q2 0 4.5 -1.5t1.5 -3.5q-4 -28 -9 -48l-6 -31l-6 -39q0 -3 -8 -54q-1 -4 -7 -3.5t-5 4.5q3 17 3 30q0 28 -15 40t-49 12h-137l-41 -230q-3 -18 -3 -30
q0 -21 13 -28.5t49 -7.5h109q38 0 74 36t56 94q1 3 6.5 2t4.5 -4q-15 -47 -31 -132q-2 -8 -5.5 -11.5t-10.5 -3.5h-406q-2 0 -2 6t2 6q33 0 48.5 5t23 19t13.5 45l82 463q3 20 3 32q0 22 -13 29.5t-50 7.5q-3 0 -3 6t3 6h383q8 0 6 -9z" />
    <glyph glyph-name="Igrave" unicode="&#xcc;" horiz-adv-x="308" 
d="M227.5 723.5q-42.5 17.5 -95.5 32.5q-9 2 8 10t40 14t27 4q72 -61 119 -93q1 0 1 -2q0 -3 -2.5 -5.5t-5.5 -1.5q-49 24 -91.5 41.5zM17 6q0 6 3 6q32 0 47.5 5t23.5 19.5t13 44.5l82 463q4 26 4 31q0 23 -14 30.5t-51 7.5q-3 0 -3 6t3 6l43 -1q36 -2 58 -2q26 0 64 2
l40 1q2 0 2 -6t-2 -6q-32 0 -47.5 -6t-23.5 -20.5t-14 -44.5l-82 -461q-3 -19 -3 -32q0 -22 13.5 -29.5t51.5 -7.5q2 0 2 -6t-2 -6q-26 0 -41 1l-62 1l-59 -1q-15 -1 -43 -1q-3 0 -3 6z" />
    <glyph glyph-name="Iacute" unicode="&#xcd;" horiz-adv-x="308" 
d="M175 678q-4 0 -5 4.5t2 6.5q37 19 113 65l49 30q4 2 23.5 -4.5t34 -14.5t7.5 -9q-62 -15 -113.5 -33.5t-108.5 -43.5zM17 6q0 6 3 6q32 0 47.5 5t23.5 19.5t13 44.5l82 463q4 26 4 31q0 23 -14 30.5t-51 7.5q-3 0 -3 6t3 6l43 -1q36 -2 58 -2q26 0 64 2l40 1q2 0 2 -6
t-2 -6q-32 0 -47.5 -6t-23.5 -20.5t-14 -44.5l-82 -461q-3 -19 -3 -32q0 -22 13.5 -29.5t51.5 -7.5q2 0 2 -6t-2 -6q-26 0 -41 1l-62 1l-59 -1q-15 -1 -43 -1q-3 0 -3 6z" />
    <glyph glyph-name="Icircumflex" unicode="&#xce;" horiz-adv-x="308" 
d="M141 660q-3 0 -5 2.5t0 4.5l107 97q5 5 9 5q6 0 9 -5l75 -97v-1q0 -3 -2.5 -5.5t-4.5 -0.5l-86 57l-101 -57h-1zM17 6q0 6 3 6q32 0 47.5 5t23.5 19.5t13 44.5l82 463q4 26 4 31q0 23 -14 30.5t-51 7.5q-3 0 -3 6t3 6l43 -1q36 -2 58 -2q26 0 64 2l40 1q2 0 2 -6t-2 -6
q-32 0 -47.5 -6t-23.5 -20.5t-14 -44.5l-82 -461q-3 -19 -3 -32q0 -22 13.5 -29.5t51.5 -7.5q2 0 2 -6t-2 -6q-26 0 -41 1l-62 1l-59 -1q-15 -1 -43 -1q-3 0 -3 6z" />
    <glyph glyph-name="Idieresis" unicode="&#xcf;" horiz-adv-x="308" 
d="M153.5 728q-11.5 11 -11.5 30t11.5 30t31.5 11t30.5 -10.5t10.5 -30.5q0 -19 -10.5 -30t-30.5 -11t-31.5 11zM286 728q-11 11 -11 30t11 30t31 11t31 -10.5t11 -30.5t-11 -30.5t-31 -10.5t-31 11zM17 6q0 6 3 6q32 0 47.5 5t23.5 19.5t13 44.5l82 463q4 26 4 31
q0 23 -14 30.5t-51 7.5q-3 0 -3 6t3 6l43 -1q36 -2 58 -2q26 0 64 2l40 1q2 0 2 -6t-2 -6q-32 0 -47.5 -6t-23.5 -20.5t-14 -44.5l-82 -461q-3 -19 -3 -32q0 -22 13.5 -29.5t51.5 -7.5q2 0 2 -6t-2 -6q-26 0 -41 1l-62 1l-59 -1q-15 -1 -43 -1q-3 0 -3 6z" />
    <glyph glyph-name="Eth" unicode="&#xd0;" horiz-adv-x="612" 
d="M474.5 595.5q59.5 -31.5 91 -87t31.5 -127.5q0 -25 -5 -58q-17 -97 -71 -171.5t-129.5 -115t-155.5 -40.5q-24 0 -56 3q-11 1 -28 2t-39 1l-61 -1q-15 -1 -41 -1q-3 0 -3 6t3 6q32 0 48.5 5t24.5 19.5t13 44.5l39 220h-80q-4 0 -4 10t4 10h84l39 223q4 26 4 32
q0 22 -14 29.5t-51 7.5q-2 0 -2 6t2 6l43 -1q38 -2 61 -2q30 0 61 3q38 2 52 2q80 0 139.5 -31.5zM526 382q0 102 -48.5 166.5t-139.5 64.5q-51 0 -72.5 -14t-29.5 -57l-39 -221h121q4 0 4 -10t-4 -10h-124l-37 -209q-4 -22 -4 -31q0 -27 17.5 -39t59.5 -12q70 0 129.5 34
t101.5 99.5t58 157.5q7 39 7 81z" />
    <glyph glyph-name="Ntilde" unicode="&#xd1;" horiz-adv-x="651" 
d="M285 695q-3 0 -5.5 2.5t-0.5 4.5q18 24 40.5 43t46.5 19q17 0 52 -11q44 -14 73 -14q18 0 28.5 6.5t23.5 20.5h2q3 0 5 -2.5t0 -4.5q-27 -36 -44 -48.5t-37 -12.5q-18 0 -37.5 5t-23.5 6q-41 13 -70 13q-17 0 -26 -5t-16 -12l-10 -10h-1zM689 619q0 -6 -2 -6
q-36 0 -57.5 -22.5t-29.5 -72.5l-94 -528q0 -2 -2.5 -3.5t-5.5 -1.5q-6 0 -7 4l-289 554l-6 11l-77 -448q-4 -20 -4 -39q0 -29 13 -42t42 -13q2 0 2 -6t-2 -6q-21 0 -32 1l-47 1l-43 -1q-13 -1 -36 -1q-3 0 -3 6t3 6q36 0 57 22t29 72l84 471q-28 36 -63 36q-3 0 -3 6t3 6
l35 -1q12 -1 31 -1q16 0 27.5 1t16.5 1q6 0 9 -4t7 -15q1 -3 4.5 -13t8.5 -20l247 -477l74 422q4 20 4 39q0 29 -13 42.5t-41 13.5q-3 0 -3 6t3 6l30 -1q28 -2 48 -2q16 0 44 2l36 1q2 0 2 -6z" />
    <glyph glyph-name="Ograve" unicode="&#xd2;" horiz-adv-x="651" 
d="M399.5 723.5q-42.5 17.5 -95.5 32.5q-9 2 8 10t40 14t27 4q72 -61 119 -93q1 0 1 -2q0 -3 -2.5 -5.5t-5.5 -1.5q-49 24 -91.5 41.5zM165 20.5q-50 32.5 -76 90t-26 129.5q0 36 6 73q16 93 66 166.5t122 115t152 41.5q71 0 122 -32.5t77.5 -89t26.5 -127.5q0 -39 -7 -74
q-17 -94 -68.5 -168t-124.5 -115.5t-151 -41.5q-69 0 -119 32.5zM475 78q62 64 86 182q10 49 10 99q0 74 -24 131t-70 89.5t-108 32.5q-89 0 -151 -66t-83 -180q-9 -48 -9 -93q0 -73 23.5 -132t68.5 -93t108 -34q87 0 149 64z" />
    <glyph glyph-name="Oacute" unicode="&#xd3;" horiz-adv-x="651" 
d="M347 678q-4 0 -5 4.5t2 6.5q37 19 113 65l49 30q4 2 23.5 -4.5t34 -14.5t7.5 -9q-62 -15 -113.5 -33.5t-108.5 -43.5zM165 20.5q-50 32.5 -76 90t-26 129.5q0 36 6 73q16 93 66 166.5t122 115t152 41.5q71 0 122 -32.5t77.5 -89t26.5 -127.5q0 -39 -7 -74
q-17 -94 -68.5 -168t-124.5 -115.5t-151 -41.5q-69 0 -119 32.5zM475 78q62 64 86 182q10 49 10 99q0 74 -24 131t-70 89.5t-108 32.5q-89 0 -151 -66t-83 -180q-9 -48 -9 -93q0 -73 23.5 -132t68.5 -93t108 -34q87 0 149 64z" />
    <glyph glyph-name="Ocircumflex" unicode="&#xd4;" horiz-adv-x="651" 
d="M313 660q-3 0 -5 2.5t0 4.5l107 97q5 5 9 5q6 0 9 -5l75 -97v-1q0 -3 -2.5 -5.5t-4.5 -0.5l-86 57l-101 -57h-1zM165 20.5q-50 32.5 -76 90t-26 129.5q0 36 6 73q16 93 66 166.5t122 115t152 41.5q71 0 122 -32.5t77.5 -89t26.5 -127.5q0 -39 -7 -74q-17 -94 -68.5 -168
t-124.5 -115.5t-151 -41.5q-69 0 -119 32.5zM475 78q62 64 86 182q10 49 10 99q0 74 -24 131t-70 89.5t-108 32.5q-89 0 -151 -66t-83 -180q-9 -48 -9 -93q0 -73 23.5 -132t68.5 -93t108 -34q87 0 149 64z" />
    <glyph glyph-name="Otilde" unicode="&#xd5;" horiz-adv-x="651" 
d="M293 695q-3 0 -5.5 2.5t-0.5 4.5q18 24 40.5 43t46.5 19q17 0 52 -11q44 -14 73 -14q18 0 28.5 6.5t23.5 20.5h2q3 0 5 -2.5t0 -4.5q-27 -36 -44 -48.5t-37 -12.5q-18 0 -37.5 5t-23.5 6q-41 13 -70 13q-17 0 -26 -5t-16 -12l-10 -10h-1zM165 20.5q-50 32.5 -76 90
t-26 129.5q0 36 6 73q16 93 66 166.5t122 115t152 41.5q71 0 122 -32.5t77.5 -89t26.5 -127.5q0 -39 -7 -74q-17 -94 -68.5 -168t-124.5 -115.5t-151 -41.5q-69 0 -119 32.5zM475 78q62 64 86 182q10 49 10 99q0 74 -24 131t-70 89.5t-108 32.5q-89 0 -151 -66t-83 -180
q-9 -48 -9 -93q0 -73 23.5 -132t68.5 -93t108 -34q87 0 149 64z" />
    <glyph glyph-name="Odieresis" unicode="&#xd6;" horiz-adv-x="651" 
d="M316 728q-11 11 -11 30t11 30t31 11t30.5 -10.5t10.5 -30.5q0 -19 -10.5 -30t-30.5 -11t-31 11zM466.5 728q-11.5 11 -11.5 30t11.5 30t31.5 11t30.5 -10.5t10.5 -30.5q0 -19 -10.5 -30t-30.5 -11t-31.5 11zM165 20.5q-50 32.5 -76 90t-26 129.5q0 36 6 73
q16 93 66 166.5t122 115t152 41.5q71 0 122 -32.5t77.5 -89t26.5 -127.5q0 -39 -7 -74q-17 -94 -68.5 -168t-124.5 -115.5t-151 -41.5q-69 0 -119 32.5zM475 78q62 64 86 182q10 49 10 99q0 74 -24 131t-70 89.5t-108 32.5q-89 0 -151 -66t-83 -180q-9 -48 -9 -93
q0 -73 23.5 -132t68.5 -93t108 -34q87 0 149 64z" />
    <glyph glyph-name="multiply" unicode="&#xd7;" horiz-adv-x="398" 
d="M318 70q-14 -14 -17 -11l-102 102l-103 -102q-3 -4 -17.5 10.5t-11.5 16.5l104 104l-103 103q-4 2 10.5 16.5t16.5 11.5l104 -103l102 102q3 3 17 -11t11 -18l-102 -101l103 -102q2 -4 -12 -18z" />
    <glyph glyph-name="Oslash" unicode="&#xd8;" horiz-adv-x="651" 
d="M650 631q4 0 10 -5.5t3 -7.5l-72 -73q44 -65 44 -159q0 -29 -7 -73q-17 -94 -68.5 -168t-124.5 -115.5t-151 -41.5q-53 0 -95 19.5t-71 55.5l-70 -71l-2 -1q-5 0 -10.5 6.5t-2.5 9.5l72 73q-43 68 -43 160q0 29 7 73q16 93 66 166.5t122 115t152 41.5q109 0 171 -75
l68 69q0 1 2 1zM126 273q0 -84 28 -143l381 385q-26 46 -68.5 71.5t-97.5 25.5q-89 0 -151 -66t-83 -180q-9 -48 -9 -93zM572 359q0 77 -28 138l-380 -387q26 -46 67 -71t95 -25q87 0 149 64t86 182q11 55 11 99z" />
    <glyph glyph-name="Ugrave" unicode="&#xd9;" horiz-adv-x="618" 
d="M280 756q-7 1 7.5 9t34 14.5t23.5 4.5l29 -18q99 -59 133 -77q2 -1 2 -4t-2 -5t-4 -1q-113 50 -223 77zM566 548q0 65 -64 65q-3 0 -3 6t3 6l41 -1q30 -2 49 -2q16 0 46 2l36 1q4 0 3.5 -6t-3.5 -6q-73 0 -91 -99l-50 -289q-20 -112 -89.5 -175t-168.5 -63
q-86 0 -134 47.5t-48 131.5q0 23 5 55l58 324q3 18 3 31q0 23 -14 30t-53 7q-3 0 -3 6t3 6l45 -1q38 -2 60 -2q26 0 66 2l40 1q4 0 4 -6t-4 -6q-33 0 -50.5 -6.5t-26 -21.5t-13.5 -45l-52 -288q-7 -45 -7 -71q0 -81 38.5 -122.5t106.5 -41.5q82 0 138.5 56t73.5 154l52 291
q3 17 3 30z" />
    <glyph glyph-name="Uacute" unicode="&#xda;" horiz-adv-x="618" 
d="M306 678q-4 0 -5.5 4.5t1.5 6.5q43 22 103 59q40 24 60 35q4 3 23.5 -3.5t34 -14.5t6.5 -9q-118 -30 -222 -78h-1zM566 548q0 65 -64 65q-3 0 -3 6t3 6l41 -1q30 -2 49 -2q16 0 46 2l36 1q4 0 3.5 -6t-3.5 -6q-73 0 -91 -99l-50 -289q-20 -112 -89.5 -175t-168.5 -63
q-86 0 -134 47.5t-48 131.5q0 23 5 55l58 324q3 18 3 31q0 23 -14 30t-53 7q-3 0 -3 6t3 6l45 -1q38 -2 60 -2q26 0 66 2l40 1q4 0 4 -6t-4 -6q-33 0 -50.5 -6.5t-26 -21.5t-13.5 -45l-52 -288q-7 -45 -7 -71q0 -81 38.5 -122.5t106.5 -41.5q82 0 138.5 56t73.5 154l52 291
q3 17 3 30z" />
    <glyph glyph-name="Ucircumflex" unicode="&#xdb;" horiz-adv-x="618" 
d="M319 660q-3 0 -5 2.5t0 4.5l107 97q5 5 9 5q6 0 9 -5l75 -97v-1q0 -3 -2.5 -5.5t-4.5 -0.5l-86 57l-101 -57h-1zM566 548q0 65 -64 65q-3 0 -3 6t3 6l41 -1q30 -2 49 -2q16 0 46 2l36 1q4 0 3.5 -6t-3.5 -6q-73 0 -91 -99l-50 -289q-20 -112 -89.5 -175t-168.5 -63
q-86 0 -134 47.5t-48 131.5q0 23 5 55l58 324q3 18 3 31q0 23 -14 30t-53 7q-3 0 -3 6t3 6l45 -1q38 -2 60 -2q26 0 66 2l40 1q4 0 4 -6t-4 -6q-33 0 -50.5 -6.5t-26 -21.5t-13.5 -45l-52 -288q-7 -45 -7 -71q0 -81 38.5 -122.5t106.5 -41.5q82 0 138.5 56t73.5 154l52 291
q3 17 3 30z" />
    <glyph glyph-name="Udieresis" unicode="&#xdc;" horiz-adv-x="618" 
d="M310.5 728q-11.5 11 -11.5 30t11.5 30t31.5 11t30.5 -10.5t10.5 -30.5q0 -19 -10.5 -30t-30.5 -11t-31.5 11zM485.5 728q-11.5 11 -11.5 30t11.5 30t31.5 11t30.5 -10.5t10.5 -30.5q0 -19 -10.5 -30t-30.5 -11t-31.5 11zM566 548q0 65 -64 65q-3 0 -3 6t3 6l41 -1
q30 -2 49 -2q16 0 46 2l36 1q4 0 3.5 -6t-3.5 -6q-73 0 -91 -99l-50 -289q-20 -112 -89.5 -175t-168.5 -63q-86 0 -134 47.5t-48 131.5q0 23 5 55l58 324q3 18 3 31q0 23 -14 30t-53 7q-3 0 -3 6t3 6l45 -1q38 -2 60 -2q26 0 66 2l40 1q4 0 4 -6t-4 -6q-33 0 -50.5 -6.5
t-26 -21.5t-13.5 -45l-52 -288q-7 -45 -7 -71q0 -81 38.5 -122.5t106.5 -41.5q82 0 138.5 56t73.5 154l52 291q3 17 3 30z" />
    <glyph glyph-name="Yacute" unicode="&#xdd;" horiz-adv-x="529" 
d="M292 678q-4 0 -5 4.5t2 6.5q37 19 113 65l49 30q4 2 23.5 -4.5t34 -14.5t7.5 -9q-62 -15 -113.5 -33.5t-108.5 -43.5zM604 619q0 -6 -4 -6q-64 0 -131 -94l-152 -209l-40 -229q-4 -19 -4 -34q0 -21 14 -28t52 -7q4 0 4 -6t-4 -6q-27 0 -42 1l-61 1l-63 -1q-15 -1 -42 -1
q-4 0 -4 6t4 6q33 0 50 5.5t25 19.5t13 44l38 220l-102 241q-17 39 -34.5 55t-45.5 16q-4 0 -4 6t4 6l34 -1q24 -2 35 -2q25 0 69 2l46 1q2 0 2 -5q0 -7 -4 -7q-27 0 -38.5 -5t-11.5 -17q0 -6 5 -18l101 -242l136 193q27 38 27 60q0 29 -42 29q-4 0 -4 6t4 6l40 -1
q34 -2 59 -2q15 0 35 2l32 1q4 0 4 -6z" />
    <glyph glyph-name="Thorn" unicode="&#xde;" horiz-adv-x="534" 
d="M464.5 462q56.5 -37 56.5 -110q0 -21 -4 -40q-13 -62 -58.5 -104.5t-105 -63t-114.5 -20.5q-24 0 -41 4q-1 0 -1 3q0 4 2 8.5t4 3.5q13 -4 30 -4q46 0 90.5 16.5t78 51t44.5 85.5q5 25 5 44q0 68 -44.5 108.5t-112.5 40.5q-42 0 -69 -6l-70 -398q-3 -18 -3 -31
q0 -16 7.5 -24t26 -11t54.5 -3q2 0 2 -6t-2 -6q-33 0 -52 1l-76 1l-59 -1q-15 -1 -40 -1q-3 0 -3 6t3 6q32 0 48 5t24 19.5t14 44.5l81 463q4 17 4 33q0 21 -13.5 28.5t-50.5 7.5q-2 0 -2 6t2 6l40 -1q36 -2 59 -2q32 0 80 2l48 1q3 0 3 -6t-3 -6q-47 0 -67 -4.5t-29 -18.5
t-15 -48l-9 -49q44 6 92 6q89 0 145.5 -37z" />
    <glyph glyph-name="germandbls" unicode="&#xdf;" horiz-adv-x="448" 
d="M-98 -263.5q-16 11.5 -16 28.5q0 14 10.5 24t26.5 10q15 0 21.5 -8t11.5 -23q4 -13 8.5 -19t15.5 -6t19.5 16.5t17 59.5t23.5 134l78 489q22 133 81.5 208.5t144.5 75.5q46 0 67.5 -23.5t21.5 -57.5q0 -11 -1 -17q-5 -33 -23 -60t-50 -63q-27 -30 -41.5 -50.5
t-18.5 -43.5q-1 -6 -1 -17q0 -28 12 -53t36 -64q26 -42 39 -70.5t13 -61.5q0 -7 -2 -23q-4 -31 -22 -62t-47 -51t-65 -20q-35 0 -53.5 16t-18.5 37q0 14 8.5 23t23.5 9q13 0 19.5 -7t13.5 -22q7 -16 14.5 -24t23.5 -8q24 0 38.5 18t19.5 51q1 6 1 17q0 30 -12 56.5t-37 65.5
q-25 38 -37.5 64.5t-12.5 57.5q0 7 2 23q5 30 18 52.5t38 55.5q27 34 42 61.5t20 64.5q3 17 3 34q0 76 -57 76q-50 0 -90 -69.5t-60 -195.5l-73 -466q-16 -98 -34 -152.5t-44.5 -78t-67.5 -23.5q-32 0 -48 11.5z" />
    <glyph glyph-name="agrave" unicode="&#xe0;" horiz-adv-x="434" 
d="M250 727q-1 4 9 4q13 0 30 -5t17 -10l-5 -240q0 -2 -4.5 -3t-4.5 2zM412 78q3 0 5 -3.5t0 -5.5q-34 -39 -60.5 -58.5t-51.5 -19.5q-17 0 -25.5 10.5t-8.5 34.5q0 20 6 53l18 104q-46 -93 -103.5 -149.5t-110.5 -56.5q-62 0 -62 74q0 8 2 30q10 71 53 143t101 118.5
t109 46.5q19 0 37 -7t29 -21q18 15 24 36q1 3 7 2t5 -3l-58 -317q-3 -15 -3 -27q0 -31 18 -31q22 0 66 46q1 1 3 1zM193.5 73q40.5 37 72.5 93.5t43 110.5q3 13 2 23q0 30 -15.5 47t-46.5 17q-35 -1 -71.5 -31.5t-63.5 -82t-36 -114.5q-3 -22 -3 -40q0 -60 42 -60
q36 0 76.5 37z" />
    <glyph glyph-name="aacute" unicode="&#xe1;" horiz-adv-x="434" 
d="M386 726q20 5 33 5q10 0 9 -4l-147 -254q-1 -3 -6.5 -1t-3.5 4l93 240q2 5 22 10zM412 78q3 0 5 -3.5t0 -5.5q-34 -39 -60.5 -58.5t-51.5 -19.5q-17 0 -25.5 10.5t-8.5 34.5q0 20 6 53l18 104q-46 -93 -103.5 -149.5t-110.5 -56.5q-62 0 -62 74q0 8 2 30q10 71 53 143
t101 118.5t109 46.5q19 0 37 -7t29 -21q18 15 24 36q1 3 7 2t5 -3l-58 -317q-3 -15 -3 -27q0 -31 18 -31q22 0 66 46q1 1 3 1zM193.5 73q40.5 37 72.5 93.5t43 110.5q3 13 2 23q0 30 -15.5 47t-46.5 17q-35 -1 -71.5 -31.5t-63.5 -82t-36 -114.5q-3 -22 -3 -40q0 -60 42 -60
q36 0 76.5 37z" />
    <glyph glyph-name="acircumflex" unicode="&#xe2;" horiz-adv-x="434" 
d="M230 472q-3 0 -6 2t-2 3l106 249q1 5 10 5q8 0 8 -5l18 -249q0 -2 -5.5 -2.5t-6.5 1.5l-32 154l-87 -156q-2 -2 -3 -2zM412 78q3 0 5 -3.5t0 -5.5q-34 -39 -60.5 -58.5t-51.5 -19.5q-17 0 -25.5 10.5t-8.5 34.5q0 20 6 53l18 104q-46 -93 -103.5 -149.5t-110.5 -56.5
q-62 0 -62 74q0 8 2 30q10 71 53 143t101 118.5t109 46.5q19 0 37 -7t29 -21q18 15 24 36q1 3 7 2t5 -3l-58 -317q-3 -15 -3 -27q0 -31 18 -31q22 0 66 46q1 1 3 1zM193.5 73q40.5 37 72.5 93.5t43 110.5q3 13 2 23q0 30 -15.5 47t-46.5 17q-35 -1 -71.5 -31.5t-63.5 -82
t-36 -114.5q-3 -22 -3 -40q0 -60 42 -60q36 0 76.5 37z" />
    <glyph glyph-name="atilde" unicode="&#xe3;" horiz-adv-x="434" 
d="M425 551q3 0 5.5 -2.5t0.5 -4.5q-27 -36 -44.5 -49t-36.5 -13q-21 0 -61 12q-4 1 -25.5 7t-44.5 6q-17 0 -26 -5.5t-16 -12.5l-9 -9h-2q-3 0 -5 2.5t0 4.5q17 23 40 42t47 19q14 0 50 -10q46 -14 75 -14q18 0 29 7t22 20h1zM412 78q3 0 5 -3.5t0 -5.5
q-34 -39 -60.5 -58.5t-51.5 -19.5q-17 0 -25.5 10.5t-8.5 34.5q0 20 6 53l18 104q-46 -93 -103.5 -149.5t-110.5 -56.5q-62 0 -62 74q0 8 2 30q10 71 53 143t101 118.5t109 46.5q19 0 37 -7t29 -21q18 15 24 36q1 3 7 2t5 -3l-58 -317q-3 -15 -3 -27q0 -31 18 -31
q22 0 66 46q1 1 3 1zM193.5 73q40.5 37 72.5 93.5t43 110.5q3 13 2 23q0 30 -15.5 47t-46.5 17q-35 -1 -71.5 -31.5t-63.5 -82t-36 -114.5q-3 -22 -3 -40q0 -60 42 -60q36 0 76.5 37z" />
    <glyph glyph-name="adieresis" unicode="&#xe4;" horiz-adv-x="434" 
d="M191 489q-11 11 -11 30t11 30t31 11t30.5 -10.5t10.5 -30.5q0 -19 -10.5 -30t-30.5 -11t-31 11zM341.5 489q-11.5 11 -11.5 30t11.5 30t31.5 11t30.5 -10.5t10.5 -30.5q0 -19 -10.5 -30t-30.5 -11t-31.5 11zM412 78q3 0 5 -3.5t0 -5.5q-34 -39 -60.5 -58.5t-51.5 -19.5
q-17 0 -25.5 10.5t-8.5 34.5q0 20 6 53l18 104q-46 -93 -103.5 -149.5t-110.5 -56.5q-62 0 -62 74q0 8 2 30q10 71 53 143t101 118.5t109 46.5q19 0 37 -7t29 -21q18 15 24 36q1 3 7 2t5 -3l-58 -317q-3 -15 -3 -27q0 -31 18 -31q22 0 66 46q1 1 3 1zM193.5 73
q40.5 37 72.5 93.5t43 110.5q3 13 2 23q0 30 -15.5 47t-46.5 17q-35 -1 -71.5 -31.5t-63.5 -82t-36 -114.5q-3 -22 -3 -40q0 -60 42 -60q36 0 76.5 37z" />
    <glyph glyph-name="aring" unicode="&#xe5;" horiz-adv-x="434" 
d="M234 491q-21 23 -21 56q0 36 27.5 57t60.5 21t55.5 -23.5t22.5 -56.5q0 -35 -26.5 -56t-61.5 -21q-36 0 -57 23zM255 567q0 -34 14.5 -61.5t37.5 -27.5q29 0 29 49q0 35 -16.5 61t-38.5 26q-26 0 -26 -47zM412 78q3 0 5 -3.5t0 -5.5q-34 -39 -60.5 -58.5t-51.5 -19.5
q-17 0 -25.5 10.5t-8.5 34.5q0 20 6 53l18 104q-46 -93 -103.5 -149.5t-110.5 -56.5q-62 0 -62 74q0 8 2 30q10 71 53 143t101 118.5t109 46.5q19 0 37 -7t29 -21q18 15 24 36q1 3 7 2t5 -3l-58 -317q-3 -15 -3 -27q0 -31 18 -31q22 0 66 46q1 1 3 1zM193.5 73
q40.5 37 72.5 93.5t43 110.5q3 13 2 23q0 30 -15.5 47t-46.5 17q-35 -1 -71.5 -31.5t-63.5 -82t-36 -114.5q-3 -22 -3 -40q0 -60 42 -60q36 0 76.5 37z" />
    <glyph glyph-name="ae" unicode="&#xe6;" horiz-adv-x="541" 
d="M524.5 384.5q15.5 -14.5 15.5 -37.5q0 -38 -47 -69.5t-169 -68.5q-4 -29 -4 -61q0 -63 19.5 -95t56.5 -32q25 0 45 8t39 26l2 1q3 0 5.5 -4t0.5 -6q-34 -31 -64.5 -44.5t-63.5 -13.5q-48 0 -73.5 36t-25.5 101q0 24 5 59q-40 -90 -89 -143.5t-95 -53.5q-63 0 -63 75
q0 9 2 29q10 70 49 142t92.5 119t103.5 47q27 0 46.5 -15t23.5 -46q30 30 65.5 45.5t71.5 15.5t51.5 -14.5zM477 336q0 17 -9.5 30t-30.5 13q-40 0 -70.5 -44t-40.5 -113q62 21 103 44.5t47 56.5q1 4 1 13zM181.5 73.5q34.5 36.5 62.5 93t38 110.5q3 14 3 26q0 28 -13.5 46
t-37.5 18q-31 0 -63.5 -30.5t-57.5 -84t-34 -116.5q-3 -22 -3 -39q0 -60 42 -60q29 0 63.5 36.5z" />
    <glyph glyph-name="ccedilla" unicode="&#xe7;" horiz-adv-x="345" 
d="M312 382q26 -17 23 -42q-1 -14 -9.5 -23t-23.5 -9q-26 0 -36 32q-4 14 -16.5 25.5t-35.5 11.5q-47 0 -76.5 -40t-41.5 -104q-7 -40 -7 -66q0 -64 28 -104.5t82 -40.5q51 0 106 45l2 1q3 0 5.5 -4t0.5 -6q-77 -68 -149 -71q-9 -23 -9 -38q0 -14 5.5 -26.5t17.5 -26.5
q16 -21 24 -37.5t8 -33.5q0 -9 -1 -13q-4 -31 -32 -59t-71 -28q-24 0 -40 10t-16 29q0 5 1 8q1 9 9.5 15t19.5 6t17 -6t13 -20q5 -11 10 -17t14 -6q28 0 37 38q3 30 -38 80q-16 19 -16 41q0 15 10 37l24 47q-62 2 -92.5 46.5t-30.5 108.5q0 25 7 60q12 60 46 105t79 68.5
t89 23.5q37 0 63 -17z" />
    <glyph glyph-name="egrave" unicode="&#xe8;" horiz-adv-x="343" 
d="M204 727q-1 4 9 4q13 0 30 -5t17 -10l-5 -240q0 -2 -4.5 -3t-4.5 2zM296.5 294.5q-32.5 -28.5 -87 -49.5t-117.5 -31q-5 -32 -5 -55q0 -62 28 -99.5t79 -37.5q56 0 100 33h2q3 0 5.5 -3t-0.5 -6q-70 -58 -146 -58q-63 0 -95.5 40.5t-32.5 104.5q0 22 5 52q9 51 42 100.5
t82.5 81.5t103.5 32q33 0 51 -12t18 -33q0 -31 -32.5 -59.5zM138.5 331.5q-31.5 -40.5 -43.5 -103.5q70 12 113.5 36t52.5 60q2 10 2 14q0 17 -14 25.5t-33 8.5q-46 0 -77.5 -40.5z" />
    <glyph glyph-name="eacute" unicode="&#xe9;" horiz-adv-x="343" 
d="M340 726q20 5 33 5q10 0 9 -4l-147 -254q-1 -3 -6.5 -1t-3.5 4l93 240q2 5 22 10zM311 387q18 -12 18 -33q0 -31 -32.5 -59.5t-87 -49.5t-117.5 -31q-5 -32 -5 -55q0 -62 28 -99.5t79 -37.5q56 0 100 33h2q3 0 5.5 -3t-0.5 -6q-70 -58 -146 -58q-63 0 -95.5 40.5
t-32.5 104.5q0 22 5 52q9 51 42 100.5t82.5 81.5t103.5 32q33 0 51 -12zM263 338q0 17 -14 25.5t-33 8.5q-46 0 -77.5 -40.5t-43.5 -103.5q70 12 113.5 36t52.5 60q2 10 2 14z" />
    <glyph glyph-name="ecircumflex" unicode="&#xea;" horiz-adv-x="343" 
d="M173 473q-3 0 -6 1.5t-2 3.5l105 249q3 5 11 5t8 -5l18 -249q0 -3 -6 -3.5t-6 2.5l-32 154l-87 -157q-1 -1 -3 -1zM296.5 294.5q-32.5 -28.5 -87 -49.5t-117.5 -31q-5 -32 -5 -55q0 -62 28 -99.5t79 -37.5q56 0 100 33h2q3 0 5.5 -3t-0.5 -6q-70 -58 -146 -58
q-63 0 -95.5 40.5t-32.5 104.5q0 22 5 52q9 51 42 100.5t82.5 81.5t103.5 32q33 0 51 -12t18 -33q0 -31 -32.5 -59.5zM138.5 331.5q-31.5 -40.5 -43.5 -103.5q70 12 113.5 36t52.5 60q2 10 2 14q0 17 -14 25.5t-33 8.5q-46 0 -77.5 -40.5z" />
    <glyph glyph-name="edieresis" unicode="&#xeb;" horiz-adv-x="343" 
d="M145 489q-11 11 -11 30t11 30t31 11t30.5 -10.5t10.5 -30.5q0 -19 -10.5 -30t-30.5 -11t-31 11zM357.5 549.5q10.5 -10.5 10.5 -30.5q0 -19 -10.5 -30t-30.5 -11t-31.5 11t-11.5 30t11.5 30t31.5 11t30.5 -10.5zM311 387q18 -12 18 -33q0 -31 -32.5 -59.5t-87 -49.5
t-117.5 -31q-5 -32 -5 -55q0 -62 28 -99.5t79 -37.5q56 0 100 33h2q3 0 5.5 -3t-0.5 -6q-70 -58 -146 -58q-63 0 -95.5 40.5t-32.5 104.5q0 22 5 52q9 51 42 100.5t82.5 81.5t103.5 32q33 0 51 -12zM263 338q0 17 -14 25.5t-33 8.5q-46 0 -77.5 -40.5t-43.5 -103.5
q70 12 113.5 36t52.5 60q2 10 2 14z" />
    <glyph glyph-name="igrave" unicode="&#xec;" horiz-adv-x="247" 
d="M116 727q-1 4 9 4q13 0 30 -5t17 -10l-5 -240q0 -2 -4.5 -3t-4.5 2zM82 1.5q-9 10.5 -9 34.5q0 15 7 53l41 208q3 15 3 27q0 32 -20 32q-12 0 -30.5 -12t-38.5 -34q-1 -1 -3 -1q-3 0 -5.5 3.5t0.5 5.5q35 40 63 58.5t53 18.5q18 0 26.5 -10.5t8.5 -34.5q0 -19 -6 -51
l-41 -210q-3 -16 -3 -27q0 -31 19 -31q24 0 68 44q2 2 4 2q3 0 5 -3.5t-1 -6.5q-34 -39 -61 -57.5t-53 -18.5q-18 0 -27 10.5z" />
    <glyph glyph-name="iacute" unicode="&#xed;" horiz-adv-x="247" 
d="M140.5 472q-5.5 2 -3.5 4l93 240q2 5 22 10t33 5q10 0 9 -4l-147 -254q-1 -3 -6.5 -1zM82 1.5q-9 10.5 -9 34.5q0 15 7 53l41 208q3 15 3 27q0 32 -20 32q-12 0 -30.5 -12t-38.5 -34q-1 -1 -3 -1q-3 0 -5.5 3.5t0.5 5.5q35 40 63 58.5t53 18.5q18 0 26.5 -10.5t8.5 -34.5
q0 -19 -6 -51l-41 -210q-3 -16 -3 -27q0 -31 19 -31q24 0 68 44q2 2 4 2q3 0 5 -3.5t-1 -6.5q-34 -39 -61 -57.5t-53 -18.5q-18 0 -27 10.5z" />
    <glyph glyph-name="icircumflex" unicode="&#xee;" horiz-adv-x="247" 
d="M230 477q0 -2 -5.5 -2.5t-6.5 1.5l-32 154l-87 -156q-2 -2 -3 -2q-3 0 -6 2t-2 3l106 249q1 5 10 5q8 0 8 -5zM82 1.5q-9 10.5 -9 34.5q0 15 7 53l41 208q3 15 3 27q0 32 -20 32q-12 0 -30.5 -12t-38.5 -34q-1 -1 -3 -1q-3 0 -5.5 3.5t0.5 5.5q35 40 63 58.5t53 18.5
q18 0 26.5 -10.5t8.5 -34.5q0 -19 -6 -51l-41 -210q-3 -16 -3 -27q0 -31 19 -31q24 0 68 44q2 2 4 2q3 0 5 -3.5t-1 -6.5q-34 -39 -61 -57.5t-53 -18.5q-18 0 -27 10.5z" />
    <glyph glyph-name="idieresis" unicode="&#xef;" horiz-adv-x="247" 
d="M66.5 489q-11.5 11 -11.5 30t11.5 30t31.5 11t30.5 -10.5t10.5 -30.5q0 -19 -10.5 -30t-30.5 -11t-31.5 11zM199 489q-11 11 -11 30t11 30t31 11t31 -10.5t11 -30.5t-11 -30.5t-31 -10.5t-31 11zM82 1.5q-9 10.5 -9 34.5q0 15 7 53l41 208q3 15 3 27q0 32 -20 32
q-12 0 -30.5 -12t-38.5 -34q-1 -1 -3 -1q-3 0 -5.5 3.5t0.5 5.5q35 40 63 58.5t53 18.5q18 0 26.5 -10.5t8.5 -34.5q0 -19 -6 -51l-41 -210q-3 -16 -3 -27q0 -31 19 -31q24 0 68 44q2 2 4 2q3 0 5 -3.5t-1 -6.5q-34 -39 -61 -57.5t-53 -18.5q-18 0 -27 10.5z" />
    <glyph glyph-name="eth" unicode="&#xf0;" horiz-adv-x="401" 
d="M413.5 636.5q4.5 -9.5 0.5 -10.5l-97 -46q32 -59 49.5 -128.5t17.5 -140.5q0 -48 -9 -95q-13 -74 -46.5 -125.5t-79 -77.5t-95.5 -26q-61 0 -95 42t-34 108q0 21 5 49q12 69 47 117t79.5 72t85.5 24q22 0 42.5 -7.5t36.5 -21.5q-11 101 -49 189l-132 -63q-3 -2 -7.5 7
t-0.5 11l132 62q-45 92 -110 136q-4 2 3 6.5t16.5 6.5t12.5 0q70 -42 121 -128l99 47q3 2 7.5 -7.5zM263.5 54q35.5 48 52.5 150q6 38 6 68q0 54 -22 81t-72 27q-46 0 -85 -44t-52 -121q-5 -33 -5 -58q0 -66 25.5 -108.5t69.5 -42.5q47 0 82.5 48z" />
    <glyph glyph-name="ntilde" unicode="&#xf1;" horiz-adv-x="465" 
d="M153 480q-3 0 -5 2.5t0 4.5q17 23 40 42t47 19q14 0 50 -10q46 -14 75 -14q18 0 29 7t22 20h1q3 0 5.5 -2.5t0.5 -4.5q-27 -36 -44.5 -49t-36.5 -13q-21 0 -61 12q-4 1 -25.5 7t-44.5 6q-17 0 -26 -5.5t-16 -12.5l-9 -9h-2zM444 79q3 0 5.5 -3.5t-0.5 -6.5
q-34 -40 -60.5 -59t-51.5 -19q-18 0 -26.5 10.5t-8.5 34.5q0 20 6 53l29 159q6 32 6 54q0 58 -43 58q-33 0 -68.5 -42t-66.5 -122.5t-50 -188.5q-2 -7 -10.5 -11t-22.5 -4t-18.5 1.5t-4.5 4.5l4 23q6 24 11 53l41 223q3 15 3 27q0 32 -20 32q-12 0 -30.5 -12t-38.5 -34
q-1 -1 -3 -1q-3 0 -5.5 3.5t0.5 5.5q34 39 62.5 58t54.5 19q17 0 25 -10.5t8 -33.5q0 -26 -5 -52l-21 -121q36 104 85 162.5t103 58.5q33 0 49 -18t16 -57q0 -24 -6 -57l-33 -178q-3 -15 -3 -27q0 -31 20 -31q21 0 65 46q2 2 3 2z" />
    <glyph glyph-name="ograve" unicode="&#xf2;" horiz-adv-x="398" 
d="M202 727q-1 4 9 4q13 0 30 -5t17 -10l-5 -240q0 -2 -4.5 -3t-4.5 2zM61.5 28q-33.5 42 -33.5 110q0 31 5 55q11 58 42 105t75 74t93 27q62 0 96 -41.5t34 -107.5q0 -28 -6 -57q-12 -61 -45 -108.5t-77.5 -73t-90.5 -25.5q-59 0 -92.5 42zM265 48q34 37 46 101q5 32 5 58
q0 69 -26.5 118.5t-75.5 49.5q-43 0 -77 -37.5t-47 -101.5q-6 -30 -6 -61q0 -67 28 -115.5t77 -48.5q42 0 76 37z" />
    <glyph glyph-name="oacute" unicode="&#xf3;" horiz-adv-x="398" 
d="M226.5 472q-5.5 2 -3.5 4l93 240q2 5 22 10t33 5q10 0 9 -4l-147 -254q-1 -3 -6.5 -1zM61.5 28q-33.5 42 -33.5 110q0 31 5 55q11 58 42 105t75 74t93 27q62 0 96 -41.5t34 -107.5q0 -28 -6 -57q-12 -61 -45 -108.5t-77.5 -73t-90.5 -25.5q-59 0 -92.5 42zM265 48
q34 37 46 101q5 32 5 58q0 69 -26.5 118.5t-75.5 49.5q-43 0 -77 -37.5t-47 -101.5q-6 -30 -6 -61q0 -67 28 -115.5t77 -48.5q42 0 76 37z" />
    <glyph glyph-name="ocircumflex" unicode="&#xf4;" horiz-adv-x="398" 
d="M305 478q0 -3 -6 -3.5t-6 2.5l-32 154l-87 -157q-1 -1 -3 -1q-3 0 -6 1.5t-2 3.5l105 249q3 5 11 5t8 -5zM61.5 28q-33.5 42 -33.5 110q0 31 5 55q11 58 42 105t75 74t93 27q62 0 96 -41.5t34 -107.5q0 -28 -6 -57q-12 -61 -45 -108.5t-77.5 -73t-90.5 -25.5
q-59 0 -92.5 42zM265 48q34 37 46 101q5 32 5 58q0 69 -26.5 118.5t-75.5 49.5q-43 0 -77 -37.5t-47 -101.5q-6 -30 -6 -61q0 -67 28 -115.5t77 -48.5q42 0 76 37z" />
    <glyph glyph-name="otilde" unicode="&#xf5;" horiz-adv-x="398" 
d="M118 480q-3 0 -5 2.5t0 4.5q17 23 40 42t47 19q14 0 50 -10q46 -14 75 -14q18 0 29 7t22 20h1q3 0 5.5 -2.5t0.5 -4.5q-27 -36 -44.5 -49t-36.5 -13q-21 0 -61 12q-4 1 -25.5 7t-44.5 6q-17 0 -26 -5.5t-16 -12.5l-9 -9h-2zM61.5 28q-33.5 42 -33.5 110q0 31 5 55
q11 58 42 105t75 74t93 27q62 0 96 -41.5t34 -107.5q0 -28 -6 -57q-12 -61 -45 -108.5t-77.5 -73t-90.5 -25.5q-59 0 -92.5 42zM265 48q34 37 46 101q5 32 5 58q0 69 -26.5 118.5t-75.5 49.5q-43 0 -77 -37.5t-47 -101.5q-6 -30 -6 -61q0 -67 28 -115.5t77 -48.5q42 0 76 37
z" />
    <glyph glyph-name="odieresis" unicode="&#xf6;" horiz-adv-x="398" 
d="M143 489q-11 11 -11 30t11 30t31 11t30.5 -10.5t10.5 -30.5q0 -19 -10.5 -30t-30.5 -11t-31 11zM293.5 489q-11.5 11 -11.5 30t11.5 30t31.5 11t30.5 -10.5t10.5 -30.5q0 -19 -10.5 -30t-30.5 -11t-31.5 11zM61.5 28q-33.5 42 -33.5 110q0 31 5 55q11 58 42 105t75 74
t93 27q62 0 96 -41.5t34 -107.5q0 -28 -6 -57q-12 -61 -45 -108.5t-77.5 -73t-90.5 -25.5q-59 0 -92.5 42zM265 48q34 37 46 101q5 32 5 58q0 69 -26.5 118.5t-75.5 49.5q-43 0 -77 -37.5t-47 -101.5q-6 -30 -6 -61q0 -67 28 -115.5t77 -48.5q42 0 76 37z" />
    <glyph glyph-name="divide" unicode="&#xf7;" horiz-adv-x="386" 
d="M165.5 329q-11.5 11 -11.5 31q0 19 11.5 30t31.5 11t31 -11t11 -30q0 -20 -11 -31t-31 -11t-31.5 11zM30.5 178.5q-1.5 6.5 -1.5 14.5q0 7 1.5 12.5t2.5 5.5h331q2 0 3.5 -6t1.5 -13t-1.5 -13.5t-3.5 -6.5h-330q-2 0 -3.5 6.5zM166.5 1q-11.5 11 -11.5 31q0 19 11.5 30
t31.5 11t31 -11t11 -30q0 -20 -11 -31t-31 -11t-31.5 11z" />
    <glyph glyph-name="oslash" unicode="&#xf8;" horiz-adv-x="408" 
d="M388 400q4 0 10 -5.5t3 -8.5l-48 -49q20 -37 20 -87q0 -27 -6 -57q-12 -61 -45 -108.5t-77.5 -73t-90.5 -25.5q-61 0 -96 46l-45 -47l-2 -1q-4 0 -9.5 6.5t-2.5 9.5l48 49q-19 37 -19 89q0 31 5 55q11 58 42 105t75 74t93 27q64 0 99 -45l44 45zM84 176q0 -39 11 -77
l203 209q-13 31 -34 49t-50 18q-43 0 -77 -37.5t-47 -101.5q-6 -30 -6 -60zM316 207q0 46 -11 80l-203 -210q14 -31 36 -48.5t51 -17.5q42 0 76 37t46 101q5 32 5 58z" />
    <glyph glyph-name="ugrave" unicode="&#xf9;" horiz-adv-x="465" 
d="M226 727q-1 4 9 4q13 0 30 -5t17 -10l-5 -240q0 -2 -4.5 -3t-4.5 2zM439 77q3 0 5 -3.5t0 -5.5q-35 -40 -63 -58.5t-54 -18.5q-17 0 -25 10.5t-8 33.5q0 26 5 52l21 121q-36 -104 -85 -162.5t-103 -58.5q-66 0 -66 74q0 27 7 58l36 178q3 17 3 27q0 31 -19 31
q-20 0 -66 -46q-2 -2 -4 -2q-3 0 -5 3.5t1 6.5q35 40 61.5 59t51.5 19q35 0 35 -46q0 -15 -7 -52l-32 -159q-7 -38 -7 -55q0 -57 43 -57q33 0 68.5 42t67 122t50.5 189q3 15 32 15q24 0 24 -6l-4 -23q-6 -24 -11 -53l-41 -223q-3 -15 -3 -27q0 -32 20 -32q11 0 29.5 12
t39.5 34q1 1 3 1z" />
    <glyph glyph-name="uacute" unicode="&#xfa;" horiz-adv-x="465" 
d="M250.5 472q-5.5 2 -3.5 4l93 240q2 5 22 10t33 5q10 0 9 -4l-147 -254q-1 -3 -6.5 -1zM439 77q3 0 5 -3.5t0 -5.5q-35 -40 -63 -58.5t-54 -18.5q-17 0 -25 10.5t-8 33.5q0 26 5 52l21 121q-36 -104 -85 -162.5t-103 -58.5q-66 0 -66 74q0 27 7 58l36 178q3 17 3 27
q0 31 -19 31q-20 0 -66 -46q-2 -2 -4 -2q-3 0 -5 3.5t1 6.5q35 40 61.5 59t51.5 19q35 0 35 -46q0 -15 -7 -52l-32 -159q-7 -38 -7 -55q0 -57 43 -57q33 0 68.5 42t67 122t50.5 189q3 15 32 15q24 0 24 -6l-4 -23q-6 -24 -11 -53l-41 -223q-3 -15 -3 -27q0 -32 20 -32
q11 0 29.5 12t39.5 34q1 1 3 1z" />
    <glyph glyph-name="ucircumflex" unicode="&#xfb;" horiz-adv-x="465" 
d="M196 473q-3 0 -6 1.5t-2 3.5l105 249q3 5 11 5t8 -5l18 -249q0 -3 -6 -3.5t-6 2.5l-32 154l-87 -157q-1 -1 -3 -1zM439 77q3 0 5 -3.5t0 -5.5q-35 -40 -63 -58.5t-54 -18.5q-17 0 -25 10.5t-8 33.5q0 26 5 52l21 121q-36 -104 -85 -162.5t-103 -58.5q-66 0 -66 74
q0 27 7 58l36 178q3 17 3 27q0 31 -19 31q-20 0 -66 -46q-2 -2 -4 -2q-3 0 -5 3.5t1 6.5q35 40 61.5 59t51.5 19q35 0 35 -46q0 -15 -7 -52l-32 -159q-7 -38 -7 -55q0 -57 43 -57q33 0 68.5 42t67 122t50.5 189q3 15 32 15q24 0 24 -6l-4 -23q-6 -24 -11 -53l-41 -223
q-3 -15 -3 -27q0 -32 20 -32q11 0 29.5 12t39.5 34q1 1 3 1z" />
    <glyph glyph-name="udieresis" unicode="&#xfc;" horiz-adv-x="465" 
d="M167 489q-11 11 -11 30t11 30t31 11t30.5 -10.5t10.5 -30.5q0 -19 -10.5 -30t-30.5 -11t-31 11zM317.5 489q-11.5 11 -11.5 30t11.5 30t31.5 11t30.5 -10.5t10.5 -30.5q0 -19 -10.5 -30t-30.5 -11t-31.5 11zM439 77q3 0 5 -3.5t0 -5.5q-35 -40 -63 -58.5t-54 -18.5
q-17 0 -25 10.5t-8 33.5q0 26 5 52l21 121q-36 -104 -85 -162.5t-103 -58.5q-66 0 -66 74q0 27 7 58l36 178q3 17 3 27q0 31 -19 31q-20 0 -66 -46q-2 -2 -4 -2q-3 0 -5 3.5t1 6.5q35 40 61.5 59t51.5 19q35 0 35 -46q0 -15 -7 -52l-32 -159q-7 -38 -7 -55q0 -57 43 -57
q33 0 68.5 42t67 122t50.5 189q3 15 32 15q24 0 24 -6l-4 -23q-6 -24 -11 -53l-41 -223q-3 -15 -3 -27q0 -32 20 -32q11 0 29.5 12t39.5 34q1 1 3 1z" />
    <glyph glyph-name="yacute" unicode="&#xfd;" horiz-adv-x="443" 
d="M232.5 472q-5.5 2 -3.5 4l93 240q2 5 22 10t33 5q10 0 9 -4l-147 -254q-1 -3 -6.5 -1zM406 341q0 -82 -77.5 -233.5t-178.5 -270t-168 -118.5q-20 0 -31.5 10t-8.5 32q6 27 40 27q43 0 69.5 3.5t49.5 20.5q31 21 81 91l1 51q0 188 -30.5 292.5t-83.5 104.5q-31 0 -50 -37
q-1 -3 -6 -3q-7 0 -6 6q38 78 93 78q42 0 72 -48t46 -131t16 -186q0 -35 -1 -53q43 67 76 132t42 102q5 19 5 42q0 34 -16 80q-8 19 -8 30q0 14 10 23.5t26 9.5q38 0 38 -55z" />
    <glyph glyph-name="thorn" unicode="&#xfe;" horiz-adv-x="409" 
d="M364.5 364q25.5 -29 25.5 -78q0 -17 -3 -35q-14 -75 -54.5 -132.5t-91.5 -88.5t-96 -31q-36 0 -57 3l-32 -180q-3 -17 -3 -28q0 -18 8.5 -26t27.5 -8q6 0 24 2h1q3 0 4 -5t-3 -6l-172 -26q-4 -1 -5 5t3 7q22 4 32.5 10.5t16.5 20.5t12 47l86 475q-23 -15 -46 -34l-2 -1
q-3 0 -5 4t0 5q32 29 57 46l56 309q2 8 2 21q0 26 -21 26q-16 0 -49 -15h-2q-4 0 -5 4.5t2 6.5l130 63h2q4 0 7 -3t2 -5l-66 -369q76 45 144 45q45 0 70.5 -29zM327 257q0 44 -19.5 72t-59.5 28q-45 0 -102 -30l-50 -283q34 -17 77 -17q64 0 99.5 49.5t51.5 143.5q3 20 3 37
z" />
    <glyph glyph-name="ydieresis" unicode="&#xff;" horiz-adv-x="443" 
d="M149 489q-11 11 -11 30t11 30t31 11t30.5 -10.5t10.5 -30.5q0 -19 -10.5 -30t-30.5 -11t-31 11zM299.5 489q-11.5 11 -11.5 30t11.5 30t31.5 11t30.5 -10.5t10.5 -30.5q0 -19 -10.5 -30t-30.5 -11t-31.5 11zM406 341q0 -82 -77.5 -233.5t-178.5 -270t-168 -118.5
q-20 0 -31.5 10t-8.5 32q6 27 40 27q43 0 69.5 3.5t49.5 20.5q31 21 81 91l1 51q0 188 -30.5 292.5t-83.5 104.5q-31 0 -50 -37q-1 -3 -6 -3q-7 0 -6 6q38 78 93 78q42 0 72 -48t46 -131t16 -186q0 -35 -1 -53q43 67 76 132t42 102q5 19 5 42q0 34 -16 80q-8 19 -8 30
q0 14 10 23.5t26 9.5q38 0 38 -55z" />
    <glyph glyph-name="Amacron" unicode="&#x100;" horiz-adv-x="600" 
d="M256 727q0 5 1.5 9t4.5 4h251q3 0 4.5 -4t1.5 -9q0 -14 -6 -14h-251q-6 0 -6 14zM567 6q0 -6 -4 -6q-15 0 -45 2q-36 2 -56 2q-21 0 -53 -2q-30 -2 -44 -2q-3 0 -3 6t3 6q37 0 51.5 9.5t14.5 34.5q0 17 -2 28l-31 191h-191l-78 -143q-31 -58 -31 -84q0 -21 16 -28.5
t49 -7.5q4 0 3.5 -6t-4.5 -6q-11 0 -45 2q-38 2 -59 2t-49 -2t-43 -2q-4 0 -4 6t4 6q29 0 62 25.5t68 85.5l286 512q2 3 7 3q9 0 11 -5l88 -549q5 -31 11 -45t20.5 -20.5t43.5 -6.5q4 0 4 -6zM218 295h177l-40 249z" />
    <glyph glyph-name="amacron" unicode="&#x101;" horiz-adv-x="434" 
d="M423 493q0 -14 -6 -14h-238q-6 0 -6 14t6 14h238q6 0 6 -14zM412 78q3 0 5 -3.5t0 -5.5q-34 -39 -60.5 -58.5t-51.5 -19.5q-17 0 -25.5 10.5t-8.5 34.5q0 20 6 53l18 104q-46 -93 -103.5 -149.5t-110.5 -56.5q-62 0 -62 74q0 8 2 30q10 71 53 143t101 118.5t109 46.5
q19 0 37 -7t29 -21q18 15 24 36q1 3 7 2t5 -3l-58 -317q-3 -15 -3 -27q0 -31 18 -31q22 0 66 46q1 1 3 1zM193.5 73q40.5 37 72.5 93.5t43 110.5q3 13 2 23q0 30 -15.5 47t-46.5 17q-35 -1 -71.5 -31.5t-63.5 -82t-36 -114.5q-3 -22 -3 -40q0 -60 42 -60q36 0 76.5 37z" />
    <glyph glyph-name="Abreve" unicode="&#x102;" horiz-adv-x="600" 
d="M336 691q-23 25 -23 61q0 6 14.5 11t27.5 5q9 0 9 -3q2 -29 18.5 -46.5t45.5 -17.5q22 0 39 14t32 46q3 3 6 3q4 0 8 -2t3 -4q-42 -92 -114 -92q-43 0 -66 25zM567 6q0 -6 -4 -6q-15 0 -45 2q-36 2 -56 2q-21 0 -53 -2q-30 -2 -44 -2q-3 0 -3 6t3 6q37 0 51.5 9.5
t14.5 34.5q0 17 -2 28l-31 191h-191l-78 -143q-31 -58 -31 -84q0 -21 16 -28.5t49 -7.5q4 0 3.5 -6t-4.5 -6q-11 0 -45 2q-38 2 -59 2t-49 -2t-43 -2q-4 0 -4 6t4 6q29 0 62 25.5t68 85.5l286 512q2 3 7 3q9 0 11 -5l88 -549q5 -31 11 -45t20.5 -20.5t43.5 -6.5q4 0 4 -6z
M218 295h177l-40 249z" />
    <glyph glyph-name="abreve" unicode="&#x103;" horiz-adv-x="434" 
d="M220 500q-23 25 -23 61q0 6 14.5 11t27.5 5q9 0 9 -3q2 -29 18.5 -46.5t45.5 -17.5q22 0 39 14t32 46q3 3 6 3q4 0 8 -2t3 -4q-42 -92 -114 -92q-43 0 -66 25zM412 78q3 0 5 -3.5t0 -5.5q-34 -39 -60.5 -58.5t-51.5 -19.5q-17 0 -25.5 10.5t-8.5 34.5q0 20 6 53l18 104
q-46 -93 -103.5 -149.5t-110.5 -56.5q-62 0 -62 74q0 8 2 30q10 71 53 143t101 118.5t109 46.5q19 0 37 -7t29 -21q18 15 24 36q1 3 7 2t5 -3l-58 -317q-3 -15 -3 -27q0 -31 18 -31q22 0 66 46q1 1 3 1zM193.5 73q40.5 37 72.5 93.5t43 110.5q3 13 2 23q0 30 -15.5 47
t-46.5 17q-35 -1 -71.5 -31.5t-63.5 -82t-36 -114.5q-3 -22 -3 -40q0 -60 42 -60q36 0 76.5 37z" />
    <glyph glyph-name="Aogonek" unicode="&#x104;" horiz-adv-x="600" 
d="M567 6q0 -6 -4 -6l-68 1q-46 0 -82.5 -21t-57.5 -57t-21 -80q0 -39 22 -63t64 -24q18 0 28.5 4t21.5 11h1q2 0 4 -3t0 -5q-24 -20 -45.5 -29t-47.5 -9q-45 0 -70.5 21.5t-25.5 61.5q0 16 2 25q6 40 25 68.5t55 67.5q30 32 44 53.5t14 47.5q0 9 -1 14l-29 191h-185
l-77 -143q-33 -61 -33 -87q0 -19 15 -26t47 -7q4 0 3.5 -6t-4.5 -6q-11 0 -45 2q-38 2 -59 2t-49 -2t-43 -2q-4 0 -4 6t4 6q31 0 66 25t68 86l282 512q2 3 7 3q9 0 11 -5l87 -539q5 -35 13 -52t22 -23.5t41 -6.5q4 0 4 -6zM222 295h171l-38 248z" />
    <glyph glyph-name="aogonek" unicode="&#x105;" horiz-adv-x="435" 
d="M412 78q3 0 5 -3.5t0 -5.5l-47 -47q-59 -59 -87 -94t-37 -77q-3 -14 -3 -26q0 -30 16 -49t46 -19q18 0 29.5 6.5t29.5 20.5h1q3 0 5.5 -3.5t0.5 -5.5q-27 -27 -51 -38.5t-50 -11.5q-36 0 -57 22t-21 55q0 42 33.5 89.5t92.5 101.5q-8 -2 -13 -2q-17 0 -25.5 10.5
t-8.5 34.5q0 20 6 53l16 100q-46 -91 -103 -146.5t-109 -55.5q-62 0 -62 74q0 8 2 30q10 71 53 143t101 118.5t109 46.5q20 0 37.5 -7t28.5 -20q20 14 24 35q1 3 7 2t5 -3l-58 -317q-3 -15 -3 -27q0 -31 19 -31q21 0 65 46q1 1 3 1zM311 300q0 30 -15.5 47t-46.5 17
q-35 -1 -71.5 -31.5t-63.5 -82t-36 -114.5q-3 -22 -3 -40q0 -60 42 -60q36 0 76.5 37t72.5 93.5t43 110.5q3 13 2 23z" />
    <glyph glyph-name="Cacute" unicode="&#x106;" horiz-adv-x="586" 
d="M367 678q-4 0 -5 4.5t2 6.5q37 19 113 65l49 30q4 2 23.5 -4.5t34 -14.5t7.5 -9q-62 -15 -113.5 -33.5t-108.5 -43.5zM121.5 60.5q-62.5 73.5 -62.5 184.5q0 31 7 73q17 93 73 165.5t134.5 112.5t160.5 40q42 0 82 -9.5t63 -25.5q6 -5 7.5 -9t0.5 -15l-10 -111
q-1 -4 -6 -4t-5 4q-7 76 -51.5 112t-118.5 36q-64 0 -118 -33t-90.5 -93.5t-49.5 -141.5q-7 -41 -7 -84q0 -74 23.5 -133.5t67.5 -93.5t101 -34q58 0 112 37.5t97 112.5q2 2 3 2q3 0 5.5 -2t1.5 -4l-30 -107q-3 -13 -6 -17t-12 -7q-87 -29 -177 -29q-133 0 -195.5 73.5z" />
    <glyph glyph-name="cacute" unicode="&#x107;" horiz-adv-x="345" 
d="M226.5 472q-5.5 2 -3.5 4l93 240q2 5 22 10t33 5q10 0 9 -4l-147 -254q-1 -3 -6.5 -1zM60.5 31.5q-31.5 44.5 -31.5 110.5q0 32 6 60q12 60 46 105t79 68.5t89 23.5q37 0 63 -17t23 -42q-1 -14 -9.5 -23t-23.5 -9q-26 0 -36 32q-4 14 -16.5 25.5t-35.5 11.5
q-47 0 -76.5 -40t-41.5 -104q-7 -40 -7 -66q0 -64 28 -104.5t82 -40.5q51 0 106 45l2 1q3 0 5.5 -4t0.5 -6q-80 -71 -156 -71q-65 0 -96.5 44.5z" />
    <glyph glyph-name="Ccircumflex" unicode="&#x108;" horiz-adv-x="586" 
d="M333 660q-3 0 -5 2.5t0 4.5l107 97q5 5 9 5q6 0 9 -5l75 -97v-1q0 -3 -2.5 -5.5t-4.5 -0.5l-86 57l-101 -57h-1zM121.5 60.5q-62.5 73.5 -62.5 184.5q0 31 7 73q17 93 73 165.5t134.5 112.5t160.5 40q42 0 82 -9.5t63 -25.5q6 -5 7.5 -9t0.5 -15l-10 -111q-1 -4 -6 -4
t-5 4q-7 76 -51.5 112t-118.5 36q-64 0 -118 -33t-90.5 -93.5t-49.5 -141.5q-7 -41 -7 -84q0 -74 23.5 -133.5t67.5 -93.5t101 -34q58 0 112 37.5t97 112.5q2 2 3 2q3 0 5.5 -2t1.5 -4l-30 -107q-3 -13 -6 -17t-12 -7q-87 -29 -177 -29q-133 0 -195.5 73.5z" />
    <glyph glyph-name="ccircumflex" unicode="&#x109;" horiz-adv-x="345" 
d="M305 478q0 -3 -6 -3.5t-6 2.5l-32 154l-87 -157q-1 -1 -3 -1q-3 0 -6 1.5t-2 3.5l105 249q3 5 11 5t8 -5zM60.5 31.5q-31.5 44.5 -31.5 110.5q0 32 6 60q12 60 46 105t79 68.5t89 23.5q37 0 63 -17t23 -42q-1 -14 -9.5 -23t-23.5 -9q-26 0 -36 32q-4 14 -16.5 25.5
t-35.5 11.5q-47 0 -76.5 -40t-41.5 -104q-7 -40 -7 -66q0 -64 28 -104.5t82 -40.5q51 0 106 45l2 1q3 0 5.5 -4t0.5 -6q-80 -71 -156 -71q-65 0 -96.5 44.5z" />
    <glyph glyph-name="Cdotaccent" unicode="&#x10a;" horiz-adv-x="586" 
d="M403.5 720.5q-11.5 11.5 -11.5 30.5t11.5 30t31.5 11t31.5 -11t11.5 -30q0 -20 -11.5 -31t-31.5 -11t-31.5 11.5zM121.5 60.5q-62.5 73.5 -62.5 184.5q0 31 7 73q17 93 73 165.5t134.5 112.5t160.5 40q42 0 82 -9.5t63 -25.5q6 -5 7.5 -9t0.5 -15l-10 -111q-1 -4 -6 -4
t-5 4q-7 76 -51.5 112t-118.5 36q-64 0 -118 -33t-90.5 -93.5t-49.5 -141.5q-7 -41 -7 -84q0 -74 23.5 -133.5t67.5 -93.5t101 -34q58 0 112 37.5t97 112.5q2 2 3 2q3 0 5.5 -2t1.5 -4l-30 -107q-3 -13 -6 -17t-12 -7q-87 -29 -177 -29q-133 0 -195.5 73.5z" />
    <glyph glyph-name="cdotaccent" unicode="&#x10b;" horiz-adv-x="345" 
d="M226.5 524.5q-11.5 11.5 -11.5 31.5q0 19 11.5 30t31.5 11t31 -11t11 -30q0 -20 -11 -31.5t-31 -11.5t-31.5 11.5zM60.5 31.5q-31.5 44.5 -31.5 110.5q0 32 6 60q12 60 46 105t79 68.5t89 23.5q37 0 63 -17t23 -42q-1 -14 -9.5 -23t-23.5 -9q-26 0 -36 32
q-4 14 -16.5 25.5t-35.5 11.5q-47 0 -76.5 -40t-41.5 -104q-7 -40 -7 -66q0 -64 28 -104.5t82 -40.5q51 0 106 45l2 1q3 0 5.5 -4t0.5 -6q-80 -71 -156 -71q-65 0 -96.5 44.5z" />
    <glyph glyph-name="Ccaron" unicode="&#x10c;" horiz-adv-x="586" 
d="M343 773v1q0 2 3 4.5t4 1.5l84 -58l102 59q2 1 5.5 -3t0.5 -5l-107 -98q-4 -4 -10 -4q-5 0 -9 4zM121.5 60.5q-62.5 73.5 -62.5 184.5q0 31 7 73q17 93 73 165.5t134.5 112.5t160.5 40q42 0 82 -9.5t63 -25.5q6 -5 7.5 -9t0.5 -15l-10 -111q-1 -4 -6 -4t-5 4
q-7 76 -51.5 112t-118.5 36q-64 0 -118 -33t-90.5 -93.5t-49.5 -141.5q-7 -41 -7 -84q0 -74 23.5 -133.5t67.5 -93.5t101 -34q58 0 112 37.5t97 112.5q2 2 3 2q3 0 5.5 -2t1.5 -4l-30 -107q-3 -13 -6 -17t-12 -7q-87 -29 -177 -29q-133 0 -195.5 73.5z" />
    <glyph glyph-name="ccaron" unicode="&#x10d;" horiz-adv-x="345" 
d="M215 726q0 3 6 3.5t6 -2.5l32 -154l87 157q1 1 3 1q3 0 6 -1.5t2 -3.5l-105 -249q-2 -5 -11 -5q-3 0 -5.5 1.5t-2.5 3.5zM60.5 31.5q-31.5 44.5 -31.5 110.5q0 32 6 60q12 60 46 105t79 68.5t89 23.5q37 0 63 -17t23 -42q-1 -14 -9.5 -23t-23.5 -9q-26 0 -36 32
q-4 14 -16.5 25.5t-35.5 11.5q-47 0 -76.5 -40t-41.5 -104q-7 -40 -7 -66q0 -64 28 -104.5t82 -40.5q51 0 106 45l2 1q3 0 5.5 -4t0.5 -6q-80 -71 -156 -71q-65 0 -96.5 44.5z" />
    <glyph glyph-name="Dcaron" unicode="&#x10e;" horiz-adv-x="612" 
d="M252 773v1q0 2 3 4.5t4 1.5l84 -58l102 59q2 1 5.5 -3t0.5 -5l-107 -98q-4 -4 -10 -4q-5 0 -9 4zM180 -1q-11 1 -28 2t-39 1l-61 -1q-15 -1 -41 -1q-3 0 -3 6t3 6q32 0 48.5 5t24.5 19.5t13 44.5l82 463q4 26 4 32q0 22 -14 29.5t-51 7.5q-2 0 -2 6t2 6l43 -1
q38 -2 61 -2q30 0 61 3q38 2 52 2q80 0 139.5 -31.5t91 -87t31.5 -127.5q0 -25 -5 -58q-17 -97 -71 -171.5t-129.5 -115t-155.5 -40.5q-24 0 -56 3zM359.5 44q59.5 34 101.5 99.5t58 157.5q7 39 7 81q0 102 -48.5 166.5t-139.5 64.5q-51 0 -72.5 -14t-29.5 -57l-79 -450
q-4 -22 -4 -31q0 -27 17.5 -39t59.5 -12q70 0 129.5 34z" />
    <glyph glyph-name="dcaron" unicode="&#x10f;" horiz-adv-x="444" 
d="M527.5 723.5q11.5 -6.5 22 -16t9.5 -13.5l-74 -241q-1 -2 -6 -2t-5 2l41 272q1 5 12.5 -1.5zM446 725q3 0 6 -3t2 -5l-116 -628q-3 -15 -3 -26q0 -32 20 -32t66 46q2 2 3 2q3 0 5.5 -3.5t-0.5 -6.5q-36 -40 -62 -59t-51 -19q-35 0 -35 44q0 16 7 54l19 99
q-46 -94 -97.5 -147.5t-104.5 -53.5q-36 0 -59 23.5t-23 74.5q0 11 4 41q13 72 54.5 135t99 100.5t114.5 37.5q28 0 48 -13l44 233q2 16 2 21q0 26 -22 26q-16 0 -49 -15h-2q-3 0 -4.5 5t2.5 6l130 63h2zM225.5 85q43.5 49 71.5 114t28 101q0 31 -18 47.5t-49 16.5
q-65 -2 -112.5 -53t-63.5 -145q-4 -23 -4 -45q0 -42 15.5 -63.5t43.5 -21.5q45 0 88.5 49z" />
    <glyph glyph-name="Dcroat" unicode="&#x110;" horiz-adv-x="612" 
d="M474.5 595.5q59.5 -31.5 91 -87t31.5 -127.5q0 -25 -5 -58q-17 -97 -71 -171.5t-129.5 -115t-155.5 -40.5q-24 0 -56 3q-11 1 -28 2t-39 1l-61 -1q-15 -1 -41 -1q-3 0 -3 6t3 6q32 0 48.5 5t24.5 19.5t13 44.5l39 220h-80q-4 0 -4 10t4 10h84l39 223q4 26 4 32
q0 22 -14 29.5t-51 7.5q-2 0 -2 6t2 6l43 -1q38 -2 61 -2q30 0 61 3q38 2 52 2q80 0 139.5 -31.5zM526 382q0 102 -48.5 166.5t-139.5 64.5q-51 0 -72.5 -14t-29.5 -57l-39 -221h121q4 0 4 -10t-4 -10h-124l-37 -209q-4 -22 -4 -31q0 -27 17.5 -39t59.5 -12q70 0 129.5 34
t101.5 99.5t58 157.5q7 39 7 81z" />
    <glyph glyph-name="dcroat" unicode="&#x111;" horiz-adv-x="436" 
d="M484 510q0 -10 -4 -10h-66l-76 -411q-3 -15 -3 -26q0 -32 20 -32t66 46q2 2 3 2q3 0 5.5 -3.5t-0.5 -6.5q-36 -40 -62 -59t-51 -19q-35 0 -35 44q0 16 7 54l19 99q-46 -94 -97.5 -147.5t-104.5 -53.5q-36 0 -59 23.5t-23 74.5q0 11 4 41q13 72 54.5 135t99 100.5
t114.5 37.5q28 0 48 -13l22 114h-172q-4 0 -4 10t4 10h176l18 99q2 16 2 21q0 26 -22 26q-16 0 -49 -15h-2q-3 0 -4.5 5t2.5 6l130 63h2q3 0 6 -3t2 -5l-36 -197h62q4 0 4 -10zM225.5 85q43.5 49 71.5 114t28 101q0 31 -18 47.5t-49 16.5q-65 -2 -112.5 -53t-63.5 -145
q-4 -23 -4 -45q0 -42 15.5 -63.5t43.5 -21.5q45 0 88.5 49z" />
    <glyph glyph-name="Emacron" unicode="&#x112;" horiz-adv-x="514" 
d="M234 732q0 14 6 14h238q6 0 6 -14t-6 -14h-238q-6 0 -6 14zM512 616l-9 -57q-4 -36 -10 -67q-1 -4 -7 -3t-5 4q1 8 1 23q0 43 -20 68.5t-57 25.5h-82q-32 0 -47.5 -5t-22.5 -18.5t-12 -43.5l-37 -207h141q39 0 57.5 15.5t25.5 54.5q0 3 6 3q2 0 4.5 -1.5t1.5 -3.5
q-4 -28 -9 -48l-6 -31l-6 -39q0 -3 -8 -54q-1 -4 -7 -3.5t-5 4.5q3 17 3 30q0 28 -15 40t-49 12h-137l-41 -230q-3 -18 -3 -30q0 -21 13 -28.5t49 -7.5h109q38 0 74 36t56 94q1 3 6.5 2t4.5 -4q-15 -47 -31 -132q-2 -8 -5.5 -11.5t-10.5 -3.5h-406q-2 0 -2 6t2 6
q33 0 48.5 5t23 19t13.5 45l82 463q3 20 3 32q0 22 -13 29.5t-50 7.5q-3 0 -3 6t3 6h383q8 0 6 -9z" />
    <glyph glyph-name="emacron" unicode="&#x113;" horiz-adv-x="343" 
d="M377 493q0 -14 -6 -14h-238q-6 0 -6 14t6 14h238q6 0 6 -14zM311 387q18 -12 18 -33q0 -31 -32.5 -59.5t-87 -49.5t-117.5 -31q-5 -32 -5 -55q0 -62 28 -99.5t79 -37.5q56 0 100 33h2q3 0 5.5 -3t-0.5 -6q-70 -58 -146 -58q-63 0 -95.5 40.5t-32.5 104.5q0 22 5 52
q9 51 42 100.5t82.5 81.5t103.5 32q33 0 51 -12zM263 338q0 17 -14 25.5t-33 8.5q-46 0 -77.5 -40.5t-43.5 -103.5q70 12 113.5 36t52.5 60q2 10 2 14z" />
    <glyph glyph-name="Ebreve" unicode="&#x114;" horiz-adv-x="514" 
d="M283 691q-23 25 -23 61q0 6 14.5 11t27.5 5q9 0 9 -3q2 -29 18.5 -46.5t45.5 -17.5q22 0 39 14t32 46q3 3 6 3q4 0 8 -2t3 -4q-42 -92 -114 -92q-43 0 -66 25zM512 616l-9 -57q-4 -36 -10 -67q-1 -4 -7 -3t-5 4q1 8 1 23q0 43 -20 68.5t-57 25.5h-82q-32 0 -47.5 -5
t-22.5 -18.5t-12 -43.5l-37 -207h141q39 0 57.5 15.5t25.5 54.5q0 3 6 3q2 0 4.5 -1.5t1.5 -3.5q-4 -28 -9 -48l-6 -31l-6 -39q0 -3 -8 -54q-1 -4 -7 -3.5t-5 4.5q3 17 3 30q0 28 -15 40t-49 12h-137l-41 -230q-3 -18 -3 -30q0 -21 13 -28.5t49 -7.5h109q38 0 74 36t56 94
q1 3 6.5 2t4.5 -4q-15 -47 -31 -132q-2 -8 -5.5 -11.5t-10.5 -3.5h-406q-2 0 -2 6t2 6q33 0 48.5 5t23 19t13.5 45l82 463q3 20 3 32q0 22 -13 29.5t-50 7.5q-3 0 -3 6t3 6h383q8 0 6 -9z" />
    <glyph glyph-name="ebreve" unicode="&#x115;" horiz-adv-x="343" 
d="M343 573q4 0 8 -2t3 -4q-42 -92 -114 -92q-43 0 -66 25t-23 61q0 6 14.5 11t27.5 5q9 0 9 -3q2 -29 18.5 -46.5t45.5 -17.5q22 0 39 14t32 46q3 3 6 3zM311 387q18 -12 18 -33q0 -31 -32.5 -59.5t-87 -49.5t-117.5 -31q-5 -32 -5 -55q0 -62 28 -99.5t79 -37.5
q56 0 100 33h2q3 0 5.5 -3t-0.5 -6q-70 -58 -146 -58q-63 0 -95.5 40.5t-32.5 104.5q0 22 5 52q9 51 42 100.5t82.5 81.5t103.5 32q33 0 51 -12zM263 338q0 17 -14 25.5t-33 8.5q-46 0 -77.5 -40.5t-43.5 -103.5q70 12 113.5 36t52.5 60q2 10 2 14z" />
    <glyph glyph-name="Edotaccent" unicode="&#x116;" horiz-adv-x="514" 
d="M320.5 720.5q-11.5 11.5 -11.5 30.5t11.5 30t31.5 11t31.5 -11t11.5 -30q0 -20 -11.5 -31t-31.5 -11t-31.5 11.5zM512 616l-9 -57q-4 -36 -10 -67q-1 -4 -7 -3t-5 4q1 8 1 23q0 43 -20 68.5t-57 25.5h-82q-32 0 -47.5 -5t-22.5 -18.5t-12 -43.5l-37 -207h141
q39 0 57.5 15.5t25.5 54.5q0 3 6 3q2 0 4.5 -1.5t1.5 -3.5q-4 -28 -9 -48l-6 -31l-6 -39q0 -3 -8 -54q-1 -4 -7 -3.5t-5 4.5q3 17 3 30q0 28 -15 40t-49 12h-137l-41 -230q-3 -18 -3 -30q0 -21 13 -28.5t49 -7.5h109q38 0 74 36t56 94q1 3 6.5 2t4.5 -4q-15 -47 -31 -132
q-2 -8 -5.5 -11.5t-10.5 -3.5h-406q-2 0 -2 6t2 6q33 0 48.5 5t23 19t13.5 45l82 463q3 20 3 32q0 22 -13 29.5t-50 7.5q-3 0 -3 6t3 6h383q8 0 6 -9z" />
    <glyph glyph-name="edotaccent" unicode="&#x117;" horiz-adv-x="343" 
d="M228.5 524.5q-11.5 11.5 -11.5 31.5q0 19 11.5 30t31.5 11t31 -11t11 -30q0 -20 -11 -31.5t-31 -11.5t-31.5 11.5zM296.5 294.5q-32.5 -28.5 -87 -49.5t-117.5 -31q-5 -32 -5 -55q0 -62 28 -99.5t79 -37.5q56 0 100 33h2q3 0 5.5 -3t-0.5 -6q-70 -58 -146 -58
q-63 0 -95.5 40.5t-32.5 104.5q0 22 5 52q9 51 42 100.5t82.5 81.5t103.5 32q33 0 51 -12t18 -33q0 -31 -32.5 -59.5zM138.5 331.5q-31.5 -40.5 -43.5 -103.5q70 12 113.5 36t52.5 60q2 10 2 14q0 17 -14 25.5t-33 8.5q-46 0 -77.5 -40.5z" />
    <glyph glyph-name="Eogonek" unicode="&#x118;" horiz-adv-x="514" 
d="M512 616l-9 -57q-4 -36 -10 -67q-1 -4 -7 -3t-5 4q1 8 1 23q0 43 -20 68.5t-57 25.5h-82q-32 0 -47.5 -5t-22.5 -18.5t-12 -43.5l-37 -207h141q39 0 57.5 15.5t25.5 54.5q0 3 6 3q2 0 4.5 -1.5t1.5 -3.5q-4 -28 -9 -48l-6 -31l-6 -39q0 -3 -8 -54q-1 -4 -7 -3.5t-5 4.5
q3 17 3 30q0 28 -15 40t-49 12h-137l-41 -230q-3 -18 -3 -30q0 -21 13 -28.5t49 -7.5h109q38 0 74 36t56 94q1 3 6.5 2t4.5 -4q-15 -47 -31 -132q-2 -8 -5.5 -11.5t-10.5 -3.5h-41q-42 -40 -67.5 -76t-31.5 -72q-3 -15 -3 -28q0 -32 16 -50.5t46 -18.5q18 0 30.5 6.5
t28.5 19.5h1q3 0 5.5 -3.5t0.5 -5.5q-50 -47 -101 -47q-36 0 -56.5 20.5t-20.5 55.5q0 6 2 22q7 40 41.5 83.5t90.5 93.5h-347q-2 0 -2 6t2 6q33 0 48.5 5t23 19t13.5 45l82 463q3 20 3 32q0 22 -13 29.5t-50 7.5q-3 0 -3 6t3 6h383q8 0 6 -9z" />
    <glyph glyph-name="eogonek" unicode="&#x119;" horiz-adv-x="348" 
d="M296.5 294.5q-32.5 -28.5 -87 -49.5t-117.5 -31q-5 -32 -5 -55q0 -62 28 -99.5t79 -37.5q46 0 81 21l17 12l1 -1l1 1h2q3 0 5.5 -3t-0.5 -6l-24 -18q-73 -61 -104.5 -100.5t-39.5 -79.5q-2 -9 -2 -25q0 -30 15 -47.5t45 -17.5q19 0 32.5 7t27.5 19h1q3 0 6 -3.5t0 -5.5
q-50 -50 -101 -50q-35 0 -56 20t-21 54q0 6 2 22q7 39 38 80.5t98 96.5q-30 -10 -63 -10q-63 0 -95.5 40.5t-32.5 104.5q0 22 5 52q9 51 42 100.5t82.5 81.5t103.5 32q33 0 51 -12t18 -33q0 -31 -32.5 -59.5zM138.5 331.5q-31.5 -40.5 -43.5 -103.5q70 12 113.5 36t52.5 60
q2 10 2 14q0 17 -14 25.5t-33 8.5q-46 0 -77.5 -40.5z" />
    <glyph glyph-name="Ecaron" unicode="&#x11a;" horiz-adv-x="514" 
d="M259 773v1q0 2 3 4.5t4 1.5l84 -58l102 59q2 1 5.5 -3t0.5 -5l-107 -98q-4 -4 -10 -4q-5 0 -9 4zM512 616l-9 -57q-4 -36 -10 -67q-1 -4 -7 -3t-5 4q1 8 1 23q0 43 -20 68.5t-57 25.5h-82q-32 0 -47.5 -5t-22.5 -18.5t-12 -43.5l-37 -207h141q39 0 57.5 15.5t25.5 54.5
q0 3 6 3q2 0 4.5 -1.5t1.5 -3.5q-4 -28 -9 -48l-6 -31l-6 -39q0 -3 -8 -54q-1 -4 -7 -3.5t-5 4.5q3 17 3 30q0 28 -15 40t-49 12h-137l-41 -230q-3 -18 -3 -30q0 -21 13 -28.5t49 -7.5h109q38 0 74 36t56 94q1 3 6.5 2t4.5 -4q-15 -47 -31 -132q-2 -8 -5.5 -11.5t-10.5 -3.5
h-406q-2 0 -2 6t2 6q33 0 48.5 5t23 19t13.5 45l82 463q3 20 3 32q0 22 -13 29.5t-50 7.5q-3 0 -3 6t3 6h383q8 0 6 -9z" />
    <glyph glyph-name="ecaron" unicode="&#x11b;" horiz-adv-x="343" 
d="M351 731q3 0 6 -1.5t2 -3.5l-105 -249q-2 -5 -11 -5q-3 0 -5.5 1.5t-2.5 3.5l-18 249q0 3 6 3.5t6 -2.5l32 -154l87 157q1 1 3 1zM311 387q18 -12 18 -33q0 -31 -32.5 -59.5t-87 -49.5t-117.5 -31q-5 -32 -5 -55q0 -62 28 -99.5t79 -37.5q56 0 100 33h2q3 0 5.5 -3
t-0.5 -6q-70 -58 -146 -58q-63 0 -95.5 40.5t-32.5 104.5q0 22 5 52q9 51 42 100.5t82.5 81.5t103.5 32q33 0 51 -12zM263 338q0 17 -14 25.5t-33 8.5q-46 0 -77.5 -40.5t-43.5 -103.5q70 12 113.5 36t52.5 60q2 10 2 14z" />
    <glyph glyph-name="Gcircumflex" unicode="&#x11c;" horiz-adv-x="631" 
d="M355 660q-3 0 -5 2.5t0 4.5l107 97q5 5 9 5q6 0 9 -5l75 -97v-1q0 -3 -2.5 -5.5t-4.5 -0.5l-86 57l-101 -57h-1zM184.5 20q-60.5 32 -91.5 89.5t-31 131.5q0 33 6 69q17 94 74.5 168.5t142 116t179.5 41.5q42 0 78.5 -9.5t58.5 -26.5q6 -6 6 -12l-1 -11l-9 -111
q-1 -4 -6.5 -4t-5.5 4q-6 72 -47.5 110t-113.5 38q-111 0 -186 -72t-97 -196q-8 -48 -8 -84q0 -77 27.5 -135t78 -89.5t117.5 -31.5q43 0 67.5 9.5t39.5 35t23 75.5q7 46 7 61q0 20 -7.5 29.5t-25.5 13t-54 3.5q-2 0 -3.5 2.5t-1.5 5.5t1.5 5.5t3.5 2.5q67 -5 108 -5t86 3
q3 0 3.5 -7t-3.5 -7q-21 1 -30.5 -6.5t-15.5 -30.5t-16 -80q-7 -44 -7.5 -62t-1.5 -26q-1 -6 -3 -7.5t-9 -4.5q-107 -28 -187 -28q-85 0 -145.5 32z" />
    <glyph glyph-name="gcircumflex" unicode="&#x11d;" horiz-adv-x="379" 
d="M169 467q-3 0 -6 2t-2 3l106 249q1 5 10 5q8 0 8 -5l18 -249q0 -2 -5.5 -2.5t-6.5 1.5l-32 154l-87 -156q-2 -2 -3 -2zM389 382q0 -12 -4.5 -25.5t-8.5 -11.5q-23 12 -56 12q-13 0 -20 -1q21 -29 21 -72q0 -21 -4 -38q-9 -44 -35 -77.5t-60.5 -52t-70.5 -18.5
q-10 0 -24 2q-13 -15 -15 -32q-3 -26 19.5 -44.5t70.5 -42.5q38 -20 60.5 -34t39 -35t16.5 -48q0 -38 -29 -71.5t-77.5 -53.5t-104.5 -20q-69 0 -110 29.5t-41 71.5q0 44 37 78t107 74q-36 26 -36 56q0 20 12 37.5t36 38.5q-30 11 -46.5 39t-16.5 64q0 17 5 39
q12 63 60 104.5t107 41.5q41 0 67 -23q53 25 96 25q5 0 5 -12zM266 256q0 48 -18 83t-52 35q-30 0 -55.5 -29.5t-32.5 -73.5q-3 -19 -3 -38q0 -48 19 -82t52 -34q30 0 54.5 27.5t32.5 74.5q3 18 3 37zM240 -113.5q-28 23.5 -82 52.5q-28 13 -48 26q-48 -30 -72.5 -54.5
t-24.5 -63.5q0 -43 39 -71.5t103 -28.5q54 0 83.5 23t29.5 58t-28 58.5z" />
    <glyph glyph-name="Gbreve" unicode="&#x11e;" horiz-adv-x="631" 
d="M382 691q-23 25 -23 61q0 6 14.5 11t27.5 5q9 0 9 -3q2 -29 18.5 -46.5t45.5 -17.5q22 0 39 14t32 46q3 3 6 3q4 0 8 -2t3 -4q-42 -92 -114 -92q-43 0 -66 25zM184.5 20q-60.5 32 -91.5 89.5t-31 131.5q0 33 6 69q17 94 74.5 168.5t142 116t179.5 41.5q42 0 78.5 -9.5
t58.5 -26.5q6 -6 6 -12l-1 -11l-9 -111q-1 -4 -6.5 -4t-5.5 4q-6 72 -47.5 110t-113.5 38q-111 0 -186 -72t-97 -196q-8 -48 -8 -84q0 -77 27.5 -135t78 -89.5t117.5 -31.5q43 0 67.5 9.5t39.5 35t23 75.5q7 46 7 61q0 20 -7.5 29.5t-25.5 13t-54 3.5q-2 0 -3.5 2.5
t-1.5 5.5t1.5 5.5t3.5 2.5q67 -5 108 -5t86 3q3 0 3.5 -7t-3.5 -7q-21 1 -30.5 -6.5t-15.5 -30.5t-16 -80q-7 -44 -7.5 -62t-1.5 -26q-1 -6 -3 -7.5t-9 -4.5q-107 -28 -187 -28q-85 0 -145.5 32z" />
    <glyph glyph-name="gbreve" unicode="&#x11f;" horiz-adv-x="379" 
d="M159 495q-23 25 -23 61q0 6 14.5 11t27.5 5q9 0 9 -3q2 -29 18.5 -46.5t45.5 -17.5q22 0 39 14t32 46q3 3 6 3q4 0 8 -2t3 -4q-42 -92 -114 -92q-43 0 -66 25zM389 382q0 -12 -4.5 -25.5t-8.5 -11.5q-23 12 -56 12q-13 0 -20 -1q21 -29 21 -72q0 -21 -4 -38
q-9 -44 -35 -77.5t-60.5 -52t-70.5 -18.5q-10 0 -24 2q-13 -15 -15 -32q-3 -26 19.5 -44.5t70.5 -42.5q38 -20 60.5 -34t39 -35t16.5 -48q0 -38 -29 -71.5t-77.5 -53.5t-104.5 -20q-69 0 -110 29.5t-41 71.5q0 44 37 78t107 74q-36 26 -36 56q0 20 12 37.5t36 38.5
q-30 11 -46.5 39t-16.5 64q0 17 5 39q12 63 60 104.5t107 41.5q41 0 67 -23q53 25 96 25q5 0 5 -12zM266 256q0 48 -18 83t-52 35q-30 0 -55.5 -29.5t-32.5 -73.5q-3 -19 -3 -38q0 -48 19 -82t52 -34q30 0 54.5 27.5t32.5 74.5q3 18 3 37zM240 -113.5q-28 23.5 -82 52.5
q-28 13 -48 26q-48 -30 -72.5 -54.5t-24.5 -63.5q0 -43 39 -71.5t103 -28.5q54 0 83.5 23t29.5 58t-28 58.5z" />
    <glyph glyph-name="Gdotaccent" unicode="&#x120;" horiz-adv-x="631" 
d="M425.5 720.5q-11.5 11.5 -11.5 30.5t11.5 30t31.5 11t31.5 -11t11.5 -30q0 -20 -11.5 -31t-31.5 -11t-31.5 11.5zM184.5 20q-60.5 32 -91.5 89.5t-31 131.5q0 33 6 69q17 94 74.5 168.5t142 116t179.5 41.5q42 0 78.5 -9.5t58.5 -26.5q6 -6 6 -12l-1 -11l-9 -111
q-1 -4 -6.5 -4t-5.5 4q-6 72 -47.5 110t-113.5 38q-111 0 -186 -72t-97 -196q-8 -48 -8 -84q0 -77 27.5 -135t78 -89.5t117.5 -31.5q43 0 67.5 9.5t39.5 35t23 75.5q7 46 7 61q0 20 -7.5 29.5t-25.5 13t-54 3.5q-2 0 -3.5 2.5t-1.5 5.5t1.5 5.5t3.5 2.5q67 -5 108 -5t86 3
q3 0 3.5 -7t-3.5 -7q-21 1 -30.5 -6.5t-15.5 -30.5t-16 -80q-7 -44 -7.5 -62t-1.5 -26q-1 -6 -3 -7.5t-9 -4.5q-107 -28 -187 -28q-85 0 -145.5 32z" />
    <glyph glyph-name="gdotaccent" unicode="&#x121;" horiz-adv-x="379" 
d="M213.5 519.5q-11.5 11.5 -11.5 31.5q0 19 11.5 30t31.5 11t31 -11t11 -30q0 -20 -11 -31.5t-31 -11.5t-31.5 11.5zM389 382q0 -12 -4.5 -25.5t-8.5 -11.5q-23 12 -56 12q-13 0 -20 -1q21 -29 21 -72q0 -21 -4 -38q-9 -44 -35 -77.5t-60.5 -52t-70.5 -18.5q-10 0 -24 2
q-13 -15 -15 -32q-3 -26 19.5 -44.5t70.5 -42.5q38 -20 60.5 -34t39 -35t16.5 -48q0 -38 -29 -71.5t-77.5 -53.5t-104.5 -20q-69 0 -110 29.5t-41 71.5q0 44 37 78t107 74q-36 26 -36 56q0 20 12 37.5t36 38.5q-30 11 -46.5 39t-16.5 64q0 17 5 39q12 63 60 104.5t107 41.5
q41 0 67 -23q53 25 96 25q5 0 5 -12zM266 256q0 48 -18 83t-52 35q-30 0 -55.5 -29.5t-32.5 -73.5q-3 -19 -3 -38q0 -48 19 -82t52 -34q30 0 54.5 27.5t32.5 74.5q3 18 3 37zM240 -113.5q-28 23.5 -82 52.5q-28 13 -48 26q-48 -30 -72.5 -54.5t-24.5 -63.5q0 -43 39 -71.5
t103 -28.5q54 0 83.5 23t29.5 58t-28 58.5z" />
    <glyph glyph-name="Gcommaaccent" unicode="&#x122;" horiz-adv-x="631" 
d="M238 542q-75 -72 -97 -196q-8 -48 -8 -84q0 -77 27.5 -135t78 -89.5t117.5 -31.5q43 0 67.5 9.5t39.5 35t23 75.5q7 46 7 61q0 20 -7.5 29.5t-25.5 13t-54 3.5q-2 0 -3.5 2.5t-1.5 5.5t1.5 5.5t3.5 2.5q67 -5 108 -5t86 3q3 0 3.5 -7t-3.5 -7q-21 1 -30.5 -6.5
t-15.5 -30.5t-16 -80q-7 -44 -7.5 -62t-1.5 -26q-1 -6 -3 -7.5t-9 -4.5q-107 -28 -187 -28q-85 0 -145.5 32t-91.5 89.5t-31 131.5q0 33 6 69q17 94 74.5 168.5t142 116t179.5 41.5q42 0 78.5 -9.5t58.5 -26.5q6 -6 6 -12l-1 -11l-9 -111q-1 -4 -6.5 -4t-5.5 4
q-6 72 -47.5 110t-113.5 38q-111 0 -186 -72zM362.5 -102.5q14.5 -16.5 14.5 -44.5q0 -70 -80 -128l-2 -1q-4 0 -6 4.5t1 6.5q47 33 53 77q1 7 1 17q0 12 -2 16q-9 -9 -25 -9q-20 0 -30.5 11.5t-8.5 29.5q1 17 13 27t33 10q24 0 38.5 -16.5z" />
    <glyph glyph-name="gcommaaccent" unicode="&#x123;" horiz-adv-x="379" 
d="M204.5 500.5q-14.5 16.5 -14.5 44.5q0 70 80 128l2 1q4 0 6 -4.5t-1 -6.5q-47 -33 -53 -77q-1 -7 -1 -17q0 -12 2 -16q9 9 25 9q20 0 30.5 -11.5t8.5 -29.5q-1 -17 -13 -27t-33 -10q-24 0 -38.5 16.5zM389 382q0 -12 -4.5 -25.5t-8.5 -11.5q-23 12 -56 12q-13 0 -20 -1
q21 -29 21 -72q0 -21 -4 -38q-9 -44 -35 -77.5t-60.5 -52t-70.5 -18.5q-10 0 -24 2q-13 -15 -15 -32q-3 -26 19.5 -44.5t70.5 -42.5q38 -20 60.5 -34t39 -35t16.5 -48q0 -38 -29 -71.5t-77.5 -53.5t-104.5 -20q-69 0 -110 29.5t-41 71.5q0 44 37 78t107 74q-36 26 -36 56
q0 20 12 37.5t36 38.5q-30 11 -46.5 39t-16.5 64q0 17 5 39q12 63 60 104.5t107 41.5q41 0 67 -23q53 25 96 25q5 0 5 -12zM266 256q0 48 -18 83t-52 35q-30 0 -55.5 -29.5t-32.5 -73.5q-3 -19 -3 -38q0 -48 19 -82t52 -34q30 0 54.5 27.5t32.5 74.5q3 18 3 37zM240 -113.5
q-28 23.5 -82 52.5q-28 13 -48 26q-48 -30 -72.5 -54.5t-24.5 -63.5q0 -43 39 -71.5t103 -28.5q54 0 83.5 23t29.5 58t-28 58.5z" />
    <glyph glyph-name="Hcircumflex" unicode="&#x124;" horiz-adv-x="671" 
d="M327 660q-3 0 -5 2.5t0 4.5l107 97q5 5 9 5q6 0 9 -5l75 -97v-1q0 -3 -2.5 -5.5t-4.5 -0.5l-86 57l-101 -57h-1zM702 619q0 -6 -2 -6q-32 0 -48 -5.5t-24 -19.5t-13 -44l-82 -463q-3 -18 -3 -31q0 -23 13.5 -30.5t50.5 -7.5q3 0 3 -6t-3 -6q-25 0 -40 1l-60 1l-60 -1
q-16 -1 -43 -1q-2 0 -2 6t2 6q33 0 48.5 5t23.5 19.5t13 44.5l41 234h-321l-42 -234q-4 -26 -4 -33q0 -21 13.5 -28.5t50.5 -7.5q3 0 3 -6t-3 -6q-26 0 -42 1l-61 1l-59 -1q-15 -1 -41 -1q-3 0 -3 6t3 6q32 0 48.5 5t24.5 19.5t13 44.5l82 463q3 20 3 31q0 23 -13.5 30.5
t-50.5 7.5q-2 0 -2 6t2 6l42 -1q36 -2 58 -2q24 0 62 2l41 1q2 0 2 -6t-2 -6q-32 0 -47.5 -6t-23.5 -20.5t-14 -44.5l-37 -206h322l36 206q4 26 4 33q0 22 -13.5 30t-49.5 8q-3 0 -3 6t3 6l41 -1q36 -2 59 -2q22 0 60 2l42 1q2 0 2 -6z" />
    <glyph glyph-name="hcircumflex" unicode="&#x125;" horiz-adv-x="445" 
d="M111 702q-3 3 -1 5l107 97q5 5 9 5q6 0 9 -5l74 -97v-1q0 -3 -2.5 -5.5t-4.5 -0.5l-85 58l-101 -58q-2 -1 -5 2zM425 79q3 0 5 -3.5t-1 -6.5q-34 -40 -60.5 -59t-51.5 -19q-18 0 -26.5 10.5t-8.5 34.5q0 20 6 53l29 159q6 32 6 54q0 58 -43 58q-32 0 -67 -41t-66 -118.5
t-50 -183.5l-2 -10q-2 -7 -10.5 -11t-22.5 -4q-23 0 -23 6l4 23q6 24 11 53l102 545q2 16 2 21q0 26 -22 26q-16 0 -48 -15h-2q-4 0 -5 4.5t2 6.5l129 63h2q4 0 7.5 -3t2.5 -5l-97 -533q36 101 84.5 158t101.5 57q33 0 49 -18.5t16 -57.5q0 -23 -6 -56l-33 -178
q-3 -15 -3 -27q0 -31 19 -31q22 0 66 46q2 2 4 2z" />
    <glyph glyph-name="Hbar" unicode="&#x126;" horiz-adv-x="671" 
d="M702 619q0 -6 -2 -6q-32 0 -48 -5.5t-24 -19.5t-13 -44l-82 -463q-4 -26 -4 -32q0 -22 14 -29.5t51 -7.5q3 0 3 -6t-3 -6q-25 0 -40 1l-60 1l-60 -1q-16 -1 -43 -1q-2 0 -2 6t2 6q33 0 48.5 5t23.5 19.5t13 44.5l25 140h-322l-25 -140q-4 -26 -4 -33q0 -21 13.5 -28.5
t50.5 -7.5q3 0 3 -6t-3 -6q-26 0 -42 1l-61 1l-59 -1q-15 -1 -41 -1q-3 0 -3 6t3 6q32 0 48.5 5t24.5 19.5t13 44.5l82 463q4 26 4 32q0 22 -14 29.5t-51 7.5q-2 0 -2 6t2 6l42 -1q36 -2 58 -2q24 0 62 2l41 1q2 0 2 -6t-2 -6q-32 0 -47.5 -6t-23.5 -20.5t-14 -44.5
l-20 -113h321l20 113q4 26 4 33q0 22 -13.5 30t-49.5 8q-3 0 -3 6t3 6l41 -1q36 -2 59 -2q22 0 60 2l42 1q2 0 2 -6zM183 242h321l29 166h-321z" />
    <glyph glyph-name="hbar" unicode="&#x127;" horiz-adv-x="443" 
d="M425 79q3 0 5 -3.5t-1 -6.5q-34 -40 -60.5 -59t-51.5 -19q-18 0 -26.5 10.5t-8.5 34.5q0 20 6 53l29 159q6 32 6 54q0 58 -43 58q-32 0 -67 -41t-66 -118.5t-50 -183.5l-2 -10q-2 -7 -10.5 -11t-22.5 -4q-23 0 -23 6l4 23q6 24 11 53l80 426h-61q-4 0 -4 10t4 10h64
l19 99q2 16 2 21q0 26 -22 26q-16 0 -48 -15h-2q-4 0 -5 4.5t2 6.5l129 63h2q4 0 7.5 -3t2.5 -5l-36 -197h171q2 0 3.5 -3t1.5 -7t-1.5 -7t-3.5 -3h-174l-58 -316q36 101 84.5 158t101.5 57q33 0 49 -18.5t16 -57.5q0 -23 -6 -56l-33 -178q-3 -15 -3 -27q0 -31 19 -31
q22 0 66 46q2 2 4 2z" />
    <glyph glyph-name="Itilde" unicode="&#x128;" horiz-adv-x="308" 
d="M118 696q-3 0 -5 2.5t0 4.5q17 23 40 42t47 19q14 0 50 -10q46 -14 75 -14q18 0 29 7t22 20h1q3 0 5.5 -2.5t0.5 -4.5q-27 -36 -44.5 -49t-36.5 -13q-21 0 -61 12q-4 1 -25.5 7t-44.5 6q-17 0 -26 -5.5t-16 -12.5l-9 -9h-2zM17 6q0 6 3 6q32 0 47.5 5t23.5 19.5t13 44.5
l82 463q4 26 4 31q0 23 -14 30.5t-51 7.5q-3 0 -3 6t3 6l43 -1q36 -2 58 -2q26 0 64 2l40 1q2 0 2 -6t-2 -6q-32 0 -47.5 -6t-23.5 -20.5t-14 -44.5l-82 -461q-3 -19 -3 -32q0 -22 13.5 -29.5t51.5 -7.5q2 0 2 -6t-2 -6q-26 0 -41 1l-62 1l-59 -1q-15 -1 -43 -1q-3 0 -3 6z
" />
    <glyph glyph-name="itilde" unicode="&#x129;" horiz-adv-x="247" 
d="M56 480q-2 0 -4.5 2.5t-1.5 4.5q17 23 40 42t46 19q9 0 33 -10q28 -14 47 -14q17 0 28 7t23 20h1q3 0 5 -2.5t1 -4.5q-28 -37 -45 -49.5t-36 -12.5q-9 0 -19 3.5t-20 8.5q-2 1 -16 7t-30 6q-17 0 -26.5 -5.5t-16 -12.5t-8.5 -9h-1zM82 1.5q-9 10.5 -9 34.5q0 15 7 53
l41 208q3 15 3 27q0 32 -20 32q-12 0 -30.5 -12t-38.5 -34q-1 -1 -3 -1q-3 0 -5.5 3.5t0.5 5.5q35 40 63 58.5t53 18.5q18 0 26.5 -10.5t8.5 -34.5q0 -19 -6 -51l-41 -210q-3 -16 -3 -27q0 -31 19 -31q24 0 68 44q2 2 4 2q3 0 5 -3.5t-1 -6.5q-34 -39 -61 -57.5t-53 -18.5
q-18 0 -27 10.5z" />
    <glyph glyph-name="Imacron" unicode="&#x12a;" horiz-adv-x="308" 
d="M126 732q0 14 6 14h238q6 0 6 -14t-6 -14h-238q-6 0 -6 14zM17 6q0 6 3 6q32 0 47.5 5t23.5 19.5t13 44.5l82 463q4 26 4 31q0 23 -14 30.5t-51 7.5q-3 0 -3 6t3 6l43 -1q36 -2 58 -2q26 0 64 2l40 1q2 0 2 -6t-2 -6q-32 0 -47.5 -6t-23.5 -20.5t-14 -44.5l-82 -461
q-3 -19 -3 -32q0 -22 13.5 -29.5t51.5 -7.5q2 0 2 -6t-2 -6q-26 0 -41 1l-62 1l-59 -1q-15 -1 -43 -1q-3 0 -3 6z" />
    <glyph glyph-name="imacron" unicode="&#x12b;" horiz-adv-x="247" 
d="M39 493q0 14 6 14h238q6 0 6 -14t-6 -14h-238q-6 0 -6 14zM82 1.5q-9 10.5 -9 34.5q0 15 7 53l41 208q3 15 3 27q0 32 -20 32q-12 0 -30.5 -12t-38.5 -34q-1 -1 -3 -1q-3 0 -5.5 3.5t0.5 5.5q35 40 63 58.5t53 18.5q18 0 26.5 -10.5t8.5 -34.5q0 -19 -6 -51l-41 -210
q-3 -16 -3 -27q0 -31 19 -31q24 0 68 44q2 2 4 2q3 0 5 -3.5t-1 -6.5q-34 -39 -61 -57.5t-53 -18.5q-18 0 -27 10.5z" />
    <glyph glyph-name="Ibreve" unicode="&#x12c;" horiz-adv-x="308" 
d="M175 691q-23 25 -23 61q0 6 14.5 11t27.5 5q9 0 9 -3q2 -29 18.5 -46.5t45.5 -17.5q22 0 39 14t32 46q3 3 6 3q4 0 8 -2t3 -4q-42 -92 -114 -92q-43 0 -66 25zM17 6q0 6 3 6q32 0 47.5 5t23.5 19.5t13 44.5l82 463q4 26 4 31q0 23 -14 30.5t-51 7.5q-3 0 -3 6t3 6l43 -1
q36 -2 58 -2q26 0 64 2l40 1q2 0 2 -6t-2 -6q-32 0 -47.5 -6t-23.5 -20.5t-14 -44.5l-82 -461q-3 -19 -3 -32q0 -22 13.5 -29.5t51.5 -7.5q2 0 2 -6t-2 -6q-26 0 -41 1l-62 1l-59 -1q-15 -1 -43 -1q-3 0 -3 6z" />
    <glyph glyph-name="ibreve" unicode="&#x12d;" horiz-adv-x="247" 
d="M86 500q-23 25 -23 61q0 6 14.5 11t27.5 5q9 0 9 -3q2 -29 18.5 -46.5t45.5 -17.5q22 0 39 14t32 46q3 3 6 3q4 0 8 -2t3 -4q-42 -92 -114 -92q-43 0 -66 25zM82 1.5q-9 10.5 -9 34.5q0 15 7 53l41 208q3 15 3 27q0 32 -20 32q-12 0 -30.5 -12t-38.5 -34q-1 -1 -3 -1
q-3 0 -5.5 3.5t0.5 5.5q35 40 63 58.5t53 18.5q18 0 26.5 -10.5t8.5 -34.5q0 -19 -6 -51l-41 -210q-3 -16 -3 -27q0 -31 19 -31q24 0 68 44q2 2 4 2q3 0 5 -3.5t-1 -6.5q-34 -39 -61 -57.5t-53 -18.5q-18 0 -27 10.5z" />
    <glyph glyph-name="Iogonek" unicode="&#x12e;" horiz-adv-x="308" 
d="M332 619q0 -6 -2 -6q-32 0 -47.5 -6t-23.5 -20.5t-14 -44.5l-82 -461q-3 -19 -3 -32q0 -22 13.5 -29.5t51.5 -7.5q2 0 2 -6t-2 -6q-25 0 -39 1l-56 1q-57 -70 -69 -150q-3 -17 -3 -31q0 -30 12.5 -47.5t36.5 -17.5q16 0 27 6t25 18h2q3 0 6 -3t0 -5q-26 -26 -47 -36.5
t-45 -10.5q-32 0 -50 20t-18 53q0 48 28.5 98.5t80.5 105.5l-56 -1q-14 -1 -40 -1q-3 0 -3 6t3 6q32 0 47.5 5t23.5 19.5t13 44.5l82 463q4 26 4 31q0 23 -14 30.5t-51 7.5q-3 0 -3 6t3 6l43 -1q36 -2 58 -2q26 0 64 2l40 1q2 0 2 -6z" />
    <glyph glyph-name="iogonek" unicode="&#x12f;" horiz-adv-x="247" 
d="M140.5 524.5q-11.5 11.5 -11.5 31.5q0 19 11.5 30t31.5 11q19 0 30.5 -11t11.5 -30q0 -20 -11 -31.5t-31 -11.5t-31.5 11.5zM218 78q3 0 5 -3.5t0 -5.5l-49 -48q-59 -58 -86.5 -93t-35.5 -77q-3 -14 -3 -27q0 -30 15.5 -48.5t45.5 -18.5q15 0 26 5t24 15l1 1q3 0 5.5 -4
t0.5 -6q-25 -22 -47 -32.5t-44 -10.5q-36 0 -57 21.5t-21 54.5q0 43 33.5 90.5t92.5 101.5q-8 -2 -14 -2q-17 0 -25.5 11t-8.5 36q0 16 5 51l39 208q2 10 2 26q0 33 -20 33q-11 0 -29.5 -12t-38.5 -34q-1 -1 -3 -1q-4 0 -6 3.5t1 5.5q67 77 116 77q18 0 26 -10.5t8 -34.5
q0 -25 -5 -51l-38 -210q-3 -15 -3 -27q0 -31 19 -31q20 0 66 46q1 1 3 1z" />
    <glyph glyph-name="Idotaccent" unicode="&#x130;" horiz-adv-x="308" 
d="M211.5 720.5q-11.5 11.5 -11.5 30.5t11.5 30t31.5 11t31.5 -11t11.5 -30q0 -20 -11.5 -31t-31.5 -11t-31.5 11.5zM17 6q0 6 3 6q32 0 47.5 5t23.5 19.5t13 44.5l82 463q4 26 4 31q0 23 -14 30.5t-51 7.5q-3 0 -3 6t3 6l43 -1q36 -2 58 -2q26 0 64 2l40 1q2 0 2 -6t-2 -6
q-32 0 -47.5 -6t-23.5 -20.5t-14 -44.5l-82 -461q-3 -19 -3 -32q0 -22 13.5 -29.5t51.5 -7.5q2 0 2 -6t-2 -6q-26 0 -41 1l-62 1l-59 -1q-15 -1 -43 -1q-3 0 -3 6z" />
    <glyph glyph-name="dotlessi" unicode="&#x131;" horiz-adv-x="247" 
d="M82 1.5q-9 10.5 -9 34.5q0 15 7 53l41 208q3 15 3 27q0 32 -20 32q-12 0 -30.5 -12t-38.5 -34q-1 -1 -3 -1q-3 0 -5.5 3.5t0.5 5.5q35 40 63 58.5t53 18.5q18 0 26.5 -10.5t8.5 -34.5q0 -19 -6 -51l-41 -210q-3 -16 -3 -27q0 -31 19 -31q24 0 68 44q2 2 4 2q3 0 5 -3.5
t-1 -6.5q-34 -39 -61 -57.5t-53 -18.5q-18 0 -27 10.5z" />
    <glyph glyph-name="IJ" unicode="&#x132;" horiz-adv-x="619" 
d="M49 275q0 6 4 6q34 0 50.5 5t24.5 19.5t13 44.5l34 194q4 26 4 32q0 22 -14.5 29.5t-53.5 7.5q-4 0 -4 6t4 6l46 -1q40 -2 62 -2q26 0 66 2l41 1q5 0 5 -6t-5 -6q-34 0 -51 -6t-25 -20.5t-13 -44.5l-34 -192q-4 -19 -4 -33q0 -22 14 -29t53 -7q4 0 4 -6t-4 -6
q-27 0 -42 1l-65 1l-62 -1q-16 -1 -44 -1q-4 0 -4 6zM184.5 7q-42.5 20 -65.5 51.5t-23 64.5q0 22 10.5 35.5t26.5 13.5q22 0 28 -14.5t7 -46.5q2 -47 23.5 -78t86.5 -31q151 0 185 198l61 344q3 18 3 30q0 23 -16.5 31t-61.5 8q-3 0 -3 6t3 6l52 -1q40 -2 65 -2q24 0 60 2
l38 1q4 0 4 -6t-4 -6q-30 0 -45 -6t-22.5 -20.5t-12.5 -44.5l-49 -284q-23 -129 -91.5 -200t-161.5 -71q-55 0 -97.5 20z" />
    <glyph glyph-name="ij" unicode="&#x133;" horiz-adv-x="451" 
d="M128.5 524.5q-11.5 11.5 -11.5 31.5q0 19 11.5 30t31.5 11t31 -11t11 -30q0 -20 -11 -31.5t-31 -11.5t-31.5 11.5zM327.5 524.5q-11.5 11.5 -11.5 31.5q0 19 11.5 30t31.5 11t31 -11t11 -30q0 -20 -11 -31.5t-31 -11.5t-31.5 11.5zM401 392.5q5 -1.5 5 -4.5q-1 -5 -3 -16
t-5 -26l-7 -34l-70 -382q-18 -94 -72 -152.5t-132 -58.5q-44 0 -72 19t-28 48q0 6 1 9q7 32 33 32q11 0 16.5 -7.5t12.5 -23.5q12 -27 27 -41.5t49 -14.5q38 0 66.5 36t44.5 130l54 303q-37 -104 -86 -163t-103 -59q-66 0 -66 74q0 27 7 58l36 178q3 17 3 27q0 31 -19 31
q-20 0 -66 -46q-2 -2 -4 -2q-3 0 -5 3.5t1 6.5q35 40 61.5 59t51.5 19q35 0 35 -46q0 -15 -7 -52l-32 -159q-7 -38 -7 -55q0 -57 43 -57q33 0 68.5 42.5t67 122.5t51.5 189q1 6 9 10t21 4q15 0 20 -1.5z" />
    <glyph glyph-name="Jcircumflex" unicode="&#x134;" horiz-adv-x="280" 
d="M132 660q-3 0 -5 2.5t0 4.5l107 97q5 5 9 5q6 0 9 -5l75 -97v-1q0 -3 -2.5 -5.5t-4.5 -0.5l-86 57l-101 -57h-1zM-21 -193q-2 0 -4.5 4.5t-0.5 6.5q45 27 71.5 81.5t42.5 140.5l89 504q3 18 3 31q0 23 -13.5 30.5t-51.5 7.5q-2 0 -2 6t2 6l41 -1q38 -2 60 -2q27 0 65 2
l39 1q3 0 3 -6t-3 -6q-32 0 -48 -6t-24 -20.5t-13 -44.5l-84 -475q-15 -79 -35 -127t-52 -78.5t-84 -54.5h-1z" />
    <glyph glyph-name="jcircumflex" unicode="&#x135;" horiz-adv-x="239" 
d="M231 478q0 -3 -6 -3.5t-6 2.5l-32 154l-87 -157q-1 -1 -3 -1q-3 0 -6 1.5t-2 3.5l105 249q3 5 11 5t8 -5zM-70.5 -262.5q-16.5 12.5 -14.5 30.5q3 15 12 23t22 8t18 -7.5t10 -24.5q4 -14 8.5 -20.5t13.5 -6.5q14 0 24.5 19t20.5 60.5t23 119.5l62 358q3 15 3 27
q0 32 -20 32q-11 0 -29.5 -12t-39.5 -34q-1 -1 -3 -1q-3 0 -5.5 3.5t0.5 5.5q35 40 63 58.5t54 18.5q17 0 25 -10.5t8 -33.5q0 -26 -5 -52l-58 -337q-16 -94 -34 -144.5t-44 -71.5t-67 -21q-31 0 -47.5 12.5z" />
    <glyph glyph-name="Kcommaaccent" unicode="&#x136;" horiz-adv-x="595" 
d="M622 619q0 -6 -3 -6q-36 0 -78.5 -17.5t-82.5 -56.5l-179 -158l100 -179q51 -92 78.5 -131t45.5 -49t47 -10q3 0 3 -6t-3 -6h-85q-36 0 -45 5t-39 63t-42 80l-107 191l-38 -33l-40 -225q-6 -36 -6 -42q0 -16 12 -21.5t46 -5.5q2 0 2 -6t-2 -6q-26 0 -39 1l-56 1l-59 -1
q-15 -1 -41 -1q-3 0 -3 6t3 6q32 0 48.5 5t24.5 19.5t13 44.5l82 463q3 20 3 31q0 23 -13.5 30.5t-50.5 7.5q-2 0 -2 6t2 6l42 -1q36 -2 58 -2q24 0 62 2l41 1q2 0 2 -6t-2 -6q-32 0 -47.5 -6t-23.5 -20.5t-14 -44.5l-38 -213l239 216q37 34 37 51t-46 17q-2 0 -2 6t2 6
l38 -1q36 -2 65 -2q27 0 57 2l31 1q3 0 3 -6zM311.5 -102.5q14.5 -16.5 14.5 -44.5q0 -70 -80 -128l-2 -1q-4 0 -6 4.5t1 6.5q47 33 53 77q1 7 1 17q0 12 -2 16q-9 -9 -25 -9q-20 0 -30.5 11.5t-8.5 29.5q1 17 13 27t33 10q24 0 38.5 -16.5z" />
    <glyph glyph-name="kcommaaccent" unicode="&#x137;" horiz-adv-x="417" 
d="M407 76q4 0 6 -3.5t0 -5.5q-67 -76 -106 -76q-23 0 -39.5 14t-39.5 53l-58 101q-9 15 -16 21t-18 6l-9 -1l-32 -178q-2 -7 -10.5 -11t-22.5 -4q-23 0 -23 6l4 23q6 24 11 53l102 545q2 16 2 21q0 26 -22 26q-16 0 -48 -15h-2q-4 0 -5 4.5t2 6.5l129 63h2q4 0 7.5 -3
t2.5 -5l-75 -409q38 42 83.5 66.5t92.5 24.5q29 0 42 -14.5t13 -33.5q0 -9 -1 -12q-7 -36 -52.5 -70.5t-120.5 -60.5l67 -116q20 -34 34.5 -46t30.5 -12q26 0 66 41q1 1 3 1zM188.5 325q-41.5 -44 -57.5 -118l-1 -8q90 21 130.5 48t48.5 74q2 10 2 14q0 16 -8 25t-22 9
q-51 0 -92.5 -44zM191.5 -102.5q14.5 -16.5 14.5 -44.5q0 -70 -80 -128l-2 -1q-4 0 -6 4.5t1 6.5q47 33 53 77q1 7 1 17q0 12 -2 16q-9 -9 -25 -9q-20 0 -30.5 11.5t-8.5 29.5q1 17 13 27t33 10q24 0 38.5 -16.5z" />
    <glyph glyph-name="kgreenlandic" unicode="&#x138;" horiz-adv-x="435" 
d="M427 76q4 0 6 -3.5t-1 -5.5q-66 -76 -105 -76q-23 0 -40 14.5t-40 52.5l-59 101q-9 15 -15.5 21t-17.5 6l-9 -1l-32 -178q-3 -15 -32 -15q-14 0 -19 1.5t-5 4.5q1 5 3 16t5 26l7 34l42 223q3 15 3 27q0 15 -5.5 23.5t-14.5 8.5q-12 0 -30.5 -12t-38.5 -34q-1 -1 -3 -1
q-3 0 -5.5 3.5t0.5 5.5q34 39 62.5 58t54.5 19q17 0 25 -10.5t8 -33.5q0 -20 -4 -44q38 43 84 67.5t93 24.5q30 0 42.5 -14.5t12.5 -33.5q0 -8 -1 -12q-7 -36 -53 -70.5t-120 -60.5l67 -116q20 -34 34.5 -46t30.5 -12q12 0 29.5 10.5t37.5 30.5q1 1 3 1zM207.5 325
q-41.5 -44 -57.5 -118l-2 -8q90 21 131 48t50 74q1 5 1 13q0 17 -8 26t-22 9q-51 0 -92.5 -44z" />
    <glyph glyph-name="Lacute" unicode="&#x139;" horiz-adv-x="496" 
d="M167 678q-4 0 -5 4.5t2 6.5q37 19 113 65l49 30q4 2 23.5 -4.5t34 -14.5t7.5 -9q-62 -15 -113.5 -33.5t-108.5 -43.5zM10 6q0 6 2 6q32 0 48 5t24 19.5t13 44.5l82 463q3 20 3 31q0 23 -13.5 30.5t-50.5 7.5q-2 0 -2 6t2 6l42 -1q36 -2 58 -2q24 0 62 2l41 1q2 0 2 -6
t-2 -6q-32 0 -47.5 -5.5t-23.5 -20t-14 -44.5l-81 -458q-3 -18 -3 -30q0 -21 13 -28.5t47 -7.5h101q55 0 91.5 34t60.5 99q0 2 4 2q3 0 6 -1.5t2 -2.5q-22 -73 -32 -135q-2 -8 -5.5 -11.5t-10.5 -3.5h-417q-2 0 -2 6z" />
    <glyph glyph-name="lacute" unicode="&#x13a;" horiz-adv-x="237" 
d="M115 715q-4 0 -5 4.5t2 6.5q37 19 113 65l49 30q4 2 23.5 -4.5t34 -14.5t7.5 -9q-62 -15 -113.5 -33.5t-108.5 -43.5zM63.5 1.5q-8.5 10.5 -8.5 35.5q0 21 6 52l99 530q2 8 2 22q0 25 -20 25q-16 0 -48 -15h-2q-4 0 -5.5 5t2.5 6l129 63h2q4 0 7.5 -3t2.5 -5l-116 -628
q-4 -22 -4 -28q0 -15 5.5 -22.5t14.5 -7.5q21 0 65 46q2 2 4 2q3 0 5 -3.5t-1 -6.5q-34 -40 -60.5 -59t-51.5 -19q-19 0 -27.5 10.5z" />
    <glyph glyph-name="Lcommaaccent" unicode="&#x13b;" horiz-adv-x="496" 
d="M469 154q3 0 6 -1.5t2 -2.5q-22 -73 -32 -135q-2 -8 -5.5 -11.5t-10.5 -3.5h-417q-2 0 -2 6t2 6q32 0 48 5t24 19.5t13 44.5l82 463q3 20 3 31q0 23 -13.5 30.5t-50.5 7.5q-2 0 -2 6t2 6l42 -1q36 -2 58 -2q24 0 62 2l41 1q2 0 2 -6t-2 -6q-32 0 -47.5 -5.5t-23.5 -20
t-14 -44.5l-81 -458q-3 -18 -3 -30q0 -21 13 -28.5t47 -7.5h101q55 0 91.5 34t60.5 99q0 2 4 2zM268.5 -102.5q14.5 -16.5 14.5 -44.5q0 -70 -80 -128l-2 -1q-4 0 -6 4.5t1 6.5q47 33 53 77q1 7 1 17q0 12 -2 16q-9 -9 -25 -9q-20 0 -30.5 11.5t-8.5 29.5q1 17 13 27t33 10
q24 0 38.5 -16.5z" />
    <glyph glyph-name="lcommaaccent" unicode="&#x13c;" horiz-adv-x="237" 
d="M114 89q-4 -22 -4 -28q0 -15 5.5 -22.5t14.5 -7.5q21 0 65 46q2 2 4 2q3 0 5 -3.5t-1 -6.5q-34 -40 -60.5 -59t-51.5 -19q-19 0 -27.5 10.5t-8.5 35.5q0 21 6 52l99 530q2 8 2 22q0 25 -20 25q-16 0 -48 -15h-2q-4 0 -5.5 5t2.5 6l129 63h2q4 0 7.5 -3t2.5 -5z
M111.5 -102.5q14.5 -16.5 14.5 -44.5q0 -70 -80 -128l-2 -1q-4 0 -6 4.5t1 6.5q47 33 53 77q1 7 1 17q0 12 -2 16q-9 -9 -25 -9q-20 0 -30.5 11.5t-8.5 29.5q1 17 13 27t33 10q24 0 38.5 -16.5z" />
    <glyph glyph-name="Lcaron" unicode="&#x13d;" horiz-adv-x="496" 
d="M438 625q1 5 12.5 -1.5t22 -16t9.5 -13.5l-74 -241q-1 -2 -6 -2t-5 2zM10 6q0 6 2 6q32 0 48 5t24 19.5t13 44.5l82 463q3 20 3 31q0 23 -13.5 30.5t-50.5 7.5q-2 0 -2 6t2 6l42 -1q36 -2 58 -2q24 0 62 2l41 1q2 0 2 -6t-2 -6q-32 0 -47.5 -5.5t-23.5 -20t-14 -44.5
l-81 -458q-3 -18 -3 -30q0 -21 13 -28.5t47 -7.5h101q55 0 91.5 34t60.5 99q0 2 4 2q3 0 6 -1.5t2 -2.5q-22 -73 -32 -135q-2 -8 -5.5 -11.5t-10.5 -3.5h-417q-2 0 -2 6z" />
    <glyph glyph-name="lcaron" unicode="&#x13e;" horiz-adv-x="237" 
d="M302 724q1 5 12.5 -1.5t22 -16t9.5 -13.5l-74 -241q-1 -2 -6 -2t-5 2zM63.5 1.5q-8.5 10.5 -8.5 35.5q0 21 6 52l99 530q2 8 2 22q0 25 -20 25q-16 0 -48 -15h-2q-4 0 -5.5 5t2.5 6l129 63h2q4 0 7.5 -3t2.5 -5l-116 -628q-4 -22 -4 -28q0 -15 5.5 -22.5t14.5 -7.5
q21 0 65 46q2 2 4 2q3 0 5 -3.5t-1 -6.5q-34 -40 -60.5 -59t-51.5 -19q-19 0 -27.5 10.5z" />
    <glyph glyph-name="Ldot" unicode="&#x13f;" horiz-adv-x="496" 
d="M10 6q0 6 2 6q32 0 48 5t24 19.5t13 44.5l82 463q3 20 3 31q0 23 -13.5 30.5t-50.5 7.5q-2 0 -2 6t2 6l42 -1q36 -2 58 -2q24 0 62 2l41 1q2 0 2 -6t-2 -6q-32 0 -47.5 -5.5t-23.5 -20t-14 -44.5l-81 -458q-3 -18 -3 -30q0 -21 13 -28.5t47 -7.5h101q55 0 91.5 34
t60.5 99q0 2 4 2q3 0 6 -1.5t2 -2.5q-22 -73 -32 -135q-2 -8 -5.5 -11.5t-10.5 -3.5h-417q-2 0 -2 6zM394.5 295q-11.5 11 -11.5 31q0 19 11.5 30t31.5 11t31 -11t11 -30q0 -20 -11 -31t-31 -11t-31.5 11z" />
    <glyph glyph-name="ldot" unicode="&#x140;" horiz-adv-x="237" 
d="M63.5 1.5q-8.5 10.5 -8.5 35.5q0 21 6 52l99 530q2 8 2 22q0 25 -20 25q-16 0 -48 -15h-2q-4 0 -5.5 5t2.5 6l129 63h2q4 0 7.5 -3t2.5 -5l-116 -628q-4 -22 -4 -28q0 -15 5.5 -22.5t14.5 -7.5q21 0 65 46q2 2 4 2q3 0 5 -3.5t-1 -6.5q-34 -40 -60.5 -59t-51.5 -19
q-19 0 -27.5 10.5zM225.5 324q-11.5 11 -11.5 30t11.5 30t31.5 11t31 -10.5t11 -30.5t-11 -30.5t-31 -10.5t-31.5 11z" />
    <glyph glyph-name="Lslash" unicode="&#x141;" horiz-adv-x="496" 
d="M469 154q3 0 6 -1.5t2 -2.5q-22 -73 -32 -135q-2 -8 -5.5 -11.5t-10.5 -3.5h-417q-2 0 -2 6t2 6q32 0 48 5t24 19.5t13 44.5l34 192l-57 -33h-1q-4 0 -8 7.5t-1 8.5l71 41l44 247q3 20 3 31q0 23 -13.5 30.5t-50.5 7.5q-2 0 -2 6t2 6l42 -1q36 -2 58 -2q24 0 62 2l41 1
q2 0 2 -6t-2 -6q-32 0 -47.5 -5.5t-23.5 -20t-14 -44.5l-37 -209l84 48h1q4 0 8 -7.5t0 -8.5l-97 -56l-40 -225q-3 -18 -3 -30q0 -21 13 -28.5t47 -7.5h101q55 0 91.5 34t60.5 99q0 2 4 2z" />
    <glyph glyph-name="lslash" unicode="&#x142;" horiz-adv-x="249" 
d="M231 411q4 0 8 -8t1 -10l-72 -41l-49 -263q-4 -22 -4 -28q0 -15 5.5 -22.5t14.5 -7.5q21 0 65 46q2 2 4 2q3 0 5 -3.5t-1 -6.5q-34 -40 -60.5 -59t-51.5 -19q-19 0 -27.5 10.5t-8.5 35.5q0 21 6 52l43 230l-57 -32h-1q-5 0 -9 7.5t0 8.5l72 41l51 275q2 8 2 22
q0 25 -20 25q-17 0 -48 -15h-2q-4 0 -5.5 5t2.5 6l129 63h2q4 0 7.5 -3t2.5 -5l-63 -339l58 33h1z" />
    <glyph glyph-name="Nacute" unicode="&#x143;" horiz-adv-x="651" 
d="M339 678q-4 0 -5 4.5t2 6.5q37 19 113 65l49 30q4 2 23.5 -4.5t34 -14.5t7.5 -9q-62 -15 -113.5 -33.5t-108.5 -43.5zM689 619q0 -6 -2 -6q-36 0 -57.5 -22.5t-29.5 -72.5l-94 -528q0 -2 -2.5 -3.5t-5.5 -1.5q-6 0 -7 4l-289 554l-6 11l-77 -448q-4 -20 -4 -39
q0 -29 13 -42t42 -13q2 0 2 -6t-2 -6q-21 0 -32 1l-47 1l-43 -1q-13 -1 -36 -1q-3 0 -3 6t3 6q36 0 57 22t29 72l84 471q-28 36 -63 36q-3 0 -3 6t3 6l35 -1q12 -1 31 -1q16 0 27.5 1t16.5 1q6 0 9 -4t7 -15q1 -3 4.5 -13t8.5 -20l247 -477l74 422q4 20 4 39q0 29 -13 42.5
t-41 13.5q-3 0 -3 6t3 6l30 -1q28 -2 48 -2q16 0 44 2l36 1q2 0 2 -6z" />
    <glyph glyph-name="nacute" unicode="&#x144;" horiz-adv-x="465" 
d="M261.5 472q-5.5 2 -3.5 4l93 240q2 5 22 10t33 5q10 0 9 -4l-147 -254q-1 -3 -6.5 -1zM444 79q3 0 5.5 -3.5t-0.5 -6.5q-34 -40 -60.5 -59t-51.5 -19q-18 0 -26.5 10.5t-8.5 34.5q0 20 6 53l29 159q6 32 6 54q0 58 -43 58q-33 0 -68.5 -42t-66.5 -122.5t-50 -188.5
q-2 -7 -10.5 -11t-22.5 -4t-18.5 1.5t-4.5 4.5l4 23q6 24 11 53l41 223q3 15 3 27q0 32 -20 32q-12 0 -30.5 -12t-38.5 -34q-1 -1 -3 -1q-3 0 -5.5 3.5t0.5 5.5q34 39 62.5 58t54.5 19q17 0 25 -10.5t8 -33.5q0 -26 -5 -52l-21 -121q36 104 85 162.5t103 58.5q33 0 49 -18
t16 -57q0 -24 -6 -57l-33 -178q-3 -15 -3 -27q0 -31 20 -31q21 0 65 46q2 2 3 2z" />
    <glyph glyph-name="Ncommaaccent" unicode="&#x145;" horiz-adv-x="651" 
d="M689 619q0 -6 -2 -6q-36 0 -57.5 -22.5t-29.5 -72.5l-94 -528q0 -2 -2.5 -3.5t-5.5 -1.5q-6 0 -7 4l-289 554l-6 11l-77 -448q-4 -20 -4 -39q0 -29 13 -42t42 -13q2 0 2 -6t-2 -6q-21 0 -32 1l-47 1l-43 -1q-13 -1 -36 -1q-3 0 -3 6t3 6q36 0 57 22t29 72l84 471
q-28 36 -63 36q-3 0 -3 6t3 6l35 -1q12 -1 31 -1q16 0 27.5 1t16.5 1q6 0 9 -4t7 -15q1 -3 4.5 -13t8.5 -20l247 -477l74 422q4 20 4 39q0 29 -13 42.5t-41 13.5q-3 0 -3 6t3 6l30 -1q28 -2 48 -2q16 0 44 2l36 1q2 0 2 -6zM328.5 -102.5q14.5 -16.5 14.5 -44.5
q0 -70 -80 -128l-2 -1q-4 0 -6 4.5t1 6.5q47 33 53 77q1 7 1 17q0 12 -2 16q-9 -9 -25 -9q-20 0 -30.5 11.5t-8.5 29.5q1 17 13 27t33 10q24 0 38.5 -16.5z" />
    <glyph glyph-name="ncommaaccent" unicode="&#x146;" horiz-adv-x="465" 
d="M444 79q3 0 5.5 -3.5t-0.5 -6.5q-34 -40 -60.5 -59t-51.5 -19q-18 0 -26.5 10.5t-8.5 34.5q0 20 6 53l29 159q6 32 6 54q0 58 -43 58q-33 0 -68.5 -42t-66.5 -122.5t-50 -188.5q-2 -7 -10.5 -11t-22.5 -4t-18.5 1.5t-4.5 4.5l4 23q6 24 11 53l41 223q3 15 3 27
q0 32 -20 32q-12 0 -30.5 -12t-38.5 -34q-1 -1 -3 -1q-3 0 -5.5 3.5t0.5 5.5q34 39 62.5 58t54.5 19q17 0 25 -10.5t8 -33.5q0 -26 -5 -52l-21 -121q36 104 85 162.5t103 58.5q33 0 49 -18t16 -57q0 -24 -6 -57l-33 -178q-3 -15 -3 -27q0 -31 20 -31q21 0 65 46q2 2 3 2z
M240.5 -102.5q14.5 -16.5 14.5 -44.5q0 -70 -80 -128l-2 -1q-4 0 -6 4.5t1 6.5q47 33 53 77q1 7 1 17q0 12 -2 16q-9 -9 -25 -9q-20 0 -30.5 11.5t-8.5 29.5q1 17 13 27t33 10q24 0 38.5 -16.5z" />
    <glyph glyph-name="Ncaron" unicode="&#x147;" horiz-adv-x="651" 
d="M315 773v1q0 2 3 4.5t4 1.5l84 -58l102 59q2 1 5.5 -3t0.5 -5l-107 -98q-4 -4 -10 -4q-5 0 -9 4zM689 619q0 -6 -2 -6q-36 0 -57.5 -22.5t-29.5 -72.5l-94 -528q0 -2 -2.5 -3.5t-5.5 -1.5q-6 0 -7 4l-289 554l-6 11l-77 -448q-4 -20 -4 -39q0 -29 13 -42t42 -13q2 0 2 -6
t-2 -6q-21 0 -32 1l-47 1l-43 -1q-13 -1 -36 -1q-3 0 -3 6t3 6q36 0 57 22t29 72l84 471q-28 36 -63 36q-3 0 -3 6t3 6l35 -1q12 -1 31 -1q16 0 27.5 1t16.5 1q6 0 9 -4t7 -15q1 -3 4.5 -13t8.5 -20l247 -477l74 422q4 20 4 39q0 29 -13 42.5t-41 13.5q-3 0 -3 6t3 6l30 -1
q28 -2 48 -2q16 0 44 2l36 1q2 0 2 -6z" />
    <glyph glyph-name="ncaron" unicode="&#x148;" horiz-adv-x="465" 
d="M276 472q-3 0 -5.5 1.5t-2.5 3.5l-18 249q0 3 6 3.5t6 -2.5l32 -154l87 157q1 1 3 1q3 0 6 -1.5t2 -3.5l-105 -249q-2 -5 -11 -5zM444 79q3 0 5.5 -3.5t-0.5 -6.5q-34 -40 -60.5 -59t-51.5 -19q-18 0 -26.5 10.5t-8.5 34.5q0 20 6 53l29 159q6 32 6 54q0 58 -43 58
q-33 0 -68.5 -42t-66.5 -122.5t-50 -188.5q-2 -7 -10.5 -11t-22.5 -4t-18.5 1.5t-4.5 4.5l4 23q6 24 11 53l41 223q3 15 3 27q0 32 -20 32q-12 0 -30.5 -12t-38.5 -34q-1 -1 -3 -1q-3 0 -5.5 3.5t0.5 5.5q34 39 62.5 58t54.5 19q17 0 25 -10.5t8 -33.5q0 -26 -5 -52
l-21 -121q36 104 85 162.5t103 58.5q33 0 49 -18t16 -57q0 -24 -6 -57l-33 -178q-3 -15 -3 -27q0 -31 20 -31q21 0 65 46q2 2 3 2z" />
    <glyph glyph-name="napostrophe" unicode="&#x149;" horiz-adv-x="465" 
d="M75 410q-3 0 -5 4t1 6q37 28 57.5 56.5t25.5 61.5q2 12 2 17q0 10 -3 17q-9 -10 -27 -10t-28.5 11.5t-10.5 27.5q0 19 12.5 29.5t34.5 10.5q25 0 40 -16.5t15 -46.5q0 -87 -111 -167q-1 -1 -3 -1zM444 79q3 0 5.5 -3.5t-0.5 -6.5q-34 -40 -60.5 -59t-51.5 -19
q-18 0 -26.5 10.5t-8.5 34.5q0 20 6 53l29 159q6 32 6 54q0 58 -43 58q-33 0 -68.5 -42t-66.5 -122.5t-50 -188.5q-2 -7 -10.5 -11t-22.5 -4t-18.5 1.5t-4.5 4.5l4 23q6 24 11 53l41 223q3 15 3 27q0 32 -20 32q-12 0 -30.5 -12t-38.5 -34q-1 -1 -3 -1q-3 0 -5.5 3.5
t0.5 5.5q34 39 62.5 58t54.5 19q17 0 25 -10.5t8 -33.5q0 -26 -5 -52l-21 -121q36 104 85 162.5t103 58.5q33 0 49 -18t16 -57q0 -24 -6 -57l-33 -178q-3 -15 -3 -27q0 -31 20 -31q21 0 65 46q2 2 3 2z" />
    <glyph glyph-name="Eng" unicode="&#x14a;" horiz-adv-x="650" 
d="M689 619q0 -6 -2 -6q-36 0 -57.5 -22.5t-29.5 -72.5l-94 -528v-1q-16 -88 -53 -134t-91 -46q-33 0 -54 16.5t-21 39.5q0 19 11 28.5t27 9.5q17 0 23 -8.5t10 -27.5q3 -17 9 -26t22 -9q33 0 58.5 41t40.5 122l-286 548l-6 11l-77 -448q-4 -20 -4 -39q0 -29 13 -42t42 -13
q2 0 2 -6t-2 -6q-21 0 -32 1l-47 1l-43 -1q-13 -1 -36 -1q-3 0 -3 6t3 6q36 0 57 22t29 72l84 471q-28 36 -63 36q-3 0 -3 6t3 6l35 -1q12 -1 31 -1q16 0 27.5 1t16.5 1q6 0 9 -4t7 -15q1 -3 4.5 -13t8.5 -20l247 -477l74 422q4 20 4 39q0 29 -13 42.5t-41 13.5q-3 0 -3 6
t3 6l30 -1q28 -2 48 -2q16 0 44 2l36 1q2 0 2 -6z" />
    <glyph glyph-name="eng" unicode="&#x14b;" horiz-adv-x="433" 
d="M382 381q16 -18 16 -57q0 -24 -6 -57l-59 -304q-18 -95 -36 -145t-43 -71.5t-66 -21.5q-32 0 -48 12.5t-14 30.5q3 15 12 23t22 8t18.5 -8.5t9.5 -23.5q4 -14 8 -20.5t13 -6.5q15 0 25.5 18.5t19.5 57.5t25 124l58 308q6 32 6 54q0 58 -43 58q-33 0 -68.5 -42
t-66.5 -122.5t-50 -188.5q-2 -7 -10.5 -11t-22.5 -4t-18.5 1.5t-4.5 4.5l4 23q6 24 11 53l41 223q3 15 3 27q0 32 -20 32q-12 0 -30.5 -12t-38.5 -34q-1 -1 -3 -1q-3 0 -5.5 3.5t0.5 5.5q34 39 62.5 58t54.5 19q17 0 25 -10.5t8 -33.5q0 -26 -5 -52l-21 -121
q36 104 85 162.5t103 58.5q33 0 49 -18z" />
    <glyph glyph-name="Omacron" unicode="&#x14c;" horiz-adv-x="651" 
d="M298 732q0 14 6 14h238q6 0 6 -14t-6 -14h-238q-6 0 -6 14zM165 20.5q-50 32.5 -76 90t-26 129.5q0 36 6 73q16 93 66 166.5t122 115t152 41.5q71 0 122 -32.5t77.5 -89t26.5 -127.5q0 -39 -7 -74q-17 -94 -68.5 -168t-124.5 -115.5t-151 -41.5q-69 0 -119 32.5zM475 78
q62 64 86 182q10 49 10 99q0 74 -24 131t-70 89.5t-108 32.5q-89 0 -151 -66t-83 -180q-9 -48 -9 -93q0 -73 23.5 -132t68.5 -93t108 -34q87 0 149 64z" />
    <glyph glyph-name="omacron" unicode="&#x14d;" horiz-adv-x="398" 
d="M125 493q0 14 6 14h238q6 0 6 -14t-6 -14h-238q-6 0 -6 14zM61.5 28q-33.5 42 -33.5 110q0 31 5 55q11 58 42 105t75 74t93 27q62 0 96 -41.5t34 -107.5q0 -28 -6 -57q-12 -61 -45 -108.5t-77.5 -73t-90.5 -25.5q-59 0 -92.5 42zM265 48q34 37 46 101q5 32 5 58
q0 69 -26.5 118.5t-75.5 49.5q-43 0 -77 -37.5t-47 -101.5q-6 -30 -6 -61q0 -67 28 -115.5t77 -48.5q42 0 76 37z" />
    <glyph glyph-name="Obreve" unicode="&#x14e;" horiz-adv-x="651" 
d="M347 691q-23 25 -23 61q0 6 14.5 11t27.5 5q9 0 9 -3q2 -29 18.5 -46.5t45.5 -17.5q22 0 39 14t32 46q3 3 6 3q4 0 8 -2t3 -4q-42 -92 -114 -92q-43 0 -66 25zM165 20.5q-50 32.5 -76 90t-26 129.5q0 36 6 73q16 93 66 166.5t122 115t152 41.5q71 0 122 -32.5t77.5 -89
t26.5 -127.5q0 -39 -7 -74q-17 -94 -68.5 -168t-124.5 -115.5t-151 -41.5q-69 0 -119 32.5zM475 78q62 64 86 182q10 49 10 99q0 74 -24 131t-70 89.5t-108 32.5q-89 0 -151 -66t-83 -180q-9 -48 -9 -93q0 -73 23.5 -132t68.5 -93t108 -34q87 0 149 64z" />
    <glyph glyph-name="obreve" unicode="&#x14f;" horiz-adv-x="398" 
d="M172 500q-23 25 -23 61q0 6 14.5 11t27.5 5q9 0 9 -3q2 -29 18.5 -46.5t45.5 -17.5q22 0 39 14t32 46q3 3 6 3q4 0 8 -2t3 -4q-42 -92 -114 -92q-43 0 -66 25zM61.5 28q-33.5 42 -33.5 110q0 31 5 55q11 58 42 105t75 74t93 27q62 0 96 -41.5t34 -107.5q0 -28 -6 -57
q-12 -61 -45 -108.5t-77.5 -73t-90.5 -25.5q-59 0 -92.5 42zM265 48q34 37 46 101q5 32 5 58q0 69 -26.5 118.5t-75.5 49.5q-43 0 -77 -37.5t-47 -101.5q-6 -30 -6 -61q0 -67 28 -115.5t77 -48.5q42 0 76 37z" />
    <glyph glyph-name="Ohungarumlaut" unicode="&#x150;" horiz-adv-x="651" 
d="M311 666q-3 0 -4.5 5t1.5 6q59 57 112 112q3 3 22 -1t33 -11t7 -10q-95 -43 -169 -100zM433 666q-4 0 -5 4.5t2 6.5l112 112q3 3 22 -1.5t33 -11t7 -9.5q-93 -42 -169 -100zM165 20.5q-50 32.5 -76 90t-26 129.5q0 36 6 73q16 93 66 166.5t122 115t152 41.5
q71 0 122 -32.5t77.5 -89t26.5 -127.5q0 -39 -7 -74q-17 -94 -68.5 -168t-124.5 -115.5t-151 -41.5q-69 0 -119 32.5zM475 78q62 64 86 182q10 49 10 99q0 74 -24 131t-70 89.5t-108 32.5q-89 0 -151 -66t-83 -180q-9 -48 -9 -93q0 -73 23.5 -132t68.5 -93t108 -34
q87 0 149 64z" />
    <glyph glyph-name="ohungarumlaut" unicode="&#x151;" horiz-adv-x="398" 
d="M150 463q-3 0 -4 4.5t2 6.5l111 112q4 3 23 -1.5t33 -11t6 -9.5q-92 -43 -169 -100zM272 463q-4 0 -4.5 4.5t1.5 6.5l75 75l37 37q4 3 23 -1.5t32.5 -11.5t6.5 -9q-89 -40 -169 -100zM61.5 28q-33.5 42 -33.5 110q0 31 5 55q11 58 42 105t75 74t93 27q62 0 96 -41.5
t34 -107.5q0 -28 -6 -57q-12 -61 -45 -108.5t-77.5 -73t-90.5 -25.5q-59 0 -92.5 42zM265 48q34 37 46 101q5 32 5 58q0 69 -26.5 118.5t-75.5 49.5q-43 0 -77 -37.5t-47 -101.5q-6 -30 -6 -61q0 -67 28 -115.5t77 -48.5q42 0 76 37z" />
    <glyph glyph-name="OE" unicode="&#x152;" horiz-adv-x="807" 
d="M814 616l-20 -124q-1 -4 -6.5 -3t-4.5 4q1 8 1 24q0 43 -19.5 68t-54.5 25h-54q-33 0 -49 -5t-23.5 -18.5t-12.5 -43.5l-37 -207h113q40 0 58 15.5t25 54.5q0 3 6 3q2 0 4.5 -1.5t1.5 -3.5q-5 -33 -8 -42l-6 -37q-7 -41 -8 -51l-7 -42q-1 -4 -7 -3.5t-5 4.5q3 17 3 30
q0 28 -15 40t-49 12h-109l-41 -230q-3 -18 -3 -30q0 -22 13.5 -29.5t51.5 -7.5h76q37 0 68.5 35t53.5 96q1 2 5 2q3 0 5.5 -1.5t1.5 -2.5q-18 -51 -31 -132q-2 -8 -5.5 -11.5t-10.5 -3.5h-264q-22 0 -68 -2q-42 -2 -56 -2q-81 0 -141 32t-92 88.5t-32 128.5q0 25 5 58
q16 96 70.5 170t130.5 114t158 40q37 0 59 -1l71 -1h252q8 0 6 -9zM508 531q3 18 3 31q0 27 -17 38.5t-61 11.5q-72 0 -132.5 -33.5t-102 -98t-56.5 -155.5q-7 -39 -7 -80q0 -105 49 -170t136 -65q38 0 59 5t33 20.5t17 46.5z" />
    <glyph glyph-name="oe" unicode="&#x153;" horiz-adv-x="612" 
d="M585.5 387q17.5 -12 17.5 -32q0 -33 -36.5 -62t-91 -49.5t-107.5 -29.5q-5 -33 -5 -56q0 -63 27 -99.5t79 -36.5q56 0 100 33h1q3 0 5.5 -3t0.5 -6q-72 -58 -146 -58q-48 0 -78.5 24t-42.5 66q-31 -44 -74.5 -68t-87.5 -24q-57 0 -88.5 42t-31.5 109q0 32 5 56
q10 59 40.5 106t75 73.5t93.5 26.5q47 0 77 -28t39 -76q34 47 80.5 75.5t98.5 28.5q32 0 49.5 -12zM256.5 48.5q33.5 37.5 44.5 100.5q5 32 5 59q0 69 -25.5 118t-72.5 49q-41 0 -75 -39t-44 -100q-6 -30 -6 -60q0 -69 26.5 -117t72.5 -48q41 0 74.5 37.5zM536 339
q0 33 -44 33q-48 0 -78.5 -39.5t-42.5 -103.5q69 11 111 31.5t52 63.5q2 10 2 15z" />
    <glyph glyph-name="Racute" unicode="&#x154;" horiz-adv-x="614" 
d="M220 678q-4 0 -5.5 4.5t1.5 6.5q43 22 103 59q40 24 60 35q4 3 23.5 -3.5t34 -14.5t6.5 -9q-118 -30 -222 -78h-1zM592 6q0 -6 -4 -6h-108q-24 0 -72.5 82.5t-109.5 230.5q-28 -7 -60 -7l-32 1l-40 -226q-4 -19 -4 -34q0 -21 14 -28t52 -7q4 0 4 -6t-3 -6q-29 0 -45 1
l-62 1l-61 -1q-17 -1 -46 -1q-4 0 -4 6t4 6q34 0 51.5 5.5t26.5 19.5t15 44l82 463q4 26 4 32q0 22 -14.5 29.5t-53.5 7.5q-4 0 -4 6t4 6l44 -1q38 -2 61 -2q16 0 30.5 1t25.5 2q29 3 51 3q72 0 108 -26.5t36 -77.5q0 -15 -3 -33q-10 -52 -46 -94.5t-87 -66.5
q56 -122 96 -190t74.5 -98t71.5 -30q4 0 4 -6zM257 329q70 0 106 30t50 100q6 30 6 53q0 101 -102 101q-25 0 -37 -3.5t-19.5 -18.5t-12.5 -49l-37 -209q20 -4 46 -4z" />
    <glyph glyph-name="racute" unicode="&#x155;" horiz-adv-x="340" 
d="M312 726q20 5 33 5q10 0 9 -4l-147 -254q-1 -3 -6.5 -1t-3.5 4l93 240q2 5 22 10zM326 381q18 -14 18 -33q0 -15 -9.5 -25t-23.5 -10q-11 0 -17.5 5t-13.5 15q-4 5 -9 9.5t-11 4.5q-22 0 -52.5 -58t-57.5 -139t-39 -143q-1 -7 -9.5 -11t-22.5 -4q-13 0 -17.5 1.5
t-4.5 4.5l5 23l10 53l33 185q6 33 6 52q0 45 -24 45q-22 0 -61 -37l-2 -1q-3 0 -5 3.5t-1 5.5q31 34 57 51t51 17q20 0 29.5 -13t9.5 -45q0 -25 -8 -76l-21 -114q34 105 74.5 176.5t78.5 71.5q19 0 37 -14z" />
    <glyph glyph-name="Rcommaaccent" unicode="&#x156;" horiz-adv-x="614" 
d="M592 6q0 -6 -4 -6h-108q-24 0 -72.5 82.5t-109.5 230.5q-28 -7 -60 -7l-32 1l-40 -226q-4 -19 -4 -34q0 -21 14 -28t52 -7q4 0 4 -6t-3 -6q-29 0 -45 1l-62 1l-61 -1q-17 -1 -46 -1q-4 0 -4 6t4 6q34 0 51.5 5.5t26.5 19.5t15 44l82 463q4 26 4 32q0 22 -14.5 29.5
t-53.5 7.5q-4 0 -4 6t4 6l44 -1q38 -2 61 -2q16 0 30.5 1t25.5 2q29 3 51 3q72 0 108 -26.5t36 -77.5q0 -15 -3 -33q-10 -52 -46 -94.5t-87 -66.5q56 -122 96 -190t74.5 -98t71.5 -30q4 0 4 -6zM257 329q70 0 106 30t50 100q6 30 6 53q0 101 -102 101q-25 0 -37 -3.5
t-19.5 -18.5t-12.5 -49l-37 -209q20 -4 46 -4zM326.5 -102.5q14.5 -16.5 14.5 -44.5q0 -70 -80 -128l-2 -1q-4 0 -6 4.5t1 6.5q47 33 53 77q1 7 1 17q0 12 -2 16q-9 -9 -25 -9q-20 0 -30.5 11.5t-8.5 29.5q1 17 13 27t33 10q24 0 38.5 -16.5z" />
    <glyph glyph-name="rcommaaccent" unicode="&#x157;" horiz-adv-x="340" 
d="M326 381q18 -14 18 -33q0 -15 -9.5 -25t-23.5 -10q-11 0 -17.5 5t-13.5 15q-4 5 -9 9.5t-11 4.5q-22 0 -52.5 -58t-57.5 -139t-39 -143q-1 -7 -9.5 -11t-22.5 -4q-13 0 -17.5 1.5t-4.5 4.5l5 23l10 53l33 185q6 33 6 52q0 45 -24 45q-22 0 -61 -37l-2 -1q-3 0 -5 3.5
t-1 5.5q31 34 57 51t51 17q20 0 29.5 -13t9.5 -45q0 -25 -8 -76l-21 -114q34 105 74.5 176.5t78.5 71.5q19 0 37 -14zM109.5 -102.5q14.5 -16.5 14.5 -44.5q0 -70 -80 -128l-2 -1q-4 0 -6 4.5t1 6.5q47 33 53 77q1 7 1 17q0 12 -2 16q-9 -9 -25 -9q-20 0 -30.5 11.5
t-8.5 29.5q1 17 13 27t33 10q24 0 38.5 -16.5z" />
    <glyph glyph-name="Rcaron" unicode="&#x158;" horiz-adv-x="614" 
d="M242 773v1q0 2 3 4.5t4 1.5l84 -58l102 59q2 1 5.5 -3t0.5 -5l-107 -98q-4 -4 -10 -4q-5 0 -9 4zM592 6q0 -6 -4 -6h-108q-24 0 -72.5 82.5t-109.5 230.5q-28 -7 -60 -7l-32 1l-40 -226q-4 -19 -4 -34q0 -21 14 -28t52 -7q4 0 4 -6t-3 -6q-29 0 -45 1l-62 1l-61 -1
q-17 -1 -46 -1q-4 0 -4 6t4 6q34 0 51.5 5.5t26.5 19.5t15 44l82 463q4 26 4 32q0 22 -14.5 29.5t-53.5 7.5q-4 0 -4 6t4 6l44 -1q38 -2 61 -2q16 0 30.5 1t25.5 2q29 3 51 3q72 0 108 -26.5t36 -77.5q0 -15 -3 -33q-10 -52 -46 -94.5t-87 -66.5q56 -122 96 -190t74.5 -98
t71.5 -30q4 0 4 -6zM257 329q70 0 106 30t50 100q6 30 6 53q0 101 -102 101q-25 0 -37 -3.5t-19.5 -18.5t-12.5 -49l-37 -209q20 -4 46 -4z" />
    <glyph glyph-name="rcaron" unicode="&#x159;" horiz-adv-x="340" 
d="M215 472q-3 0 -5.5 1.5t-2.5 3.5l-18 249q0 3 6 3.5t6 -2.5l32 -154l87 157q1 1 3 1q3 0 6 -1.5t2 -3.5l-105 -249q-2 -5 -11 -5zM326 381q18 -14 18 -33q0 -15 -9.5 -25t-23.5 -10q-11 0 -17.5 5t-13.5 15q-4 5 -9 9.5t-11 4.5q-22 0 -52.5 -58t-57.5 -139t-39 -143
q-1 -7 -9.5 -11t-22.5 -4q-13 0 -17.5 1.5t-4.5 4.5l5 23l10 53l33 185q6 33 6 52q0 45 -24 45q-22 0 -61 -37l-2 -1q-3 0 -5 3.5t-1 5.5q31 34 57 51t51 17q20 0 29.5 -13t9.5 -45q0 -25 -8 -76l-21 -114q34 105 74.5 176.5t78.5 71.5q19 0 37 -14z" />
    <glyph glyph-name="Sacute" unicode="&#x15a;" horiz-adv-x="462" 
d="M264 678q-4 0 -5 4.5t2 6.5q37 19 113 65l49 30q4 2 23.5 -4.5t34 -14.5t7.5 -9q-62 -15 -113.5 -33.5t-108.5 -43.5zM118 -4.5q-31 7.5 -65 26.5q-8 5 -6 19l14 132q0 5 5.5 5t5.5 -5q2 -72 35.5 -120.5t100.5 -48.5q49 0 86.5 28.5t47.5 88.5q3 17 3 30
q0 49 -28.5 81.5t-82.5 69.5q-37 27 -58.5 45.5t-36.5 44.5t-15 60q0 14 3 29q10 50 40.5 85t73.5 52.5t89 17.5q53 0 108 -24q13 -7 12 -17l-13 -111q0 -4 -5.5 -4t-6.5 4q-4 59 -29 98t-82 39q-43 0 -71.5 -21.5t-42 -53.5t-13.5 -63t15 -55.5t36 -41.5t58 -43
q57 -38 87 -72t30 -85q0 -18 -2 -28q-13 -73 -73 -121.5t-155 -48.5q-34 0 -65 7.5z" />
    </font>
</defs>
</svg>
