<?xml version="1.0" standalone="no"?>
<!DOCTYPE svg PUBLIC "-//W3C//DTD SVG 1.1//EN" "http://www.w3.org/Graphics/SVG/1.1/DTD/svg11.dtd" >
<svg xmlns="http://www.w3.org/2000/svg" xmlns:xlink="http://www.w3.org/1999/xlink" version="1.1">
<metadata>
Created by FontForge 20170731 at Thu Oct 16 16:21:10 2014
 By Aleksey,,,
(c) 2014 Klim Type Foundry. All Rights Reserved. wf-rip
</metadata>
<defs>
<font id="DomaineSansDisplay-Thin" horiz-adv-x="211" >
  <font-face 
    font-family="Domaine Sans Display Thin"
    font-weight="300"
    font-stretch="normal"
    units-per-em="1000"
    panose-1="2 11 3 3 8 7 2 4 2 4"
    ascent="800"
    descent="-200"
    x-height="482"
    cap-height="700"
    bbox="-109 -237 1132 952"
    underline-thickness="10"
    underline-position="-120"
    unicode-range="U+000D-FB02"
  />
<missing-glyph horiz-adv-x="1152" 
d="M644 232l-32 19l-17 29l6 59l24 34l74 55l19 -4l48 -58l21 -65l-38 -41zM595 63l-24 3l-4 9l5 44l-2 37l-11 3l-5 -48l-30 -40l-20 -8l-43 7l-13 19v16l42 74l34 36l16 33v7l16 11l8 -9l1 -18l18 -31l15 -3l14 -31l8 -5l20 -41l-9 -50l-15 -3zM451 405l60 -60l-3 -39
l-8 -12l-17 4l-4 -19l5 -14l-8 -11l-31 -26l-34 1l-27 -12l-46 21l-19 19l-9 29l8 37l-1 6l4 37l20 22l26 43l8 3zM510 -81l-38 -19l-38 15l-2 14l12 28l-6 8l-16 2l-29 -23l-43 21v36l-35 32l-60 105l-33 86l-22 98l5 168l9 67l31 67l51 66l98 59l49 15l5 4l106 6l72 -3
l5 -6l-1 -20l-56 -78l-10 -22l-13 -71l14 -11v-7l-7 -7l-24 -13l-59 19l-32 37l1 9l-8 4l-45 -27l-62 -20l-61 -90l-14 -136l18 -72l43 -91l36 -85l57 -56l36 -17l24 4l102 -17l97 32l45 38l24 27l63 105l68 97l-19 56l10 84l-23 69l7 20l-86 48l-76 21l-83 -16l-3 4l11 81
l14 10l28 91l48 3l99 -30l76 -43l59 -91l8 -27l8 -45l-9 -46l-20 -61l3 -51l32 -40l1 -37l-94 -133l-33 -103l-9 -7l-24 -62l7 -10l-35 -24l-9 3l-30 24l-1 30l-5 2l-19 -23v-11l20 -26l-35 -35l-16 -3l-22 21l6 16l-17 17l-24 -4l-21 -65l-35 -3l-15 23l3 30l-33 -4z" />
    <glyph glyph-name="fi" unicode="fi" horiz-adv-x="520" 
d="M143 0h-49v472h-84v10h84v62q0 92 52 153.5t143 61.5q59 0 94.5 -30.5t35.5 -82.5q0 -43 -27 -67l-7 6q24 25 24 61q0 47 -32.5 75t-87.5 28q-74 0 -110 -53.5t-36 -145.5v-68h296v-482h-49v472h-247v-472z" />
    <glyph glyph-name="fl" unicode="fl" horiz-adv-x="520" 
d="M390 0v656q-8 41 -39 67t-77 26q-68 0 -99.5 -56t-31.5 -143v-68h160l-5 -10h-155v-472h-49v472h-84v10h84v62q0 91 48.5 153t131.5 62q44 0 73 -20t43 -49l11 59h38v-749h-49z" />
    <glyph glyph-name="f_b" unicode="fb" horiz-adv-x="870" 
d="M836 242q0 -110 -63 -181t-153 -71q-66 0 -114.5 39.5t-66.5 100.5l-7 -130h-42v656q-8 41 -39 67t-77 26q-68 0 -99.5 -56t-31.5 -143v-68h160l-5 -10h-155v-472h-49v472h-84v10h84v62q0 91 48.5 153t131.5 62q44 0 73 -20t43 -49l11 59h38v-398q16 59 65.5 100
t115.5 41q91 0 153.5 -70t62.5 -180zM438 286v-87q1 -88 52.5 -143t126.5 -55q77 0 121.5 69.5t44.5 173.5t-44 171t-122 67q-72 0 -125 -55t-54 -141z" />
    <glyph glyph-name="f_f_b" unicode="ffb" horiz-adv-x="1166" 
d="M916 -10q-66 0 -114.5 39.5t-66.5 100.5l-7 -130h-42v656q-8 41 -39 67t-77 26q-68 0 -99.5 -56t-31.5 -143v-68h160l-5 -10h-155v-472h-49v472h-247v-472h-49v472h-84v10h84v52q0 90 55 152.5t145 62.5q42 0 77.5 -19.5t54.5 -50.5q50 80 144 80q44 0 73 -20t43 -49
l11 59h38v-398q16 59 65.5 100t115.5 41q91 0 153.5 -70t62.5 -180t-63 -181t-153 -71zM143 482h247v62q0 70 29 123q-16 33 -49 52.5t-76 19.5q-73 0 -112 -54.5t-39 -144.5v-58zM734 286v-87q1 -88 52.5 -143t126.5 -55q77 0 121.5 69.5t44.5 173.5t-44 171t-122 67
q-72 0 -125 -55t-54 -141z" />
    <glyph glyph-name="f_f_h" unicode="ffh" horiz-adv-x="1146" 
d="M143 482h247v62q0 70 29 123q-16 33 -49 52.5t-76 19.5q-73 0 -112 -54.5t-39 -144.5v-58zM143 472v-472h-49v472h-84v10h84v52q0 90 55 152.5t145 62.5q42 0 77.5 -19.5t54.5 -50.5q50 80 144 80q44 0 73 -20t43 -49l11 59h38v-394q18 64 65.5 100.5t112.5 36.5
q75 0 117.5 -44.5t42.5 -122.5v-325h-49v335q0 144 -125 144q-66 0 -114.5 -51.5t-49.5 -132.5v-295h-49v656q-8 41 -39 67t-77 26q-68 0 -99.5 -56t-31.5 -143v-68h160l-5 -10h-155v-472h-49v472h-247z" />
    <glyph glyph-name="f_f_idieresis" unicode="ff&#xef;" horiz-adv-x="816" 
d="M143 482h247v93q0 56 24 101q-36 63 -120 63q-73 0 -112 -54.5t-39 -144.5v-58zM754 609v86h47v-86h-47zM143 472v-472h-49v472h-84v10h84v52q0 90 55 152.5t145 62.5q40 0 74 -17t53 -45q46 72 135 72q47 0 75.5 -25t28.5 -67q0 -31 -21 -50l-7 5q18 21 18 45
q0 40 -26 61t-68 21q-117 0 -117 -173v-94h296v-482h-49v472h-247v-472h-49v472h-247z" />
    <glyph glyph-name="f_f_j" unicode="ffj" horiz-adv-x="816" 
d="M143 482h247v62q0 70 30 122q-15 34 -48.5 53.5t-77.5 19.5q-73 0 -112 -54.5t-39 -144.5v-58zM592 -225q-41 0 -68.5 22.5t-27.5 65.5q0 25 12 40l9 -3q-11 -18 -11 -37q0 -40 25 -59t61 -19q55 0 74.5 42.5t19.5 132.5v512h-247v-472h-49v472h-247v-472h-49v472h-84v10
h84v52q0 90 55 152.5t145 62.5q43 0 79 -20t54 -52q52 82 158 82q59 0 94.5 -30.5t35.5 -82.5q0 -43 -27 -67l-7 6q24 25 24 61q0 47 -32.5 75t-87.5 28q-74 0 -110 -53.5t-36 -145.5v-68h296v-530q0 -82 -36 -129.5t-107 -47.5z" />
    <glyph glyph-name="f_f_k" unicode="ffk" horiz-adv-x="1109" 
d="M143 482h247v62q0 70 29 123q-16 33 -49 52.5t-76 19.5q-73 0 -112 -54.5t-39 -144.5v-58zM143 472v-472h-49v472h-84v10h84v52q0 90 55 152.5t145 62.5q42 0 77.5 -19.5t54.5 -50.5q50 80 144 80q44 0 73 -20t43 -49l11 59h38v-563l330 296h13l-222 -199l235 -283h-62
l-207 252l-87 -78v-174h-49v656q-8 41 -39 67t-77 26q-68 0 -99.5 -56t-31.5 -143v-68h160l-5 -10h-155v-472h-49v472h-247z" />
    <glyph glyph-name="f_h" unicode="fh" horiz-adv-x="850" 
d="M143 472v-472h-49v472h-84v10h84v62q0 91 48.5 153t131.5 62q44 0 73 -20t43 -49l11 59h38v-394q18 64 65.5 100.5t112.5 36.5q75 0 117.5 -44.5t42.5 -122.5v-325h-49v335q0 144 -125 144q-66 0 -114.5 -51.5t-49.5 -132.5v-295h-49v656q-8 41 -39 67t-77 26
q-68 0 -99.5 -56t-31.5 -143v-68h160l-5 -10h-155z" />
    <glyph glyph-name="f_idieresis" unicode="f&#xef;" horiz-adv-x="520" 
d="M458 609v86h47v-86h-47zM94 482v93q0 80 46 132t120 52q47 0 75.5 -25t28.5 -67q0 -31 -21 -50l-7 5q18 21 18 45q0 40 -26 61t-68 21q-117 0 -117 -173v-94h296v-482h-49v472h-247v-472h-49v472h-84v10h84z" />
    <glyph glyph-name="f_j" unicode="fj" horiz-adv-x="520" 
d="M296 -225q-41 0 -68.5 22.5t-27.5 65.5q0 25 12 40l9 -3q-11 -18 -11 -37q0 -40 25 -59t61 -19q55 0 74.5 42.5t19.5 132.5v512h-247v-472h-49v472h-84v10h84v62q0 92 52 153.5t143 61.5q59 0 94.5 -30.5t35.5 -82.5q0 -43 -27 -67l-7 6q24 25 24 61q0 47 -32.5 75
t-87.5 28q-74 0 -110 -53.5t-36 -145.5v-68h296v-530q0 -82 -36 -129.5t-107 -47.5z" />
    <glyph glyph-name="f_k" unicode="fk" horiz-adv-x="813" 
d="M143 472v-472h-49v472h-84v10h84v62q0 91 48.5 153t131.5 62q44 0 73 -20t43 -49l11 59h38v-563l330 296h13l-222 -199l235 -283h-62l-207 252l-87 -78v-174h-49v656q-8 41 -39 67t-77 26q-68 0 -99.5 -56t-31.5 -143v-68h160l-5 -10h-155z" />
    <glyph glyph-name="f_f" unicode="ff" horiz-adv-x="574" 
d="M143 482h247v93q0 56 24 101q-36 63 -120 63q-73 0 -112 -54.5t-39 -144.5v-58zM143 472v-472h-49v472h-84v10h84v52q0 90 55 152.5t145 62.5q40 0 74 -17t53 -45q46 72 135 72q47 0 75.5 -25t28.5 -67q0 -31 -21 -50l-7 5q18 21 18 45q0 40 -26 61t-68 21
q-117 0 -117 -173v-94h150l-5 -10h-145v-472h-49v472h-247z" />
    <glyph glyph-name="f_f_i" unicode="ffi" horiz-adv-x="816" 
d="M143 482h247v62q0 70 30 122q-15 34 -48.5 53.5t-77.5 19.5q-73 0 -112 -54.5t-39 -144.5v-58zM143 472v-472h-49v472h-84v10h84v52q0 90 55 152.5t145 62.5q43 0 79 -20t54 -52q52 82 158 82q59 0 94.5 -30.5t35.5 -82.5q0 -43 -27 -67l-7 6q24 25 24 61q0 47 -32.5 75
t-87.5 28q-74 0 -110 -53.5t-36 -145.5v-68h296v-482h-49v472h-247v-472h-49v472h-247z" />
    <glyph glyph-name="f_f_l" unicode="ffl" horiz-adv-x="816" 
d="M143 482h247v62q0 70 29 123q-16 33 -49 52.5t-76 19.5q-73 0 -112 -54.5t-39 -144.5v-58zM143 472v-472h-49v472h-84v10h84v52q0 90 55 152.5t145 62.5q42 0 77.5 -19.5t54.5 -50.5q50 80 144 80q44 0 73 -20t43 -49l11 59h38v-749h-49v656q-8 41 -39 67t-77 26
q-68 0 -99.5 -56t-31.5 -143v-68h160l-5 -10h-155v-472h-49v472h-247z" />
    <glyph glyph-name=".notdef" horiz-adv-x="1152" 
d="M644 232l-32 19l-17 29l6 59l24 34l74 55l19 -4l48 -58l21 -65l-38 -41zM595 63l-24 3l-4 9l5 44l-2 37l-11 3l-5 -48l-30 -40l-20 -8l-43 7l-13 19v16l42 74l34 36l16 33v7l16 11l8 -9l1 -18l18 -31l15 -3l14 -31l8 -5l20 -41l-9 -50l-15 -3zM451 405l60 -60l-3 -39
l-8 -12l-17 4l-4 -19l5 -14l-8 -11l-31 -26l-34 1l-27 -12l-46 21l-19 19l-9 29l8 37l-1 6l4 37l20 22l26 43l8 3zM510 -81l-38 -19l-38 15l-2 14l12 28l-6 8l-16 2l-29 -23l-43 21v36l-35 32l-60 105l-33 86l-22 98l5 168l9 67l31 67l51 66l98 59l49 15l5 4l106 6l72 -3
l5 -6l-1 -20l-56 -78l-10 -22l-13 -71l14 -11v-7l-7 -7l-24 -13l-59 19l-32 37l1 9l-8 4l-45 -27l-62 -20l-61 -90l-14 -136l18 -72l43 -91l36 -85l57 -56l36 -17l24 4l102 -17l97 32l45 38l24 27l63 105l68 97l-19 56l10 84l-23 69l7 20l-86 48l-76 21l-83 -16l-3 4l11 81
l14 10l28 91l48 3l99 -30l76 -43l59 -91l8 -27l8 -45l-9 -46l-20 -61l3 -51l32 -40l1 -37l-94 -133l-33 -103l-9 -7l-24 -62l7 -10l-35 -24l-9 3l-30 24l-1 30l-5 2l-19 -23v-11l20 -26l-35 -35l-16 -3l-22 21l6 16l-17 17l-24 -4l-21 -65l-35 -3l-15 23l3 30l-33 -4z" />
    <glyph glyph-name=".null" horiz-adv-x="474" 
 />
    <glyph glyph-name="uni000D" unicode="&#xd;" horiz-adv-x="474" 
 />
    <glyph glyph-name="space" unicode=" " horiz-adv-x="230" 
 />
    <glyph glyph-name="exclam" unicode="!" horiz-adv-x="198" 
d="M101 195h-4l-33 505h70zM64 0v77h69v-77h-69z" />
    <glyph glyph-name="quotedbl" unicode="&#x22;" horiz-adv-x="322" 
d="M223 449h-4l-19 251h42zM103 449h-4l-19 251h42z" />
    <glyph glyph-name="numbersign" unicode="#" horiz-adv-x="660" 
d="M399 264l28 197h-173l-28 -197h173zM361 0l36 254h-173l-36 -254h-10l36 254h-164v10h166l28 197h-159v10h160l33 229h10l-33 -229h173l33 229h10l-33 -229h172v-10h-173l-28 -197h166v-10h-168l-36 -254h-10z" />
    <glyph glyph-name="dollar" unicode="$" horiz-adv-x="535" 
d="M235 398l75 -21v319q-21 4 -50 4q-10 0 -30 -2v-299zM86 546q0 -62 34 -93t100 -51v295q-60 -11 -97 -51t-37 -100zM269 0q21 0 41 3v325l-80 21v-347q26 -2 39 -2zM462 168q0 67 -38 103t-104 55v-321q67 13 104.5 58.5t37.5 104.5zM269 -10q-13 0 -39 2v-98h-10v99
q-84 11 -136 58.5t-56 120.5l10 2q3 -69 52 -114.5t130 -56.5v349q-87 24 -130 63t-43 113q0 69 49 118t124 61v95h10v-94q20 2 30 2q29 0 50 -4v96h10v-98q61 -13 103 -49t57 -89l-11 -5q-13 52 -52 86.5t-97 46.5v-320q88 -24 135 -66t47 -114q0 -82 -52 -133.5
t-130 -65.5v-101h-10v99q-21 -3 -41 -3z" />
    <glyph glyph-name="percent" unicode="%" horiz-adv-x="663" 
d="M149 0h-11l359 678q-19 -22 -55 -36.5t-76 -14.5q-45 0 -81 21q25 -39 25 -84q0 -58 -38.5 -102t-91.5 -44t-91.5 44t-38.5 102t38.5 102t91.5 44q28 0 50.5 -11.5t35.5 -25t39 -25t61 -11.5q96 0 152 77l6 -4zM266 564q0 57 -22 96.5t-64 39.5t-64 -39.5t-22 -96.5
t22 -96.5t64 -39.5t64 39.5t22 96.5zM353 141q0 58 38.5 102t91.5 44t91.5 -44t38.5 -102t-38.5 -102t-91.5 -44t-91.5 44t-38.5 102zM569 141q0 57 -22 96.5t-64 39.5t-64 -39.5t-22 -96.5t22 -96.5t64 -39.5t64 39.5t22 96.5z" />
    <glyph glyph-name="ampersand" unicode="&#x26;" horiz-adv-x="761" 
d="M625 -10q-41 0 -73.5 17.5t-71.5 65.5q-93 -83 -219 -83q-95 0 -161.5 54t-66.5 135q0 79 59 134t146 87l-24 33q-50 66 -50 128q0 64 45 106.5t108 42.5q60 0 96 -37t36 -95q0 -59 -44.5 -101t-110.5 -68l216 -292q50 57 77.5 132.5t27.5 149.5h10q0 -75 -28.5 -153
t-80.5 -137l4 -6q40 -54 67.5 -73.5t61.5 -19.5q36 0 65.5 31.5t33.5 90.5l10 -2q-3 -63 -41 -101.5t-92 -38.5zM259 456l29 -39q64 23 107.5 64t43.5 97q0 54 -32.5 88t-89.5 35q-48 1 -79.5 -31.5t-31.5 -85.5q0 -57 53 -128zM275 6q113 0 199 75q-2 2 -8 10l-221 300
q-67 -23 -112.5 -70t-45.5 -125q0 -84 53.5 -137t134.5 -53z" />
    <glyph glyph-name="quotesingle" unicode="'" horiz-adv-x="202" 
d="M103 449h-4l-19 251h42z" />
    <glyph glyph-name="parenleft" unicode="(" horiz-adv-x="308" 
d="M110 297q0 -102 9 -171t32.5 -119.5t49 -81.5t73.5 -74l-6 -6q-98 76 -153 195.5t-55 256.5t55 256.5t153 195.5l6 -6q-48 -43 -73.5 -74t-49 -81.5t-32.5 -119.5t-9 -171z" />
    <glyph glyph-name="parenright" unicode=")" horiz-adv-x="308" 
d="M34 -149q48 43 73.5 74t49 81.5t32.5 119.5t9 171t-9 171t-32.5 119.5t-49 81.5t-73.5 74l6 6q98 -76 153 -195.5t55 -256.5t-55 -256.5t-153 -195.5z" />
    <glyph glyph-name="asterisk" unicode="*" horiz-adv-x="430" 
d="M220 419h-10v156l-135 -78l-5 9l135 78l-135 77l5 9l135 -78v156h10v-156l135 78l5 -9l-135 -77l135 -78l-5 -9l-135 78v-156z" />
    <glyph glyph-name="plus" unicode="+" horiz-adv-x="463" 
d="M419 315h-183v-182h-10v182h-182v10h182v182h10v-182h183v-10z" />
    <glyph glyph-name="comma" unicode="," horiz-adv-x="191" 
d="M61 0v77h69v-88q0 -126 -116 -126v10q106 0 106 117v10h-59z" />
    <glyph glyph-name="hyphen" unicode="-" horiz-adv-x="369" 
d="M60 269v13h249v-13h-249z" />
    <glyph glyph-name="period" unicode="." horiz-adv-x="191" 
d="M61 0v77h69v-77h-69z" />
    <glyph glyph-name="slash" unicode="/" horiz-adv-x="351" 
d="M20 -153l300 902h11l-300 -902h-11z" />
    <glyph glyph-name="zero" unicode="0" horiz-adv-x="586" 
d="M33 350q0 141 74.5 250.5t185.5 109.5t185.5 -109.5t74.5 -250.5t-74.5 -250.5t-185.5 -109.5t-185.5 109.5t-74.5 250.5zM89 350q0 -74 10.5 -134.5t33.5 -110t64 -77.5t96 -28t96 28t64 77.5t33.5 110t10.5 134.5t-10.5 134.5t-33.5 110t-64 77.5t-96 28t-96 -28
t-64 -77.5t-33.5 -110t-10.5 -134.5z" />
    <glyph glyph-name="one" unicode="1" horiz-adv-x="314" 
d="M223 0h-51v621q-21 -32 -60.5 -72t-84.5 -62l-4 9q54 28 104.5 84t87.5 130h8v-710z" />
    <glyph glyph-name="two" unicode="2" horiz-adv-x="495" 
d="M67 45h403v-45h-456v7l209 200q94 89 135 161t41 160q0 82 -41 127t-123 45q-84 0 -137.5 -52.5t-53.5 -123.5q0 -76 54 -112l-6 -8q-58 38 -58 120q0 76 56.5 131t144.5 55q96 0 156 -50t60 -132q0 -36 -14 -72.5t-34.5 -69t-66 -81t-87 -88.5t-118.5 -112
q-42 -39 -64 -60z" />
    <glyph glyph-name="three" unicode="3" horiz-adv-x="519" 
d="M246 -10q-104 0 -161.5 50.5t-57.5 119.5q0 79 70 114l5 -8q-27 -12 -46 -41t-19 -65q0 -65 55 -112.5t154 -47.5q94 0 143.5 55t49.5 145q0 174 -217 174h-20v10h20q189 0 189 160q0 75 -40 115.5t-118 40.5q-80 0 -131 -40.5t-51 -106.5t58 -93l-4 -9q-64 30 -64 102
q0 69 54 113t138 44q90 0 150 -45t60 -121q0 -46 -32 -84t-75 -58t-84 -22v-2q86 -4 152.5 -54t66.5 -132q0 -87 -70 -144.5t-175 -57.5z" />
    <glyph glyph-name="four" unicode="4" horiz-adv-x="571" 
d="M560 225v-11h-165v-214h-51v214h-333v7l340 479h44v-475h165zM344 225v448l-317 -448h317z" />
    <glyph glyph-name="five" unicode="5" horiz-adv-x="503" 
d="M455 700l-8 -46h-324l-36 -296q22 43 69.5 70t105.5 27q94 0 155 -58t61 -154q0 -104 -75 -178.5t-192 -74.5q-86 0 -140.5 47.5t-54.5 121.5q0 40 18 70t48 45l6 -7q-62 -34 -62 -108q0 -71 52.5 -115t132.5 -44q106 0 160.5 63.5t54.5 179.5q0 92 -43 147t-121 55
q-123 0 -179 -108h-8l44 363h336z" />
    <glyph glyph-name="six" unicode="6" horiz-adv-x="530" 
d="M502 211q0 -91 -63 -156t-159 -65q-108 0 -177.5 95.5t-69.5 238.5q0 97 33 183.5t101.5 144.5t156.5 58q76 0 123 -37.5t47 -99.5q0 -40 -20.5 -65t-46.5 -32l-3 8q60 22 60 89q0 57 -44 92t-116 35q-84 0 -141.5 -61.5t-80.5 -157t-16 -209.5q16 70 70 113t125 43
q94 0 157.5 -61t63.5 -156zM89 209q0 -86 54 -147.5t137 -61.5q86 0 128.5 60t42.5 151q0 98 -44 152.5t-126 54.5q-76 0 -134 -54.5t-58 -154.5z" />
    <glyph glyph-name="seven" unicode="7" horiz-adv-x="456" 
d="M16 700h437v-4l-33 -61q-91 -169 -136.5 -312t-45.5 -323h-48q0 102 31 211t63.5 177.5t109.5 215.5q10 20 16 31l10 19h-404v46z" />
    <glyph glyph-name="eight" unicode="8" horiz-adv-x="522" 
d="M312 371q97 -35 139.5 -77.5t42.5 -109.5q0 -77 -64.5 -135.5t-163.5 -58.5q-100 0 -169 52t-69 140q0 65 46.5 112.5t120.5 72.5q-135 62 -135 169q0 73 56.5 123.5t139.5 50.5q84 0 138 -47t54 -117q0 -122 -136 -175zM102 548q0 -52 34 -83.5t91 -56.5l74 -32
q137 52 137 170q0 66 -51.5 110t-130.5 44q-65 0 -109.5 -41t-44.5 -111zM308 320l-103 42q-74 -26 -120.5 -71t-46.5 -109q0 -84 67 -133t161 -49q86 0 136.5 46t50.5 123q0 54 -37 88t-108 63z" />
    <glyph glyph-name="nine" unicode="9" horiz-adv-x="530" 
d="M441 491q0 86 -54 147.5t-137 61.5q-86 0 -128.5 -60t-42.5 -151q0 -98 44 -152.5t126 -54.5q76 0 134 54.5t58 154.5zM28 489q0 91 63 156t159 65q109 0 178 -98t69 -252q0 -53 -10 -104.5t-32 -100t-54 -85t-79.5 -58.5t-103.5 -22q-76 0 -124 39.5t-48 101.5
q0 40 20.5 65t46.5 32l3 -8q-60 -22 -60 -89q0 -58 45 -94.5t117 -36.5q68 0 116 35t72.5 97t33.5 135.5t4 160.5q-16 -70 -70 -113t-125 -43q-94 0 -157.5 61t-63.5 156z" />
    <glyph glyph-name="colon" unicode=":" horiz-adv-x="191" 
d="M61 331v77h69v-77h-69zM61 0v77h69v-77h-69z" />
    <glyph glyph-name="semicolon" unicode=";" horiz-adv-x="191" 
d="M61 331v77h69v-77h-69zM61 0v77h69v-88q0 -126 -116 -126v10q106 0 106 117v10h-59z" />
    <glyph glyph-name="less" unicode="&#x3c;" horiz-adv-x="372" 
d="M44 305v10l284 165v-10l-276 -160l276 -160v-10z" />
    <glyph glyph-name="equal" unicode="=" horiz-adv-x="479" 
d="M44 380v10h391v-10h-391zM44 237v10h391v-10h-391z" />
    <glyph glyph-name="greater" unicode="&#x3e;" horiz-adv-x="372" 
d="M328 305l-284 -165v10l276 160l-276 160v10l284 -165v-10z" />
    <glyph glyph-name="question" unicode="?" horiz-adv-x="497" 
d="M409 536q0 76 -43 120t-125 44q-84 0 -137.5 -52t-53.5 -124q0 -76 54 -112l-6 -8q-58 38 -58 120q0 76 56.5 131t144.5 55q96 0 156 -50t60 -132q0 -96 -65 -155t-157 -72v-106h-10v155q78 10 131 62t53 124zM195 0v77h69v-77h-69z" />
    <glyph glyph-name="at" unicode="@" horiz-adv-x="941" 
d="M670 28q32 0 67 15.5t68 45.5t54.5 85t21.5 125q0 158 -111.5 251t-278.5 93q-179 0 -305 -123t-126 -312q0 -180 120 -292.5t306 -112.5q167 0 284 88l6 -8q-118 -90 -290 -90q-190 0 -313 116t-123 299q0 128 60.5 230.5t161 158.5t219.5 56q170 0 285 -95.5
t115 -258.5q0 -71 -22.5 -128t-57.5 -88.5t-72.5 -48t-73.5 -16.5q-48 0 -80.5 33.5t-21.5 87.5q-24 -50 -67.5 -84.5t-92.5 -34.5q-59 0 -95.5 40t-36.5 105q0 107 66 187.5t158 80.5q52 0 81 -33.5t30 -84.5l35 110h35l-70 -280q-13 -54 5 -85.5t59 -31.5zM574 184l16 63
q8 42 8 57q0 54 -27.5 86.5t-75.5 32.5q-54 0 -97 -43t-64 -104.5t-22 -127.5q-1 -55 22 -86.5t70 -31.5q54 0 101.5 44t68.5 110z" />
    <glyph glyph-name="A" unicode="A" horiz-adv-x="653" 
d="M469 265l-168 375l-161 -375h329zM587 0l-113 254h-338l-109 -254h-12l304 710h4l315 -710h-51z" />
    <glyph glyph-name="B" unicode="B" horiz-adv-x="629" 
d="M338 0h-240v700h211q110 0 178.5 -42t68.5 -131q0 -69 -52.5 -115.5t-126.5 -49.5v-2q93 -3 150.5 -48.5t57.5 -127.5q0 -90 -67.5 -137t-179.5 -47zM149 689v-323h158q196 0 196 161q0 162 -195 162h-159zM309 355h-160v-344h188q95 0 145 39t50 133q0 172 -223 172z
" />
    <glyph glyph-name="C" unicode="C" horiz-adv-x="665" 
d="M35 350q0 154 97.5 257t238.5 103q89 0 158.5 -43.5t103.5 -132.5l-9 -4q-32 84 -98.5 127t-154.5 43q-127 0 -203.5 -91.5t-76.5 -258.5t76.5 -258.5t203.5 -91.5q89 0 156 41.5t100 126.5l9 -4q-35 -89 -105 -131.5t-160 -42.5q-141 0 -238.5 103t-97.5 257z" />
    <glyph glyph-name="D" unicode="D" horiz-adv-x="721" 
d="M290 0h-192v700h196q182 0 287 -94t105 -250q0 -158 -106 -257t-290 -99zM630 356q0 333 -342 333h-139v-678h138q172 0 257.5 92t85.5 253z" />
    <glyph glyph-name="E" unicode="E" horiz-adv-x="596" 
d="M98 0v700h442v-11h-391v-324h295v-11h-295v-343h401v-11h-452z" />
    <glyph glyph-name="F" unicode="F" horiz-adv-x="550" 
d="M98 0v700h422v-11h-371v-334h295v-11h-295v-344h-51z" />
    <glyph glyph-name="G" unicode="G" horiz-adv-x="725" 
d="M669 -10h-4l-51 153q-24 -65 -86.5 -109t-150.5 -44q-145 0 -243.5 102t-98.5 258q0 155 101 257.5t246 102.5q91 0 163 -43t108 -132l-9 -4q-34 84 -103 126.5t-159 42.5q-131 0 -211 -91t-80 -259q0 -169 77.5 -259.5t208.5 -90.5q102 0 171.5 63t69.5 168v82h51v-323z
" />
    <glyph glyph-name="H" unicode="H" horiz-adv-x="785" 
d="M98 0v700h51v-335h487v335h51v-700h-51v354h-487v-354h-51z" />
    <glyph glyph-name="I" unicode="I" horiz-adv-x="247" 
d="M149 700v-700h-51v700h51z" />
    <glyph glyph-name="J" unicode="J" horiz-adv-x="555" 
d="M422 220v480h51v-471q0 -107 -66 -173t-169 -66q-96 0 -154 55t-58 139q0 45 19 81.5t46 54.5l5 -8q-60 -45 -60 -128q0 -80 55.5 -132t146.5 -52q92 0 138 57t46 163z" />
    <glyph glyph-name="K" unicode="K" horiz-adv-x="666" 
d="M579 0l-323 365l-107 -98v-267h-51v700h51v-419l457 419h15l-331 -303l353 -397h-64z" />
    <glyph glyph-name="L" unicode="L" horiz-adv-x="571" 
d="M98 0v700h51v-689h381v-11h-432z" />
    <glyph glyph-name="M" unicode="M" horiz-adv-x="868" 
d="M719 680l-287 -690h-4l-319 690v-680h-11v700h57l295 -640l266 640h54v-700h-51v680z" />
    <glyph glyph-name="N" unicode="N" horiz-adv-x="756" 
d="M647 74v626h11v-710h-4l-545 637v-627h-11v710h4z" />
    <glyph glyph-name="O" unicode="O" horiz-adv-x="752" 
d="M35 350q0 155 100.5 257.5t240.5 102.5t240.5 -102.5t100.5 -257.5t-100.5 -257.5t-240.5 -102.5t-240.5 102.5t-100.5 257.5zM91 350q0 -165 76.5 -257.5t208.5 -92.5t208.5 92.5t76.5 257.5t-76.5 257.5t-208.5 92.5t-208.5 -92.5t-76.5 -257.5z" />
    <glyph glyph-name="P" unicode="P" horiz-adv-x="612" 
d="M325 312h-176v-312h-51v700h227q118 0 193 -46.5t75 -147.5t-75 -147.5t-193 -46.5zM149 323h183q93 0 147.5 47t54.5 136t-54.5 136t-147.5 47h-183v-366z" />
    <glyph glyph-name="Q" unicode="Q" horiz-adv-x="752" 
d="M629 -161q-125 0 -190 157q-30 -6 -63 -6q-140 0 -240.5 102.5t-100.5 257.5t100.5 257.5t240.5 102.5t240.5 -102.5t100.5 -257.5q0 -132 -75.5 -228t-189.5 -123q59 -150 177 -150q49 0 80 29t33 80l11 -1q-1 -54 -36.5 -86t-87.5 -32zM91 350q0 -165 76.5 -257.5
t208.5 -92.5t208.5 92.5t76.5 257.5t-76.5 257.5t-208.5 92.5t-208.5 -92.5t-76.5 -257.5z" />
    <glyph glyph-name="R" unicode="R" horiz-adv-x="690" 
d="M149 689v-357h193q201 0 201 180q0 177 -202 177h-192zM149 321v-321h-51v700h236q117 0 192.5 -45t75.5 -143q0 -47 -21 -84.5t-53.5 -58.5t-66 -31.5t-65.5 -11.5v-2q64 -7 101.5 -34.5t56.5 -80.5l44 -123q21 -59 51 -86h-60q-18 24 -40 83l-42 115q-24 65 -64 94
t-119 29h-175z" />
    <glyph glyph-name="S" unicode="S" horiz-adv-x="579" 
d="M499 168q0 69 -44.5 105.5t-120.5 54.5l-95 23q-97 24 -144.5 63t-47.5 114q0 78 66.5 130t161.5 52q84 0 148.5 -36t94.5 -98l-9 -7q-29 61 -91 96t-143 35t-134.5 -42t-53.5 -112q0 -35 12 -60t37 -41.5t50.5 -26.5t65.5 -20l89 -23q96 -24 147 -66.5t51 -114.5
q0 -96 -72 -150t-171 -54q-96 0 -173.5 45t-105.5 122l9 5q29 -76 103 -119t167 -43q95 0 149 48.5t54 119.5z" />
    <glyph glyph-name="T" unicode="T" horiz-adv-x="657" 
d="M303 0v689h-283v11h617v-11h-284v-689h-50z" />
    <glyph glyph-name="U" unicode="U" horiz-adv-x="717" 
d="M624 700h11v-433q0 -129 -75.5 -203t-188.5 -74q-144 0 -216.5 76t-72.5 202v432h51v-419q0 -126 57.5 -198.5t180.5 -72.5q113 0 183 67.5t70 192.5v430z" />
    <glyph glyph-name="V" unicode="V" horiz-adv-x="653" 
d="M334 -10h-4l-315 710h51l286 -640l274 640h12z" />
    <glyph glyph-name="W" unicode="W" horiz-adv-x="903" 
d="M640 -10l-187 530l-179 -530h-4l-255 710h52l225 -623l155 460l-57 163h50l221 -626l215 626h12l-244 -710h-4z" />
    <glyph glyph-name="X" unicode="X" horiz-adv-x="638" 
d="M29 0h-14l275 365l-251 335h59l225 -300l226 300h14l-233 -310l293 -390h-59l-267 356z" />
    <glyph glyph-name="Y" unicode="Y" horiz-adv-x="597" 
d="M321 303l250 397h11l-257 -411v-289h-51v289l-259 411h57z" />
    <glyph glyph-name="Z" unicode="Z" horiz-adv-x="636" 
d="M589 11v-11h-551v4l487 685h-451v11h512v-4l-487 -685h490z" />
    <glyph glyph-name="bracketleft" unicode="[" horiz-adv-x="263" 
d="M66 -154v903h166v-6l-126 -4v-883l126 -4v-6h-166z" />
    <glyph glyph-name="backslash" unicode="\" horiz-adv-x="351" 
d="M331 -153h-11l-300 902h11z" />
    <glyph glyph-name="bracketright" unicode="]" horiz-adv-x="263" 
d="M197 749v-903h-166v6l126 4v883l-126 4v6h166z" />
    <glyph glyph-name="asciicircum" unicode="^" horiz-adv-x="490" 
d="M244 710h2l204 -278h-10l-195 266l-195 -266h-10z" />
    <glyph glyph-name="underscore" unicode="_" horiz-adv-x="369" 
d="M60 -72v13h249v-13h-249z" />
    <glyph glyph-name="grave" unicode="`" horiz-adv-x="500" 
d="M315 561l-134 188h49l89 -188h-4z" />
    <glyph glyph-name="a" unicode="a" horiz-adv-x="491" 
d="M370 258l-143 -23q-72 -11 -106.5 -39t-34.5 -79q0 -52 31 -81t79 -29q68 0 117 56t57 132v63zM370 268v77q0 64 -34.5 100.5t-103.5 36.5q-68 0 -109 -33t-41 -84q0 -40 32 -66l-6 -7q-36 27 -36 73q0 56 45.5 91.5t121.5 35.5q89 0 134 -41.5t45 -111.5v-339h-41
l-6 152q-17 -64 -67 -113t-127 -49q-61 0 -100 33t-39 87q0 106 188 135z" />
    <glyph glyph-name="b" unicode="b" horiz-adv-x="562" 
d="M130 130l-7 -130h-42v749h49v-398q16 59 65.5 100t115.5 41q91 0 153.5 -70t62.5 -180t-63 -181t-153 -71q-66 0 -114.5 39.5t-66.5 100.5zM129 286v-87q1 -88 52.5 -143t126.5 -55q77 0 121.5 69.5t44.5 173.5t-44 171t-122 67q-72 0 -125 -55t-54 -141z" />
    <glyph glyph-name="c" unicode="c" horiz-adv-x="480" 
d="M279 483q-82 0 -136.5 -63.5t-54.5 -183.5q0 -110 46 -172.5t133 -62.5q67 0 115 40t62 112l10 -3q-15 -76 -66.5 -118t-129.5 -42q-87 0 -155 68.5t-68 177.5q0 111 73.5 183.5t170.5 72.5q71 0 114 -39t43 -99q0 -51 -35 -86l-7 7q32 30 32 79q0 56 -40 92.5t-107 36.5
z" />
    <glyph glyph-name="d" unicode="d" horiz-adv-x="562" 
d="M433 196v87q-1 88 -52.5 143t-126.5 55q-77 0 -121.5 -69.5t-44.5 -173.5t44 -171t122 -67q72 0 125 55t54 141zM432 352v397h49v-749h-45l-4 131q-16 -59 -65.5 -100t-115.5 -41q-91 0 -153.5 70t-62.5 180t63 181t153 71q66 0 114.5 -39.5t66.5 -100.5z" />
    <glyph glyph-name="e" unicode="e" horiz-adv-x="495" 
d="M459 150q-17 -76 -69 -118t-130 -42q-86 0 -155.5 70t-69.5 178q0 110 65.5 182t152.5 72q94 0 150.5 -64.5t56.5 -161.5h-371q-1 -9 -1 -28q0 -111 45.5 -174t134.5 -63q69 0 117.5 39.5t63.5 111.5zM253 483q-65 0 -110.5 -51.5t-53.5 -155.5h316q0 93 -35.5 150
t-116.5 57z" />
    <glyph glyph-name="f" unicode="f" horiz-adv-x="278" 
d="M143 576v-94h150l-5 -10h-145v-472h-49v472h-84v10h84v93q0 80 46 132t120 52q47 0 75.5 -25t28.5 -67q0 -31 -21 -50l-7 5q18 21 18 45q0 40 -26 61t-68 21q-117 0 -117 -173z" />
    <glyph glyph-name="g" unicode="g" horiz-adv-x="511" 
d="M366 332q0 67 -33 109t-96 42t-96 -42t-33 -109q0 -68 33 -110t96 -42t96 42t33 110zM498 -42q0 -81 -78.5 -132t-185.5 -51q-108 0 -173 36.5t-65 105.5q0 52 44.5 85t100.5 34q-36 6 -59.5 26.5t-23.5 53.5q0 57 71 86q-74 48 -74 130q0 66 53 113t129 47q72 0 124 -42
q51 77 106 77q28 0 45 -17t17 -44q0 -28 -14 -46l-8 6q12 15 12 40q0 22 -14.5 36.5t-37.5 14.5q-52 0 -98 -74q52 -47 52 -111q0 -67 -54 -114t-130 -47q-53 0 -100 26q-67 -25 -67 -71q0 -49 87 -49h194q68 0 107.5 -29t39.5 -90zM354 31h-191q-56 0 -106.5 -29t-50.5 -85
q0 -65 62.5 -98.5t165.5 -33.5q96 0 167.5 42.5t71.5 114.5q0 42 -30 65.5t-89 23.5z" />
    <glyph glyph-name="h" unicode="h" horiz-adv-x="541" 
d="M81 749h49v-394q18 64 65.5 100.5t112.5 36.5q75 0 117.5 -44.5t42.5 -122.5v-325h-49v335q0 144 -125 144q-66 0 -114.5 -51.5t-49.5 -132.5v-295h-49v749z" />
    <glyph glyph-name="i" unicode="i" 
d="M79 609v86h53v-86h-53zM130 482v-482h-49v482h49z" />
    <glyph glyph-name="j" unicode="j" 
d="M79 609v86h53v-86h-53zM130 -48q0 -82 -36 -129.5t-107 -47.5q-41 0 -68.5 22.5t-27.5 65.5q0 25 12 40l9 -3q-11 -18 -11 -37q0 -40 25 -59t61 -19q55 0 74.5 42.5t19.5 132.5v522h49v-530z" />
    <glyph glyph-name="k" unicode="k" horiz-adv-x="500" 
d="M424 0l-207 252l-87 -78v-174h-49v749h49v-563l330 296h13l-222 -199l235 -283h-62z" />
    <glyph glyph-name="l" unicode="l" 
d="M130 749v-749h-49v749h49z" />
    <glyph glyph-name="m" unicode="m" horiz-adv-x="837" 
d="M447 301v-301h-49v335q0 64 -28.5 103.5t-89.5 39.5t-103.5 -47.5t-46.5 -129.5v-301h-49v482h45l4 -124q38 134 167 134q64 0 102.5 -36.5t45.5 -104.5q17 67 61 104t108 37q72 0 111 -45t39 -129v-318h-49v335q0 64 -28.5 103.5t-89.5 39.5t-103.5 -47.5t-46.5 -129.5z
" />
    <glyph glyph-name="n" unicode="n" horiz-adv-x="541" 
d="M130 295v-295h-49v482h45l4 -127q18 64 65.5 100.5t112.5 36.5q75 0 117.5 -44.5t42.5 -122.5v-325h-49v335q0 144 -125 144q-66 0 -114.5 -51.5t-49.5 -132.5z" />
    <glyph glyph-name="o" unicode="o" horiz-adv-x="532" 
d="M266 -10q-97 0 -164 74t-67 176q0 103 67 177.5t164 74.5t164 -74.5t67 -177.5q0 -102 -67 -176t-164 -74zM266 483q-83 0 -130.5 -62.5t-47.5 -180.5q0 -117 47.5 -179t130.5 -62t130.5 62t47.5 179q0 118 -47.5 180.5t-130.5 62.5z" />
    <glyph glyph-name="p" unicode="p" horiz-adv-x="562" 
d="M129 286v-87q1 -88 52.5 -143t126.5 -55q77 0 121.5 69.5t44.5 173.5t-44 171t-122 67q-72 0 -125 -55t-54 -141zM130 130v-345h-49v697h45l4 -131q16 59 65.5 100t115.5 41q91 0 153.5 -70t62.5 -180t-63 -181t-153 -71q-66 0 -114.5 39.5t-66.5 100.5z" />
    <glyph glyph-name="q" unicode="q" horiz-adv-x="562" 
d="M432 352l2 130h47v-697h-49v346q-16 -59 -65.5 -100t-115.5 -41q-91 0 -153.5 70t-62.5 180t63 181t153 71q66 0 114.5 -39.5t66.5 -100.5zM433 196v87q-1 88 -52.5 143t-126.5 55q-77 0 -121.5 -69.5t-44.5 -173.5t44 -171t122 -67q72 0 125 55t54 141z" />
    <glyph glyph-name="r" unicode="r" horiz-adv-x="427" 
d="M130 314q18 74 64 126t106 52q46 0 71.5 -26.5t25.5 -67.5q0 -45 -28 -70l-7 7q25 21 25 63q0 38 -22.5 61t-64.5 23q-69 0 -118 -73.5t-52 -155.5v-253h-49v482h45z" />
    <glyph glyph-name="s" unicode="s" horiz-adv-x="445" 
d="M218 482q-58 0 -96 -29.5t-38 -72.5q0 -41 24 -61.5t76 -33.5l89 -23q67 -17 100 -44.5t33 -76.5q0 -67 -51.5 -109t-132.5 -42q-74 0 -128.5 38t-69.5 101l10 5q13 -62 66 -98t122 -36q64 0 106.5 31.5t42.5 87.5q0 71 -108 98l-96 24q-57 14 -87.5 40t-30.5 73
q0 59 50 98.5t119 39.5q62 0 107 -28.5t62 -86.5l-10 -4q-31 109 -159 109z" />
    <glyph glyph-name="t" unicode="t" horiz-adv-x="357" 
d="M8 472v10h84v144l49 21v-165h178l-5 -10h-173v-377q0 -94 71 -94q54 0 83 37t33 104l10 -1q-5 -69 -37 -110t-92 -41q-56 0 -86.5 31.5t-30.5 87.5v363h-84z" />
    <glyph glyph-name="u" unicode="u" horiz-adv-x="531" 
d="M401 187v295h49v-482h-45l-4 127q-18 -64 -63 -100.5t-108 -36.5q-72 0 -114.5 45.5t-42.5 123.5v323h49v-333q0 -65 30 -105.5t92 -40.5q64 0 110 51.5t47 132.5z" />
    <glyph glyph-name="v" unicode="v" horiz-adv-x="443" 
d="M226 -6h-4l-215 488h51l185 -421l181 421h12z" />
    <glyph glyph-name="w" unicode="w" horiz-adv-x="643" 
d="M452 -6l-126 352l-130 -352h-4l-185 488h51l155 -414l108 291l-44 123h50l145 -415l153 415h11l-180 -488h-4z" />
    <glyph glyph-name="x" unicode="x" horiz-adv-x="447" 
d="M384 0l-179 239l-186 -239h-12l192 247l-176 235h57l151 -202l153 202h12l-159 -210l203 -272h-56z" />
    <glyph glyph-name="y" unicode="y" horiz-adv-x="443" 
d="M54 -225q-36 0 -58 23t-22 60q0 23 10 41l10 -3q-10 -20 -10 -38q0 -32 19 -52.5t51 -20.5q39 0 66 32t63 114l34 77l-209 474h51l183 -417l182 417h12l-243 -555q-37 -85 -67.5 -118.5t-71.5 -33.5z" />
    <glyph glyph-name="z" unicode="z" horiz-adv-x="465" 
d="M30 4l332 468h-315v10h374v-4l-332 -468h336v-10h-395v4z" />
    <glyph glyph-name="braceleft" unicode="{" horiz-adv-x="350" 
d="M20 292v8q55 0 89.5 34.5t34.5 109.5q0 20 -9 74t-9 81q0 59 47 104.5t111 45.5q25 0 46 -4v-9q-21 4 -46 4q-56 0 -90 -35.5t-34 -95.5q0 -23 13 -85t13 -80q0 -36 -15.5 -65.5t-39 -46t-43.5 -25.5t-36 -11q16 -2 36 -11t43.5 -25.5t39 -46t15.5 -65.5q0 -18 -13 -80
t-13 -85q0 -60 34 -95.5t90 -35.5q25 0 46 4v-9q-21 -4 -46 -4q-64 0 -111 45.5t-47 104.5q0 27 9 81t9 74q0 75 -34.5 109.5t-89.5 34.5z" />
    <glyph glyph-name="bar" unicode="|" horiz-adv-x="214" 
d="M102 -153v902h10v-902h-10z" />
    <glyph glyph-name="braceright" unicode="}" horiz-adv-x="350" 
d="M330 300v-8q-55 0 -89.5 -34.5t-34.5 -109.5q0 -20 9 -74t9 -81q0 -59 -47 -104.5t-111 -45.5q-25 0 -46 4v9q21 -4 46 -4q56 0 90 35.5t34 95.5q0 23 -13 85t-13 80q0 36 15.5 65.5t39 46t43.5 25.5t36 11q-16 2 -36 11t-43.5 25.5t-39 46t-15.5 65.5q0 18 13 80t13 85
q0 60 -34 95.5t-90 35.5q-25 0 -46 -4v9q21 4 46 4q64 0 111 -45.5t47 -104.5q0 -27 -9 -81t-9 -74q0 -75 34.5 -109.5t89.5 -34.5z" />
    <glyph glyph-name="asciitilde" unicode="~" horiz-adv-x="518" 
d="M345 257q-26 0 -98 46.5t-99 46.5q-66 0 -81 -96h-7q8 60 40.5 94.5t72.5 34.5q26 0 98 -46.5t99 -46.5q66 0 81 96h7q-8 -60 -40.5 -94.5t-72.5 -34.5z" />
    <glyph glyph-name="uni00A0" unicode="&#xa0;" horiz-adv-x="474" 
 />
    <glyph glyph-name="exclamdown" unicode="&#xa1;" horiz-adv-x="198" 
d="M64 474v77h69v-77h-69zM97 356h4l33 -505h-70z" />
    <glyph glyph-name="cent" unicode="&#xa2;" horiz-adv-x="490" 
d="M90 241q0 -107 43.5 -172t121.5 -68l39 491q-5 1 -17 1q-80 0 -133.5 -65.5t-53.5 -186.5zM456 150q-15 -76 -66 -118t-126 -42l-8 -104h-10l8 104q-83 3 -150 74t-67 177q0 112 73 186.5t167 74.5q12 0 18 -1l9 115h10l-9 -116q63 -7 100.5 -45t37.5 -96q0 -45 -33 -80
l-7 7q30 30 30 73q0 55 -35 90t-94 42l-39 -490q72 1 119.5 40.5t61.5 111.5z" />
    <glyph glyph-name="sterling" unicode="&#xa3;" horiz-adv-x="640" 
d="M481 -10q-34 0 -71 13t-59 26t-63 40t-55 36q-42 -115 -125 -115q-38 0 -61 23t-23 56q0 37 26.5 60.5t70.5 23.5q38 0 91 -23q9 54 9 124q0 43 -3 100h-128v10h128q-3 56 -3 111q0 104 55.5 169.5t146.5 65.5q75 0 115.5 -38t40.5 -97q0 -40 -19 -68t-44 -38l-4 8
q57 27 57 98q0 55 -37 90t-109 35q-68 0 -109.5 -56t-41.5 -152v-128h175v-10h-175v-5q0 -140 -29 -230q9 -4 43 -20.5t50 -23.5t45 -17.5t54.5 -15t51.5 -4.5q49 0 81.5 22t32.5 66q0 41 -22 71l8 5q24 -31 24 -76q0 -57 -33.5 -96.5t-90.5 -39.5zM108 0q77 0 101 118
q-47 25 -88 25q-40 0 -63.5 -20t-23.5 -54q0 -29 20 -49t54 -20z" />
    <glyph glyph-name="yen" unicode="&#xa5;" horiz-adv-x="579" 
d="M503 235h-187v-235h-51v235h-187v10h187v44l-31 55h-156v10h151l-193 346h57l219 -397l220 397h11l-191 -346h151v-10h-157l-30 -55v-44h187v-10z" />
    <glyph glyph-name="section" unicode="&#xa7;" horiz-adv-x="594" 
d="M342 109q79 -61 102 -99q30 9 49 36.5t19 64.5q0 41 -26.5 72t-91.5 81l-142 109q-79 61 -102 99q-30 -9 -49 -36.5t-19 -64.5q0 -41 26.5 -72t91.5 -81zM302 -225q-63 0 -110.5 32.5t-64.5 92.5l10 4q16 -58 60 -88.5t105 -30.5q58 0 93.5 35t35.5 89q0 44 -28.5 77.5
t-87.5 78.5l-156 119q-59 45 -84 79.5t-25 83.5q0 45 26 81t68 54q-16 31 -16 70q0 65 48 110t115 45q63 0 110.5 -32.5t64.5 -92.5l-10 -4q-16 58 -60 88.5t-105 30.5q-58 0 -93 -35t-35 -89q0 -44 28.5 -77.5t87.5 -78.5l156 -119q59 -45 84 -79.5t25 -83.5q0 -45 -26 -81
t-68 -54q16 -31 16 -70q0 -65 -48.5 -110t-115.5 -45z" />
    <glyph glyph-name="dieresis" unicode="&#xa8;" horiz-adv-x="500" 
d="M294 609v86h47v-86h-47zM159 609v86h47v-86h-47z" />
    <glyph glyph-name="copyright" unicode="&#xa9;" horiz-adv-x="810" 
d="M405 710q151 0 255.5 -102.5t104.5 -257.5t-104.5 -257.5t-255.5 -102.5t-255.5 102.5t-104.5 257.5t104.5 257.5t255.5 102.5zM405 0q147 0 248.5 99.5t101.5 250.5t-101.5 250.5t-248.5 99.5t-248.5 -99.5t-101.5 -250.5t101.5 -250.5t248.5 -99.5zM204 351
q0 93 62 156t149 63q120 0 162 -106l-9 -3q-39 99 -153 99q-77 0 -123 -54t-46 -155t46 -155t123 -54q114 0 153 99l9 -3q-42 -106 -162 -106q-87 0 -149 63t-62 156z" />
    <glyph glyph-name="ordfeminine" unicode="&#xaa;" horiz-adv-x="349" 
d="M263 544l-96 -16q-93 -15 -93 -81q0 -36 19.5 -55t51.5 -19q47 0 79.5 39t38.5 93v39zM263 553v52q0 44 -23 69.5t-70 25.5q-48 0 -75.5 -21.5t-27.5 -57.5q0 -26 22 -45l-6 -6q-25 18 -25 51q0 39 32 64t85 25q63 0 95.5 -29.5t32.5 -79.5v-236h-35l-4 106
q-13 -45 -46 -79t-86 -34q-43 0 -70.5 23t-27.5 61q0 73 132 95zM48 274v10h252v-10h-252z" />
    <glyph glyph-name="guillemotleft" unicode="&#xab;" horiz-adv-x="464" 
d="M55 243v2l213 199h4l-163 -200l163 -200h-4zM192 243v2l213 199h4l-163 -200l163 -200h-4z" />
    <glyph glyph-name="registered" unicode="&#xae;" horiz-adv-x="542" 
d="M271 710q90 0 153 -61.5t63 -154.5t-63 -154.5t-153 -61.5t-153 61.5t-63 154.5t63 154.5t153 61.5zM271 288q86 0 146 59t60 147t-60 147t-146 59t-146 -59t-60 -147t60 -147t146 -59zM221 604v-108h47q56 0 56 54t-56 54h-47zM221 486v-108h-36v236h96q37 0 59.5 -17.5
t22.5 -46.5q0 -24 -20.5 -41t-48.5 -18v-1q40 -3 52 -41l12 -34q7 -21 20 -37h-41q-10 12 -16 33l-13 38q-13 37 -46 37h-41z" />
    <glyph glyph-name="macron" unicode="&#xaf;" horiz-adv-x="500" 
d="M386 632h-272v10h272v-10z" />
    <glyph glyph-name="degree" unicode="&#xb0;" horiz-adv-x="383" 
d="M80 609q0 46 33 79t79 33t78.5 -33t32.5 -79q0 -45 -32.5 -78t-78.5 -33t-79 33t-33 78zM293 609q0 42 -29.5 72t-71.5 30t-72 -30t-30 -72q0 -41 30 -71t72 -30t71.5 30t29.5 71z" />
    <glyph glyph-name="plusminus" unicode="&#xb1;" horiz-adv-x="463" 
d="M419 355h-183v-152h-10v152h-182v10h182v152h10v-152h183v-10zM44 124v10h375v-10h-375z" />
    <glyph glyph-name="twosuperior" unicode="&#xb2;" horiz-adv-x="257" 
d="M59 447h166l-1 -33h-201v5l84 83q70 68 70 129q0 67 -63 67q-31 0 -51.5 -19.5t-20.5 -48.5q0 -34 27 -46l-5 -6q-12 5 -21 19.5t-9 32.5q0 33 24.5 55.5t64.5 22.5q42 0 68.5 -21t26.5 -57q0 -38 -29.5 -70.5t-109.5 -96.5q-13 -10 -20 -16z" />
    <glyph glyph-name="threesuperior" unicode="&#xb3;" horiz-adv-x="268" 
d="M126 410q-44 0 -69 20.5t-25 50.5q0 37 35 49l4 -5q-31 -11 -31 -43q0 -27 22.5 -45t57.5 -18q36 0 55 21.5t19 56.5q0 70 -79 70h-9v7h9q69 0 69 64q0 61 -61 61q-30 0 -49.5 -15.5t-19.5 -41.5q0 -28 26 -37l-3 -7q-32 11 -32 45q0 28 24 46.5t61 18.5q40 0 66.5 -18.5
t26.5 -51.5q0 -28 -26 -47t-57 -20v-1q38 -2 66.5 -22t28.5 -54q0 -38 -31 -61t-78 -23z" />
    <glyph glyph-name="acute" unicode="&#xb4;" horiz-adv-x="500" 
d="M270 749h49l-134 -188h-4z" />
    <glyph glyph-name="paragraph" unicode="&#xb6;" horiz-adv-x="519" 
d="M243 -215q66 0 103.5 54t37.5 156v695h-49v-562l-10 3v181q-78 0 -140 19t-103.5 64.5t-41.5 110.5t41.5 110.5t103.5 64.5t140 19h119v-10h-50v-697q0 -106 -40.5 -162t-110.5 -56q-40 0 -69.5 25t-29.5 65q0 29 13 45l9 -3q-12 -19 -12 -42q0 -37 27 -58.5t62 -21.5z
" />
    <glyph glyph-name="periodcentered" unicode="&#xb7;" horiz-adv-x="189" 
d="M60 238v77h69v-77h-69z" />
    <glyph glyph-name="cedilla" unicode="&#xb8;" horiz-adv-x="500" 
d="M151 -168l9 7q27 -54 94 -54q31 0 48.5 17.5t17.5 46.5q0 68 -114 68l31 83h10l-28 -75q52 0 91 -19t39 -57q0 -32 -27.5 -53t-67.5 -21q-34 0 -62 16t-41 41z" />
    <glyph glyph-name="onesuperior" unicode="&#xb9;" horiz-adv-x="189" 
d="M133 414h-40v251q-23 -37 -62 -59l-3 7q50 29 83 94h22v-293z" />
    <glyph glyph-name="ordmasculine" unicode="&#xba;" horiz-adv-x="397" 
d="M198 355q-68 0 -115.5 52t-47.5 125t47.5 125.5t115.5 52.5q69 0 116.5 -52.5t47.5 -125.5t-47.5 -125t-116.5 -52zM198 701q-120 0 -120 -169q0 -168 120 -168q121 0 121 168q0 169 -121 169zM57 274v10h283v-10h-283z" />
    <glyph glyph-name="guillemotright" unicode="&#xbb;" horiz-adv-x="464" 
d="M272 245v-2l-213 -199h-4l163 200l-163 200h4zM409 245v-2l-213 -199h-4l163 200l-163 200h4z" />
    <glyph glyph-name="onequarter" unicode="&#xbc;" horiz-adv-x="405" 
d="M213 414h-40v251q-23 -37 -62 -59l-3 7q50 29 83 94h22v-293zM40 358h325v-10h-325v10zM293 95v-9h-64v-86h-39v86h-135v6l139 198h35v-195h64zM190 95v175l-123 -175h123z" />
    <glyph glyph-name="onehalf" unicode="&#xbd;" horiz-adv-x="405" 
d="M213 414h-40v251q-23 -37 -62 -59l-3 7q50 29 83 94h22v-293zM40 358h325v-10h-325v10zM124 33h166l-1 -33h-201v5l84 83q70 68 70 129q0 67 -63 67q-31 0 -51.5 -19.5t-20.5 -48.5q0 -34 27 -46l-5 -6q-12 5 -21 19.5t-9 32.5q0 33 24.5 55.5t64.5 22.5q42 0 68.5 -21
t26.5 -57q0 -38 -29.5 -70.5t-109.5 -96.5q-6 -5 -10.5 -8.5t-9.5 -7.5z" />
    <glyph glyph-name="threequarters" unicode="&#xbe;" horiz-adv-x="405" 
d="M186 410q-44 0 -69 20.5t-25 50.5q0 37 35 49l4 -5q-31 -11 -31 -43q0 -27 22.5 -45t57.5 -18q36 0 55 21.5t19 56.5q0 70 -79 70h-9v7h9q69 0 69 64q0 61 -61 61q-30 0 -49.5 -15.5t-19.5 -41.5q0 -28 26 -37l-3 -7q-32 11 -32 45q0 28 24 46.5t61 18.5q40 0 66.5 -18.5
t26.5 -51.5q0 -28 -26 -47t-57 -20v-1q38 -2 66.5 -22t28.5 -54q0 -38 -31 -61t-78 -23zM40 358h325v-10h-325v10zM293 95v-9h-64v-86h-39v86h-135v6l139 198h35v-195h64zM190 95v175l-123 -175h123z" />
    <glyph glyph-name="questiondown" unicode="&#xbf;" horiz-adv-x="497" 
d="M302 551v-77h-69v77h69zM88 15q0 -76 43 -120t125 -44q84 0 137.5 52t53.5 124q0 76 -54 112l6 8q58 -38 58 -120q0 -76 -56.5 -131t-144.5 -55q-96 0 -156 50t-60 132q0 96 65 155t157 72v106h10v-155q-78 -10 -131 -62t-53 -124z" />
    <glyph glyph-name="Agrave" unicode="&#xc0;" horiz-adv-x="653" 
d="M324 754l-134 161h53l85 -161h-4zM469 265l-168 375l-161 -375h329zM587 0l-113 254h-338l-109 -254h-12l304 710h4l315 -710h-51z" />
    <glyph glyph-name="Aacute" unicode="&#xc1;" horiz-adv-x="653" 
d="M406 915h53l-134 -161h-4zM469 265l-168 375l-161 -375h329zM587 0l-113 254h-338l-109 -254h-12l304 710h4l315 -710h-51z" />
    <glyph glyph-name="Acircumflex" unicode="&#xc2;" horiz-adv-x="653" 
d="M435 742l-122 150l-123 -150h-12l147 180h2l147 -180h-39zM469 265l-168 375l-161 -375h329zM587 0l-113 254h-338l-109 -254h-12l304 710h4l315 -710h-51z" />
    <glyph glyph-name="Atilde" unicode="&#xc3;" horiz-adv-x="653" 
d="M398 772q-31 0 -82.5 41.5t-80.5 41.5t-46 -20t-25 -66h-7q8 54 35 83.5t62 29.5q31 0 82.5 -41.5t80.5 -41.5t46 20t25 66h7q-8 -54 -35 -83.5t-62 -29.5zM469 265l-168 375l-161 -375h329zM587 0l-113 254h-338l-109 -254h-12l304 710h4l315 -710h-51z" />
    <glyph glyph-name="Adieresis" unicode="&#xc4;" horiz-adv-x="653" 
d="M369 766v89h49v-89h-49zM234 766v89h49v-89h-49zM469 265l-168 375l-161 -375h329zM587 0l-113 254h-338l-109 -254h-12l304 710h4l315 -710h-51z" />
    <glyph glyph-name="Aring" unicode="&#xc5;" horiz-adv-x="653" 
d="M321 867q-31 0 -53.5 -22.5t-22.5 -53.5t22.5 -53t53.5 -22t53 22t22 53t-22 53.5t-53 22.5zM469 265l-168 375l-161 -375h329zM136 254l-109 -254h-12l302 706q-34 2 -58 26.5t-24 58.5q0 35 25.5 60.5t60.5 25.5t60 -25.5t25 -60.5t-24.5 -60t-56.5 -25l313 -706h-51
l-113 254h-338z" />
    <glyph glyph-name="AE" unicode="&#xc6;" horiz-adv-x="1007" 
d="M509 315v375l-261 -375h261zM509 0v304h-269l-212 -304h-13l488 700h448v-11h-391v-324h295v-11h-295v-343h401v-11h-452z" />
    <glyph glyph-name="Ccedilla" unicode="&#xc7;" horiz-adv-x="665" 
d="M370 -225q-34 0 -62 16t-41 41l9 7q27 -54 94 -54q31 0 48.5 17.5t17.5 46.5q0 68 -114 68l28 74q-134 8 -224.5 109.5t-90.5 249.5q0 154 97.5 257t238.5 103q89 0 158.5 -43.5t103.5 -132.5l-9 -4q-32 84 -98.5 127t-154.5 43q-127 0 -203.5 -91.5t-76.5 -258.5
t76.5 -258.5t203.5 -91.5q89 0 156 41.5t100 126.5l9 -4q-35 -89 -105 -131.5t-160 -42.5h-12l-24 -65q52 0 91 -19t39 -57q0 -32 -27.5 -53t-67.5 -21z" />
    <glyph glyph-name="Egrave" unicode="&#xc8;" horiz-adv-x="596" 
d="M332 754l-134 161h53l85 -161h-4zM98 0v700h442v-11h-391v-324h295v-11h-295v-343h401v-11h-452z" />
    <glyph glyph-name="Eacute" unicode="&#xc9;" horiz-adv-x="596" 
d="M414 915h53l-134 -161h-4zM98 0v700h442v-11h-391v-324h295v-11h-295v-343h401v-11h-452z" />
    <glyph glyph-name="Ecircumflex" unicode="&#xca;" horiz-adv-x="596" 
d="M443 742l-122 150l-123 -150h-12l147 180h2l147 -180h-39zM98 0v700h442v-11h-391v-324h295v-11h-295v-343h401v-11h-452z" />
    <glyph glyph-name="Edieresis" unicode="&#xcb;" horiz-adv-x="596" 
d="M377 766v89h49v-89h-49zM242 766v89h49v-89h-49zM98 0v700h442v-11h-391v-324h295v-11h-295v-343h401v-11h-452z" />
    <glyph glyph-name="Igrave" unicode="&#xcc;" horiz-adv-x="247" 
d="M121 754l-134 161h53l85 -161h-4zM149 700v-700h-51v700h51z" />
    <glyph glyph-name="Iacute" unicode="&#xcd;" horiz-adv-x="247" 
d="M203 915h53l-134 -161h-4zM149 700v-700h-51v700h51z" />
    <glyph glyph-name="Icircumflex" unicode="&#xce;" horiz-adv-x="247" 
d="M232 742l-122 150l-123 -150h-12l147 180h2l147 -180h-39zM149 700v-700h-51v700h51z" />
    <glyph glyph-name="Idieresis" unicode="&#xcf;" horiz-adv-x="247" 
d="M166 766v89h49v-89h-49zM31 766v89h49v-89h-49zM149 700v-700h-51v700h51z" />
    <glyph glyph-name="Eth" unicode="&#xd0;" horiz-adv-x="735" 
d="M304 0h-192v354h-80v11h80v335h196q182 0 287 -94t105 -250q0 -158 -106 -257t-290 -99zM163 11h138q172 0 257.5 92t85.5 253q0 333 -342 333h-139v-324h207v-11h-207v-343z" />
    <glyph glyph-name="Ntilde" unicode="&#xd1;" horiz-adv-x="756" 
d="M460 772q-31 0 -82.5 41.5t-80.5 41.5t-46 -20t-25 -66h-7q8 54 35 83.5t62 29.5q31 0 82.5 -41.5t80.5 -41.5t46 20t25 66h7q-8 -54 -35 -83.5t-62 -29.5zM647 74v626h11v-710h-4l-545 637v-627h-11v710h4z" />
    <glyph glyph-name="Ograve" unicode="&#xd2;" horiz-adv-x="752" 
d="M374 754l-134 161h53l85 -161h-4zM35 350q0 155 100.5 257.5t240.5 102.5t240.5 -102.5t100.5 -257.5t-100.5 -257.5t-240.5 -102.5t-240.5 102.5t-100.5 257.5zM91 350q0 -165 76.5 -257.5t208.5 -92.5t208.5 92.5t76.5 257.5t-76.5 257.5t-208.5 92.5t-208.5 -92.5
t-76.5 -257.5z" />
    <glyph glyph-name="Oacute" unicode="&#xd3;" horiz-adv-x="752" 
d="M456 915h53l-134 -161h-4zM35 350q0 155 100.5 257.5t240.5 102.5t240.5 -102.5t100.5 -257.5t-100.5 -257.5t-240.5 -102.5t-240.5 102.5t-100.5 257.5zM91 350q0 -165 76.5 -257.5t208.5 -92.5t208.5 92.5t76.5 257.5t-76.5 257.5t-208.5 92.5t-208.5 -92.5
t-76.5 -257.5z" />
    <glyph glyph-name="Ocircumflex" unicode="&#xd4;" horiz-adv-x="752" 
d="M485 742l-122 150l-123 -150h-12l147 180h2l147 -180h-39zM35 350q0 155 100.5 257.5t240.5 102.5t240.5 -102.5t100.5 -257.5t-100.5 -257.5t-240.5 -102.5t-240.5 102.5t-100.5 257.5zM91 350q0 -165 76.5 -257.5t208.5 -92.5t208.5 92.5t76.5 257.5t-76.5 257.5
t-208.5 92.5t-208.5 -92.5t-76.5 -257.5z" />
    <glyph glyph-name="Otilde" unicode="&#xd5;" horiz-adv-x="752" 
d="M448 772q-31 0 -82.5 41.5t-80.5 41.5t-46 -20t-25 -66h-7q8 54 35 83.5t62 29.5q31 0 82.5 -41.5t80.5 -41.5t46 20t25 66h7q-8 -54 -35 -83.5t-62 -29.5zM35 350q0 155 100.5 257.5t240.5 102.5t240.5 -102.5t100.5 -257.5t-100.5 -257.5t-240.5 -102.5t-240.5 102.5
t-100.5 257.5zM91 350q0 -165 76.5 -257.5t208.5 -92.5t208.5 92.5t76.5 257.5t-76.5 257.5t-208.5 92.5t-208.5 -92.5t-76.5 -257.5z" />
    <glyph glyph-name="Odieresis" unicode="&#xd6;" horiz-adv-x="752" 
d="M419 766v89h49v-89h-49zM284 766v89h49v-89h-49zM35 350q0 155 100.5 257.5t240.5 102.5t240.5 -102.5t100.5 -257.5t-100.5 -257.5t-240.5 -102.5t-240.5 102.5t-100.5 257.5zM91 350q0 -165 76.5 -257.5t208.5 -92.5t208.5 92.5t76.5 257.5t-76.5 257.5t-208.5 92.5
t-208.5 -92.5t-76.5 -257.5z" />
    <glyph glyph-name="multiply" unicode="&#xd7;" horiz-adv-x="387" 
d="M329 171l-136 137l-136 -136l-7 7l136 136l-136 136l7 7l136 -136l136 136l7 -7l-136 -136l137 -136z" />
    <glyph glyph-name="Oslash" unicode="&#xd8;" horiz-adv-x="752" 
d="M91 350q0 -168 80 -262l402 532q-74 80 -197 80q-132 0 -208.5 -92.5t-76.5 -257.5zM376 0q132 0 208.5 92.5t76.5 257.5q0 168 -80 262l-402 -532q74 -80 197 -80zM376 -10q-118 0 -209 74l-64 -84l-8 7l63 84q-57 50 -90 122t-33 157q0 155 100.5 257.5t240.5 102.5
q118 0 209 -74l64 84l8 -7l-63 -84q57 -50 90 -122t33 -157q0 -155 -100.5 -257.5t-240.5 -102.5z" />
    <glyph glyph-name="Ugrave" unicode="&#xd9;" horiz-adv-x="717" 
d="M356 754l-134 161h53l85 -161h-4zM624 700h11v-433q0 -129 -75.5 -203t-188.5 -74q-144 0 -216.5 76t-72.5 202v432h51v-419q0 -126 57.5 -198.5t180.5 -72.5q113 0 183 67.5t70 192.5v430z" />
    <glyph glyph-name="Uacute" unicode="&#xda;" horiz-adv-x="717" 
d="M438 915h53l-134 -161h-4zM624 700h11v-433q0 -129 -75.5 -203t-188.5 -74q-144 0 -216.5 76t-72.5 202v432h51v-419q0 -126 57.5 -198.5t180.5 -72.5q113 0 183 67.5t70 192.5v430z" />
    <glyph glyph-name="Ucircumflex" unicode="&#xdb;" horiz-adv-x="717" 
d="M467 742l-122 150l-123 -150h-12l147 180h2l147 -180h-39zM624 700h11v-433q0 -129 -75.5 -203t-188.5 -74q-144 0 -216.5 76t-72.5 202v432h51v-419q0 -126 57.5 -198.5t180.5 -72.5q113 0 183 67.5t70 192.5v430z" />
    <glyph glyph-name="Udieresis" unicode="&#xdc;" horiz-adv-x="717" 
d="M401 766v89h49v-89h-49zM266 766v89h49v-89h-49zM624 700h11v-433q0 -129 -75.5 -203t-188.5 -74q-144 0 -216.5 76t-72.5 202v432h51v-419q0 -126 57.5 -198.5t180.5 -72.5q113 0 183 67.5t70 192.5v430z" />
    <glyph glyph-name="Yacute" unicode="&#xdd;" horiz-adv-x="597" 
d="M379 915h53l-134 -161h-4zM321 303l250 397h11l-257 -411v-289h-51v289l-259 411h57z" />
    <glyph glyph-name="Thorn" unicode="&#xde;" horiz-adv-x="612" 
d="M149 0h-51v700h51v-120h176q118 0 193 -46.5t75 -147.5t-75 -147.5t-193 -46.5h-176v-192zM149 203h183q93 0 147.5 47t54.5 136t-54.5 136t-147.5 47h-183v-366z" />
    <glyph glyph-name="germandbls" unicode="&#xdf;" horiz-adv-x="570" 
d="M381 514q-53 -38 -74 -63t-21 -55q0 -31 22 -51t102 -61q81 -41 112 -70t31 -81q0 -61 -47 -102t-115 -41q-73 0 -124 37.5t-66 101.5l10 5q13 -63 62.5 -98.5t117.5 -35.5q53 0 89 32t36 87q0 38 -26 61t-96 59q-90 47 -117 71t-27 64q0 9 2 17.5t4 15.5t8 15.5t9.5 14
t13 14t13.5 13t17 14t17.5 13t19.5 14.5t20 15q30 22 42.5 33.5t22.5 32.5t10 49q0 48 -40 81t-112 33q-77 0 -122 -60.5t-45 -181.5v-507h-49v504q0 121 64.5 188t151.5 67q76 0 119 -37t43 -87q0 -40 -18 -65.5t-60 -55.5z" />
    <glyph glyph-name="agrave" unicode="&#xe0;" horiz-adv-x="491" 
d="M247 561l-134 188h49l89 -188h-4zM370 258l-143 -23q-72 -11 -106.5 -39t-34.5 -79q0 -52 31 -81t79 -29q68 0 117 56t57 132v63zM370 268v77q0 64 -34.5 100.5t-103.5 36.5q-68 0 -109 -33t-41 -84q0 -40 32 -66l-6 -7q-36 27 -36 73q0 56 45.5 91.5t121.5 35.5
q89 0 134 -41.5t45 -111.5v-339h-41l-6 152q-17 -64 -67 -113t-127 -49q-61 0 -100 33t-39 87q0 106 188 135z" />
    <glyph glyph-name="aacute" unicode="&#xe1;" horiz-adv-x="491" 
d="M333 749h49l-134 -188h-4zM370 258l-143 -23q-72 -11 -106.5 -39t-34.5 -79q0 -52 31 -81t79 -29q68 0 117 56t57 132v63zM370 268v77q0 64 -34.5 100.5t-103.5 36.5q-68 0 -109 -33t-41 -84q0 -40 32 -66l-6 -7q-36 27 -36 73q0 56 45.5 91.5t121.5 35.5q89 0 134 -41.5
t45 -111.5v-339h-41l-6 152q-17 -64 -67 -113t-127 -49q-61 0 -100 33t-39 87q0 106 188 135z" />
    <glyph glyph-name="acircumflex" unicode="&#xe2;" horiz-adv-x="491" 
d="M357 549l-123 165l-122 -165h-12l147 200h2l147 -200h-39zM370 258l-143 -23q-72 -11 -106.5 -39t-34.5 -79q0 -52 31 -81t79 -29q68 0 117 56t57 132v63zM370 268v77q0 64 -34.5 100.5t-103.5 36.5q-68 0 -109 -33t-41 -84q0 -40 32 -66l-6 -7q-36 27 -36 73
q0 56 45.5 91.5t121.5 35.5q89 0 134 -41.5t45 -111.5v-339h-41l-6 152q-17 -64 -67 -113t-127 -49q-61 0 -100 33t-39 87q0 106 188 135z" />
    <glyph glyph-name="atilde" unicode="&#xe3;" horiz-adv-x="491" 
d="M316 597q-29 0 -77.5 41.5t-75.5 41.5t-42.5 -19.5t-23.5 -66.5h-7q7 54 32.5 83.5t58.5 29.5q29 0 77 -41.5t76 -41.5q27 0 42.5 20t22.5 66h8q-7 -54 -32.5 -83.5t-58.5 -29.5zM370 258l-143 -23q-72 -11 -106.5 -39t-34.5 -79q0 -52 31 -81t79 -29q68 0 117 56t57 132
v63zM370 268v77q0 64 -34.5 100.5t-103.5 36.5q-68 0 -109 -33t-41 -84q0 -40 32 -66l-6 -7q-36 27 -36 73q0 56 45.5 91.5t121.5 35.5q89 0 134 -41.5t45 -111.5v-339h-41l-6 152q-17 -64 -67 -113t-127 -49q-61 0 -100 33t-39 87q0 106 188 135z" />
    <glyph glyph-name="adieresis" unicode="&#xe4;" horiz-adv-x="491" 
d="M292 609v86h47v-86h-47zM157 609v86h47v-86h-47zM370 258l-143 -23q-72 -11 -106.5 -39t-34.5 -79q0 -52 31 -81t79 -29q68 0 117 56t57 132v63zM370 268v77q0 64 -34.5 100.5t-103.5 36.5q-68 0 -109 -33t-41 -84q0 -40 32 -66l-6 -7q-36 27 -36 73q0 56 45.5 91.5
t121.5 35.5q89 0 134 -41.5t45 -111.5v-339h-41l-6 152q-17 -64 -67 -113t-127 -49q-61 0 -100 33t-39 87q0 106 188 135z" />
    <glyph glyph-name="aring" unicode="&#xe5;" horiz-adv-x="491" 
d="M163 651q0 35 25.5 60.5t60.5 25.5t60 -25.5t25 -60.5t-25 -60t-60 -25t-60.5 25t-25.5 60zM324 651q0 31 -22 53.5t-53 22.5t-53.5 -22.5t-22.5 -53.5t22.5 -53t53.5 -22t53 22t22 53zM370 258l-143 -23q-72 -11 -106.5 -39t-34.5 -79q0 -52 31 -81t79 -29q68 0 117 56
t57 132v63zM370 268v77q0 64 -34.5 100.5t-103.5 36.5q-68 0 -109 -33t-41 -84q0 -40 32 -66l-6 -7q-36 27 -36 73q0 56 45.5 91.5t121.5 35.5q89 0 134 -41.5t45 -111.5v-339h-41l-6 152q-17 -64 -67 -113t-127 -49q-61 0 -100 33t-39 87q0 106 188 135z" />
    <glyph glyph-name="ae" unicode="&#xe6;" horiz-adv-x="827" 
d="M791 150q-17 -76 -69 -118t-130 -42q-77 0 -138.5 51t-76.5 134q-14 -79 -65.5 -132t-134.5 -53q-61 0 -100 34t-39 88q0 109 188 138l144 23v72q0 64 -34.5 100.5t-103.5 36.5q-68 0 -109 -33t-41 -84q0 -40 32 -66l-6 -7q-36 27 -36 73q0 56 45.5 91.5t121.5 35.5
q71 0 112.5 -31t54.5 -84q29 54 77 84.5t102 30.5q94 0 150.5 -64.5t56.5 -161.5h-371q-1 -9 -1 -28q0 -111 45.5 -174t134.5 -63q69 0 117.5 39.5t63.5 111.5zM585 483q-65 0 -110.5 -51.5t-53.5 -155.5h316q0 93 -35.5 150t-116.5 57zM370 263l-143 -23
q-141 -22 -141 -121q0 -52 31 -82t79 -30q73 0 123.5 62t50.5 158v36z" />
    <glyph glyph-name="ccedilla" unicode="&#xe7;" horiz-adv-x="480" 
d="M279 -225q-34 0 -62 16t-41 41l9 7q27 -54 94 -54q31 0 48.5 17.5t17.5 46.5q0 68 -114 68l27 73q-87 0 -155 68.5t-68 177.5q0 111 73.5 183.5t170.5 72.5q71 0 114 -39t43 -99q0 -51 -35 -86l-7 7q32 30 32 79q0 56 -40 92.5t-107 36.5q-82 0 -136.5 -63.5
t-54.5 -183.5q0 -110 46 -172.5t133 -62.5q67 0 115 40t62 112l10 -3q-14 -73 -63 -115t-123 -45l-24 -65q52 0 91 -19t39 -57q0 -32 -27.5 -53t-67.5 -21z" />
    <glyph glyph-name="egrave" unicode="&#xe8;" horiz-adv-x="495" 
d="M259 561l-134 188h49l89 -188h-4zM459 150q-17 -76 -69 -118t-130 -42q-86 0 -155.5 70t-69.5 178q0 110 65.5 182t152.5 72q94 0 150.5 -64.5t56.5 -161.5h-371q-1 -9 -1 -28q0 -111 45.5 -174t134.5 -63q69 0 117.5 39.5t63.5 111.5zM253 483q-65 0 -110.5 -51.5
t-53.5 -155.5h316q0 93 -35.5 150t-116.5 57z" />
    <glyph glyph-name="eacute" unicode="&#xe9;" horiz-adv-x="495" 
d="M345 749h49l-134 -188h-4zM459 150q-17 -76 -69 -118t-130 -42q-86 0 -155.5 70t-69.5 178q0 110 65.5 182t152.5 72q94 0 150.5 -64.5t56.5 -161.5h-371q-1 -9 -1 -28q0 -111 45.5 -174t134.5 -63q69 0 117.5 39.5t63.5 111.5zM253 483q-65 0 -110.5 -51.5t-53.5 -155.5
h316q0 93 -35.5 150t-116.5 57z" />
    <glyph glyph-name="ecircumflex" unicode="&#xea;" horiz-adv-x="495" 
d="M369 549l-123 165l-122 -165h-12l147 200h2l147 -200h-39zM459 150q-17 -76 -69 -118t-130 -42q-86 0 -155.5 70t-69.5 178q0 110 65.5 182t152.5 72q94 0 150.5 -64.5t56.5 -161.5h-371q-1 -9 -1 -28q0 -111 45.5 -174t134.5 -63q69 0 117.5 39.5t63.5 111.5zM253 483
q-65 0 -110.5 -51.5t-53.5 -155.5h316q0 93 -35.5 150t-116.5 57z" />
    <glyph glyph-name="edieresis" unicode="&#xeb;" horiz-adv-x="495" 
d="M304 609v86h47v-86h-47zM169 609v86h47v-86h-47zM459 150q-17 -76 -69 -118t-130 -42q-86 0 -155.5 70t-69.5 178q0 110 65.5 182t152.5 72q94 0 150.5 -64.5t56.5 -161.5h-371q-1 -9 -1 -28q0 -111 45.5 -174t134.5 -63q69 0 117.5 39.5t63.5 111.5zM253 483
q-65 0 -110.5 -51.5t-53.5 -155.5h316q0 93 -35.5 150t-116.5 57z" />
    <glyph glyph-name="igrave" unicode="&#xec;" 
d="M104 561l-134 188h49l89 -188h-4zM130 482v-482h-49v482h49z" />
    <glyph glyph-name="iacute" unicode="&#xed;" 
d="M190 749h49l-134 -188h-4zM130 482v-482h-49v482h49z" />
    <glyph glyph-name="icircumflex" unicode="&#xee;" 
d="M104 749h2l117 -200h-39l-94 159l-93 -159h-10zM130 482v-482h-49v482h49z" />
    <glyph glyph-name="idieresis" unicode="&#xef;" 
d="M14 609v86h47v-86h-47zM149 609v86h47v-86h-47zM130 482v-482h-49v482h49z" />
    <glyph glyph-name="eth" unicode="&#xf0;" horiz-adv-x="532" 
d="M266 -10q-97 0 -164 74t-67 176q0 103 67 177.5t164 74.5q55 0 98.5 -28.5t68.5 -83.5q-5 164 -120 270l-131 -73l-4 8l128 72q-82 71 -203 96l2 8q120 -22 212 -98l98 55l5 -8l-95 -53q82 -70 127 -171t45 -210q0 -125 -62 -205.5t-169 -80.5zM266 483
q-83 0 -130.5 -62.5t-47.5 -180.5q0 -117 47.5 -179t130.5 -62t130.5 62t47.5 179q0 118 -47.5 180.5t-130.5 62.5z" />
    <glyph glyph-name="ntilde" unicode="&#xf1;" horiz-adv-x="541" 
d="M351 597q-29 0 -77.5 41.5t-75.5 41.5t-42.5 -19.5t-23.5 -66.5h-7q7 54 32.5 83.5t58.5 29.5q29 0 77 -41.5t76 -41.5q27 0 42.5 20t22.5 66h8q-7 -54 -32.5 -83.5t-58.5 -29.5zM130 295v-295h-49v482h45l4 -127q18 64 65.5 100.5t112.5 36.5q75 0 117.5 -44.5
t42.5 -122.5v-325h-49v335q0 144 -125 144q-66 0 -114.5 -51.5t-49.5 -132.5z" />
    <glyph glyph-name="ograve" unicode="&#xf2;" horiz-adv-x="532" 
d="M265 561l-134 188h49l89 -188h-4zM266 -10q-97 0 -164 74t-67 176q0 103 67 177.5t164 74.5t164 -74.5t67 -177.5q0 -102 -67 -176t-164 -74zM266 483q-83 0 -130.5 -62.5t-47.5 -180.5q0 -117 47.5 -179t130.5 -62t130.5 62t47.5 179q0 118 -47.5 180.5t-130.5 62.5z
" />
    <glyph glyph-name="oacute" unicode="&#xf3;" horiz-adv-x="532" 
d="M351 749h49l-134 -188h-4zM266 -10q-97 0 -164 74t-67 176q0 103 67 177.5t164 74.5t164 -74.5t67 -177.5q0 -102 -67 -176t-164 -74zM266 483q-83 0 -130.5 -62.5t-47.5 -180.5q0 -117 47.5 -179t130.5 -62t130.5 62t47.5 179q0 118 -47.5 180.5t-130.5 62.5z" />
    <glyph glyph-name="ocircumflex" unicode="&#xf4;" horiz-adv-x="532" 
d="M375 549l-123 165l-122 -165h-12l147 200h2l147 -200h-39zM266 -10q-97 0 -164 74t-67 176q0 103 67 177.5t164 74.5t164 -74.5t67 -177.5q0 -102 -67 -176t-164 -74zM266 483q-83 0 -130.5 -62.5t-47.5 -180.5q0 -117 47.5 -179t130.5 -62t130.5 62t47.5 179
q0 118 -47.5 180.5t-130.5 62.5z" />
    <glyph glyph-name="otilde" unicode="&#xf5;" horiz-adv-x="532" 
d="M334 597q-29 0 -77.5 41.5t-75.5 41.5t-42.5 -19.5t-23.5 -66.5h-7q7 54 32.5 83.5t58.5 29.5q29 0 77 -41.5t76 -41.5q27 0 42.5 20t22.5 66h8q-7 -54 -32.5 -83.5t-58.5 -29.5zM266 -10q-97 0 -164 74t-67 176q0 103 67 177.5t164 74.5t164 -74.5t67 -177.5
q0 -102 -67 -176t-164 -74zM266 483q-83 0 -130.5 -62.5t-47.5 -180.5q0 -117 47.5 -179t130.5 -62t130.5 62t47.5 179q0 118 -47.5 180.5t-130.5 62.5z" />
    <glyph glyph-name="odieresis" unicode="&#xf6;" horiz-adv-x="532" 
d="M310 609v86h47v-86h-47zM175 609v86h47v-86h-47zM266 -10q-97 0 -164 74t-67 176q0 103 67 177.5t164 74.5t164 -74.5t67 -177.5q0 -102 -67 -176t-164 -74zM266 483q-83 0 -130.5 -62.5t-47.5 -180.5q0 -117 47.5 -179t130.5 -62t130.5 62t47.5 179q0 118 -47.5 180.5
t-130.5 62.5z" />
    <glyph glyph-name="divide" unicode="&#xf7;" horiz-adv-x="479" 
d="M211 453v54h57v-54h-57zM44 315v10h391v-10h-391zM211 133v54h57v-54h-57z" />
    <glyph glyph-name="oslash" unicode="&#xf8;" horiz-adv-x="532" 
d="M88 240q0 -111 44 -174l262 358q-47 59 -128 59q-83 0 -130.5 -62.5t-47.5 -180.5zM266 -1q83 0 130.5 62t47.5 179q0 113 -44 176l-262 -358q47 -59 128 -59zM266 -10q-79 0 -140 51l-43 -59l-8 5l44 60q-84 74 -84 193q0 103 67 177.5t164 74.5q78 0 140 -51l43 59
l8 -5l-44 -60q84 -76 84 -195q0 -102 -67 -176t-164 -74z" />
    <glyph glyph-name="ugrave" unicode="&#xf9;" horiz-adv-x="531" 
d="M261 561l-134 188h49l89 -188h-4zM401 187v295h49v-482h-45l-4 127q-18 -64 -63 -100.5t-108 -36.5q-72 0 -114.5 45.5t-42.5 123.5v323h49v-333q0 -65 30 -105.5t92 -40.5q64 0 110 51.5t47 132.5z" />
    <glyph glyph-name="uacute" unicode="&#xfa;" horiz-adv-x="531" 
d="M347 749h49l-134 -188h-4zM401 187v295h49v-482h-45l-4 127q-18 -64 -63 -100.5t-108 -36.5q-72 0 -114.5 45.5t-42.5 123.5v323h49v-333q0 -65 30 -105.5t92 -40.5q64 0 110 51.5t47 132.5z" />
    <glyph glyph-name="ucircumflex" unicode="&#xfb;" horiz-adv-x="531" 
d="M371 549l-123 165l-122 -165h-12l147 200h2l147 -200h-39zM401 187v295h49v-482h-45l-4 127q-18 -64 -63 -100.5t-108 -36.5q-72 0 -114.5 45.5t-42.5 123.5v323h49v-333q0 -65 30 -105.5t92 -40.5q64 0 110 51.5t47 132.5z" />
    <glyph glyph-name="udieresis" unicode="&#xfc;" horiz-adv-x="531" 
d="M306 609v86h47v-86h-47zM171 609v86h47v-86h-47zM401 187v295h49v-482h-45l-4 127q-18 -64 -63 -100.5t-108 -36.5q-72 0 -114.5 45.5t-42.5 123.5v323h49v-333q0 -65 30 -105.5t92 -40.5q64 0 110 51.5t47 132.5z" />
    <glyph glyph-name="yacute" unicode="&#xfd;" horiz-adv-x="443" 
d="M325 749h49l-134 -188h-4zM54 -225q-36 0 -58 23t-22 60q0 23 10 41l10 -3q-10 -20 -10 -38q0 -32 19 -52.5t51 -20.5q39 0 66 32t63 114l34 77l-209 474h51l183 -417l182 417h12l-243 -555q-37 -85 -67.5 -118.5t-71.5 -33.5z" />
    <glyph glyph-name="thorn" unicode="&#xfe;" horiz-adv-x="562" 
d="M129 286v-87q1 -88 52.5 -143t126.5 -55q77 0 121.5 69.5t44.5 173.5t-44 171t-122 67q-72 0 -125 -55t-54 -141zM130 130v-345h-49v964h49v-398q16 59 65.5 100t115.5 41q91 0 153.5 -70t62.5 -180t-63 -181t-153 -71q-66 0 -114.5 39.5t-66.5 100.5z" />
    <glyph glyph-name="ydieresis" unicode="&#xff;" horiz-adv-x="443" 
d="M284 609v86h47v-86h-47zM149 609v86h47v-86h-47zM54 -225q-36 0 -58 23t-22 60q0 23 10 41l10 -3q-10 -20 -10 -38q0 -32 19 -52.5t51 -20.5q39 0 66 32t63 114l34 77l-209 474h51l183 -417l182 417h12l-243 -555q-37 -85 -67.5 -118.5t-71.5 -33.5z" />
    <glyph glyph-name="Amacron" unicode="&#x100;" horiz-adv-x="653" 
d="M462 784h-272v10h272v-10zM469 265l-168 375l-161 -375h329zM587 0l-113 254h-338l-109 -254h-12l304 710h4l315 -710h-51z" />
    <glyph glyph-name="amacron" unicode="&#x101;" horiz-adv-x="491" 
d="M384 632h-272v10h272v-10zM370 258l-143 -23q-72 -11 -106.5 -39t-34.5 -79q0 -52 31 -81t79 -29q68 0 117 56t57 132v63zM370 268v77q0 64 -34.5 100.5t-103.5 36.5q-68 0 -109 -33t-41 -84q0 -40 32 -66l-6 -7q-36 27 -36 73q0 56 45.5 91.5t121.5 35.5q89 0 134 -41.5
t45 -111.5v-339h-41l-6 152q-17 -64 -67 -113t-127 -49q-61 0 -100 33t-39 87q0 106 188 135z" />
    <glyph glyph-name="Abreve" unicode="&#x102;" horiz-adv-x="653" 
d="M466 917q0 -68 -40 -113.5t-100 -45.5t-100 45.5t-40 113.5h8q0 -62 34 -93.5t98 -31.5t98 31.5t34 93.5h8zM469 265l-168 375l-161 -375h329zM587 0l-113 254h-338l-109 -254h-12l304 710h4l315 -710h-51z" />
    <glyph glyph-name="abreve" unicode="&#x103;" horiz-adv-x="491" 
d="M388 742q0 -78 -39.5 -126t-100.5 -48t-100.5 48t-39.5 126h7q0 -140 133 -140t133 140h7zM370 258l-143 -23q-72 -11 -106.5 -39t-34.5 -79q0 -52 31 -81t79 -29q68 0 117 56t57 132v63zM370 268v77q0 64 -34.5 100.5t-103.5 36.5q-68 0 -109 -33t-41 -84q0 -40 32 -66
l-6 -7q-36 27 -36 73q0 56 45.5 91.5t121.5 35.5q89 0 134 -41.5t45 -111.5v-339h-41l-6 152q-17 -64 -67 -113t-127 -49q-61 0 -100 33t-39 87q0 106 188 135z" />
    <glyph glyph-name="Aogonek" unicode="&#x104;" horiz-adv-x="653" 
d="M657 -132q-36 -93 -121 -93q-36 0 -62.5 22.5t-26.5 59.5q0 21 9 39t32.5 38.5t40.5 32.5t56 38l-111 249h-338l-109 -254h-12l304 710h4l315 -710h-46q-69 -47 -94 -73.5t-25 -68.5q0 -32 21 -51.5t50 -19.5q72 0 105 84zM469 265l-168 375l-161 -375h329z" />
    <glyph glyph-name="aogonek" unicode="&#x105;" horiz-adv-x="491" 
d="M370 258l-143 -23q-72 -11 -106.5 -39t-34.5 -79q0 -52 31 -81t79 -29q68 0 117 56t57 132v63zM447 -132q-36 -93 -121 -93q-36 0 -62.5 22.5t-26.5 59.5q0 17 8.5 33.5t17.5 28.5t32.5 30t36 26.5t45.5 30.5l-6 146q-17 -64 -67 -113t-127 -49q-61 0 -100 33t-39 87
q0 106 188 135l144 23v77q0 64 -34.5 100.5t-103.5 36.5q-68 0 -109 -33t-41 -84q0 -40 32 -66l-6 -7q-36 27 -36 73q0 56 45.5 91.5t121.5 35.5q89 0 134 -41.5t45 -111.5v-339h-36q-69 -47 -94 -73.5t-25 -68.5q0 -32 21 -51.5t50 -19.5q72 0 105 84z" />
    <glyph glyph-name="Cacute" unicode="&#x106;" horiz-adv-x="665" 
d="M454 915h53l-134 -161h-4zM35 350q0 154 97.5 257t238.5 103q89 0 158.5 -43.5t103.5 -132.5l-9 -4q-32 84 -98.5 127t-154.5 43q-127 0 -203.5 -91.5t-76.5 -258.5t76.5 -258.5t203.5 -91.5q89 0 156 41.5t100 126.5l9 -4q-35 -89 -105 -131.5t-160 -42.5
q-141 0 -238.5 103t-97.5 257z" />
    <glyph glyph-name="cacute" unicode="&#x107;" horiz-adv-x="480" 
d="M368 749h49l-134 -188h-4zM279 483q-82 0 -136.5 -63.5t-54.5 -183.5q0 -110 46 -172.5t133 -62.5q67 0 115 40t62 112l10 -3q-15 -76 -66.5 -118t-129.5 -42q-87 0 -155 68.5t-68 177.5q0 111 73.5 183.5t170.5 72.5q71 0 114 -39t43 -99q0 -51 -35 -86l-7 7
q32 30 32 79q0 56 -40 92.5t-107 36.5z" />
    <glyph glyph-name="Ccircumflex" unicode="&#x108;" horiz-adv-x="665" 
d="M483 742l-122 150l-123 -150h-12l147 180h2l147 -180h-39zM35 350q0 154 97.5 257t238.5 103q89 0 158.5 -43.5t103.5 -132.5l-9 -4q-32 84 -98.5 127t-154.5 43q-127 0 -203.5 -91.5t-76.5 -258.5t76.5 -258.5t203.5 -91.5q89 0 156 41.5t100 126.5l9 -4
q-35 -89 -105 -131.5t-160 -42.5q-141 0 -238.5 103t-97.5 257z" />
    <glyph glyph-name="ccircumflex" unicode="&#x109;" horiz-adv-x="480" 
d="M392 549l-123 165l-122 -165h-12l147 200h2l147 -200h-39zM279 483q-82 0 -136.5 -63.5t-54.5 -183.5q0 -110 46 -172.5t133 -62.5q67 0 115 40t62 112l10 -3q-15 -76 -66.5 -118t-129.5 -42q-87 0 -155 68.5t-68 177.5q0 111 73.5 183.5t170.5 72.5q71 0 114 -39t43 -99
q0 -51 -35 -86l-7 7q32 30 32 79q0 56 -40 92.5t-107 36.5z" />
    <glyph glyph-name="Cdotaccent" unicode="&#x10a;" horiz-adv-x="665" 
d="M345 766v89h59v-89h-59zM35 350q0 154 97.5 257t238.5 103q89 0 158.5 -43.5t103.5 -132.5l-9 -4q-32 84 -98.5 127t-154.5 43q-127 0 -203.5 -91.5t-76.5 -258.5t76.5 -258.5t203.5 -91.5q89 0 156 41.5t100 126.5l9 -4q-35 -89 -105 -131.5t-160 -42.5
q-141 0 -238.5 103t-97.5 257z" />
    <glyph glyph-name="cdotaccent" unicode="&#x10b;" horiz-adv-x="480" 
d="M257 609v86h53v-86h-53zM279 483q-82 0 -136.5 -63.5t-54.5 -183.5q0 -110 46 -172.5t133 -62.5q67 0 115 40t62 112l10 -3q-15 -76 -66.5 -118t-129.5 -42q-87 0 -155 68.5t-68 177.5q0 111 73.5 183.5t170.5 72.5q71 0 114 -39t43 -99q0 -51 -35 -86l-7 7q32 30 32 79
q0 56 -40 92.5t-107 36.5z" />
    <glyph glyph-name="Ccaron" unicode="&#x10c;" horiz-adv-x="665" 
d="M375 742h-2l-147 180h39l122 -150l123 150h12zM35 350q0 154 97.5 257t238.5 103q89 0 158.5 -43.5t103.5 -132.5l-9 -4q-32 84 -98.5 127t-154.5 43q-127 0 -203.5 -91.5t-76.5 -258.5t76.5 -258.5t203.5 -91.5q89 0 156 41.5t100 126.5l9 -4q-35 -89 -105 -131.5
t-160 -42.5q-141 0 -238.5 103t-97.5 257z" />
    <glyph glyph-name="ccaron" unicode="&#x10d;" horiz-adv-x="480" 
d="M284 549h-2l-147 200h39l123 -165l122 165h12zM279 483q-82 0 -136.5 -63.5t-54.5 -183.5q0 -110 46 -172.5t133 -62.5q67 0 115 40t62 112l10 -3q-15 -76 -66.5 -118t-129.5 -42q-87 0 -155 68.5t-68 177.5q0 111 73.5 183.5t170.5 72.5q71 0 114 -39t43 -99
q0 -51 -35 -86l-7 7q32 30 32 79q0 56 -40 92.5t-107 36.5z" />
    <glyph glyph-name="Dcaron" unicode="&#x10e;" horiz-adv-x="721" 
d="M334 742h-2l-147 180h39l122 -150l123 150h12zM290 0h-192v700h196q182 0 287 -94t105 -250q0 -158 -106 -257t-290 -99zM630 356q0 333 -342 333h-139v-678h138q172 0 257.5 92t85.5 253z" />
    <glyph glyph-name="dcaron" unicode="&#x10f;" horiz-adv-x="562" 
d="M635 749l-70 -205h-4l25 205h49zM433 196v87q-1 88 -52.5 143t-126.5 55q-77 0 -121.5 -69.5t-44.5 -173.5t44 -171t122 -67q72 0 125 55t54 141zM432 352v397h49v-749h-45l-4 131q-16 -59 -65.5 -100t-115.5 -41q-91 0 -153.5 70t-62.5 180t63 181t153 71
q66 0 114.5 -39.5t66.5 -100.5z" />
    <glyph glyph-name="Dcroat" unicode="&#x110;" horiz-adv-x="735" 
d="M304 0h-192v354h-80v11h80v335h196q182 0 287 -94t105 -250q0 -158 -106 -257t-290 -99zM163 11h138q172 0 257.5 92t85.5 253q0 333 -342 333h-139v-324h207v-11h-207v-343z" />
    <glyph glyph-name="dcroat" unicode="&#x111;" horiz-adv-x="562" 
d="M433 196v87q-1 88 -52.5 143t-126.5 55q-77 0 -121.5 -69.5t-44.5 -173.5t44 -171t122 -67q72 0 125 55t54 141zM432 131q-16 -59 -65.5 -100t-115.5 -41q-91 0 -153.5 70t-62.5 180t63 181t153 71q66 0 114.5 -39.5t66.5 -100.5v280h-163v10h163v107h49v-107h60v-10h-60
v-632h-45z" />
    <glyph glyph-name="Emacron" unicode="&#x112;" horiz-adv-x="596" 
d="M470 784h-272v10h272v-10zM98 0v700h442v-11h-391v-324h295v-11h-295v-343h401v-11h-452z" />
    <glyph glyph-name="emacron" unicode="&#x113;" horiz-adv-x="495" 
d="M396 632h-272v10h272v-10zM459 150q-17 -76 -69 -118t-130 -42q-86 0 -155.5 70t-69.5 178q0 110 65.5 182t152.5 72q94 0 150.5 -64.5t56.5 -161.5h-371q-1 -9 -1 -28q0 -111 45.5 -174t134.5 -63q69 0 117.5 39.5t63.5 111.5zM253 483q-65 0 -110.5 -51.5t-53.5 -155.5
h316q0 93 -35.5 150t-116.5 57z" />
    <glyph glyph-name="Ebreve" unicode="&#x114;" horiz-adv-x="596" 
d="M474 917q0 -68 -40 -113.5t-100 -45.5t-100 45.5t-40 113.5h8q0 -62 34 -93.5t98 -31.5t98 31.5t34 93.5h8zM98 0v700h442v-11h-391v-324h295v-11h-295v-343h401v-11h-452z" />
    <glyph glyph-name="ebreve" unicode="&#x115;" horiz-adv-x="495" 
d="M400 742q0 -78 -39.5 -126t-100.5 -48t-100.5 48t-39.5 126h7q0 -140 133 -140t133 140h7zM459 150q-17 -76 -69 -118t-130 -42q-86 0 -155.5 70t-69.5 178q0 110 65.5 182t152.5 72q94 0 150.5 -64.5t56.5 -161.5h-371q-1 -9 -1 -28q0 -111 45.5 -174t134.5 -63
q69 0 117.5 39.5t63.5 111.5zM253 483q-65 0 -110.5 -51.5t-53.5 -155.5h316q0 93 -35.5 150t-116.5 57z" />
    <glyph glyph-name="Edotaccent" unicode="&#x116;" horiz-adv-x="596" 
d="M305 766v89h59v-89h-59zM98 0v700h442v-11h-391v-324h295v-11h-295v-343h401v-11h-452z" />
    <glyph glyph-name="edotaccent" unicode="&#x117;" horiz-adv-x="495" 
d="M234 609v86h53v-86h-53zM459 150q-17 -76 -69 -118t-130 -42q-86 0 -155.5 70t-69.5 178q0 110 65.5 182t152.5 72q94 0 150.5 -64.5t56.5 -161.5h-371q-1 -9 -1 -28q0 -111 45.5 -174t134.5 -63q69 0 117.5 39.5t63.5 111.5zM253 483q-65 0 -110.5 -51.5t-53.5 -155.5
h316q0 93 -35.5 150t-116.5 57z" />
    <glyph glyph-name="Eogonek" unicode="&#x118;" horiz-adv-x="596" 
d="M532 -132q-36 -93 -121 -93q-36 0 -62.5 22.5t-26.5 59.5q0 26 19.5 52t41.5 42.5t69 48.5h-354v700h442v-11h-391v-324h295v-11h-295v-343h401v-11h-83q-69 -47 -94 -73.5t-25 -68.5q0 -32 21 -51.5t50 -19.5q72 0 105 84z" />
    <glyph glyph-name="eogonek" unicode="&#x119;" horiz-adv-x="495" 
d="M419 -132q-36 -93 -121 -93q-36 0 -62.5 22.5t-26.5 59.5q0 63 116 142q-30 -9 -65 -9q-86 0 -155.5 70t-69.5 178q0 110 65.5 182t152.5 72q94 0 150.5 -64.5t56.5 -161.5h-371q-1 -9 -1 -28q0 -111 45.5 -174t134.5 -63q69 0 117.5 39.5t63.5 111.5l10 -2
q-21 -98 -101 -139q-67 -45 -95 -77.5t-28 -75.5q0 -32 21 -51.5t50 -19.5q72 0 105 84zM253 483q-65 0 -110.5 -51.5t-53.5 -155.5h316q0 93 -35.5 150t-116.5 57z" />
    <glyph glyph-name="Ecaron" unicode="&#x11a;" horiz-adv-x="596" 
d="M335 742h-2l-147 180h39l122 -150l123 150h12zM98 0v700h442v-11h-391v-324h295v-11h-295v-343h401v-11h-452z" />
    <glyph glyph-name="ecaron" unicode="&#x11b;" horiz-adv-x="495" 
d="M261 549h-2l-147 200h39l123 -165l122 165h12zM459 150q-17 -76 -69 -118t-130 -42q-86 0 -155.5 70t-69.5 178q0 110 65.5 182t152.5 72q94 0 150.5 -64.5t56.5 -161.5h-371q-1 -9 -1 -28q0 -111 45.5 -174t134.5 -63q69 0 117.5 39.5t63.5 111.5zM253 483
q-65 0 -110.5 -51.5t-53.5 -155.5h316q0 93 -35.5 150t-116.5 57z" />
    <glyph glyph-name="Gcircumflex" unicode="&#x11c;" horiz-adv-x="725" 
d="M493 742l-122 150l-123 -150h-12l147 180h2l147 -180h-39zM669 -10h-4l-51 153q-24 -65 -86.5 -109t-150.5 -44q-145 0 -243.5 102t-98.5 258q0 155 101 257.5t246 102.5q91 0 163 -43t108 -132l-9 -4q-34 84 -103 126.5t-159 42.5q-131 0 -211 -91t-80 -259
q0 -169 77.5 -259.5t208.5 -90.5q102 0 171.5 63t69.5 168v82h51v-323z" />
    <glyph glyph-name="gcircumflex" unicode="&#x11d;" horiz-adv-x="511" 
d="M350 549l-123 165l-122 -165h-12l147 200h2l147 -200h-39zM366 332q0 67 -33 109t-96 42t-96 -42t-33 -109q0 -68 33 -110t96 -42t96 42t33 110zM498 -42q0 -81 -78.5 -132t-185.5 -51q-108 0 -173 36.5t-65 105.5q0 52 44.5 85t100.5 34q-36 6 -59.5 26.5t-23.5 53.5
q0 57 71 86q-74 48 -74 130q0 66 53 113t129 47q72 0 124 -42q51 77 106 77q28 0 45 -17t17 -44q0 -28 -14 -46l-8 6q12 15 12 40q0 22 -14.5 36.5t-37.5 14.5q-52 0 -98 -74q52 -47 52 -111q0 -67 -54 -114t-130 -47q-53 0 -100 26q-67 -25 -67 -71q0 -49 87 -49h194
q68 0 107.5 -29t39.5 -90zM354 31h-191q-56 0 -106.5 -29t-50.5 -85q0 -65 62.5 -98.5t165.5 -33.5q96 0 167.5 42.5t71.5 114.5q0 42 -30 65.5t-89 23.5z" />
    <glyph glyph-name="Gbreve" unicode="&#x11e;" horiz-adv-x="725" 
d="M524 917q0 -68 -40 -113.5t-100 -45.5t-100 45.5t-40 113.5h8q0 -62 34 -93.5t98 -31.5t98 31.5t34 93.5h8zM669 -10h-4l-51 153q-24 -65 -86.5 -109t-150.5 -44q-145 0 -243.5 102t-98.5 258q0 155 101 257.5t246 102.5q91 0 163 -43t108 -132l-9 -4q-34 84 -103 126.5
t-159 42.5q-131 0 -211 -91t-80 -259q0 -169 77.5 -259.5t208.5 -90.5q102 0 171.5 63t69.5 168v82h51v-323z" />
    <glyph glyph-name="gbreve" unicode="&#x11f;" horiz-adv-x="511" 
d="M381 742q0 -78 -39.5 -126t-100.5 -48t-100.5 48t-39.5 126h7q0 -140 133 -140t133 140h7zM366 332q0 67 -33 109t-96 42t-96 -42t-33 -109q0 -68 33 -110t96 -42t96 42t33 110zM498 -42q0 -81 -78.5 -132t-185.5 -51q-108 0 -173 36.5t-65 105.5q0 52 44.5 85t100.5 34
q-36 6 -59.5 26.5t-23.5 53.5q0 57 71 86q-74 48 -74 130q0 66 53 113t129 47q72 0 124 -42q51 77 106 77q28 0 45 -17t17 -44q0 -28 -14 -46l-8 6q12 15 12 40q0 22 -14.5 36.5t-37.5 14.5q-52 0 -98 -74q52 -47 52 -111q0 -67 -54 -114t-130 -47q-53 0 -100 26
q-67 -25 -67 -71q0 -49 87 -49h194q68 0 107.5 -29t39.5 -90zM354 31h-191q-56 0 -106.5 -29t-50.5 -85q0 -65 62.5 -98.5t165.5 -33.5q96 0 167.5 42.5t71.5 114.5q0 42 -30 65.5t-89 23.5z" />
    <glyph glyph-name="Gdotaccent" unicode="&#x120;" horiz-adv-x="725" 
d="M355 766v89h59v-89h-59zM669 -10h-4l-51 153q-24 -65 -86.5 -109t-150.5 -44q-145 0 -243.5 102t-98.5 258q0 155 101 257.5t246 102.5q91 0 163 -43t108 -132l-9 -4q-34 84 -103 126.5t-159 42.5q-131 0 -211 -91t-80 -259q0 -169 77.5 -259.5t208.5 -90.5
q102 0 171.5 63t69.5 168v82h51v-323z" />
    <glyph glyph-name="gdotaccent" unicode="&#x121;" horiz-adv-x="511" 
d="M215 609v86h53v-86h-53zM366 332q0 67 -33 109t-96 42t-96 -42t-33 -109q0 -68 33 -110t96 -42t96 42t33 110zM498 -42q0 -81 -78.5 -132t-185.5 -51q-108 0 -173 36.5t-65 105.5q0 52 44.5 85t100.5 34q-36 6 -59.5 26.5t-23.5 53.5q0 57 71 86q-74 48 -74 130
q0 66 53 113t129 47q72 0 124 -42q51 77 106 77q28 0 45 -17t17 -44q0 -28 -14 -46l-8 6q12 15 12 40q0 22 -14.5 36.5t-37.5 14.5q-52 0 -98 -74q52 -47 52 -111q0 -67 -54 -114t-130 -47q-53 0 -100 26q-67 -25 -67 -71q0 -49 87 -49h194q68 0 107.5 -29t39.5 -90zM354 31
h-191q-56 0 -106.5 -29t-50.5 -85q0 -65 62.5 -98.5t165.5 -33.5q96 0 167.5 42.5t71.5 114.5q0 42 -30 65.5t-89 23.5z" />
    <glyph glyph-name="uni0122" unicode="&#x122;" horiz-adv-x="725" 
d="M669 -10h-4l-51 153q-24 -65 -86.5 -109t-150.5 -44q-145 0 -243.5 102t-98.5 258q0 155 101 257.5t246 102.5q91 0 163 -43t108 -132l-9 -4q-34 84 -103 126.5t-159 42.5q-131 0 -211 -91t-80 -259q0 -169 77.5 -259.5t208.5 -90.5q102 0 171.5 63t69.5 168v82h51v-323z
M334 -134v77h65v-78q0 -102 -92 -102v10q47 0 64.5 23.5t17.5 69.5h-55z" />
    <glyph glyph-name="uni0123" unicode="&#x123;" horiz-adv-x="511" 
d="M288 660v-77h-65v78q0 102 92 102v-10q-47 0 -64.5 -23.5t-17.5 -69.5h55zM366 332q0 67 -33 109t-96 42t-96 -42t-33 -109q0 -68 33 -110t96 -42t96 42t33 110zM498 -42q0 -81 -78.5 -132t-185.5 -51q-108 0 -173 36.5t-65 105.5q0 52 44.5 85t100.5 34
q-36 6 -59.5 26.5t-23.5 53.5q0 57 71 86q-74 48 -74 130q0 66 53 113t129 47q72 0 124 -42q51 77 106 77q28 0 45 -17t17 -44q0 -28 -14 -46l-8 6q12 15 12 40q0 22 -14.5 36.5t-37.5 14.5q-52 0 -98 -74q52 -47 52 -111q0 -67 -54 -114t-130 -47q-53 0 -100 26
q-67 -25 -67 -71q0 -49 87 -49h194q68 0 107.5 -29t39.5 -90zM354 31h-191q-56 0 -106.5 -29t-50.5 -85q0 -65 62.5 -98.5t165.5 -33.5q96 0 167.5 42.5t71.5 114.5q0 42 -30 65.5t-89 23.5z" />
    <glyph glyph-name="Hcircumflex" unicode="&#x124;" horiz-adv-x="785" 
d="M501 742l-122 150l-123 -150h-12l147 180h2l147 -180h-39zM98 0v700h51v-335h487v335h51v-700h-51v354h-487v-354h-51z" />
    <glyph glyph-name="hcircumflex" unicode="&#x125;" horiz-adv-x="541" 
d="M383 772l-122 150l-123 -150h-12l147 180h2l147 -180h-39zM81 749h49v-394q18 64 65.5 100.5t112.5 36.5q75 0 117.5 -44.5t42.5 -122.5v-325h-49v335q0 144 -125 144q-66 0 -114.5 -51.5t-49.5 -132.5v-295h-49v749z" />
    <glyph glyph-name="Hbar" unicode="&#x126;" horiz-adv-x="813" 
d="M163 295h487v169h-487v-169zM163 284v-284h-51v464h-80v11h80v225h51v-225h487v225h51v-225h80v-11h-80v-464h-51v284h-487z" />
    <glyph glyph-name="hbar" unicode="&#x127;" horiz-adv-x="541" 
d="M130 295v-295h-49v632h-59v10h59v107h49v-107h164v-10h-164v-277q18 64 65.5 100.5t112.5 36.5q75 0 117.5 -44.5t42.5 -122.5v-325h-49v335q0 144 -125 144q-66 0 -114.5 -51.5t-49.5 -132.5z" />
    <glyph glyph-name="Itilde" unicode="&#x128;" horiz-adv-x="247" 
d="M195 772q-31 0 -82.5 41.5t-80.5 41.5t-46 -20t-25 -66h-7q8 54 35 83.5t62 29.5q31 0 82.5 -41.5t80.5 -41.5t46 20t25 66h7q-8 -54 -35 -83.5t-62 -29.5zM149 700v-700h-51v700h51z" />
    <glyph glyph-name="itilde" unicode="&#x129;" 
d="M156 597q-22 0 -59 39.5t-54 39.5q-20 0 -30 -17.5t-16 -64.5h-8q5 54 24 83.5t43 29.5q22 0 59 -39.5t54 -39.5q20 0 30 17.5t15 64.5h9q-5 -54 -24 -83.5t-43 -29.5zM130 482v-482h-49v482h49z" />
    <glyph glyph-name="Imacron" unicode="&#x12a;" horiz-adv-x="247" 
d="M259 784h-272v10h272v-10zM149 700v-700h-51v700h51z" />
    <glyph glyph-name="imacron" unicode="&#x12b;" 
d="M211 629h-212v13h212v-13zM130 482v-482h-49v482h49z" />
    <glyph glyph-name="Ibreve" unicode="&#x12c;" horiz-adv-x="247" 
d="M263 917q0 -68 -40 -113.5t-100 -45.5t-100 45.5t-40 113.5h8q0 -62 34 -93.5t98 -31.5t98 31.5t34 93.5h8zM149 700v-700h-51v700h51z" />
    <glyph glyph-name="ibreve" unicode="&#x12d;" 
d="M225 742q0 -80 -33.5 -127t-86.5 -47q-52 0 -85.5 47t-33.5 127h9q0 -140 110 -140q111 0 111 140h9zM130 482v-482h-49v482h49z" />
    <glyph glyph-name="Iogonek" unicode="&#x12e;" horiz-adv-x="247" 
d="M209 -132q-36 -93 -121 -93q-36 0 -62.5 22.5t-26.5 59.5q0 26 19.5 52t41.5 42.5t69 48.5h-31v700h51v-700h-5q-69 -47 -94 -73.5t-25 -68.5q0 -32 21 -51.5t50 -19.5q72 0 105 84z" />
    <glyph glyph-name="iogonek" unicode="&#x12f;" 
d="M79 609v86h53v-86h-53zM188 -132q-36 -93 -121 -93q-36 0 -62.5 22.5t-26.5 59.5q0 26 19.5 52t41.5 42.5t69 48.5h-27v482h49v-482h-7q-69 -47 -94 -73.5t-25 -68.5q0 -32 21 -51.5t50 -19.5q72 0 105 84z" />
    <glyph glyph-name="Idotaccent" unicode="&#x130;" horiz-adv-x="247" 
d="M94 766v89h59v-89h-59zM149 700v-700h-51v700h51z" />
    <glyph glyph-name="dotlessi" unicode="&#x131;" 
d="M130 482v-482h-49v482h49z" />
    <glyph glyph-name="Jcircumflex" unicode="&#x134;" horiz-adv-x="555" 
d="M553 742l-122 150l-123 -150h-12l147 180h2l147 -180h-39zM422 220v480h51v-471q0 -107 -66 -173t-169 -66q-96 0 -154 55t-58 139q0 45 19 81.5t46 54.5l5 -8q-60 -45 -60 -128q0 -80 55.5 -132t146.5 -52q92 0 138 57t46 163z" />
    <glyph glyph-name="jcircumflex" unicode="&#x135;" 
d="M104 749h2l117 -200h-39l-94 159l-93 -159h-10zM130 -48q0 -82 -36 -129.5t-107 -47.5q-41 0 -68.5 22.5t-27.5 65.5q0 25 12 40l9 -3q-11 -18 -11 -37q0 -40 25 -59t61 -19q55 0 74.5 42.5t19.5 132.5v522h49v-530z" />
    <glyph glyph-name="uni0136" unicode="&#x136;" horiz-adv-x="666" 
d="M579 0l-323 365l-107 -98v-267h-51v700h51v-419l457 419h15l-331 -303l353 -397h-64zM288 -134v77h65v-78q0 -102 -92 -102v10q47 0 64.5 23.5t17.5 69.5h-55z" />
    <glyph glyph-name="uni0137" unicode="&#x137;" horiz-adv-x="500" 
d="M424 0l-207 252l-87 -78v-174h-49v749h49v-563l330 296h13l-222 -199l235 -283h-62zM209 -134v77h65v-78q0 -102 -92 -102v10q47 0 64.5 23.5t17.5 69.5h-55z" />
    <glyph glyph-name="kgreenlandic" unicode="&#x138;" horiz-adv-x="500" 
d="M424 0l-207 252l-87 -78v-174h-49v482h49v-296l330 296h13l-222 -199l235 -283h-62z" />
    <glyph glyph-name="Lacute" unicode="&#x139;" horiz-adv-x="571" 
d="M214 915h53l-134 -161h-4zM98 0v700h51v-689h381v-11h-432z" />
    <glyph glyph-name="lacute" unicode="&#x13a;" 
d="M186 935h53l-134 -161h-4zM130 749v-749h-49v749h49z" />
    <glyph glyph-name="uni013B" unicode="&#x13b;" horiz-adv-x="571" 
d="M98 0v700h51v-689h381v-11h-432zM284 -134v77h65v-78q0 -102 -92 -102v10q47 0 64.5 23.5t17.5 69.5h-55z" />
    <glyph glyph-name="uni013C" unicode="&#x13c;" 
d="M130 749v-749h-49v749h49zM71 -134v77h65v-78q0 -102 -92 -102v10q47 0 64.5 23.5t17.5 69.5h-55z" />
    <glyph glyph-name="Lcaron" unicode="&#x13d;" horiz-adv-x="571" 
d="M441 749l-70 -205h-4l25 205h49zM98 0v700h51v-689h381v-11h-432z" />
    <glyph glyph-name="lcaron" unicode="&#x13e;" 
d="M284 749l-70 -205h-4l25 205h49zM130 749v-749h-49v749h49z" />
    <glyph glyph-name="Ldot" unicode="&#x13f;" horiz-adv-x="571" 
d="M98 0v700h51v-689h381v-11h-432zM403 309v86h53v-86h-53z" />
    <glyph glyph-name="ldot" unicode="&#x140;" horiz-adv-x="273" 
d="M130 749v-749h-49v749h49zM214 334v86h53v-86h-53z" />
    <glyph glyph-name="Lslash" unicode="&#x141;" horiz-adv-x="586" 
d="M545 0h-432v276l-81 -47v13l81 47v411h51v-387l217 124v-13l-217 -124v-289h381v-11z" />
    <glyph glyph-name="lslash" unicode="&#x142;" horiz-adv-x="271" 
d="M160 0h-49v386l-91 -67v13l91 67v350h49v-323l91 66v-13l-91 -66v-413z" />
    <glyph glyph-name="Nacute" unicode="&#x143;" horiz-adv-x="756" 
d="M468 915h53l-134 -161h-4zM647 74v626h11v-710h-4l-545 637v-627h-11v710h4z" />
    <glyph glyph-name="nacute" unicode="&#x144;" horiz-adv-x="541" 
d="M360 749h49l-134 -188h-4zM130 295v-295h-49v482h45l4 -127q18 64 65.5 100.5t112.5 36.5q75 0 117.5 -44.5t42.5 -122.5v-325h-49v335q0 144 -125 144q-66 0 -114.5 -51.5t-49.5 -132.5z" />
    <glyph glyph-name="uni0145" unicode="&#x145;" horiz-adv-x="756" 
d="M647 74v626h11v-710h-4l-545 637v-627h-11v710h4zM338 -134v77h65v-78q0 -102 -92 -102v10q47 0 64.5 23.5t17.5 69.5h-55z" />
    <glyph glyph-name="uni0146" unicode="&#x146;" horiz-adv-x="541" 
d="M130 295v-295h-49v482h45l4 -127q18 64 65.5 100.5t112.5 36.5q75 0 117.5 -44.5t42.5 -122.5v-325h-49v335q0 144 -125 144q-66 0 -114.5 -51.5t-49.5 -132.5zM245 -134v77h65v-78q0 -102 -92 -102v10q47 0 64.5 23.5t17.5 69.5h-55z" />
    <glyph glyph-name="Ncaron" unicode="&#x147;" horiz-adv-x="756" 
d="M389 742h-2l-147 180h39l122 -150l123 150h12zM647 74v626h11v-710h-4l-545 637v-627h-11v710h4z" />
    <glyph glyph-name="ncaron" unicode="&#x148;" horiz-adv-x="541" 
d="M276 549h-2l-147 200h39l123 -165l122 165h12zM130 295v-295h-49v482h45l4 -127q18 64 65.5 100.5t112.5 36.5q75 0 117.5 -44.5t42.5 -122.5v-325h-49v335q0 144 -125 144q-66 0 -114.5 -51.5t-49.5 -132.5z" />
    <glyph glyph-name="Eng" unicode="&#x14a;" horiz-adv-x="756" 
d="M515 -225q-40 0 -68.5 25t-28.5 68q0 25 12 40l9 -3q-11 -18 -11 -37q0 -40 26 -61.5t61 -21.5q67 0 100 52.5t33 139.5v20l-539 633v-630h-11v710h4l545 -639v629h11v-731q0 -84 -36.5 -139t-106.5 -55z" />
    <glyph glyph-name="eng" unicode="&#x14b;" horiz-adv-x="541" 
d="M325 -225q-41 0 -68.5 22.5t-27.5 65.5q0 25 12 40l9 -3q-11 -18 -11 -37q0 -40 25 -59t61 -19q55 0 74.5 42.5t19.5 132.5v375q0 144 -125 144q-66 0 -114.5 -51.5t-49.5 -132.5v-295h-49v482h45l4 -127q18 64 65.5 100.5t112.5 36.5q75 0 117.5 -44.5t42.5 -122.5v-373
q0 -82 -36 -129.5t-107 -47.5z" />
    <glyph glyph-name="Omacron" unicode="&#x14c;" horiz-adv-x="752" 
d="M512 784h-272v10h272v-10zM35 350q0 155 100.5 257.5t240.5 102.5t240.5 -102.5t100.5 -257.5t-100.5 -257.5t-240.5 -102.5t-240.5 102.5t-100.5 257.5zM91 350q0 -165 76.5 -257.5t208.5 -92.5t208.5 92.5t76.5 257.5t-76.5 257.5t-208.5 92.5t-208.5 -92.5
t-76.5 -257.5z" />
    <glyph glyph-name="omacron" unicode="&#x14d;" horiz-adv-x="532" 
d="M402 632h-272v10h272v-10zM266 -10q-97 0 -164 74t-67 176q0 103 67 177.5t164 74.5t164 -74.5t67 -177.5q0 -102 -67 -176t-164 -74zM266 483q-83 0 -130.5 -62.5t-47.5 -180.5q0 -117 47.5 -179t130.5 -62t130.5 62t47.5 179q0 118 -47.5 180.5t-130.5 62.5z" />
    <glyph glyph-name="Obreve" unicode="&#x14e;" horiz-adv-x="752" 
d="M516 917q0 -68 -40 -113.5t-100 -45.5t-100 45.5t-40 113.5h8q0 -62 34 -93.5t98 -31.5t98 31.5t34 93.5h8zM35 350q0 155 100.5 257.5t240.5 102.5t240.5 -102.5t100.5 -257.5t-100.5 -257.5t-240.5 -102.5t-240.5 102.5t-100.5 257.5zM91 350q0 -165 76.5 -257.5
t208.5 -92.5t208.5 92.5t76.5 257.5t-76.5 257.5t-208.5 92.5t-208.5 -92.5t-76.5 -257.5z" />
    <glyph glyph-name="obreve" unicode="&#x14f;" horiz-adv-x="532" 
d="M406 742q0 -78 -39.5 -126t-100.5 -48t-100.5 48t-39.5 126h7q0 -140 133 -140t133 140h7zM266 -10q-97 0 -164 74t-67 176q0 103 67 177.5t164 74.5t164 -74.5t67 -177.5q0 -102 -67 -176t-164 -74zM266 483q-83 0 -130.5 -62.5t-47.5 -180.5q0 -117 47.5 -179
t130.5 -62t130.5 62t47.5 179q0 118 -47.5 180.5t-130.5 62.5z" />
    <glyph glyph-name="Ohungarumlaut" unicode="&#x150;" horiz-adv-x="752" 
d="M513 915h53l-134 -161h-4zM373 915h53l-134 -161h-4zM35 350q0 155 100.5 257.5t240.5 102.5t240.5 -102.5t100.5 -257.5t-100.5 -257.5t-240.5 -102.5t-240.5 102.5t-100.5 257.5zM91 350q0 -165 76.5 -257.5t208.5 -92.5t208.5 92.5t76.5 257.5t-76.5 257.5
t-208.5 92.5t-208.5 -92.5t-76.5 -257.5z" />
    <glyph glyph-name="ohungarumlaut" unicode="&#x151;" horiz-adv-x="532" 
d="M403 749h49l-134 -188h-4zM263 749h49l-134 -188h-4zM266 -10q-97 0 -164 74t-67 176q0 103 67 177.5t164 74.5t164 -74.5t67 -177.5q0 -102 -67 -176t-164 -74zM266 483q-83 0 -130.5 -62.5t-47.5 -180.5q0 -117 47.5 -179t130.5 -62t130.5 62t47.5 179
q0 118 -47.5 180.5t-130.5 62.5z" />
    <glyph glyph-name="OE" unicode="&#x152;" horiz-adv-x="1070" 
d="M431 0q-184 0 -290 99t-106 257q0 156 105 250t287 94h587v-11h-391v-324h295v-11h-295v-343h401v-11h-593zM433 689q-342 0 -342 -333q0 -161 85.5 -253t257.5 -92h138v678h-139z" />
    <glyph glyph-name="oe" unicode="&#x153;" horiz-adv-x="899" 
d="M863 150q-17 -76 -69 -118t-130 -42q-62 0 -116 39t-80 106q-26 -66 -79.5 -105.5t-122.5 -39.5q-97 0 -164 74t-67 176q0 103 67 177.5t164 74.5q69 0 122 -40t79 -106q25 67 76.5 106.5t113.5 39.5q94 0 150.5 -64.5t56.5 -161.5h-371q-1 -9 -1 -28q0 -111 45.5 -174
t134.5 -63q69 0 117.5 39.5t63.5 111.5zM657 483q-65 0 -110.5 -51.5t-53.5 -155.5h316q0 93 -35.5 150t-116.5 57zM266 483q-83 0 -130.5 -62.5t-47.5 -180.5q0 -117 47.5 -179t130.5 -62t130.5 62t47.5 179q0 118 -47.5 180.5t-130.5 62.5z" />
    <glyph glyph-name="Racute" unicode="&#x154;" horiz-adv-x="690" 
d="M409 915h53l-134 -161h-4zM149 689v-357h193q201 0 201 180q0 177 -202 177h-192zM149 321v-321h-51v700h236q117 0 192.5 -45t75.5 -143q0 -47 -21 -84.5t-53.5 -58.5t-66 -31.5t-65.5 -11.5v-2q64 -7 101.5 -34.5t56.5 -80.5l44 -123q21 -59 51 -86h-60q-18 24 -40 83
l-42 115q-24 65 -64 94t-119 29h-175z" />
    <glyph glyph-name="racute" unicode="&#x155;" horiz-adv-x="427" 
d="M320 749h49l-134 -188h-4zM130 314q18 74 64 126t106 52q46 0 71.5 -26.5t25.5 -67.5q0 -45 -28 -70l-7 7q25 21 25 63q0 38 -22.5 61t-64.5 23q-69 0 -118 -73.5t-52 -155.5v-253h-49v482h45z" />
    <glyph glyph-name="uni0156" unicode="&#x156;" horiz-adv-x="690" 
d="M149 689v-357h193q201 0 201 180q0 177 -202 177h-192zM149 321v-321h-51v700h236q117 0 192.5 -45t75.5 -143q0 -47 -21 -84.5t-53.5 -58.5t-66 -31.5t-65.5 -11.5v-2q64 -7 101.5 -34.5t56.5 -80.5l44 -123q21 -59 51 -86h-60q-18 24 -40 83l-42 115q-24 65 -64 94
t-119 29h-175zM309 -134v77h65v-78q0 -102 -92 -102v10q47 0 64.5 23.5t17.5 69.5h-55z" />
    <glyph glyph-name="uni0157" unicode="&#x157;" horiz-adv-x="427" 
d="M130 314q18 74 64 126t106 52q46 0 71.5 -26.5t25.5 -67.5q0 -45 -28 -70l-7 7q25 21 25 63q0 38 -22.5 61t-64.5 23q-69 0 -118 -73.5t-52 -155.5v-253h-49v482h45zM74 -134v77h65v-78q0 -102 -92 -102v10q47 0 64.5 23.5t17.5 69.5h-55z" />
    <glyph glyph-name="Rcaron" unicode="&#x158;" horiz-adv-x="690" 
d="M330 742h-2l-147 180h39l122 -150l123 150h12zM149 689v-357h193q201 0 201 180q0 177 -202 177h-192zM149 321v-321h-51v700h236q117 0 192.5 -45t75.5 -143q0 -47 -21 -84.5t-53.5 -58.5t-66 -31.5t-65.5 -11.5v-2q64 -7 101.5 -34.5t56.5 -80.5l44 -123q21 -59 51 -86
h-60q-18 24 -40 83l-42 115q-24 65 -64 94t-119 29h-175z" />
    <glyph glyph-name="rcaron" unicode="&#x159;" horiz-adv-x="427" 
d="M236 549h-2l-147 200h39l123 -165l122 165h12zM130 314q18 74 64 126t106 52q46 0 71.5 -26.5t25.5 -67.5q0 -45 -28 -70l-7 7q25 21 25 63q0 38 -22.5 61t-64.5 23q-69 0 -118 -73.5t-52 -155.5v-253h-49v482h45z" />
    <glyph glyph-name="Sacute" unicode="&#x15a;" horiz-adv-x="579" 
d="M375 915h53l-134 -161h-4zM499 168q0 69 -44.5 105.5t-120.5 54.5l-95 23q-97 24 -144.5 63t-47.5 114q0 78 66.5 130t161.5 52q84 0 148.5 -36t94.5 -98l-9 -7q-29 61 -91 96t-143 35t-134.5 -42t-53.5 -112q0 -35 12 -60t37 -41.5t50.5 -26.5t65.5 -20l89 -23
q96 -24 147 -66.5t51 -114.5q0 -96 -72 -150t-171 -54q-96 0 -173.5 45t-105.5 122l9 5q29 -76 103 -119t167 -43q95 0 149 48.5t54 119.5z" />
    <glyph glyph-name="sacute" unicode="&#x15b;" horiz-adv-x="445" 
d="M313 749h49l-134 -188h-4zM218 482q-58 0 -96 -29.5t-38 -72.5q0 -41 24 -61.5t76 -33.5l89 -23q67 -17 100 -44.5t33 -76.5q0 -67 -51.5 -109t-132.5 -42q-74 0 -128.5 38t-69.5 101l10 5q13 -62 66 -98t122 -36q64 0 106.5 31.5t42.5 87.5q0 71 -108 98l-96 24
q-57 14 -87.5 40t-30.5 73q0 59 50 98.5t119 39.5q62 0 107 -28.5t62 -86.5l-10 -4q-31 109 -159 109z" />
    <glyph glyph-name="Scircumflex" unicode="&#x15c;" horiz-adv-x="579" 
d="M404 742l-122 150l-123 -150h-12l147 180h2l147 -180h-39zM499 168q0 69 -44.5 105.5t-120.5 54.5l-95 23q-97 24 -144.5 63t-47.5 114q0 78 66.5 130t161.5 52q84 0 148.5 -36t94.5 -98l-9 -7q-29 61 -91 96t-143 35t-134.5 -42t-53.5 -112q0 -35 12 -60t37 -41.5
t50.5 -26.5t65.5 -20l89 -23q96 -24 147 -66.5t51 -114.5q0 -96 -72 -150t-171 -54q-96 0 -173.5 45t-105.5 122l9 5q29 -76 103 -119t167 -43q95 0 149 48.5t54 119.5z" />
    <glyph glyph-name="scircumflex" unicode="&#x15d;" horiz-adv-x="445" 
d="M337 549l-123 165l-122 -165h-12l147 200h2l147 -200h-39zM218 482q-58 0 -96 -29.5t-38 -72.5q0 -41 24 -61.5t76 -33.5l89 -23q67 -17 100 -44.5t33 -76.5q0 -67 -51.5 -109t-132.5 -42q-74 0 -128.5 38t-69.5 101l10 5q13 -62 66 -98t122 -36q64 0 106.5 31.5
t42.5 87.5q0 71 -108 98l-96 24q-57 14 -87.5 40t-30.5 73q0 59 50 98.5t119 39.5q62 0 107 -28.5t62 -86.5l-10 -4q-31 109 -159 109z" />
    <glyph glyph-name="uni015E" unicode="&#x15e;" horiz-adv-x="579" 
d="M291 -225q-34 0 -62 16t-41 41l9 7q27 -54 94 -54q31 0 48.5 17.5t17.5 46.5q0 68 -114 68l28 74q-89 6 -158.5 50t-95.5 116l9 5q29 -76 103 -119t167 -43q95 0 149 48.5t54 119.5q0 69 -44.5 105.5t-120.5 54.5l-95 23q-97 24 -144.5 63t-47.5 114q0 78 66.5 130
t161.5 52q84 0 148.5 -36t94.5 -98l-9 -7q-29 61 -91 96t-143 35t-134.5 -42t-53.5 -112q0 -35 12 -60t37 -41.5t50.5 -26.5t65.5 -20l89 -23q96 -24 147 -66.5t51 -114.5q0 -96 -72 -150t-171 -54h-16l-24 -65q52 0 91 -19t39 -57q0 -32 -27.5 -53t-67.5 -21z" />
    <glyph glyph-name="uni015F" unicode="&#x15f;" horiz-adv-x="445" 
d="M224 -225q-34 0 -62 16t-41 41l9 7q27 -54 94 -54q31 0 48.5 17.5t17.5 46.5q0 68 -114 68l28 74q-68 5 -117 42t-63 96l10 5q13 -62 66 -98t122 -36q64 0 106.5 31.5t42.5 87.5q0 71 -108 98l-96 24q-57 14 -87.5 40t-30.5 73q0 59 50 98.5t119 39.5q62 0 107 -28.5
t62 -86.5l-10 -4q-31 109 -159 109q-58 0 -96 -29.5t-38 -72.5q0 -41 24 -61.5t76 -33.5l89 -23q67 -17 100 -44.5t33 -76.5q0 -67 -51.5 -109t-132.5 -42h-9l-24 -65q52 0 91 -19t39 -57q0 -32 -27.5 -53t-67.5 -21z" />
    <glyph glyph-name="Scaron" unicode="&#x160;" horiz-adv-x="579" 
d="M296 742h-2l-147 180h39l122 -150l123 150h12zM499 168q0 69 -44.5 105.5t-120.5 54.5l-95 23q-97 24 -144.5 63t-47.5 114q0 78 66.5 130t161.5 52q84 0 148.5 -36t94.5 -98l-9 -7q-29 61 -91 96t-143 35t-134.5 -42t-53.5 -112q0 -35 12 -60t37 -41.5t50.5 -26.5
t65.5 -20l89 -23q96 -24 147 -66.5t51 -114.5q0 -96 -72 -150t-171 -54q-96 0 -173.5 45t-105.5 122l9 5q29 -76 103 -119t167 -43q95 0 149 48.5t54 119.5z" />
    <glyph glyph-name="scaron" unicode="&#x161;" horiz-adv-x="445" 
d="M229 549h-2l-147 200h39l123 -165l122 165h12zM218 482q-58 0 -96 -29.5t-38 -72.5q0 -41 24 -61.5t76 -33.5l89 -23q67 -17 100 -44.5t33 -76.5q0 -67 -51.5 -109t-132.5 -42q-74 0 -128.5 38t-69.5 101l10 5q13 -62 66 -98t122 -36q64 0 106.5 31.5t42.5 87.5
q0 71 -108 98l-96 24q-57 14 -87.5 40t-30.5 73q0 59 50 98.5t119 39.5q62 0 107 -28.5t62 -86.5l-10 -4q-31 109 -159 109z" />
    <glyph glyph-name="Tcommaaccent" unicode="&#x162;" horiz-adv-x="657" 
d="M303 0v689h-283v11h617v-11h-284v-689h-40l-28 -75q52 0 91 -19t39 -57q0 -32 -27.5 -53t-67.5 -21q-34 0 -62 16t-41 41l9 7q27 -54 94 -54q31 0 48.5 17.5t17.5 46.5q0 68 -114 68z" />
    <glyph glyph-name="tcommaaccent" unicode="&#x163;" horiz-adv-x="357" 
d="M194 -225q-34 0 -62 16t-41 41l9 7q27 -54 94 -54q31 0 48.5 17.5t17.5 46.5q0 68 -114 68l29 77q-40 9 -61.5 39t-21.5 76v363h-84v10h84v144l49 21v-165h178l-5 -10h-173v-377q0 -94 71 -94q54 0 83 37t33 104l10 -1q-5 -69 -37 -110t-92 -41q-9 0 -25 2l-25 -67
q52 0 91 -19t39 -57q0 -32 -27.5 -53t-67.5 -21z" />
    <glyph glyph-name="Tcaron" unicode="&#x164;" horiz-adv-x="657" 
d="M329 742h-2l-147 180h39l122 -150l123 150h12zM303 0v689h-283v11h617v-11h-284v-689h-50z" />
    <glyph glyph-name="tcaron" unicode="&#x165;" horiz-adv-x="357" 
d="M285 749l-70 -205h-4l25 205h49zM8 472v10h84v144l49 21v-165h178l-5 -10h-173v-377q0 -94 71 -94q54 0 83 37t33 104l10 -1q-5 -69 -37 -110t-92 -41q-56 0 -86.5 31.5t-30.5 87.5v363h-84z" />
    <glyph glyph-name="Tbar" unicode="&#x166;" horiz-adv-x="657" 
d="M497 354h-144v-354h-50v354h-144v11h144v324h-283v11h617v-11h-284v-324h144v-11z" />
    <glyph glyph-name="tbar" unicode="&#x167;" horiz-adv-x="378" 
d="M350 141q-5 -69 -37 -110t-92 -41q-56 0 -86.5 31.5t-30.5 87.5v203h-84v10h84v150h-84v10h84v144l49 21v-165h178l-5 -10h-173v-150h169v-10h-169v-217q0 -94 71 -94q54 0 83 37t33 104z" />
    <glyph glyph-name="Utilde" unicode="&#x168;" horiz-adv-x="717" 
d="M430 772q-31 0 -82.5 41.5t-80.5 41.5t-46 -20t-25 -66h-7q8 54 35 83.5t62 29.5q31 0 82.5 -41.5t80.5 -41.5t46 20t25 66h7q-8 -54 -35 -83.5t-62 -29.5zM624 700h11v-433q0 -129 -75.5 -203t-188.5 -74q-144 0 -216.5 76t-72.5 202v432h51v-419q0 -126 57.5 -198.5
t180.5 -72.5q113 0 183 67.5t70 192.5v430z" />
    <glyph glyph-name="utilde" unicode="&#x169;" horiz-adv-x="531" 
d="M330 597q-29 0 -77.5 41.5t-75.5 41.5t-42.5 -19.5t-23.5 -66.5h-7q7 54 32.5 83.5t58.5 29.5q29 0 77 -41.5t76 -41.5q27 0 42.5 20t22.5 66h8q-7 -54 -32.5 -83.5t-58.5 -29.5zM401 187v295h49v-482h-45l-4 127q-18 -64 -63 -100.5t-108 -36.5q-72 0 -114.5 45.5
t-42.5 123.5v323h49v-333q0 -65 30 -105.5t92 -40.5q64 0 110 51.5t47 132.5z" />
    <glyph glyph-name="Umacron" unicode="&#x16a;" horiz-adv-x="717" 
d="M494 784h-272v10h272v-10zM624 700h11v-433q0 -129 -75.5 -203t-188.5 -74q-144 0 -216.5 76t-72.5 202v432h51v-419q0 -126 57.5 -198.5t180.5 -72.5q113 0 183 67.5t70 192.5v430z" />
    <glyph glyph-name="umacron" unicode="&#x16b;" horiz-adv-x="531" 
d="M398 632h-272v10h272v-10zM401 187v295h49v-482h-45l-4 127q-18 -64 -63 -100.5t-108 -36.5q-72 0 -114.5 45.5t-42.5 123.5v323h49v-333q0 -65 30 -105.5t92 -40.5q64 0 110 51.5t47 132.5z" />
    <glyph glyph-name="Ubreve" unicode="&#x16c;" horiz-adv-x="717" 
d="M498 917q0 -68 -40 -113.5t-100 -45.5t-100 45.5t-40 113.5h8q0 -62 34 -93.5t98 -31.5t98 31.5t34 93.5h8zM624 700h11v-433q0 -129 -75.5 -203t-188.5 -74q-144 0 -216.5 76t-72.5 202v432h51v-419q0 -126 57.5 -198.5t180.5 -72.5q113 0 183 67.5t70 192.5v430z" />
    <glyph glyph-name="ubreve" unicode="&#x16d;" horiz-adv-x="531" 
d="M402 742q0 -78 -39.5 -126t-100.5 -48t-100.5 48t-39.5 126h7q0 -140 133 -140t133 140h7zM401 187v295h49v-482h-45l-4 127q-18 -64 -63 -100.5t-108 -36.5q-72 0 -114.5 45.5t-42.5 123.5v323h49v-333q0 -65 30 -105.5t92 -40.5q64 0 110 51.5t47 132.5z" />
    <glyph glyph-name="Uring" unicode="&#x16e;" horiz-adv-x="717" 
d="M359 907q35 0 60 -25.5t25 -60.5t-25 -60t-60 -25t-60.5 25t-25.5 60t25.5 60.5t60.5 25.5zM359 897q-31 0 -53.5 -22.5t-22.5 -53.5t22.5 -53t53.5 -22t53 22t22 53t-22 53.5t-53 22.5zM624 700h11v-433q0 -129 -75.5 -203t-188.5 -74q-144 0 -216.5 76t-72.5 202v432
h51v-419q0 -126 57.5 -198.5t180.5 -72.5q113 0 183 67.5t70 192.5v430z" />
    <glyph glyph-name="uring" unicode="&#x16f;" horiz-adv-x="531" 
d="M177 651q0 35 25.5 60.5t60.5 25.5t60 -25.5t25 -60.5t-25 -60t-60 -25t-60.5 25t-25.5 60zM338 651q0 31 -22 53.5t-53 22.5t-53.5 -22.5t-22.5 -53.5t22.5 -53t53.5 -22t53 22t22 53zM401 187v295h49v-482h-45l-4 127q-18 -64 -63 -100.5t-108 -36.5q-72 0 -114.5 45.5
t-42.5 123.5v323h49v-333q0 -65 30 -105.5t92 -40.5q64 0 110 51.5t47 132.5z" />
    <glyph glyph-name="Uhungarumlaut" unicode="&#x170;" horiz-adv-x="717" 
d="M495 915h53l-134 -161h-4zM355 915h53l-134 -161h-4zM624 700h11v-433q0 -129 -75.5 -203t-188.5 -74q-144 0 -216.5 76t-72.5 202v432h51v-419q0 -126 57.5 -198.5t180.5 -72.5q113 0 183 67.5t70 192.5v430z" />
    <glyph glyph-name="uhungarumlaut" unicode="&#x171;" horiz-adv-x="531" 
d="M399 749h49l-134 -188h-4zM259 749h49l-134 -188h-4zM401 187v295h49v-482h-45l-4 127q-18 -64 -63 -100.5t-108 -36.5q-72 0 -114.5 45.5t-42.5 123.5v323h49v-333q0 -65 30 -105.5t92 -40.5q64 0 110 51.5t47 132.5z" />
    <glyph glyph-name="Uogonek" unicode="&#x172;" horiz-adv-x="717" 
d="M421 -225q-36 0 -62.5 22.5t-26.5 59.5q0 65 119 144q-39 -11 -80 -11q-144 0 -216.5 76t-72.5 202v432h51v-419q0 -126 57.5 -198.5t180.5 -72.5q113 0 183 67.5t70 192.5v430h11v-433q0 -94 -42 -160t-112 -96q-67 -45 -95 -77.5t-28 -75.5q0 -32 21 -51.5t50 -19.5
q72 0 105 84l8 -3q-36 -93 -121 -93z" />
    <glyph glyph-name="uogonek" unicode="&#x173;" horiz-adv-x="531" 
d="M480 -132q-36 -93 -121 -93q-36 0 -62.5 22.5t-26.5 59.5q0 20 9 38t31 37.5t40 33t55 37.5l-4 124q-18 -64 -63 -100.5t-108 -36.5q-72 0 -114.5 45.5t-42.5 123.5v323h49v-333q0 -65 30 -105.5t92 -40.5q64 0 110 51.5t47 132.5v295h49v-482h-35q-69 -47 -94 -73.5
t-25 -68.5q0 -32 21 -51.5t50 -19.5q72 0 105 84z" />
    <glyph glyph-name="Wcircumflex" unicode="&#x174;" horiz-adv-x="903" 
d="M560 742l-122 150l-123 -150h-12l147 180h2l147 -180h-39zM640 -10l-187 530l-179 -530h-4l-255 710h52l225 -623l155 460l-57 163h50l221 -626l215 626h12l-244 -710h-4z" />
    <glyph glyph-name="wcircumflex" unicode="&#x175;" horiz-adv-x="643" 
d="M430 549l-123 165l-122 -165h-12l147 200h2l147 -200h-39zM452 -6l-126 352l-130 -352h-4l-185 488h51l155 -414l108 291l-44 123h50l145 -415l153 415h11l-180 -488h-4z" />
    <glyph glyph-name="Ycircumflex" unicode="&#x176;" horiz-adv-x="597" 
d="M408 742l-122 150l-123 -150h-12l147 180h2l147 -180h-39zM321 303l250 397h11l-257 -411v-289h-51v289l-259 411h57z" />
    <glyph glyph-name="ycircumflex" unicode="&#x177;" horiz-adv-x="443" 
d="M349 549l-123 165l-122 -165h-12l147 200h2l147 -200h-39zM54 -225q-36 0 -58 23t-22 60q0 23 10 41l10 -3q-10 -20 -10 -38q0 -32 19 -52.5t51 -20.5q39 0 66 32t63 114l34 77l-209 474h51l183 -417l182 417h12l-243 -555q-37 -85 -67.5 -118.5t-71.5 -33.5z" />
    <glyph glyph-name="Ydieresis" unicode="&#x178;" horiz-adv-x="597" 
d="M342 766v89h49v-89h-49zM207 766v89h49v-89h-49zM321 303l250 397h11l-257 -411v-289h-51v289l-259 411h57z" />
    <glyph glyph-name="Zacute" unicode="&#x179;" horiz-adv-x="636" 
d="M422 915h53l-134 -161h-4zM589 11v-11h-551v4l487 685h-451v11h512v-4l-487 -685h490z" />
    <glyph glyph-name="zacute" unicode="&#x17a;" horiz-adv-x="465" 
d="M331 749h49l-134 -188h-4zM30 4l332 468h-315v10h374v-4l-332 -468h336v-10h-395v4z" />
    <glyph glyph-name="Zdotaccent" unicode="&#x17b;" horiz-adv-x="636" 
d="M313 766v89h59v-89h-59zM589 11v-11h-551v4l487 685h-451v11h512v-4l-487 -685h490z" />
    <glyph glyph-name="zdotaccent" unicode="&#x17c;" horiz-adv-x="465" 
d="M220 609v86h53v-86h-53zM30 4l332 468h-315v10h374v-4l-332 -468h336v-10h-395v4z" />
    <glyph glyph-name="Zcaron" unicode="&#x17d;" horiz-adv-x="636" 
d="M343 742h-2l-147 180h39l122 -150l123 150h12zM589 11v-11h-551v4l487 685h-451v11h512v-4l-487 -685h490z" />
    <glyph glyph-name="zcaron" unicode="&#x17e;" horiz-adv-x="465" 
d="M247 549h-2l-147 200h39l123 -165l122 165h12zM30 4l332 468h-315v10h374v-4l-332 -468h336v-10h-395v4z" />
    <glyph glyph-name="uni0192" unicode="&#x192;" horiz-adv-x="490" 
d="M24 -173q-45 0 -70.5 26t-25.5 63q0 35 27 62l7 -6q-24 -25 -24 -56q0 -33 23 -56t63 -23q58 0 84.5 51t43.5 186l36 295h-101l2 11h100l12 95q28 235 174 235q45 0 70.5 -26t25.5 -63q0 -35 -27 -62l-7 6q24 25 24 56q0 33 -23 56t-63 23q-58 0 -84.5 -51t-43.5 -186
l-10 -83h138l-2 -11h-137l-38 -307q-28 -235 -174 -235z" />
    <glyph glyph-name="AEacute" unicode="&#x1fc;" horiz-adv-x="1007" 
d="M781 915h53l-134 -161h-4zM509 315v375l-261 -375h261zM509 0v304h-269l-212 -304h-13l488 700h448v-11h-391v-324h295v-11h-295v-343h401v-11h-452z" />
    <glyph glyph-name="aeacute" unicode="&#x1fd;" horiz-adv-x="827" 
d="M500 749h49l-134 -188h-4zM791 150q-17 -76 -69 -118t-130 -42q-77 0 -138.5 51t-76.5 134q-14 -79 -65.5 -132t-134.5 -53q-61 0 -100 34t-39 88q0 109 188 138l144 23v72q0 64 -34.5 100.5t-103.5 36.5q-68 0 -109 -33t-41 -84q0 -40 32 -66l-6 -7q-36 27 -36 73
q0 56 45.5 91.5t121.5 35.5q71 0 112.5 -31t54.5 -84q29 54 77 84.5t102 30.5q94 0 150.5 -64.5t56.5 -161.5h-371q-1 -9 -1 -28q0 -111 45.5 -174t134.5 -63q69 0 117.5 39.5t63.5 111.5zM585 483q-65 0 -110.5 -51.5t-53.5 -155.5h316q0 93 -35.5 150t-116.5 57zM370 263
l-143 -23q-141 -22 -141 -121q0 -52 31 -82t79 -30q73 0 123.5 62t50.5 158v36z" />
    <glyph glyph-name="Oslashacute" unicode="&#x1fe;" horiz-adv-x="752" 
d="M456 915h53l-134 -161h-4zM91 350q0 -168 80 -262l402 532q-74 80 -197 80q-132 0 -208.5 -92.5t-76.5 -257.5zM376 0q132 0 208.5 92.5t76.5 257.5q0 168 -80 262l-402 -532q74 -80 197 -80zM376 -10q-118 0 -209 74l-64 -84l-8 7l63 84q-57 50 -90 122t-33 157
q0 155 100.5 257.5t240.5 102.5q118 0 209 -74l64 84l8 -7l-63 -84q57 -50 90 -122t33 -157q0 -155 -100.5 -257.5t-240.5 -102.5z" />
    <glyph glyph-name="oslashacute" unicode="&#x1ff;" horiz-adv-x="532" 
d="M351 749h49l-134 -188h-4zM88 240q0 -111 44 -174l262 358q-47 59 -128 59q-83 0 -130.5 -62.5t-47.5 -180.5zM266 -1q83 0 130.5 62t47.5 179q0 113 -44 176l-262 -358q47 -59 128 -59zM266 -10q-79 0 -140 51l-43 -59l-8 5l44 60q-84 74 -84 193q0 103 67 177.5
t164 74.5q78 0 140 -51l43 59l8 -5l-44 -60q84 -76 84 -195q0 -102 -67 -176t-164 -74z" />
    <glyph glyph-name="uni0218" unicode="&#x218;" horiz-adv-x="579" 
d="M499 168q0 69 -44.5 105.5t-120.5 54.5l-95 23q-97 24 -144.5 63t-47.5 114q0 78 66.5 130t161.5 52q84 0 148.5 -36t94.5 -98l-9 -7q-29 61 -91 96t-143 35t-134.5 -42t-53.5 -112q0 -35 12 -60t37 -41.5t50.5 -26.5t65.5 -20l89 -23q96 -24 147 -66.5t51 -114.5
q0 -96 -72 -150t-171 -54q-96 0 -173.5 45t-105.5 122l9 5q29 -76 103 -119t167 -43q95 0 149 48.5t54 119.5zM245 -134v77h65v-78q0 -102 -92 -102v10q47 0 64.5 23.5t17.5 69.5h-55z" />
    <glyph glyph-name="uni0219" unicode="&#x219;" horiz-adv-x="445" 
d="M218 482q-58 0 -96 -29.5t-38 -72.5q0 -41 24 -61.5t76 -33.5l89 -23q67 -17 100 -44.5t33 -76.5q0 -67 -51.5 -109t-132.5 -42q-74 0 -128.5 38t-69.5 101l10 5q13 -62 66 -98t122 -36q64 0 106.5 31.5t42.5 87.5q0 71 -108 98l-96 24q-57 14 -87.5 40t-30.5 73
q0 59 50 98.5t119 39.5q62 0 107 -28.5t62 -86.5l-10 -4q-31 109 -159 109zM195 -134v77h65v-78q0 -102 -92 -102v10q47 0 64.5 23.5t17.5 69.5h-55z" />
    <glyph glyph-name="uni021A" unicode="&#x21a;" horiz-adv-x="657" 
d="M303 0v689h-283v11h617v-11h-284v-689h-50zM296 -134v77h65v-78q0 -102 -92 -102v10q47 0 64.5 23.5t17.5 69.5h-55z" />
    <glyph glyph-name="uni021B" unicode="&#x21b;" horiz-adv-x="357" 
d="M8 472v10h84v144l49 21v-165h178l-5 -10h-173v-377q0 -94 71 -94q54 0 83 37t33 104l10 -1q-5 -69 -37 -110t-92 -41q-56 0 -86.5 31.5t-30.5 87.5v363h-84zM177 -134v77h65v-78q0 -102 -92 -102v10q47 0 64.5 23.5t17.5 69.5h-55z" />
    <glyph glyph-name="uni0237" unicode="&#x237;" 
d="M130 -48q0 -82 -36 -129.5t-107 -47.5q-41 0 -68.5 22.5t-27.5 65.5q0 25 12 40l9 -3q-11 -18 -11 -37q0 -40 25 -59t61 -19q55 0 74.5 42.5t19.5 132.5v522h49v-530z" />
    <glyph glyph-name="uni02BB" unicode="&#x2bb;" horiz-adv-x="500" 
d="M282 660v-77h-65v78q0 102 92 102v-10q-47 0 -64.5 -23.5t-17.5 -69.5h55z" />
    <glyph glyph-name="circumflex" unicode="&#x2c6;" horiz-adv-x="500" 
d="M359 549l-123 165l-122 -165h-12l147 200h2l147 -200h-39z" />
    <glyph glyph-name="caron" unicode="&#x2c7;" horiz-adv-x="500" 
d="M251 549h-2l-147 200h39l123 -165l122 165h12z" />
    <glyph glyph-name="breve" unicode="&#x2d8;" horiz-adv-x="500" 
d="M390 742q0 -78 -39.5 -126t-100.5 -48t-100.5 48t-39.5 126h7q0 -140 133 -140t133 140h7z" />
    <glyph glyph-name="dotaccent" unicode="&#x2d9;" horiz-adv-x="499" 
d="M223 609v86h53v-86h-53z" />
    <glyph glyph-name="ring" unicode="&#x2da;" horiz-adv-x="499" 
d="M164 651q0 35 25.5 60.5t60.5 25.5t60 -25.5t25 -60.5t-25 -60t-60 -25t-60.5 25t-25.5 60zM325 651q0 31 -22 53.5t-53 22.5q-32 0 -54 -22.5t-22 -53.5t22.5 -53t53.5 -22t53 22t22 53z" />
    <glyph glyph-name="ogonek" unicode="&#x2db;" horiz-adv-x="500" 
d="M145 -143q0 21 9 39t34.5 40t42 33.5t58.5 39.5l4 -7q-50 -34 -70 -49.5t-36 -40t-16 -54.5q0 -32 21 -51.5t50 -19.5q72 0 105 84l8 -3q-36 -93 -121 -93q-36 0 -62.5 22.5t-26.5 59.5z" />
    <glyph glyph-name="tilde" unicode="&#x2dc;" horiz-adv-x="500" 
d="M318 597q-29 0 -77.5 41.5t-75.5 41.5t-42.5 -19.5t-23.5 -66.5h-7q7 54 32.5 83.5t58.5 29.5q29 0 77 -41.5t76 -41.5q27 0 42.5 20t22.5 66h8q-7 -54 -32.5 -83.5t-58.5 -29.5z" />
    <glyph glyph-name="hungarumlaut" unicode="&#x2dd;" horiz-adv-x="500" 
d="M340 749h49l-134 -188h-4zM200 749h49l-134 -188h-4z" />
    <glyph glyph-name="Wgrave" unicode="&#x1e80;" horiz-adv-x="903" 
d="M449 754l-134 161h53l85 -161h-4zM640 -10l-187 530l-179 -530h-4l-255 710h52l225 -623l155 460l-57 163h50l221 -626l215 626h12l-244 -710h-4z" />
    <glyph glyph-name="wgrave" unicode="&#x1e81;" horiz-adv-x="643" 
d="M320 561l-134 188h49l89 -188h-4zM452 -6l-126 352l-130 -352h-4l-185 488h51l155 -414l108 291l-44 123h50l145 -415l153 415h11l-180 -488h-4z" />
    <glyph glyph-name="Wacute" unicode="&#x1e82;" horiz-adv-x="903" 
d="M531 915h53l-134 -161h-4zM640 -10l-187 530l-179 -530h-4l-255 710h52l225 -623l155 460l-57 163h50l221 -626l215 626h12l-244 -710h-4z" />
    <glyph glyph-name="wacute" unicode="&#x1e83;" horiz-adv-x="643" 
d="M406 749h49l-134 -188h-4zM452 -6l-126 352l-130 -352h-4l-185 488h51l155 -414l108 291l-44 123h50l145 -415l153 415h11l-180 -488h-4z" />
    <glyph glyph-name="Wdieresis" unicode="&#x1e84;" horiz-adv-x="903" 
d="M494 766v89h49v-89h-49zM359 766v89h49v-89h-49zM640 -10l-187 530l-179 -530h-4l-255 710h52l225 -623l155 460l-57 163h50l221 -626l215 626h12l-244 -710h-4z" />
    <glyph glyph-name="wdieresis" unicode="&#x1e85;" horiz-adv-x="643" 
d="M365 609v86h47v-86h-47zM230 609v86h47v-86h-47zM452 -6l-126 352l-130 -352h-4l-185 488h51l155 -414l108 291l-44 123h50l145 -415l153 415h11l-180 -488h-4z" />
    <glyph glyph-name="Ygrave" unicode="&#x1ef2;" horiz-adv-x="597" 
d="M297 754l-134 161h53l85 -161h-4zM321 303l250 397h11l-257 -411v-289h-51v289l-259 411h57z" />
    <glyph glyph-name="ygrave" unicode="&#x1ef3;" horiz-adv-x="443" 
d="M239 561l-134 188h49l89 -188h-4zM54 -225q-36 0 -58 23t-22 60q0 23 10 41l10 -3q-10 -20 -10 -38q0 -32 19 -52.5t51 -20.5q39 0 66 32t63 114l34 77l-209 474h51l183 -417l182 417h12l-243 -555q-37 -85 -67.5 -118.5t-71.5 -33.5z" />
    <glyph glyph-name="uni2009" unicode="&#x2009;" horiz-adv-x="40" 
 />
    <glyph glyph-name="endash" unicode="&#x2013;" horiz-adv-x="540" 
d="M60 268v10h420v-10h-420z" />
    <glyph glyph-name="emdash" unicode="&#x2014;" horiz-adv-x="840" 
d="M60 269v10h720v-10h-720z" />
    <glyph glyph-name="quoteleft" unicode="&#x2018;" horiz-adv-x="189" 
d="M129 573v-77h-69v88q0 126 116 126v-10q-106 0 -106 -117v-10h59z" />
    <glyph glyph-name="quoteright" unicode="&#x2019;" horiz-adv-x="189" 
d="M60 623v77h69v-88q0 -126 -116 -126v10q106 0 106 117v10h-59z" />
    <glyph glyph-name="quotesinglbase" unicode="&#x201a;" horiz-adv-x="189" 
d="M60 2v77h69v-88q0 -126 -116 -126v10q106 0 106 117v10h-59z" />
    <glyph glyph-name="quotedblleft" unicode="&#x201c;" horiz-adv-x="333" 
d="M273 573v-77h-69v88q0 126 116 126v-10q-106 0 -106 -117v-10h59zM129 573v-77h-69v88q0 126 116 126v-10q-106 0 -106 -117v-10h59z" />
    <glyph glyph-name="quotedblright" unicode="&#x201d;" horiz-adv-x="335" 
d="M206 623v77h69v-88q0 -126 -116 -126v10q106 0 106 117v10h-59zM60 623v77h69v-88q0 -126 -116 -126v10q106 0 106 117v10h-59z" />
    <glyph glyph-name="quotedblbase" unicode="&#x201e;" horiz-adv-x="335" 
d="M206 2v77h69v-88q0 -126 -116 -126v10q106 0 106 117v10h-59zM60 2v77h69v-88q0 -126 -116 -126v10q106 0 106 117v10h-59z" />
    <glyph glyph-name="dagger" unicode="&#x2020;" horiz-adv-x="350" 
d="M170 355v261h-110v10h110v123h10v-123h110v-10h-110v-261h-10z" />
    <glyph glyph-name="daggerdbl" unicode="&#x2021;" horiz-adv-x="350" 
d="M170 355v123h-110v10h110v128h-110v10h110v123h10v-123h110v-10h-110v-128h110v-10h-110v-123h-10z" />
    <glyph glyph-name="bullet" unicode="&#x2022;" horiz-adv-x="331" 
d="M60 276q0 43 32 74.5t75 31.5t73.5 -31.5t30.5 -74.5q0 -44 -30.5 -75t-73.5 -31q-44 0 -75.5 31.5t-31.5 74.5z" />
    <glyph glyph-name="ellipsis" unicode="&#x2026;" horiz-adv-x="489" 
d="M61 0v77h69v-77h-69zM210 0v77h69v-77h-69zM359 0v77h69v-77h-69z" />
    <glyph glyph-name="perthousand" unicode="&#x2030;" horiz-adv-x="963" 
d="M149 0h-11l359 678q-19 -22 -55 -36.5t-76 -14.5q-45 0 -81 21q25 -39 25 -84q0 -58 -38.5 -102t-91.5 -44t-91.5 44t-38.5 102t38.5 102t91.5 44q28 0 50.5 -11.5t35.5 -25t39 -25t61 -11.5q96 0 152 77l6 -4zM266 564q0 57 -22 96.5t-64 39.5t-64 -39.5t-22 -96.5
t22 -96.5t64 -39.5t64 39.5t22 96.5zM653 141q0 58 38.5 102t91.5 44t91.5 -44t38.5 -102t-38.5 -102t-91.5 -44t-91.5 44t-38.5 102zM353 141q0 58 38.5 102t91.5 44t91.5 -44t38.5 -102t-38.5 -102t-91.5 -44t-91.5 44t-38.5 102zM869 141q0 57 -22 96.5t-64 39.5
t-64 -39.5t-22 -96.5t22 -96.5t64 -39.5t64 39.5t22 96.5zM569 141q0 57 -22 96.5t-64 39.5t-64 -39.5t-22 -96.5t22 -96.5t64 -39.5t64 39.5t22 96.5z" />
    <glyph glyph-name="guilsinglleft" unicode="&#x2039;" horiz-adv-x="327" 
d="M55 243v2l213 199h4l-163 -200l163 -200h-4z" />
    <glyph glyph-name="guilsinglright" unicode="&#x203a;" horiz-adv-x="327" 
d="M272 245v-2l-213 -199h-4l163 200l-163 200h4z" />
    <glyph glyph-name="fraction" unicode="&#x2044;" horiz-adv-x="343" 
d="M10 -123l294 872h9l-294 -872h-9z" />
    <glyph glyph-name="Euro" unicode="&#x20ac;" horiz-adv-x="606" 
d="M376 -10q-105 0 -181.5 87.5t-89.5 223.5h-81v10h80q-1 13 -1 39q0 16 2 48h-81v10h82q16 133 91.5 217.5t178.5 84.5q71 0 127.5 -51.5t76.5 -142.5l-10 -3q-19 87 -71.5 137t-122.5 50q-93 0 -149 -75.5t-66 -216.5h243l-3 -10h-241q-1 -15 -1 -48q0 -26 1 -39h213
l-3 -10h-210q9 -146 65.5 -223.5t150.5 -77.5q70 0 122.5 50t71.5 137l10 -3q-20 -91 -76.5 -142.5t-127.5 -51.5z" />
    <glyph glyph-name="uni2117" unicode="&#x2117;" horiz-adv-x="810" 
d="M405 710q151 0 255.5 -102.5t104.5 -257.5t-104.5 -257.5t-255.5 -102.5t-255.5 102.5t-104.5 257.5t104.5 257.5t255.5 102.5zM405 0q147 0 248.5 99.5t101.5 250.5t-101.5 250.5t-248.5 99.5t-248.5 -99.5t-101.5 -250.5t101.5 -250.5t248.5 -99.5zM428 313h-98v-164
h-42v408h140q74 0 119 -31t45 -91q0 -59 -45.5 -90.5t-118.5 -31.5zM330 323h91q125 0 125 112t-125 112h-91v-224z" />
    <glyph glyph-name="trademark" unicode="&#x2122;" horiz-adv-x="733" 
d="M155 427v263h-114v10h271v-10h-114v-263h-43zM505 486l83 214h49v-273h-43v262l-102 -263h-8l-110 263v-262h-10v273h53z" />
    <glyph glyph-name="uni2153" unicode="&#x2153;" horiz-adv-x="405" 
d="M213 414h-40v251q-23 -37 -62 -59l-3 7q50 29 83 94h22v-293zM40 358h325v-10h-325v10zM196 -6q-44 0 -69 20.5t-25 50.5q0 37 35 49l4 -5q-31 -11 -31 -43q0 -27 22.5 -45t57.5 -18q36 0 55 21.5t19 56.5q0 70 -79 70h-9v7h9q69 0 69 64q0 61 -61 61q-30 0 -49.5 -15.5
t-19.5 -41.5q0 -28 26 -37l-3 -7q-32 11 -32 45q0 28 24 46.5t61 18.5q40 0 66.5 -18.5t26.5 -51.5q0 -28 -26 -47t-57 -20v-1q38 -2 66.5 -22t28.5 -54q0 -38 -31 -61t-78 -23z" />
    <glyph glyph-name="uni2154" unicode="&#x2154;" horiz-adv-x="405" 
d="M133 447h166l-1 -33h-201v5l84 83q70 68 70 129q0 67 -63 67q-31 0 -51.5 -19.5t-20.5 -48.5q0 -34 27 -46l-5 -6q-12 5 -21 19.5t-9 32.5q0 33 24.5 55.5t64.5 22.5q42 0 68.5 -21t26.5 -57q0 -38 -29.5 -70.5t-109.5 -96.5q-6 -5 -10.5 -8.5t-9.5 -7.5zM40 358h325v-10
h-325v10zM196 -6q-44 0 -69 20.5t-25 50.5q0 37 35 49l4 -5q-31 -11 -31 -43q0 -27 22.5 -45t57.5 -18q36 0 55 21.5t19 56.5q0 70 -79 70h-9v7h9q69 0 69 64q0 61 -61 61q-30 0 -49.5 -15.5t-19.5 -41.5q0 -28 26 -37l-3 -7q-32 11 -32 45q0 28 24 46.5t61 18.5
q40 0 66.5 -18.5t26.5 -51.5q0 -28 -26 -47t-57 -20v-1q38 -2 66.5 -22t28.5 -54q0 -38 -31 -61t-78 -23z" />
    <glyph glyph-name="uni215B" unicode="&#x215b;" horiz-adv-x="405" 
d="M221 414h-40v251q-23 -37 -62 -59l-3 7q50 29 83 94h22v-293zM40 358h325v-10h-325v10zM239 157q72 -26 72 -79q0 -35 -29.5 -59.5t-72.5 -24.5q-44 0 -73.5 21t-29.5 57q0 26 18 44.5t47 27.5q-53 26 -53 71q0 33 25.5 55t63.5 22q36 0 60 -18.5t24 -48.5q0 -46 -52 -68
zM148 229q0 -33 47 -53l37 -16q50 23 50 65q0 27 -21.5 43.5t-52.5 16.5q-26 0 -43 -15t-17 -41zM224 123l-46 18q-63 -23 -63 -69q0 -33 27 -51.5t66 -18.5q34 0 53.5 16.5t19.5 45.5q0 36 -57 59z" />
    <glyph glyph-name="uni215C" unicode="&#x215c;" horiz-adv-x="405" 
d="M196 410q-44 0 -69 20.5t-25 50.5q0 37 35 49l4 -5q-31 -11 -31 -43q0 -27 22.5 -45t57.5 -18q36 0 55 21.5t19 56.5q0 70 -79 70h-9v7h9q69 0 69 64q0 61 -61 61q-30 0 -49.5 -15.5t-19.5 -41.5q0 -28 26 -37l-3 -7q-32 11 -32 45q0 28 24 46.5t61 18.5q40 0 66.5 -18.5
t26.5 -51.5q0 -28 -26 -47t-57 -20v-1q38 -2 66.5 -22t28.5 -54q0 -38 -31 -61t-78 -23zM40 358h325v-10h-325v10zM239 157q72 -26 72 -79q0 -35 -29.5 -59.5t-72.5 -24.5q-44 0 -73.5 21t-29.5 57q0 26 18 44.5t47 27.5q-53 26 -53 71q0 33 25.5 55t63.5 22q36 0 60 -18.5
t24 -48.5q0 -46 -52 -68zM148 229q0 -33 47 -53l37 -16q50 23 50 65q0 27 -21.5 43.5t-52.5 16.5q-26 0 -43 -15t-17 -41zM224 123l-46 18q-63 -23 -63 -69q0 -33 27 -51.5t66 -18.5q34 0 53.5 16.5t19.5 45.5q0 36 -57 59z" />
    <glyph glyph-name="uni215D" unicode="&#x215d;" horiz-adv-x="405" 
d="M298 700l-5 -35h-137l-12 -101q19 33 71 33q41 0 67 -23.5t26 -63.5q0 -45 -32 -74.5t-83 -29.5q-38 0 -62 19t-24 50q0 33 30 48l5 -6q-26 -14 -26 -42q0 -27 21 -43.5t51 -16.5q39 0 59 24.5t20 69.5q0 35 -16 56.5t-47 21.5q-42 0 -65 -39h-5l18 152h146zM40 358h325
v-10h-325v10zM239 157q72 -26 72 -79q0 -35 -29.5 -59.5t-72.5 -24.5q-44 0 -73.5 21t-29.5 57q0 26 18 44.5t47 27.5q-53 26 -53 71q0 33 25.5 55t63.5 22q36 0 60 -18.5t24 -48.5q0 -46 -52 -68zM148 229q0 -33 47 -53l37 -16q50 23 50 65q0 27 -21.5 43.5t-52.5 16.5
q-26 0 -43 -15t-17 -41zM224 123l-46 18q-63 -23 -63 -69q0 -33 27 -51.5t66 -18.5q34 0 53.5 16.5t19.5 45.5q0 36 -57 59z" />
    <glyph glyph-name="uni215E" unicode="&#x215e;" horiz-adv-x="405" 
d="M117 700h193v-5l-26 -44q-67 -116 -63 -241h-38q1 43 16.5 88t30 72t48.5 84l7 11h-168v35zM40 358h325v-10h-325v10zM239 157q72 -26 72 -79q0 -35 -29.5 -59.5t-72.5 -24.5q-44 0 -73.5 21t-29.5 57q0 26 18 44.5t47 27.5q-53 26 -53 71q0 33 25.5 55t63.5 22
q36 0 60 -18.5t24 -48.5q0 -46 -52 -68zM148 229q0 -33 47 -53l37 -16q50 23 50 65q0 27 -21.5 43.5t-52.5 16.5q-26 0 -43 -15t-17 -41zM224 123l-46 18q-63 -23 -63 -69q0 -33 27 -51.5t66 -18.5q34 0 53.5 16.5t19.5 45.5q0 36 -57 59z" />
    <glyph glyph-name="minus" unicode="&#x2212;" horiz-adv-x="479" 
d="M44 315v10h391v-10h-391z" />
    <glyph glyph-name="approxequal" unicode="&#x2248;" horiz-adv-x="480" 
d="M44 347v12q52 52 105 52q35 0 91 -28t88 -28q55 0 108 54v-11q-52 -53 -108 -53q-34 0 -90.5 28t-88.5 28q-51 0 -105 -54zM44 220v12q52 52 105 52q35 0 91 -28t88 -28q55 0 108 54v-11q-52 -53 -108 -53q-34 0 -90.5 28t-88.5 28q-51 0 -105 -54z" />
    <glyph glyph-name="notequal" unicode="&#x2260;" horiz-adv-x="479" 
d="M435 237h-252l-88 -102h-13l88 102h-126v10h135l115 133h-250v10h259l86 99h13l-86 -99h119v-10h-128l-115 -133h243v-10z" />
    <glyph glyph-name="lessequal" unicode="&#x2264;" horiz-adv-x="373" 
d="M44 335v10l284 135v-10l-274 -130l274 -130v-10zM44 124v10h285v-10h-285z" />
    <glyph glyph-name="greaterequal" unicode="&#x2265;" horiz-adv-x="373" 
d="M329 335l-284 -135v10l274 130l-274 130v10l284 -135v-10zM329 124h-285v10h285v-10z" />
    <glyph glyph-name="uni00200326" horiz-adv-x="500" 
d="M217 -134v77h65v-78q0 -102 -92 -102v10q47 0 64.5 23.5t17.5 69.5h-55z" />
    <glyph glyph-name="uni00200323" horiz-adv-x="499" 
d="M220 -174v89h59v-89h-59z" />
    <glyph glyph-name="i.dot" 
d="M79 609v86h53v-86h-53zM130 482v-482h-49v482h49z" />
    <glyph glyph-name="f_f.short" horiz-adv-x="574" 
d="M143 482h247v93q0 60 23 104q-38 60 -119 60q-73 0 -112 -54.5t-39 -144.5v-58zM143 472v-472h-49v472h-84v10h84v52q0 90 55 152.5t145 62.5q80 0 125 -60q42 70 118 70q41 0 66.5 -24.5t25.5 -65.5q0 -31 -19 -52l-7 6q16 20 16 46q0 39 -22.5 59.5t-59.5 20.5
q-98 0 -98 -173v-94h150l-5 -10h-145v-472h-49v472h-247z" />
    <glyph glyph-name="f.short" horiz-adv-x="278" 
d="M94 575q0 80 41 132t106 52q41 0 66.5 -24.5t25.5 -65.5q0 -31 -19 -52l-7 6q16 20 16 46q0 39 -22.5 59.5t-59.5 20.5q-98 0 -98 -173v-94h150l-5 -10h-145v-472h-49v472h-84v10h84v93z" />
    <glyph glyph-name="caron.Slovak" horiz-adv-x="500" 
d="M287 749l-70 -205h-4l25 205h49z" />
    <glyph glyph-name="hyphen.cap" horiz-adv-x="369" 
d="M60 329v13h249v-13h-249z" />
    <glyph glyph-name="endash.cap" horiz-adv-x="540" 
d="M60 328v10h420v-10h-420z" />
    <glyph glyph-name="emdash.cap" horiz-adv-x="840" 
d="M60 329v10h720v-10h-720z" />
    <glyph glyph-name="parenleft.cap" horiz-adv-x="308" 
d="M110 323q0 -97 9 -161.5t32.5 -112t48.5 -76t74 -71.5l-6 -6q-98 72 -153 185t-55 242t55 242t153 184l6 -6q-48 -43 -73.5 -71.5t-49 -76t-32.5 -112t-9 -160.5z" />
    <glyph glyph-name="parenright.cap" horiz-adv-x="308" 
d="M198 323q0 96 -9 160.5t-32.5 112t-49 76t-73.5 71.5l6 6q98 -71 153 -184t55 -242t-55 -242t-153 -185l-6 6q49 43 74 71.5t48.5 76t32.5 112t9 161.5z" />
    <glyph glyph-name="bracketleft.cap" horiz-adv-x="263" 
d="M66 -104v853h166v-6l-126 -4v-833l126 -4v-6h-166z" />
    <glyph glyph-name="bracketright.cap" horiz-adv-x="263" 
d="M197 749v-853h-166v6l126 4v833l-126 4v6h166z" />
    <glyph glyph-name="braceleft.cap" horiz-adv-x="350" 
d="M20 319v7q55 0 89.5 32.5t34.5 103.5q0 19 -9 69.5t-9 76.5q0 56 47 98.5t111 42.5q25 0 46 -4v-10q-21 4 -46 4q-56 0 -90 -33t-34 -89q0 -22 13 -80t13 -75q0 -45 -27.5 -78t-55.5 -46t-51 -16q23 -3 51 -15.5t55.5 -45.5t27.5 -78q0 -17 -13 -75.5t-13 -80.5
q0 -56 34 -88.5t90 -32.5q25 0 46 4v-11q-24 -3 -46 -3q-65 0 -111.5 42.5t-46.5 98.5q0 25 9 76t9 70q0 71 -34.5 103.5t-89.5 32.5z" />
    <glyph glyph-name="braceright.cap" horiz-adv-x="350" 
d="M330 319q-55 0 -89.5 -32.5t-34.5 -103.5q0 -19 9 -70t9 -76q0 -56 -46.5 -98.5t-111.5 -42.5q-22 0 -46 3v11q21 -4 46 -4q56 0 90 32.5t34 88.5q0 22 -13 80.5t-13 75.5q0 45 27.5 78t55.5 45.5t51 15.5q-23 3 -51 16t-55.5 46t-27.5 78q0 17 13 75t13 80q0 56 -34 89
t-90 33q-25 0 -46 -4v10q21 4 46 4q64 0 111 -42.5t47 -98.5q0 -26 -9 -76.5t-9 -69.5q0 -71 34.5 -103.5t89.5 -32.5v-7z" />
    <glyph glyph-name="guilsinglleft.cap" horiz-adv-x="327" 
d="M55 333v2l213 199h4l-163 -200l163 -200h-4z" />
    <glyph glyph-name="guilsinglright.cap" horiz-adv-x="327" 
d="M272 335v-2l-213 -199h-4l163 200l-163 200h4z" />
    <glyph glyph-name="guillemotleft.cap" horiz-adv-x="464" 
d="M55 333v2l213 199h4l-163 -200l163 -200h-4zM192 333v2l213 199h4l-163 -200l163 -200h-4z" />
    <glyph glyph-name="guillemotright.cap" horiz-adv-x="464" 
d="M272 335v-2l-213 -199h-4l163 200l-163 200h4zM409 335v-2l-213 -199h-4l163 200l-163 200h4z" />
    <glyph glyph-name="slash.cap" horiz-adv-x="351" 
d="M20 -103l300 852h11l-300 -852h-11z" />
    <glyph glyph-name="backslash.cap" horiz-adv-x="351" 
d="M331 -103h-11l-300 852h11z" />
    <glyph glyph-name="bar.cap" horiz-adv-x="214" 
d="M102 -103v852h10v-852h-10z" />
    <glyph glyph-name="at.cap" horiz-adv-x="941" 
d="M670 141q32 0 67 15.5t68 45.5t54.5 85t21.5 125q0 158 -111.5 251t-278.5 93q-179 0 -305 -123t-126 -312q0 -180 120 -292.5t306 -112.5q167 0 284 88l6 -8q-118 -90 -290 -90q-190 0 -313 116t-123 299q0 128 60.5 230.5t161 158.5t219.5 56q170 0 285 -95.5
t115 -258.5q0 -71 -22.5 -128t-57.5 -88.5t-72.5 -48t-73.5 -16.5q-48 0 -80.5 33.5t-21.5 87.5q-24 -50 -67.5 -84.5t-92.5 -34.5q-59 0 -95.5 40t-36.5 105q0 107 66 187.5t158 80.5q52 0 81 -33.5t30 -84.5l35 110h35l-70 -280q-13 -54 5 -85.5t59 -31.5zM574 297l16 63
q8 42 8 57q0 54 -27.5 86.5t-75.5 32.5q-54 0 -97 -43t-64 -104.5t-22 -127.5q-1 -55 22 -86.5t70 -31.5q54 0 101.5 44t68.5 110z" />
    <glyph glyph-name="exclamdown.cap" horiz-adv-x="198" 
d="M64 623v77h69v-77h-69zM97 505h4l33 -505h-70z" />
    <glyph glyph-name="questiondown.cap" horiz-adv-x="496" 
d="M302 701v-77h-69v77h69zM88 165q0 -76 43 -120t125 -44q84 0 137.5 52t53.5 124q0 76 -54 112l6 8q58 -38 58 -120q0 -76 -56.5 -131t-144.5 -55q-96 0 -156 50t-60 132q0 96 65 155t157 72v106h10v-155q-78 -10 -131 -62t-53 -124z" />
    <glyph glyph-name="periodcentered.cap" horiz-adv-x="189" 
d="M60 298v77h69v-77h-69z" />
    <glyph glyph-name="bullet.cap" horiz-adv-x="331" 
d="M60 336q0 43 32 74.5t75 31.5t73.5 -31.5t30.5 -74.5q0 -44 -30.5 -75t-73.5 -31q-44 0 -75.5 31.5t-31.5 74.5z" />
    <glyph glyph-name="zero.op" horiz-adv-x="586" 
d="M33 313q0 127 74.5 225t185.5 98t185.5 -98t74.5 -225q0 -126 -74.5 -224.5t-185.5 -98.5t-185.5 98.5t-74.5 224.5zM89 313q0 -139 48.5 -226t155.5 -87t155.5 87t48.5 226t-48.5 226t-155.5 87t-155.5 -87t-48.5 -226z" />
    <glyph glyph-name="one.op" horiz-adv-x="314" 
d="M223 0h-51v547q-21 -32 -60.5 -72t-84.5 -62l-4 9q54 28 104.5 84t87.5 130h8v-636z" />
    <glyph glyph-name="two.op" horiz-adv-x="495" 
d="M73 47h397v-47h-456v7l157 131q59 49 91 78.5t68.5 71.5t52.5 82t16 84q0 82 -41 127t-123 45q-84 0 -135.5 -52t-51.5 -124q0 -76 54 -112l-6 -8q-58 38 -58 120q0 76 54.5 131t142.5 55q96 0 156 -50t60 -132q0 -53 -45.5 -114t-97.5 -105t-170 -137q-43 -33 -65 -51z
" />
    <glyph glyph-name="three.op" horiz-adv-x="511" 
d="M242 -10q-102 0 -158.5 48t-56.5 113q0 71 69 104l5 -7q-28 -12 -46 -37.5t-18 -59.5q0 -60 53.5 -105.5t151.5 -45.5q92 0 140.5 49t48.5 130q0 155 -213 155h-19v10h19q185 0 185 144q0 138 -154 138q-77 0 -128 -37t-51 -98q0 -62 56 -85l-3 -9q-63 27 -63 94
q0 64 53 104.5t136 40.5q88 0 146.5 -40t58.5 -108q0 -61 -59 -103t-124 -45v-2q84 -3 147.5 -47.5t63.5 -119.5q0 -78 -68.5 -129.5t-171.5 -51.5z" />
    <glyph glyph-name="four.op" horiz-adv-x="571" 
d="M550 190v-11h-155v-179h-51v179h-333v7l340 439h44v-435h155zM344 190v408l-317 -408h317z" />
    <glyph glyph-name="five.op" horiz-adv-x="506" 
d="M454 626l-8 -48h-315l-30 -236q24 36 69 59t95 23q92 0 152.5 -58t60.5 -146q0 -94 -72.5 -162t-181.5 -68q-83 0 -139 44.5t-56 112.5q0 75 66 106l6 -6q-62 -33 -62 -100q0 -65 53.5 -106t131.5 -41q98 0 150 57.5t52 162.5q0 85 -42 139.5t-119 54.5q-109 0 -166 -89
h-8l37 301h326z" />
    <glyph glyph-name="six.op" horiz-adv-x="530" 
d="M502 211q0 -91 -63 -156t-159 -65q-108 0 -177.5 95.5t-69.5 238.5q0 97 33 183.5t101.5 144.5t156.5 58q76 0 123 -37.5t47 -99.5q0 -40 -20.5 -65t-46.5 -32l-3 8q60 22 60 89q0 57 -44 92t-116 35q-84 0 -141.5 -61.5t-80.5 -157t-16 -209.5q16 70 70 113t125 43
q94 0 157.5 -61t63.5 -156zM89 209q0 -86 54 -147.5t137 -61.5q86 0 128.5 60t42.5 151q0 98 -44 152.5t-126 54.5q-76 0 -134 -54.5t-58 -154.5z" />
    <glyph glyph-name="seven.op" horiz-adv-x="456" 
d="M16 626h437v-4l-33 -61q-91 -169 -136.5 -312t-45.5 -323h-48q0 55 6 106t24.5 109.5t30.5 95t47.5 108t50 100t61.5 116.5l9 17h-403v48z" />
    <glyph glyph-name="eight.op" horiz-adv-x="513" 
d="M306 334q95 -31 137 -70t42 -100q0 -70 -63 -122t-161 -52t-165.5 46.5t-67.5 125.5q0 58 45.5 100t118.5 64q-133 56 -133 154q0 65 55.5 110.5t136.5 45.5q83 0 136 -42t53 -105q0 -108 -134 -155zM100 491q0 -33 20 -58.5t42 -38t59 -27.5l73 -29q64 22 100 57t36 94
t-50.5 98t-128.5 39q-64 0 -107.5 -36.5t-43.5 -98.5zM304 284l-101 38q-165 -53 -165 -160q0 -76 65.5 -119t157.5 -43q85 0 134.5 40.5t49.5 110.5q0 48 -35.5 77.5t-105.5 55.5z" />
    <glyph glyph-name="nine.op" horiz-adv-x="530" 
d="M441 416q0 86 -54 147.5t-137 61.5q-86 0 -128.5 -60t-42.5 -151q0 -98 44 -152.5t126 -54.5q76 0 134 54.5t58 154.5zM28 414q0 91 63 156t159 65q109 0 178 -98t69 -252q0 -53 -10 -104.5t-32 -100t-54 -85t-79.5 -58.5t-103.5 -22q-76 0 -124 39.5t-48 101.5
q0 40 20.5 65t46.5 32l3 -8q-60 -22 -60 -89q0 -58 45 -94.5t117 -36.5q68 0 116 35t72.5 97t33.5 135.5t4 160.5q-16 -70 -70 -113t-125 -43q-94 0 -157.5 61t-63.5 156z" />
    <glyph glyph-name="percent.op" horiz-adv-x="663" 
d="M149 0h-11l355 604q-43 -50 -127 -50q-45 0 -81 21q25 -39 25 -84q0 -58 -38.5 -102t-91.5 -44t-91.5 44t-38.5 102t38.5 102t91.5 44q28 0 50.5 -11.5t35.5 -25t39 -25t61 -11.5q96 0 152 77l6 -4zM266 491q0 57 -22 96.5t-64 39.5t-64 -39.5t-22 -96.5t22 -96.5
t64 -39.5t64 39.5t22 96.5zM353 141q0 58 38.5 102t91.5 44t91.5 -44t38.5 -102t-38.5 -102t-91.5 -44t-91.5 44t-38.5 102zM569 141q0 57 -22 96.5t-64 39.5t-64 -39.5t-22 -96.5t22 -96.5t64 -39.5t64 39.5t22 96.5z" />
    <glyph glyph-name="perthousand.op" horiz-adv-x="963" 
d="M149 0h-11l355 604q-43 -50 -127 -50q-45 0 -81 21q25 -39 25 -84q0 -58 -38.5 -102t-91.5 -44t-91.5 44t-38.5 102t38.5 102t91.5 44q28 0 50.5 -11.5t35.5 -25t39 -25t61 -11.5q96 0 152 77l6 -4zM266 491q0 57 -22 96.5t-64 39.5t-64 -39.5t-22 -96.5t22 -96.5
t64 -39.5t64 39.5t22 96.5zM653 141q0 58 38.5 102t91.5 44t91.5 -44t38.5 -102t-38.5 -102t-91.5 -44t-91.5 44t-38.5 102zM353 141q0 58 38.5 102t91.5 44t91.5 -44t38.5 -102t-38.5 -102t-91.5 -44t-91.5 44t-38.5 102zM869 141q0 57 -22 96.5t-64 39.5t-64 -39.5
t-22 -96.5t22 -96.5t64 -39.5t64 39.5t22 96.5zM569 141q0 57 -22 96.5t-64 39.5t-64 -39.5t-22 -96.5t22 -96.5t64 -39.5t64 39.5t22 96.5z" />
    <glyph glyph-name="dollar.op" horiz-adv-x="525" 
d="M222 362l80 -23v283q-20 4 -47 4q-11 0 -33 -2v-262zM85 489q0 -54 31 -79t96 -45v257q-57 -10 -92 -45t-35 -88zM263 0q21 0 39 3v287l-80 23v-311q26 -2 41 -2zM452 150q0 59 -36 88t-104 49v-283q66 12 103 52t37 94zM263 -10q-15 0 -41 2v-98h-10v100
q-79 12 -129.5 58t-54.5 111l10 2q3 -62 50.5 -105.5t123.5 -55.5v312q-85 24 -125 57.5t-40 99.5q0 61 46.5 105t118.5 55v109h10v-108q22 2 33 2q27 0 47 -4v110h10v-112q60 -13 101 -48.5t56 -83.5l-10 -5q-14 47 -53 81t-94 46v-284q88 -26 133.5 -62.5t45.5 -100.5
q0 -73 -51.5 -120t-127.5 -59v-100h-10v99q-20 -3 -39 -3z" />
    <glyph glyph-name="sterling.op" horiz-adv-x="608" 
d="M101 0q74 0 96 110q-46 24 -83 24t-58.5 -19t-21.5 -51q0 -27 18 -45.5t49 -18.5zM458 -10q-31 0 -65.5 12t-57.5 25t-60.5 37t-53.5 33q-39 -108 -120 -108q-35 0 -56 22t-21 53q0 35 24.5 57.5t65.5 22.5q35 0 86 -22q7 42 7 104q0 39 -3 90h-119v10h119q-3 49 -3 99
q0 93 51.5 152t135.5 59q70 0 107.5 -34t37.5 -87q0 -36 -17 -61.5t-41 -34.5l-4 8q52 23 52 88q0 49 -34 80t-101 31q-63 0 -100 -49.5t-37 -136.5v-114h160v-10h-160v-5q0 -125 -26 -201q6 -3 33.5 -16.5t38 -18.5t35.5 -15.5t41.5 -14.5t39.5 -8t45 -4q46 0 75.5 19.5
t29.5 59.5q0 38 -21 64l9 5q22 -31 22 -69q0 -50 -31 -86t-84 -36z" />
    <glyph glyph-name="yen.op" horiz-adv-x="579" 
d="M503 205h-187v-205h-51v205h-187v10h187v54l-29 45h-158v10h152l-194 302h57l219 -343l220 343h11l-192 -302h152v-10h-158l-29 -45v-54h187v-10z" />
    <glyph glyph-name="Euro.op" horiz-adv-x="611" 
d="M369 -10q-104 0 -178 79t-86 202h-81v10h80q-1 10 -1 32q0 31 4 55h-83v10h84q18 114 90.5 186t170.5 72q70 0 124.5 -46t73.5 -128l-9 -3q-19 78 -70 122.5t-119 44.5q-88 0 -142 -64t-66 -184h223l-3 -10h-221q-2 -34 -2 -55q0 -22 1 -32h194l-3 -10h-191
q8 -132 63 -201.5t147 -69.5q68 0 119 44.5t70 122.5l9 -3q-19 -82 -73.5 -128t-124.5 -46z" />
    <glyph glyph-name="uni0192.op" horiz-adv-x="490" 
d="M24 -173q-45 0 -70.5 26t-25.5 63q0 35 27 62l7 -6q-24 -25 -24 -56q0 -33 23 -56t63 -23q58 0 84.5 51t43.5 186l30 242h-98l2 11h97l9 74q28 235 174 235q45 0 70.5 -26t25.5 -63q0 -35 -27 -62l-7 6q24 25 24 56q0 33 -23 56t-63 23q-58 0 -84.5 -51t-43.5 -186
l-8 -62h142l-2 -11h-141l-31 -254q-28 -235 -174 -235z" />
    </font>
</defs>
</svg>
