<?xml version="1.0" standalone="no"?>
<!DOCTYPE svg PUBLIC "-//W3C//DTD SVG 1.1//EN" "http://www.w3.org/Graphics/SVG/1.1/DTD/svg11.dtd" >
<svg xmlns="http://www.w3.org/2000/svg" xmlns:xlink="http://www.w3.org/1999/xlink" version="1.1">
<metadata>
Created by FontForge 20170731 at Thu Oct 16 16:09:07 2014
 By Aleksey,,,
(c) 2014 Klim Type Foundry. All Rights Reserved. wf-rip
</metadata>
<defs>
<font id="DomaineSansDisplay-Medium" horiz-adv-x="248" >
  <font-face 
    font-family="Domaine Sans Display Medium"
    font-weight="500"
    font-stretch="normal"
    units-per-em="1000"
    panose-1="2 11 6 3 8 7 2 4 2 4"
    ascent="800"
    descent="-200"
    x-height="490"
    cap-height="700"
    bbox="-116 -271.684 1196 969"
    underline-thickness="10"
    underline-position="-128"
    unicode-range="U+000D-FB02"
  />
<missing-glyph horiz-adv-x="1152" 
d="M644 232l-32 19l-17 29l6 59l24 34l74 55l19 -4l48 -58l21 -65l-38 -41zM595 63l-24 3l-4 9l5 44l-2 37l-11 3l-5 -48l-30 -40l-20 -8l-43 7l-13 19v16l42 74l34 36l16 33v7l16 11l8 -9l1 -18l18 -31l15 -3l14 -31l8 -5l20 -41l-9 -50l-15 -3zM451 405l60 -60l-3 -39
l-8 -12l-17 4l-4 -19l5 -14l-8 -11l-31 -26l-34 1l-27 -12l-46 21l-19 19l-9 29l8 37l-1 6l4 37l20 22l26 43l8 3zM510 -81l-38 -19l-38 15l-2 14l12 28l-6 8l-16 2l-29 -23l-43 21v36l-35 32l-60 105l-33 86l-22 98l5 168l9 67l31 67l51 66l98 59l49 15l5 4l106 6l72 -3
l5 -6l-1 -20l-56 -78l-10 -22l-13 -71l14 -11v-7l-7 -7l-24 -13l-59 19l-32 37l1 9l-8 4l-45 -27l-62 -20l-61 -90l-14 -136l18 -72l43 -91l36 -85l57 -56l36 -17l24 4l102 -17l97 32l45 38l24 27l63 105l68 97l-19 56l10 84l-23 69l7 20l-86 48l-76 21l-83 -16l-3 4l11 81
l14 10l28 91l48 3l99 -30l76 -43l59 -91l8 -27l8 -45l-9 -46l-20 -61l3 -51l32 -40l1 -37l-94 -133l-33 -103l-9 -7l-24 -62l7 -10l-35 -24l-9 3l-30 24l-1 30l-5 2l-19 -23v-11l20 -26l-35 -35l-16 -3l-22 21l6 16l-17 17l-24 -4l-21 -65l-35 -3l-15 23l3 30l-33 -4z" />
    <glyph glyph-name="fi" unicode="fi" horiz-adv-x="569" 
d="M195 0h-116v480h-74v10h74v39q0 101 61 165.5t165 64.5q77 0 117.5 -33t40.5 -88q0 -45 -29 -72l-8 6q27 29 27 66q0 47 -32.5 76t-88.5 29q-70 0 -103.5 -50t-33.5 -136v-67h308v-490h-116v480h-192v-480z" />
    <glyph glyph-name="fl" unicode="fl" horiz-adv-x="569" 
d="M387 0v662q-9 36 -34 57.5t-60 21.5q-50 0 -74 -40t-24 -104v-107h128l-5 -10h-123v-480h-116v480h-74v10h74v54q0 97 50 156t135 59q90 0 123 -69l8 59h108v-749h-116z" />
    <glyph glyph-name="f_b" unicode="fb" horiz-adv-x="915" 
d="M888 249q0 -114 -62.5 -186.5t-150.5 -72.5q-63 0 -109 36t-63 94l-11 -120h-105v662q-9 36 -34 57.5t-60 21.5q-50 0 -74 -40t-24 -104v-107h128l-5 -10h-123v-480h-116v480h-74v10h74v54q0 97 50 156t135 59q90 0 123 -69l8 59h108v-381q16 57 62 94.5t111 37.5
q87 0 149.5 -69t62.5 -182zM503 308v-125q1 -72 40 -120t94 -48q60 0 93.5 64t33.5 168t-33 166t-92 62q-54 0 -94.5 -47.5t-41.5 -119.5z" />
    <glyph glyph-name="f_f_b" unicode="ffb" horiz-adv-x="1223" 
d="M983 -10q-63 0 -109 36t-62 94l-11 -120h-106v662q-8 36 -33 57.5t-61 21.5q-50 0 -74 -40.5t-24 -103.5v-107h129l-5 -10h-124v-480h-116v480h-192v-480h-116v480h-74v10h74v33q0 96 63 160t166 64q80 0 127 -49q52 61 137 61q90 0 123 -69l9 59h108v-381
q16 57 61.5 94.5t110.5 37.5q87 0 149.5 -69t62.5 -182q0 -114 -62.5 -186.5t-150.5 -72.5zM195 490h192v54q0 87 42 145q-39 42 -99 42q-66 0 -100.5 -49.5t-34.5 -133.5v-58zM811 308v-125q1 -72 40.5 -120t94.5 -48q59 0 92.5 64t33.5 168t-33 166t-92 62q-54 0 -94 -47
t-42 -120z" />
    <glyph glyph-name="f_f_h" unicode="ffh" horiz-adv-x="1206" 
d="M195 490h192v54q0 87 42 145q-39 42 -99 42q-66 0 -100.5 -49.5t-34.5 -133.5v-58zM195 480v-480h-116v480h-74v10h74v33q0 96 63 160t166 64q80 0 127 -49q52 61 137 61q90 0 123 -69l9 59h108v-380q17 61 62.5 96t110.5 35q77 0 119 -47t42 -123v-330h-116v366
q0 110 -89 110q-50 0 -89 -47.5t-40 -114.5v-314h-117v662q-8 36 -33 57.5t-61 21.5q-50 0 -74 -40.5t-24 -103.5v-107h129l-5 -10h-124v-480h-116v480h-192z" />
    <glyph glyph-name="f_f_idieresis" unicode="ff&#xef;" horiz-adv-x="878" 
d="M195 490h192v65q0 79 43 133q-40 43 -100 43q-66 0 -100.5 -49.5t-34.5 -133.5v-58zM787 589v127h92v-127h-92zM195 480v-480h-116v480h-74v10h74v33q0 96 63 160t166 64q81 0 129 -51q55 63 147 63q61 0 94 -29t33 -77q0 -42 -29 -66l-7 5q26 26 26 61q0 42 -26 66.5
t-72 24.5q-100 0 -100 -140v-114h309v-490h-117v480h-192v-480h-116v480h-192z" />
    <glyph glyph-name="f_f_j" unicode="ffj" horiz-adv-x="878" 
d="M195 490h192v39q0 91 49 151q-39 51 -106 51q-66 0 -100.5 -49.5t-34.5 -133.5v-58zM631 -225q-52 0 -85 26.5t-33 72.5q0 35 27 57l8 -4q-25 -23 -25 -53q0 -40 25.5 -61t61.5 -21q47 0 66 35.5t19 109.5v543h-192v-480h-116v480h-192v-480h-116v480h-74v10h74v33
q0 96 63 160t166 64q88 0 135 -58q62 70 170 70q77 0 117.5 -33t40.5 -88q0 -45 -29 -72l-7 6q26 29 26 66q0 47 -32.5 76t-88.5 29q-69 0 -103 -50t-34 -136v-67h309v-520q0 -89 -47.5 -142t-133.5 -53z" />
    <glyph glyph-name="f_f_k" unicode="ffk" horiz-adv-x="1186" 
d="M195 490h192v54q0 87 42 145q-39 42 -99 42q-66 0 -100.5 -49.5t-34.5 -133.5v-58zM195 480v-480h-116v480h-74v10h74v33q0 96 63 160t166 64q80 0 127 -49q52 61 137 61q90 0 123 -69l9 59h108v-564l335 305h13l-197 -180l210 -310h-131l-163 235l-67 -62v-173h-117v662
q-8 36 -33 57.5t-61 21.5q-50 0 -74 -40.5t-24 -103.5v-107h129l-5 -10h-124v-480h-116v480h-192z" />
    <glyph glyph-name="f_h" unicode="fh" horiz-adv-x="898" 
d="M195 480v-480h-116v480h-74v10h74v54q0 97 50 156t135 59q90 0 123 -69l8 59h108v-380q17 61 62.5 96t110.5 35q77 0 119.5 -47t42.5 -123v-330h-117v366q0 110 -88 110q-51 0 -90 -47t-40 -115v-314h-116v662q-9 36 -34 57.5t-60 21.5q-50 0 -74 -40t-24 -104v-107h128
l-5 -10h-123z" />
    <glyph glyph-name="f_idieresis" unicode="f&#xef;" horiz-adv-x="569" 
d="M479 589v127h92v-127h-92zM79 490v65q0 89 54.5 146.5t142.5 57.5q61 0 94 -29t33 -77q0 -41 -29 -66l-7 5q26 26 26 61q0 42 -26 66.5t-72 24.5q-100 0 -100 -140v-114h308v-490h-116v480h-192v-480h-116v480h-74v10h74z" />
    <glyph glyph-name="f_j" unicode="fj" horiz-adv-x="569" 
d="M323 -225q-52 0 -85 26.5t-33 72.5q0 35 26 57l8 -4q-24 -24 -24 -53q0 -40 25 -61t61 -21q48 0 67 35t19 110v543h-192v-480h-116v480h-74v10h74v39q0 101 61 165.5t165 64.5q77 0 117.5 -33t40.5 -88q0 -45 -29 -72l-8 6q27 29 27 66q0 47 -32.5 76t-88.5 29
q-70 0 -103.5 -50t-33.5 -136v-67h308v-520q0 -89 -47.5 -142t-132.5 -53z" />
    <glyph glyph-name="f_k" unicode="fk" horiz-adv-x="878" 
d="M195 480v-480h-116v480h-74v10h74v54q0 97 50 156t135 59q90 0 123 -69l8 59h108v-564l336 305h13l-197 -180l210 -310h-131l-163 234l-68 -62v-172h-116v662q-9 36 -34 57.5t-60 21.5q-50 0 -74 -40t-24 -104v-107h128l-5 -10h-123z" />
    <glyph glyph-name="f_f" unicode="ff" horiz-adv-x="626" 
d="M195 490h192v65q0 79 43 133q-40 43 -100 43q-66 0 -100.5 -49.5t-34.5 -133.5v-58zM195 480v-480h-116v480h-74v10h74v33q0 96 63 160t166 64q81 0 129 -51q55 63 147 63q62 0 96.5 -29t34.5 -77q0 -42 -29 -66l-7 5q26 26 26 61q0 42 -28 66.5t-74 24.5
q-100 0 -100 -140v-114h138l-5 -10h-133v-480h-116v480h-192z" />
    <glyph glyph-name="f_f_i" unicode="ffi" horiz-adv-x="878" 
d="M195 490h192v39q0 91 49 151q-39 51 -106 51q-66 0 -100.5 -49.5t-34.5 -133.5v-58zM195 480v-480h-116v480h-74v10h74v33q0 96 63 160t166 64q88 0 135 -58q62 70 170 70q77 0 117.5 -33t40.5 -88q0 -45 -29 -72l-7 6q26 29 26 66q0 47 -32.5 76t-88.5 29
q-69 0 -103 -50t-34 -136v-67h309v-490h-117v480h-192v-480h-116v480h-192z" />
    <glyph glyph-name="f_f_l" unicode="ffl" horiz-adv-x="878" 
d="M195 490h192v54q0 87 42 145q-39 42 -99 42q-66 0 -100.5 -49.5t-34.5 -133.5v-58zM195 480v-480h-116v480h-74v10h74v33q0 96 63 160t166 64q80 0 127 -49q52 61 137 61q90 0 123 -69l9 59h108v-749h-117v662q-8 36 -33 57.5t-61 21.5q-50 0 -74 -40.5t-24 -103.5v-107
h129l-5 -10h-124v-480h-116v480h-192z" />
    <glyph glyph-name=".notdef" horiz-adv-x="1152" 
d="M644 232l-32 19l-17 29l6 59l24 34l74 55l19 -4l48 -58l21 -65l-38 -41zM595 63l-24 3l-4 9l5 44l-2 37l-11 3l-5 -48l-30 -40l-20 -8l-43 7l-13 19v16l42 74l34 36l16 33v7l16 11l8 -9l1 -18l18 -31l15 -3l14 -31l8 -5l20 -41l-9 -50l-15 -3zM451 405l60 -60l-3 -39
l-8 -12l-17 4l-4 -19l5 -14l-8 -11l-31 -26l-34 1l-27 -12l-46 21l-19 19l-9 29l8 37l-1 6l4 37l20 22l26 43l8 3zM510 -81l-38 -19l-38 15l-2 14l12 28l-6 8l-16 2l-29 -23l-43 21v36l-35 32l-60 105l-33 86l-22 98l5 168l9 67l31 67l51 66l98 59l49 15l5 4l106 6l72 -3
l5 -6l-1 -20l-56 -78l-10 -22l-13 -71l14 -11v-7l-7 -7l-24 -13l-59 19l-32 37l1 9l-8 4l-45 -27l-62 -20l-61 -90l-14 -136l18 -72l43 -91l36 -85l57 -56l36 -17l24 4l102 -17l97 32l45 38l24 27l63 105l68 97l-19 56l10 84l-23 69l7 20l-86 48l-76 21l-83 -16l-3 4l11 81
l14 10l28 91l48 3l99 -30l76 -43l59 -91l8 -27l8 -45l-9 -46l-20 -61l3 -51l32 -40l1 -37l-94 -133l-33 -103l-9 -7l-24 -62l7 -10l-35 -24l-9 3l-30 24l-1 30l-5 2l-19 -23v-11l20 -26l-35 -35l-16 -3l-22 21l6 16l-17 17l-24 -4l-21 -65l-35 -3l-15 23l3 30l-33 -4z" />
    <glyph glyph-name=".null" horiz-adv-x="484" 
 />
    <glyph glyph-name="uni000D" unicode="&#xd;" horiz-adv-x="484" 
 />
    <glyph glyph-name="space" unicode=" " horiz-adv-x="238" 
 />
    <glyph glyph-name="exclam" unicode="!" 
d="M126 217h-4l-74 483h152zM59 0v134h130v-134h-130z" />
    <glyph glyph-name="quotedbl" unicode="&#x22;" horiz-adv-x="361" 
d="M258 418h-5l-45 282h96zM107 418h-5l-45 282h96z" />
    <glyph glyph-name="numbersign" unicode="#" horiz-adv-x="660" 
d="M399 264l28 197h-173l-28 -197h173zM361 0l36 254h-173l-36 -254h-10l36 254h-164v10h166l28 197h-159v10h160l33 229h10l-33 -229h173l33 229h10l-33 -229h172v-10h-173l-28 -197h166v-10h-168l-36 -254h-10z" />
    <glyph glyph-name="dollar" unicode="$" horiz-adv-x="565" 
d="M257 433l66 -19v282q-20 4 -48 4q-12 0 -32 -2v-261q2 -1 7 -2t7 -2zM116 566q0 -55 29 -81.5t88 -44.5v256q-53 -11 -85 -45.5t-32 -84.5zM277 1q27 0 46 4v282l-2 1l-78 21v-306q22 -2 34 -2zM457 148q0 56 -32 86.5t-92 49.5v-277q58 13 91 51t33 90zM281 -10
q-14 0 -38 2v-98h-10v99q-86 11 -142 56.5t-66 117.5l11 2q9 -67 62.5 -111t134.5 -54v308l-12 3q-89 25 -135.5 70t-46.5 122q0 78 54.5 133.5t139.5 66.5v95h10v-93q5 0 15 0.5t15 0.5q29 0 50 -4v96h10v-97q67 -13 113 -51.5t59 -95.5l-11 -5q-13 56 -55.5 93t-105.5 49
v-283l23 -7q87 -25 134 -71t47 -125q0 -86 -58 -143.5t-146 -71.5v-100h-10v99q-21 -3 -42 -3z" />
    <glyph glyph-name="percent" unicode="%" horiz-adv-x="683" 
d="M159 0h-11l359 678q-19 -22 -55 -36.5t-76 -14.5q-48 0 -84 23q31 -42 31 -93q0 -62 -41.5 -107t-98.5 -45t-99 45.5t-42 106.5q0 62 42 107.5t99 45.5q31 0 54.5 -11.5t37 -25t40 -25t61.5 -11.5q96 0 152 77l6 -4zM253 557q0 143 -70 143t-70 -143q0 -142 70 -142
t70 142zM360 147q0 62 41.5 107.5t98.5 45.5t99 -45.5t42 -107.5q0 -61 -42 -106.5t-99 -45.5t-98.5 45t-41.5 107zM570 147q0 143 -70 143t-70 -143q0 -142 70 -142t70 142z" />
    <glyph glyph-name="ampersand" unicode="&#x26;" horiz-adv-x="786" 
d="M618 -10q-83 0 -143 73q-94 -73 -218 -73q-100 0 -166.5 55t-66.5 138q0 78 58.5 131.5t149.5 83.5l-12 17q-45 62 -45 126q0 73 50.5 121t129.5 48q64 0 100.5 -35t36.5 -91q0 -93 -132 -150l194 -272q80 119 77 255h10q3 -142 -81 -263l22 -31q33 -47 58.5 -65.5
t52.5 -18.5q33 0 57 30.5t28 86.5l10 -1q-5 -74 -51.5 -119.5t-118.5 -45.5zM321 489l33 -47q128 52 128 142q0 51 -31.5 81.5t-79.5 30.5q-42 1 -68.5 -25.5t-26.5 -70.5q0 -46 45 -111zM334 23q69 0 135 48q-3 3 -7 9l-224 310q-41 -15 -69.5 -57t-28.5 -109
q0 -87 56 -144t138 -57z" />
    <glyph glyph-name="quotesingle" unicode="'" horiz-adv-x="210" 
d="M107 418h-5l-45 282h96z" />
    <glyph glyph-name="parenleft" unicode="(" horiz-adv-x="352" 
d="M173 298q0 -145 14 -228t44 -130t89 -89l-5 -6q-114 68 -186.5 187.5t-72.5 264.5t72.5 264.5t186.5 187.5l5 -6q-59 -42 -89 -89t-44 -129.5t-14 -226.5z" />
    <glyph glyph-name="parenright" unicode=")" horiz-adv-x="352" 
d="M32 -149q59 42 89 89t44 130t14 228q0 144 -14 226.5t-44 129.5t-89 89l5 6q114 -68 186 -187.5t72 -264.5t-72 -264.5t-186 -187.5z" />
    <glyph glyph-name="asterisk" unicode="*" horiz-adv-x="443" 
d="M227 404h-10v164l-142 -82l-5 9l142 82l-142 81l5 9l142 -82v163h10v-163l141 82l5 -9l-141 -81l141 -82l-5 -9l-141 82v-164z" />
    <glyph glyph-name="plus" unicode="+" horiz-adv-x="463" 
d="M419 315h-183v-182h-10v182h-182v10h182v182h10v-182h183v-10z" />
    <glyph glyph-name="comma" unicode="," horiz-adv-x="244" 
d="M57 0v134h130v-142q0 -152 -155 -152v10q145 0 145 142v8h-120z" />
    <glyph glyph-name="hyphen" unicode="-" horiz-adv-x="361" 
d="M56 273v13h249v-13h-249z" />
    <glyph glyph-name="period" unicode="." horiz-adv-x="244" 
d="M57 0v134h130v-134h-130z" />
    <glyph glyph-name="slash" unicode="/" horiz-adv-x="351" 
d="M20 -153l300 902h11l-300 -902h-11z" />
    <glyph glyph-name="zero" unicode="0" horiz-adv-x="626" 
d="M27 350q0 148 82.5 254t203.5 106t203.5 -106t82.5 -254t-82.5 -254t-203.5 -106t-203.5 106t-82.5 254zM161 350q0 -169 34 -259.5t118 -90.5t118 90.5t34 259.5t-34 259.5t-118 90.5t-118 -90.5t-34 -259.5z" />
    <glyph glyph-name="one" unicode="1" horiz-adv-x="372" 
d="M293 0h-122v613q-56 -94 -150 -153l-5 9q121 79 197 237h80v-706z" />
    <glyph glyph-name="two" unicode="2" horiz-adv-x="531" 
d="M97 100h406v-100h-504v8l205 206q87 86 125 157t38 151q0 81 -38 125.5t-113 44.5q-77 0 -127.5 -50.5t-50.5 -122.5q0 -45 22 -76.5t55 -42.5l-4 -8q-35 10 -59 44.5t-24 82.5q0 83 61.5 137t163.5 54q103 0 170.5 -51t67.5 -142q0 -64 -49 -129.5t-103 -109
t-191 -141.5q-34 -24 -51 -37z" />
    <glyph glyph-name="three" unicode="3" horiz-adv-x="554" 
d="M254 -10q-105 0 -168 49t-63 125q0 47 27 78.5t67 42.5l4 -8q-37 -9 -62.5 -40t-25.5 -73q0 -68 55 -113.5t141 -45.5t132 54t46 143q0 169 -180 169h-22v10h22q157 0 157 159q0 74 -38.5 113.5t-111.5 39.5q-68 0 -118 -39t-50 -104q0 -79 75 -102l-3 -9q-82 27 -82 111
q0 72 59.5 116t150.5 44q100 0 167 -45t67 -125q0 -71 -67.5 -116t-148.5 -47v-2q58 -2 111.5 -21.5t93 -62t39.5 -100.5q0 -92 -78.5 -146.5t-195.5 -54.5z" />
    <glyph glyph-name="four" unicode="4" horiz-adv-x="612" 
d="M599 221v-11h-149v-210h-122v210h-320v7l336 483h106v-479h149zM328 221v438l-304 -438h304z" />
    <glyph glyph-name="five" unicode="5" horiz-adv-x="536" 
d="M483 700l-14 -106h-348l-30 -243q24 45 75 72t116 27q100 0 165 -57.5t65 -151.5q0 -109 -81.5 -180t-206.5 -71q-91 0 -150.5 46.5t-59.5 120.5q0 42 22 72.5t56 44.5l5 -8q-73 -31 -73 -109q0 -68 52.5 -110t122.5 -42q94 0 141.5 60.5t47.5 169.5q0 88 -37 141
t-109 53q-103 0 -155 -98h-8l45 369h359z" />
    <glyph glyph-name="six" unicode="6" horiz-adv-x="574" 
d="M551 224q0 -103 -72.5 -168.5t-177.5 -65.5q-117 0 -195.5 97.5t-78.5 240.5q0 102 38.5 188.5t114 140t171.5 53.5q86 0 135 -40t49 -105q0 -37 -17.5 -61t-40.5 -33l-4 8q52 22 52 86q0 59 -44.5 96t-114.5 37q-113 0 -165 -112t-46 -299q14 68 65.5 108.5t116.5 40.5
q89 0 151.5 -59.5t62.5 -152.5zM158 203q0 -90 38.5 -146.5t104.5 -56.5q68 0 100 55t32 149q0 203 -131 203q-61 0 -102.5 -53.5t-41.5 -150.5z" />
    <glyph glyph-name="seven" unicode="7" horiz-adv-x="508" 
d="M24 700h479v-3l-82 -139q-144 -257 -122 -558h-119q1 39 8 78.5t13.5 69.5t24.5 73l27 64.5t37 71t37 65t44 73.5t43 71l19 28h-409v106z" />
    <glyph glyph-name="eight" unicode="8" horiz-adv-x="561" 
d="M368 393q88 -34 128 -78.5t40 -111.5q0 -93 -74.5 -153t-181.5 -60q-108 0 -181.5 49.5t-73.5 135.5q0 61 43 104t111 64q-127 62 -127 173q0 85 63.5 139.5t158.5 54.5q90 0 148.5 -44t58.5 -117q0 -105 -113 -156zM132 568q0 -26 9.5 -46.5t28.5 -35.5t36 -24.5
t44 -20.5l108 -43q113 51 113 151q0 67 -55.5 109t-136.5 42q-64 0 -105.5 -36t-41.5 -96zM312 289l-122 48q-69 -21 -112 -61t-43 -101q0 -82 70.5 -128t167.5 -46q85 0 131.5 39.5t46.5 106.5q0 52 -35 83t-104 59z" />
    <glyph glyph-name="nine" unicode="9" horiz-adv-x="574" 
d="M416 497q0 90 -38.5 146.5t-104.5 56.5q-68 0 -100 -55t-32 -149q0 -203 131 -203q61 0 102.5 53.5t41.5 150.5zM23 476q0 103 72.5 168.5t177.5 65.5q117 0 195.5 -99t78.5 -249q0 -98 -35.5 -181.5t-109 -137t-171.5 -53.5q-86 0 -136 41.5t-50 105.5q0 37 17.5 61.5
t40.5 32.5l5 -8q-53 -21 -53 -86q0 -59 45 -97t115 -38q216 0 204 411q-14 -68 -65.5 -108.5t-116.5 -40.5q-89 0 -151.5 59.5t-62.5 152.5z" />
    <glyph glyph-name="colon" unicode=":" horiz-adv-x="244" 
d="M57 308v134h130v-134h-130zM57 0v134h130v-134h-130z" />
    <glyph glyph-name="semicolon" unicode=";" horiz-adv-x="244" 
d="M57 308v134h130v-134h-130zM57 0v134h130v-142q0 -152 -155 -152v10q145 0 145 142v8h-120z" />
    <glyph glyph-name="less" unicode="&#x3c;" horiz-adv-x="372" 
d="M44 305v10l284 165v-10l-276 -160l276 -160v-10z" />
    <glyph glyph-name="equal" unicode="=" horiz-adv-x="479" 
d="M44 380v10h391v-10h-391zM44 237v10h391v-10h-391z" />
    <glyph glyph-name="greater" unicode="&#x3e;" horiz-adv-x="372" 
d="M328 305l-284 -165v10l276 160l-276 160v10l284 -165v-10z" />
    <glyph glyph-name="question" unicode="?" horiz-adv-x="519" 
d="M391 549q0 69 -43 108t-117 39q-86 0 -139.5 -51t-53.5 -125q0 -44 22 -76.5t55 -43.5l-4 -8q-35 10 -59 45t-24 83q0 82 62 136t164 54t169.5 -52t67.5 -140q0 -99 -72.5 -158.5t-171.5 -67.5v-76h-10v172q65 8 109.5 52.5t44.5 108.5zM182 0v134h130v-134h-130z" />
    <glyph glyph-name="at" unicode="@" horiz-adv-x="941" 
d="M680 23q28 0 61 16.5t65.5 48.5t53.5 87.5t21 123.5q0 158 -111.5 251t-278.5 93q-179 0 -305 -123t-126 -312q0 -180 120 -292.5t306 -112.5q167 0 284 88l6 -8q-118 -90 -290 -90q-190 0 -313 116t-123 299q0 128 60.5 230.5t161 158.5t219.5 56q170 0 285 -95.5
t115 -258.5q0 -72 -23 -130t-59.5 -92.5t-76.5 -52.5t-77 -18q-55 0 -90 31t-33 85q-23 -49 -64 -81t-91 -32q-62 0 -99 43t-37 110q0 112 66.5 197t163.5 85q50 0 79.5 -31.5t31.5 -81.5l33 104h97l-79 -317q-11 -44 2 -69.5t45 -25.5zM540 159l26 106q8 32 8 57
q0 42 -20 66.5t-54 24.5q-65 0 -109.5 -86t-45.5 -191q0 -98 67 -98q40 0 75.5 35.5t52.5 85.5z" />
    <glyph glyph-name="A" unicode="A" horiz-adv-x="692" 
d="M437 236l-155 328l-150 -328h305zM548 0l-106 225h-315l-102 -225h-12l323 710h4l339 -710h-131z" />
    <glyph glyph-name="B" unicode="B" horiz-adv-x="663" 
d="M368 0h-288v700h268q113 0 184 -42.5t71 -130.5q0 -73 -60.5 -117.5t-141.5 -48.5v-2q63 -2 112.5 -18.5t84.5 -56t35 -98.5q0 -94 -73 -140t-192 -46zM202 689v-324h110q171 0 171 162t-170 162h-111zM316 354h-114v-343h128q90 0 136.5 38.5t46.5 132.5q0 172 -197 172
z" />
    <glyph glyph-name="C" unicode="C" horiz-adv-x="678" 
d="M28 347q0 157 102 260t251 103q100 0 169.5 -47.5t99.5 -135.5l-10 -4q-27 81 -89 126t-144 45q-112 0 -177 -90t-65 -254t65 -254t177 -90q82 0 145.5 44.5t90.5 125.5l10 -4q-31 -88 -101.5 -135t-170.5 -47q-149 0 -251 100t-102 257z" />
    <glyph glyph-name="D" unicode="D" horiz-adv-x="743" 
d="M318 0h-238v700h227q184 0 295.5 -91.5t111.5 -252.5q0 -166 -111.5 -261t-284.5 -95zM585 356q0 161 -73 247t-219 86h-91v-678h99q284 0 284 345z" />
    <glyph glyph-name="E" unicode="E" horiz-adv-x="623" 
d="M80 0v700h488v-11h-366v-322h268v-11h-268v-345h381v-11h-503z" />
    <glyph glyph-name="F" unicode="F" horiz-adv-x="578" 
d="M80 0v700h472v-11h-350v-332h268v-11h-268v-346h-122z" />
    <glyph glyph-name="G" unicode="G" horiz-adv-x="747" 
d="M698 -10h-3l-85 131q-31 -58 -91 -94.5t-135 -36.5q-150 0 -253 100.5t-103 257.5q0 158 107.5 260t260.5 102q103 0 174 -47t103 -136l-9 -4q-29 82 -95.5 128t-153.5 46q-115 0 -182.5 -94.5t-67.5 -255.5t59 -254t165 -93q83 0 136 54t53 147v117h120v-328z" />
    <glyph glyph-name="H" unicode="H" horiz-adv-x="796" 
d="M80 0v700h122v-333h392v333h122v-700h-122v356h-392v-356h-122z" />
    <glyph glyph-name="I" unicode="I" horiz-adv-x="281" 
d="M202 700v-700h-122v700h122z" />
    <glyph glyph-name="J" unicode="J" horiz-adv-x="571" 
d="M382 207v493h123v-460q0 -117 -73 -183.5t-190 -66.5q-101 0 -162.5 54.5t-61.5 142.5q0 45 22 82t52 53l5 -8q-69 -42 -69 -127q0 -82 55 -132t135 -50q83 0 123.5 53.5t40.5 148.5z" />
    <glyph glyph-name="K" unicode="K" horiz-adv-x="712" 
d="M549 0l-265 341l-82 -80v-261h-122v700h122v-425l432 425h15l-277 -272l322 -428h-145z" />
    <glyph glyph-name="L" unicode="L" horiz-adv-x="600" 
d="M80 0v700h122v-689h365v-11h-487z" />
    <glyph glyph-name="M" unicode="M" horiz-adv-x="881" 
d="M682 684l-277 -694h-4l-310 694v-684h-11v700h133l246 -546l218 546h125v-700h-120v684z" />
    <glyph glyph-name="N" unicode="N" horiz-adv-x="740" 
d="M650 159v541h11v-710h-4l-566 558v-548h-11v710h4z" />
    <glyph glyph-name="O" unicode="O" horiz-adv-x="773" 
d="M28 350q0 155 105.5 257.5t252.5 102.5q148 0 253 -102.5t105 -257.5t-105 -257.5t-253 -102.5q-147 0 -252.5 102.5t-105.5 257.5zM165 350q0 -173 56 -261.5t165 -88.5q222 0 222 350t-222 350q-109 0 -165 -88.5t-56 -261.5z" />
    <glyph glyph-name="P" unicode="P" horiz-adv-x="654" 
d="M360 304h-158v-304h-122v700h280q79 0 139 -18.5t99.5 -64.5t39.5 -115q0 -102 -77 -150t-201 -48zM202 315h122q85 0 134 47.5t49 139.5t-49 139.5t-134 47.5h-122v-374z" />
    <glyph glyph-name="Q" unicode="Q" horiz-adv-x="773" 
d="M632 -161q-125 0 -189 155q-38 -4 -57 -4q-147 0 -252.5 102.5t-105.5 257.5t105.5 257.5t252.5 102.5q148 0 253 -102.5t105 -257.5q0 -135 -82 -232t-206 -121q58 -148 176 -148q49 0 80 29t33 80l11 -1q-1 -54 -36.5 -86t-87.5 -32zM165 350q0 -173 56 -261.5
t165 -88.5q222 0 222 350t-222 350q-109 0 -165 -88.5t-56 -261.5z" />
    <glyph glyph-name="R" unicode="R" horiz-adv-x="720" 
d="M202 689v-353h136q84 0 132.5 42.5t48.5 133.5q0 88 -47 132.5t-131 44.5h-139zM202 325v-325h-122v700h295q121 0 196.5 -45.5t75.5 -139.5q0 -47 -21.5 -83.5t-56.5 -57.5t-74 -32t-79 -12v-2q144 -9 183 -119l35 -102q24 -72 57 -107h-135q-21 30 -43 96l-35 104
q-23 68 -57.5 96.5t-103.5 28.5h-115z" />
    <glyph glyph-name="S" unicode="S" horiz-adv-x="601" 
d="M489 148q0 59 -39 90.5t-113 50.5l-105 28q-96 25 -146.5 69t-50.5 121q0 88 71 145.5t178 57.5q91 0 158.5 -38.5t98.5 -104.5l-9 -7q-30 65 -95.5 102.5t-150.5 37.5q-77 0 -124.5 -36.5t-47.5 -97.5q0 -60 38.5 -86.5t119.5 -48.5l104 -28q94 -25 144 -70t50 -124
q0 -100 -78 -159.5t-189 -59.5q-102 0 -179 43t-110 119l10 6q32 -74 106.5 -115.5t168.5 -41.5q89 0 139.5 41t50.5 106z" />
    <glyph glyph-name="T" unicode="T" horiz-adv-x="697" 
d="M288 0v689h-268v11h657v-11h-268v-689h-121z" />
    <glyph glyph-name="U" unicode="U" horiz-adv-x="715" 
d="M638 700h11v-426q0 -135 -77.5 -209.5t-203.5 -74.5q-141 0 -221 75.5t-80 207.5v427h122v-416q0 -262 219 -262q101 0 165.5 67t64.5 189v422z" />
    <glyph glyph-name="V" unicode="V" horiz-adv-x="692" 
d="M356 -10h-4l-339 710h131l266 -564l257 564h12z" />
    <glyph glyph-name="W" unicode="W" horiz-adv-x="966" 
d="M361 141l-8 -19l-50 -132h-4l-286 710h128l213 -542l127 333l-83 209h123l213 -549l207 549h12l-268 -710h-4l-193 485l-127 -333v-1z" />
    <glyph glyph-name="X" unicode="X" horiz-adv-x="689" 
d="M27 0h-14l273 349l-254 351h138l203 -281l219 281h14l-226 -290l296 -410h-138l-246 340z" />
    <glyph glyph-name="Y" unicode="Y" horiz-adv-x="654" 
d="M385 310l245 390h11l-252 -406v-294h-123v290l-253 410h137z" />
    <glyph glyph-name="Z" unicode="Z" horiz-adv-x="654" 
d="M618 11v-11h-588v4l447 685h-418v11h554v-4l-443 -685h448z" />
    <glyph glyph-name="bracketleft" unicode="[" horiz-adv-x="333" 
d="M77 -154v903h229v-7l-120 -4v-881l120 -4v-7h-229z" />
    <glyph glyph-name="backslash" unicode="\" horiz-adv-x="351" 
d="M331 -153h-11l-300 902h11z" />
    <glyph glyph-name="bracketright" unicode="]" horiz-adv-x="333" 
d="M256 749v-903h-229v7l120 4v881l-120 4v7h229z" />
    <glyph glyph-name="asciicircum" unicode="^" horiz-adv-x="490" 
d="M244 710h2l204 -278h-10l-195 266l-195 -266h-10z" />
    <glyph glyph-name="underscore" unicode="_" horiz-adv-x="369" 
d="M60 -72v13h249v-13h-249z" />
    <glyph glyph-name="grave" unicode="`" horiz-adv-x="500" 
d="M315 553l-169 196h111l62 -196h-4z" />
    <glyph glyph-name="a" unicode="a" horiz-adv-x="525" 
d="M349 266l-97 -16q-58 -10 -84.5 -38t-26.5 -81q0 -52 22.5 -81t60.5 -29q48 0 83 41.5t42 99.5v104zM349 275v85q0 61 -31.5 94t-93.5 33q-65 0 -107 -33.5t-42 -86.5q0 -45 35 -71l-6 -7q-39 27 -39 78q0 59 48.5 96t137.5 37q107 0 160 -47t53 -134v-319h-104l-9 130
q-13 -57 -60 -98.5t-118 -41.5q-64 0 -104.5 33.5t-40.5 89.5q0 33 15.5 58t44.5 41t59.5 25t70.5 16z" />
    <glyph glyph-name="b" unicode="b" horiz-adv-x="594" 
d="M182 120l-10 -120h-106v749h116v-381q16 57 62 94.5t111 37.5q87 0 149.5 -69t62.5 -182q0 -114 -62.5 -186.5t-150.5 -72.5q-63 0 -109 36t-63 94zM182 308v-125q1 -72 40 -120t94 -48q60 0 93.5 64t33.5 168t-33 166t-92 62q-54 0 -94 -47t-42 -120z" />
    <glyph glyph-name="c" unicode="c" horiz-adv-x="497" 
d="M318 482q-74 0 -121 -63t-47 -178q0 -111 40 -171.5t115 -60.5q58 0 103.5 37.5t58.5 107.5l10 -2q-15 -77 -69.5 -119.5t-138.5 -42.5q-95 0 -168 68t-73 181q0 115 77 188t182 73q79 0 125.5 -40t46.5 -104q0 -59 -40 -91l-7 7q37 29 37 84t-36 90.5t-95 35.5z" />
    <glyph glyph-name="d" unicode="d" horiz-adv-x="594" 
d="M413 182v125q-2 72 -41 119.5t-94 47.5q-59 0 -92.5 -64t-33.5 -168t32.5 -165.5t92.5 -61.5q53 0 93.5 47.5t42.5 119.5zM412 369v380h116v-749h-112l-4 122q-16 -57 -62 -94.5t-111 -37.5q-86 0 -148.5 69t-62.5 181q0 115 62 187.5t151 72.5q63 0 109 -36t62 -95z" />
    <glyph glyph-name="e" unicode="e" horiz-adv-x="525" 
d="M494 152q-19 -77 -75.5 -119.5t-142.5 -42.5q-97 0 -172.5 69.5t-75.5 181.5q0 115 72 187t171 72q105 0 165.5 -67t60.5 -167h-346v-28q0 -232 157 -232q63 0 111.5 38.5t64.5 109.5zM271 491q-112 0 -120 -215h230q0 106 -24.5 160.5t-85.5 54.5z" />
    <glyph glyph-name="f" unicode="f" horiz-adv-x="318" 
d="M195 604v-114h138l-5 -10h-133v-480h-116v480h-74v10h74v65q0 89 54.5 146.5t142.5 57.5q62 0 96 -29t34 -77q0 -41 -28 -66l-7 5q25 25 25 61q0 42 -27.5 66.5t-73.5 24.5q-100 0 -100 -140z" />
    <glyph glyph-name="g" unicode="g" horiz-adv-x="540" 
d="M343 338q0 79 -22.5 116t-70.5 37q-92 0 -92 -153q0 -80 22.5 -116.5t69.5 -36.5q48 0 70.5 36.5t22.5 116.5zM533 -30q0 -90 -85 -142.5t-204 -52.5q-109 0 -176 32t-67 95q0 45 37.5 72.5t89.5 28.5q-40 8 -64 34.5t-24 62.5q0 73 86 106q-82 46 -82 132
q0 69 57.5 115.5t148.5 46.5q72 0 126 -30q49 76 108 76q35 0 55.5 -19.5t20.5 -53.5q0 -36 -25 -61l-7 6q22 24 22 55q0 30 -18 46.5t-48 16.5q-53 0 -100 -71q74 -47 74 -127q0 -69 -58 -115.5t-150 -46.5q-65 0 -115 25q-58 -20 -58 -57q0 -39 65 -39h220
q80 0 125.5 -33.5t45.5 -101.5zM386 -3h-242q-52 0 -92.5 -24.5t-40.5 -70.5q0 -58 64.5 -87.5t168.5 -29.5q100 0 172 38t72 100q0 74 -102 74z" />
    <glyph glyph-name="h" unicode="h" horiz-adv-x="577" 
d="M66 749h116v-380q17 61 62.5 96t110.5 35q77 0 119.5 -47t42.5 -123v-330h-116v366q0 110 -89 110q-51 0 -90 -47t-40 -115v-314h-116v749z" />
    <glyph glyph-name="i" unicode="i" 
d="M65 589v127h118v-127h-118zM182 490v-490h-116v490h116z" />
    <glyph glyph-name="j" unicode="j" 
d="M65 589v127h118v-127h-118zM182 -30q0 -89 -47.5 -142t-132.5 -53q-52 0 -85 26.5t-33 72.5q0 35 26 57l9 -4q-25 -23 -25 -53q0 -40 25 -61t61 -21q48 0 67 35t19 110v553h116v-520z" />
    <glyph glyph-name="k" unicode="k" horiz-adv-x="554" 
d="M413 0l-163 234l-68 -62v-172h-116v749h116v-564l336 305h13l-197 -180l210 -310h-131z" />
    <glyph glyph-name="l" unicode="l" 
d="M182 749v-749h-116v749h116z" />
    <glyph glyph-name="m" unicode="m" horiz-adv-x="884" 
d="M503 317v-317h-117v365q0 109 -83 109q-48 0 -83 -44t-38 -113v-317h-116v490h112l4 -119q17 61 59.5 95t107.5 34t104 -36.5t47 -99.5q16 64 59.5 100t109.5 36q76 0 115 -47.5t39 -126.5v-326h-116v365q0 109 -84 109q-47 0 -82.5 -44t-37.5 -113z" />
    <glyph glyph-name="n" unicode="n" horiz-adv-x="577" 
d="M182 314v-314h-116v490h112l4 -121q17 61 62.5 96t110.5 35q77 0 119.5 -47t42.5 -123v-330h-116v366q0 110 -89 110q-51 0 -90 -47t-40 -115z" />
    <glyph glyph-name="o" unicode="o" horiz-adv-x="564" 
d="M282 -10q-106 0 -180 73.5t-74 180.5q0 108 74 182t180 74t180.5 -74t74.5 -182q0 -107 -74.5 -180.5t-180.5 -73.5zM282 491q-65 0 -98 -58t-33 -189q0 -130 33 -187.5t98 -57.5t98 57.5t33 187.5q0 131 -33 189t-98 58z" />
    <glyph glyph-name="p" unicode="p" horiz-adv-x="594" 
d="M182 308v-125q1 -72 40 -120t94 -48q60 0 93.5 64t33.5 168t-33 166t-92 62q-54 0 -94 -47t-42 -120zM182 120v-335h-116v705h112l4 -122q16 57 62 94.5t111 37.5q87 0 149.5 -69t62.5 -182q0 -114 -62.5 -186.5t-150.5 -72.5q-63 0 -109 36t-63 94z" />
    <glyph glyph-name="q" unicode="q" horiz-adv-x="594" 
d="M412 369l8 121h108v-705h-116v337q-16 -57 -62 -94.5t-111 -37.5q-86 0 -148.5 69t-62.5 181q0 115 62 187.5t151 72.5q63 0 109 -36t62 -95zM413 182v125q-2 72 -41 119.5t-94 47.5q-59 0 -92.5 -64t-33.5 -168t32.5 -165.5t92.5 -61.5q53 0 93.5 47.5t42.5 119.5z" />
    <glyph glyph-name="r" unicode="r" horiz-adv-x="465" 
d="M182 337q16 68 58.5 115.5t99.5 47.5q48 0 75 -28t27 -73q0 -49 -36 -83l-7 7q33 30 33 76q0 41 -24.5 66t-67.5 25q-65 0 -109 -66t-49 -140v-284h-116v490h112z" />
    <glyph glyph-name="s" unicode="s" horiz-adv-x="465" 
d="M229 490q-55 0 -90 -24.5t-35 -62.5q0 -35 22 -53.5t70 -30.5l95 -25q72 -20 108 -50.5t36 -87.5q0 -74 -57.5 -120t-148.5 -46q-77 0 -136.5 37t-75.5 100l10 4q15 -62 73 -96.5t129 -34.5q57 0 94.5 26.5t37.5 73.5q0 36 -25.5 55.5t-72.5 31.5l-98 25
q-129 33 -129 131q0 69 55 113t138 44q66 0 113 -28t66 -82l-9 -4q-38 104 -170 104z" />
    <glyph glyph-name="t" unicode="t" horiz-adv-x="393" 
d="M3 480v10h73v119l115 44v-163h172l-5 -10h-167v-385q0 -86 65 -86q51 0 81 40.5t32 113.5l11 -1q-3 -79 -40.5 -125.5t-114.5 -46.5q-69 0 -109.5 38.5t-39.5 110.5v341h-73z" />
    <glyph glyph-name="u" unicode="u" horiz-adv-x="570" 
d="M388 176v314h116v-490h-112l-4 120q-17 -61 -60.5 -95.5t-107.5 -34.5q-75 0 -117.5 47.5t-42.5 123.5v329h117v-365q0 -111 86 -111q49 0 86.5 47t38.5 115z" />
    <glyph glyph-name="v" unicode="v" horiz-adv-x="478" 
d="M248 -6h-4l-239 496h124l166 -365l166 365h12z" />
    <glyph glyph-name="w" unicode="w" horiz-adv-x="713" 
d="M502 -6l-140 333l-136 -333h-4l-217 496h120l148 -356l84 205l-63 151h120l138 -357l145 357h11l-202 -496h-4z" />
    <glyph glyph-name="x" unicode="x" horiz-adv-x="500" 
d="M367 0l-164 228l-180 -228h-12l186 236l-182 254h129l141 -197l153 197h12l-159 -205l204 -285h-128z" />
    <glyph glyph-name="y" unicode="y" horiz-adv-x="482" 
d="M69 -225q-42 0 -68 26.5t-26 70.5q0 30 17 56l10 -4q-17 -26 -17 -52q0 -39 23 -63t61 -24q46 0 77.5 38t72.5 126l23 51l-236 490h123l168 -369l168 369h12l-247 -541q-41 -91 -76 -132.5t-85 -41.5z" />
    <glyph glyph-name="z" unicode="z" horiz-adv-x="493" 
d="M25 4l304 476h-287v10h416v-4l-301 -476h309v-10h-441v4z" />
    <glyph glyph-name="braceleft" unicode="{" horiz-adv-x="393" 
d="M28 292v9q118 0 118 131q0 26 -13.5 81.5t-13.5 81.5q0 66 52.5 110t128.5 44q40 0 73 -15l-1 -10q-30 13 -55 13q-45 0 -71 -28.5t-26 -79.5q0 -27 13 -93.5t13 -89.5q0 -38 -18.5 -67.5t-47 -46t-57 -25t-55.5 -10.5q38 -3 75.5 -16.5t70 -49t32.5 -84.5q0 -23 -13 -89
t-13 -93q0 -51 26 -79.5t71 -28.5q27 0 55 12l1 -9q-33 -15 -73 -15q-76 0 -128.5 44t-52.5 110q0 26 13.5 81.5t13.5 81.5q0 130 -118 130z" />
    <glyph glyph-name="bar" unicode="|" horiz-adv-x="214" 
d="M102 -153v902h10v-902h-10z" />
    <glyph glyph-name="braceright" unicode="}" horiz-adv-x="393" 
d="M365 301v-9q-118 0 -118 -130q0 -26 13 -81.5t13 -81.5q0 -66 -52.5 -110t-127.5 -44q-40 0 -73 15l1 9q27 -12 55 -12q45 0 71 28.5t26 79.5q0 27 -13 93t-13 89q0 38 18 67.5t47 46t57.5 25.5t55.5 11q-27 2 -55.5 10.5t-57.5 25t-47 46t-18 67.5q0 23 13 89.5t13 93.5
q0 51 -26 79.5t-71 28.5q-26 0 -55 -13l-1 10q33 15 73 15q75 0 127.5 -44t52.5 -110q0 -26 -13 -81.5t-13 -81.5q0 -131 118 -131z" />
    <glyph glyph-name="asciitilde" unicode="~" horiz-adv-x="529" 
d="M349 254q-30 0 -106.5 47t-104.5 47q-65 0 -75 -98h-7q5 76 38.5 125t85.5 49q32 0 108 -47.5t103 -47.5q65 0 75 99h7q-5 -76 -38.5 -125t-85.5 -49z" />
    <glyph glyph-name="uni00A0" unicode="&#xa0;" horiz-adv-x="484" 
 />
    <glyph glyph-name="exclamdown" unicode="&#xa1;" 
d="M59 418v134h130v-134h-130zM122 335h4l74 -483h-152z" />
    <glyph glyph-name="cent" unicode="&#xa2;" horiz-adv-x="503" 
d="M150 244q0 -96 30 -155.5t85 -74.5l63 476h-13q-72 0 -118.5 -64t-46.5 -182zM478 152q-17 -78 -70.5 -120t-135.5 -42l-14 -104h-10l14 104q-92 4 -162.5 73.5t-70.5 178.5q0 116 78 190t182 74q21 0 41 -3l14 109h10l-15 -111q59 -11 92.5 -48.5t33.5 -93.5
q0 -55 -40 -87l-6 7q36 29 36 80q0 53 -32.5 88t-84.5 42l-63 -477q12 -3 27 -3q61 0 106 37.5t60 108.5z" />
    <glyph glyph-name="sterling" unicode="&#xa3;" horiz-adv-x="668" 
d="M497 -10q-26 0 -50.5 5.5t-52 20.5t-40.5 23t-46 31.5t-40 28.5q-55 -109 -156 -109q-41 0 -66.5 24.5t-25.5 60.5q0 38 28 64t74 26q38 0 94 -18q4 31 4 74t-18 133h-106v10h104q-14 65 -14 116q0 100 63 165t167 65q87 0 132.5 -38.5t45.5 -99.5q0 -43 -20.5 -71.5
t-51.5 -39.5l-3 8q65 25 65 103q0 52 -35 86t-99 34q-62 0 -97 -51t-35 -145v-132h151v-10h-151q-1 -141 -38 -229q138 -46 216 -47q127 0 127 80q0 47 -49 78l5 6q59 -31 59 -105q0 -62 -38 -104.5t-103 -42.5zM107 1q85 0 107 131q-50 24 -92 24t-67 -22.5t-25 -58.5
q0 -31 21 -52.5t56 -21.5z" />
    <glyph glyph-name="yen" unicode="&#xa5;" horiz-adv-x="620" 
d="M553 235h-181v-235h-123v235h-181v10h181v45l-29 54h-152v10h147l-185 346h137l201 -390l211 390h11l-186 -346h149v-10h-154l-27 -50v-49h181v-10z" />
    <glyph glyph-name="section" unicode="&#xa7;" horiz-adv-x="597" 
d="M360 118q73 -58 93 -89q44 29 44 80q0 32 -20.5 57t-70.5 64l-169 135q-70 57 -92 89q-44 -29 -44 -80q0 -32 20.5 -57t69.5 -64zM292 -225q-63 0 -111.5 32t-65.5 88l10 4q17 -55 62 -84.5t105 -29.5q53 0 84.5 29t31.5 74q0 26 -15 50t-33 40.5t-58 47.5l-141 110
q-60 47 -85.5 83.5t-25.5 87.5q0 48 25.5 90t63.5 66q-20 35 -20 81q0 69 54.5 116.5t131.5 47.5q63 0 110 -32t66 -87l-9 -5q-19 55 -63 84.5t-104 29.5q-54 0 -85 -29t-31 -74q0 -37 23.5 -64t83.5 -74l141 -110q59 -46 84.5 -82.5t25.5 -87.5q0 -48 -25.5 -90.5
t-63.5 -66.5q21 -35 21 -81q0 -69 -54.5 -116.5t-132.5 -47.5z" />
    <glyph glyph-name="dieresis" unicode="&#xa8;" horiz-adv-x="500" 
d="M284 589v127h96v-127h-96zM120 589v127h96v-127h-96z" />
    <glyph glyph-name="copyright" unicode="&#xa9;" horiz-adv-x="810" 
d="M405 710q151 0 255.5 -102.5t104.5 -257.5t-104.5 -257.5t-255.5 -102.5t-255.5 102.5t-104.5 257.5t104.5 257.5t255.5 102.5zM405 0q147 0 248.5 99.5t101.5 250.5t-101.5 250.5t-248.5 99.5t-248.5 -99.5t-101.5 -250.5t101.5 -250.5t248.5 -99.5zM193 350
q0 98 67 162.5t160 64.5q63 0 107 -30t64 -85l-8 -3q-19 51 -57 77.5t-89 26.5q-67 0 -106.5 -55.5t-39.5 -157.5t39.5 -157t106.5 -55q108 0 146 104l8 -3q-40 -115 -171 -115q-93 0 -160 64t-67 162z" />
    <glyph glyph-name="ordfeminine" unicode="&#xaa;" horiz-adv-x="371" 
d="M248 546l-66 -11q-72 -12 -72 -80q0 -72 53 -72q33 0 56 29t29 69v65zM248 555v56q0 87 -85 87q-44 0 -72.5 -21.5t-28.5 -58.5q0 -29 24 -47l-6 -7q-27 20 -27 54q0 41 34 66.5t95 25.5q74 0 111.5 -32.5t37.5 -93.5v-219h-76l-6 90q-10 -40 -41 -68.5t-80 -28.5
q-44 0 -72 23t-28 62q0 75 131 97zM51 274v10h270v-10h-270z" />
    <glyph glyph-name="guillemotleft" unicode="&#xab;" horiz-adv-x="487" 
d="M40 243v2l236 207h4l-136 -208l136 -208h-4zM207 243v2l237 207h4l-136 -208l136 -208h-4z" />
    <glyph glyph-name="registered" unicode="&#xae;" horiz-adv-x="542" 
d="M271 710q90 0 153 -61.5t63 -154.5t-63 -154.5t-153 -61.5t-153 61.5t-63 154.5t63 154.5t153 61.5zM271 288q86 0 146 59t60 147t-60 147t-146 59t-146 -59t-60 -147t60 -147t146 -59zM228 604v-108h33q56 0 56 54t-56 54h-33zM228 486v-108h-53v236h117
q37 0 59.5 -17.5t22.5 -46.5q0 -24 -20.5 -41t-48.5 -18v-1q41 -3 53 -41l12 -34q7 -21 20 -37h-60q-10 12 -16 33l-13 38q-13 37 -46 37h-27z" />
    <glyph glyph-name="macron" unicode="&#xaf;" horiz-adv-x="500" 
d="M394 632h-288v10h288v-10z" />
    <glyph glyph-name="degree" unicode="&#xb0;" horiz-adv-x="383" 
d="M80 609q0 46 33 79t79 33t78.5 -33t32.5 -79q0 -45 -32.5 -78t-78.5 -33t-79 33t-33 78zM293 609q0 42 -29.5 72t-71.5 30t-72 -30t-30 -72q0 -41 30 -71t72 -30t71.5 30t29.5 71z" />
    <glyph glyph-name="plusminus" unicode="&#xb1;" horiz-adv-x="463" 
d="M419 355h-183v-152h-10v152h-182v10h182v152h10v-152h183v-10zM44 124v10h375v-10h-375z" />
    <glyph glyph-name="twosuperior" unicode="&#xb2;" horiz-adv-x="268" 
d="M68 466h167v-52h-218v5l82 85q66 66 66 125q0 66 -58 66q-29 0 -48.5 -19t-19.5 -48q0 -17 10 -30.5t25 -17.5l-4 -7q-16 4 -27.5 19.5t-11.5 35.5q0 36 26.5 58t70.5 22t73.5 -21.5t29.5 -60.5q0 -42 -37.5 -75t-125.5 -85z" />
    <glyph glyph-name="threesuperior" unicode="&#xb3;" horiz-adv-x="281" 
d="M129 410q-44 0 -71.5 20t-27.5 53q0 21 13 34.5t31 16.5l4 -5q-39 -9 -39 -46q0 -27 22 -44.5t53 -17.5q33 0 51 21t18 56q0 68 -66 68h-10v7h10q58 0 58 63q0 60 -59 60q-25 0 -44.5 -14.5t-19.5 -39.5q0 -33 32 -41l-3 -7q-38 10 -38 48q0 29 26 47.5t65 18.5
q44 0 73 -19t29 -52q0 -29 -28 -48t-64 -19v-1q40 -2 72 -21t32 -54q0 -40 -34 -62t-85 -22z" />
    <glyph glyph-name="acute" unicode="&#xb4;" horiz-adv-x="500" 
d="M243 749h111l-169 -196h-4z" />
    <glyph glyph-name="paragraph" unicode="&#xb6;" horiz-adv-x="546" 
d="M270 -215q66 0 103.5 54t37.5 156v695h-49v-577l-10 3v164q-82 0 -149.5 21t-113 69.5t-45.5 119.5t45.5 119.5t113 69.5t149.5 21h119v-10h-50v-697q0 -106 -40.5 -162t-110.5 -56q-40 0 -69.5 25t-29.5 65q0 30 14 46l9 -4q-13 -19 -13 -42q0 -37 27 -58.5t62 -21.5z
" />
    <glyph glyph-name="periodcentered" unicode="&#xb7;" horiz-adv-x="243" 
d="M56 212v134h130v-134h-130z" />
    <glyph glyph-name="cedilla" unicode="&#xb8;" horiz-adv-x="500" 
d="M147 -167l8 7q25 -48 79 -48q29 0 45.5 18t16.5 49q0 70 -92 70l31 73h10l-28 -65q60 0 102 -20.5t42 -61.5q0 -36 -30.5 -58t-73.5 -22q-77 0 -110 58z" />
    <glyph glyph-name="onesuperior" unicode="&#xb9;" horiz-adv-x="208" 
d="M156 414h-64v248q-23 -39 -64 -65l-3 7q53 36 84 102h47v-292z" />
    <glyph glyph-name="ordmasculine" unicode="&#xba;" horiz-adv-x="412" 
d="M206 355q-73 0 -125 51.5t-52 125.5q0 75 52 126.5t125 51.5q74 0 125.5 -51.5t51.5 -126.5t-51.5 -126t-125.5 -51zM206 701q-45 0 -66.5 -38.5t-21.5 -130.5q0 -91 21.5 -129.5t66.5 -38.5t66.5 38.5t21.5 129.5q0 92 -21.5 130.5t-66.5 38.5zM58 274v10h296v-10h-296z
" />
    <glyph glyph-name="guillemotright" unicode="&#xbb;" horiz-adv-x="487" 
d="M280 245v-2l-236 -207h-4l136 208l-136 208h4zM448 245v-2l-237 -207h-4l136 208l-136 208h4z" />
    <glyph glyph-name="onequarter" unicode="&#xbc;" horiz-adv-x="397" 
d="M225 414h-65v248q-23 -39 -63 -65l-4 7q52 35 85 102h47v-292zM32 358h333v-10h-333v10zM303 93v-9h-58v-84h-64v84h-130v6l137 200h57v-197h58zM181 93v172l-118 -172h118z" />
    <glyph glyph-name="onehalf" unicode="&#xbd;" horiz-adv-x="397" 
d="M225 414h-65v248q-23 -39 -63 -65l-4 7q52 35 85 102h47v-292zM32 358h333v-10h-333v10zM127 52h168l-1 -52h-218v5l83 85q65 66 65 125q0 66 -58 66q-29 0 -48 -19t-19 -48q0 -18 9.5 -31t24.5 -17l-4 -7q-16 4 -27.5 19.5t-11.5 35.5q0 36 26.5 58t71.5 22
q44 0 73 -21.5t29 -60.5q0 -42 -37.5 -75t-125.5 -85z" />
    <glyph glyph-name="threequarters" unicode="&#xbe;" horiz-adv-x="397" 
d="M183 410q-44 0 -71 20t-27 53q0 37 35 50l4 -6q-31 -13 -31 -43q0 -28 22 -45.5t54 -17.5q33 0 50.5 21.5t17.5 56.5q0 67 -65 67h-10v7h10q57 0 57 64q0 60 -58 60q-25 0 -44.5 -15t-19.5 -40q0 -28 24 -38l-3 -7q-30 11 -30 45q0 29 26 47.5t65 18.5q44 0 72.5 -18.5
t28.5 -52.5q0 -29 -27.5 -47.5t-63.5 -19.5v-1q39 -1 71.5 -20.5t32.5 -54.5q0 -40 -34.5 -62t-85.5 -22zM32 358h333v-10h-333v10zM303 93v-9h-58v-84h-64v84h-130v6l137 200h57v-197h58zM181 93v172l-118 -172h118z" />
    <glyph glyph-name="questiondown" unicode="&#xbf;" horiz-adv-x="519" 
d="M337 552v-134h-130v134h130zM128 3q0 -69 43 -108t117 -39q86 0 139.5 51t53.5 125q0 44 -22 76.5t-55 43.5l4 8q35 -10 59 -45t24 -83q0 -82 -62 -136t-164 -54t-169.5 52t-67.5 140q0 99 72.5 158.5t171.5 67.5v76h10v-172q-65 -8 -109.5 -52.5t-44.5 -108.5z" />
    <glyph glyph-name="Agrave" unicode="&#xc0;" horiz-adv-x="692" 
d="M351 745l-169 179h113l60 -179h-4zM437 236l-155 328l-150 -328h305zM548 0l-106 225h-315l-102 -225h-12l323 710h4l339 -710h-131z" />
    <glyph glyph-name="Aacute" unicode="&#xc1;" horiz-adv-x="692" 
d="M381 924h113l-169 -179h-4zM437 236l-155 328l-150 -328h305zM548 0l-106 225h-315l-102 -225h-12l323 710h4l339 -710h-131z" />
    <glyph glyph-name="Acircumflex" unicode="&#xc2;" horiz-adv-x="692" 
d="M406 741l-107 130l-110 -130h-13l164 194h2l160 -194h-96zM437 236l-155 328l-150 -328h305zM548 0l-106 225h-315l-102 -225h-12l323 710h4l339 -710h-131z" />
    <glyph glyph-name="Atilde" unicode="&#xc3;" horiz-adv-x="692" 
d="M414 761q-31 0 -92 42t-88 42q-57 0 -67 -87h-7q5 68 34 111t75 43q34 0 94 -42.5t87 -42.5q56 0 66 88h7q-5 -68 -34 -111t-75 -43zM437 236l-155 328l-150 -328h305zM548 0l-106 225h-315l-102 -225h-12l323 710h4l339 -710h-131z" />
    <glyph glyph-name="Adieresis" unicode="&#xc4;" horiz-adv-x="692" 
d="M373 754v129h97v-129h-97zM209 754v129h96v-129h-96zM437 236l-155 328l-150 -328h305zM548 0l-106 225h-315l-102 -225h-12l323 710h4l339 -710h-131z" />
    <glyph glyph-name="Aring" unicode="&#xc5;" horiz-adv-x="692" 
d="M338 878q-33 0 -57 -24t-24 -57t24 -56.5t57 -23.5t56.5 23.5t23.5 56.5t-23.5 57t-56.5 24zM437 236l-155 328l-150 -328h305zM127 225l-102 -225h-12l322 707q-36 2 -62 28t-26 62q0 37 27 64t64 27t63.5 -27t26.5 -64t-26 -63.5t-61 -26.5l338 -707h-131l-106 225
h-315z" />
    <glyph glyph-name="AE" unicode="&#xc6;" horiz-adv-x="1051" 
d="M507 313v378l-263 -378h263zM507 0v302h-271l-210 -302h-13l487 700h495v-11h-366v-322h268v-11h-268v-345h382v-11h-504z" />
    <glyph glyph-name="Ccedilla" unicode="&#xc7;" horiz-adv-x="678" 
d="M374 -225q-77 0 -110 58l8 7q26 -48 79 -48q29 0 45.5 18t16.5 49q0 70 -92 70l27 62q-138 12 -229 110.5t-91 245.5q0 157 102 260t251 103q100 0 169.5 -47.5t99.5 -135.5l-10 -4q-27 81 -89 126t-144 45q-112 0 -177 -90t-65 -254t65 -254t177 -90q82 0 145.5 44.5
t90.5 125.5l10 -4q-31 -88 -101.5 -135t-170.5 -47q-16 0 -24 1l-23 -54q60 0 102 -20.5t42 -61.5q0 -36 -30.5 -58t-73.5 -22z" />
    <glyph glyph-name="Egrave" unicode="&#xc8;" horiz-adv-x="623" 
d="M350 745l-169 179h113l60 -179h-4zM80 0v700h488v-11h-366v-322h268v-11h-268v-345h381v-11h-503z" />
    <glyph glyph-name="Eacute" unicode="&#xc9;" horiz-adv-x="623" 
d="M381 924h113l-169 -179h-4zM80 0v700h488v-11h-366v-322h268v-11h-268v-345h381v-11h-503z" />
    <glyph glyph-name="Ecircumflex" unicode="&#xca;" horiz-adv-x="623" 
d="M409 741l-107 130l-110 -130h-13l164 194h2l160 -194h-96zM80 0v700h488v-11h-366v-322h268v-11h-268v-345h381v-11h-503z" />
    <glyph glyph-name="Edieresis" unicode="&#xcb;" horiz-adv-x="623" 
d="M376 754v129h97v-129h-97zM212 754v129h96v-129h-96zM80 0v700h488v-11h-366v-322h268v-11h-268v-345h381v-11h-503z" />
    <glyph glyph-name="Igrave" unicode="&#xcc;" horiz-adv-x="281" 
d="M148 745l-169 179h113l60 -179h-4zM202 700v-700h-122v700h122z" />
    <glyph glyph-name="Iacute" unicode="&#xcd;" horiz-adv-x="281" 
d="M179 924h113l-169 -179h-4zM202 700v-700h-122v700h122z" />
    <glyph glyph-name="Icircumflex" unicode="&#xce;" horiz-adv-x="281" 
d="M207 741l-107 130l-110 -130h-13l164 194h2l160 -194h-96zM202 700v-700h-122v700h122z" />
    <glyph glyph-name="Idieresis" unicode="&#xcf;" horiz-adv-x="281" 
d="M174 754v129h97v-129h-97zM10 754v129h96v-129h-96zM202 700v-700h-122v700h122z" />
    <glyph glyph-name="Eth" unicode="&#xd0;" horiz-adv-x="759" 
d="M334 0h-238v356h-69v11h69v333h227q184 0 295.5 -91.5t111.5 -252.5q0 -166 -111.5 -261t-284.5 -95zM218 11h99q284 0 284 345q0 161 -73 247t-219 86h-91v-322h168v-11h-168v-345z" />
    <glyph glyph-name="Ntilde" unicode="&#xd1;" horiz-adv-x="740" 
d="M456 761q-31 0 -92 42t-88 42q-57 0 -67 -87h-7q5 68 34 111t75 43q34 0 94 -42.5t87 -42.5q56 0 66 88h7q-5 -68 -34 -111t-75 -43zM650 159v541h11v-710h-4l-566 558v-548h-11v710h4z" />
    <glyph glyph-name="Ograve" unicode="&#xd2;" horiz-adv-x="773" 
d="M394 745l-169 179h113l60 -179h-4zM28 350q0 155 105.5 257.5t252.5 102.5q148 0 253 -102.5t105 -257.5t-105 -257.5t-253 -102.5q-147 0 -252.5 102.5t-105.5 257.5zM165 350q0 -173 56 -261.5t165 -88.5q222 0 222 350t-222 350q-109 0 -165 -88.5t-56 -261.5z" />
    <glyph glyph-name="Oacute" unicode="&#xd3;" horiz-adv-x="773" 
d="M425 924h113l-169 -179h-4zM28 350q0 155 105.5 257.5t252.5 102.5q148 0 253 -102.5t105 -257.5t-105 -257.5t-253 -102.5q-147 0 -252.5 102.5t-105.5 257.5zM165 350q0 -173 56 -261.5t165 -88.5q222 0 222 350t-222 350q-109 0 -165 -88.5t-56 -261.5z" />
    <glyph glyph-name="Ocircumflex" unicode="&#xd4;" horiz-adv-x="773" 
d="M457 741l-107 130l-110 -130h-13l164 194h2l160 -194h-96zM28 350q0 155 105.5 257.5t252.5 102.5q148 0 253 -102.5t105 -257.5t-105 -257.5t-253 -102.5q-147 0 -252.5 102.5t-105.5 257.5zM165 350q0 -173 56 -261.5t165 -88.5q222 0 222 350t-222 350
q-109 0 -165 -88.5t-56 -261.5z" />
    <glyph glyph-name="Otilde" unicode="&#xd5;" horiz-adv-x="773" 
d="M464 761q-31 0 -92 42t-88 42q-57 0 -67 -87h-7q5 68 34 111t75 43q34 0 94 -42.5t87 -42.5q56 0 66 88h7q-5 -68 -34 -111t-75 -43zM28 350q0 155 105.5 257.5t252.5 102.5q148 0 253 -102.5t105 -257.5t-105 -257.5t-253 -102.5q-147 0 -252.5 102.5t-105.5 257.5z
M165 350q0 -173 56 -261.5t165 -88.5q222 0 222 350t-222 350q-109 0 -165 -88.5t-56 -261.5z" />
    <glyph glyph-name="Odieresis" unicode="&#xd6;" horiz-adv-x="773" 
d="M420 754v129h97v-129h-97zM256 754v129h96v-129h-96zM28 350q0 155 105.5 257.5t252.5 102.5q148 0 253 -102.5t105 -257.5t-105 -257.5t-253 -102.5q-147 0 -252.5 102.5t-105.5 257.5zM165 350q0 -173 56 -261.5t165 -88.5q222 0 222 350t-222 350q-109 0 -165 -88.5
t-56 -261.5z" />
    <glyph glyph-name="multiply" unicode="&#xd7;" horiz-adv-x="387" 
d="M329 171l-136 137l-136 -136l-7 7l136 136l-136 136l7 7l136 -136l136 136l7 -7l-136 -136l137 -136z" />
    <glyph glyph-name="Oslash" unicode="&#xd8;" horiz-adv-x="773" 
d="M165 350q0 -142 38 -229l361 468q-54 111 -178 111q-109 0 -165 -88.5t-56 -261.5zM386 0q222 0 222 350q0 144 -39 229l-360 -469q54 -110 177 -110zM386 -10q-120 0 -216 71l-62 -81l-8 7l62 80q-134 108 -134 283q0 155 105.5 257.5t252.5 102.5q121 0 216 -71l63 81
l8 -7l-62 -81q62 -50 97.5 -122.5t35.5 -159.5q0 -155 -105 -257.5t-253 -102.5z" />
    <glyph glyph-name="Ugrave" unicode="&#xd9;" horiz-adv-x="715" 
d="M387 745l-169 179h113l60 -179h-4zM638 700h11v-426q0 -135 -77.5 -209.5t-203.5 -74.5q-141 0 -221 75.5t-80 207.5v427h122v-416q0 -262 219 -262q101 0 165.5 67t64.5 189v422z" />
    <glyph glyph-name="Uacute" unicode="&#xda;" horiz-adv-x="715" 
d="M418 924h113l-169 -179h-4zM638 700h11v-426q0 -135 -77.5 -209.5t-203.5 -74.5q-141 0 -221 75.5t-80 207.5v427h122v-416q0 -262 219 -262q101 0 165.5 67t64.5 189v422z" />
    <glyph glyph-name="Ucircumflex" unicode="&#xdb;" horiz-adv-x="715" 
d="M446 741l-107 130l-110 -130h-13l164 194h2l160 -194h-96zM638 700h11v-426q0 -135 -77.5 -209.5t-203.5 -74.5q-141 0 -221 75.5t-80 207.5v427h122v-416q0 -262 219 -262q101 0 165.5 67t64.5 189v422z" />
    <glyph glyph-name="Udieresis" unicode="&#xdc;" horiz-adv-x="715" 
d="M413 754v129h97v-129h-97zM249 754v129h96v-129h-96zM638 700h11v-426q0 -135 -77.5 -209.5t-203.5 -74.5q-141 0 -221 75.5t-80 207.5v427h122v-416q0 -262 219 -262q101 0 165.5 67t64.5 189v422z" />
    <glyph glyph-name="Yacute" unicode="&#xdd;" horiz-adv-x="654" 
d="M378 924h113l-169 -179h-4zM385 310l245 390h11l-252 -406v-294h-123v290l-253 410h137z" />
    <glyph glyph-name="Thorn" unicode="&#xde;" horiz-adv-x="654" 
d="M202 0h-122v700h122v-122h158q123 0 200.5 -48t77.5 -150t-77.5 -150t-200.5 -48h-158v-182zM202 193h122q85 0 134 48t49 139q0 92 -48.5 139.5t-134.5 47.5h-122v-374z" />
    <glyph glyph-name="germandbls" unicode="&#xdf;" horiz-adv-x="639" 
d="M422 513q-46 -30 -66 -51.5t-20 -48.5q0 -29 23 -47t104 -53q88 -37 124 -70t36 -92q0 -71 -53 -116t-133 -45q-74 0 -127.5 36.5t-69.5 100.5l10 4q14 -62 66.5 -96.5t120.5 -34.5q49 0 81.5 26.5t32.5 73.5q0 35 -26 54.5t-99 51.5q-91 40 -123.5 70.5t-32.5 78.5
t34 83.5t112 82.5q33 21 46.5 31.5t25 31t11.5 49.5q0 47 -40.5 79t-111.5 32q-76 0 -120.5 -57t-44.5 -168v-519h-116v488q0 128 77 199.5t183 71.5q89 0 136 -36.5t47 -89.5q0 -42 -20.5 -66t-66.5 -54z" />
    <glyph glyph-name="agrave" unicode="&#xe0;" horiz-adv-x="525" 
d="M271 553l-169 196h111l62 -196h-4zM349 266l-97 -16q-58 -10 -84.5 -38t-26.5 -81q0 -52 22.5 -81t60.5 -29q48 0 83 41.5t42 99.5v104zM349 275v85q0 61 -31.5 94t-93.5 33q-65 0 -107 -33.5t-42 -86.5q0 -45 35 -71l-6 -7q-39 27 -39 78q0 59 48.5 96t137.5 37
q107 0 160 -47t53 -134v-319h-104l-9 130q-13 -57 -60 -98.5t-118 -41.5q-64 0 -104.5 33.5t-40.5 89.5q0 33 15.5 58t44.5 41t59.5 25t70.5 16z" />
    <glyph glyph-name="aacute" unicode="&#xe1;" horiz-adv-x="525" 
d="M304 749h111l-169 -196h-4zM349 266l-97 -16q-58 -10 -84.5 -38t-26.5 -81q0 -52 22.5 -81t60.5 -29q48 0 83 41.5t42 99.5v104zM349 275v85q0 61 -31.5 94t-93.5 33q-65 0 -107 -33.5t-42 -86.5q0 -45 35 -71l-6 -7q-39 27 -39 78q0 59 48.5 96t137.5 37q107 0 160 -47
t53 -134v-319h-104l-9 130q-13 -57 -60 -98.5t-118 -41.5q-64 0 -104.5 33.5t-40.5 89.5q0 33 15.5 58t44.5 41t59.5 25t70.5 16z" />
    <glyph glyph-name="acircumflex" unicode="&#xe2;" horiz-adv-x="525" 
d="M334 546l-107 138l-110 -138h-13l164 207h2l160 -207h-96zM349 266l-97 -16q-58 -10 -84.5 -38t-26.5 -81q0 -52 22.5 -81t60.5 -29q48 0 83 41.5t42 99.5v104zM349 275v85q0 61 -31.5 94t-93.5 33q-65 0 -107 -33.5t-42 -86.5q0 -45 35 -71l-6 -7q-39 27 -39 78
q0 59 48.5 96t137.5 37q107 0 160 -47t53 -134v-319h-104l-9 130q-13 -57 -60 -98.5t-118 -41.5q-64 0 -104.5 33.5t-40.5 89.5q0 33 15.5 58t44.5 41t59.5 25t70.5 16z" />
    <glyph glyph-name="atilde" unicode="&#xe3;" horiz-adv-x="525" 
d="M340 578q-30 0 -87.5 42t-83.5 42q-27 0 -42 -20.5t-20 -66.5h-7q5 68 32 110t71 42q31 0 88 -42t83 -42q52 0 61 87h8q-5 -68 -32 -110t-71 -42zM349 266l-97 -16q-58 -10 -84.5 -38t-26.5 -81q0 -52 22.5 -81t60.5 -29q48 0 83 41.5t42 99.5v104zM349 275v85
q0 61 -31.5 94t-93.5 33q-65 0 -107 -33.5t-42 -86.5q0 -45 35 -71l-6 -7q-39 27 -39 78q0 59 48.5 96t137.5 37q107 0 160 -47t53 -134v-319h-104l-9 130q-13 -57 -60 -98.5t-118 -41.5q-64 0 -104.5 33.5t-40.5 89.5q0 33 15.5 58t44.5 41t59.5 25t70.5 16z" />
    <glyph glyph-name="adieresis" unicode="&#xe4;" horiz-adv-x="525" 
d="M297 589v127h96v-127h-96zM133 589v127h96v-127h-96zM349 266l-97 -16q-58 -10 -84.5 -38t-26.5 -81q0 -52 22.5 -81t60.5 -29q48 0 83 41.5t42 99.5v104zM349 275v85q0 61 -31.5 94t-93.5 33q-65 0 -107 -33.5t-42 -86.5q0 -45 35 -71l-6 -7q-39 27 -39 78q0 59 48.5 96
t137.5 37q107 0 160 -47t53 -134v-319h-104l-9 130q-13 -57 -60 -98.5t-118 -41.5q-64 0 -104.5 33.5t-40.5 89.5q0 33 15.5 58t44.5 41t59.5 25t70.5 16z" />
    <glyph glyph-name="aring" unicode="&#xe5;" horiz-adv-x="525" 
d="M173 656q0 37 27 64t64 27t63.5 -27t26.5 -64t-26.5 -63.5t-63.5 -26.5t-64 26.5t-27 63.5zM344 656q0 33 -23.5 57t-56.5 24t-57 -24t-24 -57t24 -56.5t57 -23.5t56.5 23.5t23.5 56.5zM349 266l-97 -16q-58 -10 -84.5 -38t-26.5 -81q0 -52 22.5 -81t60.5 -29
q48 0 83 41.5t42 99.5v104zM349 275v85q0 61 -31.5 94t-93.5 33q-65 0 -107 -33.5t-42 -86.5q0 -45 35 -71l-6 -7q-39 27 -39 78q0 59 48.5 96t137.5 37q107 0 160 -47t53 -134v-319h-104l-9 130q-13 -57 -60 -98.5t-118 -41.5q-64 0 -104.5 33.5t-40.5 89.5q0 33 15.5 58
t44.5 41t59.5 25t70.5 16z" />
    <glyph glyph-name="ae" unicode="&#xe6;" horiz-adv-x="839" 
d="M808 152q-19 -77 -75.5 -119.5t-142.5 -42.5q-80 0 -145.5 44t-86.5 121q-9 -70 -58.5 -117.5t-126.5 -47.5q-64 0 -104.5 34t-40.5 90q0 111 190 141l131 23v82q0 61 -31.5 94t-93.5 33q-65 0 -107 -33.5t-42 -86.5q0 -45 35 -71l-6 -7q-39 27 -39 78q0 59 48.5 96
t137.5 37q59 0 101 -25t59 -65q65 90 174 90q105 0 165.5 -67t60.5 -167h-346v-28q0 -232 157 -232q63 0 111.5 38.5t64.5 109.5zM585 491q-112 0 -120 -215h230q0 106 -24.5 160.5t-85.5 54.5zM349 268l-97 -16q-58 -10 -84.5 -38.5t-26.5 -81.5q0 -51 23 -79t62 -28
q51 0 87 44.5t36 117.5v81z" />
    <glyph glyph-name="ccedilla" unicode="&#xe7;" horiz-adv-x="497" 
d="M280 -225q-77 0 -110 58l8 7q26 -48 79 -48q29 0 45.5 18t16.5 49q0 70 -92 70l26 62q-91 6 -158 73t-67 175q0 115 77 188t182 73q79 0 125.5 -40t46.5 -104q0 -59 -40 -91l-7 7q37 29 37 84t-36 90.5t-95 35.5q-74 0 -121 -63t-47 -178q0 -111 40 -171.5t115 -60.5
q58 0 103.5 37.5t58.5 107.5l10 -2q-15 -77 -69.5 -119.5t-138.5 -42.5h-6l-23 -53q60 0 102 -20.5t42 -61.5q0 -36 -30.5 -58t-73.5 -22z" />
    <glyph glyph-name="egrave" unicode="&#xe8;" horiz-adv-x="525" 
d="M285 553l-169 196h111l62 -196h-4zM494 152q-19 -77 -75.5 -119.5t-142.5 -42.5q-97 0 -172.5 69.5t-75.5 181.5q0 115 72 187t171 72q105 0 165.5 -67t60.5 -167h-346v-28q0 -232 157 -232q63 0 111.5 38.5t64.5 109.5zM271 491q-112 0 -120 -215h230q0 106 -24.5 160.5
t-85.5 54.5z" />
    <glyph glyph-name="eacute" unicode="&#xe9;" horiz-adv-x="525" 
d="M318 749h111l-169 -196h-4zM494 152q-19 -77 -75.5 -119.5t-142.5 -42.5q-97 0 -172.5 69.5t-75.5 181.5q0 115 72 187t171 72q105 0 165.5 -67t60.5 -167h-346v-28q0 -232 157 -232q63 0 111.5 38.5t64.5 109.5zM271 491q-112 0 -120 -215h230q0 106 -24.5 160.5
t-85.5 54.5z" />
    <glyph glyph-name="ecircumflex" unicode="&#xea;" horiz-adv-x="525" 
d="M344 546l-107 138l-110 -138h-13l164 207h2l160 -207h-96zM494 152q-19 -77 -75.5 -119.5t-142.5 -42.5q-97 0 -172.5 69.5t-75.5 181.5q0 115 72 187t171 72q105 0 165.5 -67t60.5 -167h-346v-28q0 -232 157 -232q63 0 111.5 38.5t64.5 109.5zM271 491q-112 0 -120 -215
h230q0 106 -24.5 160.5t-85.5 54.5z" />
    <glyph glyph-name="edieresis" unicode="&#xeb;" horiz-adv-x="525" 
d="M311 589v127h96v-127h-96zM147 589v127h96v-127h-96zM494 152q-19 -77 -75.5 -119.5t-142.5 -42.5q-97 0 -172.5 69.5t-75.5 181.5q0 115 72 187t171 72q105 0 165.5 -67t60.5 -167h-346v-28q0 -232 157 -232q63 0 111.5 38.5t64.5 109.5zM271 491q-112 0 -120 -215h230
q0 106 -24.5 160.5t-85.5 54.5z" />
    <glyph glyph-name="igrave" unicode="&#xec;" 
d="M144 553l-169 196h111l62 -196h-4zM182 490v-490h-116v490h116z" />
    <glyph glyph-name="iacute" unicode="&#xed;" 
d="M161 749h111l-169 -196h-4zM182 490v-490h-116v490h116z" />
    <glyph glyph-name="icircumflex" unicode="&#xee;" 
d="M125 753h1l133 -207h-87l-87 134l-85 -134h-11zM182 490v-490h-116v490h116z" />
    <glyph glyph-name="idieresis" unicode="&#xef;" 
d="M-2 589v127h91v-127h-91zM158 589v127h92v-127h-92zM182 490v-490h-116v490h116z" />
    <glyph glyph-name="eth" unicode="&#xf0;" horiz-adv-x="564" 
d="M282 -10q-106 0 -180 73.5t-74 180.5q0 108 74 182t180 74q84 0 122 -76q-6 141 -86 227l-137 -82l-4 9l133 80q-70 70 -193 94l2 8q117 -19 214 -88l91 54l5 -9l-87 -52q91 -69 143 -170t52 -217q0 -130 -71 -209t-184 -79zM282 490q-65 0 -98 -57.5t-33 -188.5
q0 -130 33 -187.5t98 -57.5t98 57.5t33 187.5q0 131 -33 188.5t-98 57.5z" />
    <glyph glyph-name="ntilde" unicode="&#xf1;" horiz-adv-x="577" 
d="M371 578q-30 0 -87.5 42t-83.5 42q-27 0 -42 -20.5t-20 -66.5h-7q5 68 32 110t71 42q31 0 88 -42t83 -42q52 0 61 87h8q-5 -68 -32 -110t-71 -42zM182 314v-314h-116v490h112l4 -121q17 61 62.5 96t110.5 35q77 0 119.5 -47t42.5 -123v-330h-116v366q0 110 -89 110
q-51 0 -90 -47t-40 -115z" />
    <glyph glyph-name="ograve" unicode="&#xf2;" horiz-adv-x="564" 
d="M290 553l-169 196h111l62 -196h-4zM282 -10q-106 0 -180 73.5t-74 180.5q0 108 74 182t180 74t180.5 -74t74.5 -182q0 -107 -74.5 -180.5t-180.5 -73.5zM282 491q-65 0 -98 -58t-33 -189q0 -130 33 -187.5t98 -57.5t98 57.5t33 187.5q0 131 -33 189t-98 58z" />
    <glyph glyph-name="oacute" unicode="&#xf3;" horiz-adv-x="564" 
d="M324 749h111l-169 -196h-4zM282 -10q-106 0 -180 73.5t-74 180.5q0 108 74 182t180 74t180.5 -74t74.5 -182q0 -107 -74.5 -180.5t-180.5 -73.5zM282 491q-65 0 -98 -58t-33 -189q0 -130 33 -187.5t98 -57.5t98 57.5t33 187.5q0 131 -33 189t-98 58z" />
    <glyph glyph-name="ocircumflex" unicode="&#xf4;" horiz-adv-x="564" 
d="M353 546l-107 138l-110 -138h-13l164 207h2l160 -207h-96zM282 -10q-106 0 -180 73.5t-74 180.5q0 108 74 182t180 74t180.5 -74t74.5 -182q0 -107 -74.5 -180.5t-180.5 -73.5zM282 491q-65 0 -98 -58t-33 -189q0 -130 33 -187.5t98 -57.5t98 57.5t33 187.5
q0 131 -33 189t-98 58z" />
    <glyph glyph-name="otilde" unicode="&#xf5;" horiz-adv-x="564" 
d="M352 578q-30 0 -87.5 42t-83.5 42q-27 0 -42 -20.5t-20 -66.5h-7q5 68 32 110t71 42q31 0 88 -42t83 -42q52 0 61 87h8q-5 -68 -32 -110t-71 -42zM282 -10q-106 0 -180 73.5t-74 180.5q0 108 74 182t180 74t180.5 -74t74.5 -182q0 -107 -74.5 -180.5t-180.5 -73.5z
M282 491q-65 0 -98 -58t-33 -189q0 -130 33 -187.5t98 -57.5t98 57.5t33 187.5q0 131 -33 189t-98 58z" />
    <glyph glyph-name="odieresis" unicode="&#xf6;" horiz-adv-x="564" 
d="M316 589v127h96v-127h-96zM152 589v127h96v-127h-96zM282 -10q-106 0 -180 73.5t-74 180.5q0 108 74 182t180 74t180.5 -74t74.5 -182q0 -107 -74.5 -180.5t-180.5 -73.5zM282 491q-65 0 -98 -58t-33 -189q0 -130 33 -187.5t98 -57.5t98 57.5t33 187.5q0 131 -33 189
t-98 58z" />
    <glyph glyph-name="divide" unicode="&#xf7;" horiz-adv-x="510" 
d="M213 435v82h85v-82h-85zM44 315v10h422v-10h-422zM213 123v82h85v-82h-85z" />
    <glyph glyph-name="oslash" unicode="&#xf8;" horiz-adv-x="564" 
d="M151 244q0 -91 16 -145l227 303q-31 89 -112 89q-65 0 -98 -58t-33 -189zM282 -1q65 0 98 57.5t33 187.5q0 93 -16 147l-226 -303q30 -89 111 -89zM282 -10q-83 0 -149 47l-42 -56l-8 6l42 56q-97 76 -97 201q0 108 74 182t180 74q83 0 149 -47l42 55l8 -5l-42 -56
q46 -35 72 -88t26 -115q0 -107 -74.5 -180.5t-180.5 -73.5z" />
    <glyph glyph-name="ugrave" unicode="&#xf9;" horiz-adv-x="570" 
d="M290 553l-169 196h111l62 -196h-4zM388 176v314h116v-490h-112l-4 120q-17 -61 -60.5 -95.5t-107.5 -34.5q-75 0 -117.5 47.5t-42.5 123.5v329h117v-365q0 -111 86 -111q49 0 86.5 47t38.5 115z" />
    <glyph glyph-name="uacute" unicode="&#xfa;" horiz-adv-x="570" 
d="M324 749h111l-169 -196h-4zM388 176v314h116v-490h-112l-4 120q-17 -61 -60.5 -95.5t-107.5 -34.5q-75 0 -117.5 47.5t-42.5 123.5v329h117v-365q0 -111 86 -111q49 0 86.5 47t38.5 115z" />
    <glyph glyph-name="ucircumflex" unicode="&#xfb;" horiz-adv-x="570" 
d="M349 546l-107 138l-110 -138h-13l164 207h2l160 -207h-96zM388 176v314h116v-490h-112l-4 120q-17 -61 -60.5 -95.5t-107.5 -34.5q-75 0 -117.5 47.5t-42.5 123.5v329h117v-365q0 -111 86 -111q49 0 86.5 47t38.5 115z" />
    <glyph glyph-name="udieresis" unicode="&#xfc;" horiz-adv-x="570" 
d="M316 589v127h96v-127h-96zM152 589v127h96v-127h-96zM388 176v314h116v-490h-112l-4 120q-17 -61 -60.5 -95.5t-107.5 -34.5q-75 0 -117.5 47.5t-42.5 123.5v329h117v-365q0 -111 86 -111q49 0 86.5 47t38.5 115z" />
    <glyph glyph-name="yacute" unicode="&#xfd;" horiz-adv-x="482" 
d="M303 749h111l-169 -196h-4zM69 -225q-42 0 -68 26.5t-26 70.5q0 30 17 56l10 -4q-17 -26 -17 -52q0 -39 23 -63t61 -24q46 0 77.5 38t72.5 126l23 51l-236 490h123l168 -369l168 369h12l-247 -541q-41 -91 -76 -132.5t-85 -41.5z" />
    <glyph glyph-name="thorn" unicode="&#xfe;" horiz-adv-x="594" 
d="M182 308v-125q1 -72 40 -120t94 -48q60 0 93.5 64t33.5 168t-33 166t-92 62q-54 0 -94 -47t-42 -120zM182 120v-335h-116v964h116v-381q16 57 62 94.5t111 37.5q87 0 149.5 -69t62.5 -182q0 -114 -62.5 -186.5t-150.5 -72.5q-63 0 -109 36t-63 94z" />
    <glyph glyph-name="ydieresis" unicode="&#xff;" horiz-adv-x="482" 
d="M295 589v127h96v-127h-96zM131 589v127h96v-127h-96zM69 -225q-42 0 -68 26.5t-26 70.5q0 30 17 56l10 -4q-17 -26 -17 -52q0 -39 23 -63t61 -24q46 0 77.5 38t72.5 126l23 51l-236 490h123l168 -369l168 369h12l-247 -541q-41 -91 -76 -132.5t-85 -41.5z" />
    <glyph glyph-name="Amacron" unicode="&#x100;" horiz-adv-x="692" 
d="M483 786h-288v10h288v-10zM437 236l-155 328l-150 -328h305zM548 0l-106 225h-315l-102 -225h-12l323 710h4l339 -710h-131z" />
    <glyph glyph-name="amacron" unicode="&#x101;" horiz-adv-x="525" 
d="M407 632h-288v10h288v-10zM349 266l-97 -16q-58 -10 -84.5 -38t-26.5 -81q0 -52 22.5 -81t60.5 -29q48 0 83 41.5t42 99.5v104zM349 275v85q0 61 -31.5 94t-93.5 33q-65 0 -107 -33.5t-42 -86.5q0 -45 35 -71l-6 -7q-39 27 -39 78q0 59 48.5 96t137.5 37q107 0 160 -47
t53 -134v-319h-104l-9 130q-13 -57 -60 -98.5t-118 -41.5q-64 0 -104.5 33.5t-40.5 89.5q0 33 15.5 58t44.5 41t59.5 25t70.5 16z" />
    <glyph glyph-name="Abreve" unicode="&#x102;" horiz-adv-x="692" 
d="M488 928q0 -81 -41 -131.5t-108 -50.5t-108 50.5t-41 131.5h7q4 -56 37.5 -82.5t104.5 -26.5t104.5 26.5t37.5 82.5h7zM437 236l-155 328l-150 -328h305zM548 0l-106 225h-315l-102 -225h-12l323 710h4l339 -710h-131z" />
    <glyph glyph-name="abreve" unicode="&#x103;" horiz-adv-x="525" 
d="M412 752q0 -86 -41 -138.5t-108 -52.5t-108 52.5t-41 138.5h6q4 -62 37.5 -90t105.5 -28t105.5 28t37.5 90h6zM349 266l-97 -16q-58 -10 -84.5 -38t-26.5 -81q0 -52 22.5 -81t60.5 -29q48 0 83 41.5t42 99.5v104zM349 275v85q0 61 -31.5 94t-93.5 33q-65 0 -107 -33.5
t-42 -86.5q0 -45 35 -71l-6 -7q-39 27 -39 78q0 59 48.5 96t137.5 37q107 0 160 -47t53 -134v-319h-104l-9 130q-13 -57 -60 -98.5t-118 -41.5q-64 0 -104.5 33.5t-40.5 89.5q0 33 15.5 58t44.5 41t59.5 25t70.5 16z" />
    <glyph glyph-name="Aogonek" unicode="&#x104;" horiz-adv-x="692" 
d="M629 -132q-39 -93 -132 -93q-42 0 -72 23.5t-30 60.5q0 22 10.5 41t36.5 39t44.5 31.5t59.5 34.5l-104 220h-316l-101 -225h-12l323 710h4l339 -710h-127q-52 -35 -73 -61.5t-21 -66.5q0 -35 20 -56.5t49 -21.5q59 0 94 78zM437 236l-157 331l-149 -331h306z" />
    <glyph glyph-name="aogonek" unicode="&#x105;" horiz-adv-x="525" 
d="M349 266l-97 -16q-58 -10 -84.5 -38t-26.5 -81q0 -52 22.5 -81t60.5 -29q48 0 83 41.5t42 99.5v104zM441 -132q-39 -93 -132 -93q-42 0 -71.5 23.5t-29.5 60.5q0 22 10.5 41t36.5 38.5t45 31.5t60 35l-9 125q-13 -57 -60 -98.5t-118 -41.5q-64 0 -104.5 33.5t-40.5 89.5
q0 33 15.5 58t44.5 41t59.5 25t70.5 16l131 22v85q0 61 -31.5 94t-93.5 33q-65 0 -107 -33.5t-42 -86.5q0 -45 35 -71l-6 -7q-39 27 -39 78q0 59 48.5 96t137.5 37q107 0 160 -47t53 -134v-319h-100q-51 -33 -72 -60.5t-21 -67.5q0 -35 19.5 -56.5t48.5 -21.5q61 0 94 78z
" />
    <glyph glyph-name="Cacute" unicode="&#x106;" horiz-adv-x="678" 
d="M422 924h113l-169 -179h-4zM28 347q0 157 102 260t251 103q100 0 169.5 -47.5t99.5 -135.5l-10 -4q-27 81 -89 126t-144 45q-112 0 -177 -90t-65 -254t65 -254t177 -90q82 0 145.5 44.5t90.5 125.5l10 -4q-31 -88 -101.5 -135t-170.5 -47q-149 0 -251 100t-102 257z" />
    <glyph glyph-name="cacute" unicode="&#x107;" horiz-adv-x="497" 
d="M331 749h111l-169 -196h-4zM318 482q-74 0 -121 -63t-47 -178q0 -111 40 -171.5t115 -60.5q58 0 103.5 37.5t58.5 107.5l10 -2q-15 -77 -69.5 -119.5t-138.5 -42.5q-95 0 -168 68t-73 181q0 115 77 188t182 73q79 0 125.5 -40t46.5 -104q0 -59 -40 -91l-7 7q37 29 37 84
t-36 90.5t-95 35.5z" />
    <glyph glyph-name="Ccircumflex" unicode="&#x108;" horiz-adv-x="678" 
d="M450 741l-107 130l-110 -130h-13l164 194h2l160 -194h-96zM28 347q0 157 102 260t251 103q100 0 169.5 -47.5t99.5 -135.5l-10 -4q-27 81 -89 126t-144 45q-112 0 -177 -90t-65 -254t65 -254t177 -90q82 0 145.5 44.5t90.5 125.5l10 -4q-31 -88 -101.5 -135t-170.5 -47
q-149 0 -251 100t-102 257z" />
    <glyph glyph-name="ccircumflex" unicode="&#x109;" horiz-adv-x="497" 
d="M357 546l-107 138l-110 -138h-13l164 207h2l160 -207h-96zM318 482q-74 0 -121 -63t-47 -178q0 -111 40 -171.5t115 -60.5q58 0 103.5 37.5t58.5 107.5l10 -2q-15 -77 -69.5 -119.5t-138.5 -42.5q-95 0 -168 68t-73 181q0 115 77 188t182 73q79 0 125.5 -40t46.5 -104
q0 -59 -40 -91l-7 7q37 29 37 84t-36 90.5t-95 35.5z" />
    <glyph glyph-name="Cdotaccent" unicode="&#x10a;" horiz-adv-x="678" 
d="M322 754v129h123v-129h-123zM28 347q0 157 102 260t251 103q100 0 169.5 -47.5t99.5 -135.5l-10 -4q-27 81 -89 126t-144 45q-112 0 -177 -90t-65 -254t65 -254t177 -90q82 0 145.5 44.5t90.5 125.5l10 -4q-31 -88 -101.5 -135t-170.5 -47q-149 0 -251 100t-102 257z" />
    <glyph glyph-name="cdotaccent" unicode="&#x10b;" horiz-adv-x="497" 
d="M231 589v127h119v-127h-119zM318 482q-74 0 -121 -63t-47 -178q0 -111 40 -171.5t115 -60.5q58 0 103.5 37.5t58.5 107.5l10 -2q-15 -77 -69.5 -119.5t-138.5 -42.5q-95 0 -168 68t-73 181q0 115 77 188t182 73q79 0 125.5 -40t46.5 -104q0 -59 -40 -91l-7 7q37 29 37 84
t-36 90.5t-95 35.5z" />
    <glyph glyph-name="Ccaron" unicode="&#x10c;" horiz-adv-x="678" 
d="M382 737h-2l-160 195h97l106 -131l111 131h12zM28 347q0 157 102 260t251 103q100 0 169.5 -47.5t99.5 -135.5l-10 -4q-27 81 -89 126t-144 45q-112 0 -177 -90t-65 -254t65 -254t177 -90q82 0 145.5 44.5t90.5 125.5l10 -4q-31 -88 -101.5 -135t-170.5 -47
q-149 0 -251 100t-102 257z" />
    <glyph glyph-name="ccaron" unicode="&#x10d;" horiz-adv-x="497" 
d="M289 546h-2l-160 207h97l106 -139l111 139h12zM318 482q-74 0 -121 -63t-47 -178q0 -111 40 -171.5t115 -60.5q58 0 103.5 37.5t58.5 107.5l10 -2q-15 -77 -69.5 -119.5t-138.5 -42.5q-95 0 -168 68t-73 181q0 115 77 188t182 73q79 0 125.5 -40t46.5 -104q0 -59 -40 -91
l-7 7q37 29 37 84t-36 90.5t-95 35.5z" />
    <glyph glyph-name="Dcaron" unicode="&#x10e;" horiz-adv-x="743" 
d="M338 737h-2l-160 195h97l106 -131l111 131h12zM318 0h-238v700h227q184 0 295.5 -91.5t111.5 -252.5q0 -166 -111.5 -261t-284.5 -95zM585 356q0 161 -73 247t-219 86h-91v-678h99q284 0 284 345z" />
    <glyph glyph-name="dcaron" unicode="&#x10f;" horiz-adv-x="594" 
d="M719 749l-121 -217h-4l22 217h103zM413 182v125q-2 72 -41 119.5t-94 47.5q-59 0 -92.5 -64t-33.5 -168t32.5 -165.5t92.5 -61.5q53 0 93.5 47.5t42.5 119.5zM412 369v380h116v-749h-112l-4 122q-16 -57 -62 -94.5t-111 -37.5q-86 0 -148.5 69t-62.5 181q0 115 62 187.5
t151 72.5q63 0 109 -36t62 -95z" />
    <glyph glyph-name="Dcroat" unicode="&#x110;" horiz-adv-x="759" 
d="M334 0h-238v356h-69v11h69v333h227q184 0 295.5 -91.5t111.5 -252.5q0 -166 -111.5 -261t-284.5 -95zM218 11h99q284 0 284 345q0 161 -73 247t-219 86h-91v-322h168v-11h-168v-345z" />
    <glyph glyph-name="dcroat" unicode="&#x111;" horiz-adv-x="594" 
d="M413 182v125q-2 72 -41 119.5t-94 47.5q-59 0 -92.5 -64t-33.5 -168t32.5 -165.5t92.5 -61.5q53 0 93.5 47.5t42.5 119.5zM412 122q-16 -57 -62 -94.5t-111 -37.5q-86 0 -148.5 69t-62.5 181q0 115 62 187.5t151 72.5q63 0 109 -36t62 -95v263h-130v10h130v107h116v-107
h53v-10h-53v-632h-112z" />
    <glyph glyph-name="Emacron" unicode="&#x112;" horiz-adv-x="623" 
d="M486 786h-288v10h288v-10zM80 0v700h488v-11h-366v-322h268v-11h-268v-345h381v-11h-503z" />
    <glyph glyph-name="emacron" unicode="&#x113;" horiz-adv-x="525" 
d="M421 632h-288v10h288v-10zM494 152q-19 -77 -75.5 -119.5t-142.5 -42.5q-97 0 -172.5 69.5t-75.5 181.5q0 115 72 187t171 72q105 0 165.5 -67t60.5 -167h-346v-28q0 -232 157 -232q63 0 111.5 38.5t64.5 109.5zM271 491q-112 0 -120 -215h230q0 106 -24.5 160.5
t-85.5 54.5z" />
    <glyph glyph-name="Ebreve" unicode="&#x114;" horiz-adv-x="623" 
d="M491 928q0 -81 -41 -131.5t-108 -50.5t-108 50.5t-41 131.5h7q4 -56 37.5 -82.5t104.5 -26.5t104.5 26.5t37.5 82.5h7zM80 0v700h488v-11h-366v-322h268v-11h-268v-345h381v-11h-503z" />
    <glyph glyph-name="ebreve" unicode="&#x115;" horiz-adv-x="525" 
d="M426 752q0 -86 -41 -138.5t-108 -52.5t-108 52.5t-41 138.5h6q4 -62 37.5 -90t105.5 -28t105.5 28t37.5 90h6zM494 152q-19 -77 -75.5 -119.5t-142.5 -42.5q-97 0 -172.5 69.5t-75.5 181.5q0 115 72 187t171 72q105 0 165.5 -67t60.5 -167h-346v-28q0 -232 157 -232
q63 0 111.5 38.5t64.5 109.5zM271 491q-112 0 -120 -215h230q0 106 -24.5 160.5t-85.5 54.5z" />
    <glyph glyph-name="Edotaccent" unicode="&#x116;" horiz-adv-x="623" 
d="M281 754v129h123v-129h-123zM80 0v700h488v-11h-366v-322h268v-11h-268v-345h381v-11h-503z" />
    <glyph glyph-name="edotaccent" unicode="&#x117;" horiz-adv-x="525" 
d="M218 589v127h119v-127h-119zM494 152q-19 -77 -75.5 -119.5t-142.5 -42.5q-97 0 -172.5 69.5t-75.5 181.5q0 115 72 187t171 72q105 0 165.5 -67t60.5 -167h-346v-28q0 -232 157 -232q63 0 111.5 38.5t64.5 109.5zM271 491q-112 0 -120 -215h230q0 106 -24.5 160.5
t-85.5 54.5z" />
    <glyph glyph-name="Eogonek" unicode="&#x118;" horiz-adv-x="623" 
d="M569 -132q-39 -93 -132 -93q-42 0 -71.5 23.5t-29.5 60.5q0 28 22 54.5t46.5 42.5t73.5 44h-398v700h488v-11h-366v-322h268v-11h-268v-345h381v-11h-91q-51 -33 -72 -60.5t-21 -67.5q0 -35 19.5 -56.5t48.5 -21.5q61 0 94 78z" />
    <glyph glyph-name="eogonek" unicode="&#x119;" horiz-adv-x="525" 
d="M458 -132q-39 -93 -132 -93q-42 0 -72 23.5t-30 60.5q0 63 128 141q-31 -10 -76 -10q-97 0 -172.5 69.5t-75.5 181.5q0 115 72 187t171 72q105 0 165.5 -67t60.5 -167h-345q-1 -9 -1 -28q0 -232 157 -232q63 0 111.5 38.5t64.5 109.5l10 -2q-23 -98 -107 -139
q-51 -34 -75.5 -67t-24.5 -74q0 -35 20 -56.5t49 -21.5q59 0 94 78zM271 491q-109 0 -119 -215h229q0 106 -24.5 160.5t-85.5 54.5z" />
    <glyph glyph-name="Ecaron" unicode="&#x11a;" horiz-adv-x="623" 
d="M341 737h-2l-160 195h97l106 -131l111 131h12zM80 0v700h488v-11h-366v-322h268v-11h-268v-345h381v-11h-503z" />
    <glyph glyph-name="ecaron" unicode="&#x11b;" horiz-adv-x="525" 
d="M276 546h-2l-160 207h97l106 -139l111 139h12zM494 152q-19 -77 -75.5 -119.5t-142.5 -42.5q-97 0 -172.5 69.5t-75.5 181.5q0 115 72 187t171 72q105 0 165.5 -67t60.5 -167h-346v-28q0 -232 157 -232q63 0 111.5 38.5t64.5 109.5zM271 491q-112 0 -120 -215h230
q0 106 -24.5 160.5t-85.5 54.5z" />
    <glyph glyph-name="Gcircumflex" unicode="&#x11c;" horiz-adv-x="747" 
d="M463 741l-107 130l-110 -130h-13l164 194h2l160 -194h-96zM698 -10h-3l-85 131q-31 -58 -91 -94.5t-135 -36.5q-150 0 -253 100.5t-103 257.5q0 158 107.5 260t260.5 102q103 0 174 -47t103 -136l-9 -4q-29 82 -95.5 128t-153.5 46q-115 0 -182.5 -94.5t-67.5 -255.5
t59 -254t165 -93q83 0 136 54t53 147v117h120v-328z" />
    <glyph glyph-name="gcircumflex" unicode="&#x11d;" horiz-adv-x="540" 
d="M327 565l-107 138l-110 -138h-13l164 207h2l160 -207h-96zM343 338q0 79 -22.5 116t-70.5 37q-92 0 -92 -153q0 -80 22.5 -116.5t69.5 -36.5q48 0 70.5 36.5t22.5 116.5zM533 -30q0 -90 -85 -142.5t-204 -52.5q-109 0 -176 32t-67 95q0 45 37.5 72.5t89.5 28.5
q-40 8 -64 34.5t-24 62.5q0 73 86 106q-82 46 -82 132q0 69 57.5 115.5t148.5 46.5q72 0 126 -30q49 76 108 76q35 0 55.5 -19.5t20.5 -53.5q0 -36 -25 -61l-7 6q22 24 22 55q0 30 -18 46.5t-48 16.5q-53 0 -100 -71q74 -47 74 -127q0 -69 -58 -115.5t-150 -46.5
q-65 0 -115 25q-58 -20 -58 -57q0 -39 65 -39h220q80 0 125.5 -33.5t45.5 -101.5zM386 -3h-242q-52 0 -92.5 -24.5t-40.5 -70.5q0 -58 64.5 -87.5t168.5 -29.5q100 0 172 38t72 100q0 74 -102 74z" />
    <glyph glyph-name="Gbreve" unicode="&#x11e;" horiz-adv-x="747" 
d="M545 928q0 -81 -41 -131.5t-108 -50.5t-108 50.5t-41 131.5h7q4 -56 37.5 -82.5t104.5 -26.5t104.5 26.5t37.5 82.5h7zM698 -10h-3l-85 131q-31 -58 -91 -94.5t-135 -36.5q-150 0 -253 100.5t-103 257.5q0 158 107.5 260t260.5 102q103 0 174 -47t103 -136l-9 -4
q-29 82 -95.5 128t-153.5 46q-115 0 -182.5 -94.5t-67.5 -255.5t59 -254t165 -93q83 0 136 54t53 147v117h120v-328z" />
    <glyph glyph-name="gbreve" unicode="&#x11f;" horiz-adv-x="540" 
d="M402 752q0 -86 -41 -138.5t-108 -52.5t-108 52.5t-41 138.5h6q4 -62 37.5 -90t105.5 -28t105.5 28t37.5 90h6zM343 338q0 79 -22.5 116t-70.5 37q-92 0 -92 -153q0 -80 22.5 -116.5t69.5 -36.5q48 0 70.5 36.5t22.5 116.5zM533 -30q0 -90 -85 -142.5t-204 -52.5
q-109 0 -176 32t-67 95q0 45 37.5 72.5t89.5 28.5q-40 8 -64 34.5t-24 62.5q0 73 86 106q-82 46 -82 132q0 69 57.5 115.5t148.5 46.5q72 0 126 -30q49 76 108 76q35 0 55.5 -19.5t20.5 -53.5q0 -36 -25 -61l-7 6q22 24 22 55q0 30 -18 46.5t-48 16.5q-53 0 -100 -71
q74 -47 74 -127q0 -69 -58 -115.5t-150 -46.5q-65 0 -115 25q-58 -20 -58 -57q0 -39 65 -39h220q80 0 125.5 -33.5t45.5 -101.5zM386 -3h-242q-52 0 -92.5 -24.5t-40.5 -70.5q0 -58 64.5 -87.5t168.5 -29.5q100 0 172 38t72 100q0 74 -102 74z" />
    <glyph glyph-name="Gdotaccent" unicode="&#x120;" horiz-adv-x="747" 
d="M335 754v129h123v-129h-123zM698 -10h-3l-85 131q-31 -58 -91 -94.5t-135 -36.5q-150 0 -253 100.5t-103 257.5q0 158 107.5 260t260.5 102q103 0 174 -47t103 -136l-9 -4q-29 82 -95.5 128t-153.5 46q-115 0 -182.5 -94.5t-67.5 -255.5t59 -254t165 -93q83 0 136 54
t53 147v117h120v-328z" />
    <glyph glyph-name="gdotaccent" unicode="&#x121;" horiz-adv-x="540" 
d="M194 589v127h119v-127h-119zM343 338q0 79 -22.5 116t-70.5 37q-92 0 -92 -153q0 -80 22.5 -116.5t69.5 -36.5q48 0 70.5 36.5t22.5 116.5zM533 -30q0 -90 -85 -142.5t-204 -52.5q-109 0 -176 32t-67 95q0 45 37.5 72.5t89.5 28.5q-40 8 -64 34.5t-24 62.5q0 73 86 106
q-82 46 -82 132q0 69 57.5 115.5t148.5 46.5q72 0 126 -30q49 76 108 76q35 0 55.5 -19.5t20.5 -53.5q0 -36 -25 -61l-7 6q22 24 22 55q0 30 -18 46.5t-48 16.5q-53 0 -100 -71q74 -47 74 -127q0 -69 -58 -115.5t-150 -46.5q-65 0 -115 25q-58 -20 -58 -57q0 -39 65 -39h220
q80 0 125.5 -33.5t45.5 -101.5zM386 -3h-242q-52 0 -92.5 -24.5t-40.5 -70.5q0 -58 64.5 -87.5t168.5 -29.5q100 0 172 38t72 100q0 74 -102 74z" />
    <glyph glyph-name="uni0122" unicode="&#x122;" horiz-adv-x="747" 
d="M698 -10h-3l-85 131q-31 -58 -91 -94.5t-135 -36.5q-150 0 -253 100.5t-103 257.5q0 158 107.5 260t260.5 102q103 0 174 -47t103 -136l-9 -4q-29 82 -95.5 128t-153.5 46q-115 0 -182.5 -94.5t-67.5 -255.5t59 -254t165 -93q83 0 136 54t53 147v117h120v-328zM322 -166
v114h125v-115q0 -51 -34.5 -81t-104.5 -22v10q67 -8 98 18.5t31 75.5h-115z" />
    <glyph glyph-name="uni0123" unicode="&#x123;" horiz-adv-x="540" 
d="M323 687v-114h-125v114q0 52 34.5 82t104.5 22v-10q-67 8 -98 -19t-31 -75h115zM343 338q0 79 -22.5 116t-70.5 37q-92 0 -92 -153q0 -80 22.5 -116.5t69.5 -36.5q48 0 70.5 36.5t22.5 116.5zM533 -30q0 -90 -85 -142.5t-204 -52.5q-109 0 -176 32t-67 95q0 45 37.5 72.5
t89.5 28.5q-40 8 -64 34.5t-24 62.5q0 73 86 106q-82 46 -82 132q0 69 57.5 115.5t148.5 46.5q72 0 126 -30q49 76 108 76q35 0 55.5 -19.5t20.5 -53.5q0 -36 -25 -61l-7 6q22 24 22 55q0 30 -18 46.5t-48 16.5q-53 0 -100 -71q74 -47 74 -127q0 -69 -58 -115.5t-150 -46.5
q-65 0 -115 25q-58 -20 -58 -57q0 -39 65 -39h220q80 0 125.5 -33.5t45.5 -101.5zM386 -3h-242q-52 0 -92.5 -24.5t-40.5 -70.5q0 -58 64.5 -87.5t168.5 -29.5q100 0 172 38t72 100q0 74 -102 74z" />
    <glyph glyph-name="Hcircumflex" unicode="&#x124;" horiz-adv-x="796" 
d="M464 741l-107 130l-110 -130h-13l164 194h2l160 -194h-96zM80 0v700h122v-333h392v333h122v-700h-122v356h-392v-356h-122z" />
    <glyph glyph-name="hcircumflex" unicode="&#x125;" horiz-adv-x="577" 
d="M358 775l-107 130l-110 -130h-13l164 194h2l160 -194h-96zM66 749h116v-380q17 61 62.5 96t110.5 35q77 0 119.5 -47t42.5 -123v-330h-116v366q0 110 -89 110q-51 0 -90 -47t-40 -115v-314h-116v749z" />
    <glyph glyph-name="Hbar" unicode="&#x126;" horiz-adv-x="828" 
d="M218 293h392v165h-392v-165zM218 282v-282h-122v458h-69v11h69v231h122v-231h392v231h123v-231h68v-11h-68v-458h-123v282h-392z" />
    <glyph glyph-name="hbar" unicode="&#x127;" horiz-adv-x="577" 
d="M182 314v-314h-116v632h-52v10h52v107h116v-107h131v-10h-131v-263q17 61 62.5 96t110.5 35q77 0 119.5 -47t42.5 -123v-330h-116v366q0 110 -89 110q-51 0 -90 -47t-40 -115z" />
    <glyph glyph-name="Itilde" unicode="&#x128;" horiz-adv-x="281" 
d="M213 761q-31 0 -92 42t-88 42q-57 0 -67 -87h-7q5 68 34 111t75 43q34 0 94 -42.5t87 -42.5q56 0 66 88h7q-5 -68 -34 -111t-75 -43zM202 700v-700h-122v700h122z" />
    <glyph glyph-name="itilde" unicode="&#x129;" 
d="M178 578q-24 0 -70 40.5t-63 40.5q-21 0 -32 -19t-14 -65h-8q3 68 24.5 110t55.5 42q25 0 70.5 -40.5t62.5 -40.5q40 0 46 84h8q-3 -68 -24 -110t-56 -42zM182 490v-490h-116v490h116z" />
    <glyph glyph-name="Imacron" unicode="&#x12a;" horiz-adv-x="281" 
d="M284 786h-288v10h288v-10zM202 700v-700h-122v700h122z" />
    <glyph glyph-name="imacron" unicode="&#x12b;" 
d="M245 629h-243v13h243v-13zM182 490v-490h-116v490h116z" />
    <glyph glyph-name="Ibreve" unicode="&#x12c;" horiz-adv-x="281" 
d="M289 928q0 -81 -41 -131.5t-108 -50.5t-108 50.5t-41 131.5h7q4 -56 37.5 -82.5t104.5 -26.5t104.5 26.5t37.5 82.5h7zM202 700v-700h-122v700h122z" />
    <glyph glyph-name="ibreve" unicode="&#x12d;" 
d="M255 752q0 -88 -35.5 -139.5t-95.5 -51.5t-95.5 51.5t-35.5 139.5h8q3 -62 31.5 -90t91.5 -28t91.5 28t32.5 90h7zM182 490v-490h-116v490h116z" />
    <glyph glyph-name="Iogonek" unicode="&#x12e;" horiz-adv-x="281" 
d="M248 -132q-39 -93 -132 -93q-42 0 -71.5 23.5t-29.5 60.5q0 28 22 54.5t46.5 42.5t73.5 44h-77v700h122v-700h-31q-51 -33 -72 -60.5t-21 -67.5q0 -35 19.5 -56.5t48.5 -21.5q61 0 94 78z" />
    <glyph glyph-name="iogonek" unicode="&#x12f;" 
d="M65 589v127h118v-127h-118zM230 -132q-39 -93 -132 -93q-42 0 -71.5 23.5t-29.5 60.5q0 28 22 54.5t46.5 42.5t73.5 44h-73v490h116v-490h-29q-51 -33 -72 -60.5t-21 -67.5q0 -35 19.5 -56.5t48.5 -21.5q61 0 94 78z" />
    <glyph glyph-name="Idotaccent" unicode="&#x130;" horiz-adv-x="281" 
d="M79 754v129h123v-129h-123zM202 700v-700h-122v700h122z" />
    <glyph glyph-name="dotlessi" unicode="&#x131;" 
d="M182 490v-490h-116v490h116z" />
    <glyph glyph-name="Jcircumflex" unicode="&#x134;" horiz-adv-x="571" 
d="M508 741l-107 130l-110 -130h-13l164 194h2l160 -194h-96zM382 207v493h123v-460q0 -117 -73 -183.5t-190 -66.5q-101 0 -162.5 54.5t-61.5 142.5q0 45 22 82t52 53l5 -8q-69 -42 -69 -127q0 -82 55 -132t135 -50q83 0 123.5 53.5t40.5 148.5z" />
    <glyph glyph-name="jcircumflex" unicode="&#x135;" 
d="M125 753h1l133 -207h-87l-87 134l-85 -134h-11zM182 -30q0 -89 -47.5 -142t-132.5 -53q-52 0 -85 26.5t-33 72.5q0 35 26 57l9 -4q-25 -23 -25 -53q0 -40 25 -61t61 -21q48 0 67 35t19 110v553h116v-520z" />
    <glyph glyph-name="uni0136" unicode="&#x136;" horiz-adv-x="712" 
d="M549 0l-265 341l-82 -80v-261h-122v700h122v-425l432 425h15l-277 -272l322 -428h-145zM280 -166v114h125v-115q0 -51 -34.5 -81t-104.5 -22v10q67 -8 98 18.5t31 75.5h-115z" />
    <glyph glyph-name="uni0137" unicode="&#x137;" horiz-adv-x="554" 
d="M413 0l-163 234l-68 -62v-172h-116v749h116v-564l336 305h13l-197 -180l210 -310h-131zM208 -166v114h125v-115q0 -51 -34.5 -81t-104.5 -22v10q67 -8 98 18.5t31 75.5h-115z" />
    <glyph glyph-name="kgreenlandic" unicode="&#x138;" horiz-adv-x="554" 
d="M413 0l-163 234l-68 -62v-172h-116v490h116v-305l336 305h13l-197 -180l210 -310h-131z" />
    <glyph glyph-name="Lacute" unicode="&#x139;" horiz-adv-x="600" 
d="M201 924h113l-169 -179h-4zM80 0v700h122v-689h365v-11h-487z" />
    <glyph glyph-name="lacute" unicode="&#x13a;" 
d="M163 948h113l-169 -179h-4zM182 749v-749h-116v749h116z" />
    <glyph glyph-name="uni013B" unicode="&#x13b;" horiz-adv-x="600" 
d="M80 0v700h122v-689h365v-11h-487zM262 -166v114h125v-115q0 -51 -34.5 -81t-104.5 -22v10q67 -8 98 18.5t31 75.5h-115z" />
    <glyph glyph-name="uni013C" unicode="&#x13c;" 
d="M182 749v-749h-116v749h116zM61 -166v114h125v-115q0 -51 -34.5 -81t-104.5 -22v10q67 -8 98 18.5t31 75.5h-115z" />
    <glyph glyph-name="Lcaron" unicode="&#x13d;" horiz-adv-x="600" 
d="M499 749l-121 -217h-4l22 217h103zM80 0v700h122v-689h365v-11h-487z" />
    <glyph glyph-name="lcaron" unicode="&#x13e;" 
d="M182 749v-749h-116v749h116zM373 749l-121 -217h-4l22 217h103z" />
    <glyph glyph-name="Ldot" unicode="&#x13f;" horiz-adv-x="600" 
d="M80 0v700h122v-689h365v-11h-487zM404 288v127h119v-127h-119z" />
    <glyph glyph-name="ldot" unicode="&#x140;" horiz-adv-x="372" 
d="M182 749v-749h-116v749h116zM249 313v127h119v-127h-119z" />
    <glyph glyph-name="Lslash" unicode="&#x141;" horiz-adv-x="617" 
d="M584 0h-487v252l-70 -42v13l70 42v435h122v-377l182 108v-13l-182 -108v-299h365v-11z" />
    <glyph glyph-name="lslash" unicode="&#x142;" horiz-adv-x="301" 
d="M208 0h-116v375l-76 -49v13l76 49v361h116v-298l76 49v-13l-76 -49v-438z" />
    <glyph glyph-name="Nacute" unicode="&#x143;" horiz-adv-x="740" 
d="M422 924h113l-169 -179h-4zM650 159v541h11v-710h-4l-566 558v-548h-11v710h4z" />
    <glyph glyph-name="nacute" unicode="&#x144;" horiz-adv-x="577" 
d="M333 749h111l-169 -196h-4zM182 314v-314h-116v490h112l4 -121q17 61 62.5 96t110.5 35q77 0 119.5 -47t42.5 -123v-330h-116v366q0 110 -89 110q-51 0 -90 -47t-40 -115z" />
    <glyph glyph-name="uni0145" unicode="&#x145;" horiz-adv-x="740" 
d="M650 159v541h11v-710h-4l-566 558v-548h-11v710h4zM310 -166v114h125v-115q0 -51 -34.5 -81t-104.5 -22v10q67 -8 98 18.5t31 75.5h-115z" />
    <glyph glyph-name="uni0146" unicode="&#x146;" horiz-adv-x="577" 
d="M182 314v-314h-116v490h112l4 -121q17 61 62.5 96t110.5 35q77 0 119.5 -47t42.5 -123v-330h-116v366q0 110 -89 110q-51 0 -90 -47t-40 -115zM231 -166v114h125v-115q0 -51 -34.5 -81t-104.5 -22v10q67 -8 98 18.5t31 75.5h-115z" />
    <glyph glyph-name="Ncaron" unicode="&#x147;" horiz-adv-x="740" 
d="M382 737h-2l-160 195h97l106 -131l111 131h12zM650 159v541h11v-710h-4l-566 558v-548h-11v710h4z" />
    <glyph glyph-name="ncaron" unicode="&#x148;" horiz-adv-x="577" 
d="M290 546h-2l-160 207h97l106 -139l111 139h12zM182 314v-314h-116v490h112l4 -121q17 61 62.5 96t110.5 35q77 0 119.5 -47t42.5 -123v-330h-116v366q0 110 -89 110q-51 0 -90 -47t-40 -115z" />
    <glyph glyph-name="Eng" unicode="&#x14a;" horiz-adv-x="740" 
d="M518 -225q-40 0 -68.5 25t-28.5 68q0 25 12 40l9 -3q-11 -18 -11 -37q0 -40 26 -61.5t61 -21.5q67 0 100 52.5t33 139.5v19l-560 554v-551h-11v711h4l566 -553v543h11v-731q0 -84 -36.5 -139t-106.5 -55z" />
    <glyph glyph-name="eng" unicode="&#x14b;" horiz-adv-x="577" 
d="M336 -225q-52 0 -85 26.5t-33 72.5q0 35 27 57l8 -4q-25 -25 -25 -53q0 -40 25.5 -61t61.5 -21q47 0 66.5 35.5t19.5 109.5v429q0 110 -89 110q-51 0 -90 -47t-40 -115v-314h-116v490h112l4 -121q17 61 62.5 96t110.5 35q77 0 119.5 -47t42.5 -123v-360q0 -89 -47.5 -142
t-133.5 -53z" />
    <glyph glyph-name="Omacron" unicode="&#x14c;" horiz-adv-x="773" 
d="M530 786h-288v10h288v-10zM28 350q0 155 105.5 257.5t252.5 102.5q148 0 253 -102.5t105 -257.5t-105 -257.5t-253 -102.5q-147 0 -252.5 102.5t-105.5 257.5zM165 350q0 -173 56 -261.5t165 -88.5q222 0 222 350t-222 350q-109 0 -165 -88.5t-56 -261.5z" />
    <glyph glyph-name="omacron" unicode="&#x14d;" horiz-adv-x="564" 
d="M426 632h-288v10h288v-10zM282 -10q-106 0 -180 73.5t-74 180.5q0 108 74 182t180 74t180.5 -74t74.5 -182q0 -107 -74.5 -180.5t-180.5 -73.5zM282 491q-65 0 -98 -58t-33 -189q0 -130 33 -187.5t98 -57.5t98 57.5t33 187.5q0 131 -33 189t-98 58z" />
    <glyph glyph-name="Obreve" unicode="&#x14e;" horiz-adv-x="773" 
d="M535 928q0 -81 -41 -131.5t-108 -50.5t-108 50.5t-41 131.5h7q4 -56 37.5 -82.5t104.5 -26.5t104.5 26.5t37.5 82.5h7zM28 350q0 155 105.5 257.5t252.5 102.5q148 0 253 -102.5t105 -257.5t-105 -257.5t-253 -102.5q-147 0 -252.5 102.5t-105.5 257.5zM165 350
q0 -173 56 -261.5t165 -88.5q222 0 222 350t-222 350q-109 0 -165 -88.5t-56 -261.5z" />
    <glyph glyph-name="obreve" unicode="&#x14f;" horiz-adv-x="564" 
d="M431 752q0 -86 -41 -138.5t-108 -52.5t-108 52.5t-41 138.5h6q4 -62 37.5 -90t105.5 -28t105.5 28t37.5 90h6zM282 -10q-106 0 -180 73.5t-74 180.5q0 108 74 182t180 74t180.5 -74t74.5 -182q0 -107 -74.5 -180.5t-180.5 -73.5zM282 491q-65 0 -98 -58t-33 -189
q0 -130 33 -187.5t98 -57.5t98 57.5t33 187.5q0 131 -33 189t-98 58z" />
    <glyph glyph-name="Ohungarumlaut" unicode="&#x150;" horiz-adv-x="773" 
d="M509 924h106l-161 -179h-4zM346 924h106l-161 -179h-4zM28 350q0 155 105.5 257.5t252.5 102.5q148 0 253 -102.5t105 -257.5t-105 -257.5t-253 -102.5q-147 0 -252.5 102.5t-105.5 257.5zM165 350q0 -173 56 -261.5t165 -88.5q222 0 222 350t-222 350q-109 0 -165 -88.5
t-56 -261.5z" />
    <glyph glyph-name="ohungarumlaut" unicode="&#x151;" horiz-adv-x="564" 
d="M405 749h103l-161 -196h-4zM242 749h103l-161 -196h-4zM282 -10q-106 0 -180 73.5t-74 180.5q0 108 74 182t180 74t180.5 -74t74.5 -182q0 -107 -74.5 -180.5t-180.5 -73.5zM282 491q-65 0 -98 -58t-33 -189q0 -130 33 -187.5t98 -57.5t98 57.5t33 187.5q0 131 -33 189
t-98 58z" />
    <glyph glyph-name="OE" unicode="&#x152;" horiz-adv-x="1085" 
d="M425 0q-173 0 -285 95t-112 261q0 161 112 252.5t296 91.5h594v-11h-367v-322h269v-11h-269v-345h382v-11h-620zM450 689q-146 0 -219 -86t-73 -247q0 -345 284 -345h99v678h-91z" />
    <glyph glyph-name="oe" unicode="&#x153;" horiz-adv-x="903" 
d="M873 152q-19 -77 -76 -119.5t-143 -42.5q-56 0 -105.5 31t-77.5 83q-29 -52 -78 -83t-111 -31q-106 0 -180 73.5t-74 180.5q0 108 74 182t180 74q61 0 110.5 -31.5t77.5 -83.5q28 53 76 84t104 31q104 0 165 -67.5t61 -166.5h-346v-28q0 -232 156 -232q63 0 111.5 38.5
t65.5 109.5zM650 491q-112 0 -120 -215h230q0 106 -24.5 160.5t-85.5 54.5zM282 490q-65 0 -98 -57.5t-33 -188.5q0 -130 33 -187.5t98 -57.5t98 57.5t33 187.5q0 131 -33 188.5t-98 57.5z" />
    <glyph glyph-name="Racute" unicode="&#x154;" horiz-adv-x="720" 
d="M384 924h113l-169 -179h-4zM202 689v-353h136q84 0 132.5 42.5t48.5 133.5q0 88 -47 132.5t-131 44.5h-139zM202 325v-325h-122v700h295q121 0 196.5 -45.5t75.5 -139.5q0 -47 -21.5 -83.5t-56.5 -57.5t-74 -32t-79 -12v-2q144 -9 183 -119l35 -102q24 -72 57 -107h-135
q-21 30 -43 96l-35 104q-23 68 -57.5 96.5t-103.5 28.5h-115z" />
    <glyph glyph-name="racute" unicode="&#x155;" horiz-adv-x="465" 
d="M285 749h111l-169 -196h-4zM182 337q16 68 58.5 115.5t99.5 47.5q48 0 75 -28t27 -73q0 -49 -36 -83l-7 7q33 30 33 76q0 41 -24.5 66t-67.5 25q-65 0 -109 -66t-49 -140v-284h-116v490h112z" />
    <glyph glyph-name="uni0156" unicode="&#x156;" horiz-adv-x="720" 
d="M202 689v-353h136q84 0 132.5 42.5t48.5 133.5q0 88 -47 132.5t-131 44.5h-139zM202 325v-325h-122v700h295q121 0 196.5 -45.5t75.5 -139.5q0 -47 -21.5 -83.5t-56.5 -57.5t-74 -32t-79 -12v-2q144 -9 183 -119l35 -102q24 -72 57 -107h-135q-21 30 -43 96l-35 104
q-23 68 -57.5 96.5t-103.5 28.5h-115zM291 -166v114h125v-115q0 -51 -34.5 -81t-104.5 -22v10q67 -8 98 18.5t31 75.5h-115z" />
    <glyph glyph-name="uni0157" unicode="&#x157;" horiz-adv-x="465" 
d="M182 337q16 68 58.5 115.5t99.5 47.5q48 0 75 -28t27 -73q0 -49 -36 -83l-7 7q33 30 33 76q0 41 -24.5 66t-67.5 25q-65 0 -109 -66t-49 -140v-284h-116v490h112zM62 -166v114h125v-115q0 -51 -34.5 -81t-104.5 -22v10q67 -8 98 18.5t31 75.5h-115z" />
    <glyph glyph-name="Rcaron" unicode="&#x158;" horiz-adv-x="720" 
d="M345 737h-2l-160 195h97l106 -131l111 131h12zM202 689v-353h136q84 0 132.5 42.5t48.5 133.5q0 88 -47 132.5t-131 44.5h-139zM202 325v-325h-122v700h295q121 0 196.5 -45.5t75.5 -139.5q0 -47 -21.5 -83.5t-56.5 -57.5t-74 -32t-79 -12v-2q144 -9 183 -119l35 -102
q24 -72 57 -107h-135q-21 30 -43 96l-35 104q-23 68 -57.5 96.5t-103.5 28.5h-115z" />
    <glyph glyph-name="rcaron" unicode="&#x159;" horiz-adv-x="465" 
d="M243 546h-2l-160 207h97l106 -139l111 139h12zM182 337q16 68 58.5 115.5t99.5 47.5q48 0 75 -28t27 -73q0 -49 -36 -83l-7 7q33 30 33 76q0 41 -24.5 66t-67.5 25q-65 0 -109 -66t-49 -140v-284h-116v490h112z" />
    <glyph glyph-name="Sacute" unicode="&#x15a;" horiz-adv-x="601" 
d="M342 924h113l-169 -179h-4zM489 148q0 59 -39 90.5t-113 50.5l-105 28q-96 25 -146.5 69t-50.5 121q0 88 71 145.5t178 57.5q91 0 158.5 -38.5t98.5 -104.5l-9 -7q-30 65 -95.5 102.5t-150.5 37.5q-77 0 -124.5 -36.5t-47.5 -97.5q0 -60 38.5 -86.5t119.5 -48.5l104 -28
q94 -25 144 -70t50 -124q0 -100 -78 -159.5t-189 -59.5q-102 0 -179 43t-110 119l10 6q32 -74 106.5 -115.5t168.5 -41.5q89 0 139.5 41t50.5 106z" />
    <glyph glyph-name="sacute" unicode="&#x15b;" horiz-adv-x="465" 
d="M278 749h111l-169 -196h-4zM229 490q-55 0 -90 -24.5t-35 -62.5q0 -35 22 -53.5t70 -30.5l95 -25q72 -20 108 -50.5t36 -87.5q0 -74 -57.5 -120t-148.5 -46q-77 0 -136.5 37t-75.5 100l10 4q15 -62 73 -96.5t129 -34.5q57 0 94.5 26.5t37.5 73.5q0 36 -25.5 55.5
t-72.5 31.5l-98 25q-129 33 -129 131q0 69 55 113t138 44q66 0 113 -28t66 -82l-9 -4q-38 104 -170 104z" />
    <glyph glyph-name="Scircumflex" unicode="&#x15c;" horiz-adv-x="601" 
d="M371 741l-107 130l-110 -130h-13l164 194h2l160 -194h-96zM489 148q0 59 -39 90.5t-113 50.5l-105 28q-96 25 -146.5 69t-50.5 121q0 88 71 145.5t178 57.5q91 0 158.5 -38.5t98.5 -104.5l-9 -7q-30 65 -95.5 102.5t-150.5 37.5q-77 0 -124.5 -36.5t-47.5 -97.5
q0 -60 38.5 -86.5t119.5 -48.5l104 -28q94 -25 144 -70t50 -124q0 -100 -78 -159.5t-189 -59.5q-102 0 -179 43t-110 119l10 6q32 -74 106.5 -115.5t168.5 -41.5q89 0 139.5 41t50.5 106z" />
    <glyph glyph-name="scircumflex" unicode="&#x15d;" horiz-adv-x="465" 
d="M303 546l-107 138l-110 -138h-13l164 207h2l160 -207h-96zM229 490q-55 0 -90 -24.5t-35 -62.5q0 -35 22 -53.5t70 -30.5l95 -25q72 -20 108 -50.5t36 -87.5q0 -74 -57.5 -120t-148.5 -46q-77 0 -136.5 37t-75.5 100l10 4q15 -62 73 -96.5t129 -34.5q57 0 94.5 26.5
t37.5 73.5q0 36 -25.5 55.5t-72.5 31.5l-98 25q-129 33 -129 131q0 69 55 113t138 44q66 0 113 -28t66 -82l-9 -4q-38 104 -170 104z" />
    <glyph glyph-name="uni015E" unicode="&#x15e;" horiz-adv-x="601" 
d="M295 -225q-77 0 -110 58l8 7q25 -48 79 -48q29 0 45.5 18t16.5 49q0 70 -92 70l27 62q-90 8 -157.5 50t-97.5 111l10 6q32 -74 106.5 -115.5t168.5 -41.5q89 0 139.5 41t50.5 106q0 59 -39 90.5t-113 50.5l-105 28q-96 25 -146.5 69t-50.5 121q0 88 71 145.5t178 57.5
q91 0 158.5 -38.5t98.5 -104.5l-9 -7q-30 65 -95.5 102.5t-150.5 37.5q-77 0 -124.5 -36.5t-47.5 -97.5q0 -60 38.5 -86.5t119.5 -48.5l104 -28q94 -25 144 -70t50 -124q0 -100 -78 -159.5t-189 -59.5q-17 0 -25 1l-23 -54q60 0 102 -20.5t42 -61.5q0 -36 -30.5 -58
t-73.5 -22z" />
    <glyph glyph-name="uni015F" unicode="&#x15f;" horiz-adv-x="465" 
d="M225 -226q-77 0 -110 58l8 7q25 -48 79 -48q29 0 45.5 18t16.5 49q0 70 -92 70l27 64q-67 7 -117 43t-65 92l10 4q15 -62 73 -96.5t129 -34.5q57 0 94.5 26.5t37.5 73.5q0 36 -25.5 55.5t-72.5 31.5l-98 25q-129 33 -129 131q0 69 55 113t138 44q66 0 113 -28t66 -82
l-9 -4q-38 104 -170 104q-55 0 -90 -24.5t-35 -62.5q0 -35 22 -53.5t70 -30.5l95 -25q72 -20 108 -50.5t36 -87.5q0 -74 -57.5 -120t-148.5 -46q-9 0 -20 1l-24 -55q60 0 102 -20.5t42 -61.5q0 -36 -30.5 -58t-73.5 -22z" />
    <glyph glyph-name="Scaron" unicode="&#x160;" horiz-adv-x="601" 
d="M303 737h-2l-160 195h97l106 -131l111 131h12zM489 148q0 59 -39 90.5t-113 50.5l-105 28q-96 25 -146.5 69t-50.5 121q0 88 71 145.5t178 57.5q91 0 158.5 -38.5t98.5 -104.5l-9 -7q-30 65 -95.5 102.5t-150.5 37.5q-77 0 -124.5 -36.5t-47.5 -97.5q0 -60 38.5 -86.5
t119.5 -48.5l104 -28q94 -25 144 -70t50 -124q0 -100 -78 -159.5t-189 -59.5q-102 0 -179 43t-110 119l10 6q32 -74 106.5 -115.5t168.5 -41.5q89 0 139.5 41t50.5 106z" />
    <glyph glyph-name="scaron" unicode="&#x161;" horiz-adv-x="465" 
d="M235 546h-2l-160 207h97l106 -139l111 139h12zM229 490q-55 0 -90 -24.5t-35 -62.5q0 -35 22 -53.5t70 -30.5l95 -25q72 -20 108 -50.5t36 -87.5q0 -74 -57.5 -120t-148.5 -46q-77 0 -136.5 37t-75.5 100l10 4q15 -62 73 -96.5t129 -34.5q57 0 94.5 26.5t37.5 73.5
q0 36 -25.5 55.5t-72.5 31.5l-98 25q-129 33 -129 131q0 69 55 113t138 44q66 0 113 -28t66 -82l-9 -4q-38 104 -170 104z" />
    <glyph glyph-name="Tcommaaccent" unicode="&#x162;" horiz-adv-x="697" 
d="M340 -225q-77 0 -110 58l8 7q26 -48 79 -48q29 0 45.5 18t16.5 49q0 70 -92 70l30 71h-29v689h-268v11h657v-11h-268v-689h-82l-27 -63q60 0 102 -20.5t42 -61.5q0 -36 -30.5 -58t-73.5 -22z" />
    <glyph glyph-name="tcommaaccent" unicode="&#x163;" horiz-adv-x="393" 
d="M204 -225q-77 0 -110 58l8 7q26 -48 79 -48q29 0 45.5 18t16.5 49q0 70 -92 70l28 66q-49 12 -76.5 48.5t-26.5 95.5v341h-73v10h73v119l115 44v-163h172l-5 -10h-167v-385q0 -86 65 -86q51 0 81 40.5t32 113.5l11 -1q-3 -79 -40.5 -125.5t-114.5 -46.5q-19 0 -37 3
l-24 -56q60 0 102 -20.5t42 -61.5q0 -36 -30.5 -58t-73.5 -22z" />
    <glyph glyph-name="Tcaron" unicode="&#x164;" horiz-adv-x="697" 
d="M348 737h-2l-160 195h97l106 -131l111 131h12zM288 0v689h-268v11h657v-11h-268v-689h-121z" />
    <glyph glyph-name="tcaron" unicode="&#x165;" horiz-adv-x="393" 
d="M373 757l-121 -217h-4l22 217h103zM3 480v10h73v119l115 44v-163h172l-5 -10h-167v-385q0 -86 65 -86q51 0 81 40.5t32 113.5l11 -1q-3 -79 -40.5 -125.5t-114.5 -46.5q-69 0 -109.5 38.5t-39.5 110.5v341h-73z" />
    <glyph glyph-name="Tbar" unicode="&#x166;" horiz-adv-x="697" 
d="M532 356h-123v-356h-121v356h-124v11h124v322h-268v11h657v-11h-268v-322h123v-11z" />
    <glyph glyph-name="tbar" unicode="&#x167;" horiz-adv-x="414" 
d="M393 162q-3 -79 -40.5 -125.5t-114.5 -46.5q-69 0 -109.5 38.5t-39.5 110.5v177h-72v10h72v154h-73v10h73v119l115 44v-163h172l-5 -10h-167v-154h157v-10h-157v-221q0 -86 65 -86q51 0 81 40.5t32 113.5z" />
    <glyph glyph-name="Utilde" unicode="&#x168;" horiz-adv-x="715" 
d="M452 761q-31 0 -92 42t-88 42q-57 0 -67 -87h-7q5 68 34 111t75 43q34 0 94 -42.5t87 -42.5q56 0 66 88h7q-5 -68 -34 -111t-75 -43zM638 700h11v-426q0 -135 -77.5 -209.5t-203.5 -74.5q-141 0 -221 75.5t-80 207.5v427h122v-416q0 -262 219 -262q101 0 165.5 67
t64.5 189v422z" />
    <glyph glyph-name="utilde" unicode="&#x169;" horiz-adv-x="570" 
d="M351 578q-30 0 -87.5 42t-83.5 42q-27 0 -42 -20.5t-20 -66.5h-7q5 68 32 110t71 42q31 0 88 -42t83 -42q52 0 61 87h8q-5 -68 -32 -110t-71 -42zM388 176v314h116v-490h-112l-4 120q-17 -61 -60.5 -95.5t-107.5 -34.5q-75 0 -117.5 47.5t-42.5 123.5v329h117v-365
q0 -111 86 -111q49 0 86.5 47t38.5 115z" />
    <glyph glyph-name="Umacron" unicode="&#x16a;" horiz-adv-x="715" 
d="M523 786h-288v10h288v-10zM638 700h11v-426q0 -135 -77.5 -209.5t-203.5 -74.5q-141 0 -221 75.5t-80 207.5v427h122v-416q0 -262 219 -262q101 0 165.5 67t64.5 189v422z" />
    <glyph glyph-name="umacron" unicode="&#x16b;" horiz-adv-x="570" 
d="M426 632h-288v10h288v-10zM388 176v314h116v-490h-112l-4 120q-17 -61 -60.5 -95.5t-107.5 -34.5q-75 0 -117.5 47.5t-42.5 123.5v329h117v-365q0 -111 86 -111q49 0 86.5 47t38.5 115z" />
    <glyph glyph-name="Ubreve" unicode="&#x16c;" horiz-adv-x="715" 
d="M528 928q0 -81 -41 -131.5t-108 -50.5t-108 50.5t-41 131.5h7q4 -56 37.5 -82.5t104.5 -26.5t104.5 26.5t37.5 82.5h7zM638 700h11v-426q0 -135 -77.5 -209.5t-203.5 -74.5q-141 0 -221 75.5t-80 207.5v427h122v-416q0 -262 219 -262q101 0 165.5 67t64.5 189v422z" />
    <glyph glyph-name="ubreve" unicode="&#x16d;" horiz-adv-x="570" 
d="M431 752q0 -86 -41 -138.5t-108 -52.5t-108 52.5t-41 138.5h6q4 -62 37.5 -90t105.5 -28t105.5 28t37.5 90h6zM388 176v314h116v-490h-112l-4 120q-17 -61 -60.5 -95.5t-107.5 -34.5q-75 0 -117.5 47.5t-42.5 123.5v329h117v-365q0 -111 86 -111q49 0 86.5 47t38.5 115z
" />
    <glyph glyph-name="Uring" unicode="&#x16e;" horiz-adv-x="715" 
d="M380 914q37 0 63.5 -27t26.5 -64t-26.5 -63.5t-63.5 -26.5t-64 26.5t-27 63.5t27 64t64 27zM380 904q-33 0 -57 -24t-24 -57t24 -56.5t57 -23.5t56.5 23.5t23.5 56.5t-23.5 57t-56.5 24zM638 700h11v-426q0 -135 -77.5 -209.5t-203.5 -74.5q-141 0 -221 75.5t-80 207.5
v427h122v-416q0 -262 219 -262q101 0 165.5 67t64.5 189v422z" />
    <glyph glyph-name="uring" unicode="&#x16f;" horiz-adv-x="570" 
d="M192 656q0 37 27 64t64 27t63.5 -27t26.5 -64t-26.5 -63.5t-63.5 -26.5t-64 26.5t-27 63.5zM363 656q0 33 -23.5 57t-56.5 24t-57 -24t-24 -57t24 -56.5t57 -23.5t56.5 23.5t23.5 56.5zM388 176v314h116v-490h-112l-4 120q-17 -61 -60.5 -95.5t-107.5 -34.5
q-75 0 -117.5 47.5t-42.5 123.5v329h117v-365q0 -111 86 -111q49 0 86.5 47t38.5 115z" />
    <glyph glyph-name="Uhungarumlaut" unicode="&#x170;" horiz-adv-x="715" 
d="M502 924h106l-161 -179h-4zM339 924h106l-161 -179h-4zM638 700h11v-426q0 -135 -77.5 -209.5t-203.5 -74.5q-141 0 -221 75.5t-80 207.5v427h122v-416q0 -262 219 -262q101 0 165.5 67t64.5 189v422z" />
    <glyph glyph-name="uhungarumlaut" unicode="&#x171;" horiz-adv-x="570" 
d="M405 749h103l-161 -196h-4zM242 749h103l-161 -196h-4zM388 176v314h116v-490h-112l-4 120q-17 -61 -60.5 -95.5t-107.5 -34.5q-75 0 -117.5 47.5t-42.5 123.5v329h117v-365q0 -111 86 -111q49 0 86.5 47t38.5 115z" />
    <glyph glyph-name="Uogonek" unicode="&#x172;" horiz-adv-x="715" 
d="M430 -225q-42 0 -71.5 23.5t-29.5 60.5q0 67 130 143q-41 -12 -91 -12q-141 0 -221 75.5t-80 207.5v427h122v-416q0 -262 219 -262q101 0 165.5 67t64.5 189v422h11v-426q0 -98 -42 -165t-116 -97q-52 -33 -76 -65.5t-24 -74.5q0 -35 20 -56.5t49 -21.5q61 0 94 78l8 -4
q-39 -93 -132 -93z" />
    <glyph glyph-name="uogonek" unicode="&#x173;" horiz-adv-x="570" 
d="M476 -132q-39 -93 -132 -93q-42 0 -71.5 23.5t-29.5 60.5q0 22 10 40.5t36.5 38.5t43.5 31t59 35l-4 116q-17 -61 -60.5 -95.5t-107.5 -34.5q-75 0 -117.5 47.5t-42.5 123.5v329h117v-365q0 -111 86 -111q49 0 86.5 47t38.5 115v314h116v-490h-105q-51 -33 -72 -60.5
t-21 -67.5q0 -35 19.5 -56.5t48.5 -21.5q61 0 94 78z" />
    <glyph glyph-name="Wcircumflex" unicode="&#x174;" horiz-adv-x="966" 
d="M561 741l-107 130l-110 -130h-13l164 194h2l160 -194h-96zM361 141l-8 -19l-50 -132h-4l-286 710h128l213 -542l127 333l-83 209h123l213 -549l207 549h12l-268 -710h-4l-193 485l-127 -333v-1z" />
    <glyph glyph-name="wcircumflex" unicode="&#x175;" horiz-adv-x="713" 
d="M434 546l-107 138l-110 -138h-13l164 207h2l160 -207h-96zM502 -6l-140 333l-136 -333h-4l-217 496h120l148 -356l84 205l-63 151h120l138 -357l145 357h11l-202 -496h-4z" />
    <glyph glyph-name="Ycircumflex" unicode="&#x176;" horiz-adv-x="654" 
d="M407 741l-107 130l-110 -130h-13l164 194h2l160 -194h-96zM385 310l245 390h11l-252 -406v-294h-123v290l-253 410h137z" />
    <glyph glyph-name="ycircumflex" unicode="&#x177;" horiz-adv-x="482" 
d="M328 546l-107 138l-110 -138h-13l164 207h2l160 -207h-96zM69 -225q-42 0 -68 26.5t-26 70.5q0 30 17 56l10 -4q-17 -26 -17 -52q0 -39 23 -63t61 -24q46 0 77.5 38t72.5 126l23 51l-236 490h123l168 -369l168 369h12l-247 -541q-41 -91 -76 -132.5t-85 -41.5z" />
    <glyph glyph-name="Ydieresis" unicode="&#x178;" horiz-adv-x="654" 
d="M374 754v129h97v-129h-97zM210 754v129h96v-129h-96zM385 310l245 390h11l-252 -406v-294h-123v290l-253 410h137z" />
    <glyph glyph-name="Zacute" unicode="&#x179;" horiz-adv-x="654" 
d="M390 924h113l-169 -179h-4zM618 11v-11h-588v4l447 685h-418v11h554v-4l-443 -685h448z" />
    <glyph glyph-name="zacute" unicode="&#x17a;" horiz-adv-x="493" 
d="M302 749h111l-169 -196h-4zM25 4l304 476h-287v10h416v-4l-301 -476h309v-10h-441v4z" />
    <glyph glyph-name="Zdotaccent" unicode="&#x17b;" horiz-adv-x="654" 
d="M291 754v129h123v-129h-123zM618 11v-11h-588v4l447 685h-418v11h554v-4l-443 -685h448z" />
    <glyph glyph-name="zdotaccent" unicode="&#x17c;" horiz-adv-x="493" 
d="M202 589v127h119v-127h-119zM25 4l304 476h-287v10h416v-4l-301 -476h309v-10h-441v4z" />
    <glyph glyph-name="Zcaron" unicode="&#x17d;" horiz-adv-x="654" 
d="M351 737h-2l-160 195h97l106 -131l111 131h12zM618 11v-11h-588v4l447 685h-418v11h554v-4l-443 -685h448z" />
    <glyph glyph-name="zcaron" unicode="&#x17e;" horiz-adv-x="493" 
d="M260 546h-2l-160 207h97l106 -139l111 139h12zM25 4l304 476h-287v10h416v-4l-301 -476h309v-10h-441v4z" />
    <glyph glyph-name="uni0192" unicode="&#x192;" horiz-adv-x="547" 
d="M41 -187q-55 0 -87 28t-32 70q0 45 38 73l7 -7q-35 -23 -35 -66q0 -34 23.5 -57.5t61.5 -23.5q55 0 83.5 48.5t43.5 168.5l40 322h-97l2 11h97l10 84q14 119 69.5 182.5t146.5 63.5q56 0 86.5 -27.5t30.5 -70.5q0 -47 -39 -73l-6 7q35 24 35 66q0 34 -22.5 57t-61.5 23
q-54 0 -80.5 -47t-42.5 -169l-12 -96h129l-2 -11h-128l-35 -285q-33 -271 -223 -271z" />
    <glyph glyph-name="AEacute" unicode="&#x1fc;" horiz-adv-x="1051" 
d="M771 924h113l-169 -179h-4zM507 313v378l-263 -378h263zM507 0v302h-271l-210 -302h-13l487 700h495v-11h-366v-322h268v-11h-268v-345h382v-11h-504z" />
    <glyph glyph-name="aeacute" unicode="&#x1fd;" horiz-adv-x="839" 
d="M467 749h111l-169 -196h-4zM808 152q-19 -77 -75.5 -119.5t-142.5 -42.5q-80 0 -145.5 44t-86.5 121q-9 -70 -58.5 -117.5t-126.5 -47.5q-64 0 -104.5 34t-40.5 90q0 111 190 141l131 23v82q0 61 -31.5 94t-93.5 33q-65 0 -107 -33.5t-42 -86.5q0 -45 35 -71l-6 -7
q-39 27 -39 78q0 59 48.5 96t137.5 37q59 0 101 -25t59 -65q65 90 174 90q105 0 165.5 -67t60.5 -167h-346v-28q0 -232 157 -232q63 0 111.5 38.5t64.5 109.5zM585 491q-112 0 -120 -215h230q0 106 -24.5 160.5t-85.5 54.5zM349 268l-97 -16q-58 -10 -84.5 -38.5
t-26.5 -81.5q0 -51 23 -79t62 -28q51 0 87 44.5t36 117.5v81z" />
    <glyph glyph-name="Oslashacute" unicode="&#x1fe;" horiz-adv-x="773" 
d="M425 924h113l-169 -179h-4zM165 350q0 -142 38 -229l361 468q-54 111 -178 111q-109 0 -165 -88.5t-56 -261.5zM386 0q222 0 222 350q0 144 -39 229l-360 -469q54 -110 177 -110zM386 -10q-120 0 -216 71l-62 -81l-8 7l62 80q-134 108 -134 283q0 155 105.5 257.5
t252.5 102.5q121 0 216 -71l63 81l8 -7l-62 -81q62 -50 97.5 -122.5t35.5 -159.5q0 -155 -105 -257.5t-253 -102.5z" />
    <glyph glyph-name="oslashacute" unicode="&#x1ff;" horiz-adv-x="564" 
d="M324 749h111l-169 -196h-4zM151 244q0 -91 16 -145l227 303q-31 89 -112 89q-65 0 -98 -58t-33 -189zM282 -1q65 0 98 57.5t33 187.5q0 93 -16 147l-226 -303q30 -89 111 -89zM282 -10q-83 0 -149 47l-42 -56l-8 6l42 56q-97 76 -97 201q0 108 74 182t180 74
q83 0 149 -47l42 55l8 -5l-42 -56q46 -35 72 -88t26 -115q0 -107 -74.5 -180.5t-180.5 -73.5z" />
    <glyph glyph-name="uni0218" unicode="&#x218;" horiz-adv-x="601" 
d="M489 148q0 59 -39 90.5t-113 50.5l-105 28q-96 25 -146.5 69t-50.5 121q0 88 71 145.5t178 57.5q91 0 158.5 -38.5t98.5 -104.5l-9 -7q-30 65 -95.5 102.5t-150.5 37.5q-77 0 -124.5 -36.5t-47.5 -97.5q0 -60 38.5 -86.5t119.5 -48.5l104 -28q94 -25 144 -70t50 -124
q0 -100 -78 -159.5t-189 -59.5q-102 0 -179 43t-110 119l10 6q32 -74 106.5 -115.5t168.5 -41.5q89 0 139.5 41t50.5 106zM231 -166v114h125v-115q0 -51 -34.5 -81t-104.5 -22v10q67 -8 98 18.5t31 75.5h-115z" />
    <glyph glyph-name="uni0219" unicode="&#x219;" horiz-adv-x="465" 
d="M229 490q-55 0 -90 -24.5t-35 -62.5q0 -35 22 -53.5t70 -30.5l95 -25q72 -20 108 -50.5t36 -87.5q0 -74 -57.5 -120t-148.5 -46q-77 0 -136.5 37t-75.5 100l10 4q15 -62 73 -96.5t129 -34.5q57 0 94.5 26.5t37.5 73.5q0 36 -25.5 55.5t-72.5 31.5l-98 25
q-129 33 -129 131q0 69 55 113t138 44q66 0 113 -28t66 -82l-9 -4q-38 104 -170 104zM173 -166v114h125v-115q0 -51 -34.5 -81t-104.5 -22v10q67 -8 98 18.5t31 75.5h-115z" />
    <glyph glyph-name="uni021A" unicode="&#x21a;" horiz-adv-x="697" 
d="M288 0v689h-268v11h657v-11h-268v-689h-121zM286 -166v114h125v-115q0 -51 -34.5 -81t-104.5 -22v10q67 -8 98 18.5t31 75.5h-115z" />
    <glyph glyph-name="uni021B" unicode="&#x21b;" horiz-adv-x="393" 
d="M3 480v10h73v119l115 44v-163h172l-5 -10h-167v-385q0 -86 65 -86q51 0 81 40.5t32 113.5l11 -1q-3 -79 -40.5 -125.5t-114.5 -46.5q-69 0 -109.5 38.5t-39.5 110.5v341h-73zM163 -166v114h125v-115q0 -51 -34.5 -81t-104.5 -22v10q67 -8 98 18.5t31 75.5h-115z" />
    <glyph glyph-name="uni0237" unicode="&#x237;" 
d="M182 -30q0 -89 -47.5 -142t-132.5 -53q-52 0 -85 26.5t-33 72.5q0 35 26 57l9 -4q-25 -23 -25 -53q0 -40 25 -61t61 -21q48 0 67 35t19 110v553h116v-520z" />
    <glyph glyph-name="uni02BB" unicode="&#x2bb;" horiz-adv-x="500" 
d="M312 687v-114h-125v114q0 52 34.5 82t104.5 22v-10q-67 8 -98 -19t-31 -75h115z" />
    <glyph glyph-name="circumflex" unicode="&#x2c6;" horiz-adv-x="500" 
d="M317 546l-107 138l-110 -138h-13l164 207h2l160 -207h-96z" />
    <glyph glyph-name="caron" unicode="&#x2c7;" horiz-adv-x="500" 
d="M249 546h-2l-160 207h97l106 -139l111 139h12z" />
    <glyph glyph-name="breve" unicode="&#x2d8;" horiz-adv-x="500" 
d="M399 752q0 -86 -41 -138.5t-108 -52.5t-108 52.5t-41 138.5h6q4 -62 37.5 -90t105.5 -28t105.5 28t37.5 90h6z" />
    <glyph glyph-name="dotaccent" unicode="&#x2d9;" horiz-adv-x="499" 
d="M190 589v127h119v-127h-119z" />
    <glyph glyph-name="ring" unicode="&#x2da;" horiz-adv-x="499" 
d="M159 656q0 37 27 64t64 27t63.5 -27t26.5 -64t-26.5 -63.5t-63.5 -26.5t-64 26.5t-27 63.5zM330 656q0 33 -23.5 57t-56.5 24t-57 -24t-24 -57t24 -56.5t57 -23.5t56.5 23.5t23.5 56.5z" />
    <glyph glyph-name="ogonek" unicode="&#x2db;" horiz-adv-x="500" 
d="M135 -141q0 28 23.5 55.5t46.5 42.5t76 45q8 5 12 7l3 -6q-54 -35 -76 -62.5t-22 -68.5q0 -35 19.5 -56.5t48.5 -21.5q61 0 94 78l8 -4q-39 -93 -132 -93q-42 0 -71.5 23.5t-29.5 60.5z" />
    <glyph glyph-name="tilde" unicode="&#x2dc;" horiz-adv-x="500" 
d="M319 578q-30 0 -87.5 42t-83.5 42q-27 0 -42 -20.5t-20 -66.5h-7q5 68 32 110t71 42q31 0 88 -42t83 -42q52 0 61 87h8q-5 -68 -32 -110t-71 -42z" />
    <glyph glyph-name="hungarumlaut" unicode="&#x2dd;" horiz-adv-x="500" 
d="M313 749h103l-161 -196h-4zM150 749h103l-161 -196h-4z" />
    <glyph glyph-name="Wgrave" unicode="&#x1e80;" horiz-adv-x="966" 
d="M501 745l-169 179h113l60 -179h-4zM361 141l-8 -19l-50 -132h-4l-286 710h128l213 -542l127 333l-83 209h123l213 -549l207 549h12l-268 -710h-4l-193 485l-127 -333v-1z" />
    <glyph glyph-name="wgrave" unicode="&#x1e81;" horiz-adv-x="713" 
d="M375 553l-169 196h111l62 -196h-4zM502 -6l-140 333l-136 -333h-4l-217 496h120l148 -356l84 205l-63 151h120l138 -357l145 357h11l-202 -496h-4z" />
    <glyph glyph-name="Wacute" unicode="&#x1e82;" horiz-adv-x="966" 
d="M532 924h113l-169 -179h-4zM361 141l-8 -19l-50 -132h-4l-286 710h128l213 -542l127 333l-83 209h123l213 -549l207 549h12l-268 -710h-4l-193 485l-127 -333v-1z" />
    <glyph glyph-name="wacute" unicode="&#x1e83;" horiz-adv-x="713" 
d="M409 749h111l-169 -196h-4zM502 -6l-140 333l-136 -333h-4l-217 496h120l148 -356l84 205l-63 151h120l138 -357l145 357h11l-202 -496h-4z" />
    <glyph glyph-name="Wdieresis" unicode="&#x1e84;" horiz-adv-x="966" 
d="M528 754v129h97v-129h-97zM364 754v129h96v-129h-96zM361 141l-8 -19l-50 -132h-4l-286 710h128l213 -542l127 333l-83 209h123l213 -549l207 549h12l-268 -710h-4l-193 485l-127 -333v-1z" />
    <glyph glyph-name="wdieresis" unicode="&#x1e85;" horiz-adv-x="713" 
d="M401 589v127h96v-127h-96zM237 589v127h96v-127h-96zM502 -6l-140 333l-136 -333h-4l-217 496h120l148 -356l84 205l-63 151h120l138 -357l145 357h11l-202 -496h-4z" />
    <glyph glyph-name="Ygrave" unicode="&#x1ef2;" horiz-adv-x="654" 
d="M347 745l-169 179h113l60 -179h-4zM385 310l245 390h11l-252 -406v-294h-123v290l-253 410h137z" />
    <glyph glyph-name="ygrave" unicode="&#x1ef3;" horiz-adv-x="482" 
d="M269 553l-169 196h111l62 -196h-4zM69 -225q-42 0 -68 26.5t-26 70.5q0 30 17 56l10 -4q-17 -26 -17 -52q0 -39 23 -63t61 -24q46 0 77.5 38t72.5 126l23 51l-236 490h123l168 -369l168 369h12l-247 -541q-41 -91 -76 -132.5t-85 -41.5z" />
    <glyph glyph-name="uni2009" unicode="&#x2009;" horiz-adv-x="40" 
 />
    <glyph glyph-name="endash" unicode="&#x2013;" horiz-adv-x="532" 
d="M56 272v10h420v-10h-420z" />
    <glyph glyph-name="emdash" unicode="&#x2014;" horiz-adv-x="832" 
d="M56 273v10h720v-10h-720z" />
    <glyph glyph-name="quoteleft" unicode="&#x2018;" horiz-adv-x="235" 
d="M183 562v-134h-131v142q0 68 40 104t107 36v-10q-63 0 -100 -33.5t-37 -96.5v-8h121z" />
    <glyph glyph-name="quoteright" unicode="&#x2019;" horiz-adv-x="235" 
d="M52 566v134h131v-142q0 -68 -40 -104t-107 -36v10q63 0 100 33.5t37 96.5v8h-121z" />
    <glyph glyph-name="quotesinglbase" unicode="&#x201a;" horiz-adv-x="235" 
d="M52 1v134h131v-142q0 -68 -40 -104t-107 -36v10q63 0 100 33.5t37 96.5v8h-121z" />
    <glyph glyph-name="quotedblleft" unicode="&#x201c;" horiz-adv-x="427" 
d="M375 562v-134h-131v142q0 68 40 104t107 36v-10q-63 0 -100 -33.5t-37 -96.5v-8h121zM183 562v-134h-131v142q0 68 40 104t107 36v-10q-63 0 -100 -33.5t-37 -96.5v-8h121z" />
    <glyph glyph-name="quotedblright" unicode="&#x201d;" horiz-adv-x="428" 
d="M245 566v134h131v-142q0 -68 -40 -104t-107 -36v10q63 0 100 33.5t37 96.5v8h-121zM52 566v134h131v-142q0 -68 -40 -104t-107 -36v10q63 0 100 33.5t37 96.5v8h-121z" />
    <glyph glyph-name="quotedblbase" unicode="&#x201e;" horiz-adv-x="428" 
d="M245 1v134h131v-142q0 -68 -40 -104t-107 -36v10q63 0 100 33.5t37 96.5v8h-121zM52 1v134h131v-142q0 -68 -40 -104t-107 -36v10q63 0 100 33.5t37 96.5v8h-121z" />
    <glyph glyph-name="dagger" unicode="&#x2020;" horiz-adv-x="350" 
d="M170 355v261h-110v10h110v123h10v-123h110v-10h-110v-261h-10z" />
    <glyph glyph-name="daggerdbl" unicode="&#x2021;" horiz-adv-x="350" 
d="M170 355v123h-110v10h110v128h-110v10h110v123h10v-123h110v-10h-110v-128h110v-10h-110v-123h-10z" />
    <glyph glyph-name="bullet" unicode="&#x2022;" horiz-adv-x="402" 
d="M56 278q0 59 43 102.5t102 43.5q60 0 102.5 -43t42.5 -103q0 -59 -42.5 -102t-102.5 -43q-59 0 -102 43t-43 102z" />
    <glyph glyph-name="ellipsis" unicode="&#x2026;" horiz-adv-x="656" 
d="M57 0v134h130v-134h-130zM263 0v134h130v-134h-130zM469 0v134h130v-134h-130z" />
    <glyph glyph-name="perthousand" unicode="&#x2030;" horiz-adv-x="998" 
d="M159 0h-11l359 678q-19 -22 -55 -36.5t-76 -14.5q-48 0 -84 23q31 -42 31 -93q0 -62 -41.5 -107t-98.5 -45t-99 45.5t-42 106.5q0 62 42 107.5t99 45.5q31 0 54.5 -11.5t37 -25t40 -25t61.5 -11.5q96 0 152 77l6 -4zM253 557q0 143 -70 143t-70 -143q0 -142 70 -142
t70 142zM675 147q0 62 42 107.5t99 45.5t98.5 -45.5t41.5 -107.5t-41.5 -107t-98.5 -45t-99 45.5t-42 106.5zM360 147q0 62 41.5 107.5t98.5 45.5t99 -45.5t42 -107.5q0 -61 -42 -106.5t-99 -45.5t-98.5 45t-41.5 107zM886 147q0 143 -70 143t-70 -143q0 -142 70 -142
t70 142zM570 147q0 143 -70 143t-70 -143q0 -142 70 -142t70 142z" />
    <glyph glyph-name="guilsinglleft" unicode="&#x2039;" horiz-adv-x="320" 
d="M40 243v2l236 207h4l-136 -208l136 -208h-4z" />
    <glyph glyph-name="guilsinglright" unicode="&#x203a;" horiz-adv-x="320" 
d="M280 245v-2l-236 -207h-4l136 208l-136 208h4z" />
    <glyph glyph-name="fraction" unicode="&#x2044;" horiz-adv-x="343" 
d="M10 -123l294 872h9l-294 -872h-9z" />
    <glyph glyph-name="Euro" unicode="&#x20ac;" horiz-adv-x="635" 
d="M386 -10q-114 0 -196.5 85.5t-96.5 222.5h-71v10h70q-2 28 -2 42q0 17 2 49h-70v10h72q16 134 98 217.5t194 83.5q85 0 143 -52t77 -142l-10 -3q-16 81 -66.5 130.5t-113.5 49.5q-82 0 -131 -73t-58 -211h229l-3 -10h-227q-1 -16 -1 -49q0 -29 1 -42h199l-3 -10h-196
q8 -140 57.5 -215.5t132.5 -75.5q63 0 113.5 49.5t66.5 130.5l10 -3q-19 -90 -77 -142t-143 -52z" />
    <glyph glyph-name="uni2117" unicode="&#x2117;" horiz-adv-x="810" 
d="M405 710q151 0 255.5 -102.5t104.5 -257.5t-104.5 -257.5t-255.5 -102.5t-255.5 102.5t-104.5 257.5t104.5 257.5t255.5 102.5zM405 0q147 0 248.5 99.5t101.5 250.5t-101.5 250.5t-248.5 99.5t-248.5 -99.5t-101.5 -250.5t101.5 -250.5t248.5 -99.5zM443 313h-94v-164
h-80v408h174q74 0 119 -31t45 -91q0 -59 -45.5 -90.5t-118.5 -31.5zM349 323h60q114 0 114 112t-114 112h-60v-224z" />
    <glyph glyph-name="trademark" unicode="&#x2122;" horiz-adv-x="725" 
d="M140 427v263h-103v10h271v-10h-102v-263h-66zM505 514l71 186h73v-273h-67v262l-102 -263h-8l-110 263v-262h-10v273h77z" />
    <glyph glyph-name="uni2153" unicode="&#x2153;" horiz-adv-x="397" 
d="M225 414h-65v248q-23 -39 -63 -65l-4 7q52 35 85 102h47v-292zM32 358h333v-10h-333v10zM189 -6q-44 0 -71 20t-27 53q0 36 35 49l4 -5q-30 -12 -30 -44q0 -27 22 -44.5t53 -17.5q33 0 51 21t18 56q0 67 -66 67h-10v8h10q58 0 58 63q0 60 -59 60q-25 0 -44.5 -14.5
t-19.5 -39.5q0 -28 24 -39l-3 -7q-30 13 -30 46q0 29 26 47.5t65 18.5q44 0 72.5 -19t28.5 -52q0 -29 -27.5 -48t-63.5 -19v-1q40 -2 72 -21.5t32 -53.5q0 -40 -34.5 -62t-85.5 -22z" />
    <glyph glyph-name="uni2154" unicode="&#x2154;" horiz-adv-x="397" 
d="M133 466h167v-52h-218v5l82 85q66 68 66 125q0 66 -59 66q-28 0 -47.5 -19t-19.5 -48q0 -17 10 -30.5t25 -17.5l-4 -7q-16 4 -27.5 19.5t-11.5 35.5q0 36 26 58t71 22q44 0 73.5 -21.5t29.5 -60.5q0 -22 -10 -41.5t-36.5 -41t-48.5 -36t-68 -41.5zM32 358h333v-10h-333
v10zM189 -6q-44 0 -71 20t-27 53q0 36 35 49l4 -5q-30 -12 -30 -44q0 -27 22 -44.5t53 -17.5q33 0 51 21t18 56q0 67 -66 67h-10v8h10q58 0 58 63q0 60 -59 60q-25 0 -44.5 -14.5t-19.5 -39.5q0 -28 24 -39l-3 -7q-30 13 -30 46q0 29 26 47.5t65 18.5q44 0 72.5 -19
t28.5 -52q0 -29 -27.5 -48t-63.5 -19v-1q40 -2 72 -21.5t32 -53.5q0 -40 -34.5 -62t-85.5 -22z" />
    <glyph glyph-name="uni215B" unicode="&#x215b;" horiz-adv-x="397" 
d="M230 414h-65v248q-23 -39 -63 -65l-4 7q52 35 85 102h47v-292zM32 358h333v-10h-333v10zM249 165q67 -26 67 -80q0 -41 -33 -66.5t-79 -25.5q-47 0 -78.5 20.5t-31.5 55.5q0 25 17.5 42t43.5 24q-50 27 -50 72q0 37 28.5 61t69.5 24q38 0 64 -18t26 -48q0 -42 -44 -61z
M148 235q0 -30 46 -48l48 -19q41 20 41 58q0 27 -22.5 42.5t-54.5 15.5q-26 0 -42 -13t-16 -36zM215 111l-52 21q-59 -19 -59 -63q0 -32 28 -49.5t68 -17.5q34 0 52 14.5t18 39.5q0 20 -14 32.5t-41 22.5z" />
    <glyph glyph-name="uni215C" unicode="&#x215c;" horiz-adv-x="397" 
d="M189 410q-44 0 -71 20t-27 53q0 36 35 49l4 -5q-30 -12 -30 -44q0 -27 22 -44.5t53 -17.5q33 0 51 21t18 56q0 67 -66 67h-10v8h10q58 0 58 63q0 60 -59 60q-25 0 -44.5 -14.5t-19.5 -39.5q0 -28 24 -39l-3 -7q-30 13 -30 46q0 29 26 47.5t65 18.5q44 0 72.5 -19
t28.5 -52q0 -29 -27.5 -48t-63.5 -19v-1q40 -2 72 -21.5t32 -53.5q0 -40 -34.5 -62t-85.5 -22zM32 358h333v-10h-333v10zM249 165q67 -26 67 -80q0 -41 -33 -66.5t-79 -25.5q-47 0 -78.5 20.5t-31.5 55.5q0 25 17.5 42t43.5 24q-50 27 -50 72q0 37 28.5 61t69.5 24
q38 0 64 -18t26 -48q0 -42 -44 -61zM148 235q0 -30 46 -48l48 -19q41 20 41 58q0 27 -22.5 42.5t-54.5 15.5q-26 0 -42 -13t-16 -36zM215 111l-52 21q-59 -19 -59 -63q0 -32 28 -49.5t68 -17.5q34 0 52 14.5t18 39.5q0 20 -14 32.5t-41 22.5z" />
    <glyph glyph-name="uni215D" unicode="&#x215d;" horiz-adv-x="397" 
d="M298 700l-7 -52h-145l-11 -87q20 34 77 34q43 0 70.5 -23.5t27.5 -62.5q0 -47 -34.5 -75t-87.5 -28q-40 0 -65.5 19t-25.5 50t26 45l4 -7q-21 -12 -21 -38t20.5 -42t46.5 -16q71 0 71 89q0 34 -14 55t-42 21q-36 0 -57 -36h-6l19 154h154zM32 358h333v-10h-333v10z
M249 165q67 -26 67 -80q0 -41 -33 -66.5t-79 -25.5q-47 0 -78.5 20.5t-31.5 55.5q0 25 17.5 42t43.5 24q-50 27 -50 72q0 37 28.5 61t69.5 24q38 0 64 -18t26 -48q0 -42 -44 -61zM148 235q0 -30 46 -48l48 -19q41 20 41 58q0 27 -22.5 42.5t-54.5 15.5q-26 0 -42 -13
t-16 -36zM215 111l-52 21q-59 -19 -59 -63q0 -32 28 -49.5t68 -17.5q34 0 52 14.5t18 39.5q0 20 -14 32.5t-41 22.5z" />
    <glyph glyph-name="uni215E" unicode="&#x215e;" horiz-adv-x="397" 
d="M104 700h208v-5l-43 -70q-55 -94 -42 -215h-63q2 37 17 75.5t28.5 61t43.5 67.5q7 10 10 15l10 15h-169v56zM32 358h333v-10h-333v10zM249 165q67 -26 67 -80q0 -41 -33 -66.5t-79 -25.5q-47 0 -78.5 20.5t-31.5 55.5q0 25 17.5 42t43.5 24q-50 27 -50 72q0 37 28.5 61
t69.5 24q38 0 64 -18t26 -48q0 -42 -44 -61zM148 235q0 -30 46 -48l48 -19q41 20 41 58q0 27 -22.5 42.5t-54.5 15.5q-26 0 -42 -13t-16 -36zM215 111l-52 21q-59 -19 -59 -63q0 -32 28 -49.5t68 -17.5q34 0 52 14.5t18 39.5q0 20 -14 32.5t-41 22.5z" />
    <glyph glyph-name="minus" unicode="&#x2212;" horiz-adv-x="479" 
d="M44 315v10h391v-10h-391z" />
    <glyph glyph-name="approxequal" unicode="&#x2248;" horiz-adv-x="480" 
d="M44 347v12q52 52 105 52q35 0 91 -28t88 -28q55 0 108 54v-11q-52 -53 -108 -53q-34 0 -90.5 28t-88.5 28q-51 0 -105 -54zM44 220v12q52 52 105 52q35 0 91 -28t88 -28q55 0 108 54v-11q-52 -53 -108 -53q-34 0 -90.5 28t-88.5 28q-51 0 -105 -54z" />
    <glyph glyph-name="notequal" unicode="&#x2260;" horiz-adv-x="479" 
d="M435 237h-252l-88 -102h-13l88 102h-126v10h135l115 133h-250v10h259l86 99h13l-86 -99h119v-10h-128l-115 -133h243v-10z" />
    <glyph glyph-name="lessequal" unicode="&#x2264;" horiz-adv-x="373" 
d="M44 335v10l284 135v-10l-274 -130l274 -130v-10zM44 124v10h285v-10h-285z" />
    <glyph glyph-name="greaterequal" unicode="&#x2265;" horiz-adv-x="373" 
d="M329 335l-284 -135v10l274 130l-274 130v10l284 -135v-10zM329 124h-285v10h285v-10z" />
    <glyph glyph-name="uni00200326" horiz-adv-x="500" 
d="M187 -166v114h125v-115q0 -51 -34.5 -81t-104.5 -22v10q67 -8 98 18.5t31 75.5h-115z" />
    <glyph glyph-name="uni00200323" horiz-adv-x="499" 
d="M188 -198v129h123v-129h-123z" />
    <glyph glyph-name="i.dot" 
d="M65 589v127h119v-127h-119zM182 490v-490h-116v490h116z" />
    <glyph glyph-name="f_f.short" horiz-adv-x="626" 
d="M195 490h192v65q0 78 41 135q-39 41 -98 41q-66 0 -100.5 -49.5t-34.5 -133.5v-58zM195 480v-480h-116v480h-74v10h74v33q0 96 63 160t166 64q81 0 127 -49q50 61 130 61q54 0 84.5 -26.5t30.5 -68.5q0 -27 -15 -47l-8 6q13 17 13 41q0 37 -22.5 58t-58.5 21
q-86 0 -86 -140v-113h138l-5 -10h-133v-480h-116v480h-192z" />
    <glyph glyph-name="f.short" horiz-adv-x="318" 
d="M79 555q0 88 50 146t128 58q54 0 84.5 -26.5t30.5 -68.5q0 -28 -16 -47l-7 6q13 19 13 41q0 37 -22.5 58t-58.5 21q-86 0 -86 -140v-113h138l-5 -10h-133v-480h-116v480h-74v10h74v65z" />
    <glyph glyph-name="caron.Slovak" horiz-adv-x="500" 
d="M326 749l-121 -217h-4l22 217h103z" />
    <glyph glyph-name="hyphen.cap" horiz-adv-x="361" 
d="M56 329v13h249v-13h-249z" />
    <glyph glyph-name="endash.cap" horiz-adv-x="532" 
d="M56 328v10h420v-10h-420z" />
    <glyph glyph-name="emdash.cap" horiz-adv-x="832" 
d="M56 329v10h720v-10h-720z" />
    <glyph glyph-name="parenleft.cap" horiz-adv-x="352" 
d="M173 324q0 -137 14.5 -214.5t43.5 -121t89 -85.5l-5 -7q-115 65 -187 177.5t-72 249.5t72.5 249.5t186.5 176.5l5 -7q-60 -41 -89 -84.5t-43.5 -120.5t-14.5 -213z" />
    <glyph glyph-name="parenright.cap" horiz-adv-x="352" 
d="M183 324q0 136 -14.5 213t-43.5 120.5t-89 84.5l4 7q114 -64 186.5 -176.5t72.5 -249.5t-72 -249.5t-187 -177.5l-4 7q60 42 89 85.5t43.5 121t14.5 214.5z" />
    <glyph glyph-name="bracketleft.cap" horiz-adv-x="333" 
d="M77 -104v853h229v-7l-120 -4v-831l120 -4v-7h-229z" />
    <glyph glyph-name="bracketright.cap" horiz-adv-x="333" 
d="M256 749v-853h-229v7l120 4v831l-120 4v7h229z" />
    <glyph glyph-name="braceleft.cap" horiz-adv-x="393" 
d="M28 319v7q118 0 118 124q0 24 -13.5 77t-13.5 77q0 62 52.5 103.5t128.5 41.5q39 0 73 -14l-1 -10q-32 12 -55 12q-45 0 -71 -27t-26 -75q0 -25 13 -87.5t13 -83.5q0 -47 -32.5 -80.5t-70 -46t-75.5 -15.5q27 -2 55.5 -10t57 -23.5t47 -43.5t18.5 -64q0 -22 -13 -84
t-13 -88q0 -48 26 -74.5t71 -26.5q23 0 55 12l1 -10q-34 -14 -73 -14q-76 0 -128.5 41.5t-52.5 103.5q0 24 13.5 76.5t13.5 77.5q0 124 -118 124z" />
    <glyph glyph-name="braceright.cap" horiz-adv-x="393" 
d="M365 319q-118 0 -118 -124q0 -25 13 -77.5t13 -76.5q0 -62 -52.5 -103.5t-127.5 -41.5q-39 0 -73 14l1 10q30 -12 55 -12q45 0 71 26.5t26 74.5q0 26 -13 88t-13 84q0 36 18 64t47 43.5t57.5 23.5t55.5 10q-39 3 -76 15.5t-69.5 46t-32.5 80.5q0 21 13 83.5t13 87.5
q0 48 -26 75t-71 27q-25 0 -55 -12l-1 10q34 14 73 14q75 0 127.5 -41.5t52.5 -103.5q0 -24 -13 -76.5t-13 -77.5q0 -124 118 -124v-7z" />
    <glyph glyph-name="guilsinglleft.cap" horiz-adv-x="320" 
d="M40 333v2l236 207h4l-136 -208l136 -208h-4z" />
    <glyph glyph-name="guilsinglright.cap" horiz-adv-x="320" 
d="M280 335v-2l-236 -207h-4l136 208l-136 208h4z" />
    <glyph glyph-name="guillemotleft.cap" horiz-adv-x="487" 
d="M40 333v2l236 207h4l-136 -208l136 -208h-4zM207 333v2l237 207h4l-136 -208l136 -208h-4z" />
    <glyph glyph-name="guillemotright.cap" horiz-adv-x="487" 
d="M280 335v-2l-236 -207h-4l136 208l-136 208h4zM448 335v-2l-237 -207h-4l136 208l-136 208h4z" />
    <glyph glyph-name="slash.cap" horiz-adv-x="351" 
d="M20 -103l300 852h11l-300 -852h-11z" />
    <glyph glyph-name="backslash.cap" horiz-adv-x="351" 
d="M331 -103h-11l-300 852h11z" />
    <glyph glyph-name="bar.cap" horiz-adv-x="214" 
d="M102 -103v852h10v-852h-10z" />
    <glyph glyph-name="at.cap" horiz-adv-x="941" 
d="M680 136q28 0 61 16.5t65.5 48.5t53.5 87.5t21 123.5q0 158 -111.5 251t-278.5 93q-179 0 -305 -123t-126 -312q0 -180 120 -292.5t306 -112.5q167 0 284 88l6 -8q-118 -90 -290 -90q-190 0 -313 116t-123 299q0 128 60.5 230.5t161 158.5t219.5 56q170 0 285 -95.5
t115 -258.5q0 -72 -23 -130t-59.5 -92.5t-76.5 -52.5t-77 -18q-55 0 -90 31t-33 85q-23 -49 -64 -81t-91 -32q-62 0 -99 43t-37 110q0 112 66.5 197t163.5 85q50 0 79.5 -31.5t31.5 -81.5l33 104h97l-79 -317q-11 -44 2 -69.5t45 -25.5zM540 272l26 106q8 32 8 57
q0 42 -20 66.5t-54 24.5q-65 0 -109.5 -86t-45.5 -191q0 -98 67 -98q40 0 75.5 35.5t52.5 85.5z" />
    <glyph glyph-name="exclamdown.cap" 
d="M59 566v134h130v-134h-130zM122 483h4l74 -483h-152z" />
    <glyph glyph-name="questiondown.cap" horiz-adv-x="519" 
d="M337 701v-134h-130v134h130zM128 152q0 -69 43 -108t117 -39q86 0 139.5 51t53.5 125q0 44 -22 76.5t-55 43.5l4 8q35 -10 59 -45t24 -83q0 -82 -62 -136t-164 -54t-169.5 52t-67.5 140q0 99 72.5 158.5t171.5 67.5v76h10v-172q-65 -8 -109.5 -52.5t-44.5 -108.5z" />
    <glyph glyph-name="periodcentered.cap" horiz-adv-x="243" 
d="M56 268v134h130v-134h-130z" />
    <glyph glyph-name="bullet.cap" horiz-adv-x="402" 
d="M56 334q0 59 43 102.5t102 43.5q60 0 102.5 -43t42.5 -103q0 -59 -42.5 -102t-102.5 -43q-59 0 -102 43t-43 102z" />
    <glyph glyph-name="zero.op" horiz-adv-x="626" 
d="M27 313q0 133 82.5 228t203.5 95t203.5 -95t82.5 -228q0 -132 -82.5 -227.5t-203.5 -95.5t-203.5 95.5t-82.5 227.5zM161 313q0 -152 34 -232.5t118 -80.5t118 80.5t34 232.5t-34 232.5t-118 80.5t-118 -80.5t-34 -232.5z" />
    <glyph glyph-name="one.op" horiz-adv-x="361" 
d="M282 0h-122v539q-53 -87 -137 -141l-5 9q111 76 184 226h80v-633z" />
    <glyph glyph-name="two.op" horiz-adv-x="519" 
d="M107 101h385v-101h-493v7l169 155q98 88 145.5 155t47.5 139q0 75 -37.5 119t-111.5 44q-75 0 -123.5 -48.5t-48.5 -120.5q0 -42 21 -73t53 -41l-4 -9q-33 11 -56.5 44.5t-23.5 78.5q0 81 59 133.5t158 52.5q100 0 166 -49t66 -135q0 -35 -17 -69.5t-39.5 -60.5
t-70.5 -61.5t-83 -58t-104 -65.5q-38 -24 -58 -36z" />
    <glyph glyph-name="three.op" horiz-adv-x="537" 
d="M247 -10q-102 0 -163.5 46t-61.5 115q0 43 26 71t65 39l4 -8q-37 -10 -61 -36.5t-24 -65.5q0 -62 53.5 -104.5t137.5 -42.5q83 0 126.5 48t43.5 128q0 151 -173 151h-21v10h21q150 0 150 143q0 69 -39 102.5t-104 33.5q-66 0 -114.5 -35t-48.5 -95q0 -72 72 -91l-3 -10
q-79 24 -79 101q0 66 57.5 106t146.5 40q96 0 160.5 -40.5t64.5 -111.5q0 -63 -63.5 -104t-141.5 -43v-2q55 -2 106 -19t89 -55.5t38 -90.5q0 -82 -76 -131t-188 -49z" />
    <glyph glyph-name="four.op" horiz-adv-x="604" 
d="M585 196v-11h-142v-185h-122v185h-313v7l329 433h106v-429h142zM321 196v389l-296 -389h296z" />
    <glyph glyph-name="five.op" horiz-adv-x="531" 
d="M476 626l-14 -102h-336l-25 -194q25 39 73.5 62t107.5 23q97 0 160.5 -55.5t63.5 -141.5q0 -99 -78.5 -163.5t-196.5 -64.5q-89 0 -147.5 43t-58.5 111q0 39 21 66.5t55 40.5l5 -7q-71 -29 -71 -100q0 -63 51.5 -101t120.5 -38q87 0 132 56.5t45 155.5q0 80 -36 129.5
t-105 49.5q-93 0 -144 -84h-9l40 314h346z" />
    <glyph glyph-name="six.op" horiz-adv-x="572" 
d="M549 224q0 -103 -73 -168.5t-177 -65.5q-117 0 -194.5 97.5t-77.5 240.5q0 155 89 268.5t232 113.5q87 0 136 -40t49 -105q0 -37 -17.5 -61t-41.5 -33l-4 8q53 21 53 86q0 59 -44.5 96t-114.5 37q-77 0 -126.5 -54.5t-69.5 -145t-15 -211.5q13 68 65 108.5t117 40.5
q89 0 151.5 -59.5t62.5 -152.5zM155 203q0 -90 38.5 -146.5t105.5 -56.5q68 0 99.5 55t31.5 149q0 203 -131 203q-61 0 -102.5 -53.5t-41.5 -150.5z" />
    <glyph glyph-name="seven.op" horiz-adv-x="508" 
d="M24 626h479v-3l-82 -139q-144 -257 -122 -558h-115q1 51 12 103.5t22.5 89.5t40 95t43.5 85t56 97.5t55 95.5l21 32h-410v102z" />
    <glyph glyph-name="eight.op" horiz-adv-x="542" 
d="M355 353q86 -31 124 -71t38 -101q0 -84 -71.5 -137.5t-174.5 -53.5q-104 0 -175 44.5t-71 121.5q0 54 41.5 92t107.5 57q-124 57 -124 157q0 76 62 125t153 49q86 0 143 -39.5t57 -104.5q0 -96 -110 -139zM132 511q0 -21 8.5 -38.5t26 -30.5t33 -21.5t41.5 -19.5l103 -44
q53 22 82 53.5t29 81.5q0 61 -53 97.5t-132 36.5q-60 0 -99 -31t-39 -84zM302 250l-116 50q-151 -43 -151 -144q0 -73 68 -114.5t161 -41.5q81 0 125 35t44 93q0 43 -32 69t-99 53z" />
    <glyph glyph-name="nine.op" horiz-adv-x="572" 
d="M416 422q0 90 -38.5 146.5t-104.5 56.5q-68 0 -100 -55t-32 -149q0 -202 131 -202q61 0 102.5 53t41.5 150zM23 402q0 103 72.5 168t177.5 65q117 0 194.5 -98.5t77.5 -249.5q0 -98 -35 -181t-108 -137t-171 -54q-86 0 -136 41.5t-50 106.5q0 37 17.5 61t40.5 33l5 -8
q-53 -23 -53 -86q0 -59 45 -97.5t115 -38.5q216 0 204 412q-14 -68 -65.5 -108.5t-116.5 -40.5q-89 0 -151.5 59t-62.5 153z" />
    <glyph glyph-name="percent.op" horiz-adv-x="683" 
d="M159 0h-11l357 604q-19 -22 -54 -36t-75 -14q-48 0 -84 22q31 -40 31 -92q0 -62 -41.5 -107t-98.5 -45t-99 45.5t-42 106.5q0 62 42 107.5t99 45.5q31 0 54.5 -11.5t37 -25t40 -25t61.5 -11.5q96 0 152 77l6 -4zM253 484q0 143 -70 143t-70 -143q0 -142 70 -142t70 142z
M360 147q0 62 41.5 107.5t98.5 45.5t99 -45.5t42 -107.5q0 -61 -42 -106.5t-99 -45.5t-98.5 45t-41.5 107zM570 147q0 143 -70 143t-70 -143q0 -142 70 -142t70 142z" />
    <glyph glyph-name="perthousand.op" horiz-adv-x="998" 
d="M159 0h-11l357 604q-19 -22 -54 -36t-75 -14q-48 0 -84 22q31 -40 31 -92q0 -62 -41.5 -107t-98.5 -45t-99 45.5t-42 106.5q0 62 42 107.5t99 45.5q31 0 54.5 -11.5t37 -25t40 -25t61.5 -11.5q96 0 152 77l6 -4zM253 484q0 143 -70 143t-70 -143q0 -142 70 -142t70 142z
M675 147q0 62 42 107.5t99 45.5t98.5 -45.5t41.5 -107.5t-41.5 -107t-98.5 -45t-99 45.5t-42 106.5zM360 147q0 62 41.5 107.5t98.5 45.5t99 -45.5t42 -107.5q0 -61 -42 -106.5t-99 -45.5t-98.5 45t-41.5 107zM886 147q0 143 -70 143t-70 -143q0 -142 70 -142t70 142z
M570 147q0 143 -70 143t-70 -143q0 -142 70 -142t70 142z" />
    <glyph glyph-name="dollar.op" horiz-adv-x="556" 
d="M253 392l63 -17v248q-23 3 -46 3q-12 0 -34 -2v-227q3 -1 8.5 -2.5t8.5 -2.5zM115 506q0 -45 27.5 -67.5t83.5 -39.5v223q-50 -10 -80.5 -41t-30.5 -75zM272 1q23 0 44 3v250l-2 1l-78 21v-273q24 -2 36 -2zM447 132q0 48 -31 75t-90 45v-246q57 11 89 45t32 81zM275 -10
q-13 0 -39 2v-98h-10v99q-82 11 -136.5 54.5t-64.5 107.5l11 2q9 -60 61 -101t129 -52v274l-10 3q-87 24 -132 63.5t-45 109.5q0 69 52.5 118.5t134.5 60.5v113h10v-112q20 2 32 2q26 0 48 -3v113h10v-115q66 -12 111 -49t58 -89l-10 -4q-13 50 -55.5 85t-103.5 47v-249
l23 -6q86 -24 131.5 -65t45.5 -113q0 -79 -56.5 -130t-143.5 -64v-100h-10v98q-26 -2 -41 -2z" />
    <glyph glyph-name="sterling.op" horiz-adv-x="644" 
d="M476 -10q-25 0 -48 5t-48.5 19t-38.5 21.5t-43 29.5t-37 27q-54 -102 -153 -102q-40 0 -64 23.5t-24 58.5q0 37 28 62t72 25q34 0 87 -17q3 24 3 54q0 36 -19 123h-98v10h96q-13 59 -13 100q0 90 60 149t158 59q82 0 125 -35t43 -90q0 -76 -66 -101l-4 9q60 21 60 92
q0 46 -33 77t-91 31t-90 -45.5t-32 -130.5v-115h137v-10h-137q0 -121 -33 -200q120 -44 201 -44q122 0 122 75q0 45 -48 73l5 6q26 -13 42 -40t16 -60q0 -58 -36 -98.5t-99 -40.5zM102 1q85 0 104 126q-46 22 -86 22t-65 -21t-25 -56q0 -30 20 -50.5t52 -20.5z" />
    <glyph glyph-name="yen.op" horiz-adv-x="612" 
d="M549 207h-181v-207h-123v207h-181v10h181v53l-28 46h-153v10h147l-181 300h137l197 -336l207 336h11l-182 -300h149v-10h-155l-26 -42v-57h181v-10z" />
    <glyph glyph-name="Euro.op" horiz-adv-x="635" 
d="M380 -10q-114 0 -194 77t-94 201h-70v10h69q-1 11 -1 35q0 32 4 56h-72v10h73q19 115 98 186t187 71q82 0 139.5 -47t75.5 -127l-10 -3q-17 73 -65.5 116.5t-110.5 43.5q-78 0 -125.5 -62t-57.5 -178h210l-3 -10h-208q-2 -36 -2 -56q0 -24 1 -35h181l-3 -10h-178
q7 -126 55.5 -193.5t129.5 -67.5q62 0 110.5 43.5t65.5 116.5l10 -3q-18 -80 -75.5 -127t-139.5 -47z" />
    <glyph glyph-name="uni0192.op" horiz-adv-x="545" 
d="M41 -187q-55 0 -87 28t-32 70q0 45 38 73l7 -7q-35 -23 -35 -66q0 -34 23.5 -57.5t61.5 -23.5q55 0 83.5 48.5t43.5 168.5l33 261h-95l2 11h94l9 71q14 119 69.5 182.5t146.5 63.5q56 0 86.5 -27.5t30.5 -70.5q0 -47 -39 -73l-6 7q35 24 35 66q0 34 -22.5 57t-61.5 23
q-54 0 -80.5 -47t-42.5 -169l-10 -83h131l-2 -11h-131l-27 -224q-33 -271 -223 -271z" />
    </font>
</defs>
</svg>
