<?xml version="1.0" standalone="no"?>
<!DOCTYPE svg PUBLIC "-//W3C//DTD SVG 1.1//EN" "http://www.w3.org/Graphics/SVG/1.1/DTD/svg11.dtd" >
<svg xmlns="http://www.w3.org/2000/svg" xmlns:xlink="http://www.w3.org/1999/xlink" version="1.1">
<metadata>
Created by FontForge 20170731 at Thu Oct 16 16:02:16 2014
 By Aleksey,,,
(c) 2014 Klim Type Foundry. All Rights Reserved. wf-rip
</metadata>
<defs>
<font id="DomaineSansDisplay-Light" horiz-adv-x="500" >
  <font-face 
    font-family="Domaine Sans Display Light"
    font-weight="350"
    font-stretch="normal"
    units-per-em="1000"
    panose-1="2 11 4 3 8 7 2 4 2 4"
    ascent="800"
    descent="-200"
    x-height="484"
    cap-height="700"
    bbox="-111 -246.144 1149 957"
    underline-thickness="10"
    underline-position="-122"
    unicode-range="U+000D-FB02"
  />
<missing-glyph horiz-adv-x="1152" 
d="M644 232l-32 19l-17 29l6 59l24 34l74 55l19 -4l48 -58l21 -65l-38 -41zM595 63l-24 3l-4 9l5 44l-2 37l-11 3l-5 -48l-30 -40l-20 -8l-43 7l-13 19v16l42 74l34 36l16 33v7l16 11l8 -9l1 -18l18 -31l15 -3l14 -31l8 -5l20 -41l-9 -50l-15 -3zM451 405l60 -60l-3 -39
l-8 -12l-17 4l-4 -19l5 -14l-8 -11l-31 -26l-34 1l-27 -12l-46 21l-19 19l-9 29l8 37l-1 6l4 37l20 22l26 43l8 3zM510 -81l-38 -19l-38 15l-2 14l12 28l-6 8l-16 2l-29 -23l-43 21v36l-35 32l-60 105l-33 86l-22 98l5 168l9 67l31 67l51 66l98 59l49 15l5 4l106 6l72 -3
l5 -6l-1 -20l-56 -78l-10 -22l-13 -71l14 -11v-7l-7 -7l-24 -13l-59 19l-32 37l1 9l-8 4l-45 -27l-62 -20l-61 -90l-14 -136l18 -72l43 -91l36 -85l57 -56l36 -17l24 4l102 -17l97 32l45 38l24 27l63 105l68 97l-19 56l10 84l-23 69l7 20l-86 48l-76 21l-83 -16l-3 4l11 81
l14 10l28 91l48 3l99 -30l76 -43l59 -91l8 -27l8 -45l-9 -46l-20 -61l3 -51l32 -40l1 -37l-94 -133l-33 -103l-9 -7l-24 -62l7 -10l-35 -24l-9 3l-30 24l-1 30l-5 2l-19 -23v-11l20 -26l-35 -35l-16 -3l-22 21l6 16l-17 17l-24 -4l-21 -65l-35 -3l-15 23l3 30l-33 -4z" />
    <glyph glyph-name="fi" unicode="fi" horiz-adv-x="533" 
d="M157 0h-67v474h-81v10h81v56q0 94 54.5 156.5t148.5 62.5q63 0 100 -31.5t37 -83.5q0 -44 -27 -68l-7 6q24 26 24 62q0 47 -32.5 75t-87.5 28q-73 0 -108 -52.5t-35 -142.5v-68h299v-484h-67v474h-232v-474z" />
    <glyph glyph-name="fl" unicode="fl" horiz-adv-x="533" 
d="M389 0v658q-8 40 -37.5 64.5t-72.5 24.5q-63 0 -92.5 -52t-29.5 -133v-78h151l-5 -10h-146v-474h-67v474h-81v10h81v60q0 93 49 154t132 61q86 0 118 -69l11 59h56v-749h-67z" />
    <glyph glyph-name="f_b" unicode="fb" horiz-adv-x="882" 
d="M849 244q0 -112 -62.5 -183t-152.5 -71q-65 0 -113 39t-65 99l-8 -128h-59v658q-8 40 -37.5 64.5t-72.5 24.5q-63 0 -92.5 -52t-29.5 -133v-78h151l-5 -10h-146v-474h-67v474h-81v10h81v60q0 93 49 154t132 61q86 0 118 -69l11 59h56v-394q16 59 64.5 99t114.5 40
q89 0 151.5 -69.5t62.5 -180.5zM455 292v-97q1 -83 49.5 -136.5t117.5 -53.5q73 0 114.5 68t41.5 172t-41 169.5t-114 65.5q-67 0 -117 -53t-51 -135z" />
    <glyph glyph-name="f_f_b" unicode="ffb" horiz-adv-x="1181" 
d="M933 -10q-65 0 -112.5 39t-65.5 99l-8 -128h-59v658q-8 40 -37.5 64.5t-72.5 24.5q-63 0 -92.5 -52t-29.5 -133v-78h152l-5 -10h-147v-474h-67v474h-232v-474h-67v474h-81v10h81v47q0 92 57 155t151 63q42 0 77 -17.5t54 -46.5q51 74 142 74q85 0 117 -69l11 59h56v-394
q16 59 64.5 99t114.5 40q89 0 152 -70t63 -180q0 -112 -62.5 -183t-153.5 -71zM157 484h232v60q0 73 33 131q-37 62 -119 62q-71 0 -108.5 -53.5t-37.5 -141.5v-58zM754 292v-97q1 -84 49.5 -137t118.5 -53q73 0 114 68t41 172t-41 169.5t-114 65.5q-67 0 -117 -53t-51 -135
z" />
    <glyph glyph-name="f_f_h" unicode="ffh" horiz-adv-x="1162" 
d="M157 484h232v60q0 73 33 131q-37 62 -119 62q-71 0 -108.5 -53.5t-37.5 -141.5v-58zM157 474v-474h-67v474h-81v10h81v47q0 92 57 155t151 63q42 0 77 -17.5t54 -46.5q51 74 142 74q85 0 117 -69l11 59h56v-390q17 62 64.5 98.5t112.5 36.5q75 0 117.5 -45t42.5 -123
v-326h-66v343q0 135 -116 135q-62 0 -108 -50.5t-47 -127.5v-300h-67v658q-8 40 -37.5 64.5t-72.5 24.5q-63 0 -92.5 -52t-29.5 -133v-78h152l-5 -10h-147v-474h-67v474h-232z" />
    <glyph glyph-name="f_f_idieresis" unicode="ff&#xef;" horiz-adv-x="832" 
d="M157 484h232v86q0 64 29 110q-39 57 -115 57q-71 0 -108.5 -53.5t-37.5 -141.5v-58zM763 604v96h58v-96h-58zM157 474v-474h-67v474h-81v10h81v47q0 92 57 155t151 63q82 0 127 -59q48 69 138 69q51 0 80.5 -26t29.5 -70q0 -34 -23 -54l-7 5q20 23 20 49q0 41 -26 63
t-69 22q-112 0 -112 -165v-99h299v-484h-67v474h-232v-474h-67v474h-232z" />
    <glyph glyph-name="f_f_j" unicode="ffj" horiz-adv-x="832" 
d="M157 484h232v56q0 75 35 131q-37 66 -121 66q-71 0 -108.5 -53.5t-37.5 -141.5v-58zM602 -225q-44 0 -73 23.5t-29 67.5q0 26 16 44l9 -3q-15 -21 -15 -41q0 -40 25 -59.5t62 -19.5q53 0 72 40.5t19 126.5v520h-232v-474h-67v474h-232v-474h-67v474h-81v10h81v47
q0 92 57 155t151 63q43 0 78.5 -19t54.5 -49q55 78 161 78q63 0 100.5 -31.5t37.5 -83.5q0 -43 -28 -68l-7 6q25 27 25 62q0 47 -32.5 75t-88.5 28q-73 0 -108 -52.5t-35 -142.5v-68h299v-527q0 -84 -39 -133t-114 -49z" />
    <glyph glyph-name="f_f_k" unicode="ffk" horiz-adv-x="1129" 
d="M157 484h232v60q0 73 33 131q-37 62 -119 62q-71 0 -108.5 -53.5t-37.5 -141.5v-58zM157 474v-474h-67v474h-81v10h81v47q0 92 57 155t151 63q42 0 77 -17.5t54 -46.5q51 74 142 74q85 0 117 -69l11 59h56v-564l331 299h13l-215 -194l228 -290h-79l-196 247l-82 -73v-174
h-67v658q-8 40 -37.5 64.5t-72.5 24.5q-63 0 -92.5 -52t-29.5 -133v-78h152l-5 -10h-147v-474h-67v474h-232z" />
    <glyph glyph-name="f_h" unicode="fh" horiz-adv-x="863" 
d="M157 474v-474h-67v474h-81v10h81v60q0 93 49 154t132 61q86 0 118 -69l11 59h56v-390q17 62 64.5 98.5t111.5 36.5q76 0 118.5 -45t42.5 -123v-326h-67v343q0 135 -115 135q-62 0 -108 -50.5t-47 -127.5v-300h-67v658q-8 40 -37.5 64.5t-72.5 24.5q-63 0 -92.5 -52
t-29.5 -133v-78h151l-5 -10h-146z" />
    <glyph glyph-name="f_idieresis" unicode="f&#xef;" horiz-adv-x="533" 
d="M464 604v96h58v-96h-58zM90 484v86q0 82 48.5 135.5t125.5 53.5q51 0 80.5 -26t29.5 -70q0 -34 -23 -54l-7 5q20 23 20 49q0 41 -26 63t-69 22q-112 0 -112 -165v-99h299v-484h-67v474h-232v-474h-67v474h-81v10h81z" />
    <glyph glyph-name="f_j" unicode="fj" horiz-adv-x="533" 
d="M303 -225q-44 0 -73 23.5t-29 67.5q0 28 16 44l9 -3q-15 -21 -15 -41q0 -40 25 -59.5t61 -19.5q53 0 72.5 40.5t19.5 126.5v520h-232v-474h-67v474h-81v10h81v56q0 94 54.5 156.5t148.5 62.5q63 0 100 -31.5t37 -83.5q0 -44 -27 -68l-7 6q24 26 24 62q0 47 -32.5 75
t-87.5 28q-73 0 -108 -52.5t-35 -142.5v-68h299v-527q0 -84 -39 -133t-114 -49z" />
    <glyph glyph-name="f_k" unicode="fk" horiz-adv-x="830" 
d="M157 474v-474h-67v474h-81v10h81v60q0 93 49 154t132 61q86 0 118 -69l11 59h56v-564l331 299h13l-215 -194l228 -290h-80l-195 247l-82 -73v-174h-67v658q-8 40 -37.5 64.5t-72.5 24.5q-63 0 -92.5 -52t-29.5 -133v-78h151l-5 -10h-146z" />
    <glyph glyph-name="f_f" unicode="ff" horiz-adv-x="588" 
d="M157 484h232v86q0 64 29 110q-39 57 -115 57q-71 0 -108.5 -53.5t-37.5 -141.5v-58zM157 474v-474h-67v474h-81v10h81v47q0 92 57 155t151 63q82 0 127 -59q48 69 138 69q51 0 81 -26t30 -70q0 -34 -23 -54l-7 5q20 23 20 49q0 41 -26.5 63t-69.5 22q-112 0 -112 -165
v-99h147l-5 -10h-142v-474h-67v474h-232z" />
    <glyph glyph-name="f_f_i" unicode="ffi" horiz-adv-x="832" 
d="M157 484h232v56q0 75 35 131q-37 66 -121 66q-71 0 -108.5 -53.5t-37.5 -141.5v-58zM157 474v-474h-67v474h-81v10h81v47q0 92 57 155t151 63q43 0 78.5 -19t54.5 -49q55 78 161 78q63 0 100.5 -31.5t37.5 -83.5q0 -43 -28 -68l-7 6q25 27 25 62q0 47 -32.5 75t-88.5 28
q-73 0 -108 -52.5t-35 -142.5v-68h299v-484h-67v474h-232v-474h-67v474h-232z" />
    <glyph glyph-name="f_f_l" unicode="ffl" horiz-adv-x="832" 
d="M157 484h232v60q0 73 33 131q-37 62 -119 62q-71 0 -108.5 -53.5t-37.5 -141.5v-58zM157 474v-474h-67v474h-81v10h81v47q0 92 57 155t151 63q42 0 77 -17.5t54 -46.5q51 74 142 74q85 0 117 -69l11 59h56v-749h-67v658q-8 40 -37.5 64.5t-72.5 24.5q-63 0 -92.5 -52
t-29.5 -133v-78h152l-5 -10h-147v-474h-67v474h-232z" />
    <glyph glyph-name=".notdef" horiz-adv-x="1152" 
d="M644 232l-32 19l-17 29l6 59l24 34l74 55l19 -4l48 -58l21 -65l-38 -41zM595 63l-24 3l-4 9l5 44l-2 37l-11 3l-5 -48l-30 -40l-20 -8l-43 7l-13 19v16l42 74l34 36l16 33v7l16 11l8 -9l1 -18l18 -31l15 -3l14 -31l8 -5l20 -41l-9 -50l-15 -3zM451 405l60 -60l-3 -39
l-8 -12l-17 4l-4 -19l5 -14l-8 -11l-31 -26l-34 1l-27 -12l-46 21l-19 19l-9 29l8 37l-1 6l4 37l20 22l26 43l8 3zM510 -81l-38 -19l-38 15l-2 14l12 28l-6 8l-16 2l-29 -23l-43 21v36l-35 32l-60 105l-33 86l-22 98l5 168l9 67l31 67l51 66l98 59l49 15l5 4l106 6l72 -3
l5 -6l-1 -20l-56 -78l-10 -22l-13 -71l14 -11v-7l-7 -7l-24 -13l-59 19l-32 37l1 9l-8 4l-45 -27l-62 -20l-61 -90l-14 -136l18 -72l43 -91l36 -85l57 -56l36 -17l24 4l102 -17l97 32l45 38l24 27l63 105l68 97l-19 56l10 84l-23 69l7 20l-86 48l-76 21l-83 -16l-3 4l11 81
l14 10l28 91l48 3l99 -30l76 -43l59 -91l8 -27l8 -45l-9 -46l-20 -61l3 -51l32 -40l1 -37l-94 -133l-33 -103l-9 -7l-24 -62l7 -10l-35 -24l-9 3l-30 24l-1 30l-5 2l-19 -23v-11l20 -26l-35 -35l-16 -3l-22 21l6 16l-17 17l-24 -4l-21 -65l-35 -3l-15 23l3 30l-33 -4z" />
    <glyph glyph-name=".null" horiz-adv-x="477" 
 />
    <glyph glyph-name="uni000D" unicode="&#xd;" horiz-adv-x="477" 
 />
    <glyph glyph-name="space" unicode=" " horiz-adv-x="232" 
 />
    <glyph glyph-name="exclam" unicode="!" horiz-adv-x="211" 
d="M108 201h-4l-44 499h91zM63 0v92h85v-92h-85z" />
    <glyph glyph-name="quotedbl" unicode="&#x22;" horiz-adv-x="332" 
d="M232 441h-4l-26 259h56zM104 441h-4l-26 259h56z" />
    <glyph glyph-name="numbersign" unicode="#" horiz-adv-x="660" 
d="M399 264l28 197h-173l-28 -197h173zM361 0l36 254h-173l-36 -254h-10l36 254h-164v10h166l28 197h-159v10h160l33 229h10l-33 -229h173l33 229h10l-33 -229h172v-10h-173l-28 -197h166v-10h-168l-36 -254h-10z" />
    <glyph glyph-name="dollar" unicode="$" horiz-adv-x="543" 
d="M241 407l72 -20v309q-21 4 -49 4q-11 0 -31 -2v-289q1 -1 3.5 -1t4.5 -1zM94 551q0 -60 32.5 -90t96.5 -49v284q-58 -11 -93.5 -49.5t-35.5 -95.5zM271 0q23 0 42 3v315l-80 21v-337q24 -2 38 -2zM461 163q0 64 -36.5 98.5t-101.5 53.5v-310q64 13 101 57t37 101z
M272 -10q-13 0 -39 2v-98h-10v99q-84 11 -137 58.5t-59 119.5l10 2q5 -69 55 -114t131 -56v339q-89 24 -133.5 64.5t-44.5 116.5q0 70 50.5 121t127.5 63v95h10v-94q20 2 31 2q28 0 49 -4v96h10v-98q63 -12 106 -49t58 -91l-11 -5q-14 53 -54 88.5t-99 46.5v-310l5 -1
q88 -24 135.5 -67.5t47.5 -117.5q0 -83 -54 -136.5t-134 -67.5v-100h-10v99q-21 -3 -41 -3z" />
    <glyph glyph-name="percent" unicode="%" horiz-adv-x="668" 
d="M152 0h-11l359 678q-19 -22 -55 -36.5t-76 -14.5q-47 0 -82 22q26 -40 26 -87q0 -58 -39 -102.5t-93 -44.5t-93.5 44.5t-39.5 102.5q0 59 39.5 103.5t93.5 44.5q29 0 51.5 -11.5t36 -25t39.5 -25t61 -11.5q96 0 152 77l6 -4zM263 562q0 59 -21 98.5t-61 39.5
q-41 0 -61.5 -39t-20.5 -99q0 -59 20.5 -98t61.5 -39q40 0 61 39.5t21 97.5zM355 143q0 58 39.5 102.5t93.5 44.5t93 -44.5t39 -102.5q0 -59 -39 -103.5t-93 -44.5t-93.5 44.5t-39.5 103.5zM569 143q0 59 -20.5 98t-60.5 39q-41 0 -61.5 -39t-20.5 -98q0 -60 20.5 -99
t61.5 -39q40 0 60.5 39.5t20.5 98.5z" />
    <glyph glyph-name="ampersand" unicode="&#x26;" horiz-adv-x="767" 
d="M623 -10q-41 0 -74.5 17.5t-69.5 62.5q-95 -80 -219 -80q-97 0 -163 54.5t-66 135.5q0 79 59 133.5t147 85.5l-21 29q-49 65 -49 128q0 66 46.5 110t113.5 44q61 0 97 -36.5t36 -93.5q0 -106 -149 -164l210 -288q47 58 73 131.5t25 144.5h10q1 -72 -25.5 -148t-76.5 -136
l9 -12q38 -52 65 -71t59 -19q36 0 64 31t32 89l10 -2q-4 -66 -44 -106t-99 -40zM275 465l30 -42q62 24 103.5 63.5t41.5 93.5q0 52 -32.5 85.5t-86.5 34.5q-46 1 -76.5 -30.5t-30.5 -81.5q0 -54 51 -123zM290 10q101 0 182 68q-6 9 -7 10l-222 303q-142 -52 -142 -188
q0 -85 54.5 -139t134.5 -54z" />
    <glyph glyph-name="quotesingle" unicode="'" horiz-adv-x="204" 
d="M104 441h-4l-26 259h56z" />
    <glyph glyph-name="parenleft" unicode="(" horiz-adv-x="319" 
d="M126 297q0 -104 8.5 -173.5t30.5 -119.5t48.5 -81.5t72.5 -71.5l-6 -6q-102 74 -161.5 193.5t-59.5 258.5t59.5 258.5t161.5 193.5l6 -6q-46 -40 -72.5 -71.5t-48.5 -81.5t-30.5 -119.5t-8.5 -173.5z" />
    <glyph glyph-name="parenright" unicode=")" horiz-adv-x="319" 
d="M33 -149q62 53 93 97.5t49 128t18 220.5t-18 220.5t-49 128t-93 97.5l6 6q102 -74 161.5 -193.5t59.5 -258.5t-59.5 -258.5t-161.5 -193.5z" />
    <glyph glyph-name="asterisk" unicode="*" horiz-adv-x="433" 
d="M222 415h-10v158l-137 -79l-5 9l137 79l-137 78l5 9l137 -79v158h10v-158l136 79l5 -9l-136 -78l136 -79l-5 -9l-136 79v-158z" />
    <glyph glyph-name="plus" unicode="+" horiz-adv-x="463" 
d="M419 315h-183v-182h-10v182h-182v10h182v182h10v-182h183v-10z" />
    <glyph glyph-name="comma" unicode="," horiz-adv-x="205" 
d="M60 0v92h85v-102q0 -133 -126 -133v10q116 0 116 123v10h-75z" />
    <glyph glyph-name="hyphen" unicode="-" horiz-adv-x="367" 
d="M59 270v13h249v-13h-249z" />
    <glyph glyph-name="period" unicode="." horiz-adv-x="205" 
d="M60 0v92h85v-92h-85z" />
    <glyph glyph-name="slash" unicode="/" horiz-adv-x="351" 
d="M20 -153l300 902h11l-300 -902h-11z" />
    <glyph glyph-name="zero" unicode="0" horiz-adv-x="596" 
d="M32 350q0 143 76 251.5t190 108.5t190.5 -108.5t76.5 -251.5q0 -92 -33.5 -174.5t-96 -134t-137.5 -51.5t-137 51.5t-95.5 134t-33.5 174.5zM108 350q0 -350 190 -350q69 0 113 49t61 124t17 177q0 75 -10 136t-31.5 110.5t-59.5 76.5t-90 27q-190 0 -190 -350z" />
    <glyph glyph-name="one" unicode="1" horiz-adv-x="329" 
d="M241 0h-69v619q-21 -33 -60 -73.5t-87 -65.5l-4 9q117 65 193 220h27v-709z" />
    <glyph glyph-name="two" unicode="2" horiz-adv-x="504" 
d="M75 59h404v-59h-469v7l208 202q92 88 132.5 160t40.5 158q0 81 -40.5 126t-120.5 45q-82 0 -134.5 -52t-52.5 -123q0 -41 17 -70.5t42 -43.5l-5 -8q-27 14 -45.5 46t-18.5 76q0 77 57.5 132t149.5 55q98 0 159.5 -50.5t61.5 -134.5q0 -46 -17.5 -87t-64.5 -94t-94 -96.5
t-141 -127.5q-45 -39 -69 -61z" />
    <glyph glyph-name="three" unicode="3" horiz-adv-x="528" 
d="M248 -10q-104 0 -163 50t-59 121q0 43 21.5 72.5t54.5 43.5l5 -8q-30 -11 -50.5 -40.5t-20.5 -67.5q0 -66 55 -113t151 -47q91 0 140 55t49 144q0 173 -208 173h-20v10h20q181 0 181 160q0 74 -40 114.5t-116 40.5q-77 0 -127.5 -40t-50.5 -106q0 -70 62 -95l-4 -9
q-68 29 -68 104q0 70 55.5 114t140.5 44q93 0 155 -45t62 -122q0 -68 -63.5 -114.5t-134.5 -49.5v-2q87 -3 156.5 -52.5t69.5 -132.5q0 -88 -72.5 -145t-180.5 -57z" />
    <glyph glyph-name="four" unicode="4" horiz-adv-x="582" 
d="M570 224v-11h-161v-213h-69v213h-330v7l339 480h60v-476h161zM340 224v445l-314 -445h314z" />
    <glyph glyph-name="five" unicode="5" horiz-adv-x="512" 
d="M462 700l-9 -62h-330l-35 -282q23 43 71 70.5t108 27.5q96 0 158 -58t62 -154q0 -105 -77 -178.5t-195 -73.5q-87 0 -143 47t-56 122q0 82 69 115l5 -7q-64 -34 -64 -108q0 -70 52 -114t130 -44q103 0 155.5 62.5t52.5 177.5q0 91 -41.5 145.5t-117.5 54.5
q-118 0 -173 -106h-8l44 365h342z" />
    <glyph glyph-name="six" unicode="6" horiz-adv-x="541" 
d="M515 214q0 -93 -66 -158.5t-163 -65.5q-111 0 -182.5 96t-71.5 239q0 98 34.5 184.5t104 143.5t160.5 57q79 0 126.5 -38.5t47.5 -100.5q0 -39 -20 -64t-45 -32l-3 8q58 22 58 88q0 58 -44.5 93.5t-115.5 35.5q-82 0 -138 -60t-78 -154t-15 -210q15 69 68.5 111.5
t123.5 42.5q92 0 155.5 -60.5t63.5 -155.5zM107 208q0 -87 50 -147.5t129 -60.5q81 0 120.5 58.5t39.5 150.5q0 98 -41 152t-119 54q-72 0 -125.5 -54t-53.5 -153z" />
    <glyph glyph-name="seven" unicode="7" horiz-adv-x="470" 
d="M18 700h448v-4l-46 -81q-85 -155 -127 -298.5t-39 -316.5h-66q0 99 31.5 204t63.5 171t107 203l21 39l13 21h-406v62z" />
    <glyph glyph-name="eight" unicode="8" horiz-adv-x="532" 
d="M327 377q94 -35 136 -78t42 -110q0 -81 -67 -140t-168 -59q-103 0 -173 51t-70 139q0 64 45.5 110.5t118.5 70.5q-133 62 -133 170q0 76 58 127.5t145 51.5q85 0 140.5 -46t55.5 -117q0 -117 -130 -170zM110 553q0 -51 33.5 -81.5t89.5 -54.5l83 -35q131 52 131 165
q0 66 -53 109.5t-132 43.5q-65 0 -108.5 -39.5t-43.5 -107.5zM309 312l-108 44q-164 -57 -164 -176q0 -84 68 -132t163 -48q86 0 135 44t49 119q0 53 -36.5 86.5t-106.5 62.5z" />
    <glyph glyph-name="nine" unicode="9" horiz-adv-x="541" 
d="M435 493q0 86 -50 146.5t-129 60.5q-81 0 -121 -58.5t-40 -150.5q0 -98 41.5 -152t118.5 -54q72 0 126 54.5t54 153.5zM27 486q0 93 65.5 158.5t163.5 65.5q112 0 183 -98t71 -251q0 -69 -18 -133.5t-52 -118.5t-91 -86.5t-128 -32.5q-78 0 -126.5 40t-48.5 103
q0 39 19.5 63.5t45.5 32.5l3 -8q-58 -22 -58 -88q0 -59 44.5 -95.5t116.5 -36.5q66 0 112.5 34t70.5 94.5t32.5 133.5t4.5 161q-15 -69 -68.5 -111.5t-122.5 -42.5q-93 0 -156 60.5t-63 155.5z" />
    <glyph glyph-name="colon" unicode=":" horiz-adv-x="205" 
d="M60 325v92h85v-92h-85zM60 0v92h85v-92h-85z" />
    <glyph glyph-name="semicolon" unicode=";" horiz-adv-x="205" 
d="M60 325v92h85v-92h-85zM60 0v92h85v-102q0 -133 -126 -133v10q116 0 116 123v10h-75z" />
    <glyph glyph-name="less" unicode="&#x3c;" horiz-adv-x="372" 
d="M44 305v10l284 165v-10l-276 -160l276 -160v-10z" />
    <glyph glyph-name="equal" unicode="=" horiz-adv-x="479" 
d="M44 380v10h391v-10h-391zM44 237v10h391v-10h-391z" />
    <glyph glyph-name="greater" unicode="&#x3e;" horiz-adv-x="372" 
d="M328 305l-284 -165v10l276 160l-276 160v10l284 -165v-10z" />
    <glyph glyph-name="question" unicode="?" horiz-adv-x="503" 
d="M404 540q0 74 -43 116.5t-122 42.5q-85 0 -138.5 -51.5t-53.5 -124.5q0 -81 60 -114l-6 -8q-27 14 -45.5 46t-18.5 76q0 77 58 132t149 55q98 0 160 -50.5t62 -133.5q0 -97 -67 -156t-161 -71v-99h-10v160q75 9 125.5 59.5t50.5 120.5zM192 0v92h85v-92h-85z" />
    <glyph glyph-name="at" unicode="@" horiz-adv-x="941" 
d="M673 27q31 0 65.5 15.5t67 46t54 86t21.5 124.5q0 158 -111.5 251t-278.5 93q-179 0 -305 -123t-126 -312q0 -180 120 -292.5t306 -112.5q167 0 284 88l6 -8q-118 -90 -290 -90q-190 0 -313 116t-123 299q0 128 60.5 230.5t161 158.5t219.5 56q170 0 285 -95.5
t115 -258.5q0 -71 -22.5 -128.5t-58 -89.5t-74 -49t-74.5 -17q-49 0 -82.5 32.5t-24.5 87.5q-24 -50 -67 -84t-92 -34q-60 0 -96.5 41t-36.5 106q0 109 66.5 190.5t159.5 81.5q52 0 81 -33.5t30 -83.5l34 109h51l-72 -290q-13 -52 4 -81.5t56 -29.5zM565 178l19 74
q8 40 8 57q0 51 -25.5 81t-70.5 30q-51 0 -92 -42.5t-61.5 -104.5t-21.5 -128q-1 -53 20 -83t65 -30q50 0 94.5 42t64.5 104z" />
    <glyph glyph-name="A" unicode="A" horiz-adv-x="663" 
d="M461 257l-164 363l-158 -363h322zM577 0l-111 246h-332l-107 -246h-12l309 710h4l321 -710h-72z" />
    <glyph glyph-name="B" unicode="B" horiz-adv-x="638" 
d="M346 0h-253v700h226q111 0 180 -42t69 -131q0 -70 -54.5 -116t-130.5 -49v-2q94 -3 154.5 -47.5t60.5 -127.5q0 -91 -69.5 -138t-182.5 -47zM163 689v-323h145q190 0 190 161q0 162 -189 162h-146zM311 355h-148v-344h172q94 0 143 38.5t49 133.5q0 172 -216 172z" />
    <glyph glyph-name="C" unicode="C" horiz-adv-x="668" 
d="M33 349q0 155 98.5 258t242.5 103q91 0 161 -44.5t103 -133.5l-10 -4q-31 84 -96 127.5t-152 43.5q-123 0 -196.5 -91.5t-73.5 -257.5q0 -165 73.5 -256.5t196.5 -91.5q88 0 153.5 42t97.5 126l9 -4q-34 -89 -104 -132.5t-162 -43.5q-144 0 -242.5 102t-98.5 257z" />
    <glyph glyph-name="D" unicode="D" horiz-adv-x="727" 
d="M297 0h-204v700h204q183 0 289.5 -93.5t106.5 -250.5q0 -160 -107.5 -258t-288.5 -98zM618 356q0 333 -329 333h-126v-678h128q164 0 245.5 90.5t81.5 254.5z" />
    <glyph glyph-name="E" unicode="E" horiz-adv-x="603" 
d="M93 0v700h454v-11h-384v-324h288v-11h-288v-343h396v-11h-466z" />
    <glyph glyph-name="F" unicode="F" horiz-adv-x="557" 
d="M93 0v700h435v-11h-365v-334h288v-11h-288v-344h-70z" />
    <glyph glyph-name="G" unicode="G" horiz-adv-x="731" 
d="M677 -10h-4l-60 147q-26 -63 -87.5 -105t-146.5 -42q-146 0 -246 101.5t-100 257.5t103 258.5t250 102.5q94 0 165.5 -44t106.5 -133l-9 -4q-33 84 -101 127t-157 43q-127 0 -204 -92t-77 -258t72.5 -257.5t197.5 -91.5q97 0 162.5 61t65.5 162v91h69v-324z" />
    <glyph glyph-name="H" unicode="H" horiz-adv-x="788" 
d="M93 0v700h70v-335h462v335h70v-700h-70v354h-462v-354h-70z" />
    <glyph glyph-name="I" unicode="I" horiz-adv-x="256" 
d="M163 700v-700h-70v700h70z" />
    <glyph glyph-name="J" unicode="J" horiz-adv-x="559" 
d="M412 217v483h69v-468q0 -109 -67.5 -175.5t-174.5 -66.5q-97 0 -156 55t-59 140q0 45 19.5 81.5t47.5 54.5l5 -8q-62 -45 -62 -128q0 -81 55 -132.5t144 -51.5q90 0 134.5 56.5t44.5 159.5z" />
    <glyph glyph-name="K" unicode="K" horiz-adv-x="678" 
d="M571 0l-308 359l-100 -93v-266h-70v700h70v-421l450 421h15l-316 -295l344 -405h-85z" />
    <glyph glyph-name="L" unicode="L" horiz-adv-x="579" 
d="M93 0v700h70v-689h377v-11h-447z" />
    <glyph glyph-name="M" unicode="M" horiz-adv-x="871" 
d="M709 681l-284 -691h-4l-317 691v-681h-11v700h77l283 -616l253 616h72v-700h-69v681z" />
    <glyph glyph-name="N" unicode="N" horiz-adv-x="752" 
d="M648 96v604h11v-710h-4l-551 617v-607h-11v710h4z" />
    <glyph glyph-name="O" unicode="O" horiz-adv-x="757" 
d="M33 350q0 155 102 257.5t244 102.5t243.5 -102.5t101.5 -257.5t-101.5 -257.5t-243.5 -102.5t-244 102.5t-102 257.5zM110 350q0 -166 71 -258t198 -92q126 0 197 92t71 258t-71 258t-197 92q-127 0 -198 -92t-71 -258z" />
    <glyph glyph-name="P" unicode="P" horiz-adv-x="623" 
d="M334 310h-171v-310h-70v700h241q76 0 134.5 -17.5t97.5 -63t39 -114.5t-39 -114.5t-97 -63t-135 -17.5zM163 321h167q91 0 144 47t53 137t-53 137t-144 47h-167v-368z" />
    <glyph glyph-name="Q" unicode="Q" horiz-adv-x="757" 
d="M630 -161q-125 0 -190 157q-30 -6 -61 -6q-142 0 -244 102.5t-102 257.5t102 257.5t244 102.5t243.5 -102.5t101.5 -257.5q0 -133 -77 -229.5t-194 -122.5q60 -149 177 -149q49 0 80 29t33 80l11 -1q-1 -54 -36.5 -86t-87.5 -32zM110 350q0 -166 71 -258t198 -92
q126 0 197 92t71 258t-71 258t-197 92q-127 0 -198 -92t-71 -258z" />
    <glyph glyph-name="R" unicode="R" horiz-adv-x="698" 
d="M163 689v-356h178q196 0 196 179q0 91 -52 134t-144 43h-178zM163 322v-322h-70v700h252q118 0 193.5 -45t75.5 -142q0 -62 -37 -106t-83 -61.5t-93 -18.5v-2q127 -11 165 -116l41 -117q21 -62 53 -92h-80q-21 31 -40 87l-40 112q-23 66 -62 94.5t-116 28.5h-159z" />
    <glyph glyph-name="S" unicode="S" horiz-adv-x="585" 
d="M497 163q0 66 -43 101.5t-119 53.5l-98 24q-97 25 -145 65t-48 116q0 80 67.5 133.5t165.5 53.5q86 0 151 -36.5t96 -99.5l-9 -7q-29 62 -92 97.5t-145 35.5q-80 0 -132 -40.5t-52 -108.5q0 -64 40.5 -93.5t122.5 -50.5l93 -25q96 -24 146.5 -67t50.5 -117
q0 -97 -73.5 -152.5t-175.5 -55.5q-98 0 -175 44.5t-107 121.5l10 5q29 -76 103 -118.5t168 -42.5q93 0 146.5 46.5t53.5 116.5z" />
    <glyph glyph-name="T" unicode="T" horiz-adv-x="668" 
d="M299 0v689h-279v11h628v-11h-280v-689h-69z" />
    <glyph glyph-name="U" unicode="U" horiz-adv-x="717" 
d="M628 700h11v-431q0 -131 -76.5 -205t-192.5 -74q-143 0 -217.5 76t-74.5 203v431h70v-418q0 -126 56.5 -197.5t176.5 -71.5q109 0 178 67t69 192v428z" />
    <glyph glyph-name="V" unicode="V" horiz-adv-x="663" 
d="M340 -10h-4l-321 710h71l281 -620l270 620h12z" />
    <glyph glyph-name="W" unicode="W" horiz-adv-x="919" 
d="M651 -10l-189 518l-180 -518h-4l-263 710h71l222 -602l148 426l-64 176h69l219 -605l213 605h12l-250 -710h-4z" />
    <glyph glyph-name="X" unicode="X" horiz-adv-x="651" 
d="M29 0h-14l274 361l-252 339h80l219 -295l224 295h14l-231 -304l294 -396h-80l-261 352z" />
    <glyph glyph-name="Y" unicode="Y" horiz-adv-x="612" 
d="M338 305l248 395h11l-255 -410v-290h-70v289l-257 411h77z" />
    <glyph glyph-name="Z" unicode="Z" horiz-adv-x="641" 
d="M597 11v-11h-561v4l477 685h-443v11h523v-4l-476 -685h480z" />
    <glyph glyph-name="bracketleft" unicode="[" horiz-adv-x="281" 
d="M69 -154v903h182v-6l-124 -4v-883l124 -4v-6h-182z" />
    <glyph glyph-name="backslash" unicode="\" horiz-adv-x="351" 
d="M331 -153h-11l-300 902h11z" />
    <glyph glyph-name="bracketright" unicode="]" horiz-adv-x="281" 
d="M212 749v-903h-182v6l124 4v883l-124 4v6h182z" />
    <glyph glyph-name="asciicircum" unicode="^" horiz-adv-x="490" 
d="M244 710h2l204 -278h-10l-195 266l-195 -266h-10z" />
    <glyph glyph-name="underscore" unicode="_" horiz-adv-x="369" 
d="M60 -72v13h249v-13h-249z" />
    <glyph glyph-name="grave" unicode="`" 
d="M315 559l-143 190h65l82 -190h-4z" />
    <glyph glyph-name="a" unicode="a" 
d="M365 260l-132 -21q-68 -11 -100.5 -39t-32.5 -79q0 -52 28.5 -81t74.5 -29q62 0 108 52.5t54 122.5v74zM365 270v79q0 63 -34 98.5t-101 35.5t-108.5 -33t-41.5 -84q0 -42 33 -68l-6 -7q-37 26 -37 75q0 57 46.5 92.5t125.5 35.5q93 0 140.5 -43t47.5 -117v-334h-57
l-7 146q-16 -61 -65.5 -108.5t-124.5 -47.5q-62 0 -101.5 33.5t-39.5 87.5q0 106 189 136z" />
    <glyph glyph-name="b" unicode="b" horiz-adv-x="570" 
d="M144 128l-8 -128h-59v749h67v-394q16 59 64 99t114 40q90 0 152.5 -69.5t62.5 -180.5q0 -112 -62.5 -183t-152.5 -71q-65 0 -113 39t-65 99zM143 292v-97q1 -83 49.5 -136.5t117.5 -53.5q73 0 114.5 68t41.5 172t-41 169.5t-114 65.5q-67 0 -117 -53t-51 -135z" />
    <glyph glyph-name="c" unicode="c" horiz-adv-x="485" 
d="M289 483q-80 0 -132.5 -63.5t-52.5 -182.5q0 -110 44.5 -172t128.5 -62q64 0 111.5 39.5t61.5 110.5l10 -3q-15 -76 -67.5 -118t-131.5 -42q-89 0 -158.5 68.5t-69.5 178.5q0 112 74.5 184.5t173.5 72.5q74 0 117.5 -39t43.5 -100q0 -52 -36 -88l-7 7q33 30 33 81
q0 56 -39.5 92t-103.5 36z" />
    <glyph glyph-name="d" unicode="d" horiz-adv-x="570" 
d="M428 192v97q-1 84 -49.5 137t-118.5 53q-73 0 -114 -68t-41 -172t41 -169.5t114 -65.5q67 0 117 53t51 135zM427 357v392h66v-749h-62l-4 129q-16 -59 -64.5 -99t-114.5 -40q-89 0 -152 70t-63 180q0 112 62.5 183t152.5 71q66 0 113.5 -38.5t65.5 -98.5z" />
    <glyph glyph-name="e" unicode="e" horiz-adv-x="503" 
d="M468 150q-17 -76 -70 -118t-134 -42q-89 0 -160 70t-71 179q0 112 67.5 183.5t157.5 71.5q97 0 154.5 -65t57.5 -163h-365q-1 -9 -1 -28q0 -112 44.5 -174t129.5 -62q68 0 116.5 39.5t63.5 111.5zM258 485q-62 0 -104 -52t-49 -157h294q0 209 -141 209z" />
    <glyph glyph-name="f" unicode="f" horiz-adv-x="288" 
d="M157 583v-99h146l-5 -10h-141v-474h-67v474h-81v10h81v86q0 82 48.5 135.5t125.5 53.5q51 0 81 -26t30 -70q0 -34 -23 -54l-7 5q20 23 20 49q0 41 -26.5 63t-69.5 22q-112 0 -112 -165z" />
    <glyph glyph-name="g" unicode="g" horiz-adv-x="519" 
d="M360 334q0 70 -30 110.5t-89 40.5t-89.5 -40.5t-30.5 -110.5q0 -72 30.5 -112.5t89.5 -40.5t89 40.5t30 112.5zM507 -39q0 -83 -80 -134.5t-190 -51.5q-108 0 -174 35.5t-66 102.5q0 50 43 82t98 32q-37 7 -61 29t-24 56q0 61 75 91q-76 48 -76 131q0 66 54.5 113
t134.5 47q71 0 125 -39q49 77 106 77q30 0 47.5 -18t17.5 -46q0 -29 -17 -50l-7 6q14 18 14 44q0 24 -15.5 39t-39.5 15q-55 0 -98 -73q57 -47 57 -115t-55 -115t-135 -47q-57 0 -104 26q-65 -25 -65 -67q0 -47 81 -47h201q71 0 112 -30t41 -93zM362 22h-204q-55 0 -103 -28
t-48 -81q0 -63 63 -95.5t167 -32.5q97 0 168.5 41.5t71.5 110.5q0 85 -115 85z" />
    <glyph glyph-name="h" unicode="h" horiz-adv-x="550" 
d="M77 749h67v-390q17 62 64.5 98.5t111.5 36.5q76 0 118.5 -45t42.5 -123v-326h-67v343q0 135 -115 135q-62 0 -108 -50.5t-47 -127.5v-300h-67v749z" />
    <glyph glyph-name="i" unicode="i" horiz-adv-x="221" 
d="M75 604v96h70v-96h-70zM144 484v-484h-67v484h67z" />
    <glyph glyph-name="j" unicode="j" horiz-adv-x="221" 
d="M75 604v96h70v-96h-70zM144 -43q0 -84 -39 -133t-114 -49q-44 0 -73 23.5t-29 67.5q0 28 16 44l9 -3q-15 -21 -15 -41q0 -40 25 -59.5t61 -19.5q53 0 72.5 40.5t19.5 126.5v530h67v-527z" />
    <glyph glyph-name="k" unicode="k" horiz-adv-x="514" 
d="M421 0l-195 247l-82 -73v-174h-67v749h67v-564l331 299h13l-215 -194l228 -290h-80z" />
    <glyph glyph-name="l" unicode="l" horiz-adv-x="221" 
d="M144 749v-749h-67v749h67z" />
    <glyph glyph-name="m" unicode="m" horiz-adv-x="849" 
d="M462 305v-305h-67v343q0 134 -109 134q-58 0 -98.5 -46.5t-43.5 -125.5v-305h-67v484h63l4 -123q17 64 59.5 98.5t106.5 34.5q65 0 103.5 -37t45.5 -103q17 67 61 103.5t108 36.5q73 0 112 -45.5t39 -128.5v-320h-66v343q0 134 -109 134q-58 0 -98.5 -46.5t-43.5 -125.5z
" />
    <glyph glyph-name="n" unicode="n" horiz-adv-x="550" 
d="M144 300v-300h-67v484h63l4 -125q17 62 64.5 98.5t111.5 36.5q76 0 118.5 -45t42.5 -123v-326h-67v343q0 135 -115 135q-62 0 -108 -50.5t-47 -127.5z" />
    <glyph glyph-name="o" unicode="o" horiz-adv-x="540" 
d="M270 -10q-99 0 -168 74t-69 177q0 104 69 178.5t168 74.5q100 0 168.5 -74.5t68.5 -178.5t-68.5 -177.5t-168.5 -73.5zM270 485q-79 0 -122.5 -61t-43.5 -183q0 -120 44 -181t122 -61t122 61t44 181q0 122 -43.5 183t-122.5 61z" />
    <glyph glyph-name="p" unicode="p" horiz-adv-x="570" 
d="M143 292v-97q1 -83 49.5 -136.5t117.5 -53.5q73 0 114.5 68t41.5 172t-41 169.5t-114 65.5q-67 0 -117 -53t-51 -135zM144 128v-343h-67v699h63l4 -129q16 59 64 99t114 40q90 0 152.5 -69.5t62.5 -180.5q0 -112 -62.5 -183t-152.5 -71q-65 0 -113 39t-65 99z" />
    <glyph glyph-name="q" unicode="q" horiz-adv-x="570" 
d="M427 357l3 127h63v-699h-66v344q-16 -59 -64.5 -99t-114.5 -40q-89 0 -152 70t-63 180q0 112 62.5 183t152.5 71q66 0 113.5 -38.5t65.5 -98.5zM428 192v97q-1 84 -49.5 137t-118.5 53q-73 0 -114 -68t-41 -172t41 -169.5t114 -65.5q67 0 117 53t51 135z" />
    <glyph glyph-name="r" unicode="r" horiz-adv-x="437" 
d="M144 320q17 72 62 123t104 51q47 0 73 -26.5t26 -69.5q0 -46 -30 -73l-7 7q27 24 27 66q0 39 -23 62.5t-66 23.5q-45 0 -84 -36t-59.5 -86.5t-22.5 -100.5v-261h-67v484h63z" />
    <glyph glyph-name="s" unicode="s" horiz-adv-x="450" 
d="M221 484q-57 0 -94.5 -28.5t-37.5 -69.5q0 -40 23.5 -59.5t74.5 -32.5l91 -24q68 -17 102 -45.5t34 -79.5q0 -69 -53.5 -112t-136.5 -43q-75 0 -130.5 37.5t-71.5 100.5l10 5q14 -62 68.5 -97.5t123.5 -35.5q62 0 103 30t41 84q0 39 -27.5 61t-77.5 34l-96 24
q-58 15 -89.5 42.5t-31.5 75.5q0 61 51 102t124 41q63 0 109 -28.5t63 -85.5l-10 -4q-32 108 -162 108z" />
    <glyph glyph-name="t" unicode="t" horiz-adv-x="366" 
d="M7 474v10h81v138l66 27v-165h176l-5 -10h-171v-379q0 -92 70 -92q53 0 82 38.5t33 106.5l10 -1q-5 -72 -38.5 -114.5t-97.5 -42.5q-60 0 -92.5 33.5t-32.5 93.5v357h-81z" />
    <glyph glyph-name="u" unicode="u" horiz-adv-x="541" 
d="M398 184v300h66v-484h-62l-4 125q-18 -63 -63 -99t-108 -36q-73 0 -115 46t-42 124v324h66v-341q0 -62 27.5 -99.5t85.5 -37.5q60 0 104 50t45 128z" />
    <glyph glyph-name="v" unicode="v" horiz-adv-x="452" 
d="M232 -6h-4l-221 490h69l181 -406l177 406h12z" />
    <glyph glyph-name="w" unicode="w" horiz-adv-x="661" 
d="M465 -6l-129 346l-132 -346h-4l-193 490h68l153 -398l102 269l-48 129h68l142 -400l152 400h11l-186 -490h-4z" />
    <glyph glyph-name="x" unicode="x" horiz-adv-x="461" 
d="M380 0l-176 237l-184 -237h-12l191 245l-178 239h76l148 -201l153 201h12l-159 -209l203 -275h-74z" />
    <glyph glyph-name="y" unicode="y" horiz-adv-x="453" 
d="M58 -225q-38 0 -61 24t-23 63q0 24 12 44l10 -3q-12 -21 -12 -41q0 -34 20.5 -55.5t53.5 -21.5q41 0 69 34t65 117l31 70l-216 478h70l179 -404l179 404h12l-244 -551q-38 -87 -69.5 -122.5t-75.5 -35.5z" />
    <glyph glyph-name="z" unicode="z" horiz-adv-x="472" 
d="M29 4l324 470h-307v10h385v-4l-324 -470h329v-10h-407v4z" />
    <glyph glyph-name="braceleft" unicode="{" horiz-adv-x="361" 
d="M22 292v8q55 0 88.5 33.5t33.5 107.5q0 22 -10 76t-10 81q0 61 48.5 106t115.5 45q29 0 53 -7v-9q-20 6 -48 6q-53 0 -85 -33.5t-32 -91.5q0 -24 13 -87t13 -82q0 -37 -16.5 -66.5t-41 -46t-47 -25.5t-41.5 -11q19 -2 41.5 -11t47 -25t41 -45.5t16.5 -66.5q0 -20 -13 -83
t-13 -87q0 -57 32 -91t85 -34q23 0 48 6v-9q-24 -7 -53 -7q-67 0 -115.5 45.5t-48.5 105.5q0 27 10 81.5t10 76.5q0 73 -33.5 106.5t-88.5 33.5z" />
    <glyph glyph-name="bar" unicode="|" horiz-adv-x="214" 
d="M102 -153v902h10v-902h-10z" />
    <glyph glyph-name="braceright" unicode="}" horiz-adv-x="361" 
d="M339 300v-8q-54 0 -88 -33.5t-34 -106.5q0 -22 10 -76.5t10 -81.5q0 -60 -48.5 -105.5t-115.5 -45.5q-28 0 -53 7v9q26 -6 49 -6q53 0 85 34t32 91q0 24 -13 87t-13 83q0 37 16 66.5t40.5 45.5t47 25t41.5 11q-19 2 -41.5 11t-47 25.5t-40.5 46t-16 66.5q0 19 13 82
t13 87q0 58 -32 91.5t-85 33.5q-29 0 -49 -6v9q25 7 53 7q67 0 115.5 -45t48.5 -106q0 -27 -10 -81t-10 -76q0 -74 34 -107.5t88 -33.5z" />
    <glyph glyph-name="asciitilde" unicode="~" horiz-adv-x="521" 
d="M346 256q-27 0 -100 47t-100 47q-66 0 -80 -97h-7q7 64 40 102.5t76 38.5q28 0 100.5 -47t99.5 -47q66 0 80 97h7q-7 -64 -40 -102.5t-76 -38.5z" />
    <glyph glyph-name="uni00A0" unicode="&#xa0;" horiz-adv-x="477" 
 />
    <glyph glyph-name="exclamdown" unicode="&#xa1;" horiz-adv-x="211" 
d="M63 459v92h85v-92h-85zM104 350h4l43 -499h-91z" />
    <glyph glyph-name="cent" unicode="&#xa2;" horiz-adv-x="494" 
d="M106 242q0 -105 39.5 -168.5t111.5 -69.5l45 487q-5 1 -15 1q-78 0 -129.5 -65t-51.5 -185zM462 150q-16 -76 -67.5 -118t-128.5 -42l-10 -104h-10l10 104q-85 3 -153 74t-68 177q0 113 74 187.5t171 74.5q16 0 23 -1l11 113h10l-11 -114q63 -8 99.5 -46t36.5 -96
q0 -47 -35 -82l-7 7q32 30 32 75q0 55 -34.5 90t-92.5 42l-45 -488h5q70 0 117.5 39t62.5 111z" />
    <glyph glyph-name="sterling" unicode="&#xa3;" horiz-adv-x="647" 
d="M485 -10q-33 0 -69.5 12.5t-58 25t-62 40t-53.5 35.5q-45 -113 -133 -113q-39 0 -62.5 23.5t-23.5 57.5q0 37 27 61t71 24q36 0 92 -21q8 50 8 110q0 39 -7 109h-122v10h121q-6 74 -6 112q0 103 57.5 168.5t152.5 65.5q78 0 119.5 -38t41.5 -98q0 -41 -19 -69t-46 -38
l-4 8q59 27 59 99q0 54 -36.5 89t-105.5 35q-67 0 -106.5 -54.5t-39.5 -150.5v-129h168v-10h-168v-2q0 -141 -32 -232q4 -2 35 -15.5t40 -17.5t36 -14t42.5 -13.5t39 -7.5t44.5 -4q52 0 84.5 21t32.5 65q0 41 -29 73l7 5q34 -31 34 -83q-1 -58 -35.5 -98.5t-93.5 -40.5z
M108 0q78 0 103 121q-48 25 -90 25q-40 0 -64 -20.5t-24 -54.5q0 -30 20.5 -50.5t54.5 -20.5z" />
    <glyph glyph-name="yen" unicode="&#xa5;" horiz-adv-x="590" 
d="M516 235h-185v-235h-70v235h-186v10h186v44l-30 55h-156v10h150l-191 346h78l215 -395l217 395h11l-189 -346h150v-10h-155l-30 -54v-45h185v-10z" />
    <glyph glyph-name="section" unicode="&#xa7;" horiz-adv-x="595" 
d="M347 111q76 -60 99 -96q28 11 45 36.5t17 59.5q0 38 -25 67.5t-86 76.5l-149 116q-77 60 -100 97q-27 -12 -44 -37.5t-17 -58.5q0 -39 25 -68.5t86 -76.5zM299 -225q-63 0 -110.5 32.5t-64.5 91.5l10 4q16 -58 60.5 -88t104.5 -30q57 0 91.5 33.5t34.5 85.5q0 29 -17 57
t-36.5 45.5t-59.5 48.5l-153 117q-59 45 -84 80t-25 85q0 46 26 83.5t67 56.5q-17 34 -17 73q0 66 50 111.5t119 45.5q63 0 110.5 -32.5t64.5 -90.5l-10 -4q-17 57 -61 87t-104 30q-57 0 -91 -33.5t-34 -84.5q0 -42 27.5 -74.5t85.5 -77.5l153 -116q59 -46 84 -81t25 -84
q0 -46 -26 -84t-67 -57q17 -34 17 -73q0 -65 -50 -111t-120 -46z" />
    <glyph glyph-name="dieresis" unicode="&#xa8;" 
d="M292 604v96h59v-96h-59zM149 604v96h60v-96h-60z" />
    <glyph glyph-name="copyright" unicode="&#xa9;" horiz-adv-x="810" 
d="M405 710q151 0 255.5 -102.5t104.5 -257.5t-104.5 -257.5t-255.5 -102.5t-255.5 102.5t-104.5 257.5t104.5 257.5t255.5 102.5zM405 0q147 0 248.5 99.5t101.5 250.5t-101.5 250.5t-248.5 99.5t-248.5 -99.5t-101.5 -250.5t101.5 -250.5t248.5 -99.5zM201 351
q0 95 63.5 158t151.5 63q123 0 165 -109l-9 -3q-38 101 -151 101q-75 0 -119 -54.5t-44 -155.5t44 -155.5t119 -54.5q112 0 151 100l9 -3q-42 -108 -165 -108q-88 0 -151.5 63t-63.5 158z" />
    <glyph glyph-name="ordfeminine" unicode="&#xaa;" horiz-adv-x="355" 
d="M259 545l-88 -15q-88 -15 -88 -81q0 -36 18.5 -54.5t48.5 -18.5q43 0 73 36.5t36 86.5v46zM259 554v53q0 43 -22.5 68t-68.5 25t-74 -22t-28 -58q0 -26 22 -45l-6 -6q-25 18 -25 51q0 40 32.5 65t87.5 25q65 0 99 -30.5t34 -82.5v-232h-45l-5 102q-12 -44 -44.5 -76.5
t-84.5 -32.5q-43 0 -71 23t-28 61q0 74 132 96zM49 274v10h256v-10h-256z" />
    <glyph glyph-name="guillemotleft" unicode="&#xab;" horiz-adv-x="470" 
d="M51 243v2l219 201h4l-156 -202l156 -202h-4zM196 243v2l219 201h4l-156 -202l156 -202h-4z" />
    <glyph glyph-name="registered" unicode="&#xae;" horiz-adv-x="542" 
d="M271 710q90 0 153 -61.5t63 -154.5t-63 -154.5t-153 -61.5t-153 61.5t-63 154.5t63 154.5t153 61.5zM271 288q86 0 146 59t60 147t-60 147t-146 59t-146 -59t-60 -147t60 -147t146 -59zM223 604v-108h43q56 0 56 54t-56 54h-43zM223 486v-108h-41v236h102
q37 0 59.5 -17.5t22.5 -46.5q0 -24 -20.5 -41t-48.5 -18v-1q40 -3 52 -41l12 -34q7 -21 20 -37h-46q-10 12 -16 33l-13 38q-13 37 -46 37h-37z" />
    <glyph glyph-name="macron" unicode="&#xaf;" 
d="M388 632h-276v10h276v-10z" />
    <glyph glyph-name="degree" unicode="&#xb0;" horiz-adv-x="383" 
d="M80 609q0 46 33 79t79 33t78.5 -33t32.5 -79q0 -45 -32.5 -78t-78.5 -33t-79 33t-33 78zM293 609q0 42 -29.5 72t-71.5 30t-72 -30t-30 -72q0 -41 30 -71t72 -30t71.5 30t29.5 71z" />
    <glyph glyph-name="plusminus" unicode="&#xb1;" horiz-adv-x="463" 
d="M419 355h-183v-152h-10v152h-182v10h182v152h10v-152h183v-10zM44 124v10h375v-10h-375z" />
    <glyph glyph-name="twosuperior" unicode="&#xb2;" horiz-adv-x="260" 
d="M61 452h167l-1 -38h-206v5l84 84q69 67 69 128q0 66 -62 66q-31 0 -51 -19t-20 -48q0 -35 29 -47l-4 -6q-13 4 -23 19t-10 34q0 33 25 55.5t66 22.5q43 0 70 -21t27 -58q0 -39 -31.5 -72t-116.5 -96q-2 -2 -3.5 -3t-4 -3t-4.5 -3z" />
    <glyph glyph-name="threesuperior" unicode="&#xb3;" horiz-adv-x="271" 
d="M127 410q-44 0 -69.5 20t-25.5 51q0 40 37 50l4 -5q-33 -11 -33 -44q0 -27 22 -45t57 -18t53.5 21.5t18.5 56.5q0 70 -75 70h-10v7h10q66 0 66 64q0 60 -61 60q-28 0 -47.5 -15t-19.5 -41q0 -29 27 -38l-3 -7q-33 11 -33 46q0 28 24.5 46.5t61.5 18.5q41 0 68 -18.5
t27 -51.5q0 -29 -26 -47.5t-59 -19.5v-1q38 -2 67.5 -22t29.5 -54q0 -38 -31.5 -61t-79.5 -23z" />
    <glyph glyph-name="acute" unicode="&#xb4;" 
d="M263 749h65l-143 -190h-4z" />
    <glyph glyph-name="paragraph" unicode="&#xb6;" horiz-adv-x="526" 
d="M250 -215q66 0 103.5 54t37.5 156v695h-49v-566l-10 3v177q-79 0 -142.5 19.5t-106 65.5t-42.5 113t42.5 113t106 65.5t142.5 19.5h119v-10h-50v-697q0 -106 -40.5 -162t-110.5 -56q-40 0 -69.5 25t-29.5 65q0 29 13 45l9 -3q-12 -19 -12 -42q0 -37 27 -58.5t62 -21.5z
" />
    <glyph glyph-name="periodcentered" unicode="&#xb7;" horiz-adv-x="203" 
d="M59 231v92h85v-92h-85z" />
    <glyph glyph-name="cedilla" unicode="&#xb8;" 
d="M150 -168l9 7q12 -25 37 -38.5t53 -13.5q31 0 48 17.5t17 46.5q0 69 -109 69l32 80h10l-28 -72q53 0 93 -19.5t40 -57.5q0 -34 -28 -55t-69 -21q-35 0 -63.5 16t-41.5 41z" />
    <glyph glyph-name="onesuperior" unicode="&#xb9;" horiz-adv-x="194" 
d="M139 414h-46v250q-22 -36 -63 -60l-3 7q50 30 84 96h28v-293z" />
    <glyph glyph-name="ordmasculine" unicode="&#xba;" horiz-adv-x="401" 
d="M200 355q-69 0 -117.5 52t-48.5 125t48.5 125.5t117.5 52.5q70 0 119 -52.5t49 -125.5t-49 -125t-119 -52zM200 701q-111 0 -111 -169q0 -168 111 -168q113 0 113 168q0 169 -113 169zM57 274v10h287v-10h-287z" />
    <glyph glyph-name="guillemotright" unicode="&#xbb;" horiz-adv-x="470" 
d="M274 245v-2l-219 -201h-4l156 202l-156 202h4zM419 245v-2l-219 -201h-4l156 202l-156 202h4z" />
    <glyph glyph-name="onequarter" unicode="&#xbc;" horiz-adv-x="403" 
d="M216 414h-46v250q-22 -36 -63 -60l-3 7q50 30 84 96h28v-293zM38 358h327v-10h-327v10zM296 95v-9h-63v-86h-45v86h-134v6l139 198h40v-195h63zM188 95v174l-122 -174h122z" />
    <glyph glyph-name="onehalf" unicode="&#xbd;" horiz-adv-x="403" 
d="M216 414h-46v250q-22 -36 -63 -60l-3 7q50 30 84 96h28v-293zM38 358h327v-10h-327v10zM125 38h166l-1 -38h-205v5l84 84q68 68 68 128q0 66 -61 66q-31 0 -51 -19t-20 -48q0 -35 29 -47l-5 -6q-13 5 -22.5 19.5t-9.5 33.5q0 33 24.5 55.5t66.5 22.5t69.5 -21t27.5 -58
q0 -21 -7.5 -38.5t-32 -41t-40.5 -36.5t-63 -48q-11 -9 -17 -13z" />
    <glyph glyph-name="threequarters" unicode="&#xbe;" horiz-adv-x="403" 
d="M185 410q-43 0 -69 20.5t-26 51.5q0 35 35 49l4 -5q-31 -13 -31 -44q0 -26 22.5 -44t56.5 -18q36 0 54.5 21t18.5 56q0 70 -76 70h-9v7h9q66 0 66 64q0 60 -60 60q-28 0 -48 -15t-20 -41q0 -28 26 -37l-3 -7q-32 11 -32 45q0 28 24.5 46.5t62.5 18.5q41 0 68 -18.5
t27 -51.5q0 -28 -26.5 -47t-58.5 -20v-1q38 -2 67.5 -22t29.5 -54q0 -38 -32 -61t-80 -23zM38 358h327v-10h-327v10zM296 95v-9h-63v-86h-45v86h-134v6l139 198h40v-195h63zM188 95v174l-122 -174h122z" />
    <glyph glyph-name="questiondown" unicode="&#xbf;" horiz-adv-x="503" 
d="M311 551v-92h-85v92h85zM99 11q0 -73 42.5 -116t122.5 -43q85 0 138.5 51.5t53.5 124.5q0 81 -60 114l6 8q27 -14 45.5 -46t18.5 -76q0 -77 -58 -132t-149 -55q-98 0 -160 50.5t-62 133.5q0 97 67 156t161 71v99h10v-160q-75 -9 -125.5 -59.5t-50.5 -120.5z" />
    <glyph glyph-name="Agrave" unicode="&#xc0;" horiz-adv-x="663" 
d="M331 752l-143 165h69l78 -165h-4zM461 257l-164 363l-158 -363h322zM577 0l-111 246h-332l-107 -246h-12l309 710h4l321 -710h-72z" />
    <glyph glyph-name="Aacute" unicode="&#xc1;" horiz-adv-x="663" 
d="M399 917h69l-143 -165h-4zM461 257l-164 363l-158 -363h322zM577 0l-111 246h-332l-107 -246h-12l309 710h4l321 -710h-72z" />
    <glyph glyph-name="Acircumflex" unicode="&#xc2;" horiz-adv-x="663" 
d="M427 742l-118 145l-120 -145h-12l152 184h2l150 -184h-54zM461 257l-164 363l-158 -363h322zM577 0l-111 246h-332l-107 -246h-12l309 710h4l321 -710h-72z" />
    <glyph glyph-name="Atilde" unicode="&#xc3;" horiz-adv-x="663" 
d="M402 769q-31 0 -84.5 42t-82.5 42t-46 -20.5t-24 -66.5h-7q7 58 34.5 91t65.5 33q32 0 85 -42t82 -42t46 20.5t24 66.5h7q-7 -58 -34.5 -91t-65.5 -33zM461 257l-164 363l-158 -363h322zM577 0l-111 246h-332l-107 -246h-12l309 710h4l321 -710h-72z" />
    <glyph glyph-name="Adieresis" unicode="&#xc4;" horiz-adv-x="663" 
d="M370 763v99h61v-99h-61zM227 763v99h61v-99h-61zM461 257l-164 363l-158 -363h322zM577 0l-111 246h-332l-107 -246h-12l309 710h4l321 -710h-72z" />
    <glyph glyph-name="Aring" unicode="&#xc5;" horiz-adv-x="663" 
d="M325 870q-32 0 -54.5 -22.5t-22.5 -54.5t22.5 -54.5t54.5 -22.5q31 0 53.5 22.5t22.5 54.5q0 31 -22.5 54t-53.5 23zM461 257l-164 363l-158 -363h322zM134 246l-107 -246h-12l307 706q-35 1 -59.5 26.5t-24.5 60.5t25.5 61t61.5 26q35 0 60.5 -26t25.5 -61
q0 -36 -24.5 -61.5t-56.5 -25.5l319 -706h-72l-111 246h-332z" />
    <glyph glyph-name="AE" unicode="&#xc6;" horiz-adv-x="1018" 
d="M508 314v376l-262 -376h262zM508 0v303h-269l-211 -303h-13l487 700h461v-11h-385v-324h288v-11h-288v-343h396v-11h-466z" />
    <glyph glyph-name="Ccedilla" unicode="&#xc7;" horiz-adv-x="668" 
d="M371 -225q-35 0 -63.5 16t-41.5 41l9 7q12 -25 37 -38.5t53 -13.5q31 0 48 17.5t17 46.5q0 69 -109 69l28 71q-135 9 -225.5 109.5t-90.5 248.5q0 155 98.5 258t242.5 103q91 0 161 -44.5t103 -133.5l-10 -4q-31 84 -96 127.5t-152 43.5q-123 0 -196.5 -91.5
t-73.5 -257.5q0 -165 73.5 -256.5t196.5 -91.5q88 0 153.5 42t97.5 126l9 -4q-34 -89 -104 -132.5t-162 -43.5h-15l-24 -62q53 0 93 -19.5t40 -57.5q0 -34 -28 -55t-69 -21z" />
    <glyph glyph-name="Egrave" unicode="&#xc8;" horiz-adv-x="603" 
d="M337 752l-143 165h69l78 -165h-4zM93 0v700h454v-11h-384v-324h288v-11h-288v-343h396v-11h-466z" />
    <glyph glyph-name="Eacute" unicode="&#xc9;" horiz-adv-x="603" 
d="M405 917h69l-143 -165h-4zM93 0v700h454v-11h-384v-324h288v-11h-288v-343h396v-11h-466z" />
    <glyph glyph-name="Ecircumflex" unicode="&#xca;" horiz-adv-x="603" 
d="M434 742l-118 145l-120 -145h-12l152 184h2l150 -184h-54zM93 0v700h454v-11h-384v-324h288v-11h-288v-343h396v-11h-466z" />
    <glyph glyph-name="Edieresis" unicode="&#xcb;" horiz-adv-x="603" 
d="M377 763v99h61v-99h-61zM234 763v99h61v-99h-61zM93 0v700h454v-11h-384v-324h288v-11h-288v-343h396v-11h-466z" />
    <glyph glyph-name="Igrave" unicode="&#xcc;" horiz-adv-x="256" 
d="M128 752l-143 165h69l78 -165h-4zM163 700v-700h-70v700h70z" />
    <glyph glyph-name="Iacute" unicode="&#xcd;" horiz-adv-x="256" 
d="M196 917h69l-143 -165h-4zM163 700v-700h-70v700h70z" />
    <glyph glyph-name="Icircumflex" unicode="&#xce;" horiz-adv-x="256" 
d="M225 742l-118 145l-120 -145h-12l152 184h2l150 -184h-54zM163 700v-700h-70v700h70z" />
    <glyph glyph-name="Idieresis" unicode="&#xcf;" horiz-adv-x="256" 
d="M168 763v99h61v-99h-61zM25 763v99h61v-99h-61zM163 700v-700h-70v700h70z" />
    <glyph glyph-name="Eth" unicode="&#xd0;" horiz-adv-x="741" 
d="M312 0h-204v354h-77v11h77v335h204q183 0 289.5 -93.5t106.5 -250.5q0 -160 -107.5 -258t-288.5 -98zM178 11h128q164 0 245.5 90.5t81.5 254.5q0 333 -329 333h-126v-324h196v-11h-196v-343z" />
    <glyph glyph-name="Ntilde" unicode="&#xd1;" horiz-adv-x="752" 
d="M459 769q-31 0 -84.5 42t-82.5 42t-46 -20.5t-24 -66.5h-7q7 58 34.5 91t65.5 33q31 0 85 -42t82 -42q29 0 46 20.5t24 66.5h7q-7 -58 -34.5 -91t-65.5 -33zM648 96v604h11v-710h-4l-551 617v-607h-11v710h4z" />
    <glyph glyph-name="Ograve" unicode="&#xd2;" horiz-adv-x="757" 
d="M379 752l-143 165h69l78 -165h-4zM33 350q0 155 102 257.5t244 102.5t243.5 -102.5t101.5 -257.5t-101.5 -257.5t-243.5 -102.5t-244 102.5t-102 257.5zM110 350q0 -166 71 -258t198 -92q126 0 197 92t71 258t-71 258t-197 92q-127 0 -198 -92t-71 -258z" />
    <glyph glyph-name="Oacute" unicode="&#xd3;" horiz-adv-x="757" 
d="M447 917h69l-143 -165h-4zM33 350q0 155 102 257.5t244 102.5t243.5 -102.5t101.5 -257.5t-101.5 -257.5t-243.5 -102.5t-244 102.5t-102 257.5zM110 350q0 -166 71 -258t198 -92q126 0 197 92t71 258t-71 258t-197 92q-127 0 -198 -92t-71 -258z" />
    <glyph glyph-name="Ocircumflex" unicode="&#xd4;" horiz-adv-x="757" 
d="M478 742l-118 145l-120 -145h-12l152 184h2l150 -184h-54zM33 350q0 155 102 257.5t244 102.5t243.5 -102.5t101.5 -257.5t-101.5 -257.5t-243.5 -102.5t-244 102.5t-102 257.5zM110 350q0 -166 71 -258t198 -92q126 0 197 92t71 258t-71 258t-197 92q-127 0 -198 -92
t-71 -258z" />
    <glyph glyph-name="Otilde" unicode="&#xd5;" horiz-adv-x="757" 
d="M452 769q-31 0 -84.5 42t-82.5 42t-46 -20.5t-24 -66.5h-7q7 58 34.5 91t65.5 33q32 0 85 -42t82 -42t46 20.5t24 66.5h7q-7 -58 -34.5 -91t-65.5 -33zM33 350q0 155 102 257.5t244 102.5t243.5 -102.5t101.5 -257.5t-101.5 -257.5t-243.5 -102.5t-244 102.5t-102 257.5z
M110 350q0 -166 71 -258t198 -92q126 0 197 92t71 258t-71 258t-197 92q-127 0 -198 -92t-71 -258z" />
    <glyph glyph-name="Odieresis" unicode="&#xd6;" horiz-adv-x="757" 
d="M420 763v99h61v-99h-61zM277 763v99h61v-99h-61zM33 350q0 155 102 257.5t244 102.5t243.5 -102.5t101.5 -257.5t-101.5 -257.5t-243.5 -102.5t-244 102.5t-102 257.5zM110 350q0 -166 71 -258t198 -92q126 0 197 92t71 258t-71 258t-197 92q-127 0 -198 -92t-71 -258z
" />
    <glyph glyph-name="multiply" unicode="&#xd7;" horiz-adv-x="387" 
d="M329 171l-136 137l-136 -136l-7 7l136 136l-136 136l7 7l136 -136l136 136l7 -7l-136 -136l137 -136z" />
    <glyph glyph-name="Oslash" unicode="&#xd8;" horiz-adv-x="757" 
d="M110 350q0 -162 68 -255l394 518q-70 87 -193 87q-127 0 -198 -92t-71 -258zM379 0q126 0 197 92t71 258q0 162 -68 255l-394 -518q70 -87 194 -87zM379 -10q-117 0 -212 73l-63 -83l-8 7l63 83q-59 49 -92.5 121.5t-33.5 158.5q0 155 102 257.5t244 102.5q117 0 211 -73
l63 83l8 -7l-63 -83q59 -49 92.5 -121.5t33.5 -158.5q0 -155 -101.5 -257.5t-243.5 -102.5z" />
    <glyph glyph-name="Ugrave" unicode="&#xd9;" horiz-adv-x="717" 
d="M364 752l-143 165h69l78 -165h-4zM628 700h11v-431q0 -131 -76.5 -205t-192.5 -74q-143 0 -217.5 76t-74.5 203v431h70v-418q0 -126 56.5 -197.5t176.5 -71.5q109 0 178 67t69 192v428z" />
    <glyph glyph-name="Uacute" unicode="&#xda;" horiz-adv-x="717" 
d="M432 917h69l-143 -165h-4zM628 700h11v-431q0 -131 -76.5 -205t-192.5 -74q-143 0 -217.5 76t-74.5 203v431h70v-418q0 -126 56.5 -197.5t176.5 -71.5q109 0 178 67t69 192v428z" />
    <glyph glyph-name="Ucircumflex" unicode="&#xdb;" horiz-adv-x="717" 
d="M462 742l-118 145l-120 -145h-12l152 184h2l150 -184h-54zM628 700h11v-431q0 -131 -76.5 -205t-192.5 -74q-143 0 -217.5 76t-74.5 203v431h70v-418q0 -126 56.5 -197.5t176.5 -71.5q109 0 178 67t69 192v428z" />
    <glyph glyph-name="Udieresis" unicode="&#xdc;" horiz-adv-x="717" 
d="M405 763v99h61v-99h-61zM262 763v99h61v-99h-61zM628 700h11v-431q0 -131 -76.5 -205t-192.5 -74q-143 0 -217.5 76t-74.5 203v431h70v-418q0 -126 56.5 -197.5t176.5 -71.5q109 0 178 67t69 192v428z" />
    <glyph glyph-name="Yacute" unicode="&#xdd;" horiz-adv-x="612" 
d="M378 917h69l-143 -165h-4zM338 305l248 395h11l-255 -410v-290h-70v289l-257 411h77z" />
    <glyph glyph-name="Thorn" unicode="&#xde;" horiz-adv-x="623" 
d="M163 0h-70v700h70v-120h171q76 0 134.5 -18t97.5 -63t39 -114q0 -53 -21.5 -91.5t-60 -61t-86 -33t-103.5 -10.5h-171v-189zM163 200h167q91 0 144 47.5t53 137.5q0 89 -53 136.5t-144 47.5h-167v-369z" />
    <glyph glyph-name="germandbls" unicode="&#xdf;" horiz-adv-x="588" 
d="M392 514q-52 -37 -72.5 -60.5t-20.5 -53.5t22 -49t103 -59q82 -41 114.5 -70.5t32.5 -83.5q0 -64 -48.5 -106t-119.5 -42q-74 0 -125.5 37t-66.5 101l10 5q14 -63 64 -98t118 -35q52 0 87 30.5t35 83.5q0 38 -26 59.5t-97 57.5q-90 45 -118.5 70.5t-28.5 67.5q0 22 8 41
t30 39.5t38 32.5t54 38q30 21 43.5 33t23.5 32.5t10 49.5q0 47 -40 80t-112 33q-76 0 -121 -60t-45 -178v-510h-67v500q0 123 68 191t160 68q79 0 123 -37t44 -87q0 -41 -18.5 -66t-61.5 -55z" />
    <glyph glyph-name="agrave" unicode="&#xe0;" 
d="M253 559l-143 190h65l82 -190h-4zM365 260l-132 -21q-68 -11 -100.5 -39t-32.5 -79q0 -52 28.5 -81t74.5 -29q62 0 108 52.5t54 122.5v74zM365 270v79q0 63 -34 98.5t-101 35.5t-108.5 -33t-41.5 -84q0 -42 33 -68l-6 -7q-37 26 -37 75q0 57 46.5 92.5t125.5 35.5
q93 0 140.5 -43t47.5 -117v-334h-57l-7 146q-16 -61 -65.5 -108.5t-124.5 -47.5q-62 0 -101.5 33.5t-39.5 87.5q0 106 189 136z" />
    <glyph glyph-name="aacute" unicode="&#xe1;" 
d="M326 749h65l-143 -190h-4zM365 260l-132 -21q-68 -11 -100.5 -39t-32.5 -79q0 -52 28.5 -81t74.5 -29q62 0 108 52.5t54 122.5v74zM365 270v79q0 63 -34 98.5t-101 35.5t-108.5 -33t-41.5 -84q0 -42 33 -68l-6 -7q-37 26 -37 75q0 57 46.5 92.5t125.5 35.5
q93 0 140.5 -43t47.5 -117v-334h-57l-7 146q-16 -61 -65.5 -108.5t-124.5 -47.5q-62 0 -101.5 33.5t-39.5 87.5q0 106 189 136z" />
    <glyph glyph-name="acircumflex" unicode="&#xe2;" 
d="M351 548l-118 158l-120 -158h-12l152 202h2l150 -202h-54zM365 260l-132 -21q-68 -11 -100.5 -39t-32.5 -79q0 -52 28.5 -81t74.5 -29q62 0 108 52.5t54 122.5v74zM365 270v79q0 63 -34 98.5t-101 35.5t-108.5 -33t-41.5 -84q0 -42 33 -68l-6 -7q-37 26 -37 75
q0 57 46.5 92.5t125.5 35.5q93 0 140.5 -43t47.5 -117v-334h-57l-7 146q-16 -61 -65.5 -108.5t-124.5 -47.5q-62 0 -101.5 33.5t-39.5 87.5q0 106 189 136z" />
    <glyph glyph-name="atilde" unicode="&#xe3;" 
d="M322 592q-29 0 -79.5 41.5t-77.5 41.5t-42.5 -19.5t-22.5 -66.5h-7q7 58 32.5 90.5t61.5 32.5q29 0 79.5 -41.5t77.5 -41.5q52 0 64 86h8q-7 -58 -32.5 -90.5t-61.5 -32.5zM365 260l-132 -21q-68 -11 -100.5 -39t-32.5 -79q0 -52 28.5 -81t74.5 -29q62 0 108 52.5
t54 122.5v74zM365 270v79q0 63 -34 98.5t-101 35.5t-108.5 -33t-41.5 -84q0 -42 33 -68l-6 -7q-37 26 -37 75q0 57 46.5 92.5t125.5 35.5q93 0 140.5 -43t47.5 -117v-334h-57l-7 146q-16 -61 -65.5 -108.5t-124.5 -47.5q-62 0 -101.5 33.5t-39.5 87.5q0 106 189 136z" />
    <glyph glyph-name="adieresis" unicode="&#xe4;" 
d="M294 604v96h59v-96h-59zM151 604v96h60v-96h-60zM365 260l-132 -21q-68 -11 -100.5 -39t-32.5 -79q0 -52 28.5 -81t74.5 -29q62 0 108 52.5t54 122.5v74zM365 270v79q0 63 -34 98.5t-101 35.5t-108.5 -33t-41.5 -84q0 -42 33 -68l-6 -7q-37 26 -37 75q0 57 46.5 92.5
t125.5 35.5q93 0 140.5 -43t47.5 -117v-334h-57l-7 146q-16 -61 -65.5 -108.5t-124.5 -47.5q-62 0 -101.5 33.5t-39.5 87.5q0 106 189 136z" />
    <glyph glyph-name="aring" unicode="&#xe5;" 
d="M166 652q0 36 25.5 62t61.5 26q35 0 60.5 -26t25.5 -62q0 -35 -25.5 -60.5t-60.5 -25.5q-36 0 -61.5 25.5t-25.5 60.5zM329 652q0 32 -22.5 55t-53.5 23q-32 0 -54.5 -23t-22.5 -55q0 -31 22.5 -53.5t54.5 -22.5q31 0 53.5 22.5t22.5 53.5zM365 260l-132 -21
q-68 -11 -100.5 -39t-32.5 -79q0 -52 28.5 -81t74.5 -29q62 0 108 52.5t54 122.5v74zM365 270v79q0 63 -34 98.5t-101 35.5t-108.5 -33t-41.5 -84q0 -42 33 -68l-6 -7q-37 26 -37 75q0 57 46.5 92.5t125.5 35.5q93 0 140.5 -43t47.5 -117v-334h-57l-7 146
q-16 -61 -65.5 -108.5t-124.5 -47.5q-62 0 -101.5 33.5t-39.5 87.5q0 106 189 136z" />
    <glyph glyph-name="ae" unicode="&#xe6;" horiz-adv-x="830" 
d="M796 150q-17 -76 -70.5 -118t-134.5 -42q-77 0 -140 49.5t-79 130.5q-12 -76 -63 -128t-133 -52q-62 0 -101.5 34.5t-39.5 88.5q0 108 189 138l141 23v75q0 63 -34 98.5t-101 35.5t-108.5 -33t-41.5 -84q0 -42 33 -68l-6 -7q-37 26 -37 75q0 57 46.5 92.5t125.5 35.5
q68 0 110 -29.5t55 -78.5q30 51 77.5 79.5t100.5 28.5q97 0 154.5 -65t57.5 -163h-364q-1 -9 -1 -28q0 -112 44 -174t130 -62q67 0 116 39.5t64 111.5zM585 485q-62 0 -103.5 -51.5t-48.5 -157.5h293q0 209 -141 209zM365 264l-132 -21q-133 -21 -133 -120q0 -52 29 -81.5
t75 -29.5q67 0 114 57.5t47 147.5v47z" />
    <glyph glyph-name="ccedilla" unicode="&#xe7;" horiz-adv-x="485" 
d="M280 -225q-35 0 -63.5 16t-41.5 41l9 7q12 -25 37 -38.5t53 -13.5q30 0 47.5 17.5t17.5 46.5q0 69 -109 69l28 70q-88 2 -156.5 70t-68.5 177q0 112 74.5 184.5t173.5 72.5q74 0 117.5 -39t43.5 -100q0 -52 -36 -88l-7 7q33 30 33 81q0 56 -39.5 92t-103.5 36
q-80 0 -132.5 -63.5t-52.5 -182.5q0 -110 44.5 -172t128.5 -62q64 0 111.5 39.5t61.5 110.5l10 -3q-15 -74 -65 -116t-127 -44l-24 -62q53 0 93 -19.5t40 -57.5q0 -34 -28 -55t-69 -21z" />
    <glyph glyph-name="egrave" unicode="&#xe8;" horiz-adv-x="503" 
d="M266 559l-143 190h65l82 -190h-4zM468 150q-17 -76 -70 -118t-134 -42q-89 0 -160 70t-71 179q0 112 67.5 183.5t157.5 71.5q97 0 154.5 -65t57.5 -163h-365q-1 -9 -1 -28q0 -112 44.5 -174t129.5 -62q68 0 116.5 39.5t63.5 111.5zM258 485q-62 0 -104 -52t-49 -157h294
q0 209 -141 209z" />
    <glyph glyph-name="eacute" unicode="&#xe9;" horiz-adv-x="503" 
d="M338 749h65l-143 -190h-4zM468 150q-17 -76 -70 -118t-134 -42q-89 0 -160 70t-71 179q0 112 67.5 183.5t157.5 71.5q97 0 154.5 -65t57.5 -163h-365q-1 -9 -1 -28q0 -112 44.5 -174t129.5 -62q68 0 116.5 39.5t63.5 111.5zM258 485q-62 0 -104 -52t-49 -157h294
q0 209 -141 209z" />
    <glyph glyph-name="ecircumflex" unicode="&#xea;" horiz-adv-x="503" 
d="M362 548l-118 158l-120 -158h-12l152 202h2l150 -202h-54zM468 150q-17 -76 -70 -118t-134 -42q-89 0 -160 70t-71 179q0 112 67.5 183.5t157.5 71.5q97 0 154.5 -65t57.5 -163h-365q-1 -9 -1 -28q0 -112 44.5 -174t129.5 -62q68 0 116.5 39.5t63.5 111.5zM258 485
q-62 0 -104 -52t-49 -157h294q0 209 -141 209z" />
    <glyph glyph-name="edieresis" unicode="&#xeb;" horiz-adv-x="503" 
d="M306 604v96h59v-96h-59zM163 604v96h60v-96h-60zM468 150q-17 -76 -70 -118t-134 -42q-89 0 -160 70t-71 179q0 112 67.5 183.5t157.5 71.5q97 0 154.5 -65t57.5 -163h-365q-1 -9 -1 -28q0 -112 44.5 -174t129.5 -62q68 0 116.5 39.5t63.5 111.5zM258 485q-62 0 -104 -52
t-49 -157h294q0 209 -141 209z" />
    <glyph glyph-name="igrave" unicode="&#xec;" horiz-adv-x="221" 
d="M114 559l-143 190h65l82 -190h-4zM144 484v-484h-67v484h67z" />
    <glyph glyph-name="iacute" unicode="&#xed;" horiz-adv-x="221" 
d="M183 749h65l-143 -190h-4zM144 484v-484h-67v484h67z" />
    <glyph glyph-name="icircumflex" unicode="&#xee;" horiz-adv-x="221" 
d="M109 750h2l121 -202h-51l-92 153l-91 -153h-11zM144 484v-484h-67v484h67z" />
    <glyph glyph-name="idieresis" unicode="&#xef;" horiz-adv-x="221" 
d="M10 604v96h58v-96h-58zM151 604v96h59v-96h-59zM144 484v-484h-67v484h67z" />
    <glyph glyph-name="eth" unicode="&#xf0;" horiz-adv-x="540" 
d="M270 -10q-99 0 -168 74t-69 177q0 104 69 178.5t168 74.5q108 0 155 -103q-5 160 -111 260l-132 -76l-4 8l129 74q-79 71 -200 96l2 8q120 -22 213 -96l95 55l5 -8l-93 -53q84 -69 131 -170.5t47 -211.5q0 -127 -64 -207t-173 -80zM270 485q-79 0 -122.5 -61t-43.5 -183
q0 -120 44 -181t122 -61t122 61t44 181q0 122 -43.5 183t-122.5 61z" />
    <glyph glyph-name="ntilde" unicode="&#xf1;" horiz-adv-x="550" 
d="M356 592q-29 0 -79.5 41.5t-77.5 41.5t-42.5 -19.5t-22.5 -66.5h-7q7 58 32.5 90.5t61.5 32.5q29 0 79.5 -41.5t77.5 -41.5q52 0 64 86h8q-7 -58 -32.5 -90.5t-61.5 -32.5zM144 300v-300h-67v484h63l4 -125q17 62 64.5 98.5t111.5 36.5q76 0 118.5 -45t42.5 -123v-326
h-67v343q0 135 -115 135q-62 0 -108 -50.5t-47 -127.5z" />
    <glyph glyph-name="ograve" unicode="&#xf2;" horiz-adv-x="540" 
d="M272 559l-143 190h65l82 -190h-4zM270 -10q-99 0 -168 74t-69 177q0 104 69 178.5t168 74.5q100 0 168.5 -74.5t68.5 -178.5t-68.5 -177.5t-168.5 -73.5zM270 485q-79 0 -122.5 -61t-43.5 -183q0 -120 44 -181t122 -61t122 61t44 181q0 122 -43.5 183t-122.5 61z" />
    <glyph glyph-name="oacute" unicode="&#xf3;" horiz-adv-x="540" 
d="M344 749h65l-143 -190h-4zM270 -10q-99 0 -168 74t-69 177q0 104 69 178.5t168 74.5q100 0 168.5 -74.5t68.5 -178.5t-68.5 -177.5t-168.5 -73.5zM270 485q-79 0 -122.5 -61t-43.5 -183q0 -120 44 -181t122 -61t122 61t44 181q0 122 -43.5 183t-122.5 61z" />
    <glyph glyph-name="ocircumflex" unicode="&#xf4;" horiz-adv-x="540" 
d="M369 548l-118 158l-120 -158h-12l152 202h2l150 -202h-54zM270 -10q-99 0 -168 74t-69 177q0 104 69 178.5t168 74.5q100 0 168.5 -74.5t68.5 -178.5t-68.5 -177.5t-168.5 -73.5zM270 485q-79 0 -122.5 -61t-43.5 -183q0 -120 44 -181t122 -61t122 61t44 181
q0 122 -43.5 183t-122.5 61z" />
    <glyph glyph-name="otilde" unicode="&#xf5;" horiz-adv-x="540" 
d="M338 592q-29 0 -79.5 41.5t-77.5 41.5t-42.5 -19.5t-22.5 -66.5h-7q7 58 32.5 90.5t61.5 32.5q29 0 79.5 -41.5t77.5 -41.5q52 0 64 86h8q-7 -58 -32.5 -90.5t-61.5 -32.5zM270 -10q-99 0 -168 74t-69 177q0 104 69 178.5t168 74.5q100 0 168.5 -74.5t68.5 -178.5
t-68.5 -177.5t-168.5 -73.5zM270 485q-79 0 -122.5 -61t-43.5 -183q0 -120 44 -181t122 -61t122 61t44 181q0 122 -43.5 183t-122.5 61z" />
    <glyph glyph-name="odieresis" unicode="&#xf6;" horiz-adv-x="540" 
d="M312 604v96h59v-96h-59zM169 604v96h60v-96h-60zM270 -10q-99 0 -168 74t-69 177q0 104 69 178.5t168 74.5q100 0 168.5 -74.5t68.5 -178.5t-68.5 -177.5t-168.5 -73.5zM270 485q-79 0 -122.5 -61t-43.5 -183q0 -120 44 -181t122 -61t122 61t44 181q0 122 -43.5 183
t-122.5 61z" />
    <glyph glyph-name="divide" unicode="&#xf7;" horiz-adv-x="487" 
d="M211 448v62h65v-62h-65zM44 315v10h399v-10h-399zM211 130v62h65v-62h-65z" />
    <glyph glyph-name="oslash" unicode="&#xf8;" horiz-adv-x="540" 
d="M104 241q0 -106 36 -169l255 348q-43 65 -125 65q-79 0 -122.5 -61t-43.5 -183zM270 -1q78 0 122 61t44 181q0 107 -36 170l-255 -347q43 -65 125 -65zM270 -10q-79 0 -142 50l-43 -58l-8 5l43 59q-87 76 -87 195q0 104 69 178.5t168 74.5q79 0 142 -50l43 58l8 -5
l-43 -59q87 -77 87 -197q0 -104 -68.5 -177.5t-168.5 -73.5z" />
    <glyph glyph-name="ugrave" unicode="&#xf9;" horiz-adv-x="541" 
d="M268 559l-143 190h65l82 -190h-4zM398 184v300h66v-484h-62l-4 125q-18 -63 -63 -99t-108 -36q-73 0 -115 46t-42 124v324h66v-341q0 -62 27.5 -99.5t85.5 -37.5q60 0 104 50t45 128z" />
    <glyph glyph-name="uacute" unicode="&#xfa;" horiz-adv-x="541" 
d="M341 749h65l-143 -190h-4zM398 184v300h66v-484h-62l-4 125q-18 -63 -63 -99t-108 -36q-73 0 -115 46t-42 124v324h66v-341q0 -62 27.5 -99.5t85.5 -37.5q60 0 104 50t45 128z" />
    <glyph glyph-name="ucircumflex" unicode="&#xfb;" horiz-adv-x="541" 
d="M365 548l-118 158l-120 -158h-12l152 202h2l150 -202h-54zM398 184v300h66v-484h-62l-4 125q-18 -63 -63 -99t-108 -36q-73 0 -115 46t-42 124v324h66v-341q0 -62 27.5 -99.5t85.5 -37.5q60 0 104 50t45 128z" />
    <glyph glyph-name="udieresis" unicode="&#xfc;" horiz-adv-x="541" 
d="M309 604v96h59v-96h-59zM166 604v96h60v-96h-60zM398 184v300h66v-484h-62l-4 125q-18 -63 -63 -99t-108 -36q-73 0 -115 46t-42 124v324h66v-341q0 -62 27.5 -99.5t85.5 -37.5q60 0 104 50t45 128z" />
    <glyph glyph-name="yacute" unicode="&#xfd;" horiz-adv-x="453" 
d="M319 749h65l-143 -190h-4zM58 -225q-38 0 -61 24t-23 63q0 24 12 44l10 -3q-12 -21 -12 -41q0 -34 20.5 -55.5t53.5 -21.5q41 0 69 34t65 117l31 70l-216 478h70l179 -404l179 404h12l-244 -551q-38 -87 -69.5 -122.5t-75.5 -35.5z" />
    <glyph glyph-name="thorn" unicode="&#xfe;" horiz-adv-x="570" 
d="M143 292v-97q1 -83 49.5 -136.5t117.5 -53.5q73 0 114.5 68t41.5 172t-41 169.5t-114 65.5q-67 0 -117 -53t-51 -135zM144 128v-343h-67v964h67v-394q16 59 64 99t114 40q90 0 152.5 -69.5t62.5 -180.5q0 -112 -62.5 -183t-152.5 -71q-65 0 -113 39t-65 99z" />
    <glyph glyph-name="ydieresis" unicode="&#xff;" horiz-adv-x="453" 
d="M287 604v96h59v-96h-59zM144 604v96h60v-96h-60zM58 -225q-38 0 -61 24t-23 63q0 24 12 44l10 -3q-12 -21 -12 -41q0 -34 20.5 -55.5t53.5 -21.5q41 0 69 34t65 117l31 70l-216 478h70l179 -404l179 404h12l-244 -551q-38 -87 -69.5 -122.5t-75.5 -35.5z" />
    <glyph glyph-name="Amacron" unicode="&#x100;" horiz-adv-x="663" 
d="M467 785h-276v10h276v-10zM461 257l-164 363l-158 -363h322zM577 0l-111 246h-332l-107 -246h-12l309 710h4l321 -710h-72z" />
    <glyph glyph-name="amacron" unicode="&#x101;" 
d="M390 632h-276v10h276v-10zM365 260l-132 -21q-68 -11 -100.5 -39t-32.5 -79q0 -52 28.5 -81t74.5 -29q62 0 108 52.5t54 122.5v74zM365 270v79q0 63 -34 98.5t-101 35.5t-108.5 -33t-41.5 -84q0 -42 33 -68l-6 -7q-37 26 -37 75q0 57 46.5 92.5t125.5 35.5
q93 0 140.5 -43t47.5 -117v-334h-57l-7 146q-16 -61 -65.5 -108.5t-124.5 -47.5q-62 0 -101.5 33.5t-39.5 87.5q0 106 189 136z" />
    <glyph glyph-name="Abreve" unicode="&#x102;" horiz-adv-x="663" 
d="M471 920q0 -71 -40.5 -118t-101.5 -47t-101.5 47t-40.5 118h7q3 -121 135 -121t135 121h7zM461 257l-164 363l-158 -363h322zM577 0l-111 246h-332l-107 -246h-12l309 710h4l321 -710h-72z" />
    <glyph glyph-name="abreve" unicode="&#x103;" 
d="M394 745q0 -80 -40 -129.5t-102 -49.5t-102 49.5t-40 129.5h6q3 -135 136 -135t136 135h6zM365 260l-132 -21q-68 -11 -100.5 -39t-32.5 -79q0 -52 28.5 -81t74.5 -29q62 0 108 52.5t54 122.5v74zM365 270v79q0 63 -34 98.5t-101 35.5t-108.5 -33t-41.5 -84q0 -42 33 -68
l-6 -7q-37 26 -37 75q0 57 46.5 92.5t125.5 35.5q93 0 140.5 -43t47.5 -117v-334h-57l-7 146q-16 -61 -65.5 -108.5t-124.5 -47.5q-62 0 -101.5 33.5t-39.5 87.5q0 106 189 136z" />
    <glyph glyph-name="Aogonek" unicode="&#x104;" horiz-adv-x="663" 
d="M650 -132q-37 -93 -124 -93q-38 0 -65 22.5t-27 59.5q0 21 9 39.5t34 39t41 31.5t57 38l-109 241h-332l-107 -246h-12l309 710h4l321 -710h-67q-64 -43 -88.5 -70t-24.5 -68q0 -33 21 -53t50 -20q70 0 102 82zM461 257l-165 364l-158 -364h323z" />
    <glyph glyph-name="aogonek" unicode="&#x105;" 
d="M365 260l-132 -21q-68 -11 -100.5 -39t-32.5 -79q0 -52 28.5 -81t74.5 -29q62 0 108 52.5t54 122.5v74zM445 -132q-36 -93 -123 -93q-38 0 -65.5 22.5t-27.5 59.5q0 22 9.5 40.5t35 39.5t42.5 32.5t57 36.5l-7 140q-16 -61 -65.5 -108.5t-124.5 -47.5q-62 0 -101.5 33.5
t-39.5 87.5q0 106 189 136l141 23v79q0 63 -34 98.5t-101 35.5t-108.5 -33t-41.5 -84q0 -42 33 -68l-6 -7q-37 26 -37 75q0 57 46.5 92.5t125.5 35.5q93 0 140.5 -43t47.5 -117v-334h-52q-64 -43 -88.5 -70t-24.5 -68q0 -33 20.5 -53t49.5 -20q69 0 103 82z" />
    <glyph glyph-name="Cacute" unicode="&#x106;" horiz-adv-x="668" 
d="M445 917h69l-143 -165h-4zM33 349q0 155 98.5 258t242.5 103q91 0 161 -44.5t103 -133.5l-10 -4q-31 84 -96 127.5t-152 43.5q-123 0 -196.5 -91.5t-73.5 -257.5q0 -165 73.5 -256.5t196.5 -91.5q88 0 153.5 42t97.5 126l9 -4q-34 -89 -104 -132.5t-162 -43.5
q-144 0 -242.5 102t-98.5 257z" />
    <glyph glyph-name="cacute" unicode="&#x107;" horiz-adv-x="485" 
d="M358 749h65l-143 -190h-4zM289 483q-80 0 -132.5 -63.5t-52.5 -182.5q0 -110 44.5 -172t128.5 -62q64 0 111.5 39.5t61.5 110.5l10 -3q-15 -76 -67.5 -118t-131.5 -42q-89 0 -158.5 68.5t-69.5 178.5q0 112 74.5 184.5t173.5 72.5q74 0 117.5 -39t43.5 -100
q0 -52 -36 -88l-7 7q33 30 33 81q0 56 -39.5 92t-103.5 36z" />
    <glyph glyph-name="Ccircumflex" unicode="&#x108;" horiz-adv-x="668" 
d="M474 742l-118 145l-120 -145h-12l152 184h2l150 -184h-54zM33 349q0 155 98.5 258t242.5 103q91 0 161 -44.5t103 -133.5l-10 -4q-31 84 -96 127.5t-152 43.5q-123 0 -196.5 -91.5t-73.5 -257.5q0 -165 73.5 -256.5t196.5 -91.5q88 0 153.5 42t97.5 126l9 -4
q-34 -89 -104 -132.5t-162 -43.5q-144 0 -242.5 102t-98.5 257z" />
    <glyph glyph-name="ccircumflex" unicode="&#x109;" horiz-adv-x="485" 
d="M383 548l-118 158l-120 -158h-12l152 202h2l150 -202h-54zM289 483q-80 0 -132.5 -63.5t-52.5 -182.5q0 -110 44.5 -172t128.5 -62q64 0 111.5 39.5t61.5 110.5l10 -3q-15 -76 -67.5 -118t-131.5 -42q-89 0 -158.5 68.5t-69.5 178.5q0 112 74.5 184.5t173.5 72.5
q74 0 117.5 -39t43.5 -100q0 -52 -36 -88l-7 7q33 30 33 81q0 56 -39.5 92t-103.5 36z" />
    <glyph glyph-name="Cdotaccent" unicode="&#x10a;" horiz-adv-x="668" 
d="M339 763v99h75v-99h-75zM33 349q0 155 98.5 258t242.5 103q91 0 161 -44.5t103 -133.5l-10 -4q-31 84 -96 127.5t-152 43.5q-123 0 -196.5 -91.5t-73.5 -257.5q0 -165 73.5 -256.5t196.5 -91.5q88 0 153.5 42t97.5 126l9 -4q-34 -89 -104 -132.5t-162 -43.5
q-144 0 -242.5 102t-98.5 257z" />
    <glyph glyph-name="cdotaccent" unicode="&#x10b;" horiz-adv-x="485" 
d="M251 604v96h70v-96h-70zM289 483q-80 0 -132.5 -63.5t-52.5 -182.5q0 -110 44.5 -172t128.5 -62q64 0 111.5 39.5t61.5 110.5l10 -3q-15 -76 -67.5 -118t-131.5 -42q-89 0 -158.5 68.5t-69.5 178.5q0 112 74.5 184.5t173.5 72.5q74 0 117.5 -39t43.5 -100q0 -52 -36 -88
l-7 7q33 30 33 81q0 56 -39.5 92t-103.5 36z" />
    <glyph glyph-name="Ccaron" unicode="&#x10c;" horiz-adv-x="668" 
d="M377 741h-2l-151 184h54l118 -145l120 145h12zM33 349q0 155 98.5 258t242.5 103q91 0 161 -44.5t103 -133.5l-10 -4q-31 84 -96 127.5t-152 43.5q-123 0 -196.5 -91.5t-73.5 -257.5q0 -165 73.5 -256.5t196.5 -91.5q88 0 153.5 42t97.5 126l9 -4q-34 -89 -104 -132.5
t-162 -43.5q-144 0 -242.5 102t-98.5 257z" />
    <glyph glyph-name="ccaron" unicode="&#x10d;" horiz-adv-x="485" 
d="M286 548h-2l-151 202h54l118 -159l120 159h12zM289 483q-80 0 -132.5 -63.5t-52.5 -182.5q0 -110 44.5 -172t128.5 -62q64 0 111.5 39.5t61.5 110.5l10 -3q-15 -76 -67.5 -118t-131.5 -42q-89 0 -158.5 68.5t-69.5 178.5q0 112 74.5 184.5t173.5 72.5q74 0 117.5 -39
t43.5 -100q0 -52 -36 -88l-7 7q33 30 33 81q0 56 -39.5 92t-103.5 36z" />
    <glyph glyph-name="Dcaron" unicode="&#x10e;" horiz-adv-x="727" 
d="M336 741h-2l-151 184h54l118 -145l120 145h12zM297 0h-204v700h204q183 0 289.5 -93.5t106.5 -250.5q0 -160 -107.5 -258t-288.5 -98zM618 356q0 333 -329 333h-126v-678h128q164 0 245.5 90.5t81.5 254.5z" />
    <glyph glyph-name="dcaron" unicode="&#x10f;" horiz-adv-x="570" 
d="M657 749l-83 -208h-4l24 208h63zM428 192v97q-1 84 -49.5 137t-118.5 53q-73 0 -114 -68t-41 -172t41 -169.5t114 -65.5q67 0 117 53t51 135zM427 357v392h66v-749h-62l-4 129q-16 -59 -64.5 -99t-114.5 -40q-89 0 -152 70t-63 180q0 112 62.5 183t152.5 71
q66 0 113.5 -38.5t65.5 -98.5z" />
    <glyph glyph-name="Dcroat" unicode="&#x110;" horiz-adv-x="741" 
d="M312 0h-204v354h-77v11h77v335h204q183 0 289.5 -93.5t106.5 -250.5q0 -160 -107.5 -258t-288.5 -98zM178 11h128q164 0 245.5 90.5t81.5 254.5q0 333 -329 333h-126v-324h196v-11h-196v-343z" />
    <glyph glyph-name="dcroat" unicode="&#x111;" horiz-adv-x="570" 
d="M428 192v97q-1 84 -49.5 137t-118.5 53q-73 0 -114 -68t-41 -172t41 -169.5t114 -65.5q67 0 117 53t51 135zM427 129q-16 -59 -64.5 -99t-114.5 -40q-89 0 -152 70t-63 180q0 112 62.5 183t152.5 71q66 0 113.5 -38.5t65.5 -98.5v275h-155v10h155v107h66v-107h58v-10h-58
v-632h-62z" />
    <glyph glyph-name="Emacron" unicode="&#x112;" horiz-adv-x="603" 
d="M474 785h-276v10h276v-10zM93 0v700h454v-11h-384v-324h288v-11h-288v-343h396v-11h-466z" />
    <glyph glyph-name="emacron" unicode="&#x113;" horiz-adv-x="503" 
d="M402 632h-276v10h276v-10zM468 150q-17 -76 -70 -118t-134 -42q-89 0 -160 70t-71 179q0 112 67.5 183.5t157.5 71.5q97 0 154.5 -65t57.5 -163h-365q-1 -9 -1 -28q0 -112 44.5 -174t129.5 -62q68 0 116.5 39.5t63.5 111.5zM258 485q-62 0 -104 -52t-49 -157h294
q0 209 -141 209z" />
    <glyph glyph-name="Ebreve" unicode="&#x114;" horiz-adv-x="603" 
d="M478 920q0 -71 -40.5 -118t-101.5 -47t-101.5 47t-40.5 118h7q3 -121 135 -121t135 121h7zM93 0v700h454v-11h-384v-324h288v-11h-288v-343h396v-11h-466z" />
    <glyph glyph-name="ebreve" unicode="&#x115;" horiz-adv-x="503" 
d="M406 745q0 -80 -40 -129.5t-102 -49.5t-102 49.5t-40 129.5h6q3 -135 136 -135t136 135h6zM468 150q-17 -76 -70 -118t-134 -42q-89 0 -160 70t-71 179q0 112 67.5 183.5t157.5 71.5q97 0 154.5 -65t57.5 -163h-365q-1 -9 -1 -28q0 -112 44.5 -174t129.5 -62
q68 0 116.5 39.5t63.5 111.5zM258 485q-62 0 -104 -52t-49 -157h294q0 209 -141 209z" />
    <glyph glyph-name="Edotaccent" unicode="&#x116;" horiz-adv-x="603" 
d="M299 763v99h75v-99h-75zM93 0v700h454v-11h-384v-324h288v-11h-288v-343h396v-11h-466z" />
    <glyph glyph-name="edotaccent" unicode="&#x117;" horiz-adv-x="503" 
d="M230 604v96h70v-96h-70zM468 150q-17 -76 -70 -118t-134 -42q-89 0 -160 70t-71 179q0 112 67.5 183.5t157.5 71.5q97 0 154.5 -65t57.5 -163h-365q-1 -9 -1 -28q0 -112 44.5 -174t129.5 -62q68 0 116.5 39.5t63.5 111.5zM258 485q-62 0 -104 -52t-49 -157h294
q0 209 -141 209z" />
    <glyph glyph-name="Eogonek" unicode="&#x118;" horiz-adv-x="603" 
d="M541 -132q-36 -93 -123 -93q-38 0 -65.5 22.5t-27.5 59.5q0 20 9 38t31 37t40.5 32t53.5 36h-366v700h454v-11h-384v-324h288v-11h-288v-343h396v-11h-85q-64 -43 -88.5 -70t-24.5 -68q0 -33 20.5 -53t49.5 -20q69 0 103 82z" />
    <glyph glyph-name="eogonek" unicode="&#x119;" horiz-adv-x="503" 
d="M429 -132q-36 -93 -124 -93q-38 0 -65 22.5t-27 59.5q0 63 119 142q-32 -9 -68 -9q-89 0 -160 70t-71 179q0 112 67.5 183.5t157.5 71.5q97 0 154.5 -65t57.5 -163h-365q-1 -9 -1 -28q0 -112 44.5 -174t129.5 -62q68 0 116.5 39.5t63.5 111.5l10 -3q-21 -97 -102 -138
q-62 -42 -89.5 -74.5t-27.5 -75.5q0 -33 20.5 -53t49.5 -20q70 0 102 82zM258 485q-61 0 -103.5 -51.5t-49.5 -157.5h294q0 209 -141 209z" />
    <glyph glyph-name="Ecaron" unicode="&#x11a;" horiz-adv-x="603" 
d="M337 741h-2l-151 184h54l118 -145l120 145h12zM93 0v700h454v-11h-384v-324h288v-11h-288v-343h396v-11h-466z" />
    <glyph glyph-name="ecaron" unicode="&#x11b;" horiz-adv-x="503" 
d="M265 548h-2l-151 202h54l118 -159l120 159h12zM468 150q-17 -76 -70 -118t-134 -42q-89 0 -160 70t-71 179q0 112 67.5 183.5t157.5 71.5q97 0 154.5 -65t57.5 -163h-365q-1 -9 -1 -28q0 -112 44.5 -174t129.5 -62q68 0 116.5 39.5t63.5 111.5zM258 485q-62 0 -104 -52
t-49 -157h294q0 209 -141 209z" />
    <glyph glyph-name="Gcircumflex" unicode="&#x11c;" horiz-adv-x="731" 
d="M485 742l-118 145l-120 -145h-12l152 184h2l150 -184h-54zM677 -10h-4l-60 147q-26 -63 -87.5 -105t-146.5 -42q-146 0 -246 101.5t-100 257.5t103 258.5t250 102.5q94 0 165.5 -44t106.5 -133l-9 -4q-33 84 -101 127t-157 43q-127 0 -204 -92t-77 -258t72.5 -257.5
t197.5 -91.5q97 0 162.5 61t65.5 162v91h69v-324z" />
    <glyph glyph-name="gcircumflex" unicode="&#x11d;" horiz-adv-x="519" 
d="M344 553l-118 158l-120 -158h-12l152 202h2l150 -202h-54zM360 334q0 70 -30 110.5t-89 40.5t-89.5 -40.5t-30.5 -110.5q0 -72 30.5 -112.5t89.5 -40.5t89 40.5t30 112.5zM507 -39q0 -83 -80 -134.5t-190 -51.5q-108 0 -174 35.5t-66 102.5q0 50 43 82t98 32
q-37 7 -61 29t-24 56q0 61 75 91q-76 48 -76 131q0 66 54.5 113t134.5 47q71 0 125 -39q49 77 106 77q30 0 47.5 -18t17.5 -46q0 -29 -17 -50l-7 6q14 18 14 44q0 24 -15.5 39t-39.5 15q-55 0 -98 -73q57 -47 57 -115t-55 -115t-135 -47q-57 0 -104 26q-65 -25 -65 -67
q0 -47 81 -47h201q71 0 112 -30t41 -93zM362 22h-204q-55 0 -103 -28t-48 -81q0 -63 63 -95.5t167 -32.5q97 0 168.5 41.5t71.5 110.5q0 85 -115 85z" />
    <glyph glyph-name="Gbreve" unicode="&#x11e;" horiz-adv-x="731" 
d="M529 920q0 -71 -40.5 -118t-101.5 -47t-101.5 47t-40.5 118h7q3 -121 135 -121t135 121h7zM677 -10h-4l-60 147q-26 -63 -87.5 -105t-146.5 -42q-146 0 -246 101.5t-100 257.5t103 258.5t250 102.5q94 0 165.5 -44t106.5 -133l-9 -4q-33 84 -101 127t-157 43
q-127 0 -204 -92t-77 -258t72.5 -257.5t197.5 -91.5q97 0 162.5 61t65.5 162v91h69v-324z" />
    <glyph glyph-name="gbreve" unicode="&#x11f;" horiz-adv-x="519" 
d="M386 745q0 -80 -40 -129.5t-102 -49.5t-102 49.5t-40 129.5h6q3 -135 136 -135t136 135h6zM360 334q0 70 -30 110.5t-89 40.5t-89.5 -40.5t-30.5 -110.5q0 -72 30.5 -112.5t89.5 -40.5t89 40.5t30 112.5zM507 -39q0 -83 -80 -134.5t-190 -51.5q-108 0 -174 35.5
t-66 102.5q0 50 43 82t98 32q-37 7 -61 29t-24 56q0 61 75 91q-76 48 -76 131q0 66 54.5 113t134.5 47q71 0 125 -39q49 77 106 77q30 0 47.5 -18t17.5 -46q0 -29 -17 -50l-7 6q14 18 14 44q0 24 -15.5 39t-39.5 15q-55 0 -98 -73q57 -47 57 -115t-55 -115t-135 -47
q-57 0 -104 26q-65 -25 -65 -67q0 -47 81 -47h201q71 0 112 -30t41 -93zM362 22h-204q-55 0 -103 -28t-48 -81q0 -63 63 -95.5t167 -32.5q97 0 168.5 41.5t71.5 110.5q0 85 -115 85z" />
    <glyph glyph-name="Gdotaccent" unicode="&#x120;" horiz-adv-x="731" 
d="M350 763v99h75v-99h-75zM677 -10h-4l-60 147q-26 -63 -87.5 -105t-146.5 -42q-146 0 -246 101.5t-100 257.5t103 258.5t250 102.5q94 0 165.5 -44t106.5 -133l-9 -4q-33 84 -101 127t-157 43q-127 0 -204 -92t-77 -258t72.5 -257.5t197.5 -91.5q97 0 162.5 61t65.5 162
v91h69v-324z" />
    <glyph glyph-name="gdotaccent" unicode="&#x121;" horiz-adv-x="519" 
d="M210 604v96h70v-96h-70zM360 334q0 70 -30 110.5t-89 40.5t-89.5 -40.5t-30.5 -110.5q0 -72 30.5 -112.5t89.5 -40.5t89 40.5t30 112.5zM507 -39q0 -83 -80 -134.5t-190 -51.5q-108 0 -174 35.5t-66 102.5q0 50 43 82t98 32q-37 7 -61 29t-24 56q0 61 75 91
q-76 48 -76 131q0 66 54.5 113t134.5 47q71 0 125 -39q49 77 106 77q30 0 47.5 -18t17.5 -46q0 -29 -17 -50l-7 6q14 18 14 44q0 24 -15.5 39t-39.5 15q-55 0 -98 -73q57 -47 57 -115t-55 -115t-135 -47q-57 0 -104 26q-65 -25 -65 -67q0 -47 81 -47h201q71 0 112 -30
t41 -93zM362 22h-204q-55 0 -103 -28t-48 -81q0 -63 63 -95.5t167 -32.5q97 0 168.5 41.5t71.5 110.5q0 85 -115 85z" />
    <glyph glyph-name="uni0122" unicode="&#x122;" horiz-adv-x="731" 
d="M677 -10h-4l-60 147q-26 -63 -87.5 -105t-146.5 -42q-146 0 -246 101.5t-100 257.5t103 258.5t250 102.5q94 0 165.5 -44t106.5 -133l-9 -4q-33 84 -101 127t-157 43q-127 0 -204 -92t-77 -258t72.5 -257.5t197.5 -91.5q97 0 162.5 61t65.5 162v91h69v-324zM331 -142v86
h81v-87q0 -107 -104 -103v10q52 -1 73 23t21 71h-71z" />
    <glyph glyph-name="uni0123" unicode="&#x123;" horiz-adv-x="519" 
d="M297 667v-87h-81v88q0 106 105 102v-10q-53 2 -74 -22.5t-21 -70.5h71zM360 334q0 70 -30 110.5t-89 40.5t-89.5 -40.5t-30.5 -110.5q0 -72 30.5 -112.5t89.5 -40.5t89 40.5t30 112.5zM507 -39q0 -83 -80 -134.5t-190 -51.5q-108 0 -174 35.5t-66 102.5q0 50 43 82t98 32
q-37 7 -61 29t-24 56q0 61 75 91q-76 48 -76 131q0 66 54.5 113t134.5 47q71 0 125 -39q49 77 106 77q30 0 47.5 -18t17.5 -46q0 -29 -17 -50l-7 6q14 18 14 44q0 24 -15.5 39t-39.5 15q-55 0 -98 -73q57 -47 57 -115t-55 -115t-135 -47q-57 0 -104 26q-65 -25 -65 -67
q0 -47 81 -47h201q71 0 112 -30t41 -93zM362 22h-204q-55 0 -103 -28t-48 -81q0 -63 63 -95.5t167 -32.5q97 0 168.5 41.5t71.5 110.5q0 85 -115 85z" />
    <glyph glyph-name="Hcircumflex" unicode="&#x124;" horiz-adv-x="788" 
d="M491 742l-118 145l-120 -145h-12l152 184h2l150 -184h-54zM93 0v700h70v-335h462v335h70v-700h-70v354h-462v-354h-70z" />
    <glyph glyph-name="hcircumflex" unicode="&#x125;" horiz-adv-x="550" 
d="M376 773l-118 145l-120 -145h-12l152 184h2l150 -184h-54zM77 749h67v-390q17 62 64.5 98.5t111.5 36.5q76 0 118.5 -45t42.5 -123v-326h-67v343q0 135 -115 135q-62 0 -108 -50.5t-47 -127.5v-300h-67v749z" />
    <glyph glyph-name="Hbar" unicode="&#x126;" horiz-adv-x="817" 
d="M177 294h463v168h-463v-168zM177 283v-283h-69v462h-77v11h77v227h69v-227h463v227h69v-227h77v-11h-77v-462h-69v283h-463z" />
    <glyph glyph-name="hbar" unicode="&#x127;" horiz-adv-x="550" 
d="M144 300v-300h-67v632h-57v10h57v107h67v-107h155v-10h-155v-273q17 62 64.5 98.5t111.5 36.5q76 0 118.5 -45t42.5 -123v-326h-67v343q0 135 -115 135q-62 0 -108 -50.5t-47 -127.5z" />
    <glyph glyph-name="Itilde" unicode="&#x128;" horiz-adv-x="256" 
d="M200 769q-31 0 -84.5 42t-82.5 42t-46 -20.5t-24 -66.5h-7q7 58 34.5 91t65.5 33q31 0 84.5 -42t82.5 -42t46 20.5t24 66.5h7q-7 -58 -34.5 -91t-65.5 -33zM163 700v-700h-70v700h70z" />
    <glyph glyph-name="itilde" unicode="&#x129;" horiz-adv-x="221" 
d="M162 592q-22 0 -62 40t-56 40q-21 0 -31 -18t-16 -65h-8q5 58 24.5 90.5t46.5 32.5q23 0 62.5 -39.5t55.5 -39.5q20 0 30.5 18t14.5 64h9q-4 -57 -23.5 -90t-46.5 -33zM144 484v-484h-67v484h67z" />
    <glyph glyph-name="Imacron" unicode="&#x12a;" horiz-adv-x="256" 
d="M265 785h-276v10h276v-10zM163 700v-700h-70v700h70z" />
    <glyph glyph-name="imacron" unicode="&#x12b;" horiz-adv-x="221" 
d="M220 629h-220v13h220v-13zM144 484v-484h-67v484h67z" />
    <glyph glyph-name="Ibreve" unicode="&#x12c;" horiz-adv-x="256" 
d="M269 920q0 -71 -40.5 -118t-101.5 -47t-101.5 47t-40.5 118h7q3 -121 135 -121t135 121h7zM163 700v-700h-70v700h70z" />
    <glyph glyph-name="ibreve" unicode="&#x12d;" horiz-adv-x="221" 
d="M233 745q0 -83 -34 -131t-89 -48q-54 0 -88 48t-34 131h8q3 -135 114 -135q113 0 114 135h9zM144 484v-484h-67v484h67z" />
    <glyph glyph-name="Iogonek" unicode="&#x12e;" horiz-adv-x="256" 
d="M219 -132q-36 -93 -123 -93q-38 0 -65.5 22.5t-27.5 59.5q0 20 9 38t31 37t40.5 32t53.5 36h-44v700h70v-700h-11q-64 -43 -88.5 -70t-24.5 -68q0 -33 20.5 -53t49.5 -20q69 0 103 82z" />
    <glyph glyph-name="iogonek" unicode="&#x12f;" horiz-adv-x="221" 
d="M75 604v96h70v-96h-70zM198 -132q-36 -93 -123 -93q-38 0 -65.5 22.5t-27.5 59.5q0 20 9 38t31 37t40.5 32t53.5 36h-39v484h67v-484h-13q-64 -43 -88.5 -70t-24.5 -68q0 -33 20.5 -53t49.5 -20q69 0 103 82z" />
    <glyph glyph-name="Idotaccent" unicode="&#x130;" horiz-adv-x="256" 
d="M90 763v99h75v-99h-75zM163 700v-700h-70v700h70z" />
    <glyph glyph-name="dotlessi" unicode="&#x131;" horiz-adv-x="221" 
d="M144 484v-484h-67v484h67z" />
    <glyph glyph-name="Jcircumflex" unicode="&#x134;" horiz-adv-x="559" 
d="M541 742l-118 145l-120 -145h-12l152 184h2l150 -184h-54zM412 217v483h69v-468q0 -109 -67.5 -175.5t-174.5 -66.5q-97 0 -156 55t-59 140q0 45 19.5 81.5t47.5 54.5l5 -8q-62 -45 -62 -128q0 -81 55 -132.5t144 -51.5q90 0 134.5 56.5t44.5 159.5z" />
    <glyph glyph-name="jcircumflex" unicode="&#x135;" horiz-adv-x="221" 
d="M109 750h2l121 -202h-51l-92 153l-91 -153h-11zM144 -43q0 -84 -39 -133t-114 -49q-44 0 -73 23.5t-29 67.5q0 28 16 44l9 -3q-15 -21 -15 -41q0 -40 25 -59.5t61 -19.5q53 0 72.5 40.5t19.5 126.5v530h67v-527z" />
    <glyph glyph-name="uni0136" unicode="&#x136;" horiz-adv-x="678" 
d="M571 0l-308 359l-100 -93v-266h-70v700h70v-421l450 421h15l-316 -295l344 -405h-85zM286 -142v86h81v-87q0 -107 -104 -103v10q52 -1 73 23t21 71h-71z" />
    <glyph glyph-name="uni0137" unicode="&#x137;" horiz-adv-x="514" 
d="M421 0l-195 247l-82 -73v-174h-67v749h67v-564l331 299h13l-215 -194l228 -290h-80zM208 -142v86h81v-87q0 -107 -104 -103v10q52 -1 73 23t21 71h-71z" />
    <glyph glyph-name="kgreenlandic" unicode="&#x138;" horiz-adv-x="514" 
d="M421 0l-195 247l-82 -73v-174h-67v484h67v-299l331 299h13l-215 -194l228 -290h-80z" />
    <glyph glyph-name="Lacute" unicode="&#x139;" horiz-adv-x="579" 
d="M210 917h69l-143 -165h-4zM93 0v700h70v-689h377v-11h-447z" />
    <glyph glyph-name="lacute" unicode="&#x13a;" horiz-adv-x="221" 
d="M179 938h69l-143 -165h-4zM144 749v-749h-67v749h67z" />
    <glyph glyph-name="uni013B" unicode="&#x13b;" horiz-adv-x="579" 
d="M93 0v700h70v-689h377v-11h-447zM278 -142v86h81v-87q0 -107 -104 -103v10q52 -1 73 23t21 71h-71z" />
    <glyph glyph-name="uni013C" unicode="&#x13c;" horiz-adv-x="221" 
d="M144 749v-749h-67v749h67zM68 -142v86h81v-87q0 -107 -104 -103v10q52 -1 73 23t21 71h-71z" />
    <glyph glyph-name="Lcaron" unicode="&#x13d;" horiz-adv-x="579" 
d="M456 749l-83 -208h-4l24 208h63zM93 0v700h70v-689h377v-11h-447z" />
    <glyph glyph-name="lcaron" unicode="&#x13e;" horiz-adv-x="221" 
d="M144 749v-749h-67v749h67zM307 749l-83 -208h-4l24 208h63z" />
    <glyph glyph-name="Ldot" unicode="&#x13f;" horiz-adv-x="579" 
d="M93 0v700h70v-689h377v-11h-447zM404 304v96h70v-96h-70z" />
    <glyph glyph-name="ldot" unicode="&#x140;" horiz-adv-x="299" 
d="M144 749v-749h-67v749h67zM224 328v96h70v-96h-70z" />
    <glyph glyph-name="Lslash" unicode="&#x141;" horiz-adv-x="594" 
d="M556 0h-447v270l-78 -46v13l78 46v417h70v-384l207 120v-13l-207 -120v-292h377v-11z" />
    <glyph glyph-name="lslash" unicode="&#x142;" horiz-adv-x="279" 
d="M173 0h-67v382l-87 -61v13l87 61v354h67v-316l87 61v-13l-87 -61v-420z" />
    <glyph glyph-name="Nacute" unicode="&#x143;" horiz-adv-x="752" 
d="M456 917h69l-143 -165h-4zM648 96v604h11v-710h-4l-551 617v-607h-11v710h4z" />
    <glyph glyph-name="nacute" unicode="&#x144;" horiz-adv-x="550" 
d="M353 749h65l-143 -190h-4zM144 300v-300h-67v484h63l4 -125q17 62 64.5 98.5t111.5 36.5q76 0 118.5 -45t42.5 -123v-326h-67v343q0 135 -115 135q-62 0 -108 -50.5t-47 -127.5z" />
    <glyph glyph-name="uni0145" unicode="&#x145;" horiz-adv-x="752" 
d="M648 96v604h11v-710h-4l-551 617v-607h-11v710h4zM331 -142v86h81v-87q0 -107 -104 -103v10q52 -1 73 23t21 71h-71z" />
    <glyph glyph-name="uni0146" unicode="&#x146;" horiz-adv-x="550" 
d="M144 300v-300h-67v484h63l4 -125q17 62 64.5 98.5t111.5 36.5q76 0 118.5 -45t42.5 -123v-326h-67v343q0 135 -115 135q-62 0 -108 -50.5t-47 -127.5zM241 -142v86h81v-87q0 -107 -104 -103v10q52 -1 73 23t21 71h-71z" />
    <glyph glyph-name="Ncaron" unicode="&#x147;" horiz-adv-x="752" 
d="M388 741h-2l-151 184h54l118 -145l120 145h12zM648 96v604h11v-710h-4l-551 617v-607h-11v710h4z" />
    <glyph glyph-name="ncaron" unicode="&#x148;" horiz-adv-x="550" 
d="M280 548h-2l-151 202h54l118 -159l120 159h12zM144 300v-300h-67v484h63l4 -125q17 62 64.5 98.5t111.5 36.5q76 0 118.5 -45t42.5 -123v-326h-67v343q0 135 -115 135q-62 0 -108 -50.5t-47 -127.5z" />
    <glyph glyph-name="Eng" unicode="&#x14a;" horiz-adv-x="752" 
d="M516 -225q-40 0 -68.5 25t-28.5 68q0 25 12 40l9 -3q-11 -18 -11 -37q0 -40 26 -61.5t61 -21.5q67 0 100 52.5t33 139.5v20l-545 612v-609h-11v710h4l551 -617v607h11v-731q0 -84 -36.5 -139t-106.5 -55z" />
    <glyph glyph-name="eng" unicode="&#x14b;" horiz-adv-x="550" 
d="M328 -225q-44 0 -73 23.5t-29 67.5q0 28 16 44l9 -3q-15 -21 -15 -41q0 -40 25 -59.5t61 -19.5q53 0 72.5 40.5t19.5 126.5v389q0 135 -115 135q-62 0 -108 -50.5t-47 -127.5v-300h-67v484h63l4 -125q17 62 64.5 98.5t111.5 36.5q76 0 118.5 -45t42.5 -123v-369
q0 -84 -39 -133t-114 -49z" />
    <glyph glyph-name="Omacron" unicode="&#x14c;" horiz-adv-x="757" 
d="M517 785h-276v10h276v-10zM33 350q0 155 102 257.5t244 102.5t243.5 -102.5t101.5 -257.5t-101.5 -257.5t-243.5 -102.5t-244 102.5t-102 257.5zM110 350q0 -166 71 -258t198 -92q126 0 197 92t71 258t-71 258t-197 92q-127 0 -198 -92t-71 -258z" />
    <glyph glyph-name="omacron" unicode="&#x14d;" horiz-adv-x="540" 
d="M408 632h-276v10h276v-10zM270 -10q-99 0 -168 74t-69 177q0 104 69 178.5t168 74.5q100 0 168.5 -74.5t68.5 -178.5t-68.5 -177.5t-168.5 -73.5zM270 485q-79 0 -122.5 -61t-43.5 -183q0 -120 44 -181t122 -61t122 61t44 181q0 122 -43.5 183t-122.5 61z" />
    <glyph glyph-name="Obreve" unicode="&#x14e;" horiz-adv-x="757" 
d="M521 920q0 -71 -40.5 -118t-101.5 -47t-101.5 47t-40.5 118h7q3 -121 135 -121t135 121h7zM33 350q0 155 102 257.5t244 102.5t243.5 -102.5t101.5 -257.5t-101.5 -257.5t-243.5 -102.5t-244 102.5t-102 257.5zM110 350q0 -166 71 -258t198 -92q126 0 197 92t71 258
t-71 258t-197 92q-127 0 -198 -92t-71 -258z" />
    <glyph glyph-name="obreve" unicode="&#x14f;" horiz-adv-x="540" 
d="M412 745q0 -80 -40 -129.5t-102 -49.5t-102 49.5t-40 129.5h6q3 -135 136 -135t136 135h6zM270 -10q-99 0 -168 74t-69 177q0 104 69 178.5t168 74.5q100 0 168.5 -74.5t68.5 -178.5t-68.5 -177.5t-168.5 -73.5zM270 485q-79 0 -122.5 -61t-43.5 -183q0 -120 44 -181
t122 -61t122 61t44 181q0 122 -43.5 183t-122.5 61z" />
    <glyph glyph-name="Ohungarumlaut" unicode="&#x150;" horiz-adv-x="757" 
d="M512 917h67l-141 -165h-4zM366 917h67l-141 -165h-4zM33 350q0 155 102 257.5t244 102.5t243.5 -102.5t101.5 -257.5t-101.5 -257.5t-243.5 -102.5t-244 102.5t-102 257.5zM110 350q0 -166 71 -258t198 -92q126 0 197 92t71 258t-71 258t-197 92q-127 0 -198 -92
t-71 -258z" />
    <glyph glyph-name="ohungarumlaut" unicode="&#x151;" horiz-adv-x="540" 
d="M404 749h63l-141 -190h-4zM258 749h63l-141 -190h-4zM270 -10q-99 0 -168 74t-69 177q0 104 69 178.5t168 74.5q100 0 168.5 -74.5t68.5 -178.5t-68.5 -177.5t-168.5 -73.5zM270 485q-79 0 -122.5 -61t-43.5 -183q0 -120 44 -181t122 -61t122 61t44 181q0 122 -43.5 183
t-122.5 61z" />
    <glyph glyph-name="OE" unicode="&#x152;" horiz-adv-x="1074" 
d="M429 0q-181 0 -288.5 98t-107.5 258q0 157 107 250.5t289 93.5h589v-11h-384v-324h288v-11h-288v-343h396v-11h-601zM437 689q-166 0 -247.5 -85.5t-81.5 -247.5q0 -163 82 -254t246 -91h128v678h-127z" />
    <glyph glyph-name="oe" unicode="&#x153;" horiz-adv-x="900" 
d="M866 150q-17 -76 -70.5 -118t-133.5 -42q-61 0 -114 37t-79 100q-27 -62 -79 -99.5t-120 -37.5q-99 0 -168 74t-69 177q0 104 69 178.5t168 74.5q68 0 120 -38t78 -100q26 64 76.5 101t110.5 37q97 0 154.5 -65t57.5 -163h-364q-1 -9 -1 -28q0 -112 44 -174t130 -62
q67 0 116 39.5t64 111.5zM655 485q-62 0 -103.5 -51.5t-48.5 -157.5h293q0 209 -141 209zM270 485q-79 0 -122.5 -61t-43.5 -183q0 -120 44 -181t122 -61t122 61t44 181q0 122 -43.5 183t-122.5 61z" />
    <glyph glyph-name="Racute" unicode="&#x154;" horiz-adv-x="698" 
d="M402 917h69l-143 -165h-4zM163 689v-356h178q196 0 196 179q0 91 -52 134t-144 43h-178zM163 322v-322h-70v700h252q118 0 193.5 -45t75.5 -142q0 -62 -37 -106t-83 -61.5t-93 -18.5v-2q127 -11 165 -116l41 -117q21 -62 53 -92h-80q-21 31 -40 87l-40 112
q-23 66 -62 94.5t-116 28.5h-159z" />
    <glyph glyph-name="racute" unicode="&#x155;" horiz-adv-x="437" 
d="M311 749h65l-143 -190h-4zM144 320q17 72 62 123t104 51q47 0 73 -26.5t26 -69.5q0 -46 -30 -73l-7 7q27 24 27 66q0 39 -23 62.5t-66 23.5q-45 0 -84 -36t-59.5 -86.5t-22.5 -100.5v-261h-67v484h63z" />
    <glyph glyph-name="uni0156" unicode="&#x156;" horiz-adv-x="698" 
d="M163 689v-356h178q196 0 196 179q0 91 -52 134t-144 43h-178zM163 322v-322h-70v700h252q118 0 193.5 -45t75.5 -142q0 -62 -37 -106t-83 -61.5t-93 -18.5v-2q127 -11 165 -116l41 -117q21 -62 53 -92h-80q-21 31 -40 87l-40 112q-23 66 -62 94.5t-116 28.5h-159z
M304 -142v86h81v-87q0 -107 -104 -103v10q52 -1 73 23t21 71h-71z" />
    <glyph glyph-name="uni0157" unicode="&#x157;" horiz-adv-x="437" 
d="M144 320q17 72 62 123t104 51q47 0 73 -26.5t26 -69.5q0 -46 -30 -73l-7 7q27 24 27 66q0 39 -23 62.5t-66 23.5q-45 0 -84 -36t-59.5 -86.5t-22.5 -100.5v-261h-67v484h63zM71 -142v86h81v-87q0 -107 -104 -103v10q52 -1 73 23t21 71h-71z" />
    <glyph glyph-name="Rcaron" unicode="&#x158;" horiz-adv-x="698" 
d="M334 741h-2l-151 184h54l118 -145l120 145h12zM163 689v-356h178q196 0 196 179q0 91 -52 134t-144 43h-178zM163 322v-322h-70v700h252q118 0 193.5 -45t75.5 -142q0 -62 -37 -106t-83 -61.5t-93 -18.5v-2q127 -11 165 -116l41 -117q21 -62 53 -92h-80q-21 31 -40 87
l-40 112q-23 66 -62 94.5t-116 28.5h-159z" />
    <glyph glyph-name="rcaron" unicode="&#x159;" horiz-adv-x="437" 
d="M238 548h-2l-151 202h54l118 -159l120 159h12zM144 320q17 72 62 123t104 51q47 0 73 -26.5t26 -69.5q0 -46 -30 -73l-7 7q27 24 27 66q0 39 -23 62.5t-66 23.5q-45 0 -84 -36t-59.5 -86.5t-22.5 -100.5v-261h-67v484h63z" />
    <glyph glyph-name="Sacute" unicode="&#x15a;" horiz-adv-x="585" 
d="M366 917h69l-143 -165h-4zM497 163q0 66 -43 101.5t-119 53.5l-98 24q-97 25 -145 65t-48 116q0 80 67.5 133.5t165.5 53.5q86 0 151 -36.5t96 -99.5l-9 -7q-29 62 -92 97.5t-145 35.5q-80 0 -132 -40.5t-52 -108.5q0 -64 40.5 -93.5t122.5 -50.5l93 -25
q96 -24 146.5 -67t50.5 -117q0 -97 -73.5 -152.5t-175.5 -55.5q-98 0 -175 44.5t-107 121.5l10 5q29 -76 103 -118.5t168 -42.5q93 0 146.5 46.5t53.5 116.5z" />
    <glyph glyph-name="sacute" unicode="&#x15b;" horiz-adv-x="450" 
d="M304 749h65l-143 -190h-4zM221 484q-57 0 -94.5 -28.5t-37.5 -69.5q0 -40 23.5 -59.5t74.5 -32.5l91 -24q68 -17 102 -45.5t34 -79.5q0 -69 -53.5 -112t-136.5 -43q-75 0 -130.5 37.5t-71.5 100.5l10 5q14 -62 68.5 -97.5t123.5 -35.5q62 0 103 30t41 84q0 39 -27.5 61
t-77.5 34l-96 24q-58 15 -89.5 42.5t-31.5 75.5q0 61 51 102t124 41q63 0 109 -28.5t63 -85.5l-10 -4q-32 108 -162 108z" />
    <glyph glyph-name="Scircumflex" unicode="&#x15c;" horiz-adv-x="585" 
d="M395 742l-118 145l-120 -145h-12l152 184h2l150 -184h-54zM497 163q0 66 -43 101.5t-119 53.5l-98 24q-97 25 -145 65t-48 116q0 80 67.5 133.5t165.5 53.5q86 0 151 -36.5t96 -99.5l-9 -7q-29 62 -92 97.5t-145 35.5q-80 0 -132 -40.5t-52 -108.5q0 -64 40.5 -93.5
t122.5 -50.5l93 -25q96 -24 146.5 -67t50.5 -117q0 -97 -73.5 -152.5t-175.5 -55.5q-98 0 -175 44.5t-107 121.5l10 5q29 -76 103 -118.5t168 -42.5q93 0 146.5 46.5t53.5 116.5z" />
    <glyph glyph-name="scircumflex" unicode="&#x15d;" horiz-adv-x="450" 
d="M328 548l-118 158l-120 -158h-12l152 202h2l150 -202h-54zM221 484q-57 0 -94.5 -28.5t-37.5 -69.5q0 -40 23.5 -59.5t74.5 -32.5l91 -24q68 -17 102 -45.5t34 -79.5q0 -69 -53.5 -112t-136.5 -43q-75 0 -130.5 37.5t-71.5 100.5l10 5q14 -62 68.5 -97.5t123.5 -35.5
q62 0 103 30t41 84q0 39 -27.5 61t-77.5 34l-96 24q-58 15 -89.5 42.5t-31.5 75.5q0 61 51 102t124 41q63 0 109 -28.5t63 -85.5l-10 -4q-32 108 -162 108z" />
    <glyph glyph-name="uni015E" unicode="&#x15e;" horiz-adv-x="585" 
d="M292 -225q-35 0 -63.5 16t-41.5 41l9 7q12 -25 37 -38.5t53 -13.5q30 0 47.5 17.5t17.5 46.5q0 69 -109 69l28 71q-88 6 -157.5 50t-96.5 115l10 5q29 -76 103 -118.5t168 -42.5q93 0 146.5 46.5t53.5 116.5q0 66 -43 101.5t-119 53.5l-98 24q-97 25 -145 65t-48 116
q0 80 67.5 133.5t165.5 53.5q86 0 151 -36.5t96 -99.5l-9 -7q-29 62 -92 97.5t-145 35.5q-80 0 -132 -40.5t-52 -108.5q0 -64 40.5 -93.5t122.5 -50.5l93 -25q96 -24 146.5 -67t50.5 -117q0 -97 -73.5 -152.5t-175.5 -55.5h-18l-24 -62q53 0 93 -19.5t40 -57.5
q0 -34 -28 -55t-69 -21z" />
    <glyph glyph-name="uni015F" unicode="&#x15f;" horiz-adv-x="450" 
d="M225 -225q-35 0 -63.5 16t-41.5 41l9 7q12 -25 37 -38.5t53 -13.5q31 0 48 17.5t17 46.5q0 69 -109 69l28 71q-68 5 -117 42t-64 95l10 5q14 -62 68.5 -97.5t123.5 -35.5q62 0 103 30t41 84q0 39 -27.5 61t-77.5 34l-96 24q-58 15 -89.5 42.5t-31.5 75.5q0 61 51 102
t124 41q63 0 109 -28.5t63 -85.5l-10 -4q-32 108 -162 108q-57 0 -94.5 -28.5t-37.5 -69.5q0 -40 23.5 -59.5t74.5 -32.5l91 -24q68 -17 102 -45.5t34 -79.5q0 -69 -53.5 -112t-136.5 -43h-11l-24 -62q53 0 93 -19.5t40 -57.5q0 -34 -28 -55t-69 -21z" />
    <glyph glyph-name="Scaron" unicode="&#x160;" horiz-adv-x="585" 
d="M298 741h-2l-151 184h54l118 -145l120 145h12zM497 163q0 66 -43 101.5t-119 53.5l-98 24q-97 25 -145 65t-48 116q0 80 67.5 133.5t165.5 53.5q86 0 151 -36.5t96 -99.5l-9 -7q-29 62 -92 97.5t-145 35.5q-80 0 -132 -40.5t-52 -108.5q0 -64 40.5 -93.5t122.5 -50.5
l93 -25q96 -24 146.5 -67t50.5 -117q0 -97 -73.5 -152.5t-175.5 -55.5q-98 0 -175 44.5t-107 121.5l10 5q29 -76 103 -118.5t168 -42.5q93 0 146.5 46.5t53.5 116.5z" />
    <glyph glyph-name="scaron" unicode="&#x161;" horiz-adv-x="450" 
d="M231 548h-2l-151 202h54l118 -159l120 159h12zM221 484q-57 0 -94.5 -28.5t-37.5 -69.5q0 -40 23.5 -59.5t74.5 -32.5l91 -24q68 -17 102 -45.5t34 -79.5q0 -69 -53.5 -112t-136.5 -43q-75 0 -130.5 37.5t-71.5 100.5l10 5q14 -62 68.5 -97.5t123.5 -35.5q62 0 103 30
t41 84q0 39 -27.5 61t-77.5 34l-96 24q-58 15 -89.5 42.5t-31.5 75.5q0 61 51 102t124 41q63 0 109 -28.5t63 -85.5l-10 -4q-32 108 -162 108z" />
    <glyph glyph-name="Tcommaaccent" unicode="&#x162;" horiz-adv-x="668" 
d="M307 0h-8v689h-279v11h628v-11h-280v-689h-51l-28 -72q53 0 93 -19.5t40 -57.5q0 -34 -28 -55t-69 -21q-35 0 -63.5 16t-41.5 41l9 7q12 -25 37 -38.5t53 -13.5q31 0 48 17.5t17 46.5q0 69 -109 69z" />
    <glyph glyph-name="tcommaaccent" unicode="&#x163;" horiz-adv-x="366" 
d="M197 -225q-35 0 -63.5 16t-41.5 41l9 7q12 -25 37 -38.5t53 -13.5q31 0 48 17.5t17 46.5q0 69 -109 69l29 74q-88 19 -88 123v357h-81v10h81v138l66 27v-165h176l-5 -10h-171v-379q0 -92 70 -92q53 0 82 38.5t33 106.5l10 -1q-5 -72 -38.5 -114.5t-97.5 -42.5
q-11 0 -27 2l-25 -64q53 0 93 -19.5t40 -57.5q0 -34 -28 -55t-69 -21z" />
    <glyph glyph-name="Tcaron" unicode="&#x164;" horiz-adv-x="668" 
d="M334 741h-2l-151 184h54l118 -145l120 145h12zM299 0v689h-279v11h628v-11h-280v-689h-69z" />
    <glyph glyph-name="tcaron" unicode="&#x165;" horiz-adv-x="366" 
d="M308 751l-83 -208h-4l24 208h63zM7 474v10h81v138l66 27v-165h176l-5 -10h-171v-379q0 -92 70 -92q53 0 82 38.5t33 106.5l10 -1q-5 -72 -38.5 -114.5t-97.5 -42.5q-60 0 -92.5 33.5t-32.5 93.5v357h-81z" />
    <glyph glyph-name="Tbar" unicode="&#x166;" horiz-adv-x="668" 
d="M506 354h-138v-354h-69v354h-139v11h139v324h-279v11h628v-11h-280v-324h138v-11z" />
    <glyph glyph-name="tbar" unicode="&#x167;" horiz-adv-x="387" 
d="M361 147q-5 -72 -38.5 -114.5t-97.5 -42.5q-60 0 -92.5 33.5t-32.5 93.5v196h-81v10h81v151h-81v10h81v138l66 27v-165h176l-5 -10h-171v-151h166v-10h-166v-218q0 -92 70 -92q53 0 82 38.5t33 106.5z" />
    <glyph glyph-name="Utilde" unicode="&#x168;" horiz-adv-x="717" 
d="M436 769q-31 0 -84.5 42t-82.5 42t-46 -20.5t-24 -66.5h-7q7 58 34.5 91t65.5 33q32 0 85 -42t82 -42t46 20.5t24 66.5h7q-7 -58 -34.5 -91t-65.5 -33zM628 700h11v-431q0 -131 -76.5 -205t-192.5 -74q-143 0 -217.5 76t-74.5 203v431h70v-418q0 -126 56.5 -197.5
t176.5 -71.5q109 0 178 67t69 192v428z" />
    <glyph glyph-name="utilde" unicode="&#x169;" horiz-adv-x="541" 
d="M335 592q-29 0 -79.5 41.5t-77.5 41.5t-42.5 -19.5t-22.5 -66.5h-7q7 58 32.5 90.5t61.5 32.5q29 0 79.5 -41.5t77.5 -41.5q52 0 64 86h8q-7 -58 -32.5 -90.5t-61.5 -32.5zM398 184v300h66v-484h-62l-4 125q-18 -63 -63 -99t-108 -36q-73 0 -115 46t-42 124v324h66v-341
q0 -62 27.5 -99.5t85.5 -37.5q60 0 104 50t45 128z" />
    <glyph glyph-name="Umacron" unicode="&#x16a;" horiz-adv-x="717" 
d="M502 785h-276v10h276v-10zM628 700h11v-431q0 -131 -76.5 -205t-192.5 -74q-143 0 -217.5 76t-74.5 203v431h70v-418q0 -126 56.5 -197.5t176.5 -71.5q109 0 178 67t69 192v428z" />
    <glyph glyph-name="umacron" unicode="&#x16b;" horiz-adv-x="541" 
d="M405 632h-276v10h276v-10zM398 184v300h66v-484h-62l-4 125q-18 -63 -63 -99t-108 -36q-73 0 -115 46t-42 124v324h66v-341q0 -62 27.5 -99.5t85.5 -37.5q60 0 104 50t45 128z" />
    <glyph glyph-name="Ubreve" unicode="&#x16c;" horiz-adv-x="717" 
d="M506 920q0 -71 -40.5 -118t-101.5 -47t-101.5 47t-40.5 118h7q3 -121 135 -121t135 121h7zM628 700h11v-431q0 -131 -76.5 -205t-192.5 -74q-143 0 -217.5 76t-74.5 203v431h70v-418q0 -126 56.5 -197.5t176.5 -71.5q109 0 178 67t69 192v428z" />
    <glyph glyph-name="ubreve" unicode="&#x16d;" horiz-adv-x="541" 
d="M409 745q0 -80 -40 -129.5t-102 -49.5t-102 49.5t-40 129.5h6q3 -135 136 -135t136 135h6zM398 184v300h66v-484h-62l-4 125q-18 -63 -63 -99t-108 -36q-73 0 -115 46t-42 124v324h66v-341q0 -62 27.5 -99.5t85.5 -37.5q60 0 104 50t45 128z" />
    <glyph glyph-name="Uring" unicode="&#x16e;" horiz-adv-x="717" 
d="M364 909q35 0 60.5 -26t25.5 -61q0 -36 -25.5 -61.5t-60.5 -25.5q-36 0 -61.5 25.5t-25.5 61.5q0 35 25.5 61t61.5 26zM364 899q-32 0 -54.5 -22.5t-22.5 -54.5t22.5 -54.5t54.5 -22.5q31 0 53.5 22.5t22.5 54.5q0 31 -22.5 54t-53.5 23zM628 700h11v-431
q0 -131 -76.5 -205t-192.5 -74q-143 0 -217.5 76t-74.5 203v431h70v-418q0 -126 56.5 -197.5t176.5 -71.5q109 0 178 67t69 192v428z" />
    <glyph glyph-name="uring" unicode="&#x16f;" horiz-adv-x="541" 
d="M181 652q0 36 25.5 62t61.5 26q35 0 60.5 -26t25.5 -62q0 -35 -25.5 -60.5t-60.5 -25.5q-36 0 -61.5 25.5t-25.5 60.5zM344 652q0 32 -22.5 55t-53.5 23q-32 0 -54.5 -23t-22.5 -55q0 -31 22.5 -53.5t54.5 -22.5q31 0 53.5 22.5t22.5 53.5zM398 184v300h66v-484h-62
l-4 125q-18 -63 -63 -99t-108 -36q-73 0 -115 46t-42 124v324h66v-341q0 -62 27.5 -99.5t85.5 -37.5q60 0 104 50t45 128z" />
    <glyph glyph-name="Uhungarumlaut" unicode="&#x170;" horiz-adv-x="717" 
d="M497 917h67l-141 -165h-4zM351 917h67l-141 -165h-4zM628 700h11v-431q0 -131 -76.5 -205t-192.5 -74q-143 0 -217.5 76t-74.5 203v431h70v-418q0 -126 56.5 -197.5t176.5 -71.5q109 0 178 67t69 192v428z" />
    <glyph glyph-name="uhungarumlaut" unicode="&#x171;" horiz-adv-x="541" 
d="M400 749h63l-141 -190h-4zM254 749h63l-141 -190h-4zM398 184v300h66v-484h-62l-4 125q-18 -63 -63 -99t-108 -36q-73 0 -115 46t-42 124v324h66v-341q0 -62 27.5 -99.5t85.5 -37.5q60 0 104 50t45 128z" />
    <glyph glyph-name="Uogonek" unicode="&#x172;" horiz-adv-x="717" 
d="M423 -225q-38 0 -65 22.5t-27 59.5q0 65 122 144q-39 -11 -83 -11q-143 0 -217.5 76t-74.5 203v431h70v-418q0 -126 56.5 -197.5t176.5 -71.5q109 0 178 67t69 192v428h11v-431q0 -95 -42 -161.5t-113 -96.5q-62 -41 -89.5 -73.5t-27.5 -75.5q0 -33 20.5 -53t49.5 -20
q70 0 102 82l8 -3q-36 -93 -124 -93z" />
    <glyph glyph-name="uogonek" unicode="&#x173;" horiz-adv-x="541" 
d="M478 -132q-36 -93 -123 -93q-38 0 -65.5 22.5t-27.5 59.5q0 21 9.5 39.5t33 38.5t41 32t56.5 37l-4 121q-18 -63 -63 -99t-108 -36q-73 0 -115 46t-42 124v324h66v-341q0 -62 27.5 -99.5t85.5 -37.5q60 0 104 50t45 128v300h66v-484h-53q-64 -43 -88.5 -70t-24.5 -68
q0 -33 20.5 -53t49.5 -20q69 0 103 82z" />
    <glyph glyph-name="Wcircumflex" unicode="&#x174;" horiz-adv-x="919" 
d="M560 742l-118 145l-120 -145h-12l152 184h2l150 -184h-54zM651 -10l-189 518l-180 -518h-4l-263 710h71l222 -602l148 426l-64 176h69l219 -605l213 605h12l-250 -710h-4z" />
    <glyph glyph-name="wcircumflex" unicode="&#x175;" horiz-adv-x="661" 
d="M431 548l-118 158l-120 -158h-12l152 202h2l150 -202h-54zM465 -6l-129 346l-132 -346h-4l-193 490h68l153 -398l102 269l-48 129h68l142 -400l152 400h11l-186 -490h-4z" />
    <glyph glyph-name="Ycircumflex" unicode="&#x176;" horiz-adv-x="612" 
d="M407 742l-118 145l-120 -145h-12l152 184h2l150 -184h-54zM338 305l248 395h11l-255 -410v-290h-70v289l-257 411h77z" />
    <glyph glyph-name="ycircumflex" unicode="&#x177;" horiz-adv-x="453" 
d="M343 548l-118 158l-120 -158h-12l152 202h2l150 -202h-54zM58 -225q-38 0 -61 24t-23 63q0 24 12 44l10 -3q-12 -21 -12 -41q0 -34 20.5 -55.5t53.5 -21.5q41 0 69 34t65 117l31 70l-216 478h70l179 -404l179 404h12l-244 -551q-38 -87 -69.5 -122.5t-75.5 -35.5z" />
    <glyph glyph-name="Ydieresis" unicode="&#x178;" horiz-adv-x="612" 
d="M350 763v99h61v-99h-61zM207 763v99h61v-99h-61zM338 305l248 395h11l-255 -410v-290h-70v289l-257 411h77z" />
    <glyph glyph-name="Zacute" unicode="&#x179;" horiz-adv-x="641" 
d="M413 917h69l-143 -165h-4zM597 11v-11h-561v4l477 685h-443v11h523v-4l-476 -685h480z" />
    <glyph glyph-name="zacute" unicode="&#x17a;" horiz-adv-x="472" 
d="M324 749h65l-143 -190h-4zM29 4l324 470h-307v10h385v-4l-324 -470h329v-10h-407v4z" />
    <glyph glyph-name="Zdotaccent" unicode="&#x17b;" horiz-adv-x="641" 
d="M308 763v99h75v-99h-75zM597 11v-11h-561v4l477 685h-443v11h523v-4l-476 -685h480z" />
    <glyph glyph-name="zdotaccent" unicode="&#x17c;" horiz-adv-x="472" 
d="M216 604v96h70v-96h-70zM29 4l324 470h-307v10h385v-4l-324 -470h329v-10h-407v4z" />
    <glyph glyph-name="Zcaron" unicode="&#x17d;" horiz-adv-x="641" 
d="M346 741h-2l-151 184h54l118 -145l120 145h12zM597 11v-11h-561v4l477 685h-443v11h523v-4l-476 -685h480z" />
    <glyph glyph-name="zcaron" unicode="&#x17e;" horiz-adv-x="472" 
d="M251 548h-2l-151 202h54l118 -159l120 159h12zM29 4l324 470h-307v10h385v-4l-324 -470h329v-10h-407v4z" />
    <glyph glyph-name="uni0192" unicode="&#x192;" horiz-adv-x="505" 
d="M29 -177q-48 0 -75.5 26.5t-27.5 65.5q0 37 30 64l7 -6q-27 -26 -27 -58q0 -34 23 -57t63 -23q58 0 85 50.5t43 181.5l37 302h-100l2 11h100l11 92q28 238 185 238q47 0 74 -26.5t27 -64.5t-30 -65l-7 6q27 26 27 59t-22.5 56t-62.5 23q-57 0 -83.5 -50t-43.5 -182
l-11 -86h136l-2 -11h-135l-37 -301q-29 -245 -186 -245z" />
    <glyph glyph-name="AEacute" unicode="&#x1fc;" horiz-adv-x="1018" 
d="M778 917h69l-143 -165h-4zM508 314v376l-262 -376h262zM508 0v303h-269l-211 -303h-13l487 700h461v-11h-385v-324h288v-11h-288v-343h396v-11h-466z" />
    <glyph glyph-name="aeacute" unicode="&#x1fd;" horiz-adv-x="830" 
d="M492 749h65l-143 -190h-4zM796 150q-17 -76 -70.5 -118t-134.5 -42q-77 0 -140 49.5t-79 130.5q-12 -76 -63 -128t-133 -52q-62 0 -101.5 34.5t-39.5 88.5q0 108 189 138l141 23v75q0 63 -34 98.5t-101 35.5t-108.5 -33t-41.5 -84q0 -42 33 -68l-6 -7q-37 26 -37 75
q0 57 46.5 92.5t125.5 35.5q68 0 110 -29.5t55 -78.5q30 51 77.5 79.5t100.5 28.5q97 0 154.5 -65t57.5 -163h-364q-1 -9 -1 -28q0 -112 44 -174t130 -62q67 0 116 39.5t64 111.5zM585 485q-62 0 -103.5 -51.5t-48.5 -157.5h293q0 209 -141 209zM365 264l-132 -21
q-133 -21 -133 -120q0 -52 29 -81.5t75 -29.5q67 0 114 57.5t47 147.5v47z" />
    <glyph glyph-name="Oslashacute" unicode="&#x1fe;" horiz-adv-x="757" 
d="M447 917h69l-143 -165h-4zM110 350q0 -162 68 -255l394 518q-70 87 -193 87q-127 0 -198 -92t-71 -258zM379 0q126 0 197 92t71 258q0 162 -68 255l-394 -518q70 -87 194 -87zM379 -10q-117 0 -212 73l-63 -83l-8 7l63 83q-59 49 -92.5 121.5t-33.5 158.5
q0 155 102 257.5t244 102.5q117 0 211 -73l63 83l8 -7l-63 -83q59 -49 92.5 -121.5t33.5 -158.5q0 -155 -101.5 -257.5t-243.5 -102.5z" />
    <glyph glyph-name="oslashacute" unicode="&#x1ff;" horiz-adv-x="540" 
d="M344 749h65l-143 -190h-4zM104 241q0 -106 36 -169l255 348q-43 65 -125 65q-79 0 -122.5 -61t-43.5 -183zM270 -1q78 0 122 61t44 181q0 107 -36 170l-255 -347q43 -65 125 -65zM270 -10q-79 0 -142 50l-43 -58l-8 5l43 59q-87 76 -87 195q0 104 69 178.5t168 74.5
q79 0 142 -50l43 58l8 -5l-43 -59q87 -77 87 -197q0 -104 -68.5 -177.5t-168.5 -73.5z" />
    <glyph glyph-name="uni0218" unicode="&#x218;" horiz-adv-x="585" 
d="M497 163q0 66 -43 101.5t-119 53.5l-98 24q-97 25 -145 65t-48 116q0 80 67.5 133.5t165.5 53.5q86 0 151 -36.5t96 -99.5l-9 -7q-29 62 -92 97.5t-145 35.5q-80 0 -132 -40.5t-52 -108.5q0 -64 40.5 -93.5t122.5 -50.5l93 -25q96 -24 146.5 -67t50.5 -117
q0 -97 -73.5 -152.5t-175.5 -55.5q-98 0 -175 44.5t-107 121.5l10 5q29 -76 103 -118.5t168 -42.5q93 0 146.5 46.5t53.5 116.5zM241 -142v86h81v-87q0 -107 -104 -103v10q52 -1 73 23t21 71h-71z" />
    <glyph glyph-name="uni0219" unicode="&#x219;" horiz-adv-x="450" 
d="M221 484q-57 0 -94.5 -28.5t-37.5 -69.5q0 -40 23.5 -59.5t74.5 -32.5l91 -24q68 -17 102 -45.5t34 -79.5q0 -69 -53.5 -112t-136.5 -43q-75 0 -130.5 37.5t-71.5 100.5l10 5q14 -62 68.5 -97.5t123.5 -35.5q62 0 103 30t41 84q0 39 -27.5 61t-77.5 34l-96 24
q-58 15 -89.5 42.5t-31.5 75.5q0 61 51 102t124 41q63 0 109 -28.5t63 -85.5l-10 -4q-32 108 -162 108zM189 -142v86h81v-87q0 -107 -104 -103v10q52 -1 73 23t21 71h-71z" />
    <glyph glyph-name="uni021A" unicode="&#x21a;" horiz-adv-x="668" 
d="M299 0v689h-279v11h628v-11h-280v-689h-69zM293 -142v86h81v-87q0 -107 -104 -103v10q52 -1 73 23t21 71h-71z" />
    <glyph glyph-name="uni021B" unicode="&#x21b;" horiz-adv-x="366" 
d="M7 474v10h81v138l66 27v-165h176l-5 -10h-171v-379q0 -92 70 -92q53 0 82 38.5t33 106.5l10 -1q-5 -72 -38.5 -114.5t-97.5 -42.5q-60 0 -92.5 33.5t-32.5 93.5v357h-81zM173 -142v86h81v-87q0 -107 -104 -103v10q52 -1 73 23t21 71h-71z" />
    <glyph glyph-name="uni0237" unicode="&#x237;" horiz-adv-x="221" 
d="M144 -43q0 -84 -39 -133t-114 -49q-44 0 -73 23.5t-29 67.5q0 28 16 44l9 -3q-15 -21 -15 -41q0 -40 25 -59.5t61 -19.5q53 0 72.5 40.5t19.5 126.5v530h67v-527z" />
    <glyph glyph-name="uni02BB" unicode="&#x2bb;" 
d="M290 667v-87h-81v88q0 106 105 102v-10q-53 2 -74 -22.5t-21 -70.5h71z" />
    <glyph glyph-name="circumflex" unicode="&#x2c6;" 
d="M348 548l-118 158l-120 -158h-12l152 202h2l150 -202h-54z" />
    <glyph glyph-name="caron" unicode="&#x2c7;" 
d="M251 548h-2l-151 202h54l118 -159l120 159h12z" />
    <glyph glyph-name="breve" unicode="&#x2d8;" 
d="M392 745q0 -80 -40 -129.5t-102 -49.5t-102 49.5t-40 129.5h6q3 -135 136 -135t136 135h6z" />
    <glyph glyph-name="dotaccent" unicode="&#x2d9;" horiz-adv-x="499" 
d="M215 604v96h70v-96h-70z" />
    <glyph glyph-name="ring" unicode="&#x2da;" horiz-adv-x="499" 
d="M163 652q0 36 25.5 62t61.5 26q35 0 60.5 -26t25.5 -62q0 -35 -25.5 -60.5t-60.5 -25.5q-36 0 -61.5 25.5t-25.5 60.5zM326 652q0 32 -22.5 55t-53.5 23q-32 0 -54.5 -23t-22.5 -55q0 -31 22.5 -53.5t54.5 -22.5q31 0 53.5 22.5t22.5 53.5z" />
    <glyph glyph-name="ogonek" unicode="&#x2db;" 
d="M142 -143q0 17 9 34.5t18.5 29t34.5 30.5t38 27.5t48 30.5l4 -7q-66 -44 -91 -71t-25 -69q0 -33 20.5 -53t49.5 -20q69 0 103 82l7 -3q-36 -93 -123 -93q-38 0 -65.5 22.5t-27.5 59.5z" />
    <glyph glyph-name="tilde" unicode="&#x2dc;" 
d="M318 592q-29 0 -79.5 41.5t-77.5 41.5t-42.5 -19.5t-22.5 -66.5h-7q7 58 32.5 90.5t61.5 32.5q29 0 79.5 -41.5t77.5 -41.5q52 0 64 86h8q-7 -58 -32.5 -90.5t-61.5 -32.5z" />
    <glyph glyph-name="hungarumlaut" unicode="&#x2dd;" 
d="M333 749h63l-141 -190h-4zM187 749h63l-141 -190h-4z" />
    <glyph glyph-name="Wgrave" unicode="&#x1e80;" horiz-adv-x="919" 
d="M463 752l-143 165h69l78 -165h-4zM651 -10l-189 518l-180 -518h-4l-263 710h71l222 -602l148 426l-64 176h69l219 -605l213 605h12l-250 -710h-4z" />
    <glyph glyph-name="wgrave" unicode="&#x1e81;" horiz-adv-x="661" 
d="M334 559l-143 190h65l82 -190h-4zM465 -6l-129 346l-132 -346h-4l-193 490h68l153 -398l102 269l-48 129h68l142 -400l152 400h11l-186 -490h-4z" />
    <glyph glyph-name="Wacute" unicode="&#x1e82;" horiz-adv-x="919" 
d="M531 917h69l-143 -165h-4zM651 -10l-189 518l-180 -518h-4l-263 710h71l222 -602l148 426l-64 176h69l219 -605l213 605h12l-250 -710h-4z" />
    <glyph glyph-name="wacute" unicode="&#x1e83;" horiz-adv-x="661" 
d="M407 749h65l-143 -190h-4zM465 -6l-129 346l-132 -346h-4l-193 490h68l153 -398l102 269l-48 129h68l142 -400l152 400h11l-186 -490h-4z" />
    <glyph glyph-name="Wdieresis" unicode="&#x1e84;" horiz-adv-x="919" 
d="M503 763v99h61v-99h-61zM360 763v99h61v-99h-61zM651 -10l-189 518l-180 -518h-4l-263 710h71l222 -602l148 426l-64 176h69l219 -605l213 605h12l-250 -710h-4z" />
    <glyph glyph-name="wdieresis" unicode="&#x1e85;" horiz-adv-x="661" 
d="M375 604v96h59v-96h-59zM232 604v96h60v-96h-60zM465 -6l-129 346l-132 -346h-4l-193 490h68l153 -398l102 269l-48 129h68l142 -400l152 400h11l-186 -490h-4z" />
    <glyph glyph-name="Ygrave" unicode="&#x1ef2;" horiz-adv-x="612" 
d="M310 752l-143 165h69l78 -165h-4zM338 305l248 395h11l-255 -410v-290h-70v289l-257 411h77z" />
    <glyph glyph-name="ygrave" unicode="&#x1ef3;" horiz-adv-x="453" 
d="M247 559l-143 190h65l82 -190h-4zM58 -225q-38 0 -61 24t-23 63q0 24 12 44l10 -3q-12 -21 -12 -41q0 -34 20.5 -55.5t53.5 -21.5q41 0 69 34t65 117l31 70l-216 478h70l179 -404l179 404h12l-244 -551q-38 -87 -69.5 -122.5t-75.5 -35.5z" />
    <glyph glyph-name="uni2009" unicode="&#x2009;" horiz-adv-x="40" 
 />
    <glyph glyph-name="endash" unicode="&#x2013;" horiz-adv-x="538" 
d="M59 269v10h420v-10h-420z" />
    <glyph glyph-name="emdash" unicode="&#x2014;" horiz-adv-x="838" 
d="M59 270v10h720v-10h-720z" />
    <glyph glyph-name="quoteleft" unicode="&#x2018;" horiz-adv-x="201" 
d="M143 570v-92h-85v102q0 61 30.5 95.5t93.5 34.5v-10q-114 0 -114 -120v-10h75z" />
    <glyph glyph-name="quoteright" unicode="&#x2019;" horiz-adv-x="201" 
d="M58 608v92h85v-102q0 -61 -30.5 -95.5t-93.5 -34.5v10q114 0 114 120v10h-75z" />
    <glyph glyph-name="quotesinglbase" unicode="&#x201a;" horiz-adv-x="201" 
d="M58 2v92h85v-102q0 -61 -30.5 -95.5t-93.5 -34.5v10q114 0 114 120v10h-75z" />
    <glyph glyph-name="quotedblleft" unicode="&#x201c;" horiz-adv-x="357" 
d="M299 570v-92h-85v102q0 61 30.5 95.5t93.5 34.5v-10q-114 0 -114 -120v-10h75zM143 570v-92h-85v102q0 61 30.5 95.5t93.5 34.5v-10q-114 0 -114 -120v-10h75z" />
    <glyph glyph-name="quotedblright" unicode="&#x201d;" horiz-adv-x="359" 
d="M216 608v92h85v-102q0 -61 -30.5 -95.5t-93.5 -34.5v10q114 0 114 120v10h-75zM58 608v92h85v-102q0 -61 -30.5 -95.5t-93.5 -34.5v10q114 0 114 120v10h-75z" />
    <glyph glyph-name="quotedblbase" unicode="&#x201e;" horiz-adv-x="359" 
d="M216 2v92h85v-102q0 -61 -30.5 -95.5t-93.5 -34.5v10q114 0 114 120v10h-75zM58 2v92h85v-102q0 -61 -30.5 -95.5t-93.5 -34.5v10q114 0 114 120v10h-75z" />
    <glyph glyph-name="dagger" unicode="&#x2020;" horiz-adv-x="350" 
d="M170 355v261h-110v10h110v123h10v-123h110v-10h-110v-261h-10z" />
    <glyph glyph-name="daggerdbl" unicode="&#x2021;" horiz-adv-x="350" 
d="M170 355v123h-110v10h110v128h-110v10h110v123h10v-123h110v-10h-110v-128h110v-10h-110v-123h-10z" />
    <glyph glyph-name="bullet" unicode="&#x2022;" horiz-adv-x="349" 
d="M59 277q0 47 35 81.5t82 34.5t80.5 -34.5t33.5 -81.5q0 -48 -33 -82.5t-81 -34.5q-47 0 -82 34.5t-35 82.5z" />
    <glyph glyph-name="ellipsis" unicode="&#x2026;" horiz-adv-x="532" 
d="M60 0v92h85v-92h-85zM224 0v92h85v-92h-85zM388 0v92h85v-92h-85z" />
    <glyph glyph-name="perthousand" unicode="&#x2030;" horiz-adv-x="972" 
d="M152 0h-11l359 678q-19 -22 -55 -36.5t-76 -14.5q-47 0 -82 22q26 -40 26 -87q0 -58 -39 -102.5t-93 -44.5t-93.5 44.5t-39.5 102.5q0 59 39.5 103.5t93.5 44.5q29 0 51.5 -11.5t36 -25t39.5 -25t61 -11.5q96 0 152 77l6 -4zM263 562q0 59 -21 98.5t-61 39.5
q-41 0 -61.5 -39t-20.5 -99q0 -59 20.5 -98t61.5 -39q40 0 61 39.5t21 97.5zM659 143q0 58 39.5 102.5t93.5 44.5t93 -44.5t39 -102.5q0 -59 -39 -103.5t-93 -44.5t-93.5 44.5t-39.5 103.5zM355 143q0 58 39.5 102.5t93.5 44.5t93 -44.5t39 -102.5q0 -59 -39 -103.5
t-93 -44.5t-93.5 44.5t-39.5 103.5zM873 143q0 59 -20.5 98t-60.5 39q-41 0 -61.5 -39t-20.5 -98q0 -60 20.5 -99t61.5 -39q40 0 60.5 39.5t20.5 98.5zM569 143q0 59 -20.5 98t-60.5 39q-41 0 -61.5 -39t-20.5 -98q0 -60 20.5 -99t61.5 -39q40 0 60.5 39.5t20.5 98.5z" />
    <glyph glyph-name="guilsinglleft" unicode="&#x2039;" horiz-adv-x="325" 
d="M51 243v2l219 201h4l-156 -202l156 -202h-4z" />
    <glyph glyph-name="guilsinglright" unicode="&#x203a;" horiz-adv-x="325" 
d="M274 245v-2l-219 -201h-4l156 202l-156 202h4z" />
    <glyph glyph-name="fraction" unicode="&#x2044;" horiz-adv-x="343" 
d="M10 -123l294 872h9l-294 -872h-9z" />
    <glyph glyph-name="Euro" unicode="&#x20ac;" horiz-adv-x="614" 
d="M379 -10q-107 0 -185 87t-92 223h-78v10h78q-2 26 -2 40q0 16 2 48h-78v10h79q16 133 93.5 217.5t182.5 84.5q74 0 131 -51.5t77 -142.5l-10 -3q-19 85 -71 135t-120 50q-90 0 -144 -75t-64 -215h239l-3 -10h-237q-1 -15 -1 -48q0 -27 1 -40h209l-3 -10h-206
q8 -144 63 -221t146 -77q68 0 120 50t71 135l10 -3q-20 -91 -77 -142.5t-131 -51.5z" />
    <glyph glyph-name="uni2117" unicode="&#x2117;" horiz-adv-x="810" 
d="M405 710q151 0 255.5 -102.5t104.5 -257.5t-104.5 -257.5t-255.5 -102.5t-255.5 102.5t-104.5 257.5t104.5 257.5t255.5 102.5zM405 0q147 0 248.5 99.5t101.5 250.5t-101.5 250.5t-248.5 99.5t-248.5 -99.5t-101.5 -250.5t101.5 -250.5t248.5 -99.5zM432 313h-97v-164
h-52v408h149q74 0 119 -31t45 -91q0 -59 -45.5 -90.5t-118.5 -31.5zM335 323h83q122 0 122 112t-122 112h-83v-224z" />
    <glyph glyph-name="trademark" unicode="&#x2122;" horiz-adv-x="731" 
d="M151 427v263h-111v10h271v-10h-111v-263h-49zM505 493l80 207h55v-273h-49v262l-102 -263h-8l-110 263v-262h-10v273h59z" />
    <glyph glyph-name="uni2153" unicode="&#x2153;" horiz-adv-x="403" 
d="M216 414h-46v250q-22 -36 -63 -60l-3 7q50 30 84 96h28v-293zM38 358h327v-10h-327v10zM194 -6q-43 0 -69 20t-26 51q0 36 35 50l4 -6q-31 -11 -31 -43q0 -27 22.5 -45t56.5 -18q36 0 54.5 21.5t18.5 56.5q0 70 -76 70h-9v7h9q66 0 66 64q0 60 -60 60q-28 0 -48 -15
t-20 -41q0 -28 26 -37l-3 -7q-32 11 -32 45q0 28 24.5 46.5t62.5 18.5q41 0 68 -18.5t27 -51.5q0 -29 -26 -47.5t-59 -19.5v-1q38 -2 67.5 -22t29.5 -54q0 -38 -32 -61t-80 -23z" />
    <glyph glyph-name="uni2154" unicode="&#x2154;" horiz-adv-x="403" 
d="M133 452h166l-1 -38h-205v5l84 84q69 69 69 128q0 66 -62 66q-31 0 -51 -19t-20 -48q0 -35 29 -47l-5 -6q-13 5 -22.5 19.5t-9.5 33.5q0 33 25 55.5t66 22.5q42 0 69.5 -21t27.5 -58q0 -21 -7.5 -38.5t-32 -41t-40.5 -36.5t-63 -48q-11 -9 -17 -13zM38 358h327v-10h-327
v10zM194 -6q-43 0 -69 20t-26 51q0 36 35 50l4 -6q-31 -11 -31 -43q0 -27 22.5 -45t56.5 -18q36 0 54.5 21.5t18.5 56.5q0 70 -76 70h-9v7h9q66 0 66 64q0 60 -60 60q-28 0 -48 -15t-20 -41q0 -28 26 -37l-3 -7q-32 11 -32 45q0 28 24.5 46.5t62.5 18.5q41 0 68 -18.5
t27 -51.5q0 -29 -26 -47.5t-59 -19.5v-1q38 -2 67.5 -22t29.5 -54q0 -38 -32 -61t-80 -23z" />
    <glyph glyph-name="uni215B" unicode="&#x215b;" horiz-adv-x="403" 
d="M223 414h-46v250q-23 -37 -62 -60l-4 7q50 30 84 96h28v-293zM38 358h327v-10h-327v10zM242 159q37 -14 53.5 -32.5t16.5 -46.5q0 -37 -30 -61.5t-74 -24.5q-45 0 -75 20.5t-30 56.5q0 50 64 71q-52 25 -52 71q0 34 26 56.5t65 22.5q36 0 60.5 -18.5t24.5 -48.5
q0 -44 -49 -66zM148 231q0 -20 12 -31.5t35 -20.5l40 -17q47 23 47 63q0 26 -22 43t-53 17q-26 0 -42.5 -15t-16.5 -39zM222 120l-48 19q-62 -23 -62 -68q0 -32 27.5 -50.5t66.5 -18.5q34 0 53 16t19 44q0 21 -14 33.5t-42 24.5z" />
    <glyph glyph-name="uni215C" unicode="&#x215c;" horiz-adv-x="403" 
d="M194 410q-43 0 -69 20t-26 51q0 36 35 50l4 -6q-31 -11 -31 -43q0 -27 22.5 -45t56.5 -18q36 0 54.5 21.5t18.5 56.5q0 70 -76 70h-9v7h9q66 0 66 64q0 60 -60 60q-28 0 -48 -15t-20 -41q0 -28 26 -37l-3 -7q-32 11 -32 45q0 28 24.5 46.5t62.5 18.5q41 0 68 -18.5
t27 -51.5q0 -29 -26 -47.5t-59 -19.5v-1q38 -2 67.5 -22t29.5 -54q0 -38 -32 -61t-80 -23zM38 358h327v-10h-327v10zM242 159q37 -14 53.5 -32.5t16.5 -46.5q0 -37 -30 -61.5t-74 -24.5q-45 0 -75 20.5t-30 56.5q0 50 64 71q-52 25 -52 71q0 34 26 56.5t65 22.5
q36 0 60.5 -18.5t24.5 -48.5q0 -44 -49 -66zM148 231q0 -20 12 -31.5t35 -20.5l40 -17q47 23 47 63q0 26 -22 43t-53 17q-26 0 -42.5 -15t-16.5 -39zM222 120l-48 19q-62 -23 -62 -68q0 -32 27.5 -50.5t66.5 -18.5q34 0 53 16t19 44q0 21 -14 33.5t-42 24.5z" />
    <glyph glyph-name="uni215D" unicode="&#x215d;" horiz-adv-x="403" 
d="M298 700l-5 -39h-140l-11 -98q19 34 72 34q41 0 68 -23.5t27 -63.5q0 -45 -33 -74.5t-84 -29.5q-38 0 -63 19t-25 50q0 32 29 47l5 -6q-25 -14 -25 -41t21 -43.5t50 -16.5q38 0 57.5 24.5t19.5 68.5q0 35 -15.5 56.5t-45.5 21.5q-42 0 -63 -38h-5l18 152h148zM38 358h327
v-10h-327v10zM242 159q37 -14 53.5 -32.5t16.5 -46.5q0 -37 -30 -61.5t-74 -24.5q-45 0 -75 20.5t-30 56.5q0 50 64 71q-52 25 -52 71q0 34 26 56.5t65 22.5q36 0 60.5 -18.5t24.5 -48.5q0 -44 -49 -66zM148 231q0 -20 12 -31.5t35 -20.5l40 -17q47 23 47 63q0 26 -22 43
t-53 17q-26 0 -42.5 -15t-16.5 -39zM222 120l-48 19q-62 -23 -62 -68q0 -32 27.5 -50.5t66.5 -18.5q34 0 53 16t19 44q0 21 -14 33.5t-42 24.5z" />
    <glyph glyph-name="uni215E" unicode="&#x215e;" horiz-adv-x="403" 
d="M114 700h196v-5l-30 -51q-64 -109 -57 -234h-45q2 42 18 86.5t29.5 69t48.5 82.5l8 12h-168v40zM38 358h327v-10h-327v10zM242 159q37 -14 53.5 -32.5t16.5 -46.5q0 -37 -30 -61.5t-74 -24.5q-45 0 -75 20.5t-30 56.5q0 50 64 71q-52 25 -52 71q0 34 26 56.5t65 22.5
q36 0 60.5 -18.5t24.5 -48.5q0 -44 -49 -66zM148 231q0 -20 12 -31.5t35 -20.5l40 -17q47 23 47 63q0 26 -22 43t-53 17q-26 0 -42.5 -15t-16.5 -39zM222 120l-48 19q-62 -23 -62 -68q0 -32 27.5 -50.5t66.5 -18.5q34 0 53 16t19 44q0 21 -14 33.5t-42 24.5z" />
    <glyph glyph-name="minus" unicode="&#x2212;" horiz-adv-x="479" 
d="M44 315v10h391v-10h-391z" />
    <glyph glyph-name="approxequal" unicode="&#x2248;" horiz-adv-x="480" 
d="M44 347v12q52 52 105 52q35 0 91 -28t88 -28q55 0 108 54v-11q-52 -53 -108 -53q-34 0 -90.5 28t-88.5 28q-51 0 -105 -54zM44 220v12q52 52 105 52q35 0 91 -28t88 -28q55 0 108 54v-11q-52 -53 -108 -53q-34 0 -90.5 28t-88.5 28q-51 0 -105 -54z" />
    <glyph glyph-name="notequal" unicode="&#x2260;" horiz-adv-x="479" 
d="M435 237h-252l-88 -102h-13l88 102h-126v10h135l115 133h-250v10h259l86 99h13l-86 -99h119v-10h-128l-115 -133h243v-10z" />
    <glyph glyph-name="lessequal" unicode="&#x2264;" horiz-adv-x="373" 
d="M44 335v10l284 135v-10l-274 -130l274 -130v-10zM44 124v10h285v-10h-285z" />
    <glyph glyph-name="greaterequal" unicode="&#x2265;" horiz-adv-x="373" 
d="M329 335l-284 -135v10l274 130l-274 130v10l284 -135v-10zM329 124h-285v10h285v-10z" />
    <glyph glyph-name="uni00200326" 
d="M209 -142v86h81v-87q0 -107 -104 -103v10q52 -1 73 23t21 71h-71z" />
    <glyph glyph-name="uni00200323" horiz-adv-x="499" 
d="M212 -180v99h75v-99h-75z" />
    <glyph glyph-name="i.dot" horiz-adv-x="221" 
d="M76 604v96h70v-96h-70zM144 484v-484h-67v484h67z" />
    <glyph glyph-name="f_f.short" horiz-adv-x="588" 
d="M157 484h232v86q0 65 28 113q-41 54 -114 54q-71 0 -108.5 -53.5t-37.5 -141.5v-58zM157 474v-474h-67v474h-81v10h81v47q0 92 57 155t151 63q80 0 125 -57q43 67 121 67q45 0 71.5 -25t26.5 -66q0 -32 -18 -51l-7 6q15 21 15 45q0 38 -22.5 58.5t-58.5 20.5
q-95 0 -95 -164v-99h147l-5 -10h-142v-474h-67v474h-232z" />
    <glyph glyph-name="f.short" horiz-adv-x="288" 
d="M90 570q0 82 43.5 135.5t111.5 53.5q45 0 71.5 -25t26.5 -66q0 -30 -18 -51l-7 6q15 21 15 45q0 38 -22.5 58.5t-59.5 20.5q-94 0 -94 -164v-99h146l-5 -10h-141v-474h-67v474h-81v10h81v86z" />
    <glyph glyph-name="caron.Slovak" 
d="M297 749l-83 -208h-4l24 208h63z" />
    <glyph glyph-name="hyphen.cap" horiz-adv-x="367" 
d="M59 329v13h249v-13h-249z" />
    <glyph glyph-name="endash.cap" horiz-adv-x="538" 
d="M59 328v10h420v-10h-420z" />
    <glyph glyph-name="emdash.cap" horiz-adv-x="838" 
d="M59 329v10h720v-10h-720z" />
    <glyph glyph-name="parenleft.cap" horiz-adv-x="319" 
d="M126 323q0 -129 18.5 -208t48.5 -119.5t93 -93.5l-6 -6q-102 70 -161.5 182.5t-59.5 244.5q0 131 59.5 244t161.5 182l6 -6q-63 -53 -93 -93.5t-48.5 -119t-18.5 -207.5z" />
    <glyph glyph-name="parenright.cap" horiz-adv-x="319" 
d="M194 323q0 98 -8.5 163t-30.5 112t-48 76.5t-73 68.5l6 6q102 -69 161.5 -182t59.5 -244q0 -132 -59.5 -244.5t-161.5 -182.5l-6 6q47 39 73 68.5t48 76.5t30.5 112.5t8.5 163.5z" />
    <glyph glyph-name="bracketleft.cap" horiz-adv-x="281" 
d="M69 -104v853h182v-6l-124 -4v-833l124 -4v-6h-182z" />
    <glyph glyph-name="bracketright.cap" horiz-adv-x="281" 
d="M212 749v-853h-182v6l124 4v833l-124 4v6h182z" />
    <glyph glyph-name="braceleft.cap" horiz-adv-x="361" 
d="M22 319v7q55 0 88.5 31.5t33.5 101.5q0 20 -10 71.5t-10 76.5q0 57 48.5 99.5t115.5 42.5q29 0 53 -7v-10q-20 6 -48 6q-53 0 -85 -31t-32 -85q0 -23 13 -82.5t13 -77.5q0 -64 -49.5 -99t-96.5 -41q19 -2 41.5 -10t47 -23.5t41 -43.5t16.5 -62q0 -19 -13 -78.5t-13 -82.5
q0 -54 32 -84.5t85 -30.5q28 0 48 6v-11q-25 -6 -53 -6q-67 0 -115.5 42t-48.5 100q0 25 10 76t10 72q0 70 -33.5 101.5t-88.5 31.5z" />
    <glyph glyph-name="braceright.cap" horiz-adv-x="361" 
d="M339 319q-54 0 -88 -31.5t-34 -101.5q0 -21 10 -72t10 -76q0 -58 -48.5 -100t-115.5 -42q-26 0 -53 6v11q20 -6 49 -6q53 0 85 30.5t32 84.5q0 23 -13 82.5t-13 78.5q0 45 28.5 78t59 46t57.5 15q-27 3 -57.5 16t-59 46t-28.5 78q0 18 13 77.5t13 82.5q0 54 -32 85
t-85 31q-29 0 -49 -6v10q25 7 53 7q67 0 115.5 -42.5t48.5 -99.5q0 -25 -10 -76.5t-10 -71.5q0 -70 34 -101.5t88 -31.5v-7z" />
    <glyph glyph-name="guilsinglleft.cap" horiz-adv-x="325" 
d="M51 333v2l219 201h4l-156 -202l156 -202h-4z" />
    <glyph glyph-name="guilsinglright.cap" horiz-adv-x="325" 
d="M274 335v-2l-219 -201h-4l156 202l-156 202h4z" />
    <glyph glyph-name="guillemotleft.cap" horiz-adv-x="470" 
d="M51 333v2l219 201h4l-156 -202l156 -202h-4zM196 333v2l219 201h4l-156 -202l156 -202h-4z" />
    <glyph glyph-name="guillemotright.cap" horiz-adv-x="470" 
d="M274 335v-2l-219 -201h-4l156 202l-156 202h4zM419 335v-2l-219 -201h-4l156 202l-156 202h4z" />
    <glyph glyph-name="slash.cap" horiz-adv-x="351" 
d="M20 -103l300 852h11l-300 -852h-11z" />
    <glyph glyph-name="backslash.cap" horiz-adv-x="351" 
d="M331 -103h-11l-300 852h11z" />
    <glyph glyph-name="bar.cap" horiz-adv-x="214" 
d="M102 -103v852h10v-852h-10z" />
    <glyph glyph-name="at.cap" horiz-adv-x="941" 
d="M673 140q31 0 65.5 15.5t67 46t54 86t21.5 124.5q0 158 -111.5 251t-278.5 93q-179 0 -305 -123t-126 -312q0 -180 120 -292.5t306 -112.5q167 0 284 88l6 -8q-118 -90 -290 -90q-190 0 -313 116t-123 299q0 128 60.5 230.5t161 158.5t219.5 56q170 0 285 -95.5
t115 -258.5q0 -71 -22.5 -128.5t-58 -89.5t-74 -49t-74.5 -17q-49 0 -82.5 32.5t-24.5 87.5q-24 -50 -67 -84t-92 -34q-60 0 -96.5 41t-36.5 106q0 109 66.5 190.5t159.5 81.5q52 0 81 -33.5t30 -83.5l34 109h51l-72 -290q-13 -52 4 -81.5t56 -29.5zM565 291l19 74
q8 40 8 57q0 51 -25.5 81t-70.5 30q-51 0 -92 -42.5t-61.5 -104.5t-21.5 -128q-1 -53 20 -83t65 -30q50 0 94.5 42t64.5 104z" />
    <glyph glyph-name="exclamdown.cap" horiz-adv-x="211" 
d="M63 608v92h85v-92h-85zM104 499h4l43 -499h-91z" />
    <glyph glyph-name="questiondown.cap" horiz-adv-x="503" 
d="M311 701v-92h-85v92h85zM99 161q0 -73 42.5 -116t122.5 -43q85 0 138.5 51.5t53.5 124.5q0 81 -60 114l6 8q27 -14 45.5 -46t18.5 -76q0 -77 -58 -132t-149 -55q-98 0 -160 50.5t-62 133.5q0 97 67 156t161 71v99h10v-160q-75 -9 -125.5 -59.5t-50.5 -120.5z" />
    <glyph glyph-name="periodcentered.cap" horiz-adv-x="203" 
d="M59 290v92h85v-92h-85z" />
    <glyph glyph-name="bullet.cap" horiz-adv-x="349" 
d="M59 336q0 47 35 81.5t82 34.5t80.5 -34.5t33.5 -81.5q0 -48 -33 -82.5t-81 -34.5q-47 0 -82 34.5t-35 82.5z" />
    <glyph glyph-name="zero.op" horiz-adv-x="596" 
d="M32 313q0 129 76 226t190 97t190.5 -97t76.5 -226q0 -128 -76.5 -225.5t-190.5 -97.5t-190 97.5t-76 225.5zM108 313q0 -313 190 -313q101 0 146 85.5t45 227.5t-45 227.5t-146 85.5q-190 0 -190 -313z" />
    <glyph glyph-name="one.op" horiz-adv-x="326" 
d="M238 0h-69v545q-20 -31 -58.5 -71t-84.5 -65l-4 9q114 64 190 217h26v-635z" />
    <glyph glyph-name="two.op" horiz-adv-x="501" 
d="M82 61h394v-61h-466v7l160 137q55 47 88 78t66.5 71t49 79.5t15.5 82.5q0 80 -40 124.5t-120 44.5q-81 0 -132 -51t-51 -123q0 -41 17 -70t42 -43l-5 -8q-27 15 -45.5 46.5t-18.5 74.5q0 78 56 132t146 54q98 0 159 -50t61 -132q0 -19 -5 -38t-12.5 -35.5t-23 -37
t-28 -35t-38 -37.5t-42 -37t-50 -40t-53.5 -41t-61 -45t-63 -47z" />
    <glyph glyph-name="three.op" horiz-adv-x="518" 
d="M243 -10q-101 0 -159 47.5t-58 113.5q0 75 74 106l5 -8q-30 -11 -49.5 -37t-19.5 -61q0 -60 53.5 -105t147.5 -45q89 0 136.5 49t47.5 129q0 154 -202 154h-20v10h20q175 0 175 144q0 137 -151 137q-74 0 -124 -36t-50 -97q0 -64 60 -87l-3 -9q-67 26 -67 96
q0 64 54 104.5t138 40.5q91 0 151 -40t60 -109q0 -62 -60.5 -103.5t-128.5 -44.5v-2q54 -2 102 -20t81.5 -56.5t33.5 -89.5q0 -79 -71 -130t-176 -51z" />
    <glyph glyph-name="four.op" horiz-adv-x="580" 
d="M559 192v-11h-152v-181h-69v181h-328v7l337 437h60v-433h152zM338 192v403l-312 -403h312z" />
    <glyph glyph-name="five.op" horiz-adv-x="513" 
d="M460 626l-10 -62h-320l-29 -225q24 37 70 60t98 23q94 0 155 -57t61 -145q0 -96 -74 -163t-185 -67q-85 0 -141.5 44t-56.5 112q0 76 69 107l5 -7q-64 -31 -64 -100q0 -64 53 -104.5t129 -40.5q95 0 145 57.5t50 160.5q0 84 -40.5 137t-115.5 53q-104 0 -160 -87h-8
l37 304h332z" />
    <glyph glyph-name="six.op" horiz-adv-x="541" 
d="M514 214q0 -93 -65.5 -158.5t-163.5 -65.5q-111 0 -182 96t-71 239q0 98 34.5 184.5t104 143.5t159.5 57q79 0 126.5 -38t47.5 -101q0 -39 -19.5 -64t-45.5 -32l-3 8q58 22 58 88q0 58 -44.5 93.5t-115.5 35.5q-82 0 -137.5 -60t-77.5 -154t-16 -210q16 69 69.5 111.5
t122.5 42.5q93 0 156 -60.5t63 -155.5zM106 208q0 -87 50 -147.5t129 -60.5q81 0 121 58.5t40 150.5q0 98 -41.5 152t-118.5 54q-72 0 -126 -54t-54 -153z" />
    <glyph glyph-name="seven.op" horiz-adv-x="470" 
d="M18 626h448v-4l-46 -81q-85 -155 -127 -298.5t-39 -316.5h-65q0 61 12 123.5t24.5 107t46.5 117t52 107t66 123.5l21 39l12 21h-405v62z" />
    <glyph glyph-name="eight.op" horiz-adv-x="521" 
d="M319 339q92 -31 133 -70.5t41 -100.5q0 -73 -65 -125.5t-164 -52.5q-100 0 -168.5 46t-68.5 125q0 57 44.5 98t115.5 62q-130 56 -130 154q0 68 57 114.5t141 46.5q83 0 137.5 -41t54.5 -105q0 -104 -128 -151zM108 496q0 -24 9.5 -43t29 -33.5t36 -23.5t43.5 -20l81 -33
q61 22 95.5 56.5t34.5 90.5q0 60 -51.5 98t-129.5 38q-63 0 -105.5 -35t-42.5 -95zM303 275l-104 41q-162 -49 -162 -155q0 -76 66.5 -118.5t158.5 -42.5q84 0 132 39.5t48 105.5q0 47 -35 75.5t-104 54.5z" />
    <glyph glyph-name="nine.op" horiz-adv-x="541" 
d="M435 418q0 86 -50 146.5t-129 60.5q-81 0 -121 -58.5t-40 -150.5q0 -98 41.5 -152t118.5 -54q72 0 126 54.5t54 153.5zM27 411q0 94 65.5 159t163.5 65q111 0 182 -98t71 -251q0 -93 -29.5 -175t-97 -139t-161.5 -57q-78 0 -126.5 40t-48.5 103q0 39 19.5 64t45.5 32
l3 -8q-58 -22 -58 -88q0 -59 44.5 -95.5t116.5 -36.5q66 0 112.5 34t70.5 94.5t32.5 133.5t4.5 161q-15 -69 -68.5 -111.5t-122.5 -42.5q-93 0 -156 60.5t-63 155.5z" />
    <glyph glyph-name="percent.op" horiz-adv-x="668" 
d="M152 0h-11l355 604q-43 -50 -127 -50q-46 0 -82 21q26 -38 26 -86q0 -58 -39 -102.5t-93 -44.5t-93.5 44.5t-39.5 102.5q0 59 39.5 103.5t93.5 44.5q29 0 51.5 -11.5t36 -25t39.5 -25t61 -11.5q96 0 152 77l6 -4zM263 489q0 59 -21 98.5t-61 39.5q-41 0 -61.5 -39
t-20.5 -99q0 -59 20.5 -98t61.5 -39q40 0 61 39.5t21 97.5zM355 143q0 58 39.5 102.5t93.5 44.5t93 -44.5t39 -102.5q0 -59 -39 -103.5t-93 -44.5t-93.5 44.5t-39.5 103.5zM569 143q0 59 -20.5 98t-60.5 39q-41 0 -61.5 -39t-20.5 -98q0 -60 20.5 -99t61.5 -39
q40 0 60.5 39.5t20.5 98.5z" />
    <glyph glyph-name="perthousand.op" horiz-adv-x="972" 
d="M152 0h-11l355 604q-43 -50 -127 -50q-46 0 -82 21q26 -38 26 -86q0 -58 -39 -102.5t-93 -44.5t-93.5 44.5t-39.5 102.5q0 59 39.5 103.5t93.5 44.5q29 0 51.5 -11.5t36 -25t39.5 -25t61 -11.5q96 0 152 77l6 -4zM263 489q0 59 -21 98.5t-61 39.5q-41 0 -61.5 -39
t-20.5 -99q0 -59 20.5 -98t61.5 -39q40 0 61 39.5t21 97.5zM659 143q0 58 39.5 102.5t93.5 44.5t93 -44.5t39 -102.5q0 -59 -39 -103.5t-93 -44.5t-93.5 44.5t-39.5 103.5zM355 143q0 58 39.5 102.5t93.5 44.5t93 -44.5t39 -102.5q0 -59 -39 -103.5t-93 -44.5t-93.5 44.5
t-39.5 103.5zM873 143q0 59 -20.5 98t-60.5 39q-41 0 -61.5 -39t-20.5 -98q0 -60 20.5 -99t61.5 -39q40 0 60.5 39.5t20.5 98.5zM569 143q0 59 -20.5 98t-60.5 39q-41 0 -61.5 -39t-20.5 -98q0 -60 20.5 -99t61.5 -39q40 0 60.5 39.5t20.5 98.5z" />
    <glyph glyph-name="dollar.op" horiz-adv-x="533" 
d="M226 371l80 -23v274q-20 4 -47 4q-11 0 -33 -2v-253zM93 494q0 -53 30 -77t93 -43v248q-55 -10 -89 -44t-34 -84zM265 0q21 0 41 3v278l-80 22v-301q26 -2 39 -2zM451 145q0 56 -34.5 85t-100.5 48v-274q63 12 99 50.5t36 90.5zM266 -10q-14 0 -40 2v-98h-10v100
q-80 11 -131.5 56.5t-57.5 110.5l10 2q5 -61 54 -104.5t125 -54.5v302q-87 24 -129 59t-42 103q0 63 48 108.5t123 56.5v110h10v-109q22 2 33 2q27 0 47 -4v111h10v-113q60 -12 102.5 -48t57.5 -85l-10 -5q-14 48 -53.5 82t-96.5 46v-275q93 -26 138.5 -63.5t45.5 -104.5
q0 -75 -52.5 -122.5t-131.5 -60.5v-100h-10v99q-20 -3 -40 -3z" />
    <glyph glyph-name="sterling.op" horiz-adv-x="617" 
d="M101 0q77 0 99 114q-48 24 -85 24q-38 0 -60 -19.5t-22 -52.5q0 -28 18.5 -47t49.5 -19zM463 -10q-31 0 -66.5 12.5t-53.5 22.5t-60.5 38t-50.5 33q-44 -107 -129 -107q-36 0 -58 22.5t-22 54.5q0 36 25.5 59t66.5 23q35 0 87 -21q6 40 6 91q0 36 -7 99h-114v10h114
q-6 66 -6 99q0 92 53.5 151t140.5 59q74 0 113 -34t39 -88q0 -36 -18 -62t-43 -35l-4 8q55 23 55 89q0 49 -34 79.5t-99 30.5q-61 0 -97 -48.5t-36 -134.5v-114h154v-10h-154v-4q0 -123 -28 -202q3 -1 21.5 -10t24 -11t22.5 -9.5t25 -10t24 -8t26.5 -8t25.5 -5.5t28.5 -4
t27.5 -1q109 0 109 78q0 39 -28 66l9 6q31 -31 31 -78q0 -52 -32.5 -89t-87.5 -37z" />
    <glyph glyph-name="yen.op" horiz-adv-x="588" 
d="M515 206h-185v-206h-70v206h-186v10h186v53l-29 46h-157v10h151l-191 301h78l214 -341l216 341h11l-189 -301h151v-10h-157l-28 -45v-54h185v-10z" />
    <glyph glyph-name="Euro.op" horiz-adv-x="617" 
d="M372 -10q-106 0 -181.5 78t-88.5 202h-78v10h77q-1 11 -1 33q0 31 4 55h-80v10h81q18 114 92 186t175 72q73 0 128.5 -46.5t73.5 -127.5l-9 -3q-19 77 -69 121t-117 44q-85 0 -137.5 -63.5t-63.5 -182.5h219l-3 -10h-217q-2 -34 -2 -55q0 -22 1 -33h190l-3 -10h-187
q8 -130 61 -199t142 -69q67 0 117 44t69 121l9 -3q-18 -81 -73.5 -127.5t-128.5 -46.5z" />
    <glyph glyph-name="uni0192.op" horiz-adv-x="504" 
d="M29 -177q-48 0 -75.5 26.5t-27.5 65.5q0 37 30 64l7 -6q-27 -26 -27 -58q0 -34 23 -57t63 -23q58 0 85 50.5t43 181.5l31 247h-98l2 11h97l9 73q28 238 185 238q47 0 74 -26.5t27 -64.5t-30 -65l-7 6q27 26 27 59t-22.5 56t-62.5 23q-57 0 -83.5 -50t-43.5 -182l-8 -67
h138l-2 -11h-138l-30 -246q-29 -245 -186 -245z" />
    </font>
</defs>
</svg>
