<?xml version="1.0" standalone="no"?>
<!DOCTYPE svg PUBLIC "-//W3C//DTD SVG 1.1//EN" "http://www.w3.org/Graphics/SVG/1.1/DTD/svg11.dtd" >
<svg xmlns="http://www.w3.org/2000/svg" xmlns:xlink="http://www.w3.org/1999/xlink" version="1.1">
<metadata>
Created by FontForge 20170731 at Thu Oct 16 16:08:12 2014
 By Aleksey,,,
(c) 2014 Klim Type Foundry. All Rights Reserved. wf-rip
</metadata>
<defs>
<font id="DomaineSansDisplay-Semibold" horiz-adv-x="264" >
  <font-face 
    font-family="Domaine Sans Display Semibold"
    font-weight="600"
    font-stretch="normal"
    units-per-em="1000"
    panose-1="2 11 7 3 8 7 2 4 2 4"
    ascent="800"
    descent="-200"
    x-height="493"
    cap-height="700"
    bbox="-119 -287.31 1222 976"
    underline-thickness="10"
    underline-position="-131"
    unicode-range="U+000D-FB02"
  />
<missing-glyph horiz-adv-x="1152" 
d="M644 232l-32 19l-17 29l6 59l24 34l74 55l19 -4l48 -58l21 -65l-38 -41zM595 63l-24 3l-4 9l5 44l-2 37l-11 3l-5 -48l-30 -40l-20 -8l-43 7l-13 19v16l42 74l34 36l16 33v7l16 11l8 -9l1 -18l18 -31l15 -3l14 -31l8 -5l20 -41l-9 -50l-15 -3zM451 405l60 -60l-3 -39
l-8 -12l-17 4l-4 -19l5 -14l-8 -11l-31 -26l-34 1l-27 -12l-46 21l-19 19l-9 29l8 37l-1 6l4 37l20 22l26 43l8 3zM510 -81l-38 -19l-38 15l-2 14l12 28l-6 8l-16 2l-29 -23l-43 21v36l-35 32l-60 105l-33 86l-22 98l5 168l9 67l31 67l51 66l98 59l49 15l5 4l106 6l72 -3
l5 -6l-1 -20l-56 -78l-10 -22l-13 -71l14 -11v-7l-7 -7l-24 -13l-59 19l-32 37l1 9l-8 4l-45 -27l-62 -20l-61 -90l-14 -136l18 -72l43 -91l36 -85l57 -56l36 -17l24 4l102 -17l97 32l45 38l24 27l63 105l68 97l-19 56l10 84l-23 69l7 20l-86 48l-76 21l-83 -16l-3 4l11 81
l14 10l28 91l48 3l99 -30l76 -43l59 -91l8 -27l8 -45l-9 -46l-20 -61l3 -51l32 -40l1 -37l-94 -133l-33 -103l-9 -7l-24 -62l7 -10l-35 -24l-9 3l-30 24l-1 30l-5 2l-19 -23v-11l20 -26l-35 -35l-16 -3l-22 21l6 16l-17 17l-24 -4l-21 -65l-35 -3l-15 23l3 30l-33 -4z" />
    <glyph glyph-name="fi" unicode="fi" horiz-adv-x="590" 
d="M216 0h-144v483h-69v10h69v30q0 105 64.5 170.5t175.5 65.5q84 0 126.5 -34t42.5 -90q0 -44 -30 -74l-8 6q28 30 28 68q0 47 -32.5 76t-89.5 29q-67 0 -100 -48.5t-33 -131.5v-67h314v-493h-144v483h-170v-483z" />
    <glyph glyph-name="fl" unicode="fl" horiz-adv-x="590" 
d="M386 0v664q-22 73 -85 73q-43 0 -64 -33.5t-21 -87.5v-123h116l-5 -10h-111v-483h-144v483h-69v10h69v52q0 98 51 156t136 58q92 0 127 -70l7 60h137v-749h-144z" />
    <glyph glyph-name="f_b" unicode="fb" horiz-adv-x="933" 
d="M909 252q0 -116 -62 -189t-150 -73q-62 0 -106.5 34t-60.5 92l-13 -116h-131v664q-22 73 -85 73q-43 0 -64 -33.5t-21 -87.5v-123h116l-5 -10h-111v-483h-144v483h-69v10h69v52q0 98 51 156t136 58q92 0 127 -70l7 60h137v-374q16 57 60.5 92.5t108.5 35.5
q85 0 147.5 -68.5t62.5 -182.5zM529 316v-140q2 -65 36 -110t81 -45q51 0 80.5 62t29.5 166t-28.5 163.5t-80.5 59.5q-46 0 -81 -44.5t-37 -111.5z" />
    <glyph glyph-name="f_f_b" unicode="ffb" horiz-adv-x="1246" 
d="M1011 -10q-62 0 -107 34.5t-61 91.5l-12 -116h-132v664q-9 34 -31.5 53.5t-53.5 19.5q-43 0 -63.5 -33.5t-20.5 -87.5v-123h115l-5 -10h-110v-483h-144v483h-170v-483h-144v483h-69v10h69v25q0 99 66.5 163.5t175.5 64.5q77 0 125 -43q50 56 134 56q93 0 126 -70l7 60
h137v-374q16 56 60.5 92t108.5 36q85 0 147.5 -68.5t62.5 -182.5q0 -116 -61.5 -189t-149.5 -73zM216 493h170v52q0 91 46 150q-36 33 -87 33q-63 0 -96 -47t-33 -129v-59zM843 316v-140q1 -64 35 -109.5t81 -45.5q52 0 81 62t29 166t-28.5 163.5t-79.5 59.5
q-46 0 -81 -44.5t-37 -111.5z" />
    <glyph glyph-name="f_f_h" unicode="ffh" horiz-adv-x="1231" 
d="M216 493h170v52q0 91 46 150q-36 33 -87 33q-63 0 -96 -47t-33 -129v-59zM216 483v-483h-144v483h-69v10h69v25q0 99 66.5 163.5t175.5 64.5q77 0 125 -43q50 56 134 56q93 0 126 -70l7 60h137v-374q16 59 61 93.5t110 34.5q78 0 120 -48t42 -123v-332h-144v379
q0 95 -73 95q-44 0 -79.5 -45.5t-36.5 -106.5v-322h-144v664q-9 34 -31.5 53.5t-53.5 19.5q-43 0 -63.5 -33.5t-20.5 -87.5v-123h115l-5 -10h-110v-483h-144v483h-170z" />
    <glyph glyph-name="f_f_idieresis" unicode="ff&#xef;" horiz-adv-x="903" 
d="M216 493h170v54q0 86 50 144q-35 37 -91 37q-63 0 -96 -47t-33 -129v-59zM801 580v144h110v-144h-110zM216 483v-483h-144v483h-69v10h69v25q0 99 66.5 163.5t175.5 64.5q81 0 130 -47q58 60 152 60q67 0 101.5 -31t34.5 -81q0 -46 -32 -73l-7 6q29 27 29 67
q0 44 -26 69.5t-74 25.5q-92 0 -92 -127v-122h313v-493h-144v483h-169v-483h-144v483h-170z" />
    <glyph glyph-name="f_f_j" unicode="ffj" horiz-adv-x="903" 
d="M216 493h170v30q0 97 56 162q-38 43 -97 43q-63 0 -96 -47t-33 -129v-59zM647 -225q-57 0 -92 28t-35 75q0 42 33 64l8 -4q-31 -26 -31 -60q0 -40 25.5 -62t61.5 -22q44 0 63 32.5t19 100.5v556h-169v-483h-144v483h-170v-483h-144v483h-69v10h69v25q0 99 66.5 163.5
t175.5 64.5q87 0 136 -54q65 67 175 67q84 0 126.5 -34t42.5 -90q0 -45 -29 -74l-8 6q27 29 27 68q0 47 -32 76t-89 29q-68 0 -100.5 -48t-32.5 -132v-67h313v-516q0 -92 -52 -147t-144 -55z" />
    <glyph glyph-name="f_f_k" unicode="ffk" horiz-adv-x="1218" 
d="M216 493h170v52q0 91 46 150q-36 33 -87 33q-63 0 -96 -47t-33 -129v-59zM216 483v-483h-144v483h-69v10h69v25q0 99 66.5 163.5t175.5 64.5q77 0 125 -43q50 56 134 56q93 0 126 -70l7 60h137v-565l338 309h13l-188 -171l201 -322h-159l-145 228l-60 -55v-173h-144v664
q-9 34 -31.5 53.5t-53.5 19.5q-43 0 -63.5 -33.5t-20.5 -87.5v-123h115l-5 -10h-110v-483h-144v483h-170z" />
    <glyph glyph-name="f_h" unicode="fh" horiz-adv-x="918" 
d="M216 483v-483h-144v483h-69v10h69v52q0 98 51 156t136 58q92 0 127 -70l7 60h137v-374q16 59 61 93.5t110 34.5q78 0 120 -48t42 -123v-332h-144v379q0 95 -74 95q-44 0 -79 -45.5t-36 -106.5v-322h-144v664q-22 73 -85 73q-43 0 -64 -33.5t-21 -87.5v-123h116l-5 -10
h-111z" />
    <glyph glyph-name="f_idieresis" unicode="f&#xef;" horiz-adv-x="590" 
d="M488 580v144h110v-144h-110zM72 493v54q0 92 58.5 152t152.5 60q66 0 100.5 -31t34.5 -81q0 -46 -31 -73l-7 6q28 28 28 67q0 44 -26 69.5t-73 25.5q-93 0 -93 -127v-122h314v-493h-144v483h-170v-483h-144v483h-69v10h69z" />
    <glyph glyph-name="f_j" unicode="fj" horiz-adv-x="590" 
d="M334 -225q-57 0 -92 28t-35 75q0 41 32 64l8 -4q-30 -27 -30 -60q0 -40 25 -62t62 -22q44 0 63 32.5t19 100.5v556h-170v-483h-144v483h-69v10h69v30q0 105 64.5 170.5t175.5 65.5q84 0 126.5 -34t42.5 -90q0 -44 -30 -74l-8 6q28 30 28 68q0 47 -32.5 76t-89.5 29
q-67 0 -100 -48.5t-33 -131.5v-67h314v-516q0 -92 -52.5 -147t-143.5 -55z" />
    <glyph glyph-name="f_k" unicode="fk" horiz-adv-x="904" 
d="M216 483v-483h-144v483h-69v10h69v52q0 98 51 156t136 58q92 0 127 -70l7 60h137v-564l337 308h14l-188 -172l200 -321h-158l-145 227l-60 -54v-173h-144v664q-22 73 -85 73q-43 0 -64 -33.5t-21 -87.5v-123h116l-5 -10h-111z" />
    <glyph glyph-name="f_f" unicode="ff" horiz-adv-x="648" 
d="M216 493h170v54q0 86 50 144q-35 37 -91 37q-63 0 -96 -47t-33 -129v-59zM216 483v-483h-144v483h-69v10h69v25q0 99 66.5 163.5t175.5 64.5q81 0 130 -47q58 60 152 60q68 0 104.5 -31t36.5 -81q0 -46 -32 -73l-7 6q29 27 29 67q0 43 -28.5 69t-76.5 26q-92 0 -92 -127
v-122h132l-5 -10h-127v-483h-144v483h-170z" />
    <glyph glyph-name="f_f_i" unicode="ffi" horiz-adv-x="903" 
d="M216 493h170v30q0 97 56 162q-38 43 -97 43q-63 0 -96 -47t-33 -129v-59zM216 483v-483h-144v483h-69v10h69v25q0 99 66.5 163.5t175.5 64.5q87 0 136 -54q65 67 175 67q84 0 126.5 -34t42.5 -90q0 -45 -29 -74l-8 6q27 29 27 68q0 47 -32 76t-89 29q-68 0 -100.5 -48
t-32.5 -132v-67h313v-493h-144v483h-169v-483h-144v483h-170z" />
    <glyph glyph-name="f_f_l" unicode="ffl" horiz-adv-x="903" 
d="M216 493h170v52q0 91 46 150q-36 33 -87 33q-63 0 -96 -47t-33 -129v-59zM216 483v-483h-144v483h-69v10h69v25q0 99 66.5 163.5t175.5 64.5q77 0 125 -43q50 56 134 56q93 0 126 -70l7 60h137v-749h-144v664q-9 34 -31.5 53.5t-53.5 19.5q-43 0 -63.5 -33.5t-20.5 -87.5
v-123h115l-5 -10h-110v-483h-144v483h-170z" />
    <glyph glyph-name=".notdef" horiz-adv-x="1152" 
d="M644 232l-32 19l-17 29l6 59l24 34l74 55l19 -4l48 -58l21 -65l-38 -41zM595 63l-24 3l-4 9l5 44l-2 37l-11 3l-5 -48l-30 -40l-20 -8l-43 7l-13 19v16l42 74l34 36l16 33v7l16 11l8 -9l1 -18l18 -31l15 -3l14 -31l8 -5l20 -41l-9 -50l-15 -3zM451 405l60 -60l-3 -39
l-8 -12l-17 4l-4 -19l5 -14l-8 -11l-31 -26l-34 1l-27 -12l-46 21l-19 19l-9 29l8 37l-1 6l4 37l20 22l26 43l8 3zM510 -81l-38 -19l-38 15l-2 14l12 28l-6 8l-16 2l-29 -23l-43 21v36l-35 32l-60 105l-33 86l-22 98l5 168l9 67l31 67l51 66l98 59l49 15l5 4l106 6l72 -3
l5 -6l-1 -20l-56 -78l-10 -22l-13 -71l14 -11v-7l-7 -7l-24 -13l-59 19l-32 37l1 9l-8 4l-45 -27l-62 -20l-61 -90l-14 -136l18 -72l43 -91l36 -85l57 -56l36 -17l24 4l102 -17l97 32l45 38l24 27l63 105l68 97l-19 56l10 84l-23 69l7 20l-86 48l-76 21l-83 -16l-3 4l11 81
l14 10l28 91l48 3l99 -30l76 -43l59 -91l8 -27l8 -45l-9 -46l-20 -61l3 -51l32 -40l1 -37l-94 -133l-33 -103l-9 -7l-24 -62l7 -10l-35 -24l-9 3l-30 24l-1 30l-5 2l-19 -23v-11l20 -26l-35 -35l-16 -3l-22 21l6 16l-17 17l-24 -4l-21 -65l-35 -3l-15 23l3 30l-33 -4z" />
    <glyph glyph-name=".null" horiz-adv-x="488" 
 />
    <glyph glyph-name="uni000D" unicode="&#xd;" horiz-adv-x="488" 
 />
    <glyph glyph-name="space" unicode=" " horiz-adv-x="241" 
 />
    <glyph glyph-name="exclam" unicode="!" horiz-adv-x="269" 
d="M136 226h-4l-90 474h185zM56 0v157h156v-157h-156z" />
    <glyph glyph-name="quotedbl" unicode="&#x22;" horiz-adv-x="376" 
d="M272 406h-5l-56 294h118zM109 406h-5l-57 294h119z" />
    <glyph glyph-name="numbersign" unicode="#" horiz-adv-x="660" 
d="M399 264l28 197h-173l-28 -197h173zM361 0l36 254h-173l-36 -254h-10l36 254h-164v10h166l28 197h-159v10h160l33 229h10l-33 -229h173l33 229h10l-33 -229h172v-10h-173l-28 -197h166v-10h-168l-36 -254h-10z" />
    <glyph glyph-name="dollar" unicode="$" horiz-adv-x="577" 
d="M248 453l80 -23v266q-22 3 -46 3q-18 0 -34 -3v-243zM128 574q0 -50 27.5 -75.5t82.5 -42.5v239q-50 -11 -80 -43t-30 -78zM281 1q27 0 47 4v265l-80 22v-290q11 -1 33 -1zM454 139q0 53 -29.5 81.5t-86.5 46.5v-260q55 13 85.5 48t30.5 84zM285 -10q-13 0 -37 2v-98h-10
v99q-86 10 -143.5 55.5t-70.5 115.5l11 3q12 -67 67 -110.5t136 -52.5v291l-18 5q-89 26 -136.5 73t-47.5 126q0 81 56 139t146 69v95h10v-93q5 0 15 0.5t16 0.5q25 0 49 -3v95h10v-97q70 -12 117.5 -52t60.5 -99l-12 -4q-12 58 -56 95t-110 49v-267l34 -10
q86 -25 132.5 -72.5t46.5 -128.5q0 -89 -60.5 -148.5t-152.5 -73.5v-100h-10v99q-21 -3 -43 -3z" />
    <glyph glyph-name="percent" unicode="%" horiz-adv-x="691" 
d="M164 0h-11l359 678q-19 -22 -55 -36.5t-76 -14.5q-48 0 -87 24q34 -42 34 -96q0 -64 -42.5 -109.5t-101.5 -45.5t-102 46t-43 109t43 109t102 46q32 0 57 -11.5t38.5 -25t40 -25t61.5 -11.5q96 0 152 77l6 -4zM247 555q0 145 -63 145t-63 -145t63 -145t63 145zM363 150
q0 63 42.5 109t101.5 46t102 -46t43 -109q0 -64 -43 -110t-102 -46t-101.5 46t-42.5 110zM571 150q0 145 -64 145q-63 0 -63 -145q0 -146 63 -146q64 0 64 146z" />
    <glyph glyph-name="ampersand" unicode="&#x26;" horiz-adv-x="796" 
d="M615 -10q-86 0 -143 70q-96 -70 -217 -70q-102 0 -168.5 55.5t-66.5 139.5q0 78 59 131.5t151 81.5l-7 10q-44 60 -44 125q0 76 53 126.5t138 50.5q65 0 102.5 -33.5t37.5 -89.5q0 -87 -123 -142l184 -262q71 116 66 241h11q5 -129 -71 -250l30 -43q56 -80 104 -80
q32 0 53.5 30t25.5 85l10 -1q-5 -78 -55 -126.5t-130 -48.5zM347 503l35 -50q118 50 118 134q0 49 -31 78t-76 29q-39 1 -63.5 -23t-24.5 -64q0 -45 42 -104zM358 30q53 0 108 37q-1 1 -3 3.5t-3 4.5l-224 314q-31 -13 -52.5 -52t-21.5 -101q0 -88 57 -147t139 -59z" />
    <glyph glyph-name="quotesingle" unicode="'" horiz-adv-x="213" 
d="M109 406h-5l-57 294h119z" />
    <glyph glyph-name="parenleft" unicode="(" horiz-adv-x="369" 
d="M199 298q0 -151 12 -233t40.5 -129.5t87.5 -85.5l-5 -5q-121 64 -200 183.5t-79 268.5t79 268.5t200 183.5l5 -5q-59 -38 -87.5 -85.5t-40.5 -129t-12 -231.5z" />
    <glyph glyph-name="parenright" unicode=")" horiz-adv-x="369" 
d="M31 -150q85 55 112.5 142t27.5 306q0 217 -27.5 304t-112.5 142l4 5q121 -64 200.5 -183t79.5 -269t-79.5 -269t-200.5 -183z" />
    <glyph glyph-name="asterisk" unicode="*" horiz-adv-x="448" 
d="M229 398h-10v167l-144 -84l-5 9l144 84l-144 82l5 9l144 -83v167h10v-167l144 83l5 -9l-144 -82l144 -84l-5 -9l-144 84v-167z" />
    <glyph glyph-name="plus" unicode="+" horiz-adv-x="463" 
d="M419 315h-183v-182h-10v182h-182v10h182v182h10v-182h183v-10z" />
    <glyph glyph-name="comma" unicode="," horiz-adv-x="265" 
d="M55 0v157h155v-164q0 -162 -170 -162v10q160 0 160 151v8h-145z" />
    <glyph glyph-name="hyphen" unicode="-" horiz-adv-x="358" 
d="M55 274v13h249v-13h-249z" />
    <glyph glyph-name="period" unicode="." horiz-adv-x="265" 
d="M55 0v157h155v-157h-155z" />
    <glyph glyph-name="slash" unicode="/" horiz-adv-x="351" 
d="M20 -153l300 902h11l-300 -902h-11z" />
    <glyph glyph-name="zero" unicode="0" horiz-adv-x="643" 
d="M25 350q0 151 85.5 255.5t210.5 104.5q126 0 211.5 -104.5t85.5 -255.5t-85.5 -255.5t-211.5 -104.5q-125 0 -210.5 104.5t-85.5 255.5zM190 350q0 -85 6 -146t20.5 -109t40.5 -71.5t64 -23.5q74 0 102.5 87.5t28.5 262.5t-28.5 262.5t-102.5 87.5q-38 0 -64 -23.5
t-40.5 -71.5t-20.5 -109t-6 -146z" />
    <glyph glyph-name="one" unicode="1" horiz-adv-x="396" 
d="M322 0h-152v610q-52 -94 -152 -161l-5 9q122 85 199 247h110v-705z" />
    <glyph glyph-name="two" unicode="2" horiz-adv-x="546" 
d="M109 122h408v-122h-524v8l203 208q84 86 121 157t37 147q0 80 -36.5 124.5t-109.5 44.5t-122.5 -50t-49.5 -122q0 -47 24.5 -79.5t61.5 -41.5l-3 -9q-39 9 -66 45t-27 85q0 85 64 139t171 54q105 0 175.5 -51.5t70.5 -145.5q0 -42 -19 -82.5t-47 -72.5t-82 -72
t-101 -70.5t-126 -79.5q-15 -9 -23 -14z" />
    <glyph glyph-name="three" unicode="3" horiz-adv-x="568" 
d="M258 -10q-106 0 -171 48.5t-65 126.5q0 50 29.5 82.5t73.5 42.5l4 -8q-41 -9 -69 -40.5t-28 -76.5q0 -69 55 -113.5t136 -44.5q82 0 126.5 54t44.5 141q0 84 -42.5 126t-121.5 42h-24v10h24q72 0 107.5 41.5t35.5 117.5q0 74 -38 112.5t-109 38.5q-64 0 -113 -38
t-49 -103q0 -85 82 -105l-3 -9q-89 23 -89 114q0 73 62 117t155 44q104 0 174 -45.5t70 -125.5q0 -72 -69.5 -117t-156.5 -46v-2q59 -2 114.5 -20.5t98 -61.5t42.5 -102q0 -94 -82.5 -147t-203.5 -53z" />
    <glyph glyph-name="four" unicode="4" horiz-adv-x="629" 
d="M614 220v-11h-141v-209h-151v209h-315v7l335 484h131v-480h141zM322 220v433l-299 -433h299z" />
    <glyph glyph-name="five" unicode="5" horiz-adv-x="549" 
d="M495 700l-16 -131h-359l-28 -221q26 46 78 72.5t120 26.5q103 0 169.5 -57t66.5 -150q0 -111 -84 -180.5t-212 -69.5q-95 0 -155.5 46.5t-60.5 120.5q0 43 23 73t60 43l4 -8q-77 -30 -77 -108q0 -68 52 -109t119 -41q88 0 133 59t45 166q0 86 -35 138.5t-104 52.5
q-95 0 -145 -95h-8l46 372h368z" />
    <glyph glyph-name="six" unicode="6" horiz-adv-x="592" 
d="M572 229q0 -108 -76.5 -173.5t-185.5 -65.5q-121 0 -203 98t-82 242q0 160 93.5 270t243.5 110q90 0 140 -41.5t50 -106.5q0 -36 -16 -60t-39 -33l-4 8q49 21 49 85q0 59 -44.5 97t-113.5 38q-109 0 -157.5 -107t-42.5 -297q12 68 63 107t113 39q87 0 149.5 -58.5
t62.5 -151.5zM186 201q0 -92 32 -146.5t92 -54.5q115 0 115 202q0 200 -115 200q-55 0 -89.5 -52t-34.5 -149z" />
    <glyph glyph-name="seven" unicode="7" horiz-adv-x="530" 
d="M27 700h497v-3l-102 -170q-131 -230 -98 -527h-148q2 43 8.5 82.5t23.5 83.5t27.5 71.5t40.5 78t41 69t50.5 78.5t48.5 75l23 31h-412v131z" />
    <glyph glyph-name="eight" unicode="8" horiz-adv-x="576" 
d="M391 403q85 -35 123.5 -80.5t38.5 -111.5q0 -100 -78.5 -160.5t-188.5 -60.5q-112 0 -187 48.5t-75 134.5q0 59 41.5 99.5t106.5 60.5q-124 61 -124 174q0 91 67 147t167 56q91 0 152 -43t61 -116q0 -102 -104 -148zM145 576q0 -46 29.5 -71.5t85.5 -49.5l121 -48
q104 50 104 144q0 67 -57.5 107.5t-138.5 40.5q-64 0 -104 -33t-40 -90zM313 276l-129 51q-67 -19 -108.5 -57.5t-41.5 -96.5q0 -81 72 -126.5t170 -45.5q85 0 129.5 37.5t44.5 100.5q0 50 -34.5 80t-102.5 57z" />
    <glyph glyph-name="nine" unicode="9" horiz-adv-x="592" 
d="M406 499q0 92 -32 146.5t-92 54.5q-115 0 -115 -202q0 -200 115 -200q55 0 89.5 52t34.5 149zM20 471q0 108 76.5 173.5t185.5 65.5q121 0 203 -99t82 -248q0 -156 -90 -264.5t-241 -108.5q-90 0 -141 42.5t-51 107.5q0 35 16.5 59.5t38.5 33.5l5 -8q-50 -22 -50 -85
q0 -59 45 -98t115 -39q111 0 155 105t39 299q-12 -68 -63 -107t-113 -39q-87 0 -149.5 58.5t-62.5 151.5z" />
    <glyph glyph-name="colon" unicode=":" horiz-adv-x="265" 
d="M55 298v157h155v-157h-155zM55 0v157h155v-157h-155z" />
    <glyph glyph-name="semicolon" unicode=";" horiz-adv-x="265" 
d="M55 298v157h155v-157h-155zM55 0v157h155v-164q0 -162 -170 -162v10q160 0 160 151v8h-145z" />
    <glyph glyph-name="less" unicode="&#x3c;" horiz-adv-x="372" 
d="M44 305v10l284 165v-10l-276 -160l276 -160v-10z" />
    <glyph glyph-name="equal" unicode="=" horiz-adv-x="479" 
d="M44 380v10h391v-10h-391zM44 237v10h391v-10h-391z" />
    <glyph glyph-name="greater" unicode="&#x3e;" horiz-adv-x="372" 
d="M328 305l-284 -165v10l276 160l-276 160v10l284 -165v-10z" />
    <glyph glyph-name="question" unicode="?" horiz-adv-x="529" 
d="M383 555q0 66 -42.5 103t-113.5 37q-87 0 -140 -51t-53 -125q0 -47 24.5 -80.5t61.5 -42.5l-4 -9q-38 9 -65 45.5t-27 86.5q0 85 63.5 138t171.5 53q104 0 175 -52.5t71 -143.5q0 -100 -75.5 -159.5t-177.5 -66.5v-64h-10v180q59 7 100 48.5t41 102.5zM177 0v157h155
v-157h-155z" />
    <glyph glyph-name="at" unicode="@" horiz-adv-x="941" 
d="M684 21q26 0 58.5 17t64 49t53 88t21.5 124q0 158 -111.5 251t-278.5 93q-179 0 -305 -123t-126 -312q0 -180 120 -292.5t306 -112.5q167 0 284 88l6 -8q-118 -90 -290 -90q-190 0 -313 116t-123 299q0 128 60.5 230.5t161 158.5t219.5 56q170 0 285 -95.5t115 -258.5
q0 -72 -23.5 -130.5t-60 -93.5t-77.5 -54t-80 -19q-58 0 -93.5 29.5t-36.5 83.5q-23 -48 -63.5 -79.5t-89.5 -31.5q-63 0 -100.5 44.5t-37.5 112.5q0 114 66.5 200.5t165.5 86.5q50 0 79.5 -31t31.5 -80l33 103h122l-83 -334q-10 -39 1 -62t39 -23zM526 149l30 123
q8 32 8 57q0 37 -16.5 58.5t-45.5 21.5q-59 0 -100.5 -86.5t-42.5 -191.5q0 -89 57 -89q34 0 64.5 31.5t45.5 75.5z" />
    <glyph glyph-name="A" unicode="A" horiz-adv-x="708" 
d="M423 224l-150 310l-145 -310h295zM532 0l-103 213h-306l-99 -213h-12l331 710h4l349 -710h-164z" />
    <glyph glyph-name="B" unicode="B" horiz-adv-x="677" 
d="M381 0h-309v700h292q115 0 186.5 -42.5t71.5 -130.5q0 -75 -63 -118t-148 -49v-2q63 -2 114.5 -17t89.5 -54.5t38 -99.5q0 -95 -75 -141t-197 -46zM223 689v-325h92q159 0 159 162q0 163 -159 163h-92zM319 353h-96v-342h104q88 0 133 38t45 133q0 171 -186 171z" />
    <glyph glyph-name="C" unicode="C" horiz-adv-x="683" 
d="M26 345q0 159 103.5 262t255.5 103q104 0 174 -49t98 -137l-10 -4q-25 80 -85.5 126t-139.5 46q-105 0 -166 -90t-61 -252t61 -252t166 -90q80 0 141 45.5t86 125.5l11 -4q-29 -87 -99.5 -136t-175.5 -49q-153 0 -256 98.5t-103 256.5z" />
    <glyph glyph-name="D" unicode="D" horiz-adv-x="752" 
d="M330 0h-258v700h240q184 0 299 -90.5t115 -253.5q0 -86 -32 -155t-87 -112.5t-126 -66t-151 -22.5zM566 356q0 161 -68 247t-202 86h-73v-678h84q259 0 259 345z" />
    <glyph glyph-name="E" unicode="E" horiz-adv-x="635" 
d="M72 0v700h508v-11h-357v-322h258v-11h-258v-345h374v-11h-525z" />
    <glyph glyph-name="F" unicode="F" horiz-adv-x="590" 
d="M72 0v700h493v-11h-342v-332h258v-11h-258v-346h-151z" />
    <glyph glyph-name="G" unicode="G" horiz-adv-x="755" 
d="M710 -10h-3l-98 122q-33 -55 -92.5 -88.5t-129.5 -33.5q-152 0 -256.5 99.5t-104.5 257.5q0 159 109.5 261t266.5 102q107 0 178.5 -49t101.5 -137l-10 -4q-26 81 -91.5 128.5t-152.5 47.5q-108 0 -170.5 -96t-62.5 -255q0 -157 51 -250.5t147 -93.5q76 0 122 50t46 138
v131h149v-330z" />
    <glyph glyph-name="H" unicode="H" horiz-adv-x="800" 
d="M72 0v700h151v-333h354v333h151v-700h-151v356h-354v-356h-151z" />
    <glyph glyph-name="I" unicode="I" horiz-adv-x="295" 
d="M223 700v-700h-151v700h151z" />
    <glyph glyph-name="J" unicode="J" horiz-adv-x="578" 
d="M366 202v498h152v-455q0 -122 -76 -188.5t-199 -66.5q-102 0 -165 54.5t-63 143.5q0 45 23 82t55 53l4 -8q-32 -18 -52 -51.5t-20 -75.5q0 -82 55 -131.5t129 -49.5q81 0 119 52t38 143z" />
    <glyph glyph-name="K" unicode="K" horiz-adv-x="731" 
d="M537 0l-241 332l-73 -74v-258h-151v700h151v-428l423 428h14l-256 -258l311 -442h-178z" />
    <glyph glyph-name="L" unicode="L" horiz-adv-x="612" 
d="M72 0v700h151v-689h360v-11h-511z" />
    <glyph glyph-name="M" unicode="M" horiz-adv-x="886" 
d="M666 685l-272 -695h-4l-307 695v-685h-11v700h165l225 -508l199 508h154v-700h-149v685z" />
    <glyph glyph-name="N" unicode="N" horiz-adv-x="734" 
d="M651 195v505h11v-709h-4l-575 525v-516h-11v710h4z" />
    <glyph glyph-name="O" unicode="O" horiz-adv-x="781" 
d="M26 350q0 155 107.5 257.5t257.5 102.5t257.5 -102.5t107.5 -257.5t-107.5 -257.5t-257.5 -102.5t-257.5 102.5t-107.5 257.5zM195 350q0 -177 47.5 -263.5t148.5 -86.5t148.5 86.5t47.5 263.5t-47.5 263.5t-148.5 86.5t-148.5 -86.5t-47.5 -263.5z" />
    <glyph glyph-name="P" unicode="P" horiz-adv-x="671" 
d="M374 300h-151v-300h-151v700h302q125 0 203.5 -49t78.5 -151t-78 -151t-204 -49zM223 311h98q82 0 128.5 48.5t46.5 140.5q0 93 -46.5 141t-128.5 48h-98v-378z" />
    <glyph glyph-name="Q" unicode="Q" horiz-adv-x="781" 
d="M634 -161q-125 0 -189 155q-24 -4 -54 -4q-150 0 -257.5 102.5t-107.5 257.5t107.5 257.5t257.5 102.5t257.5 -102.5t107.5 -257.5q0 -136 -85 -233.5t-213 -120.5q59 -147 176 -147q49 0 80 29t33 80l11 -1q-1 -54 -36.5 -86t-87.5 -32zM195 350q0 -177 47.5 -263.5
t148.5 -86.5t148.5 86.5t47.5 263.5t-47.5 263.5t-148.5 86.5t-148.5 -86.5t-47.5 -263.5z" />
    <glyph glyph-name="R" unicode="R" horiz-adv-x="732" 
d="M223 689v-352h113q81 0 127 44t46 130q0 88 -44.5 133t-124.5 45h-117zM223 326v-326h-151v700h320q122 0 197.5 -46t75.5 -138q0 -61 -38 -104.5t-90.5 -61.5t-112.5 -19v-2q155 -6 193 -120l32 -93q26 -77 59 -116h-166q-21 32 -44 102l-32 99q-22 69 -54 97t-98 28
h-91z" />
    <glyph glyph-name="S" unicode="S" horiz-adv-x="609" 
d="M485 139q0 56 -37 85.5t-109 48.5l-110 30q-96 25 -147 71t-51 125q0 91 72 151t185 60q94 0 163 -39.5t100 -107.5l-10 -7q-30 67 -96.5 105t-154.5 38q-75 0 -120 -34t-45 -91q0 -30 10.5 -51.5t35.5 -36t47 -22.5t63 -19l109 -30q93 -25 143 -71.5t50 -127.5
q0 -103 -80.5 -164.5t-197.5 -61.5q-103 0 -180 42.5t-112 117.5l10 6q33 -72 107.5 -113.5t169.5 -41.5q87 0 136 38t49 100z" />
    <glyph glyph-name="T" unicode="T" horiz-adv-x="714" 
d="M281 0v689h-261v11h674v-11h-262v-689h-151z" />
    <glyph glyph-name="U" unicode="U" horiz-adv-x="715" 
d="M644 700h11v-423q0 -138 -78.5 -212.5t-209.5 -74.5q-140 0 -223.5 75.5t-83.5 210.5v424h152v-414q0 -259 211 -259q96 0 158.5 67t62.5 188v418z" />
    <glyph glyph-name="V" unicode="V" horiz-adv-x="708" 
d="M364 -10h-4l-348 710h164l259 -534l249 534h12z" />
    <glyph glyph-name="W" unicode="W" horiz-adv-x="992" 
d="M388 173l-8 -19l-65 -164h-4l-299 710h159l211 -511l113 286l-94 225h154l210 -519l202 519h12l-277 -710h-4l-197 470l-113 -286v-1z" />
    <glyph glyph-name="X" unicode="X" horiz-adv-x="710" 
d="M26 0h-14l271 343l-254 357h171l194 -273l216 273h14l-223 -282l297 -418h-171l-238 334z" />
    <glyph glyph-name="Y" unicode="Y" horiz-adv-x="677" 
d="M412 312l242 388h11l-250 -404v-296h-152v291l-251 409h170z" />
    <glyph glyph-name="Z" unicode="Z" horiz-adv-x="662" 
d="M630 11v-11h-603v4l430 685h-405v11h573v-4l-426 -685h431z" />
    <glyph glyph-name="bracketleft" unicode="[" horiz-adv-x="362" 
d="M82 -154v903h255v-7l-118 -4v-881l118 -4v-7h-255z" />
    <glyph glyph-name="backslash" unicode="\" horiz-adv-x="351" 
d="M331 -153h-11l-300 902h11z" />
    <glyph glyph-name="bracketright" unicode="]" horiz-adv-x="362" 
d="M280 749v-903h-255v7l118 4v881l-118 4v7h255z" />
    <glyph glyph-name="asciicircum" unicode="^" horiz-adv-x="490" 
d="M244 710h2l204 -278h-10l-195 266l-195 -266h-10z" />
    <glyph glyph-name="underscore" unicode="_" horiz-adv-x="369" 
d="M60 -72v13h249v-13h-249z" />
    <glyph glyph-name="grave" unicode="`" horiz-adv-x="500" 
d="M315 550l-183 199h136l51 -199h-4z" />
    <glyph glyph-name="a" unicode="a" horiz-adv-x="539" 
d="M341 269l-79 -13q-53 -10 -75.5 -38t-22.5 -81q0 -52 19 -81t52 -29q40 0 69.5 35.5t36.5 85.5v121zM341 278v88q0 59 -30.5 91t-89.5 32q-63 0 -106 -33.5t-43 -87.5q0 -47 37 -74l-6 -7q-41 27 -41 81q0 60 50 97.5t144 37.5q114 0 170.5 -49.5t56.5 -143.5v-310h-130
l-10 122q-12 -55 -58 -93.5t-114 -38.5q-65 0 -106 33.5t-41 90.5q0 34 16 59.5t45 41.5t59.5 25t69.5 16z" />
    <glyph glyph-name="b" unicode="b" horiz-adv-x="608" 
d="M204 116l-12 -116h-132v749h144v-374q16 57 60.5 92.5t108.5 35.5q85 0 147.5 -68.5t62.5 -182.5q0 -116 -61.5 -189t-150.5 -73q-61 0 -106 34.5t-61 91.5zM203 316v-140q2 -65 36 -110t81 -45q51 0 80.5 62t29.5 166t-28.5 163.5t-79.5 59.5q-46 0 -81 -44t-38 -112z
" />
    <glyph glyph-name="c" unicode="c" horiz-adv-x="504" 
d="M334 482q-70 0 -114 -63t-44 -176q0 -111 37.5 -171t107.5 -60q54 0 98.5 36.5t57.5 106.5l10 -3q-16 -77 -71.5 -119.5t-141.5 -42.5q-99 0 -174 68.5t-75 181.5q0 116 78.5 189.5t186.5 73.5q83 0 131 -40.5t48 -105.5q0 -62 -43 -93l-6 7q39 31 39 86t-34.5 90
t-90.5 35z" />
    <glyph glyph-name="d" unicode="d" horiz-adv-x="608" 
d="M404 176v141q-1 64 -35 109.5t-81 45.5q-52 0 -81 -62t-29 -166t28.5 -163.5t79.5 -59.5q46 0 81 44t37 111zM404 376v373h144v-749h-140l-4 118q-16 -56 -60.5 -92t-108.5 -36q-86 0 -148 68.5t-62 182.5q0 116 61.5 189t149.5 73q62 0 107 -34.5t61 -92.5z" />
    <glyph glyph-name="e" unicode="e" horiz-adv-x="537" 
d="M509 152q-20 -77 -79 -119.5t-148 -42.5q-101 0 -179 69.5t-78 182.5q0 118 75 189.5t179 71.5q109 0 171 -68t62 -169h-335v-28q0 -229 147 -229q61 0 109.5 37.5t65.5 108.5zM279 494q-97 0 -102 -218h194q0 112 -20 165t-72 53z" />
    <glyph glyph-name="f" unicode="f" horiz-adv-x="335" 
d="M216 615v-122h133l-5 -10h-128v-483h-144v483h-69v10h69v54q0 92 58.5 152t152.5 60q67 0 104 -31t37 -81q0 -46 -32 -73l-7 6q29 27 29 67q0 43 -28.5 69t-76.5 26q-93 0 -93 -127z" />
    <glyph glyph-name="g" unicode="g" horiz-adv-x="552" 
d="M333 341q0 83 -18 118t-59 35q-40 0 -58.5 -35t-18.5 -118q0 -85 18.5 -119.5t58.5 -34.5q41 0 59 34.5t18 119.5zM547 -26q0 -93 -88 -146t-211 -53q-110 0 -177.5 30.5t-67.5 90.5q0 42 35.5 67.5t84.5 25.5q-42 10 -66 38.5t-24 66.5q0 79 92 114q-85 45 -85 133
q0 69 59 115.5t157 46.5q70 0 125 -26q48 77 110 77q38 0 60 -21t22 -57q0 -38 -29 -67l-7 6q26 28 26 61q0 32 -19.5 50t-52.5 18q-58 0 -101 -72q83 -45 83 -131q0 -70 -59.5 -116.5t-157.5 -46.5q-70 0 -122 25q-54 -20 -54 -51q0 -36 56 -36h230q85 0 133 -35.5
t48 -106.5zM399 -17h-263q-50 0 -86.5 -22.5t-36.5 -64.5q0 -56 65 -83.5t170 -27.5q102 0 174.5 36t72.5 94q0 68 -96 68z" />
    <glyph glyph-name="h" unicode="h" horiz-adv-x="592" 
d="M60 749h144v-374q16 59 61 93.5t110 34.5q78 0 120 -48t42 -123v-332h-144v379q0 95 -73 95q-44 0 -79.5 -45.5t-36.5 -106.5v-322h-144v749z" />
    <glyph glyph-name="i" unicode="i" 
d="M59 580v144h145v-144h-145zM204 493v-493h-144v493h144z" />
    <glyph glyph-name="j" unicode="j" 
d="M59 580v144h145v-144h-145zM204 -23q0 -92 -52.5 -147t-143.5 -55q-57 0 -92 28t-35 75q0 41 32 64l8 -4q-30 -27 -30 -60q0 -40 25.5 -62t61.5 -22q44 0 63 32.5t19 100.5v566h144v-516z" />
    <glyph glyph-name="k" unicode="k" horiz-adv-x="577" 
d="M409 0l-145 227l-60 -54v-173h-144v749h144v-564l338 308h13l-188 -172l201 -321h-159z" />
    <glyph glyph-name="l" unicode="l" 
d="M204 749v-749h-144v749h144z" />
    <glyph glyph-name="m" unicode="m" horiz-adv-x="903" 
d="M526 324v-324h-144v378q0 94 -70 94q-42 0 -74 -42.5t-34 -105.5v-324h-144v493h140l4 -117q16 60 58.5 93.5t107.5 33.5q66 0 105 -36.5t48 -97.5q15 62 58.5 98t110.5 36q77 0 116.5 -48t39.5 -126v-329h-144v378q0 94 -70 94q-42 0 -74 -42.5t-34 -105.5z" />
    <glyph glyph-name="n" unicode="n" horiz-adv-x="592" 
d="M204 322v-322h-144v493h140l4 -118q16 59 61 93.5t110 34.5q78 0 120 -48t42 -123v-332h-144v379q0 95 -73 95q-44 0 -79.5 -45.5t-36.5 -106.5z" />
    <glyph glyph-name="o" unicode="o" horiz-adv-x="578" 
d="M289 -10q-110 0 -187 73t-77 183t77 183.5t187 73.5q109 0 186.5 -73.5t77.5 -183.5t-77 -183t-187 -73zM289 494q-58 0 -85 -56t-27 -192q0 -135 27 -191t85 -56t85 56t27 191q0 136 -27 192t-85 56z" />
    <glyph glyph-name="p" unicode="p" horiz-adv-x="608" 
d="M203 316v-140q2 -65 36 -110t81 -45q51 0 80.5 62t29.5 166t-28.5 163.5t-79.5 59.5q-46 0 -81 -44t-38 -112zM204 116v-331h-144v708h140l4 -118q16 57 60.5 92.5t108.5 35.5q85 0 147.5 -68.5t62.5 -182.5q0 -116 -61.5 -189t-150.5 -73q-61 0 -106 34.5t-61 91.5z" />
    <glyph glyph-name="q" unicode="q" horiz-adv-x="608" 
d="M404 376l10 117h134v-708h-144v333q-16 -56 -60.5 -92t-108.5 -36q-86 0 -148 68.5t-62 182.5q0 116 61.5 189t149.5 73q62 0 107 -34.5t61 -92.5zM404 176v141q-1 64 -35 109.5t-81 45.5q-52 0 -81 -62t-29 -166t28.5 -163.5t79.5 -59.5q46 0 81 44t37 111z" />
    <glyph glyph-name="r" unicode="r" horiz-adv-x="480" 
d="M203 347q16 66 57 111t97 45q49 0 76.5 -28t27.5 -75q0 -51 -39 -88l-7 7q36 33 36 81q0 42 -25 67.5t-69 25.5t-79.5 -33t-53 -76.5t-20.5 -86.5v-297h-144v493h140z" />
    <glyph glyph-name="s" unicode="s" horiz-adv-x="474" 
d="M233 493q-54 0 -87.5 -22.5t-33.5 -58.5q0 -33 21.5 -50t67.5 -29l98 -26q74 -20 111 -53t37 -92q0 -78 -60 -125t-155 -47q-78 0 -139.5 36.5t-77.5 99.5l10 4q16 -61 75.5 -95.5t131.5 -34.5q55 0 89.5 24t34.5 68q0 34 -24 52.5t-70 30.5l-98 25q-134 34 -134 138
q0 73 57.5 119t145.5 46q67 0 115.5 -28t68.5 -80l-10 -4q-40 102 -174 102z" />
    <glyph glyph-name="t" unicode="t" horiz-adv-x="408" 
d="M1 483v10h68v110l143 53v-163h168l-5 -10h-163v-389q0 -82 63 -82q49 0 79.5 42.5t31.5 117.5l11 -1q-7 -181 -166 -181q-74 0 -118 41.5t-44 120.5v331h-68z" />
    <glyph glyph-name="u" unicode="u" horiz-adv-x="586" 
d="M383 171v322h144v-493h-140l-4 118q-17 -60 -60 -94t-107 -34q-77 0 -119 48.5t-42 123.5v331h144v-378q0 -96 72 -96q43 0 77 45t35 107z" />
    <glyph glyph-name="v" unicode="v" horiz-adv-x="492" 
d="M258 -7h-4l-250 500h154l160 -343l159 343h11z" />
    <glyph glyph-name="w" unicode="w" horiz-adv-x="741" 
d="M523 -7l-146 328l-139 -328h-4l-230 500h149l145 -334l74 174l-71 160h148l137 -334l140 334h11l-210 -500h-4z" />
    <glyph glyph-name="x" unicode="x" horiz-adv-x="522" 
d="M360 0l-158 224l-178 -224h-12l184 232l-184 261h158l137 -195l153 195h12l-159 -203l205 -290h-158z" />
    <glyph glyph-name="y" unicode="y" horiz-adv-x="498" 
d="M76 -225q-45 0 -72.5 28t-27.5 75q0 32 19 62l10 -4q-19 -30 -19 -58q0 -43 24.5 -68t65.5 -25q49 0 82 40t76 132l18 39l-247 497h154l161 -349l162 349h12l-249 -536q-43 -94 -79 -138t-90 -44z" />
    <glyph glyph-name="z" unicode="z" horiz-adv-x="505" 
d="M23 4l292 479h-275v10h434v-4l-289 -479h298v-10h-460v4z" />
    <glyph glyph-name="braceleft" unicode="{" horiz-adv-x="410" 
d="M31 293v9q115 0 115 125q0 29 -14.5 85t-14.5 81q0 69 54.5 112.5t134.5 43.5q47 0 84 -20l-1 -9q-32 16 -59 16q-39 0 -62.5 -26.5t-23.5 -72.5q0 -29 13.5 -97t13.5 -93q0 -38 -19.5 -68t-50.5 -46.5t-63 -25t-64 -10.5q32 -2 64 -10.5t63 -25t50.5 -46.5t19.5 -68
q0 -25 -13.5 -93.5t-13.5 -96.5q0 -46 23.5 -72t62.5 -26q29 0 59 15l1 -9q-37 -20 -84 -20q-80 0 -134.5 43.5t-54.5 112.5q0 26 14.5 82t14.5 85q0 125 -115 125z" />
    <glyph glyph-name="bar" unicode="|" horiz-adv-x="214" 
d="M102 -153v902h10v-902h-10z" />
    <glyph glyph-name="braceright" unicode="}" horiz-adv-x="410" 
d="M379 302v-9q-115 0 -115 -125q0 -28 15 -85t15 -82q0 -69 -55 -112.5t-135 -43.5q-46 0 -84 20l2 9q30 -15 58 -15q39 0 62.5 26t23.5 72q0 28 -13 96.5t-13 93.5q0 38 19.5 67.5t50.5 46.5t62.5 25.5t63.5 10.5q-32 2 -63.5 10.5t-62.5 25.5t-50.5 46.5t-19.5 67.5
q0 25 13 93t13 97q0 46 -23.5 72.5t-62.5 26.5q-26 0 -58 -16l-2 9q38 20 84 20q80 0 135 -43.5t55 -112.5q0 -25 -15 -81.5t-15 -84.5q0 -125 115 -125z" />
    <glyph glyph-name="asciitilde" unicode="~" horiz-adv-x="534" 
d="M350 252q-31 0 -109.5 47.5t-106.5 47.5q-34 0 -51 -23t-21 -75h-7q4 83 37.5 137.5t90.5 54.5q35 0 112.5 -48t103.5 -48q35 0 52 24t21 76h7q-4 -83 -38 -138t-91 -55z" />
    <glyph glyph-name="uni00A0" unicode="&#xa0;" horiz-adv-x="488" 
 />
    <glyph glyph-name="exclamdown" unicode="&#xa1;" horiz-adv-x="269" 
d="M56 395v157h156v-157h-156zM132 326h4l91 -474h-185z" />
    <glyph glyph-name="cent" unicode="&#xa2;" horiz-adv-x="509" 
d="M174 245q0 -183 95 -223l73 467h-12q-68 0 -112 -64t-44 -180zM488 152q-19 -78 -73.5 -120t-140.5 -42l-16 -104h-10l16 104q-95 5 -166.5 74t-71.5 178q0 118 79.5 191.5t187.5 73.5q30 0 51 -4l17 108h10l-17 -110q57 -14 88.5 -51t31.5 -91q0 -29 -12.5 -53.5
t-29.5 -36.5l-6 7q38 31 38 83q0 53 -31.5 87.5t-80.5 41.5l-73 -470q18 -6 40 -6q56 0 99 36.5t60 106.5z" />
    <glyph glyph-name="sterling" unicode="&#xa3;" horiz-adv-x="679" 
d="M504 -10q-19 0 -36.5 2.5t-36.5 10.5t-30.5 12.5t-32.5 18.5t-28 19t-31 22.5t-28 20.5q-62 -106 -167 -106q-42 0 -68.5 25.5t-26.5 62.5q0 39 28.5 65.5t74.5 26.5q32 0 96 -16q2 34 2 53q0 53 -26 147h-95v10h93q-18 67 -18 118q0 99 66.5 163.5t174.5 64.5
q92 0 139.5 -39t47.5 -100q0 -44 -21 -73.5t-54 -40.5l-3 8q68 25 68 106q0 50 -34 84t-94 34q-59 0 -91.5 -49t-32.5 -142v-134h140v-10h-140q-1 -133 -41 -223q126 -36 203 -36q65 0 99 16.5t34 59.5q0 25 -17 47t-44 34l4 7q74 -33 74 -117q-1 -64 -40 -108t-108 -44z
M106 2q91 0 110 135q-46 24 -94 24q-42 0 -67.5 -23.5t-25.5 -59.5q0 -33 21.5 -54.5t55.5 -21.5z" />
    <glyph glyph-name="yen" unicode="&#xa5;" horiz-adv-x="637" 
d="M574 235h-179v-235h-152v235h-179v10h179v46l-28 53h-151v10h146l-183 346h170l194 -388l207 388h11l-183 -346h148v-10h-154l-25 -48v-51h179v-10z" />
    <glyph glyph-name="section" unicode="&#xa7;" horiz-adv-x="599" 
d="M368 122q67 -56 87 -84q35 27 35 70q0 29 -18 51t-61 57l-180 146q-66 53 -87 83q-35 -27 -35 -70q0 -29 17.5 -51t60.5 -56zM287 -225q-63 0 -111.5 32t-64.5 85l9 5q17 -53 62 -82.5t105 -29.5q52 0 82 27t30 68q0 34 -21.5 58.5t-81.5 71.5l-135 106
q-60 47 -85.5 84.5t-25.5 89.5q0 49 25.5 93t62.5 71q-23 38 -23 87q0 71 57 119.5t139 48.5q62 0 109.5 -32t67.5 -86l-10 -4q-20 54 -64 83t-103 29q-52 0 -81.5 -27t-29.5 -68q0 -34 22 -59.5t81 -70.5l135 -106q60 -47 85.5 -84.5t25.5 -89.5q0 -49 -25 -93.5t-63 -71.5
q23 -37 23 -86q0 -71 -57 -119.5t-140 -48.5z" />
    <glyph glyph-name="dieresis" unicode="&#xa8;" horiz-adv-x="500" 
d="M280 580v144h116v-144h-116zM104 580v144h116v-144h-116z" />
    <glyph glyph-name="copyright" unicode="&#xa9;" horiz-adv-x="810" 
d="M405 710q151 0 255.5 -102.5t104.5 -257.5t-104.5 -257.5t-255.5 -102.5t-255.5 102.5t-104.5 257.5t104.5 257.5t255.5 102.5zM405 0q147 0 248.5 99.5t101.5 250.5t-101.5 250.5t-248.5 99.5t-248.5 -99.5t-101.5 -250.5t101.5 -250.5t248.5 -99.5zM189 350
q0 100 68.5 164.5t164.5 64.5q67 0 112 -31.5t63 -86.5l-8 -3q-17 50 -54.5 78t-88.5 28q-63 0 -99.5 -55.5t-36.5 -158.5t36.5 -158.5t99.5 -55.5q51 0 88.5 27.5t54.5 78.5l8 -3q-18 -56 -63 -87t-112 -31q-96 0 -164.5 64.5t-68.5 164.5z" />
    <glyph glyph-name="ordfeminine" unicode="&#xaa;" horiz-adv-x="381" 
d="M241 547l-53 -9q-63 -10 -63 -79q0 -72 45 -72q27 0 46.5 24.5t24.5 59.5v76zM241 556v58q0 84 -81 84q-43 0 -71.5 -22t-28.5 -59q0 -30 25 -49l-6 -6q-28 19 -28 55q0 42 34.5 67.5t99.5 25.5q158 0 158 -132v-213h-93l-7 84q-9 -38 -39 -64t-77 -26q-45 0 -73.5 22.5
t-28.5 62.5q0 74 131 97zM52 274v10h277v-10h-277z" />
    <glyph glyph-name="guillemotleft" unicode="&#xab;" horiz-adv-x="497" 
d="M33 242v4l247 209h4l-125 -211l125 -211h-4zM213 242v4l247 209h4l-125 -211l125 -211h-4z" />
    <glyph glyph-name="registered" unicode="&#xae;" horiz-adv-x="542" 
d="M271 710q90 0 153 -61.5t63 -154.5t-63 -154.5t-153 -61.5t-153 61.5t-63 154.5t63 154.5t153 61.5zM271 288q86 0 146 59t60 147t-60 147t-146 59t-146 -59t-60 -147t60 -147t146 -59zM231 604v-108h28q56 0 56 54q0 29 -13.5 41.5t-42.5 12.5h-28zM231 486v-108h-61
v236h126q37 0 59.5 -17.5t22.5 -46.5q0 -24 -20.5 -41t-48.5 -18v-1q42 -3 54 -41l12 -34q7 -21 20 -37h-67q-10 12 -16 33l-13 38q-13 37 -46 37h-22z" />
    <glyph glyph-name="macron" unicode="&#xaf;" horiz-adv-x="500" 
d="M397 632h-294v10h294v-10z" />
    <glyph glyph-name="degree" unicode="&#xb0;" horiz-adv-x="383" 
d="M80 609q0 46 33 79t79 33t78.5 -33t32.5 -79q0 -45 -32.5 -78t-78.5 -33t-79 33t-33 78zM293 609q0 42 -29.5 72t-71.5 30t-72 -30t-30 -72q0 -41 30 -71t72 -30t71.5 30t29.5 71z" />
    <glyph glyph-name="plusminus" unicode="&#xb1;" horiz-adv-x="463" 
d="M419 355h-183v-152h-10v152h-182v10h182v152h10v-152h183v-10zM44 124v10h375v-10h-375z" />
    <glyph glyph-name="twosuperior" unicode="&#xb2;" horiz-adv-x="272" 
d="M72 474h168l-1 -60h-225v6l82 85q64 65 64 123q0 66 -56 66q-28 0 -47 -18.5t-19 -47.5q0 -18 11 -32t27 -17l-4 -8q-18 3 -30 19.5t-12 37.5q0 36 27 58t74 22q45 0 75 -21.5t30 -62.5q0 -43 -39.5 -75t-124.5 -75z" />
    <glyph glyph-name="threesuperior" unicode="&#xb3;" horiz-adv-x="286" 
d="M130 410q-44 0 -72 19.5t-28 53.5q0 22 13.5 36t33.5 17l3 -6q-18 -3 -30 -15.5t-12 -30.5q0 -28 22 -45.5t52 -17.5q32 0 49 21.5t17 56.5q0 66 -60 66h-10v7h10q53 0 53 64q0 59 -57 59q-24 0 -43 -14.5t-19 -39.5q0 -34 34 -42l-3 -7q-41 9 -41 49q0 30 27 48.5
t67 18.5q45 0 75 -19t30 -53q0 -29 -28.5 -47.5t-66.5 -19.5v-1q41 -1 74 -20t33 -55q0 -40 -35 -61.5t-88 -21.5z" />
    <glyph glyph-name="acute" unicode="&#xb4;" horiz-adv-x="500" 
d="M232 749h136l-183 -199h-4z" />
    <glyph glyph-name="paragraph" unicode="&#xb6;" horiz-adv-x="558" 
d="M282 -215q66 0 103.5 54t37.5 156v695h-49v-584l-10 3v158q-85 0 -154.5 21t-117 72t-47.5 124q0 72 47.5 122.5t117.5 72t154 21.5h119v-10h-50v-697q0 -106 -40.5 -162t-110.5 -56q-41 0 -70.5 25t-29.5 65q0 29 15 46l8 -4q-13 -19 -13 -42q0 -37 27 -58.5t63 -21.5z
" />
    <glyph glyph-name="periodcentered" unicode="&#xb7;" horiz-adv-x="265" 
d="M55 202v157h155v-157h-155z" />
    <glyph glyph-name="cedilla" unicode="&#xb8;" horiz-adv-x="500" 
d="M145 -166l8 6q25 -45 73 -45q29 0 44.5 18.5t15.5 49.5q0 69 -83 71l32 68h9l-28 -60q63 0 106 -21t43 -63q0 -38 -31 -60.5t-75 -22.5q-79 0 -114 59z" />
    <glyph glyph-name="onesuperior" unicode="&#xb9;" horiz-adv-x="216" 
d="M166 414h-75v247q-23 -40 -64 -68l-4 7q53 38 86 105h57v-291z" />
    <glyph glyph-name="ordmasculine" unicode="&#xba;" horiz-adv-x="419" 
d="M209 355q-75 0 -128.5 50.5t-53.5 126.5t53.5 127t128.5 51q76 0 129.5 -51t53.5 -127t-53.5 -126.5t-129.5 -50.5zM209 701q-40 0 -57 -37t-17 -132t17 -132t57 -37t57.5 37.5t17.5 131.5q0 95 -17.5 132t-57.5 37zM59 274v10h301v-10h-301z" />
    <glyph glyph-name="guillemotright" unicode="&#xbb;" horiz-adv-x="497" 
d="M284 246v-4l-247 -209h-4l125 211l-125 211h4zM464 246v-4l-247 -209h-4l125 211l-125 211h4z" />
    <glyph glyph-name="onequarter" unicode="&#xbc;" horiz-adv-x="394" 
d="M230 414h-75v247q-23 -40 -64 -68l-4 7q53 38 86 105h57v-291zM29 358h336v-10h-336v10zM308 92v-8h-56v-84h-75v84h-128v6l137 200h66v-198h56zM177 92v171l-116 -171h116z" />
    <glyph glyph-name="onehalf" unicode="&#xbd;" horiz-adv-x="394" 
d="M230 414h-75v247q-23 -40 -64 -68l-4 7q53 38 86 105h57v-291zM29 358h336v-10h-336v10zM128 60h169l-1 -60h-225v6l82 85q64 65 64 123q0 66 -56 66q-28 0 -47 -18.5t-19 -47.5q0 -18 11 -32t27 -17l-4 -8q-18 4 -30.5 20t-12.5 37q0 36 27 58t74 22q45 0 75.5 -21.5
t30.5 -62.5q0 -43 -39.5 -75t-125.5 -75z" />
    <glyph glyph-name="threequarters" unicode="&#xbe;" horiz-adv-x="394" 
d="M182 411q-44 0 -72 19.5t-28 53.5q0 35 35 50l4 -6q-30 -12 -30 -44q0 -27 22 -44.5t51 -17.5q32 0 49.5 21t17.5 56q0 66 -61 66h-10v8h10q53 0 53 63q0 60 -57 60q-24 0 -43 -14.5t-19 -39.5q0 -28 23 -39l-3 -7q-29 13 -29 46q0 30 27 48.5t66 18.5q45 0 75 -19
t30 -53q0 -30 -28.5 -48.5t-66.5 -18.5v-1q41 -2 74.5 -21t33.5 -54q0 -40 -35.5 -61.5t-88.5 -21.5zM29 358h336v-10h-336v10zM308 92v-8h-56v-84h-75v84h-128v6l137 200h66v-198h56zM177 92v171l-116 -171h116z" />
    <glyph glyph-name="questiondown" unicode="&#xbf;" horiz-adv-x="529" 
d="M352 552v-157h-155v157h155zM146 -3q0 -66 42.5 -103t113.5 -37q87 0 140 51t53 125q0 47 -24.5 80.5t-61.5 42.5l4 9q38 -9 65 -45.5t27 -86.5q0 -85 -63.5 -138t-171.5 -53q-104 0 -175 52.5t-71 143.5q0 100 75.5 159.5t177.5 66.5v64h10v-180q-59 -7 -100 -48.5
t-41 -102.5z" />
    <glyph glyph-name="Agrave" unicode="&#xc0;" horiz-adv-x="708" 
d="M362 741l-183 187h138l49 -187h-4zM423 224l-150 310l-145 -310h295zM532 0l-103 213h-306l-99 -213h-12l331 710h4l349 -710h-164z" />
    <glyph glyph-name="Aacute" unicode="&#xc1;" horiz-adv-x="708" 
d="M371 928h138l-183 -187h-4zM423 224l-150 310l-145 -310h295zM532 0l-103 213h-306l-99 -213h-12l331 710h4l349 -710h-164z" />
    <glyph glyph-name="Acircumflex" unicode="&#xc2;" horiz-adv-x="708" 
d="M394 740l-102 123l-104 -123h-13l171 201h2l166 -201h-120zM423 224l-150 310l-145 -310h295zM532 0l-103 213h-306l-99 -213h-12l331 710h4l349 -710h-164z" />
    <glyph glyph-name="Atilde" unicode="&#xc3;" horiz-adv-x="708" 
d="M422 756q-32 0 -97 42.5t-91 42.5q-58 0 -65 -88h-7q4 75 33.5 123t80.5 48q34 0 98 -42.5t90 -42.5q57 0 64 88h7q-4 -74 -33.5 -122.5t-79.5 -48.5zM423 224l-150 310l-145 -310h295zM532 0l-103 213h-306l-99 -213h-12l331 710h4l349 -710h-164z" />
    <glyph glyph-name="Adieresis" unicode="&#xc4;" horiz-adv-x="708" 
d="M374 750v145h116v-145h-116zM198 750v145h116v-145h-116zM423 224l-150 310l-145 -310h295zM532 0l-103 213h-306l-99 -213h-12l331 710h4l349 -710h-164z" />
    <glyph glyph-name="Aring" unicode="&#xc5;" horiz-adv-x="708" 
d="M346 882q-35 0 -59.5 -24.5t-24.5 -58.5q0 -33 25 -57t59 -24q33 0 57 23.5t24 57.5t-24 58.5t-57 24.5zM423 224l-150 310l-145 -310h295zM123 213l-99 -213h-12l330 708q-37 2 -63.5 28t-26.5 63q0 38 28 65.5t66 27.5q37 0 64 -27.5t27 -65.5q0 -37 -26.5 -64
t-62.5 -27l348 -708h-164l-103 213h-306z" />
    <glyph glyph-name="AE" unicode="&#xc6;" horiz-adv-x="1068" 
d="M506 312v379l-264 -379h264zM506 0v301h-272l-209 -301h-13l487 700h515v-11h-357v-322h258v-11h-258v-345h374v-11h-525z" />
    <glyph glyph-name="Ccedilla" unicode="&#xc7;" horiz-adv-x="683" 
d="M377 -225q-79 0 -114 59l8 6q25 -45 73 -45q29 0 44.5 18.5t15.5 49.5q0 69 -83 71l27 58q-140 12 -231 108.5t-91 244.5q0 159 103.5 262t255.5 103q104 0 174 -49t98 -137l-10 -4q-25 80 -85.5 126t-139.5 46q-105 0 -166 -90t-61 -252t61 -252t166 -90q80 0 141 45.5
t86 125.5l11 -4q-29 -87 -99.5 -136t-175.5 -49q-19 0 -28 1l-23 -49q63 0 106 -21t43 -63q0 -38 -31 -60.5t-75 -22.5z" />
    <glyph glyph-name="Egrave" unicode="&#xc8;" horiz-adv-x="635" 
d="M357 741l-183 187h138l49 -187h-4zM72 0v700h508v-11h-357v-322h258v-11h-258v-345h374v-11h-525z" />
    <glyph glyph-name="Eacute" unicode="&#xc9;" horiz-adv-x="635" 
d="M366 928h138l-183 -187h-4zM72 0v700h508v-11h-357v-322h258v-11h-258v-345h374v-11h-525z" />
    <glyph glyph-name="Ecircumflex" unicode="&#xca;" horiz-adv-x="635" 
d="M395 740l-102 123l-104 -123h-13l171 201h2l166 -201h-120zM72 0v700h508v-11h-357v-322h258v-11h-258v-345h374v-11h-525z" />
    <glyph glyph-name="Edieresis" unicode="&#xcb;" horiz-adv-x="635" 
d="M375 750v145h116v-145h-116zM199 750v145h116v-145h-116zM72 0v700h508v-11h-357v-322h258v-11h-258v-345h374v-11h-525z" />
    <glyph glyph-name="Igrave" unicode="&#xcc;" horiz-adv-x="295" 
d="M159 741l-183 187h138l49 -187h-4zM223 700v-700h-151v700h151z" />
    <glyph glyph-name="Iacute" unicode="&#xcd;" horiz-adv-x="295" 
d="M168 928h138l-183 -187h-4zM223 700v-700h-151v700h151z" />
    <glyph glyph-name="Icircumflex" unicode="&#xce;" horiz-adv-x="295" 
d="M197 740l-102 123l-104 -123h-13l171 201h2l166 -201h-120zM223 700v-700h-151v700h151z" />
    <glyph glyph-name="Idieresis" unicode="&#xcf;" horiz-adv-x="295" 
d="M177 750v145h116v-145h-116zM1 750v145h116v-145h-116zM223 700v-700h-151v700h151z" />
    <glyph glyph-name="Eth" unicode="&#xd0;" horiz-adv-x="769" 
d="M347 0h-258v356h-64v11h64v333h240q184 0 299 -90.5t115 -253.5q0 -86 -32 -155t-87 -112.5t-126 -66t-151 -22.5zM240 11h84q259 0 259 345q0 161 -68 247t-202 86h-73v-322h153v-11h-153v-345z" />
    <glyph glyph-name="Ntilde" unicode="&#xd1;" horiz-adv-x="734" 
d="M455 756q-33 0 -97 42.5t-91 42.5q-58 0 -65 -88h-7q4 75 33.5 123t80.5 48q34 0 98 -42.5t90 -42.5q57 0 64 88h7q-4 -74 -33.5 -122.5t-79.5 -48.5zM651 195v505h11v-709h-4l-575 525v-516h-11v710h4z" />
    <glyph glyph-name="Ograve" unicode="&#xd2;" horiz-adv-x="781" 
d="M402 741l-183 187h138l49 -187h-4zM26 350q0 155 107.5 257.5t257.5 102.5t257.5 -102.5t107.5 -257.5t-107.5 -257.5t-257.5 -102.5t-257.5 102.5t-107.5 257.5zM195 350q0 -177 47.5 -263.5t148.5 -86.5t148.5 86.5t47.5 263.5t-47.5 263.5t-148.5 86.5t-148.5 -86.5
t-47.5 -263.5z" />
    <glyph glyph-name="Oacute" unicode="&#xd3;" horiz-adv-x="781" 
d="M411 928h138l-183 -187h-4zM26 350q0 155 107.5 257.5t257.5 102.5t257.5 -102.5t107.5 -257.5t-107.5 -257.5t-257.5 -102.5t-257.5 102.5t-107.5 257.5zM195 350q0 -177 47.5 -263.5t148.5 -86.5t148.5 86.5t47.5 263.5t-47.5 263.5t-148.5 86.5t-148.5 -86.5
t-47.5 -263.5z" />
    <glyph glyph-name="Ocircumflex" unicode="&#xd4;" horiz-adv-x="781" 
d="M446 740l-102 123l-104 -123h-13l171 201h2l166 -201h-120zM26 350q0 155 107.5 257.5t257.5 102.5t257.5 -102.5t107.5 -257.5t-107.5 -257.5t-257.5 -102.5t-257.5 102.5t-107.5 257.5zM195 350q0 -177 47.5 -263.5t148.5 -86.5t148.5 86.5t47.5 263.5t-47.5 263.5
t-148.5 86.5t-148.5 -86.5t-47.5 -263.5z" />
    <glyph glyph-name="Otilde" unicode="&#xd5;" horiz-adv-x="781" 
d="M471 756q-32 0 -96.5 42.5t-91.5 42.5q-58 0 -65 -88h-7q4 75 33.5 123t80.5 48q34 0 98 -42.5t90 -42.5q57 0 64 88h7q-4 -74 -33.5 -122.5t-79.5 -48.5zM26 350q0 155 107.5 257.5t257.5 102.5t257.5 -102.5t107.5 -257.5t-107.5 -257.5t-257.5 -102.5t-257.5 102.5
t-107.5 257.5zM195 350q0 -177 47.5 -263.5t148.5 -86.5t148.5 86.5t47.5 263.5t-47.5 263.5t-148.5 86.5t-148.5 -86.5t-47.5 -263.5z" />
    <glyph glyph-name="Odieresis" unicode="&#xd6;" horiz-adv-x="781" 
d="M421 750v145h116v-145h-116zM245 750v145h116v-145h-116zM26 350q0 155 107.5 257.5t257.5 102.5t257.5 -102.5t107.5 -257.5t-107.5 -257.5t-257.5 -102.5t-257.5 102.5t-107.5 257.5zM195 350q0 -177 47.5 -263.5t148.5 -86.5t148.5 86.5t47.5 263.5t-47.5 263.5
t-148.5 86.5t-148.5 -86.5t-47.5 -263.5z" />
    <glyph glyph-name="multiply" unicode="&#xd7;" horiz-adv-x="387" 
d="M329 171l-136 137l-136 -136l-7 7l136 136l-136 136l7 7l136 -136l136 136l7 -7l-136 -136l137 -136z" />
    <glyph glyph-name="Oslash" unicode="&#xd8;" horiz-adv-x="781" 
d="M195 350q0 -132 25 -211l337 434q-45 127 -166 127q-101 0 -148.5 -86.5t-47.5 -263.5zM391 0q101 0 148.5 86.5t47.5 263.5q0 134 -26 212l-337 -435q45 -127 167 -127zM391 -10q-120 0 -219 70l-62 -80l-8 6l62 80q-64 49 -101 122.5t-37 161.5q0 155 107.5 257.5
t257.5 102.5q123 0 218 -70l62 80l8 -6l-62 -80q65 -49 102 -122.5t37 -161.5q0 -155 -107.5 -257.5t-257.5 -102.5z" />
    <glyph glyph-name="Ugrave" unicode="&#xd9;" horiz-adv-x="715" 
d="M400 741l-183 187h138l49 -187h-4zM644 700h11v-423q0 -138 -78.5 -212.5t-209.5 -74.5q-140 0 -223.5 75.5t-83.5 210.5v424h152v-414q0 -259 211 -259q96 0 158.5 67t62.5 188v418z" />
    <glyph glyph-name="Uacute" unicode="&#xda;" horiz-adv-x="715" 
d="M409 928h138l-183 -187h-4zM644 700h11v-423q0 -138 -78.5 -212.5t-209.5 -74.5q-140 0 -223.5 75.5t-83.5 210.5v424h152v-414q0 -259 211 -259q96 0 158.5 67t62.5 188v418z" />
    <glyph glyph-name="Ucircumflex" unicode="&#xdb;" horiz-adv-x="715" 
d="M438 740l-102 123l-104 -123h-13l171 201h2l166 -201h-120zM644 700h11v-423q0 -138 -78.5 -212.5t-209.5 -74.5q-140 0 -223.5 75.5t-83.5 210.5v424h152v-414q0 -259 211 -259q96 0 158.5 67t62.5 188v418z" />
    <glyph glyph-name="Udieresis" unicode="&#xdc;" horiz-adv-x="715" 
d="M418 750v145h116v-145h-116zM242 750v145h116v-145h-116zM644 700h11v-423q0 -138 -78.5 -212.5t-209.5 -74.5q-140 0 -223.5 75.5t-83.5 210.5v424h152v-414q0 -259 211 -259q96 0 158.5 67t62.5 188v418z" />
    <glyph glyph-name="Yacute" unicode="&#xdd;" horiz-adv-x="677" 
d="M377 928h138l-183 -187h-4zM412 312l242 388h11l-250 -404v-296h-152v291l-251 409h170z" />
    <glyph glyph-name="Thorn" unicode="&#xde;" horiz-adv-x="671" 
d="M223 0h-151v700h151v-122h151q125 0 203.5 -49t78.5 -151q0 -103 -78 -151.5t-204 -48.5h-151v-178zM223 189h98q82 0 128.5 48.5t46.5 140.5q0 93 -46.5 141t-128.5 48h-98v-378z" />
    <glyph glyph-name="germandbls" unicode="&#xdf;" horiz-adv-x="668" 
d="M439 513q-44 -27 -63 -47.5t-19 -46.5q0 -27 23 -44t104 -50q91 -36 129 -70t38 -96q0 -76 -54.5 -122.5t-140.5 -46.5q-74 0 -129 36.5t-71 99.5l10 4q15 -62 68.5 -96t121.5 -34q48 0 78.5 24t30.5 68q0 34 -25.5 52t-100.5 49q-91 37 -125.5 69.5t-34.5 84.5
t35.5 89.5t118.5 84.5q34 21 48 31t26.5 31t12.5 49q0 47 -40.5 78.5t-111.5 31.5q-76 0 -120 -56t-44 -163v-523h-144v481q0 89 40.5 153.5t102.5 94.5t135 30q94 0 143 -36.5t49 -90.5q0 -30 -13.5 -53t-29 -34.5t-48.5 -31.5z" />
    <glyph glyph-name="agrave" unicode="&#xe0;" horiz-adv-x="539" 
d="M281 550l-183 199h136l51 -199h-4zM341 269l-79 -13q-53 -10 -75.5 -38t-22.5 -81q0 -52 19 -81t52 -29q40 0 69.5 35.5t36.5 85.5v121zM341 278v88q0 59 -30.5 91t-89.5 32q-63 0 -106 -33.5t-43 -87.5q0 -47 37 -74l-6 -7q-41 27 -41 81q0 60 50 97.5t144 37.5
q114 0 170.5 -49.5t56.5 -143.5v-310h-130l-10 122q-12 -55 -58 -93.5t-114 -38.5q-65 0 -106 33.5t-41 90.5q0 34 16 59.5t45 41.5t59.5 25t69.5 16z" />
    <glyph glyph-name="aacute" unicode="&#xe1;" horiz-adv-x="539" 
d="M293 749h136l-183 -199h-4zM341 269l-79 -13q-53 -10 -75.5 -38t-22.5 -81q0 -52 19 -81t52 -29q40 0 69.5 35.5t36.5 85.5v121zM341 278v88q0 59 -30.5 91t-89.5 32q-63 0 -106 -33.5t-43 -87.5q0 -47 37 -74l-6 -7q-41 27 -41 81q0 60 50 97.5t144 37.5
q114 0 170.5 -49.5t56.5 -143.5v-310h-130l-10 122q-12 -55 -58 -93.5t-114 -38.5q-65 0 -106 33.5t-41 90.5q0 34 16 59.5t45 41.5t59.5 25t69.5 16z" />
    <glyph glyph-name="acircumflex" unicode="&#xe2;" horiz-adv-x="539" 
d="M325 545l-101 128l-105 -128h-13l171 209h2l166 -209h-120zM341 269l-79 -13q-53 -10 -75.5 -38t-22.5 -81q0 -52 19 -81t52 -29q40 0 69.5 35.5t36.5 85.5v121zM341 278v88q0 59 -30.5 91t-89.5 32q-63 0 -106 -33.5t-43 -87.5q0 -47 37 -74l-6 -7q-41 27 -41 81
q0 60 50 97.5t144 37.5q114 0 170.5 -49.5t56.5 -143.5v-310h-130l-10 122q-12 -55 -58 -93.5t-114 -38.5q-65 0 -106 33.5t-41 90.5q0 34 16 59.5t45 41.5t59.5 25t69.5 16z" />
    <glyph glyph-name="atilde" unicode="&#xe3;" horiz-adv-x="539" 
d="M350 570q-30 0 -91.5 42.5t-86.5 42.5q-53 0 -60 -88h-8q4 74 32 121t76 47q33 0 93.5 -42t85.5 -42q52 0 59 88h8q-4 -75 -31.5 -122t-76.5 -47zM341 269l-79 -13q-53 -10 -75.5 -38t-22.5 -81q0 -52 19 -81t52 -29q40 0 69.5 35.5t36.5 85.5v121zM341 278v88
q0 59 -30.5 91t-89.5 32q-63 0 -106 -33.5t-43 -87.5q0 -47 37 -74l-6 -7q-41 27 -41 81q0 60 50 97.5t144 37.5q114 0 170.5 -49.5t56.5 -143.5v-310h-130l-10 122q-12 -55 -58 -93.5t-114 -38.5q-65 0 -106 33.5t-41 90.5q0 34 16 59.5t45 41.5t59.5 25t69.5 16z" />
    <glyph glyph-name="adieresis" unicode="&#xe4;" horiz-adv-x="539" 
d="M299 580v144h116v-144h-116zM123 580v144h116v-144h-116zM341 269l-79 -13q-53 -10 -75.5 -38t-22.5 -81q0 -52 19 -81t52 -29q40 0 69.5 35.5t36.5 85.5v121zM341 278v88q0 59 -30.5 91t-89.5 32q-63 0 -106 -33.5t-43 -87.5q0 -47 37 -74l-6 -7q-41 27 -41 81
q0 60 50 97.5t144 37.5q114 0 170.5 -49.5t56.5 -143.5v-310h-130l-10 122q-12 -55 -58 -93.5t-114 -38.5q-65 0 -106 33.5t-41 90.5q0 34 16 59.5t45 41.5t59.5 25t69.5 16z" />
    <glyph glyph-name="aring" unicode="&#xe5;" horiz-adv-x="539" 
d="M177 658q0 38 28 65.5t66 27.5q37 0 64 -27.5t27 -65.5t-27 -65t-64 -27q-38 0 -66 27t-28 65zM352 658q0 33 -24 58t-57 25q-34 0 -59 -24.5t-25 -58.5t25 -58t59 -24q33 0 57 24t24 58zM341 269l-79 -13q-53 -10 -75.5 -38t-22.5 -81q0 -52 19 -81t52 -29
q40 0 69.5 35.5t36.5 85.5v121zM341 278v88q0 59 -30.5 91t-89.5 32q-63 0 -106 -33.5t-43 -87.5q0 -47 37 -74l-6 -7q-41 27 -41 81q0 60 50 97.5t144 37.5q114 0 170.5 -49.5t56.5 -143.5v-310h-130l-10 122q-12 -55 -58 -93.5t-114 -38.5q-65 0 -106 33.5t-41 90.5
q0 34 16 59.5t45 41.5t59.5 25t69.5 16z" />
    <glyph glyph-name="ae" unicode="&#xe6;" horiz-adv-x="843" 
d="M815 152q-20 -77 -78.5 -119.5t-147.5 -42.5q-82 0 -148.5 41.5t-90.5 115.5q-6 -66 -55 -111.5t-124 -45.5q-65 0 -106 34t-41 91q0 34 16 59.5t45 41.5t59.5 25.5t69.5 16.5l127 22v86q0 59 -30.5 91t-89.5 32q-63 0 -106 -33.5t-43 -87.5q0 -47 37 -74l-6 -7
q-41 27 -41 81q0 60 50 97.5t144 37.5q54 0 96 -22t61 -58q66 80 173 80q108 0 170.5 -68t62.5 -169h-335v-28q0 -229 146 -229q61 0 109.5 38t65.5 108zM586 494q-97 0 -102 -218h194q0 111 -20 164.5t-72 53.5zM341 270l-79 -13q-52 -9 -75 -37.5t-23 -81.5
q0 -105 74 -105q43 0 73 37t30 100v100z" />
    <glyph glyph-name="ccedilla" unicode="&#xe7;" horiz-adv-x="504" 
d="M282 -225q-79 0 -114 59l8 6q25 -45 73 -45q29 0 44.5 18.5t15.5 49.5q0 69 -83 71l27 57q-93 8 -160.5 75t-67.5 174q0 116 78.5 189.5t186.5 73.5q83 0 131 -40.5t48 -105.5q0 -62 -43 -93l-6 7q39 31 39 86t-34.5 90t-90.5 35q-70 0 -114 -63t-44 -176
q0 -111 37.5 -171t107.5 -60q54 0 98.5 36.5t57.5 106.5l10 -3q-16 -77 -71.5 -119.5t-141.5 -42.5h-12l-23 -48q63 0 106 -21t43 -63q0 -38 -31 -60.5t-75 -22.5z" />
    <glyph glyph-name="egrave" unicode="&#xe8;" horiz-adv-x="537" 
d="M296 550l-183 199h136l51 -199h-4zM509 152q-20 -77 -79 -119.5t-148 -42.5q-101 0 -179 69.5t-78 182.5q0 118 75 189.5t179 71.5q109 0 171 -68t62 -169h-335v-28q0 -229 147 -229q61 0 109.5 37.5t65.5 108.5zM279 494q-97 0 -102 -218h194q0 112 -20 165t-72 53z" />
    <glyph glyph-name="eacute" unicode="&#xe9;" horiz-adv-x="537" 
d="M308 749h136l-183 -199h-4zM509 152q-20 -77 -79 -119.5t-148 -42.5q-101 0 -179 69.5t-78 182.5q0 118 75 189.5t179 71.5q109 0 171 -68t62 -169h-335v-28q0 -229 147 -229q61 0 109.5 37.5t65.5 108.5zM279 494q-97 0 -102 -218h194q0 112 -20 165t-72 53z" />
    <glyph glyph-name="ecircumflex" unicode="&#xea;" horiz-adv-x="537" 
d="M334 545l-101 128l-105 -128h-13l171 209h2l166 -209h-120zM509 152q-20 -77 -79 -119.5t-148 -42.5q-101 0 -179 69.5t-78 182.5q0 118 75 189.5t179 71.5q109 0 171 -68t62 -169h-335v-28q0 -229 147 -229q61 0 109.5 37.5t65.5 108.5zM279 494q-97 0 -102 -218h194
q0 112 -20 165t-72 53z" />
    <glyph glyph-name="edieresis" unicode="&#xeb;" horiz-adv-x="537" 
d="M314 580v144h116v-144h-116zM138 580v144h116v-144h-116zM509 152q-20 -77 -79 -119.5t-148 -42.5q-101 0 -179 69.5t-78 182.5q0 118 75 189.5t179 71.5q109 0 171 -68t62 -169h-335v-28q0 -229 147 -229q61 0 109.5 37.5t65.5 108.5zM279 494q-97 0 -102 -218h194
q0 112 -20 165t-72 53z" />
    <glyph glyph-name="igrave" unicode="&#xec;" 
d="M160 550l-183 199h136l51 -199h-4zM204 493v-493h-144v493h144z" />
    <glyph glyph-name="iacute" unicode="&#xed;" 
d="M150 749h136l-183 -199h-4zM204 493v-493h-144v493h144z" />
    <glyph glyph-name="icircumflex" unicode="&#xee;" 
d="M133 754h2l139 -209h-107l-84 124l-82 -124h-11zM204 493v-493h-144v493h144z" />
    <glyph glyph-name="idieresis" unicode="&#xef;" 
d="M-9 580v144h110v-144h-110zM162 580v144h110v-144h-110zM204 493v-493h-144v493h144z" />
    <glyph glyph-name="eth" unicode="&#xf0;" horiz-adv-x="578" 
d="M289 -10q-110 0 -187 73t-77 183t77 183.5t187 73.5q69 0 103 -61q-6 131 -73 208l-138 -84l-5 9l136 83q-66 70 -189 93l2 9q118 -18 215 -85l88 54l5 -9l-84 -51q94 -68 149 -169.5t55 -220.5q0 -132 -74 -210.5t-190 -78.5zM289 493q-58 0 -85 -55.5t-27 -191.5
q0 -135 27 -191t85 -56t85 56t27 191q0 136 -27 191.5t-85 55.5z" />
    <glyph glyph-name="ntilde" unicode="&#xf1;" horiz-adv-x="592" 
d="M379 570q-30 0 -91.5 42.5t-86.5 42.5q-53 0 -60 -88h-8q4 74 32 121t76 47q33 0 93.5 -42t85.5 -42q52 0 59 88h8q-4 -75 -31.5 -122t-76.5 -47zM204 322v-322h-144v493h140l4 -118q16 59 61 93.5t110 34.5q78 0 120 -48t42 -123v-332h-144v379q0 95 -73 95
q-44 0 -79.5 -45.5t-36.5 -106.5z" />
    <glyph glyph-name="ograve" unicode="&#xf2;" horiz-adv-x="578" 
d="M301 550l-183 199h136l51 -199h-4zM289 -10q-110 0 -187 73t-77 183t77 183.5t187 73.5q109 0 186.5 -73.5t77.5 -183.5t-77 -183t-187 -73zM289 494q-58 0 -85 -56t-27 -192q0 -135 27 -191t85 -56t85 56t27 191q0 136 -27 192t-85 56z" />
    <glyph glyph-name="oacute" unicode="&#xf3;" horiz-adv-x="578" 
d="M312 749h136l-183 -199h-4zM289 -10q-110 0 -187 73t-77 183t77 183.5t187 73.5q109 0 186.5 -73.5t77.5 -183.5t-77 -183t-187 -73zM289 494q-58 0 -85 -56t-27 -192q0 -135 27 -191t85 -56t85 56t27 191q0 136 -27 192t-85 56z" />
    <glyph glyph-name="ocircumflex" unicode="&#xf4;" horiz-adv-x="578" 
d="M344 545l-101 128l-105 -128h-13l171 209h2l166 -209h-120zM289 -10q-110 0 -187 73t-77 183t77 183.5t187 73.5q109 0 186.5 -73.5t77.5 -183.5t-77 -183t-187 -73zM289 494q-58 0 -85 -56t-27 -192q0 -135 27 -191t85 -56t85 56t27 191q0 136 -27 192t-85 56z" />
    <glyph glyph-name="otilde" unicode="&#xf5;" horiz-adv-x="578" 
d="M358 570q-30 0 -91.5 42.5t-86.5 42.5q-53 0 -60 -88h-8q4 74 32 121t76 47q33 0 93.5 -42t85.5 -42q52 0 59 88h8q-4 -75 -31.5 -122t-76.5 -47zM289 -10q-110 0 -187 73t-77 183t77 183.5t187 73.5q109 0 186.5 -73.5t77.5 -183.5t-77 -183t-187 -73zM289 494
q-58 0 -85 -56t-27 -192q0 -135 27 -191t85 -56t85 56t27 191q0 136 -27 192t-85 56z" />
    <glyph glyph-name="odieresis" unicode="&#xf6;" horiz-adv-x="578" 
d="M319 580v144h116v-144h-116zM143 580v144h116v-144h-116zM289 -10q-110 0 -187 73t-77 183t77 183.5t187 73.5q109 0 186.5 -73.5t77.5 -183.5t-77 -183t-187 -73zM289 494q-58 0 -85 -56t-27 -192q0 -135 27 -191t85 -56t85 56t27 191q0 136 -27 192t-85 56z" />
    <glyph glyph-name="divide" unicode="&#xf7;" horiz-adv-x="523" 
d="M213 427v94h97v-94h-97zM44 315v10h435v-10h-435zM213 119v94h97v-94h-97z" />
    <glyph glyph-name="oslash" unicode="&#xf8;" horiz-adv-x="578" 
d="M177 246q0 -77 9 -128l204 270q-12 57 -37 81.5t-64 24.5q-58 0 -85 -56t-27 -192zM289 -1q58 0 85 56t27 191q0 78 -9 129l-204 -269q12 -57 36.5 -82t64.5 -25zM289 -10q-85 0 -153 46l-42 -55l-8 5l42 55q-48 35 -75.5 88.5t-27.5 116.5q0 110 77 183.5t187 73.5
q84 0 152 -46l42 55l8 -6l-41 -55q48 -35 75.5 -88.5t27.5 -116.5q0 -110 -77 -183t-187 -73z" />
    <glyph glyph-name="ugrave" unicode="&#xf9;" horiz-adv-x="586" 
d="M303 550l-183 199h136l51 -199h-4zM383 171v322h144v-493h-140l-4 118q-17 -60 -60 -94t-107 -34q-77 0 -119 48.5t-42 123.5v331h144v-378q0 -96 72 -96q43 0 77 45t35 107z" />
    <glyph glyph-name="uacute" unicode="&#xfa;" horiz-adv-x="586" 
d="M314 749h136l-183 -199h-4zM383 171v322h144v-493h-140l-4 118q-17 -60 -60 -94t-107 -34q-77 0 -119 48.5t-42 123.5v331h144v-378q0 -96 72 -96q43 0 77 45t35 107z" />
    <glyph glyph-name="ucircumflex" unicode="&#xfb;" horiz-adv-x="586" 
d="M341 545l-101 128l-105 -128h-13l171 209h2l166 -209h-120zM383 171v322h144v-493h-140l-4 118q-17 -60 -60 -94t-107 -34q-77 0 -119 48.5t-42 123.5v331h144v-378q0 -96 72 -96q43 0 77 45t35 107z" />
    <glyph glyph-name="udieresis" unicode="&#xfc;" horiz-adv-x="586" 
d="M321 580v144h116v-144h-116zM145 580v144h116v-144h-116zM383 171v322h144v-493h-140l-4 118q-17 -60 -60 -94t-107 -34q-77 0 -119 48.5t-42 123.5v331h144v-378q0 -96 72 -96q43 0 77 45t35 107z" />
    <glyph glyph-name="yacute" unicode="&#xfd;" horiz-adv-x="498" 
d="M294 749h136l-183 -199h-4zM76 -225q-45 0 -72.5 28t-27.5 75q0 32 19 62l10 -4q-19 -30 -19 -58q0 -43 24.5 -68t65.5 -25q49 0 82 40t76 132l18 39l-247 497h154l161 -349l162 349h12l-249 -536q-43 -94 -79 -138t-90 -44z" />
    <glyph glyph-name="thorn" unicode="&#xfe;" horiz-adv-x="608" 
d="M203 316v-140q2 -65 36 -110t81 -45q51 0 80.5 62t29.5 166t-28.5 163.5t-79.5 59.5q-46 0 -81 -44t-38 -112zM204 116v-331h-144v964h144v-374q16 57 60.5 92.5t108.5 35.5q85 0 147.5 -68.5t62.5 -182.5q0 -116 -61.5 -189t-150.5 -73q-61 0 -106 34.5t-61 91.5z" />
    <glyph glyph-name="ydieresis" unicode="&#xff;" horiz-adv-x="498" 
d="M300 580v144h116v-144h-116zM124 580v144h116v-144h-116zM76 -225q-45 0 -72.5 28t-27.5 75q0 32 19 62l10 -4q-19 -30 -19 -58q0 -43 24.5 -68t65.5 -25q49 0 82 40t76 132l18 39l-247 497h154l161 -349l162 349h12l-249 -536q-43 -94 -79 -138t-90 -44z" />
    <glyph glyph-name="Amacron" unicode="&#x100;" horiz-adv-x="708" 
d="M491 787h-294v10h294v-10zM423 224l-150 310l-145 -310h295zM532 0l-103 213h-306l-99 -213h-12l331 710h4l349 -710h-164z" />
    <glyph glyph-name="amacron" unicode="&#x101;" horiz-adv-x="539" 
d="M416 632h-294v10h294v-10zM341 269l-79 -13q-53 -10 -75.5 -38t-22.5 -81q0 -52 19 -81t52 -29q40 0 69.5 35.5t36.5 85.5v121zM341 278v88q0 59 -30.5 91t-89.5 32q-63 0 -106 -33.5t-43 -87.5q0 -47 37 -74l-6 -7q-41 27 -41 81q0 60 50 97.5t144 37.5
q114 0 170.5 -49.5t56.5 -143.5v-310h-130l-10 122q-12 -55 -58 -93.5t-114 -38.5q-65 0 -106 33.5t-41 90.5q0 34 16 59.5t45 41.5t59.5 25t69.5 16z" />
    <glyph glyph-name="Abreve" unicode="&#x102;" horiz-adv-x="708" 
d="M497 932q0 -85 -42 -138t-111 -53t-111 53t-42 138h6q6 -54 39.5 -77.5t107.5 -23.5t107.5 23.5t39.5 77.5h6zM423 224l-150 310l-145 -310h295zM532 0l-103 213h-306l-99 -213h-12l331 710h4l349 -710h-164z" />
    <glyph glyph-name="abreve" unicode="&#x103;" horiz-adv-x="539" 
d="M422 756q0 -90 -41.5 -144t-111.5 -54t-111.5 54t-41.5 144h6q5 -58 38.5 -83t108.5 -25t108.5 25t38.5 83h6zM341 269l-79 -13q-53 -10 -75.5 -38t-22.5 -81q0 -52 19 -81t52 -29q40 0 69.5 35.5t36.5 85.5v121zM341 278v88q0 59 -30.5 91t-89.5 32q-63 0 -106 -33.5
t-43 -87.5q0 -47 37 -74l-6 -7q-41 27 -41 81q0 60 50 97.5t144 37.5q114 0 170.5 -49.5t56.5 -143.5v-310h-130l-10 122q-12 -55 -58 -93.5t-114 -38.5q-65 0 -106 33.5t-41 90.5q0 34 16 59.5t45 41.5t59.5 25t69.5 16z" />
    <glyph glyph-name="Aogonek" unicode="&#x104;" horiz-adv-x="708" 
d="M617 -131q-41 -94 -136 -94q-45 0 -76 24t-31 61q0 23 11 42t38.5 39t45.5 30.5t61 33.5l-101 208h-307l-98 -213h-12l331 710h4l349 -710h-160q-46 -30 -65 -56.5t-19 -65.5q0 -36 20 -58.5t48 -22.5q54 0 89 75zM424 224l-153 313l-144 -313h297z" />
    <glyph glyph-name="aogonek" unicode="&#x105;" horiz-adv-x="539" 
d="M341 269l-79 -13q-53 -10 -75.5 -38t-22.5 -81q0 -52 19 -81t52 -29q40 0 69.5 35.5t36.5 85.5v121zM438 -131q-39 -94 -136 -94q-44 0 -75 24t-31 61q0 18 9.5 35.5t21 30t36.5 29t41 25t49 26.5l-10 116q-12 -55 -58 -93.5t-114 -38.5q-65 0 -106 33.5t-41 90.5
q0 34 16 59.5t45 41.5t59.5 25t69.5 16l127 22v88q0 59 -30.5 91t-89.5 32q-63 0 -106 -33.5t-43 -87.5q0 -47 37 -74l-6 -7q-41 27 -41 81q0 60 50 97.5t144 37.5q114 0 170.5 -49.5t56.5 -143.5v-310h-125q-46 -30 -65 -56.5t-19 -65.5q0 -36 19.5 -58.5t47.5 -22.5
q55 0 90 75z" />
    <glyph glyph-name="Cacute" unicode="&#x106;" horiz-adv-x="683" 
d="M408 928h138l-183 -187h-4zM26 345q0 159 103.5 262t255.5 103q104 0 174 -49t98 -137l-10 -4q-25 80 -85.5 126t-139.5 46q-105 0 -166 -90t-61 -252t61 -252t166 -90q80 0 141 45.5t86 125.5l11 -4q-29 -87 -99.5 -136t-175.5 -49q-153 0 -256 98.5t-103 256.5z" />
    <glyph glyph-name="cacute" unicode="&#x107;" horiz-adv-x="504" 
d="M316 749h136l-183 -199h-4zM334 482q-70 0 -114 -63t-44 -176q0 -111 37.5 -171t107.5 -60q54 0 98.5 36.5t57.5 106.5l10 -3q-16 -77 -71.5 -119.5t-141.5 -42.5q-99 0 -174 68.5t-75 181.5q0 116 78.5 189.5t186.5 73.5q83 0 131 -40.5t48 -105.5q0 -62 -43 -93l-6 7
q39 31 39 86t-34.5 90t-90.5 35z" />
    <glyph glyph-name="Ccircumflex" unicode="&#x108;" horiz-adv-x="683" 
d="M437 740l-102 123l-104 -123h-13l171 201h2l166 -201h-120zM26 345q0 159 103.5 262t255.5 103q104 0 174 -49t98 -137l-10 -4q-25 80 -85.5 126t-139.5 46q-105 0 -166 -90t-61 -252t61 -252t166 -90q80 0 141 45.5t86 125.5l11 -4q-29 -87 -99.5 -136t-175.5 -49
q-153 0 -256 98.5t-103 256.5z" />
    <glyph glyph-name="ccircumflex" unicode="&#x109;" horiz-adv-x="504" 
d="M342 545l-101 128l-105 -128h-13l171 209h2l166 -209h-120zM334 482q-70 0 -114 -63t-44 -176q0 -111 37.5 -171t107.5 -60q54 0 98.5 36.5t57.5 106.5l10 -3q-16 -77 -71.5 -119.5t-141.5 -42.5q-99 0 -174 68.5t-75 181.5q0 116 78.5 189.5t186.5 73.5q83 0 131 -40.5
t48 -105.5q0 -62 -43 -93l-6 7q39 31 39 86t-34.5 90t-90.5 35z" />
    <glyph glyph-name="Cdotaccent" unicode="&#x10a;" horiz-adv-x="683" 
d="M313 750v145h149v-145h-149zM26 345q0 159 103.5 262t255.5 103q104 0 174 -49t98 -137l-10 -4q-25 80 -85.5 126t-139.5 46q-105 0 -166 -90t-61 -252t61 -252t166 -90q80 0 141 45.5t86 125.5l11 -4q-29 -87 -99.5 -136t-175.5 -49q-153 0 -256 98.5t-103 256.5z" />
    <glyph glyph-name="cdotaccent" unicode="&#x10b;" horiz-adv-x="504" 
d="M220 580v144h145v-144h-145zM334 482q-70 0 -114 -63t-44 -176q0 -111 37.5 -171t107.5 -60q54 0 98.5 36.5t57.5 106.5l10 -3q-16 -77 -71.5 -119.5t-141.5 -42.5q-99 0 -174 68.5t-75 181.5q0 116 78.5 189.5t186.5 73.5q83 0 131 -40.5t48 -105.5q0 -62 -43 -93l-6 7
q39 31 39 86t-34.5 90t-90.5 35z" />
    <glyph glyph-name="Ccaron" unicode="&#x10c;" horiz-adv-x="683" 
d="M386 735h-2l-166 201h120l102 -123l104 123h13zM26 345q0 159 103.5 262t255.5 103q104 0 174 -49t98 -137l-10 -4q-25 80 -85.5 126t-139.5 46q-105 0 -166 -90t-61 -252t61 -252t166 -90q80 0 141 45.5t86 125.5l11 -4q-29 -87 -99.5 -136t-175.5 -49q-153 0 -256 98.5
t-103 256.5z" />
    <glyph glyph-name="ccaron" unicode="&#x10d;" horiz-adv-x="504" 
d="M291 545h-2l-166 209h120l101 -128l105 128h13zM334 482q-70 0 -114 -63t-44 -176q0 -111 37.5 -171t107.5 -60q54 0 98.5 36.5t57.5 106.5l10 -3q-16 -77 -71.5 -119.5t-141.5 -42.5q-99 0 -174 68.5t-75 181.5q0 116 78.5 189.5t186.5 73.5q83 0 131 -40.5t48 -105.5
q0 -62 -43 -93l-6 7q39 31 39 86t-34.5 90t-90.5 35z" />
    <glyph glyph-name="Dcaron" unicode="&#x10e;" horiz-adv-x="752" 
d="M340 735h-2l-166 201h120l102 -123l104 123h13zM330 0h-258v700h240q184 0 299 -90.5t115 -253.5q0 -86 -32 -155t-87 -112.5t-126 -66t-151 -22.5zM566 356q0 161 -68 247t-202 86h-73v-678h84q259 0 259 345z" />
    <glyph glyph-name="dcaron" unicode="&#x10f;" horiz-adv-x="608" 
d="M753 749l-142 -221h-4l21 221h125zM404 176v141q-1 64 -35 109.5t-81 45.5q-52 0 -81 -62t-29 -166t28.5 -163.5t79.5 -59.5q46 0 81 44t37 111zM404 376v373h144v-749h-140l-4 118q-16 -56 -60.5 -92t-108.5 -36q-86 0 -148 68.5t-62 182.5q0 116 61.5 189t149.5 73
q62 0 107 -34.5t61 -92.5z" />
    <glyph glyph-name="Dcroat" unicode="&#x110;" horiz-adv-x="769" 
d="M347 0h-258v356h-64v11h64v333h240q184 0 299 -90.5t115 -253.5q0 -86 -32 -155t-87 -112.5t-126 -66t-151 -22.5zM240 11h84q259 0 259 345q0 161 -68 247t-202 86h-73v-322h153v-11h-153v-345z" />
    <glyph glyph-name="dcroat" unicode="&#x111;" horiz-adv-x="608" 
d="M404 176v141q-1 64 -35 109.5t-81 45.5q-52 0 -81 -62t-29 -166t28.5 -163.5t79.5 -59.5q46 0 81 44t37 111zM404 118q-16 -56 -60.5 -92t-108.5 -36q-86 0 -148 68.5t-62 182.5q0 116 61.5 189t149.5 73q62 0 107 -34.5t61 -92.5v256h-117v10h117v107h144v-107h49v-10
h-49v-632h-140z" />
    <glyph glyph-name="Emacron" unicode="&#x112;" horiz-adv-x="635" 
d="M492 787h-294v10h294v-10zM72 0v700h508v-11h-357v-322h258v-11h-258v-345h374v-11h-525z" />
    <glyph glyph-name="emacron" unicode="&#x113;" horiz-adv-x="537" 
d="M431 632h-294v10h294v-10zM509 152q-20 -77 -79 -119.5t-148 -42.5q-101 0 -179 69.5t-78 182.5q0 118 75 189.5t179 71.5q109 0 171 -68t62 -169h-335v-28q0 -229 147 -229q61 0 109.5 37.5t65.5 108.5zM279 494q-97 0 -102 -218h194q0 112 -20 165t-72 53z" />
    <glyph glyph-name="Ebreve" unicode="&#x114;" horiz-adv-x="635" 
d="M498 932q0 -85 -42 -138t-111 -53t-111 53t-42 138h6q6 -54 39.5 -77.5t107.5 -23.5t107.5 23.5t39.5 77.5h6zM72 0v700h508v-11h-357v-322h258v-11h-258v-345h374v-11h-525z" />
    <glyph glyph-name="ebreve" unicode="&#x115;" horiz-adv-x="537" 
d="M437 756q0 -90 -41.5 -144t-111.5 -54t-111.5 54t-41.5 144h6q5 -58 38.5 -83t108.5 -25t108.5 25t38.5 83h6zM509 152q-20 -77 -79 -119.5t-148 -42.5q-101 0 -179 69.5t-78 182.5q0 118 75 189.5t179 71.5q109 0 171 -68t62 -169h-335v-28q0 -229 147 -229
q61 0 109.5 37.5t65.5 108.5zM279 494q-97 0 -102 -218h194q0 112 -20 165t-72 53z" />
    <glyph glyph-name="Edotaccent" unicode="&#x116;" horiz-adv-x="635" 
d="M271 750v145h149v-145h-149zM72 0v700h508v-11h-357v-322h258v-11h-258v-345h374v-11h-525z" />
    <glyph glyph-name="edotaccent" unicode="&#x117;" horiz-adv-x="537" 
d="M212 580v144h145v-144h-145zM509 152q-20 -77 -79 -119.5t-148 -42.5q-101 0 -179 69.5t-78 182.5q0 118 75 189.5t179 71.5q109 0 171 -68t62 -169h-335v-28q0 -229 147 -229q61 0 109.5 37.5t65.5 108.5zM279 494q-97 0 -102 -218h194q0 112 -20 165t-72 53z" />
    <glyph glyph-name="Eogonek" unicode="&#x118;" horiz-adv-x="635" 
d="M584 -131q-39 -94 -136 -94q-44 0 -75 24t-31 61q0 29 22.5 55.5t48.5 42.5t75 42h-416v700h508v-11h-357v-322h258v-11h-258v-345h374v-11h-93q-46 -30 -65 -56.5t-19 -65.5q0 -36 19.5 -58.5t47.5 -22.5q55 0 90 75z" />
    <glyph glyph-name="eogonek" unicode="&#x119;" horiz-adv-x="537" 
d="M473 -131q-39 -94 -136 -94q-44 0 -75 24t-31 61q0 64 133 141q-38 -11 -82 -11q-101 0 -179 69.5t-78 182.5q0 118 75 189.5t179 71.5q109 0 171 -68t62 -169h-334q-1 -9 -1 -28q0 -229 147 -229q61 0 109.5 37.5t65.5 108.5l10 -3q-24 -98 -110 -138q-91 -61 -91 -136
q0 -36 20 -58.5t48 -22.5q55 0 90 75zM279 494q-94 0 -101 -218h193q0 112 -20 165t-72 53z" />
    <glyph glyph-name="Ecaron" unicode="&#x11a;" horiz-adv-x="635" 
d="M344 735h-2l-166 201h120l102 -123l104 123h13zM72 0v700h508v-11h-357v-322h258v-11h-258v-345h374v-11h-525z" />
    <glyph glyph-name="ecaron" unicode="&#x11b;" horiz-adv-x="537" 
d="M283 545h-2l-166 209h120l101 -128l105 128h13zM509 152q-20 -77 -79 -119.5t-148 -42.5q-101 0 -179 69.5t-78 182.5q0 118 75 189.5t179 71.5q109 0 171 -68t62 -169h-335v-28q0 -229 147 -229q61 0 109.5 37.5t65.5 108.5zM279 494q-97 0 -102 -218h194q0 112 -20 165
t-72 53z" />
    <glyph glyph-name="Gcircumflex" unicode="&#x11c;" horiz-adv-x="755" 
d="M450 740l-102 123l-104 -123h-13l171 201h2l166 -201h-120zM710 -10h-3l-98 122q-33 -55 -92.5 -88.5t-129.5 -33.5q-152 0 -256.5 99.5t-104.5 257.5q0 159 109.5 261t266.5 102q107 0 178.5 -49t101.5 -137l-10 -4q-26 81 -91.5 128.5t-152.5 47.5q-108 0 -170.5 -96
t-62.5 -255q0 -157 51 -250.5t147 -93.5q76 0 122 50t46 138v131h149v-330z" />
    <glyph glyph-name="gcircumflex" unicode="&#x11d;" horiz-adv-x="552" 
d="M318 572l-101 128l-105 -128h-13l171 209h2l166 -209h-120zM333 341q0 83 -18 118t-59 35q-40 0 -58.5 -35t-18.5 -118q0 -85 18.5 -119.5t58.5 -34.5q41 0 59 34.5t18 119.5zM547 -26q0 -93 -88 -146t-211 -53q-110 0 -177.5 30.5t-67.5 90.5q0 42 35.5 67.5t84.5 25.5
q-42 10 -66 38.5t-24 66.5q0 79 92 114q-85 45 -85 133q0 69 59 115.5t157 46.5q70 0 125 -26q48 77 110 77q38 0 60 -21t22 -57q0 -38 -29 -67l-7 6q26 28 26 61q0 32 -19.5 50t-52.5 18q-58 0 -101 -72q83 -45 83 -131q0 -70 -59.5 -116.5t-157.5 -46.5q-70 0 -122 25
q-54 -20 -54 -51q0 -36 56 -36h230q85 0 133 -35.5t48 -106.5zM399 -17h-263q-50 0 -86.5 -22.5t-36.5 -64.5q0 -56 65 -83.5t170 -27.5q102 0 174.5 36t72.5 94q0 68 -96 68z" />
    <glyph glyph-name="Gbreve" unicode="&#x11e;" horiz-adv-x="755" 
d="M553 932q0 -85 -42 -138t-111 -53t-111 53t-42 138h6q6 -54 39.5 -77.5t107.5 -23.5t107.5 23.5t39.5 77.5h6zM710 -10h-3l-98 122q-33 -55 -92.5 -88.5t-129.5 -33.5q-152 0 -256.5 99.5t-104.5 257.5q0 159 109.5 261t266.5 102q107 0 178.5 -49t101.5 -137l-10 -4
q-26 81 -91.5 128.5t-152.5 47.5q-108 0 -170.5 -96t-62.5 -255q0 -157 51 -250.5t147 -93.5q76 0 122 50t46 138v131h149v-330z" />
    <glyph glyph-name="gbreve" unicode="&#x11f;" horiz-adv-x="552" 
d="M410 756q0 -90 -41.5 -144t-111.5 -54t-111.5 54t-41.5 144h6q5 -58 38.5 -83t108.5 -25t108.5 25t38.5 83h6zM333 341q0 83 -18 118t-59 35q-40 0 -58.5 -35t-18.5 -118q0 -85 18.5 -119.5t58.5 -34.5q41 0 59 34.5t18 119.5zM547 -26q0 -93 -88 -146t-211 -53
q-110 0 -177.5 30.5t-67.5 90.5q0 42 35.5 67.5t84.5 25.5q-42 10 -66 38.5t-24 66.5q0 79 92 114q-85 45 -85 133q0 69 59 115.5t157 46.5q70 0 125 -26q48 77 110 77q38 0 60 -21t22 -57q0 -38 -29 -67l-7 6q26 28 26 61q0 32 -19.5 50t-52.5 18q-58 0 -101 -72
q83 -45 83 -131q0 -70 -59.5 -116.5t-157.5 -46.5q-70 0 -122 25q-54 -20 -54 -51q0 -36 56 -36h230q85 0 133 -35.5t48 -106.5zM399 -17h-263q-50 0 -86.5 -22.5t-36.5 -64.5q0 -56 65 -83.5t170 -27.5q102 0 174.5 36t72.5 94q0 68 -96 68z" />
    <glyph glyph-name="Gdotaccent" unicode="&#x120;" horiz-adv-x="755" 
d="M326 750v145h149v-145h-149zM710 -10h-3l-98 122q-33 -55 -92.5 -88.5t-129.5 -33.5q-152 0 -256.5 99.5t-104.5 257.5q0 159 109.5 261t266.5 102q107 0 178.5 -49t101.5 -137l-10 -4q-26 81 -91.5 128.5t-152.5 47.5q-108 0 -170.5 -96t-62.5 -255q0 -157 51 -250.5
t147 -93.5q76 0 122 50t46 138v131h149v-330z" />
    <glyph glyph-name="gdotaccent" unicode="&#x121;" horiz-adv-x="552" 
d="M185 580v144h145v-144h-145zM333 341q0 83 -18 118t-59 35q-40 0 -58.5 -35t-18.5 -118q0 -85 18.5 -119.5t58.5 -34.5q41 0 59 34.5t18 119.5zM547 -26q0 -93 -88 -146t-211 -53q-110 0 -177.5 30.5t-67.5 90.5q0 42 35.5 67.5t84.5 25.5q-42 10 -66 38.5t-24 66.5
q0 79 92 114q-85 45 -85 133q0 69 59 115.5t157 46.5q70 0 125 -26q48 77 110 77q38 0 60 -21t22 -57q0 -38 -29 -67l-7 6q26 28 26 61q0 32 -19.5 50t-52.5 18q-58 0 -101 -72q83 -45 83 -131q0 -70 -59.5 -116.5t-157.5 -46.5q-70 0 -122 25q-54 -20 -54 -51q0 -36 56 -36
h230q85 0 133 -35.5t48 -106.5zM399 -17h-263q-50 0 -86.5 -22.5t-36.5 -64.5q0 -56 65 -83.5t170 -27.5q102 0 174.5 36t72.5 94q0 68 -96 68z" />
    <glyph glyph-name="uni0122" unicode="&#x122;" horiz-adv-x="755" 
d="M710 -10h-3l-98 122q-33 -55 -92.5 -88.5t-129.5 -33.5q-152 0 -256.5 99.5t-104.5 257.5q0 159 109.5 261t266.5 102q107 0 178.5 -49t101.5 -137l-10 -4q-26 81 -91.5 128.5t-152.5 47.5q-108 0 -170.5 -96t-62.5 -255q0 -157 51 -250.5t147 -93.5q76 0 122 50t46 138
v131h149v-330zM317 -179v129h151v-130q0 -53 -40 -84.5t-119 -19.5v10q75 -11 111.5 16.5t36.5 78.5h-140z" />
    <glyph glyph-name="uni0123" unicode="&#x123;" horiz-adv-x="552" 
d="M339 698v-130h-151v130q0 53 40 84.5t119 20.5v-10q-75 10 -111.5 -17.5t-36.5 -77.5h140zM333 341q0 83 -18 118t-59 35q-40 0 -58.5 -35t-18.5 -118q0 -85 18.5 -119.5t58.5 -34.5q41 0 59 34.5t18 119.5zM547 -26q0 -93 -88 -146t-211 -53q-110 0 -177.5 30.5
t-67.5 90.5q0 42 35.5 67.5t84.5 25.5q-42 10 -66 38.5t-24 66.5q0 79 92 114q-85 45 -85 133q0 69 59 115.5t157 46.5q70 0 125 -26q48 77 110 77q38 0 60 -21t22 -57q0 -38 -29 -67l-7 6q26 28 26 61q0 32 -19.5 50t-52.5 18q-58 0 -101 -72q83 -45 83 -131
q0 -70 -59.5 -116.5t-157.5 -46.5q-70 0 -122 25q-54 -20 -54 -51q0 -36 56 -36h230q85 0 133 -35.5t48 -106.5zM399 -17h-263q-50 0 -86.5 -22.5t-36.5 -64.5q0 -56 65 -83.5t170 -27.5q102 0 174.5 36t72.5 94q0 68 -96 68z" />
    <glyph glyph-name="Hcircumflex" unicode="&#x124;" horiz-adv-x="800" 
d="M450 740l-102 123l-104 -123h-13l171 201h2l166 -201h-120zM72 0v700h151v-333h354v333h151v-700h-151v356h-354v-356h-151z" />
    <glyph glyph-name="hcircumflex" unicode="&#x125;" horiz-adv-x="592" 
d="M348 775l-102 123l-104 -123h-13l171 201h2l166 -201h-120zM60 749h144v-374q16 59 61 93.5t110 34.5q78 0 120 -48t42 -123v-332h-144v379q0 95 -73 95q-44 0 -79.5 -45.5t-36.5 -106.5v-322h-144v749z" />
    <glyph glyph-name="Hbar" unicode="&#x126;" horiz-adv-x="835" 
d="M241 292h353v163h-353v-163zM241 281v-281h-152v455h-64v11h64v234h152v-234h353v234h152v-234h63v-11h-63v-455h-152v281h-353z" />
    <glyph glyph-name="hbar" unicode="&#x127;" horiz-adv-x="592" 
d="M204 322v-322h-144v632h-49v10h49v107h144v-107h117v-10h-117v-257q16 59 61 93.5t110 34.5q78 0 120 -48t42 -123v-332h-144v379q0 95 -73 95q-44 0 -79.5 -45.5t-36.5 -106.5z" />
    <glyph glyph-name="Itilde" unicode="&#x128;" horiz-adv-x="295" 
d="M221 756q-33 0 -97 42.5t-91 42.5q-58 0 -65 -88h-7q4 75 33.5 123t80.5 48q34 0 98 -42.5t90 -42.5q57 0 64 88h7q-4 -74 -33.5 -122.5t-79.5 -48.5zM223 700v-700h-151v700h151z" />
    <glyph glyph-name="itilde" unicode="&#x129;" 
d="M187 570q-25 0 -74 41t-67 41q-42 0 -47 -85h-8q2 74 24.5 121t62.5 47q26 0 74.5 -40.5t66.5 -40.5q41 0 46 85h8q-2 -74 -24.5 -121.5t-61.5 -47.5zM204 493v-493h-144v493h144z" />
    <glyph glyph-name="Imacron" unicode="&#x12a;" horiz-adv-x="295" 
d="M294 787h-294v10h294v-10zM223 700v-700h-151v700h151z" />
    <glyph glyph-name="imacron" unicode="&#x12b;" 
d="M259 629h-255v13h255v-13zM204 493v-493h-144v493h144z" />
    <glyph glyph-name="Ibreve" unicode="&#x12c;" horiz-adv-x="295" 
d="M300 932q0 -85 -42 -138t-111 -53t-111 53t-42 138h6q6 -54 39.5 -77.5t107.5 -23.5t107.5 23.5t39.5 77.5h6zM223 700v-700h-151v700h151z" />
    <glyph glyph-name="ibreve" unicode="&#x12d;" 
d="M267 756q0 -91 -36.5 -144.5t-98.5 -53.5t-99 53.5t-37 144.5h7q5 -58 34 -83t95 -25t95 25t34 83h6zM204 493v-493h-144v493h144z" />
    <glyph glyph-name="Iogonek" unicode="&#x12e;" horiz-adv-x="295" 
d="M264 -131q-39 -94 -136 -94q-44 0 -75 24t-31 61q0 29 22.5 55.5t48.5 42.5t75 42h-96v700h151v-700h-39q-46 -30 -65 -56.5t-19 -65.5q0 -36 19.5 -58.5t47.5 -22.5q55 0 90 75z" />
    <glyph glyph-name="iogonek" unicode="&#x12f;" 
d="M59 580v144h145v-144h-145zM247 -131q-39 -94 -136 -94q-44 0 -75 24t-31 61q0 29 22.5 55.5t48.5 42.5t75 42h-91v493h144v-493h-37q-46 -30 -65 -56.5t-19 -65.5q0 -36 19.5 -58.5t47.5 -22.5q55 0 90 75z" />
    <glyph glyph-name="Idotaccent" unicode="&#x130;" horiz-adv-x="295" 
d="M73 750v145h149v-145h-149zM223 700v-700h-151v700h151z" />
    <glyph glyph-name="dotlessi" unicode="&#x131;" 
d="M204 493v-493h-144v493h144z" />
    <glyph glyph-name="Jcircumflex" unicode="&#x134;" horiz-adv-x="578" 
d="M490 740l-102 123l-104 -123h-13l171 201h2l166 -201h-120zM366 202v498h152v-455q0 -122 -76 -188.5t-199 -66.5q-102 0 -165 54.5t-63 143.5q0 45 23 82t55 53l4 -8q-32 -18 -52 -51.5t-20 -75.5q0 -82 55 -131.5t129 -49.5q81 0 119 52t38 143z" />
    <glyph glyph-name="jcircumflex" unicode="&#x135;" 
d="M133 754h2l139 -209h-107l-84 124l-82 -124h-11zM204 -23q0 -92 -52.5 -147t-143.5 -55q-57 0 -92 28t-35 75q0 41 32 64l8 -4q-30 -27 -30 -60q0 -40 25.5 -62t61.5 -22q44 0 63 32.5t19 100.5v566h144v-516z" />
    <glyph glyph-name="uni0136" unicode="&#x136;" horiz-adv-x="731" 
d="M537 0l-241 332l-73 -74v-258h-151v700h151v-428l423 428h14l-256 -258l311 -442h-178zM275 -179v129h151v-130q0 -53 -40 -84.5t-119 -19.5v10q75 -11 111.5 16.5t36.5 78.5h-140z" />
    <glyph glyph-name="uni0137" unicode="&#x137;" horiz-adv-x="577" 
d="M409 0l-145 227l-60 -54v-173h-144v749h144v-564l338 308h13l-188 -172l201 -321h-159zM207 -179v129h151v-130q0 -53 -40 -84.5t-119 -19.5v10q75 -11 111.5 16.5t36.5 78.5h-140z" />
    <glyph glyph-name="kgreenlandic" unicode="&#x138;" horiz-adv-x="577" 
d="M409 0l-145 227l-60 -54v-173h-144v493h144v-308l338 308h13l-188 -172l201 -321h-159z" />
    <glyph glyph-name="Lacute" unicode="&#x139;" horiz-adv-x="612" 
d="M195 928h138l-183 -187h-4zM72 0v700h151v-689h360v-11h-511z" />
    <glyph glyph-name="lacute" unicode="&#x13a;" 
d="M152 953h138l-183 -187h-4zM204 749v-749h-144v749h144z" />
    <glyph glyph-name="uni013B" unicode="&#x13b;" horiz-adv-x="612" 
d="M72 0v700h151v-689h360v-11h-511zM253 -179v129h151v-130q0 -53 -40 -84.5t-119 -19.5v10q75 -11 111.5 16.5t36.5 78.5h-140z" />
    <glyph glyph-name="uni013C" unicode="&#x13c;" 
d="M204 749v-749h-144v749h144zM56 -179v129h151v-130q0 -53 -40 -84.5t-119 -19.5v10q75 -11 111.5 16.5t36.5 78.5h-140z" />
    <glyph glyph-name="Lcaron" unicode="&#x13d;" horiz-adv-x="612" 
d="M523 749l-142 -221h-4l21 221h125zM72 0v700h151v-689h360v-11h-511z" />
    <glyph glyph-name="lcaron" unicode="&#x13e;" 
d="M204 749v-749h-144v749h144zM410 749l-142 -221h-4l21 221h125z" />
    <glyph glyph-name="Ldot" unicode="&#x13f;" horiz-adv-x="612" 
d="M72 0v700h151v-689h360v-11h-511zM405 279v144h145v-144h-145z" />
    <glyph glyph-name="ldot" unicode="&#x140;" horiz-adv-x="412" 
d="M204 749v-749h-144v749h144zM264 303v144h145v-144h-145z" />
    <glyph glyph-name="Lslash" unicode="&#x141;" horiz-adv-x="630" 
d="M601 0h-511v241l-65 -39v13l65 39v446h151v-372l168 101v-13l-168 -101v-304h360v-11z" />
    <glyph glyph-name="lslash" unicode="&#x142;" horiz-adv-x="313" 
d="M229 0h-144v372l-70 -43v13l70 43v364h144v-289l69 43v-13l-69 -43v-447z" />
    <glyph glyph-name="Nacute" unicode="&#x143;" horiz-adv-x="734" 
d="M402 928h138l-183 -187h-4zM651 195v505h11v-709h-4l-575 525v-516h-11v710h4z" />
    <glyph glyph-name="nacute" unicode="&#x144;" horiz-adv-x="592" 
d="M322 749h136l-183 -199h-4zM204 322v-322h-144v493h140l4 -118q16 59 61 93.5t110 34.5q78 0 120 -48t42 -123v-332h-144v379q0 95 -73 95q-44 0 -79.5 -45.5t-36.5 -106.5z" />
    <glyph glyph-name="uni0145" unicode="&#x145;" horiz-adv-x="734" 
d="M651 195v505h11v-709h-4l-575 525v-516h-11v710h4zM298 -179v129h151v-130q0 -53 -40 -84.5t-119 -19.5v10q75 -11 111.5 16.5t36.5 78.5h-140z" />
    <glyph glyph-name="uni0146" unicode="&#x146;" horiz-adv-x="592" 
d="M204 322v-322h-144v493h140l4 -118q16 59 61 93.5t110 34.5q78 0 120 -48t42 -123v-332h-144v379q0 95 -73 95q-44 0 -79.5 -45.5t-36.5 -106.5zM224 -179v129h151v-130q0 -53 -40 -84.5t-119 -19.5v10q75 -11 111.5 16.5t36.5 78.5h-140z" />
    <glyph glyph-name="Ncaron" unicode="&#x147;" horiz-adv-x="734" 
d="M380 735h-2l-166 201h120l102 -123l104 123h13zM651 195v505h11v-709h-4l-575 525v-516h-11v710h4z" />
    <glyph glyph-name="ncaron" unicode="&#x148;" horiz-adv-x="592" 
d="M297 545h-2l-166 209h120l101 -128l105 128h13zM204 322v-322h-144v493h140l4 -118q16 59 61 93.5t110 34.5q78 0 120 -48t42 -123v-332h-144v379q0 95 -73 95q-44 0 -79.5 -45.5t-36.5 -106.5z" />
    <glyph glyph-name="Eng" unicode="&#x14a;" horiz-adv-x="734" 
d="M519 -225q-40 0 -68.5 25t-28.5 68q0 25 12 40l9 -3q-11 -18 -11 -37q0 -40 26 -61.5t61 -21.5q67 0 100 52.5t33 139.5v18l-569 522v-518h-11v711h4l575 -517v506h11v-730q0 -84 -36.5 -139t-106.5 -55z" />
    <glyph glyph-name="eng" unicode="&#x14b;" horiz-adv-x="592" 
d="M341 -225q-57 0 -92 28t-35 75q0 41 32 64l8 -4q-30 -27 -30 -60q0 -40 25.5 -62t61.5 -22q44 0 63 32.5t19 100.5v452q0 95 -73 95q-44 0 -79.5 -45.5t-36.5 -106.5v-322h-144v493h140l4 -118q16 59 61 93.5t110 34.5q78 0 120 -48t42 -123v-355q0 -92 -52.5 -147
t-143.5 -55z" />
    <glyph glyph-name="Omacron" unicode="&#x14c;" horiz-adv-x="781" 
d="M538 787h-294v10h294v-10zM26 350q0 155 107.5 257.5t257.5 102.5t257.5 -102.5t107.5 -257.5t-107.5 -257.5t-257.5 -102.5t-257.5 102.5t-107.5 257.5zM195 350q0 -177 47.5 -263.5t148.5 -86.5t148.5 86.5t47.5 263.5t-47.5 263.5t-148.5 86.5t-148.5 -86.5
t-47.5 -263.5z" />
    <glyph glyph-name="omacron" unicode="&#x14d;" horiz-adv-x="578" 
d="M436 632h-294v10h294v-10zM289 -10q-110 0 -187 73t-77 183t77 183.5t187 73.5q109 0 186.5 -73.5t77.5 -183.5t-77 -183t-187 -73zM289 494q-58 0 -85 -56t-27 -192q0 -135 27 -191t85 -56t85 56t27 191q0 136 -27 192t-85 56z" />
    <glyph glyph-name="Obreve" unicode="&#x14e;" horiz-adv-x="781" 
d="M544 932q0 -85 -42 -138t-111 -53t-111 53t-42 138h6q6 -54 39.5 -77.5t107.5 -23.5t107.5 23.5t39.5 77.5h6zM26 350q0 155 107.5 257.5t257.5 102.5t257.5 -102.5t107.5 -257.5t-107.5 -257.5t-257.5 -102.5t-257.5 102.5t-107.5 257.5zM195 350q0 -177 47.5 -263.5
t148.5 -86.5t148.5 86.5t47.5 263.5t-47.5 263.5t-148.5 86.5t-148.5 -86.5t-47.5 -263.5z" />
    <glyph glyph-name="obreve" unicode="&#x14f;" horiz-adv-x="578" 
d="M442 756q0 -90 -41.5 -144t-111.5 -54t-111.5 54t-41.5 144h6q5 -58 38.5 -83t108.5 -25t108.5 25t38.5 83h6zM289 -10q-110 0 -187 73t-77 183t77 183.5t187 73.5q109 0 186.5 -73.5t77.5 -183.5t-77 -183t-187 -73zM289 494q-58 0 -85 -56t-27 -192q0 -135 27 -191
t85 -56t85 56t27 191q0 136 -27 192t-85 56z" />
    <glyph glyph-name="Ohungarumlaut" unicode="&#x150;" horiz-adv-x="781" 
d="M509 928h127l-173 -187h-4zM336 928h127l-172 -187h-4zM26 350q0 155 107.5 257.5t257.5 102.5t257.5 -102.5t107.5 -257.5t-107.5 -257.5t-257.5 -102.5t-257.5 102.5t-107.5 257.5zM195 350q0 -177 47.5 -263.5t148.5 -86.5t148.5 86.5t47.5 263.5t-47.5 263.5
t-148.5 86.5t-148.5 -86.5t-47.5 -263.5z" />
    <glyph glyph-name="ohungarumlaut" unicode="&#x151;" horiz-adv-x="578" 
d="M406 749h125l-172 -199h-4zM233 749h125l-172 -199h-4zM289 -10q-110 0 -187 73t-77 183t77 183.5t187 73.5q109 0 186.5 -73.5t77.5 -183.5t-77 -183t-187 -73zM289 494q-58 0 -85 -56t-27 -192q0 -135 27 -191t85 -56t85 56t27 191q0 136 -27 192t-85 56z" />
    <glyph glyph-name="OE" unicode="&#x152;" horiz-adv-x="1091" 
d="M422 0q-80 0 -151 22.5t-126 66t-87 112.5t-32 155q0 163 115 253.5t299 90.5h596v-11h-356v-322h258v-11h-258v-345h374v-11h-632zM456 689q-134 0 -202 -86t-68 -247q0 -345 259 -345h84v678h-73z" />
    <glyph glyph-name="oe" unicode="&#x153;" horiz-adv-x="905" 
d="M877 152q-20 -78 -78.5 -120t-148.5 -42q-53 0 -100.5 27.5t-77.5 74.5q-69 -102 -183 -102q-110 0 -187 73t-77 183t77 183.5t187 73.5q57 0 104.5 -28t77.5 -74q30 47 76 74.5t100 27.5q109 0 171 -68t62 -169h-335v-28q0 -229 147 -229q61 0 109.5 37.5t65.5 108.5z
M647 494q-97 0 -102 -218h194q0 112 -20 165t-72 53zM289 493q-58 0 -85 -55.5t-27 -191.5q0 -135 27 -191t85 -56t85 56t27 191q0 136 -27 191.5t-85 55.5z" />
    <glyph glyph-name="Racute" unicode="&#x154;" horiz-adv-x="732" 
d="M374 928h138l-183 -187h-4zM223 689v-352h113q81 0 127 44t46 130q0 88 -44.5 133t-124.5 45h-117zM223 326v-326h-151v700h320q122 0 197.5 -46t75.5 -138q0 -61 -38 -104.5t-90.5 -61.5t-112.5 -19v-2q155 -6 193 -120l32 -93q26 -77 59 -116h-166q-21 32 -44 102
l-32 99q-22 69 -54 97t-98 28h-91z" />
    <glyph glyph-name="racute" unicode="&#x155;" horiz-adv-x="480" 
d="M271 749h136l-183 -199h-4zM203 347q16 66 57 111t97 45q49 0 76.5 -28t27.5 -75q0 -51 -39 -88l-7 7q36 33 36 81q0 42 -25 67.5t-69 25.5t-79.5 -33t-53 -76.5t-20.5 -86.5v-297h-144v493h140z" />
    <glyph glyph-name="uni0156" unicode="&#x156;" horiz-adv-x="732" 
d="M223 689v-352h113q81 0 127 44t46 130q0 88 -44.5 133t-124.5 45h-117zM223 326v-326h-151v700h320q122 0 197.5 -46t75.5 -138q0 -61 -38 -104.5t-90.5 -61.5t-112.5 -19v-2q155 -6 193 -120l32 -93q26 -77 59 -116h-166q-21 32 -44 102l-32 99q-22 69 -54 97t-98 28
h-91zM283 -179v129h151v-130q0 -53 -40 -84.5t-119 -19.5v10q75 -11 111.5 16.5t36.5 78.5h-140z" />
    <glyph glyph-name="uni0157" unicode="&#x157;" horiz-adv-x="480" 
d="M203 347q16 66 57 111t97 45q49 0 76.5 -28t27.5 -75q0 -51 -39 -88l-7 7q36 33 36 81q0 42 -25 67.5t-69 25.5t-79.5 -33t-53 -76.5t-20.5 -86.5v-297h-144v493h140zM57 -179v129h151v-130q0 -53 -40 -84.5t-119 -19.5v10q75 -11 111.5 16.5t36.5 78.5h-140z" />
    <glyph glyph-name="Rcaron" unicode="&#x158;" horiz-adv-x="732" 
d="M352 735h-2l-166 201h120l102 -123l104 123h13zM223 689v-352h113q81 0 127 44t46 130q0 88 -44.5 133t-124.5 45h-117zM223 326v-326h-151v700h320q122 0 197.5 -46t75.5 -138q0 -61 -38 -104.5t-90.5 -61.5t-112.5 -19v-2q155 -6 193 -120l32 -93q26 -77 59 -116h-166
q-21 32 -44 102l-32 99q-22 69 -54 97t-98 28h-91z" />
    <glyph glyph-name="rcaron" unicode="&#x159;" horiz-adv-x="480" 
d="M247 545h-2l-166 209h120l101 -128l105 128h13zM203 347q16 66 57 111t97 45q49 0 76.5 -28t27.5 -75q0 -51 -39 -88l-7 7q36 33 36 81q0 42 -25 67.5t-69 25.5t-79.5 -33t-53 -76.5t-20.5 -86.5v-297h-144v493h140z" />
    <glyph glyph-name="Sacute" unicode="&#x15a;" horiz-adv-x="609" 
d="M328 928h138l-183 -187h-4zM485 139q0 56 -37 85.5t-109 48.5l-110 30q-96 25 -147 71t-51 125q0 91 72 151t185 60q94 0 163 -39.5t100 -107.5l-10 -7q-30 67 -96.5 105t-154.5 38q-75 0 -120 -34t-45 -91q0 -30 10.5 -51.5t35.5 -36t47 -22.5t63 -19l109 -30
q93 -25 143 -71.5t50 -127.5q0 -103 -80.5 -164.5t-197.5 -61.5q-103 0 -180 42.5t-112 117.5l10 6q33 -72 107.5 -113.5t169.5 -41.5q87 0 136 38t49 100z" />
    <glyph glyph-name="sacute" unicode="&#x15b;" horiz-adv-x="474" 
d="M263 749h136l-183 -199h-4zM233 493q-54 0 -87.5 -22.5t-33.5 -58.5q0 -33 21.5 -50t67.5 -29l98 -26q74 -20 111 -53t37 -92q0 -78 -60 -125t-155 -47q-78 0 -139.5 36.5t-77.5 99.5l10 4q16 -61 75.5 -95.5t131.5 -34.5q55 0 89.5 24t34.5 68q0 34 -24 52.5t-70 30.5
l-98 25q-134 34 -134 138q0 73 57.5 119t145.5 46q67 0 115.5 -28t68.5 -80l-10 -4q-40 102 -174 102z" />
    <glyph glyph-name="Scircumflex" unicode="&#x15c;" horiz-adv-x="609" 
d="M358 740l-102 123l-104 -123h-13l171 201h2l166 -201h-120zM485 139q0 56 -37 85.5t-109 48.5l-110 30q-96 25 -147 71t-51 125q0 91 72 151t185 60q94 0 163 -39.5t100 -107.5l-10 -7q-30 67 -96.5 105t-154.5 38q-75 0 -120 -34t-45 -91q0 -30 10.5 -51.5t35.5 -36
t47 -22.5t63 -19l109 -30q93 -25 143 -71.5t50 -127.5q0 -103 -80.5 -164.5t-197.5 -61.5q-103 0 -180 42.5t-112 117.5l10 6q33 -72 107.5 -113.5t169.5 -41.5q87 0 136 38t49 100z" />
    <glyph glyph-name="scircumflex" unicode="&#x15d;" horiz-adv-x="474" 
d="M289 545l-101 128l-105 -128h-13l171 209h2l166 -209h-120zM233 493q-54 0 -87.5 -22.5t-33.5 -58.5q0 -33 21.5 -50t67.5 -29l98 -26q74 -20 111 -53t37 -92q0 -78 -60 -125t-155 -47q-78 0 -139.5 36.5t-77.5 99.5l10 4q16 -61 75.5 -95.5t131.5 -34.5q55 0 89.5 24
t34.5 68q0 34 -24 52.5t-70 30.5l-98 25q-134 34 -134 138q0 73 57.5 119t145.5 46q67 0 115.5 -28t68.5 -80l-10 -4q-40 102 -174 102z" />
    <glyph glyph-name="uni015E" unicode="&#x15e;" horiz-adv-x="609" 
d="M297 -225q-79 0 -114 59l8 6q25 -45 73 -45q29 0 44.5 18.5t15.5 49.5q0 69 -83 71l28 57q-90 7 -157 49t-99 110l10 6q33 -72 107.5 -113.5t169.5 -41.5q87 0 136 38t49 100q0 56 -37 85.5t-109 48.5l-110 30q-96 25 -147 71t-51 125q0 91 72 151t185 60q94 0 163 -39.5
t100 -107.5l-10 -7q-30 67 -96.5 105t-154.5 38q-75 0 -120 -34t-45 -91q0 -30 10.5 -51.5t35.5 -36t47 -22.5t63 -19l109 -30q93 -25 143 -71.5t50 -127.5q0 -103 -80.5 -164.5t-197.5 -61.5q-18 0 -27 1l-24 -49q63 0 106 -21t43 -63q0 -38 -31 -60.5t-75 -22.5z" />
    <glyph glyph-name="uni015F" unicode="&#x15f;" horiz-adv-x="474" 
d="M227 -227q-79 0 -114 59l8 6q25 -45 73 -45q29 0 44.5 18.5t15.5 49.5q0 69 -83 71l28 60q-68 7 -118.5 42.5t-65.5 91.5l10 4q16 -61 75.5 -95.5t131.5 -34.5q55 0 89.5 24t34.5 68q0 34 -24 52.5t-70 30.5l-98 25q-134 34 -134 138q0 73 57.5 119t145.5 46
q67 0 115.5 -28t68.5 -80l-10 -4q-40 102 -174 102q-54 0 -87.5 -22.5t-33.5 -58.5q0 -33 21.5 -50t67.5 -29l98 -26q74 -20 111 -53t37 -92q0 -78 -60 -125t-155 -47q-16 0 -24 1l-24 -51q63 0 106 -21t43 -63q0 -38 -31 -60.5t-75 -22.5z" />
    <glyph glyph-name="Scaron" unicode="&#x160;" horiz-adv-x="609" 
d="M307 735h-2l-166 201h120l102 -123l104 123h13zM485 139q0 56 -37 85.5t-109 48.5l-110 30q-96 25 -147 71t-51 125q0 91 72 151t185 60q94 0 163 -39.5t100 -107.5l-10 -7q-30 67 -96.5 105t-154.5 38q-75 0 -120 -34t-45 -91q0 -30 10.5 -51.5t35.5 -36t47 -22.5
t63 -19l109 -30q93 -25 143 -71.5t50 -127.5q0 -103 -80.5 -164.5t-197.5 -61.5q-103 0 -180 42.5t-112 117.5l10 6q33 -72 107.5 -113.5t169.5 -41.5q87 0 136 38t49 100z" />
    <glyph glyph-name="scaron" unicode="&#x161;" horiz-adv-x="474" 
d="M238 545h-2l-166 209h120l101 -128l105 128h13zM233 493q-54 0 -87.5 -22.5t-33.5 -58.5q0 -33 21.5 -50t67.5 -29l98 -26q74 -20 111 -53t37 -92q0 -78 -60 -125t-155 -47q-78 0 -139.5 36.5t-77.5 99.5l10 4q16 -61 75.5 -95.5t131.5 -34.5q55 0 89.5 24t34.5 68
q0 34 -24 52.5t-70 30.5l-98 25q-134 34 -134 138q0 73 57.5 119t145.5 46q67 0 115.5 -28t68.5 -80l-10 -4q-40 102 -174 102z" />
    <glyph glyph-name="Tcommaaccent" unicode="&#x162;" horiz-adv-x="714" 
d="M349 -225q-79 0 -114 59l8 6q25 -45 73 -45q29 0 44.5 18.5t15.5 49.5q0 69 -83 71l31 66h-43v689h-261v11h674v-11h-262v-689h-99l-27 -58q63 0 106 -21t43 -63q0 -38 -31 -60.5t-75 -22.5z" />
    <glyph glyph-name="tcommaaccent" unicode="&#x163;" horiz-adv-x="408" 
d="M208 -225q-79 0 -114 59l8 6q25 -45 73 -45q29 0 44.5 18.5t15.5 49.5q0 69 -83 71l29 62q-53 12 -82.5 52t-29.5 104v331h-68v10h68v110l143 53v-163h168l-5 -10h-163v-389q0 -82 63 -82q49 0 79.5 42.5t31.5 117.5l11 -1q-7 -181 -166 -181q-25 0 -42 4l-24 -52
q63 0 106 -21t43 -63q0 -38 -31 -60.5t-75 -22.5z" />
    <glyph glyph-name="Tcaron" unicode="&#x164;" horiz-adv-x="714" 
d="M356 735h-2l-166 201h120l102 -123l104 123h13zM281 0v689h-261v11h674v-11h-262v-689h-151z" />
    <glyph glyph-name="tcaron" unicode="&#x165;" horiz-adv-x="408" 
d="M409 760l-142 -221h-4l21 221h125zM1 483v10h68v110l143 53v-163h168l-5 -10h-163v-389q0 -82 63 -82q49 0 79.5 42.5t31.5 117.5l11 -1q-7 -181 -166 -181q-74 0 -118 41.5t-44 120.5v331h-68z" />
    <glyph glyph-name="Tbar" unicode="&#x166;" horiz-adv-x="714" 
d="M547 356h-115v-356h-151v356h-114v11h114v322h-261v11h674v-11h-262v-322h115v-11z" />
    <glyph glyph-name="tbar" unicode="&#x167;" horiz-adv-x="429" 
d="M411 171q-7 -181 -166 -181q-74 0 -118 41.5t-44 120.5v165h-67v10h67v156h-68v10h68v110l143 53v-163h168l-5 -10h-163v-156h151v-10h-151v-223q0 -82 63 -82q49 0 79.5 42.5t31.5 117.5z" />
    <glyph glyph-name="Utilde" unicode="&#x168;" horiz-adv-x="715" 
d="M461 756q-33 0 -97 42.5t-91 42.5q-58 0 -65 -88h-7q4 75 33.5 123t80.5 48q34 0 98 -42.5t90 -42.5q57 0 64 88h7q-4 -74 -33.5 -122.5t-79.5 -48.5zM644 700h11v-423q0 -138 -78.5 -212.5t-209.5 -74.5q-140 0 -223.5 75.5t-83.5 210.5v424h152v-414q0 -259 211 -259
q96 0 158.5 67t62.5 188v418z" />
    <glyph glyph-name="utilde" unicode="&#x169;" horiz-adv-x="586" 
d="M360 570q-30 0 -91.5 42.5t-86.5 42.5q-53 0 -60 -88h-8q4 74 32 121t76 47q33 0 93.5 -42t85.5 -42q52 0 59 88h8q-4 -75 -31.5 -122t-76.5 -47zM383 171v322h144v-493h-140l-4 118q-17 -60 -60 -94t-107 -34q-77 0 -119 48.5t-42 123.5v331h144v-378q0 -96 72 -96
q43 0 77 45t35 107z" />
    <glyph glyph-name="Umacron" unicode="&#x16a;" horiz-adv-x="715" 
d="M535 787h-294v10h294v-10zM644 700h11v-423q0 -138 -78.5 -212.5t-209.5 -74.5q-140 0 -223.5 75.5t-83.5 210.5v424h152v-414q0 -259 211 -259q96 0 158.5 67t62.5 188v418z" />
    <glyph glyph-name="umacron" unicode="&#x16b;" horiz-adv-x="586" 
d="M438 632h-294v10h294v-10zM383 171v322h144v-493h-140l-4 118q-17 -60 -60 -94t-107 -34q-77 0 -119 48.5t-42 123.5v331h144v-378q0 -96 72 -96q43 0 77 45t35 107z" />
    <glyph glyph-name="Ubreve" unicode="&#x16c;" horiz-adv-x="715" 
d="M541 932q0 -85 -42 -138t-111 -53t-111 53t-42 138h6q6 -54 39.5 -77.5t107.5 -23.5t107.5 23.5t39.5 77.5h6zM644 700h11v-423q0 -138 -78.5 -212.5t-209.5 -74.5q-140 0 -223.5 75.5t-83.5 210.5v424h152v-414q0 -259 211 -259q96 0 158.5 67t62.5 188v418z" />
    <glyph glyph-name="ubreve" unicode="&#x16d;" horiz-adv-x="586" 
d="M444 756q0 -90 -41.5 -144t-111.5 -54t-111.5 54t-41.5 144h6q5 -58 38.5 -83t108.5 -25t108.5 25t38.5 83h6zM383 171v322h144v-493h-140l-4 118q-17 -60 -60 -94t-107 -34q-77 0 -119 48.5t-42 123.5v331h144v-378q0 -96 72 -96q43 0 77 45t35 107z" />
    <glyph glyph-name="Uring" unicode="&#x16e;" horiz-adv-x="715" 
d="M389 917q37 0 64 -27.5t27 -65.5q0 -37 -27 -64t-64 -27q-38 0 -66 27t-28 64q0 38 28 65.5t66 27.5zM389 907q-35 0 -59.5 -24.5t-24.5 -58.5q0 -33 25 -57t59 -24q33 0 57 23.5t24 57.5t-24 58.5t-57 24.5zM644 700h11v-423q0 -138 -78.5 -212.5t-209.5 -74.5
q-140 0 -223.5 75.5t-83.5 210.5v424h152v-414q0 -259 211 -259q96 0 158.5 67t62.5 188v418z" />
    <glyph glyph-name="uring" unicode="&#x16f;" horiz-adv-x="586" 
d="M198 658q0 38 28 65.5t66 27.5q37 0 64 -27.5t27 -65.5t-27 -65t-64 -27q-38 0 -66 27t-28 65zM373 658q0 33 -24 58t-57 25q-34 0 -59 -24.5t-25 -58.5t25 -58t59 -24q33 0 57 24t24 58zM383 171v322h144v-493h-140l-4 118q-17 -60 -60 -94t-107 -34q-77 0 -119 48.5
t-42 123.5v331h144v-378q0 -96 72 -96q43 0 77 45t35 107z" />
    <glyph glyph-name="Uhungarumlaut" unicode="&#x170;" horiz-adv-x="715" 
d="M506 928h127l-173 -187h-4zM333 928h127l-172 -187h-4zM644 700h11v-423q0 -138 -78.5 -212.5t-209.5 -74.5q-140 0 -223.5 75.5t-83.5 210.5v424h152v-414q0 -259 211 -259q96 0 158.5 67t62.5 188v418z" />
    <glyph glyph-name="uhungarumlaut" unicode="&#x171;" horiz-adv-x="586" 
d="M408 749h125l-172 -199h-4zM235 749h125l-172 -199h-4zM383 171v322h144v-493h-140l-4 118q-17 -60 -60 -94t-107 -34q-77 0 -119 48.5t-42 123.5v331h144v-378q0 -96 72 -96q43 0 77 45t35 107z" />
    <glyph glyph-name="Uogonek" unicode="&#x172;" horiz-adv-x="715" 
d="M434 -225q-44 0 -75 24t-31 61q0 67 134 142q-46 -12 -95 -12q-140 0 -223.5 75.5t-83.5 210.5v424h152v-414q0 -259 211 -259q96 0 158.5 67t62.5 188v418h11v-423q0 -99 -42 -166.5t-117 -97.5q-91 -57 -91 -135q0 -36 20 -58.5t48 -22.5q55 0 90 75l7 -3
q-39 -94 -136 -94z" />
    <glyph glyph-name="uogonek" unicode="&#x173;" horiz-adv-x="586" 
d="M474 -131q-39 -94 -136 -94q-44 0 -75 24t-31 61q0 23 11 42t38 38.5t45.5 30.5t60.5 34l-4 113q-17 -60 -60 -94t-107 -34q-77 0 -119 48.5t-42 123.5v331h144v-378q0 -96 72 -96q43 0 77 45t35 107v322h144v-493h-133q-46 -30 -65 -56.5t-19 -65.5q0 -36 19.5 -58.5
t47.5 -22.5q55 0 90 75z" />
    <glyph glyph-name="Wcircumflex" unicode="&#x174;" horiz-adv-x="992" 
d="M561 740l-102 123l-104 -123h-13l171 201h2l166 -201h-120zM388 173l-8 -19l-65 -164h-4l-299 710h159l211 -511l113 286l-94 225h154l210 -519l202 519h12l-277 -710h-4l-197 470l-113 -286v-1z" />
    <glyph glyph-name="wcircumflex" unicode="&#x175;" horiz-adv-x="741" 
d="M436 545l-101 128l-105 -128h-13l171 209h2l166 -209h-120zM523 -7l-146 328l-139 -328h-4l-230 500h149l145 -334l74 174l-71 160h148l137 -334l140 334h11l-210 -500h-4z" />
    <glyph glyph-name="Ycircumflex" unicode="&#x176;" horiz-adv-x="677" 
d="M406 740l-102 123l-104 -123h-13l171 201h2l166 -201h-120zM412 312l242 388h11l-250 -404v-296h-152v291l-251 409h170z" />
    <glyph glyph-name="ycircumflex" unicode="&#x177;" horiz-adv-x="498" 
d="M320 545l-101 128l-105 -128h-13l171 209h2l166 -209h-120zM76 -225q-45 0 -72.5 28t-27.5 75q0 32 19 62l10 -4q-19 -30 -19 -58q0 -43 24.5 -68t65.5 -25q49 0 82 40t76 132l18 39l-247 497h154l161 -349l162 349h12l-249 -536q-43 -94 -79 -138t-90 -44z" />
    <glyph glyph-name="Ydieresis" unicode="&#x178;" horiz-adv-x="677" 
d="M386 750v145h116v-145h-116zM210 750v145h116v-145h-116zM412 312l242 388h11l-250 -404v-296h-152v291l-251 409h170z" />
    <glyph glyph-name="Zacute" unicode="&#x179;" horiz-adv-x="662" 
d="M376 928h138l-183 -187h-4zM630 11v-11h-603v4l430 685h-405v11h573v-4l-426 -685h431z" />
    <glyph glyph-name="zacute" unicode="&#x17a;" horiz-adv-x="505" 
d="M291 749h136l-183 -199h-4zM23 4l292 479h-275v10h434v-4l-289 -479h298v-10h-460v4z" />
    <glyph glyph-name="Zdotaccent" unicode="&#x17b;" horiz-adv-x="662" 
d="M282 750v145h149v-145h-149zM630 11v-11h-603v4l430 685h-405v11h573v-4l-426 -685h431z" />
    <glyph glyph-name="zdotaccent" unicode="&#x17c;" horiz-adv-x="505" 
d="M195 580v144h145v-144h-145zM23 4l292 479h-275v10h434v-4l-289 -479h298v-10h-460v4z" />
    <glyph glyph-name="Zcaron" unicode="&#x17d;" horiz-adv-x="662" 
d="M355 735h-2l-166 201h120l102 -123l104 123h13zM630 11v-11h-603v4l430 685h-405v11h573v-4l-426 -685h431z" />
    <glyph glyph-name="zcaron" unicode="&#x17e;" horiz-adv-x="505" 
d="M266 545h-2l-166 209h120l101 -128l105 128h13zM23 4l292 479h-275v10h434v-4l-289 -479h298v-10h-460v4z" />
    <glyph glyph-name="uni0192" unicode="&#x192;" horiz-adv-x="570" 
d="M48 -193q-58 0 -93.5 28.5t-35.5 72.5q0 52 44 78l6 -7q-40 -25 -40 -71q0 -34 24 -57t62 -23q54 0 83 47t43 160l41 334h-95l2 11h94l10 79q15 122 76 186.5t158 64.5q61 0 93.5 -28.5t32.5 -73.5q0 -51 -44 -77l-6 7q40 25 40 70q0 35 -23 58t-60 23q-53 0 -79.5 -46
t-41.5 -162l-12 -101h124l-2 -11h-124l-33 -275q-36 -287 -244 -287z" />
    <glyph glyph-name="AEacute" unicode="&#x1fc;" horiz-adv-x="1068" 
d="M766 928h138l-183 -187h-4zM506 312v379l-264 -379h264zM506 0v301h-272l-209 -301h-13l487 700h515v-11h-357v-322h258v-11h-258v-345h374v-11h-525z" />
    <glyph glyph-name="aeacute" unicode="&#x1fd;" horiz-adv-x="843" 
d="M454 749h136l-183 -199h-4zM815 152q-20 -77 -78.5 -119.5t-147.5 -42.5q-82 0 -148.5 41.5t-90.5 115.5q-6 -66 -55 -111.5t-124 -45.5q-65 0 -106 34t-41 91q0 34 16 59.5t45 41.5t59.5 25.5t69.5 16.5l127 22v86q0 59 -30.5 91t-89.5 32q-63 0 -106 -33.5t-43 -87.5
q0 -47 37 -74l-6 -7q-41 27 -41 81q0 60 50 97.5t144 37.5q54 0 96 -22t61 -58q66 80 173 80q108 0 170.5 -68t62.5 -169h-335v-28q0 -229 146 -229q61 0 109.5 38t65.5 108zM586 494q-97 0 -102 -218h194q0 111 -20 164.5t-72 53.5zM341 270l-79 -13q-52 -9 -75 -37.5
t-23 -81.5q0 -105 74 -105q43 0 73 37t30 100v100z" />
    <glyph glyph-name="Oslashacute" unicode="&#x1fe;" horiz-adv-x="781" 
d="M411 928h138l-183 -187h-4zM195 350q0 -132 25 -211l337 434q-45 127 -166 127q-101 0 -148.5 -86.5t-47.5 -263.5zM391 0q101 0 148.5 86.5t47.5 263.5q0 134 -26 212l-337 -435q45 -127 167 -127zM391 -10q-120 0 -219 70l-62 -80l-8 6l62 80q-64 49 -101 122.5
t-37 161.5q0 155 107.5 257.5t257.5 102.5q123 0 218 -70l62 80l8 -6l-62 -80q65 -49 102 -122.5t37 -161.5q0 -155 -107.5 -257.5t-257.5 -102.5z" />
    <glyph glyph-name="oslashacute" unicode="&#x1ff;" horiz-adv-x="578" 
d="M312 749h136l-183 -199h-4zM177 246q0 -77 9 -128l204 270q-12 57 -37 81.5t-64 24.5q-58 0 -85 -56t-27 -192zM289 -1q58 0 85 56t27 191q0 78 -9 129l-204 -269q12 -57 36.5 -82t64.5 -25zM289 -10q-85 0 -153 46l-42 -55l-8 5l42 55q-48 35 -75.5 88.5t-27.5 116.5
q0 110 77 183.5t187 73.5q84 0 152 -46l42 55l8 -6l-41 -55q48 -35 75.5 -88.5t27.5 -116.5q0 -110 -77 -183t-187 -73z" />
    <glyph glyph-name="uni0218" unicode="&#x218;" horiz-adv-x="609" 
d="M485 139q0 56 -37 85.5t-109 48.5l-110 30q-96 25 -147 71t-51 125q0 91 72 151t185 60q94 0 163 -39.5t100 -107.5l-10 -7q-30 67 -96.5 105t-154.5 38q-75 0 -120 -34t-45 -91q0 -30 10.5 -51.5t35.5 -36t47 -22.5t63 -19l109 -30q93 -25 143 -71.5t50 -127.5
q0 -103 -80.5 -164.5t-197.5 -61.5q-103 0 -180 42.5t-112 117.5l10 6q33 -72 107.5 -113.5t169.5 -41.5q87 0 136 38t49 100zM224 -179v129h151v-130q0 -53 -40 -84.5t-119 -19.5v10q75 -11 111.5 16.5t36.5 78.5h-140z" />
    <glyph glyph-name="uni0219" unicode="&#x219;" horiz-adv-x="474" 
d="M233 493q-54 0 -87.5 -22.5t-33.5 -58.5q0 -33 21.5 -50t67.5 -29l98 -26q74 -20 111 -53t37 -92q0 -78 -60 -125t-155 -47q-78 0 -139.5 36.5t-77.5 99.5l10 4q16 -61 75.5 -95.5t131.5 -34.5q55 0 89.5 24t34.5 68q0 34 -24 52.5t-70 30.5l-98 25q-134 34 -134 138
q0 73 57.5 119t145.5 46q67 0 115.5 -28t68.5 -80l-10 -4q-40 102 -174 102zM164 -179v129h151v-130q0 -53 -40 -84.5t-119 -19.5v10q75 -11 111.5 16.5t36.5 78.5h-140z" />
    <glyph glyph-name="uni021A" unicode="&#x21a;" horiz-adv-x="714" 
d="M281 0v689h-261v11h674v-11h-262v-689h-151zM281 -179v129h151v-130q0 -53 -40 -84.5t-119 -19.5v10q75 -11 111.5 16.5t36.5 78.5h-140z" />
    <glyph glyph-name="uni021B" unicode="&#x21b;" horiz-adv-x="408" 
d="M1 483v10h68v110l143 53v-163h168l-5 -10h-163v-389q0 -82 63 -82q49 0 79.5 42.5t31.5 117.5l11 -1q-7 -181 -166 -181q-74 0 -118 41.5t-44 120.5v331h-68zM156 -179v129h151v-130q0 -53 -40 -84.5t-119 -19.5v10q75 -11 111.5 16.5t36.5 78.5h-140z" />
    <glyph glyph-name="uni0237" unicode="&#x237;" 
d="M204 -23q0 -92 -52.5 -147t-143.5 -55q-57 0 -92 28t-35 75q0 41 32 64l8 -4q-30 -27 -30 -60q0 -40 25.5 -62t61.5 -22q44 0 63 32.5t19 100.5v566h144v-516z" />
    <glyph glyph-name="uni02BB" unicode="&#x2bb;" horiz-adv-x="500" 
d="M325 698v-130h-151v130q0 53 40 84.5t119 20.5v-10q-75 10 -111.5 -17.5t-36.5 -77.5h140z" />
    <glyph glyph-name="circumflex" unicode="&#x2c6;" horiz-adv-x="500" 
d="M300 545l-101 128l-105 -128h-13l171 209h2l166 -209h-120z" />
    <glyph glyph-name="caron" unicode="&#x2c7;" horiz-adv-x="500" 
d="M249 545h-2l-166 209h120l101 -128l105 128h13z" />
    <glyph glyph-name="breve" unicode="&#x2d8;" horiz-adv-x="500" 
d="M403 756q0 -90 -41.5 -144t-111.5 -54t-111.5 54t-41.5 144h6q5 -58 38.5 -83t108.5 -25t108.5 25t38.5 83h6z" />
    <glyph glyph-name="dotaccent" unicode="&#x2d9;" horiz-adv-x="499" 
d="M177 580v144h145v-144h-145z" />
    <glyph glyph-name="ring" unicode="&#x2da;" horiz-adv-x="499" 
d="M157 658q0 38 28 65.5t66 27.5q37 0 64 -27.5t27 -65.5t-27 -65t-64 -27q-38 0 -66 27t-28 65zM332 658q0 33 -24 58t-57 25q-34 0 -59 -24.5t-25 -58.5t25 -58t59 -24q33 0 57 24t24 58z" />
    <glyph glyph-name="ogonek" unicode="&#x2db;" horiz-adv-x="500" 
d="M131 -140q0 19 10.5 37t21 30t38.5 29.5t41.5 25t51.5 27.5l4 -6q-49 -30 -69 -57.5t-20 -67.5q0 -36 19.5 -58.5t47.5 -22.5q55 0 90 75l7 -3q-39 -94 -136 -94q-44 0 -75 24t-31 61z" />
    <glyph glyph-name="tilde" unicode="&#x2dc;" horiz-adv-x="500" 
d="M319 570q-30 0 -91.5 42.5t-86.5 42.5q-53 0 -60 -88h-8q4 74 32 121t76 47q33 0 93.5 -42t85.5 -42q52 0 59 88h8q-4 -75 -31.5 -122t-76.5 -47z" />
    <glyph glyph-name="hungarumlaut" unicode="&#x2dd;" horiz-adv-x="500" 
d="M302 749h125l-172 -199h-4zM129 749h125l-172 -199h-4z" />
    <glyph glyph-name="Wgrave" unicode="&#x1e80;" horiz-adv-x="992" 
d="M523 741l-183 187h138l49 -187h-4zM388 173l-8 -19l-65 -164h-4l-299 710h159l211 -511l113 286l-94 225h154l210 -519l202 519h12l-277 -710h-4l-197 470l-113 -286v-1z" />
    <glyph glyph-name="wgrave" unicode="&#x1e81;" horiz-adv-x="741" 
d="M398 550l-183 199h136l51 -199h-4zM523 -7l-146 328l-139 -328h-4l-230 500h149l145 -334l74 174l-71 160h148l137 -334l140 334h11l-210 -500h-4z" />
    <glyph glyph-name="Wacute" unicode="&#x1e82;" horiz-adv-x="992" 
d="M532 928h138l-183 -187h-4zM388 173l-8 -19l-65 -164h-4l-299 710h159l211 -511l113 286l-94 225h154l210 -519l202 519h12l-277 -710h-4l-197 470l-113 -286v-1z" />
    <glyph glyph-name="wacute" unicode="&#x1e83;" horiz-adv-x="741" 
d="M410 749h136l-183 -199h-4zM523 -7l-146 328l-139 -328h-4l-230 500h149l145 -334l74 174l-71 160h148l137 -334l140 334h11l-210 -500h-4z" />
    <glyph glyph-name="Wdieresis" unicode="&#x1e84;" horiz-adv-x="992" 
d="M541 750v145h116v-145h-116zM365 750v145h116v-145h-116zM388 173l-8 -19l-65 -164h-4l-299 710h159l211 -511l113 286l-94 225h154l210 -519l202 519h12l-277 -710h-4l-197 470l-113 -286v-1z" />
    <glyph glyph-name="wdieresis" unicode="&#x1e85;" horiz-adv-x="741" 
d="M416 580v144h116v-144h-116zM240 580v144h116v-144h-116zM523 -7l-146 328l-139 -328h-4l-230 500h149l145 -334l74 174l-71 160h148l137 -334l140 334h11l-210 -500h-4z" />
    <glyph glyph-name="Ygrave" unicode="&#x1ef2;" horiz-adv-x="677" 
d="M368 741l-183 187h138l49 -187h-4zM412 312l242 388h11l-250 -404v-296h-152v291l-251 409h170z" />
    <glyph glyph-name="ygrave" unicode="&#x1ef3;" horiz-adv-x="498" 
d="M282 550l-183 199h136l51 -199h-4zM76 -225q-45 0 -72.5 28t-27.5 75q0 32 19 62l10 -4q-19 -30 -19 -58q0 -43 24.5 -68t65.5 -25q49 0 82 40t76 132l18 39l-247 497h154l161 -349l162 349h12l-249 -536q-43 -94 -79 -138t-90 -44z" />
    <glyph glyph-name="uni2009" unicode="&#x2009;" horiz-adv-x="40" 
 />
    <glyph glyph-name="endash" unicode="&#x2013;" horiz-adv-x="529" 
d="M55 273v10h420v-10h-420z" />
    <glyph glyph-name="emdash" unicode="&#x2014;" horiz-adv-x="829" 
d="M55 274v10h720v-10h-720z" />
    <glyph glyph-name="quoteleft" unicode="&#x2018;" horiz-adv-x="254" 
d="M205 557v-157h-156v164q0 72 44.5 109t115.5 37v-10q-66 0 -108 -34t-42 -101v-8h146z" />
    <glyph glyph-name="quoteright" unicode="&#x2019;" horiz-adv-x="254" 
d="M49 543v157h156v-164q0 -72 -44.5 -109t-115.5 -37v10q66 0 108 34t42 101v8h-146z" />
    <glyph glyph-name="quotesinglbase" unicode="&#x201a;" horiz-adv-x="254" 
d="M49 1v157h156v-164q0 -72 -44.5 -109t-115.5 -37v10q66 0 108 34t42 101v8h-146z" />
    <glyph glyph-name="quotedblleft" unicode="&#x201c;" horiz-adv-x="465" 
d="M416 557v-157h-156v164q0 72 44.5 109t115.5 37v-10q-66 0 -108 -34t-42 -101v-8h146zM205 557v-157h-156v164q0 72 44.5 109t115.5 37v-10q-66 0 -108 -34t-42 -101v-8h146z" />
    <glyph glyph-name="quotedblright" unicode="&#x201d;" horiz-adv-x="466" 
d="M261 543v157h156v-164q0 -72 -44.5 -109t-115.5 -37v10q66 0 108 34t42 101v8h-146zM49 543v157h156v-164q0 -72 -44.5 -109t-115.5 -37v10q66 0 108 34t42 101v8h-146z" />
    <glyph glyph-name="quotedblbase" unicode="&#x201e;" horiz-adv-x="466" 
d="M261 1v157h156v-164q0 -72 -44.5 -109t-115.5 -37v10q66 0 108 34t42 101v8h-146zM49 1v157h156v-164q0 -72 -44.5 -109t-115.5 -37v10q66 0 108 34t42 101v8h-146z" />
    <glyph glyph-name="dagger" unicode="&#x2020;" horiz-adv-x="350" 
d="M170 355v261h-110v10h110v123h10v-123h110v-10h-110v-261h-10z" />
    <glyph glyph-name="daggerdbl" unicode="&#x2021;" horiz-adv-x="350" 
d="M170 355v123h-110v10h110v128h-110v10h110v123h10v-123h110v-10h-110v-128h110v-10h-110v-123h-10z" />
    <glyph glyph-name="bullet" unicode="&#x2022;" horiz-adv-x="431" 
d="M55 279q0 66 47.5 114t112.5 48q66 0 113.5 -48t47.5 -114t-47 -113.5t-114 -47.5q-65 0 -112.5 47.5t-47.5 113.5z" />
    <glyph glyph-name="ellipsis" unicode="&#x2026;" horiz-adv-x="725" 
d="M55 0v157h155v-157h-155zM284 0v157h155v-157h-155zM514 0v157h155v-157h-155z" />
    <glyph glyph-name="perthousand" unicode="&#x2030;" horiz-adv-x="1013" 
d="M164 0h-11l359 678q-19 -22 -55 -36.5t-76 -14.5q-48 0 -87 24q34 -42 34 -96q0 -64 -42.5 -109.5t-101.5 -45.5t-102 46t-43 109t43 109t102 46q32 0 57 -11.5t38.5 -25t40 -25t61.5 -11.5q96 0 152 77l6 -4zM247 555q0 145 -63 145t-63 -145t63 -145t63 145zM685 150
q0 63 42.5 109t101.5 46t102 -46t43 -109q0 -64 -43 -110t-102 -46t-101.5 46t-42.5 110zM363 150q0 63 42.5 109t101.5 46t102 -46t43 -109q0 -64 -43 -110t-102 -46t-101.5 46t-42.5 110zM892 150q0 145 -63 145t-63 -145q0 -146 63 -146t63 146zM571 150q0 145 -64 145
q-63 0 -63 -145q0 -146 63 -146q64 0 64 146z" />
    <glyph glyph-name="guilsinglleft" unicode="&#x2039;" horiz-adv-x="317" 
d="M33 242v4l247 209h4l-125 -211l125 -211h-4z" />
    <glyph glyph-name="guilsinglright" unicode="&#x203a;" horiz-adv-x="317" 
d="M284 246v-4l-247 -209h-4l125 211l-125 211h4z" />
    <glyph glyph-name="fraction" unicode="&#x2044;" horiz-adv-x="343" 
d="M10 -123l294 872h9l-294 -872h-9z" />
    <glyph glyph-name="Euro" unicode="&#x20ac;" horiz-adv-x="647" 
d="M391 -10q-118 0 -203 85t-100 222h-66v10h65q-2 28 -2 43q0 26 3 50h-66v10h67q17 135 101.5 217.5t200.5 82.5q90 0 148.5 -53t76.5 -142l-10 -2q-15 79 -64.5 128t-109.5 49q-77 0 -123 -72.5t-54 -207.5h222l-3 -10h-220q-1 -16 -1 -50q0 -29 1 -43h192l-3 -10h-189
q7 -139 53.5 -213t124.5 -74q60 0 109.5 49t64.5 128l10 -2q-18 -89 -76.5 -142t-148.5 -53z" />
    <glyph glyph-name="uni2117" unicode="&#x2117;" horiz-adv-x="810" 
d="M405 710q151 0 255.5 -102.5t104.5 -257.5t-104.5 -257.5t-255.5 -102.5t-255.5 102.5t-104.5 257.5t104.5 257.5t255.5 102.5zM405 0q147 0 248.5 99.5t101.5 250.5t-101.5 250.5t-248.5 99.5t-248.5 -99.5t-101.5 -250.5t101.5 -250.5t248.5 -99.5zM450 313h-93v-164
h-96v408h189q74 0 119 -31t45 -91q0 -59 -45.5 -90.5t-118.5 -31.5zM357 323h48q108 0 108 112t-108 112h-48v-224z" />
    <glyph glyph-name="trademark" unicode="&#x2122;" horiz-adv-x="722" 
d="M133 427v263h-97v10h271v-10h-98v-263h-76zM504 526l68 174h81v-273h-75v262l-102 -263h-8l-110 263v-262h-10v273h85z" />
    <glyph glyph-name="uni2153" unicode="&#x2153;" horiz-adv-x="394" 
d="M230 414h-75v247q-23 -40 -64 -68l-4 7q53 38 86 105h57v-291zM29 358h336v-10h-336v10zM187 -6q-44 0 -72 19.5t-28 53.5q0 37 35 50l3 -6q-30 -12 -30 -43q0 -28 22 -45.5t52 -17.5q32 0 49 21.5t17 56.5q0 66 -60 66h-10v7h10q53 0 53 64q0 59 -57 59q-24 0 -43 -14.5
t-19 -39.5q0 -29 23 -38l-3 -7q-30 12 -30 45q0 30 27 48.5t67 18.5q45 0 75 -19t30 -53q0 -29 -28.5 -47.5t-66.5 -19.5v-1q40 -1 73.5 -20t33.5 -55q0 -40 -35 -61.5t-88 -21.5z" />
    <glyph glyph-name="uni2154" unicode="&#x2154;" horiz-adv-x="394" 
d="M132 474h169l-1 -60h-225v6l82 85q64 65 64 123q0 66 -56 66q-28 0 -47 -18.5t-19 -47.5q0 -18 11 -32t27 -17l-4 -8q-18 4 -30 20t-12 37q0 36 27 58t74 22q45 0 75 -21.5t30 -62.5q0 -43 -39.5 -75t-125.5 -75zM29 358h336v-10h-336v10zM187 -6q-44 0 -72 19.5
t-28 53.5q0 37 35 50l3 -6q-30 -12 -30 -43q0 -28 22 -45.5t52 -17.5q32 0 49 21.5t17 56.5q0 66 -60 66h-10v7h10q53 0 53 64q0 59 -57 59q-24 0 -43 -14.5t-19 -39.5q0 -29 23 -38l-3 -7q-30 12 -30 45q0 30 27 48.5t67 18.5q45 0 75 -19t30 -53q0 -29 -28.5 -47.5
t-66.5 -19.5v-1q40 -1 73.5 -20t33.5 -55q0 -40 -35 -61.5t-88 -21.5z" />
    <glyph glyph-name="uni215B" unicode="&#x215b;" horiz-adv-x="394" 
d="M234 414h-75v247q-23 -40 -64 -68l-5 7q53 38 86 105h58v-291zM29 358h336v-10h-336v10zM253 168q65 -26 65 -81q0 -43 -34.5 -68.5t-82.5 -25.5q-47 0 -79 20t-32 55q0 24 17 40t42 23q-49 26 -49 73q0 38 29 63t72 25q39 0 65.5 -17.5t26.5 -48.5q0 -39 -40 -58z
M148 238q0 -29 46 -47l52 -20q38 21 38 55q0 27 -23.5 42.5t-55.5 15.5q-26 0 -41.5 -12.5t-15.5 -33.5zM211 107l-54 21q-57 -17 -57 -60q0 -31 28.5 -48.5t68.5 -17.5q33 0 50.5 14t17.5 37q0 19 -13.5 31t-40.5 23z" />
    <glyph glyph-name="uni215C" unicode="&#x215c;" horiz-adv-x="394" 
d="M187 410q-44 0 -72 19.5t-28 53.5q0 37 35 50l3 -6q-30 -12 -30 -43q0 -28 22 -45.5t52 -17.5q32 0 49 21.5t17 56.5q0 66 -60 66h-10v7h10q53 0 53 64q0 59 -57 59q-24 0 -43 -14.5t-19 -39.5q0 -29 23 -38l-3 -7q-30 12 -30 45q0 30 27 48.5t67 18.5q45 0 75 -19
t30 -53q0 -29 -28.5 -47.5t-66.5 -19.5v-1q40 -1 73.5 -20t33.5 -55q0 -40 -35 -61.5t-88 -21.5zM29 358h336v-10h-336v10zM253 168q65 -26 65 -81q0 -43 -34.5 -68.5t-82.5 -25.5q-47 0 -79 20t-32 55q0 24 17 40t42 23q-49 26 -49 73q0 38 29 63t72 25q39 0 65.5 -17.5
t26.5 -48.5q0 -39 -40 -58zM148 238q0 -29 46 -47l52 -20q38 21 38 55q0 27 -23.5 42.5t-55.5 15.5q-26 0 -41.5 -12.5t-15.5 -33.5zM211 107l-54 21q-57 -17 -57 -60q0 -31 28.5 -48.5t68.5 -17.5q33 0 50.5 14t17.5 37q0 19 -13.5 31t-40.5 23z" />
    <glyph glyph-name="uni215D" unicode="&#x215d;" horiz-adv-x="394" 
d="M298 700l-7 -59h-150l-10 -81q21 35 80 35q44 0 72 -23.5t28 -62.5q0 -48 -35.5 -75.5t-90.5 -27.5q-41 0 -67 18.5t-26 50.5q0 29 25 43l4 -6q-20 -15 -20 -38q0 -26 20.5 -41.5t45.5 -15.5q34 0 51 23.5t17 64.5q0 74 -54 74q-34 0 -54 -34h-6l20 155h157zM29 358h336
v-10h-336v10zM253 168q65 -26 65 -81q0 -43 -34.5 -68.5t-82.5 -25.5q-47 0 -79 20t-32 55q0 24 17 40t42 23q-49 26 -49 73q0 38 29 63t72 25q39 0 65.5 -17.5t26.5 -48.5q0 -39 -40 -58zM148 238q0 -29 46 -47l52 -20q38 21 38 55q0 27 -23.5 42.5t-55.5 15.5
q-26 0 -41.5 -12.5t-15.5 -33.5zM211 107l-54 21q-57 -17 -57 -60q0 -31 28.5 -48.5t68.5 -17.5q33 0 50.5 14t17.5 37q0 19 -13.5 31t-40.5 23z" />
    <glyph glyph-name="uni215E" unicode="&#x215e;" horiz-adv-x="394" 
d="M99 700h213v-4l-49 -82q-50 -83 -34 -204h-73q1 12 3.5 24.5t5 22t8 22.5t8 20t10.5 21t11 19.5t13.5 20.5t13 18.5t14.5 20.5t14 20l12 17h-170v64zM29 358h336v-10h-336v10zM253 168q65 -26 65 -81q0 -43 -34.5 -68.5t-82.5 -25.5q-47 0 -79 20t-32 55q0 24 17 40
t42 23q-49 26 -49 73q0 38 29 63t72 25q39 0 65.5 -17.5t26.5 -48.5q0 -39 -40 -58zM148 238q0 -29 46 -47l52 -20q38 21 38 55q0 27 -23.5 42.5t-55.5 15.5q-26 0 -41.5 -12.5t-15.5 -33.5zM211 107l-54 21q-57 -17 -57 -60q0 -31 28.5 -48.5t68.5 -17.5q33 0 50.5 14
t17.5 37q0 19 -13.5 31t-40.5 23z" />
    <glyph glyph-name="minus" unicode="&#x2212;" horiz-adv-x="479" 
d="M44 315v10h391v-10h-391z" />
    <glyph glyph-name="approxequal" unicode="&#x2248;" horiz-adv-x="480" 
d="M44 347v12q52 52 105 52q35 0 91 -28t88 -28q55 0 108 54v-11q-52 -53 -108 -53q-34 0 -90.5 28t-88.5 28q-51 0 -105 -54zM44 220v12q52 52 105 52q35 0 91 -28t88 -28q55 0 108 54v-11q-52 -53 -108 -53q-34 0 -90.5 28t-88.5 28q-51 0 -105 -54z" />
    <glyph glyph-name="notequal" unicode="&#x2260;" horiz-adv-x="479" 
d="M435 237h-252l-88 -102h-13l88 102h-126v10h135l115 133h-250v10h259l86 99h13l-86 -99h119v-10h-128l-115 -133h243v-10z" />
    <glyph glyph-name="lessequal" unicode="&#x2264;" horiz-adv-x="373" 
d="M44 335v10l284 135v-10l-274 -130l274 -130v-10zM44 124v10h285v-10h-285z" />
    <glyph glyph-name="greaterequal" unicode="&#x2265;" horiz-adv-x="373" 
d="M329 335l-284 -135v10l274 130l-274 130v10l284 -135v-10zM329 124h-285v10h285v-10z" />
    <glyph glyph-name="uni00200326" horiz-adv-x="500" 
d="M174 -179v129h151v-130q0 -53 -40 -84.5t-119 -19.5v10q75 -11 111.5 16.5t36.5 78.5h-140z" />
    <glyph glyph-name="uni00200323" horiz-adv-x="499" 
d="M175 -208v145h149v-145h-149z" />
    <glyph glyph-name="i.dot" 
d="M60 580v144h145v-144h-145zM204 493v-493h-144v493h144z" />
    <glyph glyph-name="f_f.short" horiz-adv-x="648" 
d="M216 493h170v54q0 87 49 145q-38 36 -90 36q-63 0 -96 -47t-33 -129v-59zM216 483v-483h-144v483h-69v10h69v25q0 99 66.5 163.5t175.5 64.5q80 0 128 -46q53 59 135 59q59 0 91.5 -27.5t32.5 -70.5q0 -23 -14 -44l-7 5q11 19 11 39q0 37 -22.5 58t-57.5 21
q-81 0 -81 -126v-121h132l-5 -10h-127v-483h-144v483h-170z" />
    <glyph glyph-name="f.short" horiz-adv-x="335" 
d="M72 547q0 91 54 151.5t137 60.5q59 0 91.5 -27.5t32.5 -70.5q0 -25 -13 -44l-8 5q11 19 11 39q0 37 -22 58t-57 21q-82 0 -82 -126v-121h133l-5 -10h-128v-483h-144v483h-69v10h69v54z" />
    <glyph glyph-name="caron.Slovak" horiz-adv-x="500" 
d="M342 749l-142 -221h-4l21 221h125z" />
    <glyph glyph-name="hyphen.cap" horiz-adv-x="358" 
d="M55 329v13h249v-13h-249z" />
    <glyph glyph-name="endash.cap" horiz-adv-x="529" 
d="M55 328v10h420v-10h-420z" />
    <glyph glyph-name="emdash.cap" horiz-adv-x="829" 
d="M55 329v10h720v-10h-720z" />
    <glyph glyph-name="parenleft.cap" horiz-adv-x="369" 
d="M199 324q0 -142 12 -219t40.5 -121t87.5 -81l-5 -6q-121 60 -200 172t-79 254q0 141 79 253.5t200 172.5l5 -7q-59 -36 -87.5 -80.5t-40.5 -120.5t-12 -217z" />
    <glyph glyph-name="parenright.cap" horiz-adv-x="369" 
d="M176 324q0 141 -12 217t-40.5 120.5t-87.5 80.5l5 7q121 -60 200 -172.5t79 -253.5q0 -142 -79 -254t-200 -172l-5 6q59 37 87.5 81t40.5 121t12 219z" />
    <glyph glyph-name="bracketleft.cap" horiz-adv-x="362" 
d="M82 -104v853h255v-7l-118 -4v-831l118 -4v-7h-255z" />
    <glyph glyph-name="bracketright.cap" horiz-adv-x="362" 
d="M280 749v-853h-255v7l118 4v831l-118 4v7h255z" />
    <glyph glyph-name="braceleft.cap" horiz-adv-x="410" 
d="M31 318v9q115 0 115 118q0 27 -14.5 80t-14.5 77q0 65 54.5 106t134.5 41q49 0 84 -19l-1 -10q-32 16 -59 16q-39 0 -62.5 -24.5t-23.5 -68.5q0 -26 13.5 -90.5t13.5 -88.5q0 -36 -19.5 -64t-51 -43.5t-63 -24t-63.5 -10.5q32 -2 64 -10t63 -23.5t50.5 -43.5t19.5 -64
q0 -24 -13.5 -88.5t-13.5 -91.5q0 -43 23.5 -67.5t62.5 -24.5q26 0 59 15l1 -10q-36 -18 -84 -18q-80 0 -134.5 41t-54.5 106q0 24 14.5 77t14.5 80q0 118 -115 118z" />
    <glyph glyph-name="braceright.cap" horiz-adv-x="410" 
d="M379 318q-115 0 -115 -118q0 -27 15 -80t15 -77q0 -65 -55 -106t-135 -41q-46 0 -84 18l2 10q33 -15 58 -15q39 0 62.5 24.5t23.5 67.5q0 27 -13 91.5t-13 88.5q0 36 19.5 64t50.5 43.5t62.5 23.5t63.5 10q-32 2 -63.5 10.5t-62.5 24t-50.5 43.5t-19.5 64q0 24 13 88.5
t13 90.5q0 44 -23.5 68.5t-62.5 24.5q-26 0 -58 -16l-2 10q37 19 84 19q80 0 135 -41t55 -106q0 -24 -15 -77t-15 -80q0 -118 115 -118v-9z" />
    <glyph glyph-name="guilsinglleft.cap" horiz-adv-x="317" 
d="M33 332v4l247 209h4l-125 -211l125 -211h-4z" />
    <glyph glyph-name="guilsinglright.cap" horiz-adv-x="317" 
d="M284 336v-4l-247 -209h-4l125 211l-125 211h4z" />
    <glyph glyph-name="guillemotleft.cap" horiz-adv-x="497" 
d="M33 332v4l247 209h4l-125 -211l125 -211h-4zM213 332v4l247 209h4l-125 -211l125 -211h-4z" />
    <glyph glyph-name="guillemotright.cap" horiz-adv-x="497" 
d="M284 336v-4l-247 -209h-4l125 211l-125 211h4zM464 336v-4l-247 -209h-4l125 211l-125 211h4z" />
    <glyph glyph-name="slash.cap" horiz-adv-x="351" 
d="M20 -103l300 852h11l-300 -852h-11z" />
    <glyph glyph-name="backslash.cap" horiz-adv-x="351" 
d="M331 -103h-11l-300 852h11z" />
    <glyph glyph-name="bar.cap" horiz-adv-x="214" 
d="M102 -103v852h10v-852h-10z" />
    <glyph glyph-name="at.cap" horiz-adv-x="941" 
d="M684 134q26 0 58.5 17t64 49t53 88t21.5 124q0 158 -111.5 251t-278.5 93q-179 0 -305 -123t-126 -312q0 -180 120 -292.5t306 -112.5q167 0 284 88l6 -8q-118 -90 -290 -90q-190 0 -313 116t-123 299q0 128 60.5 230.5t161 158.5t219.5 56q170 0 285 -95.5t115 -258.5
q0 -72 -23.5 -130.5t-60 -93.5t-77.5 -54t-80 -19q-58 0 -93.5 29.5t-36.5 83.5q-23 -48 -63.5 -79.5t-89.5 -31.5q-63 0 -100.5 44.5t-37.5 112.5q0 114 66.5 200.5t165.5 86.5q50 0 79.5 -31t31.5 -80l33 103h122l-83 -334q-10 -39 1 -62t39 -23zM526 262l30 123
q8 32 8 57q0 37 -16.5 58.5t-45.5 21.5q-59 0 -100.5 -86.5t-42.5 -191.5q0 -89 57 -89q34 0 64.5 31.5t45.5 75.5z" />
    <glyph glyph-name="exclamdown.cap" horiz-adv-x="269" 
d="M56 543v157h156v-157h-156zM132 474h4l91 -474h-185z" />
    <glyph glyph-name="questiondown.cap" horiz-adv-x="528" 
d="M352 701v-157h-155v157h155zM146 146q0 -66 42.5 -103t113.5 -37q87 0 140 51t53 125q0 47 -24.5 80.5t-61.5 42.5l4 9q38 -9 65 -45.5t27 -86.5q0 -85 -63.5 -138t-171.5 -53q-104 0 -175 52.5t-71 143.5q0 100 75.5 159.5t177.5 66.5v64h10v-180q-59 -7 -100 -48.5
t-41 -102.5z" />
    <glyph glyph-name="periodcentered.cap" horiz-adv-x="265" 
d="M55 256v157h155v-157h-155z" />
    <glyph glyph-name="bullet.cap" horiz-adv-x="431" 
d="M55 333q0 67 47.5 114.5t112.5 47.5q67 0 114 -47.5t47 -114.5q0 -66 -47 -113.5t-114 -47.5q-65 0 -112.5 47.5t-47.5 113.5z" />
    <glyph glyph-name="zero.op" horiz-adv-x="643" 
d="M25 313q0 136 85.5 229.5t210.5 93.5q126 0 211.5 -93.5t85.5 -229.5q0 -135 -85.5 -229t-211.5 -94q-125 0 -210.5 94t-85.5 229zM190 313q0 -156 28.5 -234.5t102.5 -78.5t102.5 78t28.5 235t-28.5 235t-102.5 78t-102.5 -78.5t-28.5 -234.5z" />
    <glyph glyph-name="one.op" horiz-adv-x="381" 
d="M307 0h-152v536q-52 -87 -133 -145l-6 9q108 80 181 231h110v-631z" />
    <glyph glyph-name="two.op" horiz-adv-x="529" 
d="M121 123h380v-123h-508v8l174 164q91 84 134.5 150t43.5 135q0 73 -36 116t-107 43q-72 0 -119 -47t-47 -118q0 -44 23.5 -75.5t59.5 -40.5l-3 -9q-37 9 -63 43.5t-26 81.5q0 83 60.5 134.5t164.5 51.5q102 0 170.5 -49t68.5 -137q0 -45 -22.5 -84t-70 -75.5t-96 -66
t-126.5 -72.5q-36 -20 -55 -30z" />
    <glyph glyph-name="three.op" horiz-adv-x="547" 
d="M249 -10q-102 0 -165.5 45t-63.5 116q0 45 29 74.5t71 38.5l3 -8q-40 -9 -66.5 -37t-26.5 -68q0 -62 53.5 -104t131.5 -42q80 0 121 48.5t41 127.5q0 149 -156 149h-23v10h23q135 0 135 143q0 67 -37 100.5t-100 33.5q-61 0 -109 -34t-48 -93q0 -77 78 -94l-3 -10
q-85 21 -85 104q0 66 60 106t150 40q100 0 166.5 -40.5t66.5 -112.5q0 -65 -66 -105t-149 -42v-2q56 -2 109 -18t93.5 -55t40.5 -92q0 -84 -79 -131.5t-195 -47.5z" />
    <glyph glyph-name="four.op" horiz-adv-x="618" 
d="M599 198v-11h-137v-187h-151v187h-304v7l324 431h131v-427h137zM311 198v382l-287 -382h287z" />
    <glyph glyph-name="five.op" horiz-adv-x="542" 
d="M485 626l-16 -124h-346l-22 -177q25 40 75 63t112 23q100 0 164.5 -54.5t64.5 -139.5q0 -101 -81 -164t-202 -63q-91 0 -151 42.5t-60 110.5q0 40 22.5 68t58.5 40l4 -8q-75 -28 -75 -100q0 -62 51 -99t116 -37q82 0 124.5 56t42.5 153q0 77 -34 124.5t-98 47.5
q-86 0 -137 -81h-8l40 319h355z" />
    <glyph glyph-name="six.op" horiz-adv-x="589" 
d="M568 229q0 -108 -76 -173.5t-185 -65.5q-120 0 -201 98t-81 242q0 157 92.5 268.5t240.5 111.5q91 0 141 -41.5t50 -106.5q0 -36 -16 -60t-39 -33l-5 8q50 21 50 85q0 59 -44.5 97t-113.5 38q-109 0 -157.5 -107t-42.5 -297q12 68 62.5 107t113.5 39q87 0 149 -58.5
t62 -151.5zM183 201q0 -92 32 -146.5t92 -54.5q115 0 115 202q0 200 -115 200q-55 0 -89.5 -52t-34.5 -149z" />
    <glyph glyph-name="seven.op" horiz-adv-x="530" 
d="M27 626h497v-3l-102 -170q-131 -230 -98 -527h-142q2 49 13 99t24.5 87.5t40.5 89t45 82.5t55 90t55 90l25 38h-413v124z" />
    <glyph glyph-name="eight.op" horiz-adv-x="554" 
d="M375 361q82 -31 119 -72t37 -101q0 -90 -75 -144t-181 -54q-107 0 -179 43.5t-72 120.5q0 53 40 89.5t103 53.5q-121 54 -121 157q0 82 64.5 132t160.5 50q88 0 146.5 -38.5t58.5 -104.5q0 -89 -101 -132zM145 519q0 -38 26.5 -60t78.5 -44l115 -50q101 46 101 128
q0 61 -55 97t-133 36q-59 0 -96 -29t-37 -78zM301 236l-122 56q-145 -39 -145 -138q0 -73 68.5 -113t163.5 -40q80 0 121 32t41 85q0 41 -30 65t-97 53z" />
    <glyph glyph-name="nine.op" horiz-adv-x="589" 
d="M406 425q0 92 -32.5 146.5t-91.5 54.5q-115 0 -115 -202q0 -201 115 -201q55 0 89.5 52.5t34.5 149.5zM20 397q0 108 76.5 173.5t185.5 65.5q121 0 201.5 -99.5t80.5 -248.5q0 -156 -88.5 -264t-239.5 -108q-90 0 -141 42t-51 107q0 36 16.5 60t38.5 33l5 -8
q-50 -21 -50 -85q0 -59 45 -98t115 -39q57 0 97 29t61.5 84.5t29.5 126.5t6 165q-12 -68 -62.5 -107t-113.5 -39q-87 0 -149.5 58.5t-62.5 151.5z" />
    <glyph glyph-name="percent.op" horiz-adv-x="691" 
d="M164 0h-11l357 604q-19 -22 -54 -36.5t-75 -14.5q-49 0 -86 24q33 -42 33 -96q0 -63 -42.5 -109t-101.5 -46t-102 46t-43 109t43 109t102 46q32 0 57 -11.5t38.5 -25t40 -25t61.5 -11.5q96 0 152 77l6 -4zM247 481q0 145 -63 145t-63 -145t63 -145t63 145zM363 150
q0 63 42.5 109t101.5 46t102 -46t43 -109q0 -64 -43 -110t-102 -46t-101.5 46t-42.5 110zM571 150q0 145 -64 145q-63 0 -63 -145q0 -146 63 -146q64 0 64 146z" />
    <glyph glyph-name="perthousand.op" horiz-adv-x="1013" 
d="M164 0h-11l357 604q-19 -22 -54 -36.5t-75 -14.5q-49 0 -86 24q33 -42 33 -96q0 -63 -42.5 -109t-101.5 -46t-102 46t-43 109t43 109t102 46q32 0 57 -11.5t38.5 -25t40 -25t61.5 -11.5q96 0 152 77l6 -4zM247 481q0 145 -63 145t-63 -145t63 -145t63 145zM685 150
q0 63 42.5 109t101.5 46t102 -46t43 -109q0 -64 -43 -110t-102 -46t-101.5 46t-42.5 110zM363 150q0 63 42.5 109t101.5 46t102 -46t43 -109q0 -64 -43 -110t-102 -46t-101.5 46t-42.5 110zM892 150q0 145 -63 145t-63 -145q0 -146 63 -146t63 146zM571 150q0 145 -64 145
q-63 0 -63 -145q0 -146 63 -146q64 0 64 146z" />
    <glyph glyph-name="dollar.op" horiz-adv-x="569" 
d="M242 411l80 -22v233q-22 3 -45 3q-19 0 -35 -3v-211zM128 513q0 -41 25.5 -62.5t78.5 -36.5v207q-48 -10 -76 -38.5t-28 -69.5zM276 1q27 0 46 4v235l-80 20v-257q22 -2 34 -2zM444 124q0 45 -28.5 71t-83.5 42v-231q53 11 82.5 42.5t29.5 75.5zM280 -10q-14 0 -38 2v-98
h-10v99q-83 10 -139 52t-69 106l11 3q11 -60 65 -100.5t132 -49.5v259l-16 4q-87 23 -133.5 65.5t-46.5 113.5q0 73 54.5 124.5t141.5 62.5v114h10v-112q5 0 15.5 0.5t16.5 0.5q26 0 48 -3v114h10v-116q69 -12 115 -49t59 -91l-10 -4q-13 52 -57 87t-107 46v-233l33 -9
q85 -23 130.5 -66t45.5 -118q0 -82 -59 -134.5t-150 -65.5v-100h-10v98q-28 -2 -42 -2z" />
    <glyph glyph-name="sterling.op" horiz-adv-x="659" 
d="M483 -10q-18 0 -34.5 2.5t-34 10t-29 12t-30.5 17.5t-25.5 17.5t-28 21t-25.5 19.5q-61 -100 -165 -100q-41 0 -66.5 24.5t-25.5 60.5q0 38 29 64t74 26q35 0 88 -15q1 10 1 33q0 42 -26 137h-88v10h85q-16 57 -16 101q0 89 63.5 147.5t166.5 58.5q88 0 133 -35.5
t45 -90.5q0 -40 -19.5 -66t-50.5 -37l-4 9q64 21 64 94q0 45 -32 75.5t-88 30.5t-86 -43.5t-30 -128.5v-115h128v-10h-128q-1 -116 -34 -195q112 -32 187 -32q64 0 96 15.5t32 56.5q0 50 -59 77l4 7q33 -13 53 -43.5t20 -69.5q0 -62 -38.5 -104t-105.5 -42zM103 2
q91 0 105 131q-44 22 -86 22q-41 0 -67 -22.5t-26 -57.5q0 -31 20.5 -52t53.5 -21z" />
    <glyph glyph-name="yen.op" horiz-adv-x="626" 
d="M568 208h-179v-208h-152v208h-179v10h179v53l-27 46h-152v10h146l-177 299h170l189 -334l201 334h11l-179 -299h149v-10h-155l-24 -41v-58h179v-10z" />
    <glyph glyph-name="Euro.op" horiz-adv-x="645" 
d="M385 -10q-118 0 -200.5 76t-96.5 201h-66v10h65q-2 24 -2 36q0 33 4 57h-67v10h69q19 116 100.5 186t193.5 70q88 0 145.5 -47.5t75.5 -127.5l-10 -2q-16 71 -63.5 114t-106.5 43q-74 0 -118.5 -61t-54.5 -175h204l-3 -10h-202q-2 -36 -2 -57q0 -24 1 -36h175l-3 -10
h-172q7 -125 52.5 -191t122.5 -66q59 0 106.5 43t63.5 114l10 -2q-18 -80 -75.5 -127.5t-145.5 -47.5z" />
    <glyph glyph-name="uni0192.op" horiz-adv-x="568" 
d="M48 -193q-58 0 -93.5 28.5t-35.5 72.5q0 52 44 78l6 -7q-40 -25 -40 -71q0 -34 24 -57t62 -23q54 0 83 47t43 160l33 270h-93l2 11h93l8 69q16 122 76.5 186.5t157.5 64.5q61 0 93.5 -28.5t32.5 -73.5q0 -51 -44 -77l-6 7q40 25 40 70q0 35 -23 58t-60 23q-52 0 -79 -46
t-42 -162l-11 -91h126l-2 -11h-125l-26 -211q-18 -143 -80.5 -215t-163.5 -72z" />
    </font>
</defs>
</svg>
