<?xml version="1.0" standalone="no"?>
<!DOCTYPE svg PUBLIC "-//W3C//DTD SVG 1.1//EN" "http://www.w3.org/Graphics/SVG/1.1/DTD/svg11.dtd" >
<svg xmlns="http://www.w3.org/2000/svg" xmlns:xlink="http://www.w3.org/1999/xlink" version="1.1">
<metadata>
Created by FontForge 20170731 at Thu Oct 16 16:01:14 2014
 By Aleksey,,,
(c) 2014 Klim Type Foundry. All Rights Reserved. wf-rip
</metadata>
<defs>
<font id="DomaineSansDisplay-Italic" horiz-adv-x="500" >
  <font-face 
    font-family="Domaine Sans Display"
    font-weight="400"
    font-style="italic"
    font-stretch="normal"
    units-per-em="1000"
    panose-1="2 11 5 3 8 7 2 11 2 4"
    ascent="800"
    descent="-200"
    x-height="486"
    cap-height="700"
    bbox="-197 -484.735 1400 970"
    underline-thickness="10"
    underline-position="-124"
    slope="-14"
    unicode-range="U+000D-FB02"
  />
<missing-glyph horiz-adv-x="1203" 
d="M708 232l-32 19l-17 29l6 59l24 34l74 55l19 -4l48 -58l21 -65l-38 -41zM659 63l-24 3l-4 9l5 44l-2 37l-11 3l-5 -48l-30 -40l-20 -8l-43 7l-13 19v16l42 74l34 36l16 33v7l16 11l8 -9l1 -18l18 -31l15 -3l14 -31l8 -5l20 -41l-9 -50l-15 -3zM515 405l60 -60l-3 -39
l-8 -12l-17 4l-4 -19l5 -14l-8 -11l-31 -26l-34 1l-27 -12l-46 21l-19 19l-9 29l8 37l-1 6l4 37l20 22l26 43l8 3zM574 -81l-38 -19l-38 15l-2 14l12 28l-6 8l-16 2l-29 -23l-43 21v36l-35 32l-60 105l-33 86l-22 98l5 168l9 67l31 67l51 66l98 59l49 15l5 4l106 6l72 -3
l5 -6l-1 -20l-56 -78l-10 -22l-13 -71l14 -11v-7l-7 -7l-24 -13l-59 19l-32 37l1 9l-8 4l-45 -27l-62 -20l-61 -90l-14 -136l18 -72l43 -91l36 -85l57 -56l36 -17l24 4l102 -17l97 32l45 38l24 27l63 105l68 97l-19 56l10 84l-23 69l7 20l-86 48l-76 21l-83 -16l-3 4l11 81
l14 10l28 91l48 3l99 -30l76 -43l59 -91l8 -27l8 -45l-9 -46l-20 -61l3 -51l32 -40l1 -37l-94 -133l-33 -103l-9 -7l-24 -62l7 -10l-35 -24l-9 3l-30 24l-1 30l-5 2l-19 -23v-11l20 -26l-35 -35l-16 -3l-22 21l6 16l-17 17l-24 -4l-21 -65l-35 -3l-15 23l3 30l-33 -4z" />
    <glyph glyph-name="fi" unicode="fi" horiz-adv-x="567" 
d="M50 -215h-86l173 691h-73l3 10h72l14 51q29 98 95 160t162 62q57 0 90.5 -27.5t33.5 -71.5q0 -58 -49 -96l-6 6q46 36 46 90q0 38 -27.5 62t-74.5 24q-73 0 -116.5 -54t-68.5 -160l-11 -46h294l-103 -413q-3 -13 -3 -25q0 -38 34 -38q48 0 77 64l7 -3q-37 -81 -116 -81
q-40 0 -62 21.5t-22 58.5q0 17 4 32l94 374h-206z" />
    <glyph glyph-name="fl" unicode="fl" horiz-adv-x="570" 
d="M225 476l-175 -691h-86l173 691h-73l3 10h72l15 58q24 95 83.5 155t142.5 60q42 0 71.5 -21t35.5 -49l24 60h78l-168 -676q-4 -12 -4 -25q0 -38 35 -38q48 0 77 64l7 -3q-37 -81 -117 -81q-40 0 -61.5 21.5t-21.5 58.5q0 17 4 32l140 561q-1 36 -24 58.5t-61 22.5
q-104 0 -145 -167l-23 -91h124l-6 -10h-120z" />
    <glyph glyph-name="f_b" unicode="fb" horiz-adv-x="870" 
d="M481 663q-1 36 -24 58.5t-62 22.5q-104 0 -145 -167l-23 -91h124l-6 -10h-120l-175 -691h-86l173 691h-73l3 10h72l15 58q24 95 83.5 155t142.5 60q42 0 72 -21t36 -49l24 60h78l-97 -389q29 59 80.5 97.5t114.5 38.5q72 0 114.5 -47.5t42.5 -125.5q0 -130 -80.5 -231.5
t-192.5 -101.5q-62 0 -98 41t-37 102l-43 -133h-78zM480 312l-26 -105q-9 -43 -9 -68q1 -57 30 -91.5t78 -34.5q60 0 108.5 53t72.5 129t24 154q0 126 -95 126q-58 0 -109 -47t-74 -116z" />
    <glyph glyph-name="f_f_b" unicode="ffb" horiz-adv-x="1165" 
d="M228 486h207l15 58q19 76 60 129q-10 27 -36.5 44.5t-63.5 17.5q-69 0 -106 -47t-61 -140zM226 476l-175 -691h-86l172 691h-73l3 10h71l13 49q25 94 88.5 154t155.5 60q45 0 77 -19t45 -48q66 77 159 77q42 0 71.5 -21t35.5 -49l25 60h78l-98 -389q30 59 81.5 97.5
t113.5 38.5q72 0 115 -47.5t43 -125.5q0 -130 -80.5 -231.5t-193.5 -101.5q-61 0 -97 41t-38 102l-43 -133h-78l166 663q-1 36 -24 58.5t-62 22.5q-103 0 -146 -167l-23 -91h124l-5 -10h-121l-169 -670h-86l167 670h-206zM776 312l-26 -105q-9 -36 -9 -68q1 -58 29.5 -92
t77.5 -34q61 0 109 53t72 129t24 154q0 126 -94 126q-58 0 -109 -47t-74 -116z" />
    <glyph glyph-name="f_f_h" unicode="ffh" horiz-adv-x="1173" 
d="M228 486h207l15 58q19 76 60 129q-10 27 -36.5 44.5t-63.5 17.5q-69 0 -106 -47t-61 -140zM226 476l-175 -691h-86l172 691h-73l3 10h71l13 49q25 94 88.5 154t155.5 60q45 0 77 -19t45 -48q66 77 159 77q42 0 71.5 -21t35.5 -49l25 60h78l-97 -387q32 61 86.5 97.5
t113.5 36.5q54 0 86.5 -32t32.5 -86q0 -18 -7 -50l-63 -255q-4 -18 -4 -25q0 -38 35 -38q48 0 77 64l7 -3q-37 -81 -116 -81q-40 0 -62 21.5t-22 58.5q0 17 4 32l62 247q8 34 8 59q0 69 -67 69q-56 0 -110 -50t-75 -123l-76 -304h-88l166 663q-2 37 -25 59t-61 22
q-103 0 -146 -167l-23 -91h124l-5 -10h-121l-169 -670h-86l167 670h-206z" />
    <glyph glyph-name="f_f_idieresis" unicode="ff&#xef;" horiz-adv-x="862" 
d="M228 486h207l16 70q17 72 56 122q-25 57 -97 57q-69 0 -106 -47t-61 -140zM829 597l27 110h75l-27 -110h-75zM226 476l-175 -691h-86l172 691h-73l3 10h71l13 49q25 94 88.5 154t155.5 60q43 0 74.5 -17t44.5 -45q62 72 155 72q52 0 78.5 -23.5t27.5 -63.5
q-1 -41 -33 -68l-7 7q28 24 30 61q-1 33 -22 52.5t-60 19.5q-55 0 -88 -42t-53 -130l-20 -86h294l-102 -413q-4 -12 -4 -25q0 -38 35 -38q48 0 77 64l7 -3q-37 -81 -117 -81q-40 0 -61.5 21.5t-21.5 58.5q0 17 4 32l93 374h-206l-169 -670h-86l167 670h-206z" />
    <glyph glyph-name="f_f_j" unicode="ffj" horiz-adv-x="835" 
d="M228 486h207l14 51q22 75 63 126q-7 31 -34 51.5t-68 20.5q-69 0 -106 -47t-61 -140zM226 476l-175 -691h-86l172 691h-73l3 10h71l13 49q25 94 88.5 154t155.5 60q49 0 82 -22t43 -54q74 86 185 86q58 0 91 -27.5t33 -71.5q0 -60 -49 -96l-5 6q45 37 45 90
q0 38 -27.5 62t-74.5 24q-72 0 -115.5 -53.5t-69.5 -160.5l-11 -46h297l-123 -493q-22 -88 -75 -139t-132 -51q-89 0 -123 63l-15 -60h-86l167 670h-206zM472 -182q94 0 131 154l126 504h-209l-150 -595q25 -63 102 -63z" />
    <glyph glyph-name="f_f_k" unicode="ffk" horiz-adv-x="1129" 
d="M228 486h207l15 58q19 76 60 129q-10 27 -36.5 44.5t-63.5 17.5q-69 0 -106 -47t-61 -140zM226 476l-175 -691h-86l172 691h-73l3 10h71l13 49q25 94 88.5 154t155.5 60q45 0 77 -19t45 -48q66 77 159 77q42 0 71.5 -21t35.5 -49l25 60h78l-140 -559l388 296h17
l-263 -201l88 -211q22 -55 56 -55q40 0 62 66l8 -2q-30 -93 -112 -93q-69 0 -97 75l-71 169l-80 -62l-43 -172h-88l166 663q-2 37 -25 59t-61 22q-103 0 -146 -167l-23 -91h124l-5 -10h-121l-169 -670h-86l167 670h-206z" />
    <glyph glyph-name="f_h" unicode="fh" horiz-adv-x="877" 
d="M481 663q-1 36 -24 58.5t-62 22.5q-104 0 -145 -167l-23 -91h124l-6 -10h-120l-175 -691h-86l173 691h-73l3 10h72l15 58q24 95 83.5 155t142.5 60q42 0 72 -21t36 -49l24 60h78l-96 -387q32 61 86 97.5t113 36.5q54 0 86.5 -32t32.5 -86q0 -23 -6 -50l-64 -255
q-3 -14 -3 -25q0 -38 35 -38q47 0 77 64l7 -3q-37 -81 -117 -81q-40 0 -61.5 21.5t-21.5 58.5q0 17 4 32l61 247q9 38 9 59q0 69 -67 69q-56 0 -110.5 -50t-75.5 -123l-76 -304h-88z" />
    <glyph glyph-name="f_idieresis" unicode="f&#xef;" horiz-adv-x="567" 
d="M533 597l27 110h75l-27 -110h-75zM139 486l17 70q22 91 79 147t138 56q52 0 78.5 -23.5t27.5 -63.5q-1 -43 -33 -68l-6 7q27 25 29 61q-1 33 -21.5 52.5t-59.5 19.5q-55 0 -88.5 -42t-52.5 -130l-20 -86h294l-103 -413q-3 -13 -3 -25q0 -38 34 -38q48 0 77 64l7 -3
q-37 -81 -116 -81q-40 0 -62 21.5t-22 58.5q0 17 4 32l94 374h-206l-175 -691h-86l173 691h-73l3 10h72z" />
    <glyph glyph-name="f_j" unicode="fj" horiz-adv-x="539" 
d="M394 -35q-23 -88 -76 -139t-132 -51q-87 0 -123 63l-13 -53h-86l173 691h-73l3 10h72l14 51q29 98 95 160t162 62q57 0 90.5 -27.5t33.5 -71.5q0 -58 -49 -96l-6 6q46 36 46 90q0 38 -27.5 62t-74.5 24q-73 0 -116.5 -54t-68.5 -160l-11 -46h296zM169 -210q94 0 131 154
l133 532h-208l-158 -622q26 -64 102 -64z" />
    <glyph glyph-name="f_k" unicode="fk" horiz-adv-x="834" 
d="M225 476l-175 -691h-86l173 691h-73l3 10h72l15 58q24 95 83.5 155t142.5 60q42 0 72 -21t36 -49l24 60h78l-140 -560l389 297h17l-263 -201l88 -211q22 -55 55 -55q42 0 62 66l8 -2q-30 -93 -111 -93q-70 0 -98 75l-70 169l-81 -62l-43 -172h-88l166 663q-1 36 -24 58.5
t-62 22.5q-104 0 -145 -167l-23 -91h124l-6 -10h-120z" />
    <glyph glyph-name="f_f" unicode="ff" horiz-adv-x="588" 
d="M228 486h207l17 70q18 70 56 120q-25 59 -98 59q-69 0 -106 -47t-61 -140zM226 476l-175 -691h-86l172 691h-73l3 10h71l13 49q25 94 88.5 154t155.5 60q44 0 75.5 -18t44.5 -46q63 74 155 74q52 0 78.5 -23.5t26.5 -63.5q0 -42 -32 -68l-7 7q29 23 29 61q0 33 -21 52.5
t-60 19.5q-55 0 -88 -42t-53 -130l-20 -86h133l-5 -10h-130l-170 -670h-86l167 670h-206z" />
    <glyph glyph-name="f_f_i" unicode="ffi" horiz-adv-x="862" 
d="M228 486h207l14 51q22 75 63 126q-7 31 -34 51.5t-68 20.5q-69 0 -106 -47t-61 -140zM226 476l-175 -691h-86l172 691h-73l3 10h71l13 49q25 94 88.5 154t155.5 60q49 0 82 -22t43 -54q74 86 185 86q58 0 91 -27.5t33 -71.5q0 -60 -49 -96l-5 6q45 37 45 90
q0 38 -27.5 62t-74.5 24q-72 0 -115.5 -53.5t-69.5 -160.5l-11 -46h294l-102 -413q-4 -12 -4 -25q0 -38 35 -38q48 0 77 64l7 -3q-37 -81 -117 -81q-40 0 -61.5 21.5t-21.5 58.5q0 17 4 32l93 374h-206l-169 -670h-86l167 670h-206z" />
    <glyph glyph-name="f_f_l" unicode="ffl" horiz-adv-x="866" 
d="M228 486h207l15 58q19 76 60 129q-10 27 -36.5 44.5t-63.5 17.5q-69 0 -106 -47t-61 -140zM226 476l-175 -691h-86l172 691h-73l3 10h71l13 49q25 94 88.5 154t155.5 60q45 0 77 -19t45 -48q66 77 159 77q42 0 71 -21t35 -49l24 60h79l-169 -676q-3 -14 -3 -25
q0 -38 34 -38q48 0 77 64l7 -3q-37 -81 -116 -81q-40 0 -62 21.5t-22 58.5q0 17 4 32l140 561q-1 36 -23.5 58.5t-60.5 22.5q-103 0 -146 -167l-23 -91h124l-5 -10h-121l-169 -670h-86l167 670h-206z" />
    <glyph glyph-name=".notdef" horiz-adv-x="1203" 
d="M708 232l-32 19l-17 29l6 59l24 34l74 55l19 -4l48 -58l21 -65l-38 -41zM659 63l-24 3l-4 9l5 44l-2 37l-11 3l-5 -48l-30 -40l-20 -8l-43 7l-13 19v16l42 74l34 36l16 33v7l16 11l8 -9l1 -18l18 -31l15 -3l14 -31l8 -5l20 -41l-9 -50l-15 -3zM515 405l60 -60l-3 -39
l-8 -12l-17 4l-4 -19l5 -14l-8 -11l-31 -26l-34 1l-27 -12l-46 21l-19 19l-9 29l8 37l-1 6l4 37l20 22l26 43l8 3zM574 -81l-38 -19l-38 15l-2 14l12 28l-6 8l-16 2l-29 -23l-43 21v36l-35 32l-60 105l-33 86l-22 98l5 168l9 67l31 67l51 66l98 59l49 15l5 4l106 6l72 -3
l5 -6l-1 -20l-56 -78l-10 -22l-13 -71l14 -11v-7l-7 -7l-24 -13l-59 19l-32 37l1 9l-8 4l-45 -27l-62 -20l-61 -90l-14 -136l18 -72l43 -91l36 -85l57 -56l36 -17l24 4l102 -17l97 32l45 38l24 27l63 105l68 97l-19 56l10 84l-23 69l7 20l-86 48l-76 21l-83 -16l-3 4l11 81
l14 10l28 91l48 3l99 -30l76 -43l59 -91l8 -27l8 -45l-9 -46l-20 -61l3 -51l32 -40l1 -37l-94 -133l-33 -103l-9 -7l-24 -62l7 -10l-35 -24l-9 3l-30 24l-1 30l-5 2l-19 -23v-11l20 -26l-35 -35l-16 -3l-22 21l6 16l-17 17l-24 -4l-21 -65l-35 -3l-15 23l3 30l-33 -4z" />
    <glyph glyph-name=".null" 
 />
    <glyph glyph-name="uni000D" unicode="&#xd;" 
 />
    <glyph glyph-name="space" unicode=" " horiz-adv-x="227" 
 />
    <glyph glyph-name="exclam" unicode="!" horiz-adv-x="227" 
d="M107 208h-4l66 492h117zM0 0l27 110h105l-28 -110h-104z" />
    <glyph glyph-name="quotedbl" unicode="&#x22;" horiz-adv-x="344" 
d="M286 431h-4l36 269h74zM148 431h-4l37 269h73z" />
    <glyph glyph-name="numbersign" unicode="#" horiz-adv-x="660" 
d="M403 264l77 197h-172l-77 -197h172zM299 0l100 254h-172l-100 -254h-11l100 254h-164l3 10h165l77 197h-158l2 10h160l90 229h11l-90 -229h172l90 229h11l-90 -229h171l-2 -10h-173l-77 -197h166l-3 -10h-167l-100 -254h-11z" />
    <glyph glyph-name="dollar" unicode="$" horiz-adv-x="549" 
d="M170 553q0 -47 25 -73.5t73 -46.5l67 267q-75 -3 -120 -44t-45 -103zM282 427l68 -28l72 291q-31 10 -76 10h-1l-68 -271zM250 0l77 308l-73 29l-81 -326q39 -11 77 -11zM449 178q0 83 -113 127l-76 -305q87 2 138 49.5t51 128.5zM224 -106l24 96q-39 0 -77 11l-27 -107
h-10l27 110q-63 20 -105.5 65t-56.5 105l9 6q14 -60 55 -103t101 -63l81 327l-5 2q-61 25 -96 61t-35 94q0 90 63.5 149.5t164.5 62.5l23 92h10l-23 -92q38 0 78 -10l25 102h10l-26 -105q112 -36 135 -150l-10 -4q-10 52 -42.5 90t-84.5 55l-73 -293l18 -8q137 -57 137 -166
q0 -102 -74 -166.5t-182 -64.5l-24 -96h-10z" />
    <glyph glyph-name="percent" unicode="%" horiz-adv-x="658" 
d="M85 0h-12l528 678q-24 -23 -63 -37t-79 -14q-47 0 -76 21q12 -30 12 -57q0 -67 -52 -122t-115 -55q-44 0 -75 33.5t-31 85.5q0 67 52 122t115 55q31 0 53.5 -18t49.5 -36.5t67 -18.5q97 0 172 77l6 -4zM228 424q33 0 60.5 36.5t41 83t13.5 85.5q0 33 -14 52t-40 19
q-33 0 -60.5 -36.5t-41 -83t-13.5 -85.5q0 -33 14 -52t40 -19zM423 -3q-44 0 -75 33.5t-31 85.5q0 67 52 122t115 55q44 0 75 -33.5t31 -85.5q0 -67 -52 -122t-115 -55zM423 7q33 0 60.5 36.5t41 83t13.5 85.5q0 33 -14 52t-40 19q-33 0 -60.5 -36.5t-41 -83t-13.5 -85.5
q0 -33 14 -52t40 -19z" />
    <glyph glyph-name="ampersand" unicode="&#x26;" horiz-adv-x="815" 
d="M608 -10q-119 0 -205 93q-96 -93 -189 -93q-89 0 -145.5 50t-56.5 130q0 169 259 247q-2 13 -2 37q0 107 58 181.5t143 74.5q55 0 85 -29t30 -78q0 -39 -22.5 -70.5t-60.5 -52.5t-74 -33.5t-76 -21.5q22 -155 104 -271q8 9 43 49t48.5 54.5t46 47t54 48.5t53 35t62.5 29
l4 -9q-31 -10 -62 -28.5t-53.5 -35.5t-52.5 -47t-46 -48t-47.5 -54t-43.5 -50q88 -121 189 -121q49 0 85 34.5t43 96.5h10q-7 -71 -59 -118t-122 -47zM346 508q0 -33 5 -73q38 8 72.5 20t71 31.5t58.5 49.5t22 66q0 45 -24 70t-70 25q-59 0 -97 -53t-38 -136zM250 16
q66 0 146 75q-53 62 -85 147.5t-40 168.5q-173 -53 -173 -218q0 -78 41 -125.5t111 -47.5z" />
    <glyph glyph-name="quotesingle" unicode="'" horiz-adv-x="206" 
d="M148 431h-4l37 269h73z" />
    <glyph glyph-name="parenleft" unicode="(" horiz-adv-x="333" 
d="M425 743q-72 -48 -113.5 -94t-78.5 -129t-73 -223q-43 -166 -43 -252q0 -65 20.5 -107.5t64.5 -86.5l-6 -6q-67 52 -105 132.5t-38 178.5q0 169 102 335t266 258z" />
    <glyph glyph-name="parenright" unicode=")" horiz-adv-x="333" 
d="M-66 -149q72 48 114 94t78.5 129t72.5 223q43 166 43 252q0 65 -20.5 107.5t-64.5 86.5l6 6q67 -52 105 -132.5t38 -178.5q0 -170 -101.5 -335.5t-266.5 -257.5z" />
    <glyph glyph-name="asterisk" unicode="*" horiz-adv-x="420" 
d="M257 414l-9 2l38 156l-154 -44l-2 10l154 44l-116 110l7 8l115 -111l39 155l10 -2l-39 -155l154 44l3 -10l-154 -43l115 -112l-7 -7l-115 111z" />
    <glyph glyph-name="plus" unicode="+" horiz-adv-x="463" 
d="M437 315h-184l-45 -182h-10l45 182h-181l2 10h182l45 182h10l-45 -182h183z" />
    <glyph glyph-name="comma" unicode="," horiz-adv-x="222" 
d="M-2 0l27 110h104l-30 -119q-33 -141 -173 -141l2 10q128 0 160 131l2 9h-92z" />
    <glyph glyph-name="hyphen" unicode="-" horiz-adv-x="334" 
d="M49 271l3 13h249l-3 -13h-249z" />
    <glyph glyph-name="period" unicode="." horiz-adv-x="222" 
d="M-2 0l27 110h104l-27 -110h-104z" />
    <glyph glyph-name="slash" unicode="/" horiz-adv-x="351" 
d="M-79 -153l525 902h12l-525 -902h-12z" />
    <glyph glyph-name="zero" unicode="0" horiz-adv-x="615" 
d="M421 710q91 0 146 -73t55 -183q0 -111 -52.5 -218.5t-140.5 -176.5t-183 -69q-91 0 -145.5 73t-54.5 183q0 111 52.5 218.5t140 176.5t182.5 69zM423 700q-177 0 -262 -345q-31 -129 -31 -199q0 -156 115 -156q177 0 262 345q31 129 31 199q0 156 -115 156z" />
    <glyph glyph-name="one" unicode="1" horiz-adv-x="348" 
d="M203 0h-93l154 616q-28 -33 -77.5 -74.5t-106.5 -69.5l-2 8q136 71 251 228h50z" />
    <glyph glyph-name="two" unicode="2" horiz-adv-x="516" 
d="M45 77h402l-19 -77h-483l2 7l257 204q131 103 192 189t61 177q0 118 -123 118q-94 0 -161 -62.5t-67 -146.5q0 -59 42 -79l-6 -7q-46 20 -46 86q0 91 75.5 157.5t181.5 66.5q89 0 142 -40.5t53 -109.5q0 -35 -10.5 -67t-39 -67t-56.5 -63t-87 -71.5t-104.5 -75
t-131.5 -89.5q-49 -33 -74 -50z" />
    <glyph glyph-name="three" unicode="3" horiz-adv-x="542" 
d="M215 -10q-90 0 -149 44t-59 109q0 57 34 95.5t84 55.5l3 -10q-47 -14 -79 -51t-32 -90q0 -59 51.5 -99.5t131.5 -40.5q101 0 159 70t58 170q0 130 -158 130h-20l2 9h22q106 0 161 57.5t55 143.5q0 113 -126 113q-81 0 -140 -47.5t-59 -115.5q0 -53 48 -73l-6 -8
q-52 23 -52 81q0 74 66 125.5t161 51.5q84 0 139.5 -38.5t55.5 -101.5q0 -83 -81.5 -137t-168.5 -55v-2q77 -6 133.5 -47.5t56.5 -111.5q0 -99 -84.5 -163t-206.5 -64z" />
    <glyph glyph-name="four" unicode="4" horiz-adv-x="595" 
d="M577 223l-3 -11h-155l-53 -212h-92l52 212h-325l2 7l458 481h80l-119 -477h155zM329 223l110 439l-417 -439h307z" />
    <glyph glyph-name="five" unicode="5" horiz-adv-x="533" 
d="M586 700l-31 -81h-338l-98 -264q74 97 195 97q87 0 139.5 -50t52.5 -131q0 -122 -90 -201.5t-222 -79.5q-79 0 -134.5 41t-55.5 108q0 49 26.5 83.5t67.5 51.5l4 -8q-88 -40 -88 -127q0 -63 50.5 -99.5t115.5 -36.5q108 0 171 75.5t63 197.5q0 75 -31 117.5t-93 42.5
q-103 0 -181 -103h-8l136 367h349z" />
    <glyph glyph-name="six" unicode="6" horiz-adv-x="563" 
d="M535 267q0 -109 -87 -193t-202 -84q-92 0 -148 67t-56 174q0 109 53.5 219t150 185t205.5 75q71 0 110 -34t39 -89q0 -45 -26 -79.5t-61 -44.5l-2 8q34 12 56.5 43t22.5 73q0 49 -34.5 80t-95.5 31q-80 0 -146.5 -59t-108.5 -150.5t-65 -208.5q29 69 90 110.5t128 41.5
q79 0 128 -45t49 -120zM336 413q-56 0 -108 -37.5t-80 -99.5q-32 -70 -32 -140q0 -60 33.5 -98t92.5 -38q62 0 110.5 46.5t72 109.5t23.5 125q0 132 -112 132z" />
    <glyph glyph-name="seven" unicode="7" horiz-adv-x="486" 
d="M135 700h461l-1 -4l-88 -105q-130 -161 -204.5 -292.5t-119.5 -298.5h-90q14 39 34 79.5t35 70.5t48 77.5t46.5 68t58 76t55 68.5t65 79t62.5 75l21 25h-404z" />
    <glyph glyph-name="eight" unicode="8" horiz-adv-x="545" 
d="M545 566q0 -73 -50 -121t-116 -68q65 -34 97 -72t32 -87q0 -93 -81 -160.5t-193 -67.5q-87 0 -154 45.5t-67 125.5t58.5 132t148.5 72q-92 56 -92 142q0 85 70 144t171 59q74 0 125 -39.5t51 -104.5zM372 700q-75 0 -124 -43t-49 -113q0 -71 87 -118l83 -43q72 23 119 69
t47 114q0 62 -48 98t-115 36zM330 306l-101 53q-89 -19 -147.5 -69.5t-58.5 -128.5q0 -75 64 -118t144 -43q87 0 145.5 47.5t58.5 121.5q0 44 -25 75.5t-80 61.5z" />
    <glyph glyph-name="nine" unicode="9" horiz-adv-x="562" 
d="M279 287q56 0 108 37.5t80 99.5q32 70 32 140q0 60 -33.5 98t-92.5 38q-61 0 -110 -46.5t-72.5 -109.5t-23.5 -125q0 -132 112 -132zM81 433q0 109 86.5 193t201.5 84q92 0 148 -67t56 -174q0 -109 -53.5 -219t-149.5 -185t-205 -75q-72 0 -111 34t-39 89q0 45 26 79.5
t61 44.5l2 -8q-33 -12 -56 -43t-23 -73q0 -49 34.5 -80t96.5 -31q80 0 146.5 59t108.5 150.5t64 208.5q-29 -69 -90 -110.5t-128 -41.5q-79 0 -127.5 45t-48.5 120z" />
    <glyph glyph-name="colon" unicode=":" horiz-adv-x="222" 
d="M77 317l27 110h105l-27 -110h-105zM-2 0l27 110h104l-27 -110h-104z" />
    <glyph glyph-name="semicolon" unicode=";" horiz-adv-x="222" 
d="M77 317l27 110h105l-28 -110h-104zM-2 0l27 110h104l-30 -119q-33 -141 -173 -141l2 10q128 0 160 131l2 9h-92z" />
    <glyph glyph-name="less" unicode="&#x3c;" horiz-adv-x="372" 
d="M59 305l3 10l325 165l-3 -12l-314 -159l234 -159l-2 -10z" />
    <glyph glyph-name="equal" unicode="=" horiz-adv-x="479" 
d="M78 380l2 10h391l-2 -10h-391zM42 237l3 10h391l-3 -10h-391z" />
    <glyph glyph-name="greater" unicode="&#x3e;" horiz-adv-x="372" 
d="M346 315l-3 -10l-325 -165l3 12l314 159l-234 159l2 10z" />
    <glyph glyph-name="question" unicode="?" horiz-adv-x="513" 
d="M264 372q86 5 150 60.5t64 141.5q0 59 -34.5 91.5t-100.5 32.5q-100 0 -166 -61.5t-66 -142.5q0 -60 44 -81l-6 -7q-21 9 -34.5 32.5t-13.5 55.5q0 85 71.5 150.5t177.5 65.5q91 0 145.5 -45.5t54.5 -116.5q0 -75 -47.5 -133t-112.5 -86.5t-134 -32.5l-22 -89h-10zM127 0
l28 110h104l-27 -110h-105z" />
    <glyph glyph-name="at" unicode="@" horiz-adv-x="939" 
d="M612 89q0 -29 18.5 -46.5t46.5 -17.5q69 0 140 86t71 218q0 142 -98.5 228t-251.5 86q-124 0 -235 -62.5t-180.5 -175.5t-69.5 -249q0 -159 106 -256t278 -97q167 0 294 88l6 -8q-129 -90 -301 -90q-176 0 -284.5 100t-108.5 263q0 138 70.5 253.5t184 179.5t240.5 64
q156 0 258 -89t102 -235q0 -140 -77 -229t-162 -89q-50 0 -83.5 29.5t-35.5 84.5q-25 -47 -68 -79t-94 -32q-58 0 -91.5 39.5t-33.5 105.5q0 109 71.5 194.5t166.5 85.5q50 0 79 -32.5t28 -82.5l38 107h70l-87 -302q-7 -21 -7 -40zM553 170l26 87q10 42 10 60q0 46 -21.5 73
t-60.5 27q-73 0 -125.5 -90t-52.5 -192q0 -99 71 -99q47 0 89.5 38.5t63.5 95.5z" />
    <glyph glyph-name="A" unicode="A" horiz-adv-x="670" 
d="M451 248l-70 350l-243 -350h313zM500 0l-47 237h-322l-165 -237h-13l492 710h4l146 -710h-95z" />
    <glyph glyph-name="B" unicode="B" horiz-adv-x="665" 
d="M301 0h-275l175 700h248q101 0 160 -36t59 -106q0 -86 -72 -139t-169 -58v-2q77 -2 132 -40t55 -104q0 -68 -44.5 -118t-114.5 -73.5t-154 -23.5zM293 689l-81 -324h134q99 0 165 52.5t66 159.5q0 112 -151 112h-133zM345 354h-135l-86 -343h158q111 0 175 56.5t64 161.5
q0 66 -44.5 95.5t-131.5 29.5z" />
    <glyph glyph-name="C" unicode="C" horiz-adv-x="678" 
d="M472 710q100 0 160.5 -53.5t61.5 -142.5l-11 -2q1 83 -54 133.5t-142 50.5q-94 0 -171.5 -65.5t-120 -170t-42.5 -221.5q0 -119 57 -176.5t146 -57.5q83 0 153 43t113 125l10 -4q-46 -88 -123 -133.5t-169 -45.5q-119 0 -201.5 78.5t-82.5 213.5q0 112 56.5 210.5
t153 158t206.5 59.5z" />
    <glyph glyph-name="D" unicode="D" horiz-adv-x="749" 
d="M261 0h-235l175 700h209q160 0 249.5 -71t89.5 -194q0 -189 -140 -312t-348 -123zM254 11q97 0 175 38t126 102t73 144t25 168q0 226 -253 226h-107l-169 -678h130z" />
    <glyph glyph-name="E" unicode="E" horiz-adv-x="616" 
d="M26 0l175 700h483l-3 -11h-388l-81 -323h289l-3 -11h-289l-85 -344h402l-3 -11h-497z" />
    <glyph glyph-name="F" unicode="F" horiz-adv-x="571" 
d="M21 0l175 700h465l-3 -11h-370l-83 -333h289l-3 -11h-289l-86 -345h-95z" />
    <glyph glyph-name="G" unicode="G" horiz-adv-x="740" 
d="M340 -10q-120 0 -202 78t-82 214q0 112 57.5 211t154.5 158t207 59q106 0 167.5 -54t63.5 -145l-11 -3q0 85 -56.5 136.5t-148.5 51.5q-72 0 -136.5 -40t-108.5 -105.5t-70 -150.5t-26 -174q0 -114 54 -170t137 -56q92 0 156.5 56.5t90.5 157.5l26 102h93l-81 -326h-4
l-35 139q-94 -139 -246 -139z" />
    <glyph glyph-name="H" unicode="H" horiz-adv-x="800" 
d="M26 0l175 700h95l-84 -334h436l84 334h94l-175 -700h-94l88 355h-436l-88 -355h-95z" />
    <glyph glyph-name="I" unicode="I" horiz-adv-x="270" 
d="M296 700l-175 -700h-95l175 700h95z" />
    <glyph glyph-name="J" unicode="J" horiz-adv-x="553" 
d="M372 192l127 508h95l-122 -486q-26 -105 -103 -164.5t-184 -59.5q-82 0 -132 45t-50 111q0 58 30 101.5t74 62.5l3 -7q-97 -49 -97 -157q0 -61 43.5 -101.5t114.5 -40.5q83 0 130 47.5t71 140.5z" />
    <glyph glyph-name="K" unicode="K" horiz-adv-x="695" 
d="M508 0l-208 357l-111 -85l-68 -272h-95l175 700h95l-103 -412l540 412h17l-373 -284l236 -416h-105z" />
    <glyph glyph-name="L" unicode="L" horiz-adv-x="593" 
d="M26 0l175 700h95l-172 -689h379l-3 -11h-474z" />
    <glyph glyph-name="M" unicode="M" horiz-adv-x="875" 
d="M411 112l391 588h99l-175 -700h-93l170 682l-457 -692h-4l-133 692l-171 -682h-12l175 700h95z" />
    <glyph glyph-name="N" unicode="N" horiz-adv-x="749" 
d="M616 113l147 587h12l-177 -710h-4l-409 600l-147 -590h-12l177 710h4z" />
    <glyph glyph-name="O" unicode="O" horiz-adv-x="765" 
d="M478 710q117 0 200.5 -79t83.5 -213q0 -109 -55 -207t-153.5 -159.5t-213.5 -61.5q-117 0 -201 79t-84 213q0 108 55.5 206.5t154 160t213.5 61.5zM478 700q-88 0 -158 -57.5t-114 -155.5q-58 -135 -58 -272q0 -110 53.5 -162.5t138.5 -52.5q87 0 157 58t114 155
q58 135 58 272q0 110 -53.5 162.5t-137.5 52.5z" />
    <glyph glyph-name="P" unicode="P" horiz-adv-x="663" 
d="M368 307h-170l-77 -307h-95l175 700h265q105 0 170.5 -40t65.5 -116q0 -63 -28.5 -110t-77 -74t-106 -40t-122.5 -13zM201 318h146q114 0 186 61t72 180q0 130 -164 130h-148z" />
    <glyph glyph-name="Q" unicode="Q" horiz-adv-x="765" 
d="M495 -162q-60 0 -99.5 40.5t-52.5 111.5h-3q-117 0 -201 79t-84 213q0 108 55.5 206.5t154 160t213.5 61.5q117 0 200.5 -79t83.5 -213q0 -163 -118.5 -292t-288.5 -136q12 -69 49.5 -105.5t92.5 -36.5q50 0 88 29t54 80l11 -1q-15 -54 -57.5 -86t-97.5 -32zM478 700
q-88 0 -158 -57.5t-114 -155.5q-58 -135 -58 -272q0 -110 53.5 -162.5t138.5 -52.5q87 0 157 58t114 155q58 135 58 272q0 110 -53.5 162.5t-137.5 52.5z" />
    <glyph glyph-name="R" unicode="R" horiz-adv-x="712" 
d="M293 689l-88 -355h167q107 0 176 57t69 170q0 128 -155 128h-169zM202 323l-81 -323h-95l175 700h279q109 0 171.5 -37t62.5 -114q0 -58 -27.5 -102.5t-70.5 -69t-87.5 -36.5t-87.5 -13v-2q133 -9 146 -117l14 -111q7 -66 31 -98h-102q-14 30 -20 91l-12 108
q-7 67 -38 95.5t-107 28.5h-151z" />
    <glyph glyph-name="S" unicode="S" horiz-adv-x="605" 
d="M277 0q91 0 149.5 48t58.5 130q0 45 -28 74.5t-90 51.5l-102 38q-65 24 -102.5 60.5t-37.5 96.5q0 91 71 151t179 60q100 0 161 -43t77 -116l-10 -4q-15 71 -73.5 112t-154.5 41q-82 0 -133.5 -41.5t-51.5 -105.5q0 -50 30.5 -77t87.5 -49l109 -42q68 -26 102 -61.5
t34 -94.5q0 -107 -81 -173t-195 -66q-104 0 -178.5 48.5t-93.5 127.5l10 5q19 -79 91 -125t171 -46z" />
    <glyph glyph-name="T" unicode="T" horiz-adv-x="699" 
d="M241 0l172 689h-287l2 11h669l-3 -11h-287l-172 -689h-94z" />
    <glyph glyph-name="U" unicode="U" horiz-adv-x="728" 
d="M758 700h11l-105 -421q-35 -138 -122 -213.5t-215 -75.5q-141 0 -208.5 83.5t-35.5 211.5l104 415h94l-102 -407q-31 -126 16.5 -201t162.5 -75q110 0 187 69.5t109 196.5z" />
    <glyph glyph-name="V" unicode="V" horiz-adv-x="670" 
d="M278 -10h-4l-146 710h95l118 -597l416 597h13z" />
    <glyph glyph-name="W" unicode="W" horiz-adv-x="940" 
d="M568 -10l-44 510l-327 -510h-4l-65 710h94l47 -579l254 396l-16 183h95l41 -584l385 584h13l-469 -710h-4z" />
    <glyph glyph-name="X" unicode="X" horiz-adv-x="665" 
d="M-32 0h-15l361 357l-168 343h101l143 -291l292 291h15l-303 -301l196 -399h-100l-170 347z" />
    <glyph glyph-name="Y" unicode="Y" horiz-adv-x="639" 
d="M377 312l348 388h14l-356 -397l-76 -303h-96l75 301l-159 399h100z" />
    <glyph glyph-name="Z" unicode="Z" horiz-adv-x="665" 
d="M565 11l-3 -11h-589l1 4l639 685h-436l2 11h553l-1 -4l-637 -685h471z" />
    <glyph glyph-name="bracketleft" unicode="[" horiz-adv-x="328" 
d="M-2 -154l225 903h203l-1 -6l-124 -4l-221 -883l122 -4l-1 -6h-203z" />
    <glyph glyph-name="backslash" unicode="\" horiz-adv-x="351" 
d="M232 -153h-10l-75 902h10z" />
    <glyph glyph-name="bracketright" unicode="]" horiz-adv-x="328" 
d="M356 749l-225 -903h-202l1 6l124 4l220 883l-121 4l1 6h202z" />
    <glyph glyph-name="asciicircum" unicode="^" horiz-adv-x="490" 
d="M360 710h2l135 -278h-9l-129 266l-261 -266h-11z" />
    <glyph glyph-name="underscore" unicode="_" horiz-adv-x="334" 
d="M-37 -72l3 13h249l-3 -13h-249z" />
    <glyph glyph-name="grave" unicode="`" 
d="M393 557l-106 192h81l29 -192h-4z" />
    <glyph glyph-name="a" unicode="a" horiz-adv-x="585" 
d="M360 68q0 18 11 58q-30 -59 -79.5 -97.5t-108.5 -38.5q-72 0 -115 49t-43 128q0 131 79 230t191 99q61 0 95.5 -40.5t35.5 -101.5l42 132h79l-103 -413q-3 -13 -3 -25q0 -38 34 -38q48 0 77 64l7 -3q-37 -81 -116 -81q-39 0 -61 21.5t-22 56.5zM383 175l25 104q9 36 9 69
q0 56 -27.5 90.5t-75.5 34.5q-86 0 -143.5 -104t-57.5 -228q-2 -129 93 -129q55 0 104 47t73 116z" />
    <glyph glyph-name="b" unicode="b" horiz-adv-x="572" 
d="M139 133l-43 -133h-78l187 749h88l-98 -389q30 59 81 97.5t114 38.5q72 0 114.5 -47t42.5 -126q0 -130 -80.5 -231.5t-192.5 -101.5q-62 0 -98 41t-37 102zM183 312l-26 -105q-9 -36 -9 -68q0 -57 29 -91.5t78 -34.5q60 0 108.5 53t72.5 129t24 154q0 126 -95 126
q-58 0 -108.5 -47t-73.5 -116z" />
    <glyph glyph-name="c" unicode="c" horiz-adv-x="464" 
d="M328 482q-63 0 -113 -49t-76 -123t-26 -155q0 -72 31 -111.5t84 -39.5q58 0 104 33t73 92l9 -5q-29 -63 -81.5 -98.5t-123.5 -35.5q-76 0 -128.5 54.5t-52.5 139.5q0 124 83 218t202 94q64 0 98 -30t34 -75q0 -69 -63 -98l-4 9q57 25 57 89q0 38 -27 64.5t-80 26.5z" />
    <glyph glyph-name="d" unicode="d" horiz-adv-x="592" 
d="M367 68q0 22 11 58q-30 -58 -81 -97t-110 -39q-72 0 -117.5 49t-45.5 127q0 131 79.5 230.5t193.5 99.5q62 0 98 -40.5t38 -101.5l99 395h88l-170 -676q-3 -13 -3 -24q0 -39 35 -39q48 0 77 64l7 -3q-37 -81 -116 -81q-39 0 -61 21.5t-22 56.5zM390 175l26 104q9 36 9 67
q0 58 -29.5 93t-79.5 35q-61 0 -109 -53.5t-71.5 -129t-23.5 -153.5q0 -59 24 -92.5t73 -33.5q56 0 107 47t74 116z" />
    <glyph glyph-name="e" unicode="e" horiz-adv-x="474" 
d="M216 -10q-81 0 -135 52t-54 137q0 124 89 220.5t210 96.5q66 0 103.5 -29.5t37.5 -74.5q0 -41 -28.5 -72t-78.5 -49.5t-110 -27.5t-131 -11q-7 -35 -7 -75q0 -73 33.5 -113t88.5 -40q60 0 110 32t77 91l9 -3q-29 -63 -86 -98.5t-128 -35.5zM323 487q-72 0 -127.5 -71.5
t-75.5 -173.5q280 8 280 171q0 74 -77 74z" />
    <glyph glyph-name="f" unicode="f" horiz-adv-x="292" 
d="M247 572l-20 -86h133l-5 -10h-130l-174 -691h-87l173 691h-73l3 10h72l17 70q23 92 80 147.5t138 55.5q52 0 79 -23.5t27 -63.5q0 -42 -33 -68l-7 7q30 24 30 61q0 33 -21 52.5t-60 19.5q-55 0 -88 -42t-54 -130z" />
    <glyph glyph-name="g" unicode="g" horiz-adv-x="572" 
d="M398 200l19 79q9 36 9 68q0 58 -29 92.5t-80 34.5q-61 0 -108.5 -51.5t-70 -125.5t-22.5 -151q0 -126 95 -126q60 0 113 50.5t74 129.5zM354 29l27 106q-29 -59 -80.5 -98t-113.5 -39q-73 0 -116 47t-43 126q0 130 78.5 227.5t191.5 97.5q63 0 99.5 -41t37.5 -101l42 132
h79l-108 -432q-39 -149 -119 -214t-198 -65q-75 0 -123.5 33.5t-48.5 89.5q0 35 19 60t51 36l4 -9q-30 -9 -47 -32t-17 -55q0 -50 43.5 -80.5t105.5 -30.5q98 0 151 60.5t85 181.5z" />
    <glyph glyph-name="h" unicode="h" horiz-adv-x="580" 
d="M182 304l-76 -304h-88l187 749h88l-97 -387q32 61 86.5 97.5t113.5 36.5q54 0 86.5 -32t32.5 -86q0 -18 -7 -50l-63 -255q-4 -18 -4 -25q0 -38 35 -38q48 0 77 64l7 -3q-37 -81 -116 -81q-40 0 -62 21.5t-22 58.5q0 17 4 32l62 247q8 34 8 59q0 69 -67 69q-56 0 -110 -50
t-75 -123z" />
    <glyph glyph-name="i" unicode="i" horiz-adv-x="271" 
d="M163 597l27 110h91l-27 -110h-91zM225 486l-102 -413q-4 -12 -4 -25q0 -38 35 -38q48 0 77 64l7 -3q-37 -81 -117 -81q-40 0 -61.5 21.5t-21.5 58.5q0 17 4 32l95 384h88z" />
    <glyph glyph-name="j" unicode="j" horiz-adv-x="252" 
d="M173 597l27 110h91l-27 -110h-91zM13 -56l135 542h88l-130 -521q-47 -190 -200 -190q-48 0 -75.5 23t-27.5 61q0 43 36 66l7 -7q-32 -22 -32 -59q0 -32 21 -50.5t54 -18.5q44 0 74 35.5t50 118.5z" />
    <glyph glyph-name="k" unicode="k" horiz-adv-x="535" 
d="M396 -10q-70 0 -97 75l-71 169l-80 -61l-43 -173h-88l187 749h88l-139 -559l387 296h17l-263 -201l88 -211q22 -55 55 -55q41 0 63 66l8 -2q-30 -93 -112 -93z" />
    <glyph glyph-name="l" unicode="l" horiz-adv-x="272" 
d="M292 749l-169 -676q-3 -13 -3 -25q0 -38 34 -38q48 0 77 64l7 -3q-37 -81 -116 -81q-40 0 -62 21.5t-22 58.5q0 17 4 32l162 647h88z" />
    <glyph glyph-name="m" unicode="m" horiz-adv-x="889" 
d="M818 328l-64 -255q-3 -14 -3 -25q0 -38 35 -38q47 0 76 64l7 -3q-37 -81 -116 -81q-40 0 -61.5 21.5t-21.5 58.5q0 17 4 32l61 247q9 35 9 63q0 65 -65 65q-56 0 -110.5 -52t-74.5 -133l-73 -292h-88l87 349q9 35 9 63q0 65 -65 65q-56 0 -111 -52t-75 -133l-72 -292h-88
l121 486h85l-28 -124q31 62 84 98t112 36q58 0 89.5 -36.5t26.5 -100.5q31 62 85 99.5t114 37.5q55 0 86.5 -31t31.5 -85q0 -25 -7 -52z" />
    <glyph glyph-name="n" unicode="n" horiz-adv-x="580" 
d="M508 328l-63 -255q-4 -18 -4 -25q0 -38 35 -38q48 0 77 64l7 -3q-37 -81 -116 -81q-40 0 -62 21.5t-22 58.5q0 17 4 32l62 247q8 34 8 59q0 69 -67 69q-56 0 -110 -50t-75 -123l-76 -304h-88l121 486h85l-28 -124q32 61 86.5 97.5t113.5 36.5q54 0 86.5 -32t32.5 -86
q0 -18 -7 -50z" />
    <glyph glyph-name="o" unicode="o" horiz-adv-x="533" 
d="M28 186q0 124 83.5 217t203.5 93q83 0 136 -56t53 -139q0 -125 -83.5 -218t-203.5 -93q-84 0 -136.5 56.5t-52.5 139.5zM109 134q0 -66 27.5 -100t79.5 -34q103 0 167 159q40 105 40 194q0 133 -107 133q-102 0 -167 -158q-40 -105 -40 -194z" />
    <glyph glyph-name="p" unicode="p" horiz-adv-x="572" 
d="M183 312l-26 -105q-9 -36 -9 -68q0 -57 29 -91.5t78 -34.5q60 0 108.5 53t72.5 129t24 154q0 126 -95 126q-58 0 -108.5 -47t-73.5 -116zM139 133l-86 -348h-89l175 701h85l-29 -126q30 59 81 97.5t114 38.5q72 0 114.5 -47t42.5 -126q0 -130 -80.5 -231.5t-192.5 -101.5
q-62 0 -98 41t-37 102z" />
    <glyph glyph-name="q" unicode="q" horiz-adv-x="569" 
d="M376 126q-30 -59 -81.5 -97.5t-113.5 -38.5q-70 0 -114 48t-44 126q0 131 79 231.5t193 100.5q63 0 99.5 -41t37.5 -101l42 132h79l-175 -701h-86zM388 175l26 104q9 36 9 67q0 58 -29.5 93t-79.5 35q-61 0 -109 -53.5t-71 -129t-23 -153.5q0 -126 94 -126q58 0 109 47
t74 116z" />
    <glyph glyph-name="r" unicode="r" horiz-adv-x="446" 
d="M190 336q34 68 84 114t103 46q40 0 62.5 -22.5t22.5 -59.5q0 -33 -18 -63t-48 -47l-5 7q61 40 61 103q0 33 -19.5 52.5t-55.5 19.5q-63 0 -120 -66.5t-84 -149.5l-67 -270h-88l121 486h85z" />
    <glyph glyph-name="s" unicode="s" horiz-adv-x="445" 
d="M263 486q-54 0 -87 -27t-33 -70q0 -18 7.5 -32.5t25 -26.5t31.5 -19.5t41 -19.5q29 -13 44 -20t36.5 -20.5t32 -26t19 -31t8.5 -40.5q0 -66 -57.5 -114.5t-142.5 -48.5q-82 0 -133.5 37.5t-51.5 90.5q0 61 57 84l5 -7q-52 -24 -52 -77q0 -49 47.5 -83t121.5 -34
q64 0 102.5 31.5t38.5 76.5q0 36 -26.5 58t-81.5 47q-36 17 -52 25t-40 25t-33.5 36.5t-9.5 45.5q0 63 51.5 106.5t131.5 43.5q72 0 113 -30t41 -80t-43 -73l-4 8q37 23 37 65q0 45 -38 72.5t-106 27.5z" />
    <glyph glyph-name="t" unicode="t" horiz-adv-x="370" 
d="M56 476l3 10h79l37 133l90 32l-40 -165h160l-6 -10h-156l-92 -370q-5 -25 -5 -40q0 -58 60 -58q51 0 90 39t57 107l9 -2q-19 -74 -65 -118t-115 -44q-54 0 -85.5 28t-31.5 77q0 15 5 37l85 344h-79z" />
    <glyph glyph-name="u" unicode="u" horiz-adv-x="583" 
d="M221 486l-87 -348q-8 -32 -8 -56q0 -72 67 -72q57 0 110.5 51t73.5 132l73 293h88l-103 -413q-3 -13 -3 -25q0 -38 35 -38q47 0 76 64l7 -3q-37 -81 -116 -81q-39 0 -61 21.5t-22 56.5q0 22 9 56q-32 -62 -84 -98t-109 -36q-55 0 -88.5 32t-33.5 88q0 23 6 48l82 328h88z
" />
    <glyph glyph-name="v" unicode="v" horiz-adv-x="529" 
d="M57 203l71 283h88l-72 -291q-13 -52 -13 -86q0 -100 84 -100q69 0 135.5 53.5t106.5 137t40 166.5q0 55 -25 87.5t-69 32.5q-65 0 -92 -67l-8 5q27 72 100 72q49 0 76.5 -34.5t27.5 -95.5q0 -87 -41.5 -173t-116 -144.5t-160.5 -58.5q-69 0 -105.5 38t-36.5 102
q0 30 10 73z" />
    <glyph glyph-name="w" unicode="w" horiz-adv-x="786" 
d="M664 496q47 0 72.5 -35t25.5 -96q0 -86 -37 -172.5t-102 -144.5t-136 -58q-64 0 -99.5 43.5t-27.5 116.5q-22 -65 -69 -112.5t-113 -47.5q-60 0 -96 36t-36 100q0 30 10 77l71 283h88l-73 -293q-12 -51 -12 -88q0 -45 20.5 -69.5t56.5 -24.5q38 0 72.5 32.5t54.5 72
t30 77.5l73 293h86l-77 -308q-10 -42 -10 -71q0 -97 79 -97q55 0 111 53.5t91 136.5t35 165q0 56 -22.5 88.5t-65.5 32.5q-59 0 -85 -67l-9 4q27 73 94 73z" />
    <glyph glyph-name="x" unicode="x" horiz-adv-x="594" 
d="M357 356q24 50 70 95t94 45q45 0 67 -25t22 -67q0 -32 -17.5 -61t-39.5 -42l-5 7q52 35 52 96q0 38 -20 60t-58 22q-52 0 -100.5 -66.5t-74.5 -151.5t-26 -151q0 -110 68 -110q42 0 76.5 30t53.5 84l9 -4q-20 -58 -63 -92.5t-97 -34.5q-52 0 -86.5 43t-37.5 101
q-23 -51 -70.5 -97.5t-96.5 -46.5q-44 0 -68 26t-24 68q0 32 18.5 62.5t40.5 46.5l5 -8q-54 -43 -54 -101q0 -39 21.5 -61.5t60.5 -22.5q51 0 100 65.5t76 151.5t27 153q0 50 -16.5 80t-50.5 30q-86 0 -130 -111l-8 4q23 58 64 90.5t94 32.5q52 0 86.5 -42t37.5 -98z" />
    <glyph glyph-name="y" unicode="y" horiz-adv-x="549" 
d="M533 486l-108 -432q-37 -147 -115.5 -213t-195.5 -66q-72 0 -116.5 34.5t-44.5 86.5q0 73 69 96l4 -9q-63 -19 -63 -87q0 -49 41 -79t100 -30q96 0 146.5 60t80.5 182l25 101q-32 -61 -82 -94t-109 -33q-53 0 -85 31.5t-32 86.5q0 26 7 51l79 314h88l-84 -335
q-9 -33 -9 -60q0 -68 66 -68q56 0 107.5 49t71.5 130l71 284h88z" />
    <glyph glyph-name="z" unicode="z" horiz-adv-x="485" 
d="M287 -13q-48 0 -128 41t-100 45l-81 -77l-6 7l438 414h-320l26 69h367l6 -6l-370 -350q28 -10 101.5 -47.5t117.5 -37.5q81 0 97 101l8 -2q-9 -68 -50.5 -112.5t-105.5 -44.5z" />
    <glyph glyph-name="braceleft" unicode="{" horiz-adv-x="375" 
d="M36 292l3 9q121 0 156 136q6 24 7.5 79t7.5 81q15 65 72.5 108.5t135.5 43.5q32 0 60 -11l-3 -9q-22 9 -49 9q-53 0 -88.5 -31t-49.5 -87q-6 -25 -9 -89t-8 -86q-12 -48 -51 -83.5t-76 -49t-70 -16.5q45 -4 86.5 -32.5t41.5 -81.5q0 -33 -40 -121.5t-40 -125.5
q0 -38 22.5 -59t61.5 -21q27 0 53 9l-1 -10q-31 -10 -63 -10q-62 0 -100.5 34t-38.5 86q0 34 37.5 116t37.5 127q0 85 -95 85z" />
    <glyph glyph-name="bar" unicode="|" horiz-adv-x="214" 
d="M3 -153l225 902h10l-225 -902h-10z" />
    <glyph glyph-name="braceright" unicode="}" horiz-adv-x="375" 
d="M364 301l-3 -9q-122 0 -155 -136q-7 -25 -8.5 -80t-7.5 -80q-15 -65 -72.5 -108.5t-134.5 -43.5q-33 0 -61 11l3 9q22 -9 49 -9q53 0 88.5 31t49.5 87q6 26 9 90t8 85q12 48 51.5 83t76.5 48.5t69 16.5q-44 4 -85.5 32.5t-41.5 81.5q0 34 39.5 123t39.5 125q0 38 -22 59
t-61 21q-28 0 -54 -9l2 10q30 10 62 10q62 0 100.5 -34t38.5 -86q0 -34 -37 -116t-37 -127q0 -85 94 -85z" />
    <glyph glyph-name="asciitilde" unicode="~" horiz-adv-x="482" 
d="M333 255q-27 0 -94 47t-95 47q-65 0 -93 -97h-7q16 68 57.5 111.5t89.5 43.5q29 0 96 -47t93 -47q65 0 93 97h8q-16 -69 -58 -112t-90 -43z" />
    <glyph glyph-name="uni00A0" unicode="&#xa0;" 
 />
    <glyph glyph-name="exclamdown" unicode="&#xa1;" horiz-adv-x="227" 
d="M243 551l-27 -110h-105l28 110h104zM136 343h4l-66 -492h-117z" />
    <glyph glyph-name="cent" unicode="&#xa2;" horiz-adv-x="475" 
d="M424 124q-30 -63 -83.5 -98.5t-124.5 -35.5l-28 -104h-10l28 104q-76 4 -124 57t-48 136q0 123 85.5 218t205.5 95q12 0 18 -1l32 119h10l-32 -120q51 -6 78.5 -34.5t27.5 -67.5q0 -73 -70 -100l-4 9q64 26 64 91q0 38 -26 63t-74 28l-129 -478q5 -1 16 -1
q57 0 104.5 33.5t74.5 91.5zM120 155q0 -64 24 -102t67 -47l129 477q-64 0 -115.5 -49t-78 -123.5t-26.5 -155.5z" />
    <glyph glyph-name="sterling" unicode="&#xa3;" horiz-adv-x="656" 
d="M429 -10q-30 0 -62.5 12.5t-48.5 22.5t-54.5 39.5t-46.5 35.5q-71 -110 -155 -110q-39 0 -64 23.5t-25 56.5q0 42 31 67.5t74 25.5q47 0 109 -26q15 45 28 111q6 33 16 106h-116l2 10h116q11 71 16 99q20 111 94.5 179t176.5 68q72 0 111 -34t38 -84q0 -49 -29 -82.5
t-70 -45.5l-2 8q40 14 65.5 44.5t25.5 76.5q0 42 -31 71.5t-84 29.5q-139 0 -190 -200l-33 -130h160l-3 -10h-159q-37 -143 -90 -235q45 -20 67.5 -29t64.5 -19.5t80 -10.5q63 0 101.5 28.5t38.5 84.5q0 29 -21 47l8 6q26 -20 26 -63q0 -73 -46 -123t-119 -50zM60 0
q78 0 122 122q-53 31 -104 31q-38 0 -66 -22t-28 -61q0 -30 21 -50t55 -20z" />
    <glyph glyph-name="yen" unicode="&#xa5;" horiz-adv-x="603" 
d="M530 235h-184l-59 -235h-92l58 235h-183l2 10h184l11 45l-16 54h-154l2 10h149l-102 346h97l112 -399l316 399h13l-275 -346h150l-2 -10h-156l-41 -52l-12 -47h184z" />
    <glyph glyph-name="section" unicode="&#xa7;" horiz-adv-x="564" 
d="M310 114q51 -52 67 -90q70 40 70 106q0 30 -16 55.5t-52 61.5l-126 125q-51 51 -66 89q-71 -40 -71 -106q0 -29 16.5 -55t51.5 -61zM186 -225q-61 0 -105.5 34t-48.5 91l10 4q4 -55 45.5 -87t98.5 -32q71 0 106 41t35 96q0 32 -17.5 58.5t-55.5 64.5l-115 114
q-38 37 -54.5 67t-16.5 70q0 54 32.5 100.5t82.5 72.5q-8 26 -8 51q0 79 54.5 134.5t145.5 55.5q60 0 102.5 -33.5t46.5 -90.5l-10 -4q-4 56 -43 87t-96 31q-70 0 -104 -40.5t-34 -95.5q0 -33 17 -59.5t55 -64.5l115 -113q38 -37 55 -67t17 -70q0 -54 -33 -101t-83 -73
q8 -26 8 -50q0 -79 -55.5 -135t-146.5 -56z" />
    <glyph glyph-name="dieresis" unicode="&#xa8;" 
d="M377 597l27 110h75l-27 -110h-75zM225 597l27 110h75l-27 -110h-75z" />
    <glyph glyph-name="copyright" unicode="&#xa9;" horiz-adv-x="812" 
d="M72 319q0 169 113 280t273 111q143 0 239.5 -93t96.5 -236q0 -169 -113 -280t-273 -111q-143 0 -239.5 93t-96.5 236zM784 381q0 139 -93.5 229t-232.5 90q-156 0 -266 -108t-110 -273q0 -139 93.5 -229t232.5 -90q156 0 266 108t110 273zM490 574q61 0 99 -31.5
t42 -86.5l-10 -2q-3 50 -37 79t-84 29q-86 0 -142.5 -82t-56.5 -194q0 -76 33.5 -111t87.5 -35q110 0 164 103l8 -5q-58 -111 -183 -111q-74 0 -127 50t-53 135q0 105 77.5 183.5t181.5 78.5z" />
    <glyph glyph-name="ordfeminine" unicode="&#xaa;" horiz-adv-x="454" 
d="M336 410q0 14 8 41q-22 -42 -57 -69t-77 -27q-51 0 -81 34.5t-30 90.5q0 92 56 161t135 69q43 0 68 -27.5t26 -69.5l29 90h57l-72 -283q-3 -13 -3 -24q0 -26 23 -26q33 0 55 45l6 -3q-28 -57 -83 -57q-26 0 -43 16t-17 39zM352 486l19 72q6 24 6 48q0 39 -19.5 62.5
t-54.5 23.5q-58 0 -98.5 -72t-41.5 -159q0 -88 64 -88q39 0 74 32.5t51 80.5zM81 275l3 10h291l-3 -10h-291z" />
    <glyph glyph-name="guillemotleft" unicode="&#xab;" horiz-adv-x="478" 
d="M46 243v2l275 204h5l-200 -208l97 -201h-4zM200 243v2l276 204h5l-200 -208l97 -201h-4z" />
    <glyph glyph-name="registered" unicode="&#xae;" horiz-adv-x="544" 
d="M550 503q0 -92 -70 -158.5t-161 -66.5q-90 0 -145.5 57t-55.5 150q0 92 70 158.5t161 66.5q90 0 145.5 -57t55.5 -150zM540 503q0 89 -53 143t-138 54q-87 0 -154 -63.5t-67 -151.5q0 -89 53 -143t138 -54q87 0 154 63.5t67 151.5zM314 604l-27 -108h39q31 0 51 17.5
t20 50.5q0 40 -44 40h-39zM285 486l-27 -108h-47l59 236h106q32 0 50 -15t18 -39q0 -27 -25 -47t-58 -22v-1q36 -3 42 -41l4 -34q3 -17 13 -37h-50q-7 14 -9 33l-4 38q-3 37 -39 37h-33z" />
    <glyph glyph-name="macron" unicode="&#xaf;" 
d="M486 632h-280l3 10h280z" />
    <glyph glyph-name="degree" unicode="&#xb0;" horiz-adv-x="329" 
d="M369 622q0 -50 -37 -87t-88 -37q-44 0 -73.5 28.5t-29.5 70.5q0 50 37 87t88 37q44 0 73.5 -28.5t29.5 -70.5zM151 597q0 -38 26.5 -63.5t66.5 -25.5q47 0 81 34t34 80q0 38 -26.5 63.5t-66.5 25.5q-47 0 -81 -34t-34 -80z" />
    <glyph glyph-name="plusminus" unicode="&#xb1;" horiz-adv-x="463" 
d="M447 355h-183l-38 -152h-10l38 152h-182l2 10h182l38 152h10l-38 -152h183zM14 124l2 10h375l-2 -10h-375z" />
    <glyph glyph-name="twosuperior" unicode="&#xb2;" horiz-adv-x="268" 
d="M129 458h165l-12 -44h-210l2 6l103 83q103 82 103 148q0 45 -48 45q-35 0 -60.5 -23.5t-25.5 -55.5q0 -26 20 -34l-5 -6q-25 8 -25 39q0 38 32.5 65.5t78.5 27.5q39 0 62.5 -17.5t23.5 -47.5q0 -23 -11 -43.5t-42 -44.5t-56.5 -40.5t-84.5 -51.5q-3 -2 -5.5 -3.5
t-4.5 -2.5z" />
    <glyph glyph-name="threesuperior" unicode="&#xb3;" horiz-adv-x="272" 
d="M181 410q-40 0 -66 18t-26 47q0 25 16 41t38 21l3 -7q-20 -5 -33.5 -19.5t-13.5 -35.5q0 -23 20.5 -38.5t49.5 -15.5q39 0 61.5 28.5t22.5 67.5q0 49 -58 49h-9l2 8h10q38 0 59 22.5t21 56.5q0 44 -48 44q-31 0 -53.5 -18t-22.5 -45q0 -21 20 -29l-6 -7q-24 10 -24 35
q0 32 28.5 54t70.5 22q38 0 62 -16.5t24 -44.5q0 -34 -33.5 -56t-72.5 -22v-1q34 -2 58 -19.5t24 -45.5q0 -42 -36.5 -68t-87.5 -26z" />
    <glyph glyph-name="acute" unicode="&#xb4;" 
d="M368 749h87l-202 -192h-4z" />
    <glyph glyph-name="paragraph" unicode="&#xb6;" horiz-adv-x="540" 
d="M78 -133q0 -34 24.5 -58t63.5 -24q124 0 177 210l173 695h-49l-142 -571l-9 3l42 172q-106 0 -179 49t-73 132q0 59 30.5 104t82 70.5t111 38t126.5 12.5h123l-3 -10h-50l-174 -697q-54 -218 -186 -218q-45 0 -71.5 27t-26.5 65q0 40 27 65l8 -5q-25 -27 -25 -60z" />
    <glyph glyph-name="periodcentered" unicode="&#xb7;" horiz-adv-x="205" 
d="M46 223l27 110h104l-27 -110h-104z" />
    <glyph glyph-name="cedilla" unicode="&#xb8;" 
d="M46 -167l10 5q14 -50 72 -50q35 0 57.5 25.5t22.5 62.5q0 26 -20 37t-64 11l51 77h10l-45 -69q51 0 84 -17t33 -50q0 -37 -34.5 -63.5t-84.5 -26.5q-36 0 -60 16t-32 42z" />
    <glyph glyph-name="onesuperior" unicode="&#xb9;" horiz-adv-x="205" 
d="M187 414h-54l63 248q-43 -43 -79 -61l-1 8q58 31 109 98h36z" />
    <glyph glyph-name="ordmasculine" unicode="&#xba;" horiz-adv-x="397" 
d="M98 492q0 87 61 152.5t146 65.5q59 0 98 -39.5t39 -97.5q0 -87 -61 -152.5t-146 -65.5q-59 0 -98 39.5t-39 97.5zM160 456q0 -92 74 -92t117 109q29 73 29 136q0 92 -75 92q-73 0 -116 -109q-29 -70 -29 -136zM60 275l3 10h291l-3 -10h-291z" />
    <glyph glyph-name="guillemotright" unicode="&#xbb;" horiz-adv-x="478" 
d="M276 245v-2l-276 -203h-4l200 207l-97 202h4zM431 245v-2l-276 -203h-5l200 207l-97 202h4z" />
    <glyph glyph-name="onequarter" unicode="&#xbc;" horiz-adv-x="401" 
d="M261 414h-53l62 248q-36 -39 -79 -61l-1 8q57 30 109 98h36zM64 358h329l-2 -10h-329zM269 94l-2 -9h-61l-21 -85h-53l20 85h-132l2 6l187 199h48l-48 -196h60zM155 94l43 173l-162 -173h119z" />
    <glyph glyph-name="onehalf" unicode="&#xbd;" horiz-adv-x="401" 
d="M261 414h-53l62 248q-36 -39 -79 -61l-1 8q57 30 109 98h36zM64 358h329l-2 -10h-329zM93 44h165l-12 -44h-211l2 6l104 83q103 82 103 148q0 45 -49 45q-34 0 -60 -23.5t-26 -55.5q0 -25 21 -34l-6 -6q-24 9 -24 39q0 38 32 65.5t79 27.5q39 0 62.5 -17.5t23.5 -47.5
q0 -23 -11 -43.5t-42 -44.5t-56.5 -40.5t-84.5 -51.5q-7 -4 -10 -6z" />
    <glyph glyph-name="threequarters" unicode="&#xbe;" horiz-adv-x="401" 
d="M245 410q-40 0 -65.5 18.5t-25.5 46.5q0 25 16 41t38 21l3 -7q-21 -5 -34.5 -19.5t-13.5 -35.5q0 -23 20.5 -38.5t50.5 -15.5q39 0 61 28.5t22 67.5q0 49 -57 49h-9l2 8h10q38 0 59 22.5t21 56.5q0 44 -49 44q-31 0 -53.5 -18t-22.5 -45q0 -21 21 -29l-6 -7
q-25 10 -25 35q0 32 29 54t70 22q38 0 62.5 -16.5t24.5 -44.5q0 -34 -33.5 -56t-72.5 -22v-1q34 -2 58 -19.5t24 -45.5q0 -42 -36.5 -68t-88.5 -26zM64 358h329l-2 -10h-329zM269 94l-2 -9h-61l-21 -85h-53l20 85h-132l2 6l187 199h48l-48 -196h60zM155 94l43 173l-162 -173
h119z" />
    <glyph glyph-name="questiondown" unicode="&#xbf;" horiz-adv-x="513" 
d="M401 551l-28 -110h-104l27 110h105zM264 179q-86 -5 -150 -60.5t-64 -141.5q0 -59 34.5 -91.5t100.5 -32.5q100 0 166 61.5t66 142.5q0 60 -44 81l6 7q21 -9 34.5 -32.5t13.5 -55.5q0 -85 -71.5 -150.5t-177.5 -65.5q-91 0 -145.5 45.5t-54.5 116.5q0 75 47.5 133
t112.5 86.5t134 32.5l22 89h10z" />
    <glyph glyph-name="Agrave" unicode="&#xc0;" horiz-adv-x="670" 
d="M467 749l-112 171h86l30 -171h-4zM451 248l-70 350l-243 -350h313zM500 0l-47 237h-322l-165 -237h-13l492 710h4l146 -710h-95z" />
    <glyph glyph-name="Aacute" unicode="&#xc1;" horiz-adv-x="670" 
d="M553 920h90l-196 -171h-4zM451 248l-70 350l-243 -350h313zM500 0l-47 237h-322l-165 -237h-13l492 710h4l146 -710h-95z" />
    <glyph glyph-name="Acircumflex" unicode="&#xc2;" horiz-adv-x="670" 
d="M542 741l-81 139l-151 -139h-13l205 189h2l107 -189h-69zM451 248l-70 350l-243 -350h313zM500 0l-47 237h-322l-165 -237h-13l492 710h4l146 -710h-95z" />
    <glyph glyph-name="Atilde" unicode="&#xc3;" horiz-adv-x="670" 
d="M537 766q-29 0 -79 42t-76 42q-49 0 -84 -87h-9q20 62 54.5 96.5t75.5 34.5q30 0 79.5 -42t76.5 -42q49 0 83 88h9q-20 -62 -54.5 -97t-75.5 -35zM451 248l-70 350l-243 -350h313zM500 0l-47 237h-322l-165 -237h-13l492 710h4l146 -710h-95z" />
    <glyph glyph-name="Adieresis" unicode="&#xc4;" horiz-adv-x="670" 
d="M497 759l28 112h77l-28 -112h-77zM345 759l28 112h77l-28 -112h-77zM451 248l-70 350l-243 -350h313zM500 0l-47 237h-322l-165 -237h-13l492 710h4l146 -710h-95z" />
    <glyph glyph-name="Aring" unicode="&#xc5;" horiz-adv-x="670" 
d="M480 873q-36 0 -63.5 -25t-27.5 -63q0 -29 20 -48.5t50 -19.5q36 0 63.5 25t27.5 63q0 29 -20 48.5t-50 19.5zM451 248l-70 350l-243 -350h313zM500 0l-47 237h-322l-165 -237h-13l491 708q-29 5 -47 26.5t-18 50.5q0 42 30.5 70t70.5 28q34 0 57 -22.5t23 -55.5
q0 -42 -30.5 -70t-70.5 -28h-9l145 -707h-95z" />
    <glyph glyph-name="AE" unicode="&#xc6;" horiz-adv-x="1060" 
d="M553 314l94 376l-370 -376h276zM474 0l76 303h-284l-298 -303h-15l688 700h487l-3 -11h-386l-81 -323h288l-3 -11h-288l-85 -344h400l-3 -11h-493z" />
    <glyph glyph-name="Ccedilla" unicode="&#xc7;" horiz-adv-x="678" 
d="M268 -225q-36 0 -60 16t-32 42l10 5q14 -50 72 -50q35 0 57.5 25.5t22.5 62.5q0 26 -20 37t-64 11l45 69q-105 13 -174 89.5t-69 199.5q0 112 56.5 210.5t153 158t206.5 59.5q100 0 160.5 -53.5t61.5 -142.5l-11 -2q1 83 -54 133.5t-142 50.5q-94 0 -171.5 -65.5
t-120 -170t-42.5 -221.5q0 -119 57 -176.5t146 -57.5q83 0 153 43t113 125l10 -4q-46 -88 -123 -133.5t-169 -45.5q-11 0 -31 2l-39 -60q51 0 84 -17t33 -50q0 -37 -34.5 -63.5t-84.5 -26.5z" />
    <glyph glyph-name="Egrave" unicode="&#xc8;" horiz-adv-x="616" 
d="M464 749l-112 171h86l30 -171h-4zM26 0l175 700h483l-3 -11h-388l-81 -323h289l-3 -11h-289l-85 -344h402l-3 -11h-497z" />
    <glyph glyph-name="Eacute" unicode="&#xc9;" horiz-adv-x="616" 
d="M551 920h90l-196 -171h-4zM26 0l175 700h483l-3 -11h-388l-81 -323h289l-3 -11h-289l-85 -344h402l-3 -11h-497z" />
    <glyph glyph-name="Ecircumflex" unicode="&#xca;" horiz-adv-x="616" 
d="M553 741l-81 139l-151 -139h-13l205 189h2l107 -189h-69zM26 0l175 700h483l-3 -11h-388l-81 -323h289l-3 -11h-289l-85 -344h402l-3 -11h-497z" />
    <glyph glyph-name="Edieresis" unicode="&#xcb;" horiz-adv-x="616" 
d="M495 759l28 112h77l-28 -112h-77zM343 759l28 112h77l-28 -112h-77zM26 0l175 700h483l-3 -11h-388l-81 -323h289l-3 -11h-289l-85 -344h402l-3 -11h-497z" />
    <glyph glyph-name="Igrave" unicode="&#xcc;" horiz-adv-x="270" 
d="M270 749l-112 171h86l30 -171h-4zM296 700l-175 -700h-95l175 700h95z" />
    <glyph glyph-name="Iacute" unicode="&#xcd;" horiz-adv-x="270" 
d="M357 920h90l-196 -171h-4zM296 700l-175 -700h-95l175 700h95z" />
    <glyph glyph-name="Icircumflex" unicode="&#xce;" horiz-adv-x="270" 
d="M360 741l-81 139l-151 -139h-13l205 189h2l107 -189h-69zM296 700l-175 -700h-95l175 700h95z" />
    <glyph glyph-name="Idieresis" unicode="&#xcf;" horiz-adv-x="270" 
d="M301 759l28 112h77l-28 -112h-77zM149 759l28 112h77l-28 -112h-77zM296 700l-175 -700h-95l175 700h95z" />
    <glyph glyph-name="Eth" unicode="&#xd0;" horiz-adv-x="765" 
d="M277 0h-235l89 355h-73l2 11h74l83 334h209q160 0 249.5 -71t89.5 -194q0 -189 -140 -312t-348 -123zM140 11h130q97 0 175 38t126 102t73 144t25 168q0 226 -253 226h-107l-81 -323h182l-2 -11h-182z" />
    <glyph glyph-name="Ntilde" unicode="&#xd1;" horiz-adv-x="749" 
d="M580 766q-30 0 -79 42t-76 42q-49 0 -84 -87h-9q20 62 54.5 96.5t75.5 34.5q30 0 79.5 -42t76.5 -42q49 0 83 88h9q-20 -62 -54.5 -97t-75.5 -35zM616 113l147 587h12l-177 -710h-4l-409 600l-147 -590h-12l177 710h4z" />
    <glyph glyph-name="Ograve" unicode="&#xd2;" horiz-adv-x="765" 
d="M517 749l-112 171h86l30 -171h-4zM478 710q117 0 200.5 -79t83.5 -213q0 -109 -55 -207t-153.5 -159.5t-213.5 -61.5q-117 0 -201 79t-84 213q0 108 55.5 206.5t154 160t213.5 61.5zM478 700q-88 0 -158 -57.5t-114 -155.5q-58 -135 -58 -272q0 -110 53.5 -162.5
t138.5 -52.5q87 0 157 58t114 155q58 135 58 272q0 110 -53.5 162.5t-137.5 52.5z" />
    <glyph glyph-name="Oacute" unicode="&#xd3;" horiz-adv-x="765" 
d="M604 920h90l-196 -171h-4zM478 710q117 0 200.5 -79t83.5 -213q0 -109 -55 -207t-153.5 -159.5t-213.5 -61.5q-117 0 -201 79t-84 213q0 108 55.5 206.5t154 160t213.5 61.5zM478 700q-88 0 -158 -57.5t-114 -155.5q-58 -135 -58 -272q0 -110 53.5 -162.5t138.5 -52.5
q87 0 157 58t114 155q58 135 58 272q0 110 -53.5 162.5t-137.5 52.5z" />
    <glyph glyph-name="Ocircumflex" unicode="&#xd4;" horiz-adv-x="765" 
d="M598 741l-81 139l-151 -139h-13l205 189h2l107 -189h-69zM478 710q117 0 200.5 -79t83.5 -213q0 -109 -55 -207t-153.5 -159.5t-213.5 -61.5q-117 0 -201 79t-84 213q0 108 55.5 206.5t154 160t213.5 61.5zM478 700q-88 0 -158 -57.5t-114 -155.5q-58 -135 -58 -272
q0 -110 53.5 -162.5t138.5 -52.5q87 0 157 58t114 155q58 135 58 272q0 110 -53.5 162.5t-137.5 52.5z" />
    <glyph glyph-name="Otilde" unicode="&#xd5;" horiz-adv-x="765" 
d="M588 766q-30 0 -79 42t-76 42q-49 0 -84 -87h-9q20 62 54.5 96.5t75.5 34.5q30 0 79.5 -42t76.5 -42q49 0 83 88h9q-20 -62 -54.5 -97t-75.5 -35zM478 710q117 0 200.5 -79t83.5 -213q0 -109 -55 -207t-153.5 -159.5t-213.5 -61.5q-117 0 -201 79t-84 213
q0 108 55.5 206.5t154 160t213.5 61.5zM478 700q-88 0 -158 -57.5t-114 -155.5q-58 -135 -58 -272q0 -110 53.5 -162.5t138.5 -52.5q87 0 157 58t114 155q58 135 58 272q0 110 -53.5 162.5t-137.5 52.5z" />
    <glyph glyph-name="Odieresis" unicode="&#xd6;" horiz-adv-x="765" 
d="M549 759l28 112h77l-28 -112h-77zM397 759l28 112h77l-28 -112h-77zM478 710q117 0 200.5 -79t83.5 -213q0 -109 -55 -207t-153.5 -159.5t-213.5 -61.5q-117 0 -201 79t-84 213q0 108 55.5 206.5t154 160t213.5 61.5zM478 700q-88 0 -158 -57.5t-114 -155.5
q-58 -135 -58 -272q0 -110 53.5 -162.5t138.5 -52.5q87 0 157 58t114 155q58 135 58 272q0 110 -53.5 162.5t-137.5 52.5z" />
    <glyph glyph-name="multiply" unicode="&#xd7;" horiz-adv-x="387" 
d="M311 171l-103 137l-169 -136l-6 8l169 136l-101 135l8 6l102 -135l170 137l6 -8l-170 -136l103 -137z" />
    <glyph glyph-name="Oslash" unicode="&#xd8;" horiz-adv-x="765" 
d="M148 215q0 -81 32 -134l452 546q-50 73 -154 73q-88 0 -158 -57.5t-114 -155.5q-58 -135 -58 -272zM340 0q87 0 157 58t114 155q58 135 58 272q0 80 -30 131l-453 -545q50 -71 154 -71zM340 -10q-98 0 -175 57l-55 -67l-8 7l55 66q-102 84 -102 229q0 108 55.5 206.5
t154 160t213.5 61.5q100 0 176 -58l56 68l9 -7l-56 -68q99 -84 99 -227q0 -109 -55 -207t-153.5 -159.5t-213.5 -61.5z" />
    <glyph glyph-name="Ugrave" unicode="&#xd9;" horiz-adv-x="728" 
d="M522 749l-112 171h86l30 -171h-4zM758 700h11l-105 -421q-35 -138 -122 -213.5t-215 -75.5q-141 0 -208.5 83.5t-35.5 211.5l104 415h94l-102 -407q-31 -126 16.5 -201t162.5 -75q110 0 187 69.5t109 196.5z" />
    <glyph glyph-name="Uacute" unicode="&#xda;" horiz-adv-x="728" 
d="M609 920h90l-196 -171h-4zM758 700h11l-105 -421q-35 -138 -122 -213.5t-215 -75.5q-141 0 -208.5 83.5t-35.5 211.5l104 415h94l-102 -407q-31 -126 16.5 -201t162.5 -75q110 0 187 69.5t109 196.5z" />
    <glyph glyph-name="Ucircumflex" unicode="&#xdb;" horiz-adv-x="728" 
d="M612 741l-81 139l-151 -139h-13l205 189h2l107 -189h-69zM758 700h11l-105 -421q-35 -138 -122 -213.5t-215 -75.5q-141 0 -208.5 83.5t-35.5 211.5l104 415h94l-102 -407q-31 -126 16.5 -201t162.5 -75q110 0 187 69.5t109 196.5z" />
    <glyph glyph-name="Udieresis" unicode="&#xdc;" horiz-adv-x="728" 
d="M554 759l28 112h77l-28 -112h-77zM402 759l28 112h77l-28 -112h-77zM758 700h11l-105 -421q-35 -138 -122 -213.5t-215 -75.5q-141 0 -208.5 83.5t-35.5 211.5l104 415h94l-102 -407q-31 -126 16.5 -201t162.5 -75q110 0 187 69.5t109 196.5z" />
    <glyph glyph-name="Yacute" unicode="&#xdd;" horiz-adv-x="639" 
d="M559 920h90l-196 -171h-4zM377 312l348 388h14l-356 -397l-76 -303h-96l75 301l-159 399h100z" />
    <glyph glyph-name="Thorn" unicode="&#xde;" horiz-adv-x="661" 
d="M121 0h-95l175 700h95l-30 -121h168q105 0 170.5 -40t65.5 -116q0 -63 -28.5 -110t-77 -74t-106 -40t-122.5 -13h-168zM409 568h-146l-92 -371h144q113 0 185 61t72 180q0 130 -163 130z" />
    <glyph glyph-name="germandbls" unicode="&#xdf;" horiz-adv-x="621" 
d="M573 157q0 -70 -60.5 -118.5t-149.5 -48.5q-77 0 -125.5 35t-48.5 88q0 33 21 58.5t54 33.5l4 -8q-31 -8 -50 -31t-19 -53q0 -48 44.5 -80t113.5 -32q65 0 106 33.5t41 90.5q0 28 -19 47t-72 48q-64 35 -90 62.5t-26 63.5q0 23 9 43t19 34t38 34t45 30t60 36
q56 33 77.5 58t21.5 68q0 40 -36 68.5t-94 28.5q-84 0 -131 -55t-77 -177l-182 -729h-88l178 712q33 129 106.5 195.5t178.5 66.5q72 0 113.5 -32.5t41.5 -77.5q0 -46 -24 -74.5t-79 -60.5q-69 -42 -92.5 -65.5t-23.5 -60.5q0 -22 20.5 -42t75.5 -50q67 -36 93 -65t26 -74z
" />
    <glyph glyph-name="agrave" unicode="&#xe0;" horiz-adv-x="585" 
d="M357 557l-106 192h81l29 -192h-4zM360 68q0 18 11 58q-30 -59 -79.5 -97.5t-108.5 -38.5q-72 0 -115 49t-43 128q0 131 79 230t191 99q61 0 95.5 -40.5t35.5 -101.5l42 132h79l-103 -413q-3 -13 -3 -25q0 -38 34 -38q48 0 77 64l7 -3q-37 -81 -116 -81q-39 0 -61 21.5
t-22 56.5zM383 175l25 104q9 36 9 69q0 56 -27.5 90.5t-75.5 34.5q-86 0 -143.5 -104t-57.5 -228q-2 -129 93 -129q55 0 104 47t73 116z" />
    <glyph glyph-name="aacute" unicode="&#xe1;" horiz-adv-x="585" 
d="M455 749h87l-202 -192h-4zM360 68q0 18 11 58q-30 -59 -79.5 -97.5t-108.5 -38.5q-72 0 -115 49t-43 128q0 131 79 230t191 99q61 0 95.5 -40.5t35.5 -101.5l42 132h79l-103 -413q-3 -13 -3 -25q0 -38 34 -38q48 0 77 64l7 -3q-37 -81 -116 -81q-39 0 -61 21.5t-22 56.5z
M383 175l25 104q9 36 9 69q0 56 -27.5 90.5t-75.5 34.5q-86 0 -143.5 -104t-57.5 -228q-2 -129 93 -129q55 0 104 47t73 116z" />
    <glyph glyph-name="acircumflex" unicode="&#xe2;" horiz-adv-x="585" 
d="M450 547l-78 153l-156 -153h-13l208 204h2l103 -204h-66zM360 68q0 18 11 58q-30 -59 -79.5 -97.5t-108.5 -38.5q-72 0 -115 49t-43 128q0 131 79 230t191 99q61 0 95.5 -40.5t35.5 -101.5l42 132h79l-103 -413q-3 -13 -3 -25q0 -38 34 -38q48 0 77 64l7 -3
q-37 -81 -116 -81q-39 0 -61 21.5t-22 56.5zM383 175l25 104q9 36 9 69q0 56 -27.5 90.5t-75.5 34.5q-86 0 -143.5 -104t-57.5 -228q-2 -129 93 -129q55 0 104 47t73 116z" />
    <glyph glyph-name="atilde" unicode="&#xe3;" horiz-adv-x="585" 
d="M425 586q-29 0 -71 42t-69 42q-50 0 -84 -87h-10q21 62 55.5 97t74.5 35q20 0 39.5 -13.5t33 -29t32 -29t36.5 -13.5q50 0 83 88h10q-21 -62 -55.5 -97t-74.5 -35zM360 68q0 18 11 58q-30 -59 -79.5 -97.5t-108.5 -38.5q-72 0 -115 49t-43 128q0 131 79 230t191 99
q61 0 95.5 -40.5t35.5 -101.5l42 132h79l-103 -413q-3 -13 -3 -25q0 -38 34 -38q48 0 77 64l7 -3q-37 -81 -116 -81q-39 0 -61 21.5t-22 56.5zM383 175l25 104q9 36 9 69q0 56 -27.5 90.5t-75.5 34.5q-86 0 -143.5 -104t-57.5 -228q-2 -129 93 -129q55 0 104 47t73 116z" />
    <glyph glyph-name="adieresis" unicode="&#xe4;" horiz-adv-x="585" 
d="M399 597l27 110h75l-27 -110h-75zM247 597l27 110h75l-27 -110h-75zM360 68q0 18 11 58q-30 -59 -79.5 -97.5t-108.5 -38.5q-72 0 -115 49t-43 128q0 131 79 230t191 99q61 0 95.5 -40.5t35.5 -101.5l42 132h79l-103 -413q-3 -13 -3 -25q0 -38 34 -38q48 0 77 64l7 -3
q-37 -81 -116 -81q-39 0 -61 21.5t-22 56.5zM383 175l25 104q9 36 9 69q0 56 -27.5 90.5t-75.5 34.5q-86 0 -143.5 -104t-57.5 -228q-2 -129 93 -129q55 0 104 47t73 116z" />
    <glyph glyph-name="aring" unicode="&#xe5;" horiz-adv-x="585" 
d="M284 644q0 42 30.5 70.5t70.5 28.5q34 0 57 -23t23 -56q0 -42 -31 -70t-71 -28q-34 0 -56.5 22.5t-22.5 55.5zM455 664q0 29 -20 49t-50 20q-36 0 -63.5 -25.5t-27.5 -63.5q0 -29 20 -48.5t49 -19.5q37 0 64.5 25t27.5 63zM360 68q0 18 11 58q-30 -59 -79.5 -97.5
t-108.5 -38.5q-72 0 -115 49t-43 128q0 131 79 230t191 99q61 0 95.5 -40.5t35.5 -101.5l42 132h79l-103 -413q-3 -13 -3 -25q0 -38 34 -38q48 0 77 64l7 -3q-37 -81 -116 -81q-39 0 -61 21.5t-22 56.5zM383 175l25 104q9 36 9 69q0 56 -27.5 90.5t-75.5 34.5
q-86 0 -143.5 -104t-57.5 -228q-2 -129 93 -129q55 0 104 47t73 116z" />
    <glyph glyph-name="ae" unicode="&#xe6;" horiz-adv-x="815" 
d="M557 -10q-66 0 -116 36.5t-66 98.5q-30 -58 -81 -96.5t-109 -38.5q-72 0 -116 49t-44 128q0 131 80 230t193 99q57 0 92.5 -36t40.5 -92q42 59 104.5 93.5t132.5 34.5q65 0 102.5 -29.5t37.5 -74.5q0 -43 -28 -74.5t-77.5 -49.5t-110 -27t-132.5 -9q-6 -38 -6 -75
q0 -73 33.5 -113t87.5 -40q60 0 110 32t77 91l9 -3q-29 -63 -85.5 -98.5t-128.5 -35.5zM665 487q-72 0 -127.5 -72t-75.5 -174q138 2 208.5 41.5t70.5 130.5q0 74 -76 74zM209 12q47 0 91 35.5t72 91.5q-4 17 -4 40q0 95 55 177q-2 54 -30.5 86t-74.5 32q-59 0 -107 -51.5
t-73 -127t-26 -154.5q-1 -61 23 -95t74 -34z" />
    <glyph glyph-name="ccedilla" unicode="&#xe7;" horiz-adv-x="464" 
d="M146 -225q-36 0 -60 16t-32 42l10 5q14 -50 72 -50q35 0 57.5 25.5t22.5 62.5q0 26 -20 37t-64 11l45 69q-65 11 -107 63t-42 128q0 124 83 218t202 94q64 0 98 -30t34 -75q0 -69 -63 -98l-4 9q57 25 57 89q0 38 -27 64.5t-80 26.5q-63 0 -113 -49t-76 -123t-26 -155
q0 -72 31 -111.5t84 -39.5q58 0 104 33t73 92l9 -5q-29 -63 -81.5 -98.5t-123.5 -35.5q-15 0 -22 1l-39 -59q51 0 84 -17t33 -50q0 -37 -34.5 -63.5t-84.5 -26.5z" />
    <glyph glyph-name="egrave" unicode="&#xe8;" horiz-adv-x="474" 
d="M349 557l-106 192h81l29 -192h-4zM216 -10q-81 0 -135 52t-54 137q0 124 89 220.5t210 96.5q66 0 103.5 -29.5t37.5 -74.5q0 -41 -28.5 -72t-78.5 -49.5t-110 -27.5t-131 -11q-7 -35 -7 -75q0 -73 33.5 -113t88.5 -40q60 0 110 32t77 91l9 -3q-29 -63 -86 -98.5
t-128 -35.5zM323 487q-72 0 -127.5 -71.5t-75.5 -173.5q280 8 280 171q0 74 -77 74z" />
    <glyph glyph-name="eacute" unicode="&#xe9;" horiz-adv-x="474" 
d="M447 749h87l-202 -192h-4zM216 -10q-81 0 -135 52t-54 137q0 124 89 220.5t210 96.5q66 0 103.5 -29.5t37.5 -74.5q0 -41 -28.5 -72t-78.5 -49.5t-110 -27.5t-131 -11q-7 -35 -7 -75q0 -73 33.5 -113t88.5 -40q60 0 110 32t77 91l9 -3q-29 -63 -86 -98.5t-128 -35.5z
M323 487q-72 0 -127.5 -71.5t-75.5 -173.5q280 8 280 171q0 74 -77 74z" />
    <glyph glyph-name="ecircumflex" unicode="&#xea;" horiz-adv-x="474" 
d="M431 547l-78 153l-156 -153h-13l208 204h2l103 -204h-66zM216 -10q-81 0 -135 52t-54 137q0 124 89 220.5t210 96.5q66 0 103.5 -29.5t37.5 -74.5q0 -41 -28.5 -72t-78.5 -49.5t-110 -27.5t-131 -11q-7 -35 -7 -75q0 -73 33.5 -113t88.5 -40q60 0 110 32t77 91l9 -3
q-29 -63 -86 -98.5t-128 -35.5zM323 487q-72 0 -127.5 -71.5t-75.5 -173.5q280 8 280 171q0 74 -77 74z" />
    <glyph glyph-name="edieresis" unicode="&#xeb;" horiz-adv-x="474" 
d="M383 597l27 110h75l-27 -110h-75zM231 597l27 110h75l-27 -110h-75zM216 -10q-81 0 -135 52t-54 137q0 124 89 220.5t210 96.5q66 0 103.5 -29.5t37.5 -74.5q0 -41 -28.5 -72t-78.5 -49.5t-110 -27.5t-131 -11q-7 -35 -7 -75q0 -73 33.5 -113t88.5 -40q60 0 110 32t77 91
l9 -3q-29 -63 -86 -98.5t-128 -35.5zM323 487q-72 0 -127.5 -71.5t-75.5 -173.5q280 8 280 171q0 74 -77 74z" />
    <glyph glyph-name="igrave" unicode="&#xec;" horiz-adv-x="271" 
d="M208 557l-106 192h81l29 -192h-4zM225 486l-102 -413q-4 -12 -4 -25q0 -38 35 -38q48 0 77 64l7 -3q-37 -81 -117 -81q-40 0 -61.5 21.5t-21.5 58.5q0 17 4 32l95 384h88z" />
    <glyph glyph-name="iacute" unicode="&#xed;" horiz-adv-x="271" 
d="M306 749h87l-202 -192h-4zM225 486l-102 -413q-4 -12 -4 -25q0 -38 35 -38q48 0 77 64l7 -3q-37 -81 -117 -81q-40 0 -61.5 21.5t-21.5 58.5q0 17 4 32l95 384h88z" />
    <glyph glyph-name="icircumflex" unicode="&#xee;" horiz-adv-x="271" 
d="M275 547l-51 149l-132 -149h-13l182 204h2l78 -204h-66zM225 486l-102 -413q-4 -12 -4 -25q0 -38 35 -38q48 0 77 64l7 -3q-37 -81 -117 -81q-40 0 -61.5 21.5t-21.5 58.5q0 17 4 32l95 384h88z" />
    <glyph glyph-name="idieresis" unicode="&#xef;" horiz-adv-x="271" 
d="M251 597l27 110h75l-27 -110h-75zM99 597l27 110h75l-27 -110h-75zM225 486l-102 -413q-4 -12 -4 -25q0 -38 35 -38q48 0 77 64l7 -3q-37 -81 -117 -81q-40 0 -61.5 21.5t-21.5 58.5q0 17 4 32l95 384h88z" />
    <glyph glyph-name="eth" unicode="&#xf0;" horiz-adv-x="531" 
d="M217 -10q-84 0 -136.5 56.5t-52.5 139.5q0 124 83.5 217t203.5 93q77 0 113 -66q0 128 -68 215l-139 -70l-4 9l136 69q-60 71 -166 99l3 9q112 -28 186 -96l114 58l5 -9l-111 -56q122 -118 122 -303q0 -159 -82.5 -262t-206.5 -103zM109 134q0 -66 27.5 -100t79.5 -34
q103 0 167 159q40 105 40 194q0 133 -107 133q-102 0 -167 -158q-40 -105 -40 -194z" />
    <glyph glyph-name="ntilde" unicode="&#xf1;" horiz-adv-x="580" 
d="M439 586q-29 0 -71 42t-69 42q-50 0 -84 -87h-10q21 62 55.5 97t74.5 35q20 0 39.5 -13.5t33 -29t32 -29t36.5 -13.5q50 0 83 88h10q-21 -62 -55.5 -97t-74.5 -35zM508 328l-63 -255q-4 -18 -4 -25q0 -38 35 -38q48 0 77 64l7 -3q-37 -81 -116 -81q-40 0 -62 21.5
t-22 58.5q0 17 4 32l62 247q8 34 8 59q0 69 -67 69q-56 0 -110 -50t-75 -123l-76 -304h-88l121 486h85l-28 -124q32 61 86.5 97.5t113.5 36.5q54 0 86.5 -32t32.5 -86q0 -18 -7 -50z" />
    <glyph glyph-name="ograve" unicode="&#xf2;" horiz-adv-x="533" 
d="M351 557l-106 192h81l29 -192h-4zM28 186q0 124 83.5 217t203.5 93q83 0 136 -56t53 -139q0 -125 -83.5 -218t-203.5 -93q-84 0 -136.5 56.5t-52.5 139.5zM109 134q0 -66 27.5 -100t79.5 -34q103 0 167 159q40 105 40 194q0 133 -107 133q-102 0 -167 -158
q-40 -105 -40 -194z" />
    <glyph glyph-name="oacute" unicode="&#xf3;" horiz-adv-x="533" 
d="M449 749h87l-202 -192h-4zM28 186q0 124 83.5 217t203.5 93q83 0 136 -56t53 -139q0 -125 -83.5 -218t-203.5 -93q-84 0 -136.5 56.5t-52.5 139.5zM109 134q0 -66 27.5 -100t79.5 -34q103 0 167 159q40 105 40 194q0 133 -107 133q-102 0 -167 -158q-40 -105 -40 -194z
" />
    <glyph glyph-name="ocircumflex" unicode="&#xf4;" horiz-adv-x="533" 
d="M436 547l-78 153l-156 -153h-13l208 204h2l103 -204h-66zM28 186q0 124 83.5 217t203.5 93q83 0 136 -56t53 -139q0 -125 -83.5 -218t-203.5 -93q-84 0 -136.5 56.5t-52.5 139.5zM109 134q0 -66 27.5 -100t79.5 -34q103 0 167 159q40 105 40 194q0 133 -107 133
q-102 0 -167 -158q-40 -105 -40 -194z" />
    <glyph glyph-name="otilde" unicode="&#xf5;" horiz-adv-x="533" 
d="M420 586q-24 0 -48 21t-47 42t-45 21q-50 0 -84 -87h-10q21 62 55.5 97t74.5 35q20 0 39.5 -13.5t33 -29t32 -29t36.5 -13.5q50 0 83 88h10q-21 -62 -55.5 -97t-74.5 -35zM28 186q0 124 83.5 217t203.5 93q83 0 136 -56t53 -139q0 -125 -83.5 -218t-203.5 -93
q-84 0 -136.5 56.5t-52.5 139.5zM109 134q0 -66 27.5 -100t79.5 -34q103 0 167 159q40 105 40 194q0 133 -107 133q-102 0 -167 -158q-40 -105 -40 -194z" />
    <glyph glyph-name="odieresis" unicode="&#xf6;" horiz-adv-x="533" 
d="M393 597l27 110h75l-27 -110h-75zM241 597l27 110h75l-27 -110h-75zM28 186q0 124 83.5 217t203.5 93q83 0 136 -56t53 -139q0 -125 -83.5 -218t-203.5 -93q-84 0 -136.5 56.5t-52.5 139.5zM109 134q0 -66 27.5 -100t79.5 -34q103 0 167 159q40 105 40 194
q0 133 -107 133q-102 0 -167 -158q-40 -105 -40 -194z" />
    <glyph glyph-name="divide" unicode="&#xf7;" horiz-adv-x="488" 
d="M257 442l17 71h73l-17 -71h-73zM62 315l2 10h400l-2 -10h-400zM178 127l18 71h73l-18 -71h-73z" />
    <glyph glyph-name="oslash" unicode="&#xf8;" horiz-adv-x="533" 
d="M417 408l-298 -343q24 -65 97 -65q103 0 167 159q40 105 40 194q0 31 -6 55zM116 76l297 344q-23 66 -97 66q-102 0 -167 -158q-40 -105 -40 -194q0 -34 7 -58zM93 35l-46 -53l-8 5l47 54q-58 56 -58 145q0 124 83.5 217t203.5 93q74 0 125 -45l47 54l9 -5l-49 -56
q57 -55 57 -143q0 -125 -83.5 -218t-203.5 -93q-73 0 -124 45z" />
    <glyph glyph-name="ugrave" unicode="&#xf9;" horiz-adv-x="583" 
d="M356 557l-106 192h81l29 -192h-4zM221 486l-87 -348q-8 -32 -8 -56q0 -72 67 -72q57 0 110.5 51t73.5 132l73 293h88l-103 -413q-3 -13 -3 -25q0 -38 35 -38q47 0 76 64l7 -3q-37 -81 -116 -81q-39 0 -61 21.5t-22 56.5q0 22 9 56q-32 -62 -84 -98t-109 -36
q-55 0 -88.5 32t-33.5 88q0 23 6 48l82 328h88z" />
    <glyph glyph-name="uacute" unicode="&#xfa;" horiz-adv-x="583" 
d="M454 749h87l-202 -192h-4zM221 486l-87 -348q-8 -32 -8 -56q0 -72 67 -72q57 0 110.5 51t73.5 132l73 293h88l-103 -413q-3 -13 -3 -25q0 -38 35 -38q47 0 76 64l7 -3q-37 -81 -116 -81q-39 0 -61 21.5t-22 56.5q0 22 9 56q-32 -62 -84 -98t-109 -36q-55 0 -88.5 32
t-33.5 88q0 23 6 48l82 328h88z" />
    <glyph glyph-name="ucircumflex" unicode="&#xfb;" horiz-adv-x="583" 
d="M449 547l-78 153l-156 -153h-13l208 204h2l103 -204h-66zM221 486l-87 -348q-8 -32 -8 -56q0 -72 67 -72q57 0 110.5 51t73.5 132l73 293h88l-103 -413q-3 -13 -3 -25q0 -38 35 -38q47 0 76 64l7 -3q-37 -81 -116 -81q-39 0 -61 21.5t-22 56.5q0 22 9 56q-32 -62 -84 -98
t-109 -36q-55 0 -88.5 32t-33.5 88q0 23 6 48l82 328h88z" />
    <glyph glyph-name="udieresis" unicode="&#xfc;" horiz-adv-x="583" 
d="M399 597l27 110h75l-27 -110h-75zM247 597l27 110h75l-27 -110h-75zM221 486l-87 -348q-8 -32 -8 -56q0 -72 67 -72q57 0 110.5 51t73.5 132l73 293h88l-103 -413q-3 -13 -3 -25q0 -38 35 -38q47 0 76 64l7 -3q-37 -81 -116 -81q-39 0 -61 21.5t-22 56.5q0 22 9 56
q-32 -62 -84 -98t-109 -36q-55 0 -88.5 32t-33.5 88q0 23 6 48l82 328h88z" />
    <glyph glyph-name="yacute" unicode="&#xfd;" horiz-adv-x="549" 
d="M454 749h87l-202 -192h-4zM533 486l-108 -432q-37 -147 -115.5 -213t-195.5 -66q-72 0 -116.5 34.5t-44.5 86.5q0 73 69 96l4 -9q-63 -19 -63 -87q0 -49 41 -79t100 -30q96 0 146.5 60t80.5 182l25 101q-32 -61 -82 -94t-109 -33q-53 0 -85 31.5t-32 86.5q0 26 7 51
l79 314h88l-84 -335q-9 -33 -9 -60q0 -68 66 -68q56 0 107.5 49t71.5 130l71 284h88z" />
    <glyph glyph-name="thorn" unicode="&#xfe;" horiz-adv-x="572" 
d="M183 312l-26 -105q-9 -36 -9 -68q0 -57 29 -91.5t78 -34.5q60 0 108.5 53t72.5 129t24 154q0 126 -95 126q-58 0 -108.5 -47t-73.5 -116zM139 133l-86 -348h-89l241 964h88l-98 -389q30 59 81 97.5t114 38.5q72 0 114.5 -47t42.5 -126q0 -130 -80.5 -231.5t-192.5 -101.5
q-62 0 -98 41t-37 102z" />
    <glyph glyph-name="ydieresis" unicode="&#xff;" horiz-adv-x="549" 
d="M399 597l27 110h75l-27 -110h-75zM247 597l27 110h75l-27 -110h-75zM533 486l-108 -432q-37 -147 -115.5 -213t-195.5 -66q-72 0 -116.5 34.5t-44.5 86.5q0 73 69 96l4 -9q-63 -19 -63 -87q0 -49 41 -79t100 -30q96 0 146.5 60t80.5 182l25 101q-32 -61 -82 -94t-109 -33
q-53 0 -85 31.5t-32 86.5q0 26 7 51l79 314h88l-84 -335q-9 -33 -9 -60q0 -68 66 -68q56 0 107.5 49t71.5 130l71 284h88z" />
    <glyph glyph-name="Amacron" unicode="&#x100;" horiz-adv-x="670" 
d="M607 785h-281l3 10h281zM451 248l-70 350l-243 -350h313zM500 0l-47 237h-322l-165 -237h-13l492 710h4l146 -710h-95z" />
    <glyph glyph-name="amacron" unicode="&#x101;" horiz-adv-x="585" 
d="M508 632h-280l3 10h280zM360 68q0 18 11 58q-30 -59 -79.5 -97.5t-108.5 -38.5q-72 0 -115 49t-43 128q0 131 79 230t191 99q61 0 95.5 -40.5t35.5 -101.5l42 132h79l-103 -413q-3 -13 -3 -25q0 -38 34 -38q48 0 77 64l7 -3q-37 -81 -116 -81q-39 0 -61 21.5t-22 56.5z
M383 175l25 104q9 36 9 69q0 56 -27.5 90.5t-75.5 34.5q-86 0 -143.5 -104t-57.5 -228q-2 -129 93 -129q55 0 104 47t73 116z" />
    <glyph glyph-name="Abreve" unicode="&#x102;" horiz-adv-x="670" 
d="M648 923q-20 -75 -72 -123.5t-115 -48.5q-64 0 -93.5 48.5t-10.5 123.5h8q-13 -59 13.5 -87t94.5 -28q131 0 168 115h7zM451 248l-70 350l-243 -350h313zM500 0l-47 237h-322l-165 -237h-13l492 710h4l146 -710h-95z" />
    <glyph glyph-name="abreve" unicode="&#x103;" horiz-adv-x="585" 
d="M544 748q-20 -84 -70.5 -134t-118.5 -50q-65 0 -93 50.5t-8 133.5h7q-14 -65 12.5 -96t94.5 -31q134 0 170 127h6zM360 68q0 18 11 58q-30 -59 -79.5 -97.5t-108.5 -38.5q-72 0 -115 49t-43 128q0 131 79 230t191 99q61 0 95.5 -40.5t35.5 -101.5l42 132h79l-103 -413
q-3 -13 -3 -25q0 -38 34 -38q48 0 77 64l7 -3q-37 -81 -116 -81q-39 0 -61 21.5t-22 56.5zM383 175l25 104q9 36 9 69q0 56 -27.5 90.5t-75.5 34.5q-86 0 -143.5 -104t-57.5 -228q-2 -129 93 -129q55 0 104 47t73 116z" />
    <glyph glyph-name="Aogonek" unicode="&#x104;" horiz-adv-x="670" 
d="M451 248l-70 350l-243 -350h313zM538 -132q-49 -93 -133 -93q-35 0 -59.5 20t-24.5 51q0 40 41.5 73.5t136.5 84.5l-46 233h-322l-165 -237h-13l492 710h4l146 -710h-86q-75 -42 -107 -76t-32 -78q0 -25 13.5 -40.5t36.5 -15.5q65 0 110 82z" />
    <glyph glyph-name="aogonek" unicode="&#x105;" horiz-adv-x="585" 
d="M388 -225q-35 0 -59.5 20t-24.5 51q0 38 37.5 70t116.5 75q-5 -1 -15 -1q-39 0 -61 21.5t-22 56.5q0 18 11 58q-30 -59 -79.5 -97.5t-108.5 -38.5q-72 0 -115 49t-43 128q0 131 79 230t191 99q61 0 95.5 -40.5t35.5 -101.5l42 132h79l-103 -413q-3 -13 -3 -25
q0 -38 34 -38q48 0 77 64l7 -3q-22 -49 -64 -70q-76 -42 -109 -76t-33 -79q0 -25 13.5 -40.5t36.5 -15.5q65 0 110 82l8 -4q-49 -93 -133 -93zM383 175l25 104q9 36 9 69q0 56 -27.5 90.5t-75.5 34.5q-86 0 -143.5 -104t-57.5 -228q-2 -129 93 -129q55 0 104 47t73 116z" />
    <glyph glyph-name="Cacute" unicode="&#x106;" horiz-adv-x="678" 
d="M594 920h90l-196 -171h-4zM472 710q100 0 160.5 -53.5t61.5 -142.5l-11 -2q1 83 -54 133.5t-142 50.5q-94 0 -171.5 -65.5t-120 -170t-42.5 -221.5q0 -119 57 -176.5t146 -57.5q83 0 153 43t113 125l10 -4q-46 -88 -123 -133.5t-169 -45.5q-119 0 -201.5 78.5
t-82.5 213.5q0 112 56.5 210.5t153 158t206.5 59.5z" />
    <glyph glyph-name="cacute" unicode="&#x107;" horiz-adv-x="464" 
d="M442 749h87l-202 -192h-4zM328 482q-63 0 -113 -49t-76 -123t-26 -155q0 -72 31 -111.5t84 -39.5q58 0 104 33t73 92l9 -5q-29 -63 -81.5 -98.5t-123.5 -35.5q-76 0 -128.5 54.5t-52.5 139.5q0 124 83 218t202 94q64 0 98 -30t34 -75q0 -69 -63 -98l-4 9q57 25 57 89
q0 38 -27 64.5t-80 26.5z" />
    <glyph glyph-name="Ccircumflex" unicode="&#x108;" horiz-adv-x="678" 
d="M581 741l-81 139l-151 -139h-13l205 189h2l107 -189h-69zM472 710q100 0 160.5 -53.5t61.5 -142.5l-11 -2q1 83 -54 133.5t-142 50.5q-94 0 -171.5 -65.5t-120 -170t-42.5 -221.5q0 -119 57 -176.5t146 -57.5q83 0 153 43t113 125l10 -4q-46 -88 -123 -133.5t-169 -45.5
q-119 0 -201.5 78.5t-82.5 213.5q0 112 56.5 210.5t153 158t206.5 59.5z" />
    <glyph glyph-name="ccircumflex" unicode="&#x109;" horiz-adv-x="464" 
d="M427 547l-78 153l-156 -153h-13l208 204h2l103 -204h-66zM328 482q-63 0 -113 -49t-76 -123t-26 -155q0 -72 31 -111.5t84 -39.5q58 0 104 33t73 92l9 -5q-29 -63 -81.5 -98.5t-123.5 -35.5q-76 0 -128.5 54.5t-52.5 139.5q0 124 83 218t202 94q64 0 98 -30t34 -75
q0 -69 -63 -98l-4 9q57 25 57 89q0 38 -27 64.5t-80 26.5z" />
    <glyph glyph-name="Cdotaccent" unicode="&#x10a;" horiz-adv-x="678" 
d="M453 759l28 112h96l-28 -112h-96zM472 710q100 0 160.5 -53.5t61.5 -142.5l-11 -2q1 83 -54 133.5t-142 50.5q-94 0 -171.5 -65.5t-120 -170t-42.5 -221.5q0 -119 57 -176.5t146 -57.5q83 0 153 43t113 125l10 -4q-46 -88 -123 -133.5t-169 -45.5q-119 0 -201.5 78.5
t-82.5 213.5q0 112 56.5 210.5t153 158t206.5 59.5z" />
    <glyph glyph-name="cdotaccent" unicode="&#x10b;" horiz-adv-x="464" 
d="M302 597l27 110h91l-27 -110h-91zM328 482q-63 0 -113 -49t-76 -123t-26 -155q0 -72 31 -111.5t84 -39.5q58 0 104 33t73 92l9 -5q-29 -63 -81.5 -98.5t-123.5 -35.5q-76 0 -128.5 54.5t-52.5 139.5q0 124 83 218t202 94q64 0 98 -30t34 -75q0 -69 -63 -98l-4 9
q57 25 57 89q0 38 -27 64.5t-80 26.5z" />
    <glyph glyph-name="Ccaron" unicode="&#x10c;" horiz-adv-x="678" 
d="M497 739h-2l-107 189h68l81 -139l151 139h13zM472 710q100 0 160.5 -53.5t61.5 -142.5l-11 -2q1 83 -54 133.5t-142 50.5q-94 0 -171.5 -65.5t-120 -170t-42.5 -221.5q0 -119 57 -176.5t146 -57.5q83 0 153 43t113 125l10 -4q-46 -88 -123 -133.5t-169 -45.5
q-119 0 -201.5 78.5t-82.5 213.5q0 112 56.5 210.5t153 158t206.5 59.5z" />
    <glyph glyph-name="ccaron" unicode="&#x10d;" horiz-adv-x="464" 
d="M334 547h-2l-103 204h66l78 -152l156 152h13zM328 482q-63 0 -113 -49t-76 -123t-26 -155q0 -72 31 -111.5t84 -39.5q58 0 104 33t73 92l9 -5q-29 -63 -81.5 -98.5t-123.5 -35.5q-76 0 -128.5 54.5t-52.5 139.5q0 124 83 218t202 94q64 0 98 -30t34 -75q0 -69 -63 -98
l-4 9q57 25 57 89q0 38 -27 64.5t-80 26.5z" />
    <glyph glyph-name="Dcaron" unicode="&#x10e;" horiz-adv-x="749" 
d="M476 739h-2l-107 189h68l81 -139l151 139h13zM261 0h-235l175 700h209q160 0 249.5 -71t89.5 -194q0 -189 -140 -312t-348 -123zM254 11q97 0 175 38t126 102t73 144t25 168q0 226 -253 226h-107l-169 -678h130z" />
    <glyph glyph-name="dcaron" unicode="&#x10f;" horiz-adv-x="592" 
d="M822 749l-168 -212h-4l89 212h83zM367 68q0 22 11 58q-30 -58 -81 -97t-110 -39q-72 0 -117.5 49t-45.5 127q0 131 79.5 230.5t193.5 99.5q62 0 98 -40.5t38 -101.5l99 395h88l-170 -676q-3 -13 -3 -24q0 -39 35 -39q48 0 77 64l7 -3q-37 -81 -116 -81q-39 0 -61 21.5
t-22 56.5zM390 175l26 104q9 36 9 67q0 58 -29.5 93t-79.5 35q-61 0 -109 -53.5t-71.5 -129t-23.5 -153.5q0 -59 24 -92.5t73 -33.5q56 0 107 47t74 116z" />
    <glyph glyph-name="Dcroat" unicode="&#x110;" horiz-adv-x="765" 
d="M277 0h-235l89 355h-73l2 11h74l83 334h209q160 0 249.5 -71t89.5 -194q0 -189 -140 -312t-348 -123zM140 11h130q97 0 175 38t126 102t73 144t25 168q0 226 -253 226h-107l-81 -323h182l-2 -11h-182z" />
    <glyph glyph-name="dcroat" unicode="&#x111;" horiz-adv-x="592" 
d="M450 -10q-39 0 -61 21.5t-22 56.5q0 22 11 58q-30 -58 -81 -97t-110 -39q-72 0 -117.5 49t-45.5 127q0 131 79.5 230.5t193.5 99.5q62 0 98 -40.5t38 -101.5l70 278h-145l2 10h145l27 107h88l-27 -107h54l-2 -10h-54l-141 -559q-3 -13 -3 -24q0 -39 35 -39q48 0 77 64
l7 -3q-37 -81 -116 -81zM390 175l26 104q9 36 9 67q0 58 -29.5 93t-79.5 35q-61 0 -109 -53.5t-71.5 -129t-23.5 -153.5q0 -59 24 -92.5t73 -33.5q56 0 107 47t74 116z" />
    <glyph glyph-name="Emacron" unicode="&#x112;" horiz-adv-x="616" 
d="M604 785h-281l3 10h281zM26 0l175 700h483l-3 -11h-388l-81 -323h289l-3 -11h-289l-85 -344h402l-3 -11h-497z" />
    <glyph glyph-name="emacron" unicode="&#x113;" horiz-adv-x="474" 
d="M498 632h-280l3 10h280zM216 -10q-81 0 -135 52t-54 137q0 124 89 220.5t210 96.5q66 0 103.5 -29.5t37.5 -74.5q0 -41 -28.5 -72t-78.5 -49.5t-110 -27.5t-131 -11q-7 -35 -7 -75q0 -73 33.5 -113t88.5 -40q60 0 110 32t77 91l9 -3q-29 -63 -86 -98.5t-128 -35.5z
M323 487q-72 0 -127.5 -71.5t-75.5 -173.5q280 8 280 171q0 74 -77 74z" />
    <glyph glyph-name="Ebreve" unicode="&#x114;" horiz-adv-x="616" 
d="M645 923q-20 -75 -72 -123.5t-115 -48.5q-64 0 -93.5 48.5t-10.5 123.5h8q-13 -59 13.5 -87t94.5 -28q131 0 168 115h7zM26 0l175 700h483l-3 -11h-388l-81 -323h289l-3 -11h-289l-85 -344h402l-3 -11h-497z" />
    <glyph glyph-name="ebreve" unicode="&#x115;" horiz-adv-x="474" 
d="M528 748q-20 -84 -70.5 -134t-118.5 -50q-65 0 -93 50.5t-8 133.5h7q-14 -65 12.5 -96t94.5 -31q134 0 170 127h6zM216 -10q-81 0 -135 52t-54 137q0 124 89 220.5t210 96.5q66 0 103.5 -29.5t37.5 -74.5q0 -41 -28.5 -72t-78.5 -49.5t-110 -27.5t-131 -11q-7 -35 -7 -75
q0 -73 33.5 -113t88.5 -40q60 0 110 32t77 91l9 -3q-29 -63 -86 -98.5t-128 -35.5zM323 487q-72 0 -127.5 -71.5t-75.5 -173.5q280 8 280 171q0 74 -77 74z" />
    <glyph glyph-name="Edotaccent" unicode="&#x116;" horiz-adv-x="616" 
d="M410 759l28 112h96l-28 -112h-96zM26 0l175 700h483l-3 -11h-388l-81 -323h289l-3 -11h-289l-85 -344h402l-3 -11h-497z" />
    <glyph glyph-name="edotaccent" unicode="&#x117;" horiz-adv-x="474" 
d="M306 597l27 110h91l-27 -110h-91zM216 -10q-81 0 -135 52t-54 137q0 124 89 220.5t210 96.5q66 0 103.5 -29.5t37.5 -74.5q0 -41 -28.5 -72t-78.5 -49.5t-110 -27.5t-131 -11q-7 -35 -7 -75q0 -73 33.5 -113t88.5 -40q60 0 110 32t77 91l9 -3q-29 -63 -86 -98.5
t-128 -35.5zM323 487q-72 0 -127.5 -71.5t-75.5 -173.5q280 8 280 171q0 74 -77 74z" />
    <glyph glyph-name="Eogonek" unicode="&#x118;" horiz-adv-x="616" 
d="M463 -132q-49 -93 -133 -93q-35 0 -59.5 20t-24.5 51q0 40 41 73.5t130 80.5h-391l175 700h483l-3 -11h-388l-81 -323h289l-3 -11h-289l-85 -344h402l-3 -11h-89q-75 -42 -107 -76t-32 -78q0 -25 13.5 -40.5t36.5 -15.5q65 0 110 82z" />
    <glyph glyph-name="eogonek" unicode="&#x119;" horiz-adv-x="474" 
d="M184 -225q-35 0 -59.5 20t-24.5 51q0 39 38 71t121 77q-19 -4 -43 -4q-81 0 -135 52t-54 137q0 124 89 220.5t210 96.5q66 0 103.5 -29.5t37.5 -74.5q0 -41 -28.5 -72t-78.5 -49.5t-110 -27.5t-131 -11q-7 -35 -7 -75q0 -73 33.5 -113t88.5 -40q60 0 110 32t77 91l9 -3
q-43 -93 -140 -123q-77 -43 -109 -76.5t-32 -78.5q0 -25 13.5 -40.5t36.5 -15.5q65 0 110 82l8 -4q-49 -93 -133 -93zM323 487q-72 0 -127.5 -71.5t-75.5 -173.5q280 8 280 171q0 74 -77 74z" />
    <glyph glyph-name="Ecaron" unicode="&#x11a;" horiz-adv-x="616" 
d="M454 739h-2l-107 189h68l81 -139l151 139h13zM26 0l175 700h483l-3 -11h-388l-81 -323h289l-3 -11h-289l-85 -344h402l-3 -11h-497z" />
    <glyph glyph-name="ecaron" unicode="&#x11b;" horiz-adv-x="474" 
d="M330 547h-2l-103 204h66l78 -152l156 152h13zM216 -10q-81 0 -135 52t-54 137q0 124 89 220.5t210 96.5q66 0 103.5 -29.5t37.5 -74.5q0 -41 -28.5 -72t-78.5 -49.5t-110 -27.5t-131 -11q-7 -35 -7 -75q0 -73 33.5 -113t88.5 -40q60 0 110 32t77 91l9 -3
q-29 -63 -86 -98.5t-128 -35.5zM323 487q-72 0 -127.5 -71.5t-75.5 -173.5q280 8 280 171q0 74 -77 74z" />
    <glyph glyph-name="Gcircumflex" unicode="&#x11c;" horiz-adv-x="740" 
d="M587 741l-81 139l-151 -139h-13l205 189h2l107 -189h-69zM340 -10q-120 0 -202 78t-82 214q0 112 57.5 211t154.5 158t207 59q106 0 167.5 -54t63.5 -145l-11 -3q0 85 -56.5 136.5t-148.5 51.5q-72 0 -136.5 -40t-108.5 -105.5t-70 -150.5t-26 -174q0 -114 54 -170
t137 -56q92 0 156.5 56.5t90.5 157.5l26 102h93l-81 -326h-4l-35 139q-94 -139 -246 -139z" />
    <glyph glyph-name="gcircumflex" unicode="&#x11d;" horiz-adv-x="572" 
d="M442 547l-78 153l-156 -153h-13l208 204h2l103 -204h-66zM398 200l19 79q9 36 9 68q0 58 -29 92.5t-80 34.5q-61 0 -108.5 -51.5t-70 -125.5t-22.5 -151q0 -126 95 -126q60 0 113 50.5t74 129.5zM354 29l27 106q-29 -59 -80.5 -98t-113.5 -39q-73 0 -116 47t-43 126
q0 130 78.5 227.5t191.5 97.5q63 0 99.5 -41t37.5 -101l42 132h79l-108 -432q-39 -149 -119 -214t-198 -65q-75 0 -123.5 33.5t-48.5 89.5q0 35 19 60t51 36l4 -9q-30 -9 -47 -32t-17 -55q0 -50 43.5 -80.5t105.5 -30.5q98 0 151 60.5t85 181.5z" />
    <glyph glyph-name="Gbreve" unicode="&#x11e;" horiz-adv-x="740" 
d="M687 923q-20 -75 -72 -123.5t-115 -48.5q-64 0 -93.5 48.5t-10.5 123.5h8q-13 -59 13.5 -87t94.5 -28q131 0 168 115h7zM340 -10q-120 0 -202 78t-82 214q0 112 57.5 211t154.5 158t207 59q106 0 167.5 -54t63.5 -145l-11 -3q0 85 -56.5 136.5t-148.5 51.5
q-72 0 -136.5 -40t-108.5 -105.5t-70 -150.5t-26 -174q0 -114 54 -170t137 -56q92 0 156.5 56.5t90.5 157.5l26 102h93l-81 -326h-4l-35 139q-94 -139 -246 -139z" />
    <glyph glyph-name="gbreve" unicode="&#x11f;" horiz-adv-x="572" 
d="M536 748q-20 -84 -70.5 -134t-118.5 -50q-65 0 -93 50.5t-8 133.5h7q-14 -65 12.5 -96t94.5 -31q134 0 170 127h6zM398 200l19 79q9 36 9 68q0 58 -29 92.5t-80 34.5q-61 0 -108.5 -51.5t-70 -125.5t-22.5 -151q0 -126 95 -126q60 0 113 50.5t74 129.5zM354 29l27 106
q-29 -59 -80.5 -98t-113.5 -39q-73 0 -116 47t-43 126q0 130 78.5 227.5t191.5 97.5q63 0 99.5 -41t37.5 -101l42 132h79l-108 -432q-39 -149 -119 -214t-198 -65q-75 0 -123.5 33.5t-48.5 89.5q0 35 19 60t51 36l4 -9q-30 -9 -47 -32t-17 -55q0 -50 43.5 -80.5t105.5 -30.5
q98 0 151 60.5t85 181.5z" />
    <glyph glyph-name="Gdotaccent" unicode="&#x120;" horiz-adv-x="740" 
d="M452 759l28 112h96l-28 -112h-96zM340 -10q-120 0 -202 78t-82 214q0 112 57.5 211t154.5 158t207 59q106 0 167.5 -54t63.5 -145l-11 -3q0 85 -56.5 136.5t-148.5 51.5q-72 0 -136.5 -40t-108.5 -105.5t-70 -150.5t-26 -174q0 -114 54 -170t137 -56q92 0 156.5 56.5
t90.5 157.5l26 102h93l-81 -326h-4l-35 139q-94 -139 -246 -139z" />
    <glyph glyph-name="gdotaccent" unicode="&#x121;" horiz-adv-x="572" 
d="M308 597l27 110h91l-27 -110h-91zM398 200l19 79q9 36 9 68q0 58 -29 92.5t-80 34.5q-61 0 -108.5 -51.5t-70 -125.5t-22.5 -151q0 -126 95 -126q60 0 113 50.5t74 129.5zM354 29l27 106q-29 -59 -80.5 -98t-113.5 -39q-73 0 -116 47t-43 126q0 130 78.5 227.5
t191.5 97.5q63 0 99.5 -41t37.5 -101l42 132h79l-108 -432q-39 -149 -119 -214t-198 -65q-75 0 -123.5 33.5t-48.5 89.5q0 35 19 60t51 36l4 -9q-30 -9 -47 -32t-17 -55q0 -50 43.5 -80.5t105.5 -30.5q98 0 151 60.5t85 181.5z" />
    <glyph glyph-name="uni0122" unicode="&#x122;" horiz-adv-x="740" 
d="M340 -10q-120 0 -202 78t-82 214q0 112 57.5 211t154.5 158t207 59q106 0 167.5 -54t63.5 -145l-11 -3q0 85 -56.5 136.5t-148.5 51.5q-72 0 -136.5 -40t-108.5 -105.5t-70 -150.5t-26 -174q0 -114 54 -170t137 -56q92 0 156.5 56.5t90.5 157.5l26 102h93l-81 -326h-4
l-35 139q-94 -139 -246 -139zM248 -152l24 98h100l-25 -99q-12 -50 -48 -79t-97 -24l2 10q108 -8 134 94h-90z" />
    <glyph glyph-name="uni0123" unicode="&#x123;" horiz-adv-x="572" 
d="M430 675l-25 -98h-100l25 99q12 50 48 79t97 24l-2 -10q-108 8 -133 -94h90zM398 200l19 79q9 36 9 68q0 58 -29 92.5t-80 34.5q-61 0 -108.5 -51.5t-70 -125.5t-22.5 -151q0 -126 95 -126q60 0 113 50.5t74 129.5zM354 29l27 106q-29 -59 -80.5 -98t-113.5 -39
q-73 0 -116 47t-43 126q0 130 78.5 227.5t191.5 97.5q63 0 99.5 -41t37.5 -101l42 132h79l-108 -432q-39 -149 -119 -214t-198 -65q-75 0 -123.5 33.5t-48.5 89.5q0 35 19 60t51 36l4 -9q-30 -9 -47 -32t-17 -55q0 -50 43.5 -80.5t105.5 -30.5q98 0 151 60.5t85 181.5z" />
    <glyph glyph-name="Hcircumflex" unicode="&#x124;" horiz-adv-x="800" 
d="M624 741l-81 139l-151 -139h-13l205 189h2l107 -189h-69zM26 0l175 700h95l-84 -334h436l84 334h94l-175 -700h-94l88 355h-436l-88 -355h-95z" />
    <glyph glyph-name="hcircumflex" unicode="&#x125;" horiz-adv-x="580" 
d="M501 781l-81 139l-151 -139h-13l205 189h2l107 -189h-69zM182 304l-76 -304h-88l187 749h88l-97 -387q32 61 86.5 97.5t113.5 36.5q54 0 86.5 -32t32.5 -86q0 -18 -7 -50l-63 -255q-4 -18 -4 -25q0 -38 35 -38q48 0 77 64l7 -3q-37 -81 -116 -81q-40 0 -62 21.5t-22 58.5
q0 17 4 32l62 247q8 34 8 59q0 69 -67 69q-56 0 -110 -50t-75 -123z" />
    <glyph glyph-name="Hbar" unicode="&#x126;" horiz-adv-x="824" 
d="M209 294h431l41 166h-430zM206 283l-70 -283h-94l115 460h-74l2 11h75l57 229h94l-58 -229h431l57 229h94l-57 -229h73l-2 -11h-74l-115 -460h-94l71 283h-431z" />
    <glyph glyph-name="hbar" unicode="&#x127;" horiz-adv-x="580" 
d="M560 71q-37 -81 -116 -81q-40 0 -62 21.5t-22 58.5q0 17 4 32l62 247q8 34 8 59q0 69 -67 69q-56 0 -110 -50t-75 -123l-76 -304h-88l158 632h-56l2 10h56l27 107h88l-27 -107h144l-2 -10h-144l-68 -270q32 61 86.5 97.5t113.5 36.5q54 0 86.5 -32t32.5 -86q0 -18 -7 -50
l-63 -255q-4 -18 -4 -25q0 -38 35 -38q48 0 77 64z" />
    <glyph glyph-name="Itilde" unicode="&#x128;" horiz-adv-x="270" 
d="M340 766q-29 0 -78.5 42t-76.5 42q-49 0 -84 -87h-9q20 62 54.5 96.5t75.5 34.5q30 0 79.5 -42t76.5 -42q49 0 83 88h9q-20 -62 -54.5 -97t-75.5 -35zM296 700l-175 -700h-95l175 700h95z" />
    <glyph glyph-name="itilde" unicode="&#x129;" horiz-adv-x="271" 
d="M277 586q-26 0 -61.5 42t-53.5 42q-41 0 -69 -87h-9q17 62 46.5 97t65.5 35q21 0 42 -21.5t39 -42.5t33 -21q42 0 70 88h8q-17 -62 -46.5 -97t-64.5 -35zM225 486l-102 -413q-4 -12 -4 -25q0 -38 35 -38q48 0 77 64l7 -3q-37 -81 -117 -81q-40 0 -61.5 21.5t-21.5 58.5
q0 17 4 32l95 384h88z" />
    <glyph glyph-name="Imacron" unicode="&#x12a;" horiz-adv-x="270" 
d="M411 785h-281l3 10h281zM296 700l-175 -700h-95l175 700h95z" />
    <glyph glyph-name="imacron" unicode="&#x12b;" horiz-adv-x="271" 
d="M336 632h-234l3 10h234zM225 486l-102 -413q-4 -12 -4 -25q0 -38 35 -38q48 0 77 64l7 -3q-37 -81 -117 -81q-40 0 -61.5 21.5t-21.5 58.5q0 17 4 32l95 384h88z" />
    <glyph glyph-name="Ibreve" unicode="&#x12c;" horiz-adv-x="270" 
d="M452 923q-20 -75 -72 -123.5t-115 -48.5q-64 0 -93.5 48.5t-10.5 123.5h8q-13 -59 13.5 -87t94.5 -28q131 0 168 115h7zM296 700l-175 -700h-95l175 700h95z" />
    <glyph glyph-name="ibreve" unicode="&#x12d;" horiz-adv-x="271" 
d="M373 748q-18 -85 -60.5 -134.5t-101.5 -49.5q-57 0 -78 50.5t1 133.5h7q-13 -67 5.5 -97t76.5 -30t92.5 30.5t51.5 96.5h6zM225 486l-102 -413q-4 -12 -4 -25q0 -38 35 -38q48 0 77 64l7 -3q-37 -81 -117 -81q-40 0 -61.5 21.5t-21.5 58.5q0 17 4 32l95 384h88z" />
    <glyph glyph-name="Iogonek" unicode="&#x12e;" horiz-adv-x="270" 
d="M117 -132q-49 -93 -133 -93q-35 0 -59.5 20t-24.5 51q0 40 41 73.5t130 80.5h-45l175 700h95l-175 -700h-33q-75 -42 -107 -76t-32 -78q0 -25 13.5 -40.5t36.5 -15.5q65 0 110 82z" />
    <glyph glyph-name="iogonek" unicode="&#x12f;" horiz-adv-x="271" 
d="M163 597l27 110h91l-27 -110h-91zM66 -225q-35 0 -59.5 20t-24.5 51q0 38 37.5 70t116.5 75q-5 -1 -15 -1q-40 0 -61.5 21.5t-21.5 58.5q0 17 4 32l95 384h88l-102 -413q-4 -12 -4 -25q0 -38 35 -38q48 0 77 64l7 -3q-24 -51 -66 -70q-77 -43 -109 -76.5t-32 -78.5
q0 -25 13.5 -40.5t36.5 -15.5q65 0 110 82l8 -4q-49 -93 -133 -93z" />
    <glyph glyph-name="Idotaccent" unicode="&#x130;" horiz-adv-x="270" 
d="M216 759l28 112h96l-28 -112h-96zM296 700l-175 -700h-95l175 700h95z" />
    <glyph glyph-name="dotlessi" unicode="&#x131;" horiz-adv-x="271" 
d="M225 486l-102 -413q-4 -12 -4 -25q0 -38 35 -38q48 0 77 64l7 -3q-37 -81 -117 -81q-40 0 -61.5 21.5t-21.5 58.5q0 17 4 32l95 384h88z" />
    <glyph glyph-name="Jcircumflex" unicode="&#x134;" horiz-adv-x="553" 
d="M654 741l-81 139l-151 -139h-13l205 189h2l107 -189h-69zM372 192l127 508h95l-122 -486q-26 -105 -103 -164.5t-184 -59.5q-82 0 -132 45t-50 111q0 58 30 101.5t74 62.5l3 -7q-97 -49 -97 -157q0 -61 43.5 -101.5t114.5 -40.5q83 0 130 47.5t71 140.5z" />
    <glyph glyph-name="jcircumflex" unicode="&#x135;" horiz-adv-x="252" 
d="M282 547l-51 149l-132 -149h-13l182 204h2l78 -204h-66zM13 -56l135 542h88l-130 -521q-47 -190 -200 -190q-48 0 -75.5 23t-27.5 61q0 43 36 66l7 -7q-32 -22 -32 -59q0 -32 21 -50.5t54 -18.5q44 0 74 35.5t50 118.5z" />
    <glyph glyph-name="uni0136" unicode="&#x136;" horiz-adv-x="695" 
d="M508 0l-208 357l-111 -85l-68 -272h-95l175 700h95l-103 -412l540 412h17l-373 -284l236 -416h-105zM222 -152l24 98h100l-25 -99q-12 -50 -48 -79t-97 -24l2 10q108 -8 134 94h-90z" />
    <glyph glyph-name="uni0137" unicode="&#x137;" horiz-adv-x="535" 
d="M396 -10q-70 0 -97 75l-71 169l-80 -61l-43 -173h-88l187 749h88l-139 -559l387 296h17l-263 -201l88 -211q22 -55 55 -55q41 0 63 66l8 -2q-30 -93 -112 -93zM128 -152l24 98h100l-25 -99q-12 -50 -48 -79t-97 -24l2 10q108 -8 134 94h-90z" />
    <glyph glyph-name="kgreenlandic" unicode="&#x138;" horiz-adv-x="535" 
d="M394 -10q-68 0 -95 75l-71 169l-80 -61l-43 -173h-88l121 486h88l-74 -296l388 296h17l-263 -201l88 -211q12 -29 23.5 -42t29.5 -13q42 0 62 66l8 -2q-30 -93 -111 -93z" />
    <glyph glyph-name="Lacute" unicode="&#x139;" horiz-adv-x="593" 
d="M363 920h90l-196 -171h-4zM26 0l175 700h95l-172 -689h379l-3 -11h-474z" />
    <glyph glyph-name="lacute" unicode="&#x13a;" horiz-adv-x="272" 
d="M363 952h90l-196 -171h-4zM292 749l-169 -676q-3 -13 -3 -25q0 -38 34 -38q48 0 77 64l7 -3q-37 -81 -116 -81q-40 0 -62 21.5t-22 58.5q0 17 4 32l162 647h88z" />
    <glyph glyph-name="uni013B" unicode="&#x13b;" horiz-adv-x="593" 
d="M26 0l175 700h95l-172 -689h379l-3 -11h-474zM172 -152l24 98h100l-25 -99q-12 -50 -48 -79t-97 -24l2 10q108 -8 134 94h-90z" />
    <glyph glyph-name="uni013C" unicode="&#x13c;" horiz-adv-x="272" 
d="M292 749l-169 -676q-3 -13 -3 -25q0 -38 34 -38q48 0 77 64l7 -3q-37 -81 -116 -81q-40 0 -62 21.5t-22 58.5q0 17 4 32l162 647h88zM32 -152l24 98h100l-25 -99q-12 -50 -48 -79t-97 -24l2 10q108 -8 134 94h-90z" />
    <glyph glyph-name="Lcaron" unicode="&#x13d;" horiz-adv-x="593" 
d="M603 749l-168 -212h-4l89 212h83zM26 0l175 700h95l-172 -689h379l-3 -11h-474z" />
    <glyph glyph-name="lcaron" unicode="&#x13e;" horiz-adv-x="272" 
d="M292 749l-169 -676q-3 -13 -3 -25q0 -38 34 -38q48 0 77 64l7 -3q-37 -81 -116 -81q-40 0 -62 21.5t-22 58.5q0 17 4 32l162 647h88zM503 749l-168 -212h-4l89 212h83z" />
    <glyph glyph-name="Ldot" unicode="&#x13f;" horiz-adv-x="593" 
d="M26 0l175 700h95l-172 -689h379l-3 -11h-474zM391 295l27 110h91l-27 -110h-91z" />
    <glyph glyph-name="ldot" unicode="&#x140;" horiz-adv-x="379" 
d="M292 749l-169 -676q-3 -13 -3 -25q0 -38 34 -38q48 0 77 64l7 -3q-37 -81 -116 -81q-40 0 -62 21.5t-22 58.5q0 17 4 32l162 647h88zM280 314l27 110h91l-27 -110h-91z" />
    <glyph glyph-name="Lslash" unicode="&#x141;" horiz-adv-x="610" 
d="M516 0h-474l67 267l-86 -45l3 15l86 45l105 418h95l-93 -371l188 96l-4 -14l-187 -97l-76 -303h379z" />
    <glyph glyph-name="lslash" unicode="&#x142;" horiz-adv-x="298" 
d="M135 -10q-40 0 -62 21.5t-22 58.5q0 17 4 32l68 272l-90 -50l3 14l91 51l90 360h88l-78 -312l106 59l-3 -14l-107 -60l-87 -349q-3 -13 -3 -25q0 -38 34 -38q48 0 77 64l7 -3q-37 -81 -116 -81z" />
    <glyph glyph-name="Nacute" unicode="&#x143;" horiz-adv-x="749" 
d="M596 920h90l-196 -171h-4zM616 113l147 587h12l-177 -710h-4l-409 600l-147 -590h-12l177 710h4z" />
    <glyph glyph-name="nacute" unicode="&#x144;" horiz-adv-x="580" 
d="M468 749h87l-202 -192h-4zM508 328l-63 -255q-4 -18 -4 -25q0 -38 35 -38q48 0 77 64l7 -3q-37 -81 -116 -81q-40 0 -62 21.5t-22 58.5q0 17 4 32l62 247q8 34 8 59q0 69 -67 69q-56 0 -110 -50t-75 -123l-76 -304h-88l121 486h85l-28 -124q32 61 86.5 97.5t113.5 36.5
q54 0 86.5 -32t32.5 -86q0 -18 -7 -50z" />
    <glyph glyph-name="uni0145" unicode="&#x145;" horiz-adv-x="749" 
d="M616 113l147 587h12l-177 -710h-4l-409 600l-147 -590h-12l177 710h4zM228 -152l24 98h100l-25 -99q-12 -50 -48 -79t-97 -24l2 10q108 -8 134 94h-90z" />
    <glyph glyph-name="uni0146" unicode="&#x146;" horiz-adv-x="580" 
d="M508 328l-63 -255q-4 -18 -4 -25q0 -38 35 -38q48 0 77 64l7 -3q-37 -81 -116 -81q-40 0 -62 21.5t-22 58.5q0 17 4 32l62 247q8 34 8 59q0 69 -67 69q-56 0 -110 -50t-75 -123l-76 -304h-88l121 486h85l-28 -124q32 61 86.5 97.5t113.5 36.5q54 0 86.5 -32t32.5 -86
q0 -18 -7 -50zM143 -152l24 98h100l-25 -99q-12 -50 -48 -79t-97 -24l2 10q108 -8 134 94h-90z" />
    <glyph glyph-name="Ncaron" unicode="&#x147;" horiz-adv-x="749" 
d="M500 739h-2l-107 189h68l81 -139l151 139h13zM616 113l147 587h12l-177 -710h-4l-409 600l-147 -590h-12l177 710h4z" />
    <glyph glyph-name="ncaron" unicode="&#x148;" horiz-adv-x="580" 
d="M359 547h-2l-103 204h66l78 -152l156 152h13zM508 328l-63 -255q-4 -18 -4 -25q0 -38 35 -38q48 0 77 64l7 -3q-37 -81 -116 -81q-40 0 -62 21.5t-22 58.5q0 17 4 32l62 247q8 34 8 59q0 69 -67 69q-56 0 -110 -50t-75 -123l-76 -304h-88l121 486h85l-28 -124
q32 61 86.5 97.5t113.5 36.5q54 0 86.5 -32t32.5 -86q0 -18 -7 -50z" />
    <glyph glyph-name="Eng" unicode="&#x14a;" horiz-adv-x="748" 
d="M417 -215q64 0 104.5 55.5t67.5 158.5l-404 591l-147 -590h-12l177 710h4l409 -597l147 587h12l-179 -715q-53 -210 -179 -210q-38 0 -65.5 24.5t-27.5 62.5q0 39 24 60l8 -3q-22 -27 -22 -57q0 -34 25 -55.5t58 -21.5z" />
    <glyph glyph-name="eng" unicode="&#x14b;" horiz-adv-x="559" 
d="M320 -56l101 405q9 38 9 59q0 69 -68 69q-55 0 -109.5 -50t-75.5 -123l-76 -304h-88l121 486h85l-28 -124q32 61 86.5 97.5t113.5 36.5q54 0 86.5 -32t32.5 -86q0 -23 -6 -50l-91 -363q-47 -190 -200 -190q-48 0 -75.5 23t-27.5 61q0 43 36 66l7 -7q-32 -22 -32 -59
q0 -32 21 -50.5t54 -18.5q44 0 74 35.5t50 118.5z" />
    <glyph glyph-name="Omacron" unicode="&#x14c;" horiz-adv-x="765" 
d="M658 785h-281l3 10h281zM478 710q117 0 200.5 -79t83.5 -213q0 -109 -55 -207t-153.5 -159.5t-213.5 -61.5q-117 0 -201 79t-84 213q0 108 55.5 206.5t154 160t213.5 61.5zM478 700q-88 0 -158 -57.5t-114 -155.5q-58 -135 -58 -272q0 -110 53.5 -162.5t138.5 -52.5
q87 0 157 58t114 155q58 135 58 272q0 110 -53.5 162.5t-137.5 52.5z" />
    <glyph glyph-name="omacron" unicode="&#x14d;" horiz-adv-x="533" 
d="M500 632h-280l3 10h280zM28 186q0 124 83.5 217t203.5 93q83 0 136 -56t53 -139q0 -125 -83.5 -218t-203.5 -93q-84 0 -136.5 56.5t-52.5 139.5zM109 134q0 -66 27.5 -100t79.5 -34q103 0 167 159q40 105 40 194q0 133 -107 133q-102 0 -167 -158q-40 -105 -40 -194z" />
    <glyph glyph-name="Obreve" unicode="&#x14e;" horiz-adv-x="765" 
d="M699 923q-20 -75 -72 -123.5t-115 -48.5q-64 0 -93.5 48.5t-10.5 123.5h8q-13 -59 13.5 -87t94.5 -28q131 0 168 115h7zM478 710q117 0 200.5 -79t83.5 -213q0 -109 -55 -207t-153.5 -159.5t-213.5 -61.5q-117 0 -201 79t-84 213q0 108 55.5 206.5t154 160t213.5 61.5z
M478 700q-88 0 -158 -57.5t-114 -155.5q-58 -135 -58 -272q0 -110 53.5 -162.5t138.5 -52.5q87 0 157 58t114 155q58 135 58 272q0 110 -53.5 162.5t-137.5 52.5z" />
    <glyph glyph-name="obreve" unicode="&#x14f;" horiz-adv-x="533" 
d="M538 748q-20 -84 -70.5 -134t-118.5 -50q-65 0 -93 50.5t-8 133.5h7q-14 -65 12.5 -96t94.5 -31q134 0 170 127h6zM28 186q0 124 83.5 217t203.5 93q83 0 136 -56t53 -139q0 -125 -83.5 -218t-203.5 -93q-84 0 -136.5 56.5t-52.5 139.5zM109 134q0 -66 27.5 -100
t79.5 -34q103 0 167 159q40 105 40 194q0 133 -107 133q-102 0 -167 -158q-40 -105 -40 -194z" />
    <glyph glyph-name="Ohungarumlaut" unicode="&#x150;" horiz-adv-x="765" 
d="M666 920h85l-192 -171h-4zM513 920h85l-192 -171h-4zM478 710q117 0 200.5 -79t83.5 -213q0 -109 -55 -207t-153.5 -159.5t-213.5 -61.5q-117 0 -201 79t-84 213q0 108 55.5 206.5t154 160t213.5 61.5zM478 700q-88 0 -158 -57.5t-114 -155.5q-58 -135 -58 -272
q0 -110 53.5 -162.5t138.5 -52.5q87 0 157 58t114 155q58 135 58 272q0 110 -53.5 162.5t-137.5 52.5z" />
    <glyph glyph-name="ohungarumlaut" unicode="&#x151;" horiz-adv-x="533" 
d="M520 749h82l-198 -192h-4zM366 749h82l-197 -192h-4zM28 186q0 124 83.5 217t203.5 93q83 0 136 -56t53 -139q0 -125 -83.5 -218t-203.5 -93q-84 0 -136.5 56.5t-52.5 139.5zM109 134q0 -66 27.5 -100t79.5 -34q103 0 167 159q40 105 40 194q0 133 -107 133
q-102 0 -167 -158q-40 -105 -40 -194z" />
    <glyph glyph-name="OE" unicode="&#x152;" horiz-adv-x="1095" 
d="M392 0q-161 0 -250.5 71t-89.5 194q0 189 140 312t348 123h623l-3 -11h-388l-81 -323h297l-3 -11h-297l-85 -344h402l-3 -11h-610zM547 689q-97 0 -174.5 -38t-125.5 -102t-73.5 -144t-25.5 -168q0 -226 253 -226h108l169 678h-131z" />
    <glyph glyph-name="oe" unicode="&#x153;" horiz-adv-x="847" 
d="M589 -10q-57 0 -100.5 29t-63.5 79q-83 -108 -208 -108q-84 0 -136.5 56.5t-52.5 139.5q0 124 83.5 217t203.5 93q59 0 102 -32.5t62 -85.5q41 54 99 86t122 32q65 0 102.5 -29.5t37.5 -74.5q0 -41 -28.5 -72t-78 -49.5t-109.5 -27.5t-131 -11q-7 -35 -7 -75
q0 -73 33 -113t88 -40q60 0 110 32t77 91l9 -3q-29 -63 -85.5 -98.5t-128.5 -35.5zM696 487q-72 0 -127 -71.5t-75 -173.5q279 8 279 171q0 74 -77 74zM109 134q0 -66 27.5 -100t79.5 -34q103 0 167 159q40 105 40 194q0 133 -107 133q-102 0 -167 -158q-40 -105 -40 -194z
" />
    <glyph glyph-name="Racute" unicode="&#x154;" horiz-adv-x="712" 
d="M557 920h90l-196 -171h-4zM293 689l-88 -355h167q107 0 176 57t69 170q0 128 -155 128h-169zM202 323l-81 -323h-95l175 700h279q109 0 171.5 -37t62.5 -114q0 -58 -27.5 -102.5t-70.5 -69t-87.5 -36.5t-87.5 -13v-2q133 -9 146 -117l14 -111q7 -66 31 -98h-102
q-14 30 -20 91l-12 108q-7 67 -38 95.5t-107 28.5h-151z" />
    <glyph glyph-name="racute" unicode="&#x155;" horiz-adv-x="446" 
d="M410 749h87l-202 -192h-4zM190 336q34 68 84 114t103 46q40 0 62.5 -22.5t22.5 -59.5q0 -33 -18 -63t-48 -47l-5 7q61 40 61 103q0 33 -19.5 52.5t-55.5 19.5q-63 0 -120 -66.5t-84 -149.5l-67 -270h-88l121 486h85z" />
    <glyph glyph-name="uni0156" unicode="&#x156;" horiz-adv-x="712" 
d="M293 689l-88 -355h167q107 0 176 57t69 170q0 128 -155 128h-169zM202 323l-81 -323h-95l175 700h279q109 0 171.5 -37t62.5 -114q0 -58 -27.5 -102.5t-70.5 -69t-87.5 -36.5t-87.5 -13v-2q133 -9 146 -117l14 -111q7 -66 31 -98h-102q-14 30 -20 91l-12 108
q-7 67 -38 95.5t-107 28.5h-151zM219 -152l24 98h100l-25 -99q-12 -50 -48 -79t-97 -24l2 10q108 -8 134 94h-90z" />
    <glyph glyph-name="uni0157" unicode="&#x157;" horiz-adv-x="446" 
d="M190 336q34 68 84 114t103 46q40 0 62.5 -22.5t22.5 -59.5q0 -33 -18 -63t-48 -47l-5 7q61 40 61 103q0 33 -19.5 52.5t-55.5 19.5q-63 0 -120 -66.5t-84 -149.5l-67 -270h-88l121 486h85zM-24 -152l24 98h100l-25 -99q-12 -50 -48 -79t-97 -24l2 10q108 -8 134 94h-90z
" />
    <glyph glyph-name="Rcaron" unicode="&#x158;" horiz-adv-x="712" 
d="M460 739h-2l-107 189h68l81 -139l151 139h13zM293 689l-88 -355h167q107 0 176 57t69 170q0 128 -155 128h-169zM202 323l-81 -323h-95l175 700h279q109 0 171.5 -37t62.5 -114q0 -58 -27.5 -102.5t-70.5 -69t-87.5 -36.5t-87.5 -13v-2q133 -9 146 -117l14 -111
q7 -66 31 -98h-102q-14 30 -20 91l-12 108q-7 67 -38 95.5t-107 28.5h-151z" />
    <glyph glyph-name="rcaron" unicode="&#x159;" horiz-adv-x="446" 
d="M302 547h-2l-103 204h66l78 -152l156 152h13zM190 336q34 68 84 114t103 46q40 0 62.5 -22.5t22.5 -59.5q0 -33 -18 -63t-48 -47l-5 7q61 40 61 103q0 33 -19.5 52.5t-55.5 19.5q-63 0 -120 -66.5t-84 -149.5l-67 -270h-88l121 486h85z" />
    <glyph glyph-name="Sacute" unicode="&#x15a;" horiz-adv-x="605" 
d="M509 920h90l-196 -171h-4zM277 0q91 0 149.5 48t58.5 130q0 45 -28 74.5t-90 51.5l-102 38q-65 24 -102.5 60.5t-37.5 96.5q0 91 71 151t179 60q100 0 161 -43t77 -116l-10 -4q-15 71 -73.5 112t-154.5 41q-82 0 -133.5 -41.5t-51.5 -105.5q0 -50 30.5 -77t87.5 -49
l109 -42q68 -26 102 -61.5t34 -94.5q0 -107 -81 -173t-195 -66q-104 0 -178.5 48.5t-93.5 127.5l10 5q19 -79 91 -125t171 -46z" />
    <glyph glyph-name="sacute" unicode="&#x15b;" horiz-adv-x="449" 
d="M417 749h87l-202 -192h-4zM263 486q-54 0 -87 -27t-33 -70q0 -18 7.5 -32.5t25 -26.5t31.5 -19.5t41 -19.5q29 -13 44 -20t36.5 -20.5t32 -26t19 -31t8.5 -40.5q0 -66 -57.5 -114.5t-142.5 -48.5q-82 0 -133.5 37.5t-51.5 90.5q0 61 57 84l5 -7q-52 -24 -52 -77
q0 -49 47.5 -83t121.5 -34q64 0 102.5 31.5t38.5 76.5q0 36 -26.5 58t-81.5 47q-36 17 -52 25t-40 25t-33.5 36.5t-9.5 45.5q0 63 51.5 106.5t131.5 43.5q72 0 113 -30t41 -80t-43 -73l-4 8q37 23 37 65q0 45 -38 72.5t-106 27.5z" />
    <glyph glyph-name="Scircumflex" unicode="&#x15c;" horiz-adv-x="605" 
d="M512 741l-81 139l-151 -139h-13l205 189h2l107 -189h-69zM277 0q91 0 149.5 48t58.5 130q0 45 -28 74.5t-90 51.5l-102 38q-65 24 -102.5 60.5t-37.5 96.5q0 91 71 151t179 60q100 0 161 -43t77 -116l-10 -4q-15 71 -73.5 112t-154.5 41q-82 0 -133.5 -41.5t-51.5 -105.5
q0 -50 30.5 -77t87.5 -49l109 -42q68 -26 102 -61.5t34 -94.5q0 -107 -81 -173t-195 -66q-104 0 -178.5 48.5t-93.5 127.5l10 5q19 -79 91 -125t171 -46z" />
    <glyph glyph-name="scircumflex" unicode="&#x15d;" horiz-adv-x="449" 
d="M401 547l-78 153l-156 -153h-13l208 204h2l103 -204h-66zM263 486q-54 0 -87 -27t-33 -70q0 -18 7.5 -32.5t25 -26.5t31.5 -19.5t41 -19.5q29 -13 44 -20t36.5 -20.5t32 -26t19 -31t8.5 -40.5q0 -66 -57.5 -114.5t-142.5 -48.5q-82 0 -133.5 37.5t-51.5 90.5q0 61 57 84
l5 -7q-52 -24 -52 -77q0 -49 47.5 -83t121.5 -34q64 0 102.5 31.5t38.5 76.5q0 36 -26.5 58t-81.5 47q-36 17 -52 25t-40 25t-33.5 36.5t-9.5 45.5q0 63 51.5 106.5t131.5 43.5q72 0 113 -30t41 -80t-43 -73l-4 8q37 23 37 65q0 45 -38 72.5t-106 27.5z" />
    <glyph glyph-name="uni015E" unicode="&#x15e;" horiz-adv-x="605" 
d="M199 -226q-36 0 -60 16t-32 42l10 5q14 -50 72 -50q35 0 57.5 25.5t22.5 62.5q0 26 -20 37t-64 11l46 70q-87 10 -148.5 56.5t-77.5 116.5l10 5q19 -79 91 -125t171 -46q91 0 149.5 48t58.5 130q0 45 -28 74.5t-90 51.5l-102 38q-65 24 -102.5 60.5t-37.5 96.5
q0 91 71 151t179 60q100 0 161 -43t77 -116l-10 -4q-15 71 -73.5 112t-154.5 41q-82 0 -133.5 -41.5t-51.5 -105.5q0 -50 30.5 -77t87.5 -49l109 -42q68 -26 102 -61.5t34 -94.5q0 -107 -81 -173t-195 -66q-14 0 -36 2l-40 -61q51 0 84 -17t33 -50q0 -37 -34.5 -63.5
t-84.5 -26.5z" />
    <glyph glyph-name="uni015F" unicode="&#x15f;" horiz-adv-x="449" 
d="M130 -225q-36 0 -60 16t-32 42l10 5q14 -50 72 -50q35 0 57.5 25.5t22.5 62.5q0 26 -20 37t-64 11l45 67q-71 7 -114.5 43t-43.5 84q0 61 57 84l5 -7q-52 -24 -52 -77q0 -49 47.5 -83t121.5 -34q64 0 102.5 31.5t38.5 76.5q0 36 -26.5 58t-81.5 47q-36 17 -52 25t-40 25
t-33.5 36.5t-9.5 45.5q0 63 51.5 106.5t131.5 43.5q72 0 113 -30t41 -80t-43 -73l-4 8q37 23 37 65q0 45 -38 72.5t-106 27.5q-54 0 -87 -27t-33 -70q0 -18 7.5 -32.5t25 -26.5t31.5 -19.5t41 -19.5q29 -13 44 -20t36.5 -20.5t32 -26t19 -31t8.5 -40.5q0 -66 -57.5 -114.5
t-142.5 -48.5q-12 0 -18 1l-38 -59q51 0 84 -17t33 -50q0 -37 -34.5 -63.5t-84.5 -26.5z" />
    <glyph glyph-name="Scaron" unicode="&#x160;" horiz-adv-x="605" 
d="M413 739h-2l-107 189h68l81 -139l151 139h13zM277 0q91 0 149.5 48t58.5 130q0 45 -28 74.5t-90 51.5l-102 38q-65 24 -102.5 60.5t-37.5 96.5q0 91 71 151t179 60q100 0 161 -43t77 -116l-10 -4q-15 71 -73.5 112t-154.5 41q-82 0 -133.5 -41.5t-51.5 -105.5
q0 -50 30.5 -77t87.5 -49l109 -42q68 -26 102 -61.5t34 -94.5q0 -107 -81 -173t-195 -66q-104 0 -178.5 48.5t-93.5 127.5l10 5q19 -79 91 -125t171 -46z" />
    <glyph glyph-name="scaron" unicode="&#x161;" horiz-adv-x="449" 
d="M309 547h-2l-103 204h66l78 -152l156 152h13zM263 486q-54 0 -87 -27t-33 -70q0 -18 7.5 -32.5t25 -26.5t31.5 -19.5t41 -19.5q29 -13 44 -20t36.5 -20.5t32 -26t19 -31t8.5 -40.5q0 -66 -57.5 -114.5t-142.5 -48.5q-82 0 -133.5 37.5t-51.5 90.5q0 61 57 84l5 -7
q-52 -24 -52 -77q0 -49 47.5 -83t121.5 -34q64 0 102.5 31.5t38.5 76.5q0 36 -26.5 58t-81.5 47q-36 17 -52 25t-40 25t-33.5 36.5t-9.5 45.5q0 63 51.5 106.5t131.5 43.5q72 0 113 -30t41 -80t-43 -73l-4 8q37 23 37 65q0 45 -38 72.5t-106 27.5z" />
    <glyph glyph-name="Tcommaaccent" unicode="&#x162;" horiz-adv-x="699" 
d="M225 -225q-36 0 -60 16t-32 42l10 5q14 -50 72 -50q35 0 57.5 25.5t22.5 62.5q0 26 -20 37t-64 11l50 76h-20l172 689h-287l2 11h669l-3 -11h-287l-172 -689h-64l-44 -68q51 0 84 -17t33 -50q0 -37 -34.5 -63.5t-84.5 -26.5z" />
    <glyph glyph-name="tcommaaccent" unicode="&#x163;" horiz-adv-x="370" 
d="M85 -225q-36 0 -60 16t-32 42l10 5q14 -50 72 -50q35 0 57.5 25.5t22.5 62.5q0 26 -20 37t-64 11l48 72q-74 21 -74 99q0 15 5 37l85 344h-79l3 10h79l37 133l90 32l-40 -165h160l-6 -10h-156l-92 -370q-5 -25 -5 -40q0 -58 60 -58q51 0 90 39t57 107l9 -2
q-19 -74 -65 -118t-115 -44q-20 0 -35 4l-40 -62q51 0 84 -17t33 -50q0 -37 -34.5 -63.5t-84.5 -26.5z" />
    <glyph glyph-name="Tcaron" unicode="&#x164;" horiz-adv-x="699" 
d="M475 739h-2l-107 189h68l81 -139l151 139h13zM241 0l172 689h-287l2 11h669l-3 -11h-287l-172 -689h-94z" />
    <glyph glyph-name="tcaron" unicode="&#x165;" horiz-adv-x="370" 
d="M456 756l-168 -212h-4l89 212h83zM56 476l3 10h79l37 133l90 32l-40 -165h160l-6 -10h-156l-92 -370q-5 -25 -5 -40q0 -58 60 -58q51 0 90 39t57 107l9 -2q-19 -74 -65 -118t-115 -44q-54 0 -85.5 28t-31.5 77q0 15 5 37l85 344h-79z" />
    <glyph glyph-name="Tbar" unicode="&#x166;" horiz-adv-x="699" 
d="M555 355h-131l-89 -355h-94l89 355h-132l2 11h132l81 323h-287l2 11h669l-3 -11h-287l-81 -323h131z" />
    <glyph glyph-name="tbar" unicode="&#x167;" horiz-adv-x="389" 
d="M352 152q-19 -74 -65 -118t-115 -44q-54 0 -85.5 28t-31.5 77q0 15 5 37l45 182h-71l2 10h71l38 152h-79l3 10h79l37 133l90 32l-40 -165h160l-6 -10h-156l-38 -152h153l-7 -10h-148l-52 -208q-5 -25 -5 -40q0 -58 60 -58q51 0 90 39t57 107z" />
    <glyph glyph-name="Utilde" unicode="&#x168;" horiz-adv-x="728" 
d="M593 766q-29 0 -79 42t-76 42q-49 0 -84 -87h-9q20 62 54.5 96.5t75.5 34.5q30 0 79.5 -42t76.5 -42q49 0 83 88h9q-20 -62 -54.5 -97t-75.5 -35zM758 700h11l-105 -421q-35 -138 -122 -213.5t-215 -75.5q-141 0 -208.5 83.5t-35.5 211.5l104 415h94l-102 -407
q-31 -126 16.5 -201t162.5 -75q110 0 187 69.5t109 196.5z" />
    <glyph glyph-name="utilde" unicode="&#x169;" horiz-adv-x="583" 
d="M424 586q-24 0 -48 21t-47 42t-45 21q-50 0 -84 -87h-10q21 62 55.5 97t74.5 35q20 0 39.5 -13.5t33 -29t32 -29t36.5 -13.5q50 0 83 88h10q-21 -62 -55.5 -97t-74.5 -35zM221 486l-87 -348q-8 -32 -8 -56q0 -72 67 -72q57 0 110.5 51t73.5 132l73 293h88l-103 -413
q-3 -13 -3 -25q0 -38 35 -38q47 0 76 64l7 -3q-37 -81 -116 -81q-39 0 -61 21.5t-22 56.5q0 22 9 56q-32 -62 -84 -98t-109 -36q-55 0 -88.5 32t-33.5 88q0 23 6 48l82 328h88z" />
    <glyph glyph-name="Umacron" unicode="&#x16a;" horiz-adv-x="728" 
d="M663 785h-281l3 10h281zM758 700h11l-105 -421q-35 -138 -122 -213.5t-215 -75.5q-141 0 -208.5 83.5t-35.5 211.5l104 415h94l-102 -407q-31 -126 16.5 -201t162.5 -75q110 0 187 69.5t109 196.5z" />
    <glyph glyph-name="umacron" unicode="&#x16b;" horiz-adv-x="583" 
d="M508 632h-280l3 10h280zM221 486l-87 -348q-8 -32 -8 -56q0 -72 67 -72q57 0 110.5 51t73.5 132l73 293h88l-103 -413q-3 -13 -3 -25q0 -38 35 -38q47 0 76 64l7 -3q-37 -81 -116 -81q-39 0 -61 21.5t-22 56.5q0 22 9 56q-32 -62 -84 -98t-109 -36q-55 0 -88.5 32
t-33.5 88q0 23 6 48l82 328h88z" />
    <glyph glyph-name="Ubreve" unicode="&#x16c;" horiz-adv-x="728" 
d="M705 923q-20 -75 -72 -123.5t-115 -48.5q-64 0 -93.5 48.5t-10.5 123.5h8q-13 -59 13.5 -87t94.5 -28q131 0 168 115h7zM758 700h11l-105 -421q-35 -138 -122 -213.5t-215 -75.5q-141 0 -208.5 83.5t-35.5 211.5l104 415h94l-102 -407q-31 -126 16.5 -201t162.5 -75
q110 0 187 69.5t109 196.5z" />
    <glyph glyph-name="ubreve" unicode="&#x16d;" horiz-adv-x="583" 
d="M537 748q-20 -84 -70.5 -134t-118.5 -50q-65 0 -93 50.5t-8 133.5h7q-14 -65 12.5 -96t94.5 -31q134 0 170 127h6zM221 486l-87 -348q-8 -32 -8 -56q0 -72 67 -72q57 0 110.5 51t73.5 132l73 293h88l-103 -413q-3 -13 -3 -25q0 -38 35 -38q47 0 76 64l7 -3
q-37 -81 -116 -81q-39 0 -61 21.5t-22 56.5q0 22 9 56q-32 -62 -84 -98t-109 -36q-55 0 -88.5 32t-33.5 88q0 23 6 48l82 328h88z" />
    <glyph glyph-name="Uring" unicode="&#x16e;" horiz-adv-x="728" 
d="M437 805q0 42 30.5 70t70.5 28q34 0 57 -22.5t23 -55.5q0 -42 -30.5 -70t-70.5 -28q-34 0 -57 22.5t-23 55.5zM608 825q0 29 -20 48.5t-50 19.5q-36 0 -63.5 -25t-27.5 -63q0 -29 20 -48.5t50 -19.5q36 0 63.5 25t27.5 63zM758 700h11l-105 -421q-35 -138 -122 -213.5
t-215 -75.5q-141 0 -208.5 83.5t-35.5 211.5l104 415h94l-102 -407q-31 -126 16.5 -201t162.5 -75q110 0 187 69.5t109 196.5z" />
    <glyph glyph-name="uring" unicode="&#x16f;" horiz-adv-x="583" 
d="M284 644q0 42 30.5 70.5t70.5 28.5q34 0 57 -23t23 -56q0 -42 -31 -70t-71 -28q-34 0 -56.5 22.5t-22.5 55.5zM455 664q0 29 -20 49t-50 20q-36 0 -63.5 -25.5t-27.5 -63.5q0 -29 20 -48.5t49 -19.5q37 0 64.5 25t27.5 63zM221 486l-87 -348q-8 -32 -8 -56q0 -72 67 -72
q57 0 110.5 51t73.5 132l73 293h88l-103 -413q-3 -13 -3 -25q0 -38 35 -38q47 0 76 64l7 -3q-37 -81 -116 -81q-39 0 -61 21.5t-22 56.5q0 22 9 56q-32 -62 -84 -98t-109 -36q-55 0 -88.5 32t-33.5 88q0 23 6 48l82 328h88z" />
    <glyph glyph-name="Uhungarumlaut" unicode="&#x170;" horiz-adv-x="728" 
d="M685 920h85l-192 -171h-4zM532 920h85l-192 -171h-4zM758 700h11l-105 -421q-35 -138 -122 -213.5t-215 -75.5q-141 0 -208.5 83.5t-35.5 211.5l104 415h94l-102 -407q-31 -126 16.5 -201t162.5 -75q110 0 187 69.5t109 196.5z" />
    <glyph glyph-name="uhungarumlaut" unicode="&#x171;" horiz-adv-x="583" 
d="M529 749h82l-198 -192h-4zM375 749h82l-197 -192h-4zM221 486l-87 -348q-8 -32 -8 -56q0 -72 67 -72q57 0 110.5 51t73.5 132l73 293h88l-103 -413q-3 -13 -3 -25q0 -38 35 -38q47 0 76 64l7 -3q-37 -81 -116 -81q-39 0 -61 21.5t-22 56.5q0 22 9 56q-32 -62 -84 -98
t-109 -36q-55 0 -88.5 32t-33.5 88q0 23 6 48l82 328h88z" />
    <glyph glyph-name="Uogonek" unicode="&#x172;" horiz-adv-x="728" 
d="M308 -225q-35 0 -59.5 20t-24.5 51q0 39 39 71.5t121 76.5q-24 -4 -57 -4q-141 0 -208.5 83.5t-35.5 211.5l104 415h94l-102 -407q-31 -126 16.5 -201t162.5 -75q110 0 187 69.5t109 196.5l104 417h11l-105 -421q-29 -114 -93.5 -186t-159.5 -94q-74 -41 -106 -75
t-32 -78q0 -25 13.5 -40.5t36.5 -15.5q65 0 110 82l8 -4q-49 -93 -133 -93z" />
    <glyph glyph-name="uogonek" unicode="&#x173;" horiz-adv-x="583" 
d="M378 -225q-35 0 -59.5 20t-24.5 51q0 38 37.5 70t116.5 75q-5 -1 -14 -1q-39 0 -61 21.5t-22 56.5q0 22 9 56q-32 -62 -84 -98t-109 -36q-55 0 -88.5 32t-33.5 88q0 23 6 48l82 328h88l-87 -348q-8 -32 -8 -56q0 -72 67 -72q57 0 110.5 51t73.5 132l73 293h88l-103 -413
q-3 -13 -3 -25q0 -38 35 -38q47 0 76 64l7 -3q-24 -53 -69 -72q-74 -41 -106 -74.5t-32 -78.5q0 -25 13.5 -40.5t36.5 -15.5q65 0 110 82l8 -4q-49 -93 -133 -93z" />
    <glyph glyph-name="Wcircumflex" unicode="&#x174;" horiz-adv-x="940" 
d="M676 741l-81 139l-151 -139h-13l205 189h2l107 -189h-69zM568 -10l-44 510l-327 -510h-4l-65 710h94l47 -579l254 396l-16 183h95l41 -584l385 584h13l-469 -710h-4z" />
    <glyph glyph-name="wcircumflex" unicode="&#x175;" horiz-adv-x="786" 
d="M586 547l-78 153l-156 -153h-13l208 204h2l103 -204h-66zM664 496q47 0 72.5 -35t25.5 -96q0 -86 -37 -172.5t-102 -144.5t-136 -58q-64 0 -99.5 43.5t-27.5 116.5q-22 -65 -69 -112.5t-113 -47.5q-60 0 -96 36t-36 100q0 30 10 77l71 283h88l-73 -293q-12 -51 -12 -88
q0 -45 20.5 -69.5t56.5 -24.5q38 0 72.5 32.5t54.5 72t30 77.5l73 293h86l-77 -308q-10 -42 -10 -71q0 -97 79 -97q55 0 111 53.5t91 136.5t35 165q0 56 -22.5 88.5t-65.5 32.5q-59 0 -85 -67l-9 4q27 73 94 73z" />
    <glyph glyph-name="Ycircumflex" unicode="&#x176;" horiz-adv-x="639" 
d="M561 741l-81 139l-151 -139h-13l205 189h2l107 -189h-69zM377 312l348 388h14l-356 -397l-76 -303h-96l75 301l-159 399h100z" />
    <glyph glyph-name="ycircumflex" unicode="&#x177;" horiz-adv-x="549" 
d="M449 547l-78 153l-156 -153h-13l208 204h2l103 -204h-66zM533 486l-108 -432q-37 -147 -115.5 -213t-195.5 -66q-72 0 -116.5 34.5t-44.5 86.5q0 73 69 96l4 -9q-63 -19 -63 -87q0 -49 41 -79t100 -30q96 0 146.5 60t80.5 182l25 101q-32 -61 -82 -94t-109 -33
q-53 0 -85 31.5t-32 86.5q0 26 7 51l79 314h88l-84 -335q-9 -33 -9 -60q0 -68 66 -68q56 0 107.5 49t71.5 130l71 284h88z" />
    <glyph glyph-name="Ydieresis" unicode="&#x178;" horiz-adv-x="639" 
d="M503 759l28 112h77l-28 -112h-77zM351 759l28 112h77l-28 -112h-77zM377 312l348 388h14l-356 -397l-76 -303h-96l75 301l-159 399h100z" />
    <glyph glyph-name="Zacute" unicode="&#x179;" horiz-adv-x="665" 
d="M548 920h90l-196 -171h-4zM565 11l-3 -11h-589l1 4l639 685h-436l2 11h553l-1 -4l-637 -685h471z" />
    <glyph glyph-name="zacute" unicode="&#x17a;" horiz-adv-x="485" 
d="M412 749h87l-202 -192h-4zM287 -13q-48 0 -128 41t-100 45l-81 -77l-6 7l438 414h-320l26 69h367l6 -6l-370 -350q28 -10 101.5 -47.5t117.5 -37.5q81 0 97 101l8 -2q-9 -68 -50.5 -112.5t-105.5 -44.5z" />
    <glyph glyph-name="Zdotaccent" unicode="&#x17b;" horiz-adv-x="665" 
d="M407 759l28 112h96l-28 -112h-96zM565 11l-3 -11h-589l1 4l639 685h-436l2 11h553l-1 -4l-637 -685h471z" />
    <glyph glyph-name="zdotaccent" unicode="&#x17c;" horiz-adv-x="485" 
d="M272 597l27 110h91l-27 -110h-91zM287 -13q-48 0 -128 41t-100 45l-81 -77l-6 7l438 414h-320l26 69h367l6 -6l-370 -350q28 -10 101.5 -47.5t117.5 -37.5q81 0 97 101l8 -2q-9 -68 -50.5 -112.5t-105.5 -44.5z" />
    <glyph glyph-name="Zcaron" unicode="&#x17d;" horiz-adv-x="665" 
d="M451 739h-2l-107 189h68l81 -139l151 139h13zM565 11l-3 -11h-589l1 4l639 685h-436l2 11h553l-1 -4l-637 -685h471z" />
    <glyph glyph-name="zcaron" unicode="&#x17e;" horiz-adv-x="485" 
d="M303 547h-2l-103 204h66l78 -152l156 152h13zM287 -13q-48 0 -128 41t-100 45l-81 -77l-6 7l438 414h-320l26 69h367l6 -6l-370 -350q28 -10 101.5 -47.5t117.5 -37.5q81 0 97 101l8 -2q-9 -68 -50.5 -112.5t-105.5 -44.5z" />
    <glyph glyph-name="uni0192" unicode="&#x192;" horiz-adv-x="471" 
d="M-62 -181q-44 0 -71 23t-27 59q0 50 46 83l5 -7q-41 -31 -41 -75q0 -30 21.5 -49.5t53.5 -19.5q57 0 94.5 50t74.5 175l89 311h-99l4 11h98l26 89q70 241 235 241q47 0 72 -21.5t25 -56.5q0 -54 -46 -85l-5 7q41 30 41 76q0 29 -19 47.5t-54 18.5q-56 0 -90.5 -49
t-71.5 -176l-26 -91h133l-4 -11h-132l-85 -294q-36 -125 -99.5 -190.5t-147.5 -65.5z" />
    <glyph glyph-name="AEacute" unicode="&#x1fc;" horiz-adv-x="1060" 
d="M951 920h90l-196 -171h-4zM553 314l94 376l-370 -376h276zM474 0l76 303h-284l-298 -303h-15l688 700h487l-3 -11h-386l-81 -323h288l-3 -11h-288l-85 -344h400l-3 -11h-493z" />
    <glyph glyph-name="aeacute" unicode="&#x1fd;" horiz-adv-x="815" 
d="M599 749h87l-202 -192h-4zM557 -10q-66 0 -116 36.5t-66 98.5q-30 -58 -81 -96.5t-109 -38.5q-72 0 -116 49t-44 128q0 131 80 230t193 99q57 0 92.5 -36t40.5 -92q42 59 104.5 93.5t132.5 34.5q65 0 102.5 -29.5t37.5 -74.5q0 -43 -28 -74.5t-77.5 -49.5t-110 -27
t-132.5 -9q-6 -38 -6 -75q0 -73 33.5 -113t87.5 -40q60 0 110 32t77 91l9 -3q-29 -63 -85.5 -98.5t-128.5 -35.5zM665 487q-72 0 -127.5 -72t-75.5 -174q138 2 208.5 41.5t70.5 130.5q0 74 -76 74zM209 12q47 0 91 35.5t72 91.5q-4 17 -4 40q0 95 55 177q-2 54 -30.5 86
t-74.5 32q-59 0 -107 -51.5t-73 -127t-26 -154.5q-1 -61 23 -95t74 -34z" />
    <glyph glyph-name="Oslashacute" unicode="&#x1fe;" horiz-adv-x="765" 
d="M604 920h90l-196 -171h-4zM148 215q0 -81 32 -134l452 546q-50 73 -154 73q-88 0 -158 -57.5t-114 -155.5q-58 -135 -58 -272zM340 0q87 0 157 58t114 155q58 135 58 272q0 80 -30 131l-453 -545q50 -71 154 -71zM340 -10q-98 0 -175 57l-55 -67l-8 7l55 66
q-102 84 -102 229q0 108 55.5 206.5t154 160t213.5 61.5q100 0 176 -58l56 68l9 -7l-56 -68q99 -84 99 -227q0 -109 -55 -207t-153.5 -159.5t-213.5 -61.5z" />
    <glyph glyph-name="oslashacute" unicode="&#x1ff;" horiz-adv-x="533" 
d="M450 749h87l-202 -192h-4zM417 408l-298 -343q24 -65 97 -65q103 0 167 159q40 105 40 194q0 31 -6 55zM116 76l297 344q-23 66 -97 66q-102 0 -167 -158q-40 -105 -40 -194q0 -34 7 -58zM93 35l-46 -53l-8 5l47 54q-58 56 -58 145q0 124 83.5 217t203.5 93q74 0 125 -45
l47 54l9 -5l-49 -56q57 -55 57 -143q0 -125 -83.5 -218t-203.5 -93q-73 0 -124 45z" />
    <glyph glyph-name="uni0218" unicode="&#x218;" horiz-adv-x="605" 
d="M277 0q91 0 149.5 48t58.5 130q0 45 -28 74.5t-90 51.5l-102 38q-65 24 -102.5 60.5t-37.5 96.5q0 91 71 151t179 60q100 0 161 -43t77 -116l-10 -4q-15 71 -73.5 112t-154.5 41q-82 0 -133.5 -41.5t-51.5 -105.5q0 -50 30.5 -77t87.5 -49l109 -42q68 -26 102 -61.5
t34 -94.5q0 -107 -81 -173t-195 -66q-104 0 -178.5 48.5t-93.5 127.5l10 5q19 -79 91 -125t171 -46zM174 -152l24 98h100l-25 -99q-12 -50 -48 -79t-97 -24l2 10q108 -8 134 94h-90z" />
    <glyph glyph-name="uni0219" unicode="&#x219;" horiz-adv-x="449" 
d="M263 486q-54 0 -87 -27t-33 -70q0 -18 7.5 -32.5t25 -26.5t31.5 -19.5t41 -19.5q29 -13 44 -20t36.5 -20.5t32 -26t19 -31t8.5 -40.5q0 -66 -57.5 -114.5t-142.5 -48.5q-82 0 -133.5 37.5t-51.5 90.5q0 61 57 84l5 -7q-52 -24 -52 -77q0 -49 47.5 -83t121.5 -34
q64 0 102.5 31.5t38.5 76.5q0 36 -26.5 58t-81.5 47q-36 17 -52 25t-40 25t-33.5 36.5t-9.5 45.5q0 63 51.5 106.5t131.5 43.5q72 0 113 -30t41 -80t-43 -73l-4 8q37 23 37 65q0 45 -38 72.5t-106 27.5zM89 -152l24 98h100l-25 -99q-12 -50 -48 -79t-97 -24l2 10
q108 -8 134 94h-90z" />
    <glyph glyph-name="uni021A" unicode="&#x21a;" horiz-adv-x="699" 
d="M241 0l172 689h-287l2 11h669l-3 -11h-287l-172 -689h-94zM203 -152l24 98h100l-25 -99q-12 -50 -48 -79t-97 -24l2 10q108 -8 134 94h-90z" />
    <glyph glyph-name="uni021B" unicode="&#x21b;" horiz-adv-x="370" 
d="M56 476l3 10h79l37 133l90 32l-40 -165h160l-6 -10h-156l-92 -370q-5 -25 -5 -40q0 -58 60 -58q51 0 90 39t57 107l9 -2q-19 -74 -65 -118t-115 -44q-54 0 -85.5 28t-31.5 77q0 15 5 37l85 344h-79zM67 -152l24 98h100l-25 -99q-12 -50 -48 -79t-97 -24l2 10
q108 -8 134 94h-90z" />
    <glyph glyph-name="uni0237" unicode="&#x237;" horiz-adv-x="252" 
d="M13 -56l135 542h88l-130 -521q-47 -190 -200 -190q-48 0 -75.5 23t-27.5 61q0 43 36 66l7 -7q-32 -22 -32 -59q0 -32 21 -50.5t54 -18.5q44 0 74 35.5t50 118.5z" />
    <glyph glyph-name="uni02BB" unicode="&#x2bb;" 
d="M407 675l-25 -98h-100l25 99q12 50 48 79t97 24l-2 -10q-108 8 -133 -94h90z" />
    <glyph glyph-name="circumflex" unicode="&#x2c6;" 
d="M416 547l-78 153l-156 -153h-13l208 204h2l103 -204h-66z" />
    <glyph glyph-name="caron" unicode="&#x2c7;" 
d="M325 547h-2l-103 204h66l78 -152l156 152h13z" />
    <glyph glyph-name="breve" unicode="&#x2d8;" 
d="M520 748q-20 -84 -70.5 -134t-118.5 -50q-65 0 -93 50.5t-8 133.5h7q-14 -65 12.5 -96t94.5 -31q134 0 170 127h6z" />
    <glyph glyph-name="dotaccent" unicode="&#x2d9;" horiz-adv-x="499" 
d="M292 597l27 110h91l-27 -110h-91z" />
    <glyph glyph-name="ring" unicode="&#x2da;" horiz-adv-x="499" 
d="M248 644q0 42 30.5 70.5t70.5 28.5q34 0 57 -23t23 -56q0 -42 -31 -70t-71 -28q-34 0 -56.5 22.5t-22.5 55.5zM419 664q0 29 -20 49t-50 20q-36 0 -63.5 -25.5t-27.5 -63.5q0 -29 20 -48.5t49 -19.5q37 0 64.5 25t27.5 63z" />
    <glyph glyph-name="ogonek" unicode="&#x2db;" 
d="M44 -154q0 42 44 76t144 87l4 -7q-77 -43 -110 -77t-33 -79q0 -25 13.5 -40.5t36.5 -15.5q65 0 110 82l8 -4q-49 -93 -133 -93q-35 0 -59.5 20t-24.5 51z" />
    <glyph glyph-name="tilde" unicode="&#x2dc;" 
d="M404 586q-24 0 -48 21t-47 42t-45 21q-50 0 -84 -87h-10q21 62 55.5 97t74.5 35q20 0 39.5 -13.5t33 -29t32 -29t36.5 -13.5q50 0 83 88h10q-21 -62 -55.5 -97t-74.5 -35z" />
    <glyph glyph-name="hungarumlaut" unicode="&#x2dd;" 
d="M449 749h82l-198 -192h-4zM295 749h82l-197 -192h-4z" />
    <glyph glyph-name="Wgrave" unicode="&#x1e80;" horiz-adv-x="940" 
d="M587 749l-112 171h86l30 -171h-4zM568 -10l-44 510l-327 -510h-4l-65 710h94l47 -579l254 396l-16 183h95l41 -584l385 584h13l-469 -710h-4z" />
    <glyph glyph-name="wgrave" unicode="&#x1e81;" horiz-adv-x="786" 
d="M494 557l-106 192h81l29 -192h-4zM664 496q47 0 72.5 -35t25.5 -96q0 -86 -37 -172.5t-102 -144.5t-136 -58q-64 0 -99.5 43.5t-27.5 116.5q-22 -65 -69 -112.5t-113 -47.5q-60 0 -96 36t-36 100q0 30 10 77l71 283h88l-73 -293q-12 -51 -12 -88q0 -45 20.5 -69.5
t56.5 -24.5q38 0 72.5 32.5t54.5 72t30 77.5l73 293h86l-77 -308q-10 -42 -10 -71q0 -97 79 -97q55 0 111 53.5t91 136.5t35 165q0 56 -22.5 88.5t-65.5 32.5q-59 0 -85 -67l-9 4q27 73 94 73z" />
    <glyph glyph-name="Wacute" unicode="&#x1e82;" horiz-adv-x="940" 
d="M673 920h90l-196 -171h-4zM568 -10l-44 510l-327 -510h-4l-65 710h94l47 -579l254 396l-16 183h95l41 -584l385 584h13l-469 -710h-4z" />
    <glyph glyph-name="wacute" unicode="&#x1e83;" horiz-adv-x="786" 
d="M592 749h87l-202 -192h-4zM664 496q47 0 72.5 -35t25.5 -96q0 -86 -37 -172.5t-102 -144.5t-136 -58q-64 0 -99.5 43.5t-27.5 116.5q-22 -65 -69 -112.5t-113 -47.5q-60 0 -96 36t-36 100q0 30 10 77l71 283h88l-73 -293q-12 -51 -12 -88q0 -45 20.5 -69.5t56.5 -24.5
q38 0 72.5 32.5t54.5 72t30 77.5l73 293h86l-77 -308q-10 -42 -10 -71q0 -97 79 -97q55 0 111 53.5t91 136.5t35 165q0 56 -22.5 88.5t-65.5 32.5q-59 0 -85 -67l-9 4q27 73 94 73z" />
    <glyph glyph-name="Wdieresis" unicode="&#x1e84;" horiz-adv-x="940" 
d="M617 759l28 112h77l-28 -112h-77zM465 759l28 112h77l-28 -112h-77zM568 -10l-44 510l-327 -510h-4l-65 710h94l47 -579l254 396l-16 183h95l41 -584l385 584h13l-469 -710h-4z" />
    <glyph glyph-name="wdieresis" unicode="&#x1e85;" horiz-adv-x="786" 
d="M536 597l27 110h75l-27 -110h-75zM384 597l27 110h75l-27 -110h-75zM664 496q47 0 72.5 -35t25.5 -96q0 -86 -37 -172.5t-102 -144.5t-136 -58q-64 0 -99.5 43.5t-27.5 116.5q-22 -65 -69 -112.5t-113 -47.5q-60 0 -96 36t-36 100q0 30 10 77l71 283h88l-73 -293
q-12 -51 -12 -88q0 -45 20.5 -69.5t56.5 -24.5q38 0 72.5 32.5t54.5 72t30 77.5l73 293h86l-77 -308q-10 -42 -10 -71q0 -97 79 -97q55 0 111 53.5t91 136.5t35 165q0 56 -22.5 88.5t-65.5 32.5q-59 0 -85 -67l-9 4q27 73 94 73z" />
    <glyph glyph-name="Ygrave" unicode="&#x1ef2;" horiz-adv-x="639" 
d="M472 749l-112 171h86l30 -171h-4zM377 312l348 388h14l-356 -397l-76 -303h-96l75 301l-159 399h100z" />
    <glyph glyph-name="ygrave" unicode="&#x1ef3;" horiz-adv-x="549" 
d="M356 557l-106 192h81l29 -192h-4zM533 486l-108 -432q-37 -147 -115.5 -213t-195.5 -66q-72 0 -116.5 34.5t-44.5 86.5q0 73 69 96l4 -9q-63 -19 -63 -87q0 -49 41 -79t100 -30q96 0 146.5 60t80.5 182l25 101q-32 -61 -82 -94t-109 -33q-53 0 -85 31.5t-32 86.5
q0 26 7 51l79 314h88l-84 -335q-9 -33 -9 -60q0 -68 66 -68q56 0 107.5 49t71.5 130l71 284h88z" />
    <glyph glyph-name="uni2009" unicode="&#x2009;" horiz-adv-x="40" 
 />
    <glyph glyph-name="endash" unicode="&#x2013;" horiz-adv-x="505" 
d="M49 270l3 10h420l-3 -10h-420z" />
    <glyph glyph-name="emdash" unicode="&#x2014;" horiz-adv-x="805" 
d="M49 271l3 10h720l-3 -10h-720z" />
    <glyph glyph-name="quoteleft" unicode="&#x2018;" horiz-adv-x="216" 
d="M240 567l-28 -110h-104l30 119q16 64 59 99t108 35l-2 -10q-61 0 -101 -32.5t-54 -91.5l-3 -9h95z" />
    <glyph glyph-name="quoteright" unicode="&#x2019;" horiz-adv-x="216" 
d="M143 590l28 110h104l-30 -119q-16 -64 -59 -99t-108 -35l2 10q61 0 101 32.5t54 91.5l3 9h-95z" />
    <glyph glyph-name="quotesinglbase" unicode="&#x201a;" horiz-adv-x="216" 
d="M-4 1l28 110h104l-30 -119q-16 -64 -59 -99t-108 -35l2 10q61 0 101 32.5t54 91.5l3 9h-95z" />
    <glyph glyph-name="quotedblleft" unicode="&#x201c;" horiz-adv-x="387" 
d="M412 567l-28 -110h-104l30 119q16 64 59 99t108 35l-2 -10q-61 0 -101 -32.5t-54 -91.5l-3 -9h95zM240 567l-28 -110h-104l30 119q16 64 59 99t108 35l-2 -10q-61 0 -101 -32.5t-54 -91.5l-3 -9h95z" />
    <glyph glyph-name="quotedblright" unicode="&#x201d;" horiz-adv-x="389" 
d="M316 590l28 110h104l-30 -119q-16 -64 -59 -99t-108 -35l2 10q61 0 101 32.5t54 91.5l3 9h-95zM143 590l28 110h104l-30 -119q-16 -64 -59 -99t-108 -35l2 10q61 0 101 32.5t54 91.5l3 9h-95z" />
    <glyph glyph-name="quotedblbase" unicode="&#x201e;" horiz-adv-x="389" 
d="M169 1l28 110h104l-30 -119q-16 -64 -59 -99t-108 -35l2 10q61 0 101 32.5t54 91.5l3 9h-95zM-4 1l28 110h104l-30 -119q-16 -64 -59 -99t-108 -35l2 10q61 0 101 32.5t54 91.5l3 9h-95z" />
    <glyph glyph-name="dagger" unicode="&#x2020;" horiz-adv-x="350" 
d="M198 355l65 261h-110l2 10h110l31 123h10l-31 -123h110l-2 -10h-110l-65 -261h-10z" />
    <glyph glyph-name="daggerdbl" unicode="&#x2021;" horiz-adv-x="350" 
d="M198 355l31 123h-111l3 10h110l32 128h-110l2 10h110l31 123h10l-31 -123h110l-2 -10h-110l-32 -128h110l-3 -10h-109l-31 -123h-10z" />
    <glyph glyph-name="bullet" unicode="&#x2022;" horiz-adv-x="372" 
d="M66 277q0 53 38 91t91 38q52 0 89.5 -38t37.5 -91t-37.5 -90.5t-89.5 -37.5q-53 0 -91 38t-38 90z" />
    <glyph glyph-name="ellipsis" unicode="&#x2026;" horiz-adv-x="586" 
d="M-2 0l27 110h104l-27 -110h-104zM180 0l27 110h104l-27 -110h-104zM362 0l27 110h104l-27 -110h-104z" />
    <glyph glyph-name="perthousand" unicode="&#x2030;" horiz-adv-x="961" 
d="M85 0h-12l528 678q-24 -23 -63 -37t-79 -14q-47 0 -76 21q12 -27 12 -57q0 -67 -52 -122t-115 -55q-44 0 -75 33.5t-31 85.5q0 67 52 122t115 55q31 0 53.5 -18t49.5 -36.5t67 -18.5q97 0 172 77l6 -4zM228 424q33 0 60.5 36.5t41 83t13.5 85.5q0 33 -14 52t-40 19
q-33 0 -60.5 -36.5t-41 -83t-13.5 -85.5q0 -33 14 -52t40 -19zM726 -3q-44 0 -75 33.5t-31 85.5q0 67 52 122t115 55q44 0 75 -33.5t31 -85.5q0 -67 -52 -122t-115 -55zM423 -3q-44 0 -75 33.5t-31 85.5q0 67 52 122t115 55q44 0 75 -33.5t31 -85.5q0 -67 -52 -122t-115 -55
zM726 7q33 0 60.5 36.5t41 83t13.5 85.5q0 33 -14 52t-40 19q-33 0 -60.5 -36.5t-41 -83t-13.5 -85.5q0 -33 14 -52t40 -19zM423 7q33 0 60.5 36.5t41 83t13.5 85.5q0 33 -14 52t-40 19q-33 0 -60.5 -36.5t-41 -83t-13.5 -85.5q0 -33 14 -52t40 -19z" />
    <glyph glyph-name="guilsinglleft" unicode="&#x2039;" horiz-adv-x="323" 
d="M46 243v2l275 204h5l-200 -208l97 -201h-4z" />
    <glyph glyph-name="guilsinglright" unicode="&#x203a;" horiz-adv-x="323" 
d="M276 245v-2l-276 -203h-4l200 207l-97 202h4z" />
    <glyph glyph-name="fraction" unicode="&#x2044;" horiz-adv-x="343" 
d="M-72 -123l512 872h9l-512 -872h-9z" />
    <glyph glyph-name="Euro" unicode="&#x20ac;" horiz-adv-x="618" 
d="M309 -10q-93 0 -150 68.5t-57 180.5q0 33 4 60h-76l2 10h75q8 51 22 90h-75l2 10h76q45 129 140 215t208 86q81 0 124 -51.5t40 -142.5l-10 -3q3 85 -34 134t-105 49q-91 0 -160.5 -81t-107.5 -206h238l-5 -10h-236q-14 -45 -21 -90h207l-5 -10h-204q-9 -59 -9 -115
q0 -86 35 -132.5t102 -46.5q70 0 132.5 50.5t93.5 134.5l9 -4q-35 -91 -103 -143.5t-152 -52.5z" />
    <glyph glyph-name="uni2116" unicode="&#x2116;" horiz-adv-x="1412" 
d="M519 683q-20 -102 -46 -195.5t-63 -186t-79 -160t-96 -109.5t-112 -42q-55 0 -94.5 34.5t-39.5 96.5q0 52 32 87.5t77 46.5l3 -10q-42 -10 -71.5 -43t-29.5 -81q0 -56 36 -88.5t87 -32.5q69 0 131 59.5t110 162t84 219t63 249.5h-34q-158 0 -244 -63t-86 -149
q0 -70 79 -103l-5 -8q-36 13 -60 42.5t-24 68.5q0 90 90 156t251 66h132l199 -575q26 107 54.5 195t70 179t87.5 153t109 101.5t134 39.5q66 0 112 -36l-5 -8q-43 34 -107 34q-68 0 -129 -38.5t-106 -99.5t-86 -151t-69 -176.5t-55 -192.5l-35 -133h-27zM1061 439
q0 87 59.5 153t144.5 66q60 0 97.5 -40t37.5 -99q0 -87 -60 -153t-145 -66q-60 0 -97 40t-37 99zM1124 403q0 -94 70 -94q69 0 114 111q28 73 28 135q0 94 -70 94q-69 0 -113 -110q-29 -73 -29 -136zM1031 222l3 10h296l-3 -10h-296z" />
    <glyph glyph-name="uni2117" unicode="&#x2117;" horiz-adv-x="815" 
d="M459 710q143 0 239.5 -93t96.5 -236q0 -169 -113 -280t-273 -111q-143 0 -239.5 93t-96.5 236q0 169 113 280t273 111zM459 700q-156 0 -266 -108t-110 -273q0 -139 93.5 -229t232.5 -90q156 0 266 108t110 273q0 139 -93.5 229t-232.5 90zM453 313h-96l-41 -164h-64
l102 408h152q66 0 104.5 -26.5t38.5 -75.5q0 -65 -58 -103.5t-138 -38.5zM360 323h74q67 0 107 37t40 105q0 82 -99 82h-67z" />
    <glyph glyph-name="trademark" unicode="&#x2122;" horiz-adv-x="729" 
d="M191 427l66 263h-107l3 10h271l-3 -10h-108l-66 -263h-56zM566 500l128 200h64l-69 -273h-57l66 262l-168 -263h-8l-44 263l-66 -262h-10l69 273h63z" />
    <glyph glyph-name="uni2153" unicode="&#x2153;" horiz-adv-x="401" 
d="M261 414h-53l62 248q-36 -39 -79 -61l-1 8q57 30 109 98h36zM64 358h329l-2 -10h-329zM135 -6q-40 0 -66 18t-26 46q0 26 16 42t38 21l3 -7q-20 -5 -33.5 -19.5t-13.5 -35.5q0 -23 20.5 -38.5t49.5 -15.5q39 0 61.5 28t22.5 67q0 50 -58 50h-8l2 7h10q37 0 58 23t21 57
q0 44 -48 44q-31 0 -53.5 -18t-22.5 -45q0 -21 20 -29l-6 -7q-24 10 -24 35q0 32 28.5 54t70.5 22q38 0 62 -16.5t24 -44.5q0 -34 -33.5 -56t-71.5 -22v-1q33 -2 57 -19.5t24 -45.5q0 -42 -36.5 -68t-87.5 -26z" />
    <glyph glyph-name="uni2154" unicode="&#x2154;" horiz-adv-x="401" 
d="M193 458h165l-12 -44h-211l2 6l104 83q103 82 103 148q0 45 -49 45q-34 0 -60 -23.5t-26 -55.5q0 -25 21 -34l-6 -6q-24 9 -24 39q0 38 32 65.5t79 27.5q39 0 62.5 -17.5t23.5 -47.5q0 -23 -11 -43.5t-42 -44.5t-56.5 -40.5t-84.5 -51.5q-3 -2 -5.5 -3.5t-4.5 -2.5z
M64 358h329l-2 -10h-329zM135 -6q-40 0 -66 18t-26 46q0 26 16 42t38 21l3 -7q-20 -5 -33.5 -19.5t-13.5 -35.5q0 -23 20.5 -38.5t49.5 -15.5q39 0 61.5 28t22.5 67q0 50 -58 50h-8l2 7h10q37 0 58 23t21 57q0 44 -48 44q-31 0 -53.5 -18t-22.5 -45q0 -21 20 -29l-6 -7
q-24 10 -24 35q0 32 28.5 54t70.5 22q38 0 62 -16.5t24 -44.5q0 -34 -33.5 -56t-71.5 -22v-1q33 -2 57 -19.5t24 -45.5q0 -42 -36.5 -68t-87.5 -26z" />
    <glyph glyph-name="uni215B" unicode="&#x215b;" horiz-adv-x="401" 
d="M261 414h-53l62 248q-36 -39 -79 -61l-1 8q57 30 109 98h36zM64 358h329l-2 -10h-329zM278 232q0 -28 -19.5 -47.5t-45.5 -27.5q51 -26 51 -65q0 -43 -36.5 -70.5t-84.5 -27.5q-39 0 -68 19t-29 53q0 31 23.5 52t58.5 27q-36 23 -36 59q0 38 31 63.5t76 25.5
q34 0 56.5 -16.5t22.5 -44.5zM201 284q-29 0 -48.5 -15.5t-19.5 -41.5q0 -28 36 -46l36 -19q63 21 63 69q0 24 -19.5 38.5t-47.5 14.5zM178 119l-42 21q-34 -7 -57 -25.5t-23 -48.5t26 -47t59 -17q34 0 56.5 18t22.5 46q0 30 -42 53z" />
    <glyph glyph-name="uni215C" unicode="&#x215c;" horiz-adv-x="401" 
d="M250 410q-40 0 -65.5 18t-25.5 47q0 25 15.5 41t37.5 21l3 -7q-20 -5 -33.5 -19.5t-13.5 -35.5q0 -23 20.5 -38.5t50.5 -15.5q39 0 61 28.5t22 67.5q0 49 -58 49h-8l2 8h10q37 0 58 22.5t21 56.5q0 44 -48 44q-31 0 -53.5 -18t-22.5 -45q0 -22 21 -29l-6 -7q-25 9 -25 35
q0 32 28.5 54t70.5 22q38 0 62 -16.5t24 -44.5q0 -34 -33 -56t-72 -22v-1q33 -2 57.5 -19.5t24.5 -45.5q0 -41 -37 -67.5t-88 -26.5zM64 358h329l-2 -10h-329zM278 232q0 -28 -19.5 -47.5t-45.5 -27.5q51 -26 51 -65q0 -43 -36.5 -70.5t-84.5 -27.5q-39 0 -68 19t-29 53
q0 31 23.5 52t58.5 27q-36 23 -36 59q0 38 31 63.5t76 25.5q34 0 56.5 -16.5t22.5 -44.5zM201 284q-29 0 -48.5 -15.5t-19.5 -41.5q0 -28 36 -46l36 -19q63 21 63 69q0 24 -19.5 38.5t-47.5 14.5zM178 119l-42 21q-34 -7 -57 -25.5t-23 -48.5t26 -47t59 -17q34 0 56.5 18
t22.5 46q0 30 -42 53z" />
    <glyph glyph-name="uni215D" unicode="&#x215d;" horiz-adv-x="401" 
d="M402 700l-17 -46h-141l-33 -88q28 34 78 34q37 0 60 -20.5t23 -54.5q0 -51 -38.5 -83.5t-95.5 -32.5q-36 0 -59 17t-23 44q0 38 37 55l3 -7q-31 -16 -31 -47q0 -23 19 -37t43 -14q42 0 66.5 30t24.5 78q0 59 -49 59q-35 0 -66 -36h-6l55 149h150zM64 358h329l-2 -10h-329
zM278 232q0 -28 -19.5 -47.5t-45.5 -27.5q51 -26 51 -65q0 -43 -36.5 -70.5t-84.5 -27.5q-39 0 -68 19t-29 53q0 31 23.5 52t58.5 27q-36 23 -36 59q0 38 31 63.5t76 25.5q34 0 56.5 -16.5t22.5 -44.5zM201 284q-29 0 -48.5 -15.5t-19.5 -41.5q0 -28 36 -46l36 -19
q63 21 63 69q0 24 -19.5 38.5t-47.5 14.5zM178 119l-42 21q-34 -7 -57 -25.5t-23 -48.5t26 -47t59 -17q34 0 56.5 18t22.5 46q0 30 -42 53z" />
    <glyph glyph-name="uni215E" unicode="&#x215e;" horiz-adv-x="401" 
d="M213 700h201l-1 -6l-51 -58q-92 -112 -111 -227h-52q12 42 40.5 86.5t46.5 65.5t69 78l13 13h-167zM64 358h329l-2 -10h-329zM278 232q0 -28 -19.5 -47.5t-45.5 -27.5q51 -26 51 -65q0 -43 -36.5 -70.5t-84.5 -27.5q-39 0 -68 19t-29 53q0 31 23.5 52t58.5 27
q-36 23 -36 59q0 38 31 63.5t76 25.5q34 0 56.5 -16.5t22.5 -44.5zM201 284q-29 0 -48.5 -15.5t-19.5 -41.5q0 -28 36 -46l36 -19q63 21 63 69q0 24 -19.5 38.5t-47.5 14.5zM178 119l-42 21q-34 -7 -57 -25.5t-23 -48.5t26 -47t59 -17q34 0 56.5 18t22.5 46q0 30 -42 53z
" />
    <glyph glyph-name="minus" unicode="&#x2212;" horiz-adv-x="479" 
d="M62 315l2 10h391l-2 -10h-391z" />
    <glyph glyph-name="approxequal" unicode="&#x2248;" horiz-adv-x="480" 
d="M70 345l3 14q64 52 114 52q33 0 85 -28t84 -28q52 0 121 56l-3 -13q-65 -53 -118 -53q-33 0 -85 28t-83 28q-49 0 -118 -56zM38 218l3 14q64 52 115 52q33 0 84.5 -28t83.5 -28q52 0 121 56l-2 -13q-65 -53 -119 -53q-33 0 -85 28t-83 28q-49 0 -118 -56z" />
    <glyph glyph-name="notequal" unicode="&#x2260;" horiz-adv-x="479" 
d="M433 237h-250l-113 -102h-15l113 102h-126l3 10h134l148 133h-249l2 10h258l110 99h15l-110 -99h118l-2 -10h-127l-148 -133h242z" />
    <glyph glyph-name="lessequal" unicode="&#x2264;" horiz-adv-x="373" 
d="M67 335l2 10l318 135l-4 -12l-303 -129l239 -129l-2 -10zM14 124l2 10h285l-2 -10h-285z" />
    <glyph glyph-name="greaterequal" unicode="&#x2265;" horiz-adv-x="373" 
d="M354 345l-2 -10l-318 -135l4 12l303 129l-239 129l2 10zM299 124h-285l2 10h285z" />
    <glyph glyph-name="uni00200326" 
d="M101 -152l24 98h100l-25 -99q-12 -50 -48 -79t-97 -24l2 10q108 -8 134 94h-90z" />
    <glyph glyph-name="uni00200323" horiz-adv-x="499" 
d="M94 -188l28 112h95l-27 -112h-96z" />
    <glyph glyph-name="i.dot" horiz-adv-x="271" 
d="M166 597l27 110h91l-27 -110h-91zM225 486l-102 -413q-4 -12 -4 -25q0 -38 35 -38q48 0 77 64l7 -3q-37 -81 -117 -81q-40 0 -61.5 21.5t-21.5 58.5q0 17 4 32l95 384h88z" />
    <glyph glyph-name="f_f.short" horiz-adv-x="588" 
d="M228 486h207l15 64q20 77 58 127q-25 58 -98 58q-69 0 -106 -47t-61 -140zM226 476l-175 -691h-86l172 691h-73l3 10h71l13 49q25 94 88.5 154t155.5 60q44 0 75.5 -17.5t44.5 -45.5q58 73 139 73q41 0 63 -18t22 -51q0 -43 -32 -73l-6 6q28 29 28 67q0 55 -63 55
q-84 0 -119 -155l-24 -104h133l-5 -10h-130l-170 -670h-86l167 670h-206z" />
    <glyph glyph-name="f.short" horiz-adv-x="293" 
d="M139 486l16 64q22 90 75.5 149.5t127.5 59.5q41 0 63 -18t22 -51q0 -44 -32 -73l-6 6q28 28 28 67q0 55 -63 55q-83 0 -118 -155l-24 -104h133l-5 -10h-130l-175 -691h-86l172 691h-73l3 10h72z" />
    <glyph glyph-name="caron.Slovak" 
d="M436 749l-168 -212h-4l89 212h83z" />
    <glyph glyph-name="hyphen.cap" horiz-adv-x="334" 
d="M63 329l3 13h249l-3 -13h-249z" />
    <glyph glyph-name="endash.cap" horiz-adv-x="505" 
d="M63 328l3 10h420l-3 -10h-420z" />
    <glyph glyph-name="emdash.cap" horiz-adv-x="805" 
d="M63 329l3 10h720l-3 -10h-720z" />
    <glyph glyph-name="parenleft.cap" horiz-adv-x="338" 
d="M430 743q-72 -45 -114 -89t-78.5 -121.5t-72.5 -209.5q-39 -143 -39 -236q0 -62 20 -103t63 -82l-6 -6q-67 49 -105 125t-38 168q0 161 99.5 316t265.5 244z" />
    <glyph glyph-name="parenright.cap" horiz-adv-x="338" 
d="M-53 -98q72 45 114 89t78.5 121.5t72.5 209.5q38 140 38 236q0 63 -19.5 104t-62.5 81l6 6q67 -49 105 -125t38 -168q0 -161 -100 -316t-266 -244z" />
    <glyph glyph-name="bracketleft.cap" horiz-adv-x="328" 
d="M10 -104l213 853h203l-1 -6l-124 -4l-209 -833l122 -4l-1 -6h-203z" />
    <glyph glyph-name="bracketright.cap" horiz-adv-x="328" 
d="M356 749l-212 -853h-202l1 6l123 4l208 833l-121 4l1 6h202z" />
    <glyph glyph-name="braceleft.cap" horiz-adv-x="380" 
d="M43 319l2 8q121 0 156 128q6 23 8 75.5t7 76.5q15 61 72 101.5t135 40.5q34 0 60 -10l-3 -8q-23 8 -49 8q-53 0 -88 -29.5t-49 -81.5q-6 -24 -9.5 -84.5t-8.5 -80.5q-9 -35 -33.5 -63t-54.5 -43.5t-57 -23.5t-50 -10q44 -4 85 -31t41 -77q0 -31 -39.5 -114.5
t-39.5 -118.5t22.5 -55t60.5 -20q26 0 53 8l-1 -9q-30 -10 -62 -10q-62 0 -100 32t-38 81q0 32 37 109.5t37 119.5q0 81 -94 81z" />
    <glyph glyph-name="braceright.cap" horiz-adv-x="379" 
d="M375 326l-2 -8q-122 0 -155 -128q-7 -23 -8.5 -75.5t-7.5 -76.5q-15 -61 -71.5 -101.5t-134.5 -40.5q-36 0 -60 10l2 8q24 -8 49 -8q53 0 88.5 29t49.5 82q6 25 9 85.5t8 79.5q12 46 51 79t76 46t69 15q-45 4 -86 31t-41 77q0 31 40 114.5t40 118.5t-22.5 55t-61.5 20
q-25 0 -53 -8l1 9q31 10 62 10q62 0 100.5 -32t38.5 -81q0 -32 -37.5 -109.5t-37.5 -119.5q0 -81 94 -81z" />
    <glyph glyph-name="guilsinglleft.cap" horiz-adv-x="323" 
d="M70 333v2l275 204h5l-200 -208l97 -201h-4z" />
    <glyph glyph-name="guilsinglright.cap" horiz-adv-x="323" 
d="M298 335v-2l-275 -203h-5l200 207l-97 202h4z" />
    <glyph glyph-name="guillemotleft.cap" horiz-adv-x="478" 
d="M70 333v2l275 204h5l-200 -208l97 -201h-4zM224 333v2l276 204h5l-200 -208l97 -201h-4z" />
    <glyph glyph-name="guillemotright.cap" horiz-adv-x="478" 
d="M298 335v-2l-275 -203h-5l200 207l-97 202h4zM453 335v-2l-276 -203h-5l200 207l-97 202h4z" />
    <glyph glyph-name="slash.cap" horiz-adv-x="351" 
d="M-66 -103l510 852h12l-510 -852h-12z" />
    <glyph glyph-name="backslash.cap" horiz-adv-x="351" 
d="M242 -103h-10l-83 852h10z" />
    <glyph glyph-name="bar.cap" horiz-adv-x="214" 
d="M15 -103l213 852h10l-213 -852h-10z" />
    <glyph glyph-name="at.cap" horiz-adv-x="939" 
d="M640 202q0 -29 18.5 -46.5t46.5 -17.5q69 0 140 86t71 218q0 142 -98.5 228t-251.5 86q-124 0 -235 -62.5t-180.5 -175.5t-69.5 -249q0 -159 106 -256t278 -97q167 0 294 88l6 -8q-129 -90 -301 -90q-176 0 -284.5 100t-108.5 263q0 138 70.5 253.5t184 179.5t240.5 64
q156 0 258 -89t102 -235q0 -140 -77 -229t-162 -89q-50 0 -83.5 29.5t-35.5 84.5q-25 -47 -68 -79t-94 -32q-58 0 -91.5 39.5t-33.5 105.5q0 109 71.5 194.5t166.5 85.5q50 0 79 -32.5t28 -82.5l38 107h70l-87 -302q-7 -21 -7 -40zM581 283l26 87q10 42 10 60q0 46 -21.5 73
t-60.5 27q-73 0 -125.5 -90t-52.5 -192q0 -99 71 -99q47 0 89.5 38.5t63.5 95.5z" />
    <glyph glyph-name="exclamdown.cap" horiz-adv-x="227" 
d="M280 700l-27 -110h-105l28 110h104zM173 492h4l-66 -492h-117z" />
    <glyph glyph-name="questiondown.cap" horiz-adv-x="513" 
d="M438 701l-28 -110h-104l27 110h105zM301 329q-86 -5 -150 -60.5t-64 -141.5q0 -59 34.5 -91.5t100.5 -32.5q100 0 166 61.5t66 142.5q0 60 -44 81l6 7q21 -9 34.5 -32.5t13.5 -55.5q0 -85 -71.5 -150.5t-177.5 -65.5q-91 0 -145.5 45.5t-54.5 116.5q0 75 47.5 133
t112.5 86.5t134 32.5l22 89h10z" />
    <glyph glyph-name="periodcentered.cap" horiz-adv-x="205" 
d="M60 281l27 110h104l-27 -110h-104z" />
    <glyph glyph-name="bullet.cap" horiz-adv-x="364" 
d="M76 335q0 53 38.5 91t91.5 38q52 0 89.5 -38t37.5 -91t-37.5 -91t-89.5 -38q-53 0 -91.5 38t-38.5 91z" />
    <glyph glyph-name="A.1" horiz-adv-x="1024" 
d="M675 295q39 175 162 394q-60 -33 -126 -100t-102 -114t-107 -148q-5 -7 -8 -11t-7 -10t-8 -11h196zM824 -10q-76 0 -120 50.5t-44 130.5q0 50 13 113h-201q-49 -69 -84.5 -113.5t-81 -90.5t-91 -68t-92.5 -22q-56 0 -96 34.5t-40 96.5q0 52 33 88.5t79 47.5l3 -11
q-43 -9 -74 -43t-31 -82q0 -57 37 -89t89 -32q69 0 140 56.5t135.5 144.5t128 180.5t142 180t154.5 128.5h-226q-160 0 -245 -60.5t-85 -151.5q0 -70 79 -103l-5 -8q-36 13 -60 42.5t-24 68.5q0 95 88.5 158.5t252.5 63.5h327q-172 -355 -172 -555q0 -64 24 -100.5t69 -36.5
q51 0 84 38.5t47 101.5l9 -2q-15 -69 -56 -112.5t-106 -43.5z" />
    <glyph glyph-name="Agrave.1" horiz-adv-x="1024" 
d="M888 749l-112 171h86l30 -171h-4zM675 295q39 175 162 394q-60 -33 -126 -100t-102 -114t-107 -148q-5 -7 -8 -11t-7 -10t-8 -11h196zM824 -10q-76 0 -120 50.5t-44 130.5q0 50 13 113h-201q-49 -69 -84.5 -113.5t-81 -90.5t-91 -68t-92.5 -22q-56 0 -96 34.5t-40 96.5
q0 52 33 88.5t79 47.5l3 -11q-43 -9 -74 -43t-31 -82q0 -57 37 -89t89 -32q69 0 140 56.5t135.5 144.5t128 180.5t142 180t154.5 128.5h-226q-160 0 -245 -60.5t-85 -151.5q0 -70 79 -103l-5 -8q-36 13 -60 42.5t-24 68.5q0 95 88.5 158.5t252.5 63.5h327
q-172 -355 -172 -555q0 -64 24 -100.5t69 -36.5q51 0 84 38.5t47 101.5l9 -2q-15 -69 -56 -112.5t-106 -43.5z" />
    <glyph glyph-name="Aacute.1" horiz-adv-x="1024" 
d="M982 920h90l-196 -171h-4zM675 295q39 175 162 394q-60 -33 -126 -100t-102 -114t-107 -148q-5 -7 -8 -11t-7 -10t-8 -11h196zM824 -10q-76 0 -120 50.5t-44 130.5q0 50 13 113h-201q-49 -69 -84.5 -113.5t-81 -90.5t-91 -68t-92.5 -22q-56 0 -96 34.5t-40 96.5
q0 52 33 88.5t79 47.5l3 -11q-43 -9 -74 -43t-31 -82q0 -57 37 -89t89 -32q69 0 140 56.5t135.5 144.5t128 180.5t142 180t154.5 128.5h-226q-160 0 -245 -60.5t-85 -151.5q0 -70 79 -103l-5 -8q-36 13 -60 42.5t-24 68.5q0 95 88.5 158.5t252.5 63.5h327
q-172 -355 -172 -555q0 -64 24 -100.5t69 -36.5q51 0 84 38.5t47 101.5l9 -2q-15 -69 -56 -112.5t-106 -43.5z" />
    <glyph glyph-name="Acircumflex.1" horiz-adv-x="1024" 
d="M974 741l-81 139l-151 -139h-13l205 189h2l107 -189h-69zM675 295q39 175 162 394q-60 -33 -126 -100t-102 -114t-107 -148q-5 -7 -8 -11t-7 -10t-8 -11h196zM824 -10q-76 0 -120 50.5t-44 130.5q0 50 13 113h-201q-49 -69 -84.5 -113.5t-81 -90.5t-91 -68t-92.5 -22
q-56 0 -96 34.5t-40 96.5q0 52 33 88.5t79 47.5l3 -11q-43 -9 -74 -43t-31 -82q0 -57 37 -89t89 -32q69 0 140 56.5t135.5 144.5t128 180.5t142 180t154.5 128.5h-226q-160 0 -245 -60.5t-85 -151.5q0 -70 79 -103l-5 -8q-36 13 -60 42.5t-24 68.5q0 95 88.5 158.5
t252.5 63.5h327q-172 -355 -172 -555q0 -64 24 -100.5t69 -36.5q51 0 84 38.5t47 101.5l9 -2q-15 -69 -56 -112.5t-106 -43.5z" />
    <glyph glyph-name="Atilde.1" horiz-adv-x="1024" 
d="M944 766q-30 0 -79 42t-76 42q-49 0 -84 -87h-9q20 62 54.5 96.5t75.5 34.5q30 0 79.5 -42t76.5 -42q49 0 83 88h9q-20 -62 -54.5 -97t-75.5 -35zM675 295q39 175 162 394q-60 -33 -126 -100t-102 -114t-107 -148q-5 -7 -8 -11t-7 -10t-8 -11h196zM824 -10
q-76 0 -120 50.5t-44 130.5q0 50 13 113h-201q-49 -69 -84.5 -113.5t-81 -90.5t-91 -68t-92.5 -22q-56 0 -96 34.5t-40 96.5q0 52 33 88.5t79 47.5l3 -11q-43 -9 -74 -43t-31 -82q0 -57 37 -89t89 -32q69 0 140 56.5t135.5 144.5t128 180.5t142 180t154.5 128.5h-226
q-160 0 -245 -60.5t-85 -151.5q0 -70 79 -103l-5 -8q-36 13 -60 42.5t-24 68.5q0 95 88.5 158.5t252.5 63.5h327q-172 -355 -172 -555q0 -64 24 -100.5t69 -36.5q51 0 84 38.5t47 101.5l9 -2q-15 -69 -56 -112.5t-106 -43.5z" />
    <glyph glyph-name="Adieresis.1" horiz-adv-x="1024" 
d="M905 759l28 112h77l-28 -112h-77zM753 759l28 112h77l-28 -112h-77zM675 295q39 175 162 394q-60 -33 -126 -100t-102 -114t-107 -148q-5 -7 -8 -11t-7 -10t-8 -11h196zM824 -10q-76 0 -120 50.5t-44 130.5q0 50 13 113h-201q-49 -69 -84.5 -113.5t-81 -90.5t-91 -68
t-92.5 -22q-56 0 -96 34.5t-40 96.5q0 52 33 88.5t79 47.5l3 -11q-43 -9 -74 -43t-31 -82q0 -57 37 -89t89 -32q69 0 140 56.5t135.5 144.5t128 180.5t142 180t154.5 128.5h-226q-160 0 -245 -60.5t-85 -151.5q0 -70 79 -103l-5 -8q-36 13 -60 42.5t-24 68.5
q0 95 88.5 158.5t252.5 63.5h327q-172 -355 -172 -555q0 -64 24 -100.5t69 -36.5q51 0 84 38.5t47 101.5l9 -2q-15 -69 -56 -112.5t-106 -43.5z" />
    <glyph glyph-name="Aring.1" horiz-adv-x="1024" 
d="M814 808q0 42 30.5 70t70.5 28q34 0 57 -22.5t23 -55.5q0 -42 -30.5 -70t-70.5 -28q-34 0 -57 22.5t-23 55.5zM985 828q0 29 -20 48.5t-50 19.5q-36 0 -63.5 -25t-27.5 -63q0 -29 20 -48.5t50 -19.5q36 0 63.5 25t27.5 63zM675 295q39 175 162 394q-60 -33 -126 -100
t-102 -114t-107 -148q-5 -7 -8 -11t-7 -10t-8 -11h196zM824 -10q-76 0 -120 50.5t-44 130.5q0 50 13 113h-201q-49 -69 -84.5 -113.5t-81 -90.5t-91 -68t-92.5 -22q-56 0 -96 34.5t-40 96.5q0 52 33 88.5t79 47.5l3 -11q-43 -9 -74 -43t-31 -82q0 -57 37 -89t89 -32
q69 0 140 56.5t135.5 144.5t128 180.5t142 180t154.5 128.5h-226q-160 0 -245 -60.5t-85 -151.5q0 -70 79 -103l-5 -8q-36 13 -60 42.5t-24 68.5q0 95 88.5 158.5t252.5 63.5h327q-172 -355 -172 -555q0 -64 24 -100.5t69 -36.5q51 0 84 38.5t47 101.5l9 -2
q-15 -69 -56 -112.5t-106 -43.5z" />
    <glyph glyph-name="Amacron.1" horiz-adv-x="1024" 
d="M1015 785h-281l3 10h281zM675 295q39 175 162 394q-60 -33 -126 -100t-102 -114t-107 -148q-5 -7 -8 -11t-7 -10t-8 -11h196zM824 -10q-76 0 -120 50.5t-44 130.5q0 50 13 113h-201q-49 -69 -84.5 -113.5t-81 -90.5t-91 -68t-92.5 -22q-56 0 -96 34.5t-40 96.5
q0 52 33 88.5t79 47.5l3 -11q-43 -9 -74 -43t-31 -82q0 -57 37 -89t89 -32q69 0 140 56.5t135.5 144.5t128 180.5t142 180t154.5 128.5h-226q-160 0 -245 -60.5t-85 -151.5q0 -70 79 -103l-5 -8q-36 13 -60 42.5t-24 68.5q0 95 88.5 158.5t252.5 63.5h327
q-172 -355 -172 -555q0 -64 24 -100.5t69 -36.5q51 0 84 38.5t47 101.5l9 -2q-15 -69 -56 -112.5t-106 -43.5z" />
    <glyph glyph-name="Abreve.1" horiz-adv-x="1024" 
d="M1035 923q-20 -75 -72 -123.5t-115 -48.5q-64 0 -93.5 48.5t-10.5 123.5h8q-13 -59 13.5 -87t94.5 -28q131 0 168 115h7zM675 295q39 175 162 394q-60 -33 -126 -100t-102 -114t-107 -148q-5 -7 -8 -11t-7 -10t-8 -11h196zM824 -10q-76 0 -120 50.5t-44 130.5
q0 50 13 113h-201q-49 -69 -84.5 -113.5t-81 -90.5t-91 -68t-92.5 -22q-56 0 -96 34.5t-40 96.5q0 52 33 88.5t79 47.5l3 -11q-43 -9 -74 -43t-31 -82q0 -57 37 -89t89 -32q69 0 140 56.5t135.5 144.5t128 180.5t142 180t154.5 128.5h-226q-160 0 -245 -60.5t-85 -151.5
q0 -70 79 -103l-5 -8q-36 13 -60 42.5t-24 68.5q0 95 88.5 158.5t252.5 63.5h327q-172 -355 -172 -555q0 -64 24 -100.5t69 -36.5q51 0 84 38.5t47 101.5l9 -2q-15 -69 -56 -112.5t-106 -43.5z" />
    <glyph glyph-name="Aogonek.1" horiz-adv-x="1024" 
d="M675 295q39 175 162 394q-60 -33 -126 -100t-102 -114t-107 -148q-5 -7 -8 -11t-7 -10t-8 -11h196zM783 -222q-35 0 -59.5 20t-24.5 51q0 37 37 69t114 74q-18 -2 -26 -2q-76 0 -120 50.5t-44 130.5q0 50 13 113h-201q-49 -69 -84.5 -113.5t-81 -90.5t-91 -68t-92.5 -22
q-56 0 -96 34.5t-40 96.5q0 52 33 88.5t79 47.5l3 -11q-43 -9 -74 -43t-31 -82q0 -57 37 -89t89 -32q69 0 140 56.5t135.5 144.5t128 180.5t142 180t154.5 128.5h-226q-160 0 -245 -60.5t-85 -151.5q0 -70 79 -103l-5 -8q-36 13 -60 42.5t-24 68.5q0 95 88.5 158.5
t252.5 63.5h327q-172 -355 -172 -555q0 -64 24 -100.5t69 -36.5q51 0 84 38.5t47 101.5l9 -2q-22 -105 -95 -141q-77 -43 -110 -77t-33 -79q0 -25 13.5 -40.5t36.5 -15.5q65 0 110 82l8 -4q-49 -93 -133 -93z" />
    <glyph glyph-name="B.1" horiz-adv-x="886" 
d="M544 708q-135 0 -251 -72.5t-182 -191t-66 -251.5q0 -86 38.5 -136.5t89.5 -50.5q47 0 71.5 33.5t47.5 116.5l69 249q31 113 73 168.5t109 92.5h5q-44 -74 -93 -262l-60 -218q-52 -196 -207 -196q-65 0 -109 55.5t-44 147.5q0 136 67.5 257t188 195.5t263.5 74.5
q144 0 227 -49.5t83 -135.5q0 -77 -67 -122.5t-161 -49.5v-2q82 -5 138.5 -47.5t56.5 -114.5q0 -93 -82.5 -151t-193.5 -58q-53 0 -98.5 17t-67.5 41l7 8q48 -53 141 -53q92 0 147 58t55 157q0 138 -172 138h-50l3 11h48q96 0 152.5 44t56.5 137q0 160 -233 160z" />
    <glyph glyph-name="C.1" horiz-adv-x="640" 
d="M469 526l10 4q5 -31 27.5 -50.5t53.5 -19.5q40 0 67 31.5t27 78.5q0 58 -36 92t-103 34q-94 0 -181 -81.5t-141 -218t-54 -286.5q0 -123 50 -186.5t130 -63.5q84 0 149.5 54.5t84.5 144.5l10 -4q-22 -96 -93.5 -153t-167.5 -57q-106 0 -183 79.5t-77 222.5
q0 140 66.5 271t173 211.5t219.5 80.5q79 0 121 -38t42 -102q0 -50 -29 -85t-75 -35q-34 0 -59 21.5t-32 54.5z" />
    <glyph glyph-name="Ccedilla.1" horiz-adv-x="640" 
d="M249 -372q-36 0 -60 16t-32 42l10 5q14 -50 72 -50q35 0 57.5 25.5t22.5 62.5q0 26 -20 37t-64 11l46 69q-100 8 -169.5 87t-69.5 214q0 140 66.5 271t173 211.5t219.5 80.5q79 0 121 -38t42 -102q0 -50 -29 -85t-75 -35q-34 0 -59 21.5t-32 54.5l10 4q5 -31 27.5 -50.5
t53.5 -19.5q40 0 67 31.5t27 78.5q0 58 -36 92t-103 34q-94 0 -181 -81.5t-141 -218t-54 -286.5q0 -123 50 -186.5t130 -63.5q84 0 149.5 54.5t84.5 144.5l10 -4q-22 -96 -93.5 -153t-167.5 -57h-12l-39 -60q51 0 84 -17t33 -50q0 -37 -34.5 -63.5t-84.5 -26.5z" />
    <glyph glyph-name="Cacute.1" horiz-adv-x="640" 
d="M620 920h90l-196 -171h-4zM469 526l10 4q5 -31 27.5 -50.5t53.5 -19.5q40 0 67 31.5t27 78.5q0 58 -36 92t-103 34q-94 0 -181 -81.5t-141 -218t-54 -286.5q0 -123 50 -186.5t130 -63.5q84 0 149.5 54.5t84.5 144.5l10 -4q-22 -96 -93.5 -153t-167.5 -57
q-106 0 -183 79.5t-77 222.5q0 140 66.5 271t173 211.5t219.5 80.5q79 0 121 -38t42 -102q0 -50 -29 -85t-75 -35q-34 0 -59 21.5t-32 54.5z" />
    <glyph glyph-name="Ccircumflex.1" horiz-adv-x="640" 
d="M633 741l-81 139l-151 -139h-13l205 189h2l107 -189h-69zM469 526l10 4q5 -31 27.5 -50.5t53.5 -19.5q40 0 67 31.5t27 78.5q0 58 -36 92t-103 34q-94 0 -181 -81.5t-141 -218t-54 -286.5q0 -123 50 -186.5t130 -63.5q84 0 149.5 54.5t84.5 144.5l10 -4
q-22 -96 -93.5 -153t-167.5 -57q-106 0 -183 79.5t-77 222.5q0 140 66.5 271t173 211.5t219.5 80.5q79 0 121 -38t42 -102q0 -50 -29 -85t-75 -35q-34 0 -59 21.5t-32 54.5z" />
    <glyph glyph-name="Cdotaccent.1" horiz-adv-x="640" 
d="M478 759l28 112h96l-28 -112h-96zM469 526l10 4q5 -31 27.5 -50.5t53.5 -19.5q40 0 67 31.5t27 78.5q0 58 -36 92t-103 34q-94 0 -181 -81.5t-141 -218t-54 -286.5q0 -123 50 -186.5t130 -63.5q84 0 149.5 54.5t84.5 144.5l10 -4q-22 -96 -93.5 -153t-167.5 -57
q-106 0 -183 79.5t-77 222.5q0 140 66.5 271t173 211.5t219.5 80.5q79 0 121 -38t42 -102q0 -50 -29 -85t-75 -35q-34 0 -59 21.5t-32 54.5z" />
    <glyph glyph-name="Ccaron.1" horiz-adv-x="640" 
d="M497 739h-2l-107 189h68l81 -139l151 139h13zM469 526l10 4q5 -31 27.5 -50.5t53.5 -19.5q40 0 67 31.5t27 78.5q0 58 -36 92t-103 34q-94 0 -181 -81.5t-141 -218t-54 -286.5q0 -123 50 -186.5t130 -63.5q84 0 149.5 54.5t84.5 144.5l10 -4q-22 -96 -93.5 -153
t-167.5 -57q-106 0 -183 79.5t-77 222.5q0 140 66.5 271t173 211.5t219.5 80.5q79 0 121 -38t42 -102q0 -50 -29 -85t-75 -35q-34 0 -59 21.5t-32 54.5z" />
    <glyph glyph-name="D.1" horiz-adv-x="920" 
d="M546 708q-135 0 -251.5 -72.5t-183 -191t-66.5 -251.5q0 -86 38.5 -136.5t89.5 -50.5q47 0 71.5 33.5t47.5 116.5l69 249q31 113 73 168.5t109 92.5h5q-44 -74 -93 -262l-60 -218q-52 -196 -207 -196q-65 0 -109 55.5t-44 147.5q0 136 68 257t188.5 195.5t263.5 74.5
q167 0 263 -89t96 -234q0 -107 -52.5 -200.5t-145 -150t-200.5 -56.5q-87 0 -137 35l6 8q47 -30 113 -30q94 0 168 61t112.5 157t38.5 207q0 280 -271 280z" />
    <glyph glyph-name="Dcaron.1" horiz-adv-x="920" 
d="M603 739h-2l-107 189h68l81 -139l151 139h13zM546 708q-135 0 -251.5 -72.5t-183 -191t-66.5 -251.5q0 -86 38.5 -136.5t89.5 -50.5q47 0 71.5 33.5t47.5 116.5l69 249q31 113 73 168.5t109 92.5h5q-44 -74 -93 -262l-60 -218q-52 -196 -207 -196q-65 0 -109 55.5
t-44 147.5q0 136 68 257t188.5 195.5t263.5 74.5q167 0 263 -89t96 -234q0 -107 -52.5 -200.5t-145 -150t-200.5 -56.5q-87 0 -137 35l6 8q47 -30 113 -30q94 0 168 61t112.5 157t38.5 207q0 280 -271 280z" />
    <glyph glyph-name="E.1" horiz-adv-x="640" 
d="M375 337q29 0 46 11t17 26q0 33 -66 33q-42 0 -84 -12q27 -58 87 -58zM582 125q0 -97 -79 -165t-212 -68q-117 0 -200 64.5t-83 166.5q0 100 64.5 168.5t160.5 101.5q-39 47 -39 107q0 86 69 148t175 62q80 0 129.5 -39t49.5 -101q0 -50 -27.5 -84t-77.5 -46l-1 10
q45 10 70.5 42.5t25.5 77.5q0 55 -42 90t-108 35q-84 0 -135 -61t-51 -157q0 -40 12 -70q43 10 85 10q80 0 80 -43q0 -20 -20.5 -34t-58.5 -14q-67 0 -123 53q-65 -31 -105.5 -95t-40.5 -161q0 -100 58.5 -157.5t153.5 -57.5q117 0 188.5 63.5t71.5 153.5q0 72 -58 97l5 9
q63 -26 63 -106z" />
    <glyph glyph-name="Egrave.1" horiz-adv-x="640" 
d="M502 749l-112 171h86l30 -171h-4zM375 337q29 0 46 11t17 26q0 33 -66 33q-42 0 -84 -12q27 -58 87 -58zM582 125q0 -97 -79 -165t-212 -68q-117 0 -200 64.5t-83 166.5q0 100 64.5 168.5t160.5 101.5q-39 47 -39 107q0 86 69 148t175 62q80 0 129.5 -39t49.5 -101
q0 -50 -27.5 -84t-77.5 -46l-1 10q45 10 70.5 42.5t25.5 77.5q0 55 -42 90t-108 35q-84 0 -135 -61t-51 -157q0 -40 12 -70q43 10 85 10q80 0 80 -43q0 -20 -20.5 -34t-58.5 -14q-67 0 -123 53q-65 -31 -105.5 -95t-40.5 -161q0 -100 58.5 -157.5t153.5 -57.5
q117 0 188.5 63.5t71.5 153.5q0 72 -58 97l5 9q63 -26 63 -106z" />
    <glyph glyph-name="Eacute.1" horiz-adv-x="640" 
d="M574 920h90l-196 -171h-4zM375 337q29 0 46 11t17 26q0 33 -66 33q-42 0 -84 -12q27 -58 87 -58zM582 125q0 -97 -79 -165t-212 -68q-117 0 -200 64.5t-83 166.5q0 100 64.5 168.5t160.5 101.5q-39 47 -39 107q0 86 69 148t175 62q80 0 129.5 -39t49.5 -101
q0 -50 -27.5 -84t-77.5 -46l-1 10q45 10 70.5 42.5t25.5 77.5q0 55 -42 90t-108 35q-84 0 -135 -61t-51 -157q0 -40 12 -70q43 10 85 10q80 0 80 -43q0 -20 -20.5 -34t-58.5 -14q-67 0 -123 53q-65 -31 -105.5 -95t-40.5 -161q0 -100 58.5 -157.5t153.5 -57.5
q117 0 188.5 63.5t71.5 153.5q0 72 -58 97l5 9q63 -26 63 -106z" />
    <glyph glyph-name="Ecircumflex.1" horiz-adv-x="640" 
d="M588 741l-81 139l-151 -139h-13l205 189h2l107 -189h-69zM375 337q29 0 46 11t17 26q0 33 -66 33q-42 0 -84 -12q27 -58 87 -58zM582 125q0 -97 -79 -165t-212 -68q-117 0 -200 64.5t-83 166.5q0 100 64.5 168.5t160.5 101.5q-39 47 -39 107q0 86 69 148t175 62
q80 0 129.5 -39t49.5 -101q0 -50 -27.5 -84t-77.5 -46l-1 10q45 10 70.5 42.5t25.5 77.5q0 55 -42 90t-108 35q-84 0 -135 -61t-51 -157q0 -40 12 -70q43 10 85 10q80 0 80 -43q0 -20 -20.5 -34t-58.5 -14q-67 0 -123 53q-65 -31 -105.5 -95t-40.5 -161q0 -100 58.5 -157.5
t153.5 -57.5q117 0 188.5 63.5t71.5 153.5q0 72 -58 97l5 9q63 -26 63 -106z" />
    <glyph glyph-name="Edieresis.1" horiz-adv-x="640" 
d="M519 759l28 112h77l-28 -112h-77zM367 759l28 112h77l-28 -112h-77zM375 337q29 0 46 11t17 26q0 33 -66 33q-42 0 -84 -12q27 -58 87 -58zM582 125q0 -97 -79 -165t-212 -68q-117 0 -200 64.5t-83 166.5q0 100 64.5 168.5t160.5 101.5q-39 47 -39 107q0 86 69 148
t175 62q80 0 129.5 -39t49.5 -101q0 -50 -27.5 -84t-77.5 -46l-1 10q45 10 70.5 42.5t25.5 77.5q0 55 -42 90t-108 35q-84 0 -135 -61t-51 -157q0 -40 12 -70q43 10 85 10q80 0 80 -43q0 -20 -20.5 -34t-58.5 -14q-67 0 -123 53q-65 -31 -105.5 -95t-40.5 -161
q0 -100 58.5 -157.5t153.5 -57.5q117 0 188.5 63.5t71.5 153.5q0 72 -58 97l5 9q63 -26 63 -106z" />
    <glyph glyph-name="Emacron.1" horiz-adv-x="640" 
d="M628 785h-281l3 10h281zM375 337q29 0 46 11t17 26q0 33 -66 33q-42 0 -84 -12q27 -58 87 -58zM582 125q0 -97 -79 -165t-212 -68q-117 0 -200 64.5t-83 166.5q0 100 64.5 168.5t160.5 101.5q-39 47 -39 107q0 86 69 148t175 62q80 0 129.5 -39t49.5 -101
q0 -50 -27.5 -84t-77.5 -46l-1 10q45 10 70.5 42.5t25.5 77.5q0 55 -42 90t-108 35q-84 0 -135 -61t-51 -157q0 -40 12 -70q43 10 85 10q80 0 80 -43q0 -20 -20.5 -34t-58.5 -14q-67 0 -123 53q-65 -31 -105.5 -95t-40.5 -161q0 -100 58.5 -157.5t153.5 -57.5
q117 0 188.5 63.5t71.5 153.5q0 72 -58 97l5 9q63 -26 63 -106z" />
    <glyph glyph-name="Ebreve.1" horiz-adv-x="640" 
d="M649 923q-20 -75 -72 -123.5t-115 -48.5q-64 0 -93.5 48.5t-10.5 123.5h8q-13 -59 13.5 -87t94.5 -28q131 0 168 115h7zM375 337q29 0 46 11t17 26q0 33 -66 33q-42 0 -84 -12q27 -58 87 -58zM582 125q0 -97 -79 -165t-212 -68q-117 0 -200 64.5t-83 166.5
q0 100 64.5 168.5t160.5 101.5q-39 47 -39 107q0 86 69 148t175 62q80 0 129.5 -39t49.5 -101q0 -50 -27.5 -84t-77.5 -46l-1 10q45 10 70.5 42.5t25.5 77.5q0 55 -42 90t-108 35q-84 0 -135 -61t-51 -157q0 -40 12 -70q43 10 85 10q80 0 80 -43q0 -20 -20.5 -34t-58.5 -14
q-67 0 -123 53q-65 -31 -105.5 -95t-40.5 -161q0 -100 58.5 -157.5t153.5 -57.5q117 0 188.5 63.5t71.5 153.5q0 72 -58 97l5 9q63 -26 63 -106z" />
    <glyph glyph-name="Edotaccent.1" horiz-adv-x="640" 
d="M434 759l28 112h96l-28 -112h-96zM375 337q29 0 46 11t17 26q0 33 -66 33q-42 0 -84 -12q27 -58 87 -58zM582 125q0 -97 -79 -165t-212 -68q-117 0 -200 64.5t-83 166.5q0 100 64.5 168.5t160.5 101.5q-39 47 -39 107q0 86 69 148t175 62q80 0 129.5 -39t49.5 -101
q0 -50 -27.5 -84t-77.5 -46l-1 10q45 10 70.5 42.5t25.5 77.5q0 55 -42 90t-108 35q-84 0 -135 -61t-51 -157q0 -40 12 -70q43 10 85 10q80 0 80 -43q0 -20 -20.5 -34t-58.5 -14q-67 0 -123 53q-65 -31 -105.5 -95t-40.5 -161q0 -100 58.5 -157.5t153.5 -57.5
q117 0 188.5 63.5t71.5 153.5q0 72 -58 97l5 9q63 -26 63 -106z" />
    <glyph glyph-name="Eogonek.1" horiz-adv-x="640" 
d="M375 337q29 0 46 11t17 26q0 33 -66 33q-42 0 -84 -12q27 -58 87 -58zM476 -206q-49 -93 -133 -93q-35 0 -59.5 20t-24.5 51q0 35 31.5 64.5t98.5 67.5q-45 -12 -98 -12q-117 0 -200 64.5t-83 166.5q0 100 64.5 168.5t160.5 101.5q-39 47 -39 107q0 86 69 148t175 62
q80 0 129.5 -39t49.5 -101q0 -50 -27.5 -84t-77.5 -46l-1 10q45 10 70.5 42.5t25.5 77.5q0 55 -42 90t-108 35q-84 0 -135 -61t-51 -157q0 -40 12 -70q43 10 85 10q80 0 80 -43q0 -20 -20.5 -34t-58.5 -14q-67 0 -123 53q-65 -31 -105.5 -95t-40.5 -161q0 -100 58.5 -157.5
t153.5 -57.5q117 0 188.5 63.5t71.5 153.5q0 72 -58 97l5 9q63 -26 63 -106q0 -66 -38.5 -121.5t-108.5 -84.5q-68 -39 -97.5 -72t-29.5 -75q0 -25 13.5 -40.5t36.5 -15.5q65 0 110 82z" />
    <glyph glyph-name="Ecaron.1" horiz-adv-x="640" 
d="M451 739h-2l-107 189h68l81 -139l151 139h13zM375 337q29 0 46 11t17 26q0 33 -66 33q-42 0 -84 -12q27 -58 87 -58zM582 125q0 -97 -79 -165t-212 -68q-117 0 -200 64.5t-83 166.5q0 100 64.5 168.5t160.5 101.5q-39 47 -39 107q0 86 69 148t175 62q80 0 129.5 -39
t49.5 -101q0 -50 -27.5 -84t-77.5 -46l-1 10q45 10 70.5 42.5t25.5 77.5q0 55 -42 90t-108 35q-84 0 -135 -61t-51 -157q0 -40 12 -70q43 10 85 10q80 0 80 -43q0 -20 -20.5 -34t-58.5 -14q-67 0 -123 53q-65 -31 -105.5 -95t-40.5 -161q0 -100 58.5 -157.5t153.5 -57.5
q117 0 188.5 63.5t71.5 153.5q0 72 -58 97l5 9q63 -26 63 -106z" />
    <glyph glyph-name="F.1" horiz-adv-x="692" 
d="M291 -10q-83 0 -133 48.5t-50 113.5q0 53 26.5 94t66.5 61l4 -9q-87 -47 -87 -146q0 -61 44 -104.5t115 -43.5q76 0 120 47t69 143l41 162h-148l3 10h148l18 73q28 109 73 168.5t112 89.5q-51 -12 -118 -10t-115 9t-108 15t-97 8q-69 0 -114.5 -38.5t-45.5 -99.5
q0 -74 78 -108l-4 -8q-37 14 -60.5 44t-23.5 72q0 65 49 106.5t121 41.5q38 0 99.5 -8.5t110.5 -16t119 -9t126 12.5l3 -9q-39 -32 -60 -85.5t-51 -175.5l-18 -72h100l-3 -10h-99l-35 -138q-27 -108 -99.5 -168t-176.5 -60z" />
    <glyph glyph-name="G.1" horiz-adv-x="676" 
d="M273 -225q-60 0 -98.5 30.5t-38.5 76.5q0 64 60 83l4 -9q-54 -16 -54 -74q0 -43 33 -67.5t80 -24.5q86 0 136 59t82 178l24 94q-76 -89 -187 -89q-106 0 -182.5 67.5t-76.5 185.5q0 84 35.5 163t94 136t137.5 91.5t162 34.5q90 0 140 -41.5t50 -106.5q0 -47 -24.5 -83
t-70.5 -50l-2 10q41 11 64 45t23 78q0 59 -43.5 96.5t-120.5 37.5q-97 0 -178 -64t-126.5 -167t-45.5 -219q0 -99 49 -151t125 -52q108 0 184 102l42 165h88l-63 -249q-73 -286 -302 -286z" />
    <glyph glyph-name="Gcircumflex.1" horiz-adv-x="676" 
d="M615 741l-81 139l-151 -139h-13l205 189h2l107 -189h-69zM273 -225q-60 0 -98.5 30.5t-38.5 76.5q0 64 60 83l4 -9q-54 -16 -54 -74q0 -43 33 -67.5t80 -24.5q86 0 136 59t82 178l24 94q-76 -89 -187 -89q-106 0 -182.5 67.5t-76.5 185.5q0 84 35.5 163t94 136
t137.5 91.5t162 34.5q90 0 140 -41.5t50 -106.5q0 -47 -24.5 -83t-70.5 -50l-2 10q41 11 64 45t23 78q0 59 -43.5 96.5t-120.5 37.5q-97 0 -178 -64t-126.5 -167t-45.5 -219q0 -99 49 -151t125 -52q108 0 184 102l42 165h88l-63 -249q-73 -286 -302 -286z" />
    <glyph glyph-name="Gbreve.1" horiz-adv-x="676" 
d="M677 923q-20 -75 -72 -123.5t-115 -48.5q-64 0 -93.5 48.5t-10.5 123.5h8q-13 -59 13.5 -87t94.5 -28q131 0 168 115h7zM273 -225q-60 0 -98.5 30.5t-38.5 76.5q0 64 60 83l4 -9q-54 -16 -54 -74q0 -43 33 -67.5t80 -24.5q86 0 136 59t82 178l24 94q-76 -89 -187 -89
q-106 0 -182.5 67.5t-76.5 185.5q0 84 35.5 163t94 136t137.5 91.5t162 34.5q90 0 140 -41.5t50 -106.5q0 -47 -24.5 -83t-70.5 -50l-2 10q41 11 64 45t23 78q0 59 -43.5 96.5t-120.5 37.5q-97 0 -178 -64t-126.5 -167t-45.5 -219q0 -99 49 -151t125 -52q108 0 184 102
l42 165h88l-63 -249q-73 -286 -302 -286z" />
    <glyph glyph-name="Gdotaccent.1" horiz-adv-x="676" 
d="M461 759l28 112h96l-28 -112h-96zM273 -225q-60 0 -98.5 30.5t-38.5 76.5q0 64 60 83l4 -9q-54 -16 -54 -74q0 -43 33 -67.5t80 -24.5q86 0 136 59t82 178l24 94q-76 -89 -187 -89q-106 0 -182.5 67.5t-76.5 185.5q0 84 35.5 163t94 136t137.5 91.5t162 34.5
q90 0 140 -41.5t50 -106.5q0 -47 -24.5 -83t-70.5 -50l-2 10q41 11 64 45t23 78q0 59 -43.5 96.5t-120.5 37.5q-97 0 -178 -64t-126.5 -167t-45.5 -219q0 -99 49 -151t125 -52q108 0 184 102l42 165h88l-63 -249q-73 -286 -302 -286z" />
    <glyph glyph-name="uni0122.1" horiz-adv-x="676" 
d="M273 -225q-60 0 -98.5 30.5t-38.5 76.5q0 64 60 83l4 -9q-54 -16 -54 -74q0 -43 33 -67.5t80 -24.5q86 0 136 59t82 178l24 94q-76 -89 -187 -89q-106 0 -182.5 67.5t-76.5 185.5q0 84 35.5 163t94 136t137.5 91.5t162 34.5q90 0 140 -41.5t50 -106.5q0 -47 -24.5 -83
t-70.5 -50l-2 10q41 11 64 45t23 78q0 59 -43.5 96.5t-120.5 37.5q-97 0 -178 -64t-126.5 -167t-45.5 -219q0 -99 49 -151t125 -52q108 0 184 102l42 165h88l-63 -249q-73 -286 -302 -286zM194 -380l24 98h100l-25 -99q-12 -50 -48 -79t-97 -24l2 10q108 -8 134 94h-90z" />
    <glyph glyph-name="H.1" horiz-adv-x="1013" 
d="M810 -10q-54 0 -88.5 35.5t-34.5 96.5q0 38 14 88l37 145h-337l-37 -146q-57 -219 -220 -219q-52 0 -85 31t-33 77q0 53 44 86l7 -8q-40 -29 -40 -78q0 -41 27 -67t65 -26q46 0 77 40t54 129l66 256q28 108 66.5 165.5t97.5 94.5h-75q-158 0 -242.5 -62t-84.5 -148
q0 -72 79 -105l-5 -8q-35 13 -59.5 43.5t-24.5 69.5q0 90 88.5 155t249.5 65h96q-26 -42 -43 -94t-49 -177l-16 -63h337l37 142q53 207 200 207q37 0 63.5 -18.5t36.5 -47.5l-9 -5q-19 56 -75 56q-44 0 -69.5 -39.5t-48.5 -135.5l-88 -352q-12 -47 -12 -80q0 -39 17.5 -60.5
t49.5 -21.5q36 0 67.5 32t48.5 85l9 -4q-19 -61 -61.5 -97.5t-96.5 -36.5z" />
    <glyph glyph-name="Hcircumflex.1" horiz-adv-x="1013" 
d="M783 741l-81 139l-151 -139h-13l205 189h2l107 -189h-69zM810 -10q-54 0 -88.5 35.5t-34.5 96.5q0 38 14 88l37 145h-337l-37 -146q-57 -219 -220 -219q-52 0 -85 31t-33 77q0 53 44 86l7 -8q-40 -29 -40 -78q0 -41 27 -67t65 -26q46 0 77 40t54 129l66 256
q28 108 66.5 165.5t97.5 94.5h-75q-158 0 -242.5 -62t-84.5 -148q0 -72 79 -105l-5 -8q-35 13 -59.5 43.5t-24.5 69.5q0 90 88.5 155t249.5 65h96q-26 -42 -43 -94t-49 -177l-16 -63h337l37 142q53 207 200 207q37 0 63.5 -18.5t36.5 -47.5l-9 -5q-19 56 -75 56
q-44 0 -69.5 -39.5t-48.5 -135.5l-88 -352q-12 -47 -12 -80q0 -39 17.5 -60.5t49.5 -21.5q36 0 67.5 32t48.5 85l9 -4q-19 -61 -61.5 -97.5t-96.5 -36.5z" />
    <glyph glyph-name="I.1" horiz-adv-x="448" 
d="M144 -10q-52 0 -85 31t-33 77q0 53 44 86l7 -8q-40 -29 -40 -78q0 -41 27 -67t65 -26q46 0 77 40t54 129l66 256q28 108 66.5 165.5t97.5 94.5h-75q-158 0 -242.5 -62t-84.5 -148q0 -72 79 -105l-5 -8q-35 13 -59.5 43.5t-24.5 69.5q0 90 88.5 155t249.5 65h96
q-26 -42 -43 -94t-49 -177l-56 -220q-57 -219 -220 -219z" />
    <glyph glyph-name="Igrave.1" horiz-adv-x="448" 
d="M477 749l-112 171h86l30 -171h-4zM144 -10q-52 0 -85 31t-33 77q0 53 44 86l7 -8q-40 -29 -40 -78q0 -41 27 -67t65 -26q46 0 77 40t54 129l66 256q28 108 66.5 165.5t97.5 94.5h-75q-158 0 -242.5 -62t-84.5 -148q0 -72 79 -105l-5 -8q-35 13 -59.5 43.5t-24.5 69.5
q0 90 88.5 155t249.5 65h96q-26 -42 -43 -94t-49 -177l-56 -220q-57 -219 -220 -219z" />
    <glyph glyph-name="Iacute.1" horiz-adv-x="448" 
d="M576 920h90l-196 -171h-4zM144 -10q-52 0 -85 31t-33 77q0 53 44 86l7 -8q-40 -29 -40 -78q0 -41 27 -67t65 -26q46 0 77 40t54 129l66 256q28 108 66.5 165.5t97.5 94.5h-75q-158 0 -242.5 -62t-84.5 -148q0 -72 79 -105l-5 -8q-35 13 -59.5 43.5t-24.5 69.5
q0 90 88.5 155t249.5 65h96q-26 -42 -43 -94t-49 -177l-56 -220q-57 -219 -220 -219z" />
    <glyph glyph-name="Icircumflex.1" horiz-adv-x="448" 
d="M563 741l-81 139l-151 -139h-13l205 189h2l107 -189h-69zM144 -10q-52 0 -85 31t-33 77q0 53 44 86l7 -8q-40 -29 -40 -78q0 -41 27 -67t65 -26q46 0 77 40t54 129l66 256q28 108 66.5 165.5t97.5 94.5h-75q-158 0 -242.5 -62t-84.5 -148q0 -72 79 -105l-5 -8
q-35 13 -59.5 43.5t-24.5 69.5q0 90 88.5 155t249.5 65h96q-26 -42 -43 -94t-49 -177l-56 -220q-57 -219 -220 -219z" />
    <glyph glyph-name="Idieresis.1" horiz-adv-x="448" 
d="M494 759l28 112h77l-28 -112h-77zM342 759l28 112h77l-28 -112h-77zM144 -10q-52 0 -85 31t-33 77q0 53 44 86l7 -8q-40 -29 -40 -78q0 -41 27 -67t65 -26q46 0 77 40t54 129l66 256q28 108 66.5 165.5t97.5 94.5h-75q-158 0 -242.5 -62t-84.5 -148q0 -72 79 -105l-5 -8
q-35 13 -59.5 43.5t-24.5 69.5q0 90 88.5 155t249.5 65h96q-26 -42 -43 -94t-49 -177l-56 -220q-57 -219 -220 -219z" />
    <glyph glyph-name="Itilde.1" horiz-adv-x="448" 
d="M533 766q-29 0 -78.5 42t-76.5 42q-49 0 -84 -87h-9q20 62 54.5 96.5t75.5 34.5q30 0 79.5 -42t76.5 -42q49 0 83 88h9q-20 -62 -54.5 -97t-75.5 -35zM144 -10q-52 0 -85 31t-33 77q0 53 44 86l7 -8q-40 -29 -40 -78q0 -41 27 -67t65 -26q46 0 77 40t54 129l66 256
q28 108 66.5 165.5t97.5 94.5h-75q-158 0 -242.5 -62t-84.5 -148q0 -72 79 -105l-5 -8q-35 13 -59.5 43.5t-24.5 69.5q0 90 88.5 155t249.5 65h96q-26 -42 -43 -94t-49 -177l-56 -220q-57 -219 -220 -219z" />
    <glyph glyph-name="Imacron.1" horiz-adv-x="448" 
d="M604 785h-281l3 10h281zM144 -10q-52 0 -85 31t-33 77q0 53 44 86l7 -8q-40 -29 -40 -78q0 -41 27 -67t65 -26q46 0 77 40t54 129l66 256q28 108 66.5 165.5t97.5 94.5h-75q-158 0 -242.5 -62t-84.5 -148q0 -72 79 -105l-5 -8q-35 13 -59.5 43.5t-24.5 69.5
q0 90 88.5 155t249.5 65h96q-26 -42 -43 -94t-49 -177l-56 -220q-57 -219 -220 -219z" />
    <glyph glyph-name="Ibreve.1" horiz-adv-x="448" 
d="M625 923q-20 -75 -72 -123.5t-115 -48.5q-64 0 -93.5 48.5t-10.5 123.5h8q-13 -59 13.5 -87t94.5 -28q131 0 168 115h7zM144 -10q-52 0 -85 31t-33 77q0 53 44 86l7 -8q-40 -29 -40 -78q0 -41 27 -67t65 -26q46 0 77 40t54 129l66 256q28 108 66.5 165.5t97.5 94.5h-75
q-158 0 -242.5 -62t-84.5 -148q0 -72 79 -105l-5 -8q-35 13 -59.5 43.5t-24.5 69.5q0 90 88.5 155t249.5 65h96q-26 -42 -43 -94t-49 -177l-56 -220q-57 -219 -220 -219z" />
    <glyph glyph-name="Iogonek.1" horiz-adv-x="448" 
d="M99 -225q-35 0 -59.5 20t-24.5 51q0 38 37.5 70t117.5 76q-16 -2 -26 -2q-52 0 -85 31t-33 77q0 53 44 86l7 -8q-40 -29 -40 -78q0 -41 27 -67t65 -26q46 0 77 40t54 129l66 256q28 108 66.5 165.5t97.5 94.5h-75q-158 0 -242.5 -62t-84.5 -148q0 -72 79 -105l-5 -8
q-35 13 -59.5 43.5t-24.5 69.5q0 90 88.5 155t249.5 65h96q-26 -42 -43 -94t-49 -177l-56 -220q-47 -181 -166 -212q-72 -41 -103 -74t-31 -77q0 -25 13.5 -40.5t36.5 -15.5q65 0 110 82l8 -4q-49 -93 -133 -93z" />
    <glyph glyph-name="Idotaccent.1" horiz-adv-x="448" 
d="M409 759l28 112h96l-28 -112h-96zM144 -10q-52 0 -85 31t-33 77q0 53 44 86l7 -8q-40 -29 -40 -78q0 -41 27 -67t65 -26q46 0 77 40t54 129l66 256q28 108 66.5 165.5t97.5 94.5h-75q-158 0 -242.5 -62t-84.5 -148q0 -72 79 -105l-5 -8q-35 13 -59.5 43.5t-24.5 69.5
q0 90 88.5 155t249.5 65h96q-26 -42 -43 -94t-49 -177l-56 -220q-57 -219 -220 -219z" />
    <glyph glyph-name="J.1" horiz-adv-x="532" 
d="M305 -17l114 447q27 106 66 164.5t97 95.5h-111q-159 0 -243 -60.5t-84 -149.5q0 -72 79 -105l-5 -8q-35 13 -59.5 43.5t-24.5 69.5q0 94 87.5 157t250.5 63h132q-25 -42 -42.5 -94t-49.5 -177l-109 -430q-27 -106 -99.5 -165t-175.5 -59q-82 0 -133 48.5t-51 115.5
q0 57 30 100.5t74 62.5l3 -8q-97 -47 -97 -155q0 -62 44.5 -105.5t114.5 -43.5q78 0 122.5 47.5t69.5 145.5z" />
    <glyph glyph-name="Jcircumflex.1" horiz-adv-x="532" 
d="M657 741l-81 139l-151 -139h-13l205 189h2l107 -189h-69zM305 -17l114 447q27 106 66 164.5t97 95.5h-111q-159 0 -243 -60.5t-84 -149.5q0 -72 79 -105l-5 -8q-35 13 -59.5 43.5t-24.5 69.5q0 94 87.5 157t250.5 63h132q-25 -42 -42.5 -94t-49.5 -177l-109 -430
q-27 -106 -99.5 -165t-175.5 -59q-82 0 -133 48.5t-51 115.5q0 57 30 100.5t74 62.5l3 -8q-97 -47 -97 -155q0 -62 44.5 -105.5t114.5 -43.5q78 0 122.5 47.5t69.5 145.5z" />
    <glyph glyph-name="K.1" horiz-adv-x="913" 
d="M863 149q-7 -74 -48.5 -116.5t-109.5 -42.5q-121 0 -171 150l-75 202q37 61 67 106.5t72.5 100t79.5 89t81.5 58.5t85.5 24q60 0 89.5 -32.5t28.5 -81.5q0 -47 -27.5 -80t-66.5 -46l-2 9q37 15 61.5 45t24.5 73q0 44 -26.5 73.5t-81.5 29.5q-79 0 -157 -75.5t-162 -203.5
l106 -288q24 -64 49.5 -94t66.5 -30t70 33.5t35 98.5zM144 -10q-52 0 -85 31t-33 77q0 53 44 86l7 -8q-40 -29 -40 -78q0 -41 27 -67t65 -26q46 0 77 40t54 129l66 256q28 108 66.5 165.5t97.5 94.5h-75q-158 0 -242.5 -62t-84.5 -148q0 -72 79 -105l-5 -8
q-35 13 -59.5 43.5t-24.5 69.5q0 90 88.5 155t249.5 65h96q-26 -42 -43 -94t-49 -177l-56 -220q-57 -219 -220 -219z" />
    <glyph glyph-name="uni0136.1" horiz-adv-x="913" 
d="M863 149q-7 -74 -48.5 -116.5t-109.5 -42.5q-121 0 -171 150l-75 202q37 61 67 106.5t72.5 100t79.5 89t81.5 58.5t85.5 24q60 0 89.5 -32.5t28.5 -81.5q0 -47 -27.5 -80t-66.5 -46l-2 9q37 15 61.5 45t24.5 73q0 44 -26.5 73.5t-81.5 29.5q-79 0 -157 -75.5t-162 -203.5
l106 -288q24 -64 49.5 -94t66.5 -30t70 33.5t35 98.5zM144 -10q-52 0 -85 31t-33 77q0 53 44 86l7 -8q-40 -29 -40 -78q0 -41 27 -67t65 -26q46 0 77 40t54 129l66 256q28 108 66.5 165.5t97.5 94.5h-75q-158 0 -242.5 -62t-84.5 -148q0 -72 79 -105l-5 -8
q-35 13 -59.5 43.5t-24.5 69.5q0 90 88.5 155t249.5 65h96q-26 -42 -43 -94t-49 -177l-56 -220q-57 -219 -220 -219zM314 -152l24 98h100l-25 -99q-12 -50 -48 -79t-97 -24l2 10q108 -8 134 94h-90z" />
    <glyph glyph-name="L.1" horiz-adv-x="694" 
d="M481 -108q-38 0 -78.5 21t-66 44t-67.5 66t-61 60q-67 -95 -147 -95q-39 0 -63.5 23t-24.5 56q0 41 30 67t74 26q41 0 105 -38q18 48 34 126q2 11 13.5 92t20.5 123q20 111 95.5 179t175.5 68q71 0 110.5 -35t38.5 -85q0 -49 -29 -82.5t-70 -45.5l-2 9q40 13 65.5 43.5
t25.5 76.5q0 42 -31 72.5t-83 30.5q-140 0 -190 -200l-34 -135q-43 -168 -104 -261q8 -5 41.5 -27.5t46 -31t43 -25.5t50 -24t47 -13.5t52.5 -6.5q61 0 99.5 30t38.5 86q0 32 -21 51l7 6q28 -20 28 -68q0 -75 -49 -129t-120 -54zM59 -2q74 0 119 111q-52 41 -101 41
q-39 0 -66.5 -22.5t-27.5 -60.5q0 -30 21 -49.5t55 -19.5z" />
    <glyph glyph-name="Lacute.1" horiz-adv-x="694" 
d="M641 920h90l-196 -171h-4zM481 -108q-38 0 -78.5 21t-66 44t-67.5 66t-61 60q-67 -95 -147 -95q-39 0 -63.5 23t-24.5 56q0 41 30 67t74 26q41 0 105 -38q18 48 34 126q2 11 13.5 92t20.5 123q20 111 95.5 179t175.5 68q71 0 110.5 -35t38.5 -85q0 -49 -29 -82.5
t-70 -45.5l-2 9q40 13 65.5 43.5t25.5 76.5q0 42 -31 72.5t-83 30.5q-140 0 -190 -200l-34 -135q-43 -168 -104 -261q8 -5 41.5 -27.5t46 -31t43 -25.5t50 -24t47 -13.5t52.5 -6.5q61 0 99.5 30t38.5 86q0 32 -21 51l7 6q28 -20 28 -68q0 -75 -49 -129t-120 -54zM59 -2
q74 0 119 111q-52 41 -101 41q-39 0 -66.5 -22.5t-27.5 -60.5q0 -30 21 -49.5t55 -19.5z" />
    <glyph glyph-name="uni013B.1" horiz-adv-x="694" 
d="M481 -108q-38 0 -78.5 21t-66 44t-67.5 66t-61 60q-67 -95 -147 -95q-39 0 -63.5 23t-24.5 56q0 41 30 67t74 26q41 0 105 -38q18 48 34 126q2 11 13.5 92t20.5 123q20 111 95.5 179t175.5 68q71 0 110.5 -35t38.5 -85q0 -49 -29 -82.5t-70 -45.5l-2 9q40 13 65.5 43.5
t25.5 76.5q0 42 -31 72.5t-83 30.5q-140 0 -190 -200l-34 -135q-43 -168 -104 -261q8 -5 41.5 -27.5t46 -31t43 -25.5t50 -24t47 -13.5t52.5 -6.5q61 0 99.5 30t38.5 86q0 32 -21 51l7 6q28 -20 28 -68q0 -75 -49 -129t-120 -54zM59 -2q74 0 119 111q-52 41 -101 41
q-39 0 -66.5 -22.5t-27.5 -60.5q0 -30 21 -49.5t55 -19.5zM154 -165l24 98h100l-25 -99q-12 -50 -48 -79t-97 -24l2 10q108 -8 134 94h-90z" />
    <glyph glyph-name="Lcaron.1" horiz-adv-x="694" 
d="M885 749l-168 -212h-4l89 212h83zM481 -108q-38 0 -78.5 21t-66 44t-67.5 66t-61 60q-67 -95 -147 -95q-39 0 -63.5 23t-24.5 56q0 41 30 67t74 26q41 0 105 -38q18 48 34 126q2 11 13.5 92t20.5 123q20 111 95.5 179t175.5 68q71 0 110.5 -35t38.5 -85q0 -49 -29 -82.5
t-70 -45.5l-2 9q40 13 65.5 43.5t25.5 76.5q0 42 -31 72.5t-83 30.5q-140 0 -190 -200l-34 -135q-43 -168 -104 -261q8 -5 41.5 -27.5t46 -31t43 -25.5t50 -24t47 -13.5t52.5 -6.5q61 0 99.5 30t38.5 86q0 32 -21 51l7 6q28 -20 28 -68q0 -75 -49 -129t-120 -54zM59 -2
q74 0 119 111q-52 41 -101 41q-39 0 -66.5 -22.5t-27.5 -60.5q0 -30 21 -49.5t55 -19.5z" />
    <glyph glyph-name="M.1" horiz-adv-x="1252" 
d="M890 177q0 194 160 493l-465 -680h-4l-61 690q-20 -101 -46 -194.5t-63.5 -185.5t-79.5 -159.5t-96.5 -109t-112.5 -41.5q-55 0 -94 34.5t-39 96.5q0 52 32 87.5t77 46.5l3 -9q-42 -10 -71.5 -43.5t-29.5 -81.5q0 -56 35.5 -88.5t86.5 -32.5q69 0 131.5 59.5t111 162
t85 219t63.5 249.5h-35q-158 0 -244 -63t-86 -149q0 -74 79 -103l-5 -8q-36 11 -60 41t-24 70q0 90 90 156t251 66h131l49 -582l399 582h98q-176 -363 -176 -555q0 -64 24 -100.5t70 -36.5q51 0 83.5 38.5t46.5 101.5l10 -2q-15 -69 -55.5 -112.5t-104.5 -43.5
q-75 0 -119.5 52t-44.5 135z" />
    <glyph glyph-name="N.1" horiz-adv-x="1152" 
d="M519 683q-20 -102 -46 -195.5t-63 -186t-79 -160t-96 -109.5t-112 -42q-55 0 -94.5 34.5t-39.5 96.5q0 52 32 87.5t77 46.5l3 -9q-42 -10 -71.5 -43.5t-29.5 -81.5q0 -56 36 -88.5t87 -32.5q69 0 131 59.5t110 162t84 219t63 249.5h-34q-158 0 -244 -63t-86 -149
q0 -70 79 -103l-5 -8q-36 13 -60 42.5t-24 68.5q0 90 90 156t251 66h132l199 -574q22 87 42 156.5t45.5 143t53 126.5t59.5 97t70 66.5t80 22.5q40 0 64 -22.5t24 -60.5q0 -32 -17 -55.5t-42 -33.5l-3 8q52 22 52 81q0 33 -20.5 53t-57.5 20q-40 0 -77 -22.5t-68 -66
t-57.5 -96t-52 -125.5t-45 -140t-41.5 -153l-34 -133h-27z" />
    <glyph glyph-name="Ntilde.1" horiz-adv-x="1152" 
d="M882 766q-30 0 -79 42t-76 42q-49 0 -84 -87h-9q20 62 54.5 96.5t75.5 34.5q30 0 79.5 -42t76.5 -42q49 0 83 88h9q-20 -62 -54.5 -97t-75.5 -35zM519 683q-20 -102 -46 -195.5t-63 -186t-79 -160t-96 -109.5t-112 -42q-55 0 -94.5 34.5t-39.5 96.5q0 52 32 87.5t77 46.5
l3 -9q-42 -10 -71.5 -43.5t-29.5 -81.5q0 -56 36 -88.5t87 -32.5q69 0 131 59.5t110 162t84 219t63 249.5h-34q-158 0 -244 -63t-86 -149q0 -70 79 -103l-5 -8q-36 13 -60 42.5t-24 68.5q0 90 90 156t251 66h132l199 -574q22 87 42 156.5t45.5 143t53 126.5t59.5 97t70 66.5
t80 22.5q40 0 64 -22.5t24 -60.5q0 -32 -17 -55.5t-42 -33.5l-3 8q52 22 52 81q0 33 -20.5 53t-57.5 20q-40 0 -77 -22.5t-68 -66t-57.5 -96t-52 -125.5t-45 -140t-41.5 -153l-34 -133h-27z" />
    <glyph glyph-name="Nacute.1" horiz-adv-x="1152" 
d="M899 920h90l-196 -171h-4zM519 683q-20 -102 -46 -195.5t-63 -186t-79 -160t-96 -109.5t-112 -42q-55 0 -94.5 34.5t-39.5 96.5q0 52 32 87.5t77 46.5l3 -9q-42 -10 -71.5 -43.5t-29.5 -81.5q0 -56 36 -88.5t87 -32.5q69 0 131 59.5t110 162t84 219t63 249.5h-34
q-158 0 -244 -63t-86 -149q0 -70 79 -103l-5 -8q-36 13 -60 42.5t-24 68.5q0 90 90 156t251 66h132l199 -574q22 87 42 156.5t45.5 143t53 126.5t59.5 97t70 66.5t80 22.5q40 0 64 -22.5t24 -60.5q0 -32 -17 -55.5t-42 -33.5l-3 8q52 22 52 81q0 33 -20.5 53t-57.5 20
q-40 0 -77 -22.5t-68 -66t-57.5 -96t-52 -125.5t-45 -140t-41.5 -153l-34 -133h-27z" />
    <glyph glyph-name="uni0145.1" horiz-adv-x="1152" 
d="M519 683q-20 -102 -46 -195.5t-63 -186t-79 -160t-96 -109.5t-112 -42q-55 0 -94.5 34.5t-39.5 96.5q0 52 32 87.5t77 46.5l3 -9q-42 -10 -71.5 -43.5t-29.5 -81.5q0 -56 36 -88.5t87 -32.5q69 0 131 59.5t110 162t84 219t63 249.5h-34q-158 0 -244 -63t-86 -149
q0 -70 79 -103l-5 -8q-36 13 -60 42.5t-24 68.5q0 90 90 156t251 66h132l199 -574q22 87 42 156.5t45.5 143t53 126.5t59.5 97t70 66.5t80 22.5q40 0 64 -22.5t24 -60.5q0 -32 -17 -55.5t-42 -33.5l-3 8q52 22 52 81q0 33 -20.5 53t-57.5 20q-40 0 -77 -22.5t-68 -66
t-57.5 -96t-52 -125.5t-45 -140t-41.5 -153l-34 -133h-27zM429 -152l24 98h100l-25 -99q-12 -50 -48 -79t-97 -24l2 10q108 -8 134 94h-90z" />
    <glyph glyph-name="Ncaron.1" horiz-adv-x="1152" 
d="M776 739h-2l-107 189h68l81 -139l151 139h13zM519 683q-20 -102 -46 -195.5t-63 -186t-79 -160t-96 -109.5t-112 -42q-55 0 -94.5 34.5t-39.5 96.5q0 52 32 87.5t77 46.5l3 -9q-42 -10 -71.5 -43.5t-29.5 -81.5q0 -56 36 -88.5t87 -32.5q69 0 131 59.5t110 162t84 219
t63 249.5h-34q-158 0 -244 -63t-86 -149q0 -70 79 -103l-5 -8q-36 13 -60 42.5t-24 68.5q0 90 90 156t251 66h132l199 -574q22 87 42 156.5t45.5 143t53 126.5t59.5 97t70 66.5t80 22.5q40 0 64 -22.5t24 -60.5q0 -32 -17 -55.5t-42 -33.5l-3 8q52 22 52 81q0 33 -20.5 53
t-57.5 20q-40 0 -77 -22.5t-68 -66t-57.5 -96t-52 -125.5t-45 -140t-41.5 -153l-34 -133h-27z" />
    <glyph glyph-name="O.1" horiz-adv-x="740" 
d="M457 696q-92 0 -162 -63.5t-70 -158.5q0 -59 31 -92t74 -33q76 0 115 82l9 -4q-39 -88 -124 -88q-48 0 -81.5 36.5t-33.5 98.5q0 101 75.5 168.5t181.5 67.5q114 0 190 -76t76 -210q0 -111 -55.5 -211t-151.5 -161.5t-206 -61.5q-115 0 -193 74.5t-78 212.5
q0 155 108 284l6 -6q-104 -126 -104 -278q0 -128 70.5 -199t170.5 -71q97 0 176 65.5t121 168.5t42 218q0 118 -48.5 177.5t-138.5 59.5z" />
    <glyph glyph-name="Ograve.1" horiz-adv-x="740" 
d="M530 749l-112 171h86l30 -171h-4zM457 696q-92 0 -162 -63.5t-70 -158.5q0 -59 31 -92t74 -33q76 0 115 82l9 -4q-39 -88 -124 -88q-48 0 -81.5 36.5t-33.5 98.5q0 101 75.5 168.5t181.5 67.5q114 0 190 -76t76 -210q0 -111 -55.5 -211t-151.5 -161.5t-206 -61.5
q-115 0 -193 74.5t-78 212.5q0 155 108 284l6 -6q-104 -126 -104 -278q0 -128 70.5 -199t170.5 -71q97 0 176 65.5t121 168.5t42 218q0 118 -48.5 177.5t-138.5 59.5z" />
    <glyph glyph-name="Oacute.1" horiz-adv-x="740" 
d="M625 920h90l-196 -171h-4zM457 696q-92 0 -162 -63.5t-70 -158.5q0 -59 31 -92t74 -33q76 0 115 82l9 -4q-39 -88 -124 -88q-48 0 -81.5 36.5t-33.5 98.5q0 101 75.5 168.5t181.5 67.5q114 0 190 -76t76 -210q0 -111 -55.5 -211t-151.5 -161.5t-206 -61.5
q-115 0 -193 74.5t-78 212.5q0 155 108 284l6 -6q-104 -126 -104 -278q0 -128 70.5 -199t170.5 -71q97 0 176 65.5t121 168.5t42 218q0 118 -48.5 177.5t-138.5 59.5z" />
    <glyph glyph-name="Ocircumflex.1" horiz-adv-x="740" 
d="M616 741l-81 139l-151 -139h-13l205 189h2l107 -189h-69zM457 696q-92 0 -162 -63.5t-70 -158.5q0 -59 31 -92t74 -33q76 0 115 82l9 -4q-39 -88 -124 -88q-48 0 -81.5 36.5t-33.5 98.5q0 101 75.5 168.5t181.5 67.5q114 0 190 -76t76 -210q0 -111 -55.5 -211
t-151.5 -161.5t-206 -61.5q-115 0 -193 74.5t-78 212.5q0 155 108 284l6 -6q-104 -126 -104 -278q0 -128 70.5 -199t170.5 -71q97 0 176 65.5t121 168.5t42 218q0 118 -48.5 177.5t-138.5 59.5z" />
    <glyph glyph-name="Otilde.1" horiz-adv-x="740" 
d="M586 766q-30 0 -79 42t-76 42q-49 0 -84 -87h-9q20 62 54.5 96.5t75.5 34.5q30 0 79.5 -42t76.5 -42q49 0 83 88h9q-20 -62 -54.5 -97t-75.5 -35zM457 696q-92 0 -162 -63.5t-70 -158.5q0 -59 31 -92t74 -33q76 0 115 82l9 -4q-39 -88 -124 -88q-48 0 -81.5 36.5
t-33.5 98.5q0 101 75.5 168.5t181.5 67.5q114 0 190 -76t76 -210q0 -111 -55.5 -211t-151.5 -161.5t-206 -61.5q-115 0 -193 74.5t-78 212.5q0 155 108 284l6 -6q-104 -126 -104 -278q0 -128 70.5 -199t170.5 -71q97 0 176 65.5t121 168.5t42 218q0 118 -48.5 177.5
t-138.5 59.5z" />
    <glyph glyph-name="Odieresis.1" horiz-adv-x="740" 
d="M547 759l28 112h77l-28 -112h-77zM395 759l28 112h77l-28 -112h-77zM457 696q-92 0 -162 -63.5t-70 -158.5q0 -59 31 -92t74 -33q76 0 115 82l9 -4q-39 -88 -124 -88q-48 0 -81.5 36.5t-33.5 98.5q0 101 75.5 168.5t181.5 67.5q114 0 190 -76t76 -210q0 -111 -55.5 -211
t-151.5 -161.5t-206 -61.5q-115 0 -193 74.5t-78 212.5q0 155 108 284l6 -6q-104 -126 -104 -278q0 -128 70.5 -199t170.5 -71q97 0 176 65.5t121 168.5t42 218q0 118 -48.5 177.5t-138.5 59.5z" />
    <glyph glyph-name="Omacron.1" horiz-adv-x="740" 
d="M657 785h-281l3 10h281zM457 696q-92 0 -162 -63.5t-70 -158.5q0 -59 31 -92t74 -33q76 0 115 82l9 -4q-39 -88 -124 -88q-48 0 -81.5 36.5t-33.5 98.5q0 101 75.5 168.5t181.5 67.5q114 0 190 -76t76 -210q0 -111 -55.5 -211t-151.5 -161.5t-206 -61.5q-115 0 -193 74.5
t-78 212.5q0 155 108 284l6 -6q-104 -126 -104 -278q0 -128 70.5 -199t170.5 -71q97 0 176 65.5t121 168.5t42 218q0 118 -48.5 177.5t-138.5 59.5z" />
    <glyph glyph-name="Obreve.1" horiz-adv-x="740" 
d="M678 923q-20 -75 -72 -123.5t-115 -48.5q-64 0 -93.5 48.5t-10.5 123.5h8q-13 -59 13.5 -87t94.5 -28q131 0 168 115h7zM457 696q-92 0 -162 -63.5t-70 -158.5q0 -59 31 -92t74 -33q76 0 115 82l9 -4q-39 -88 -124 -88q-48 0 -81.5 36.5t-33.5 98.5q0 101 75.5 168.5
t181.5 67.5q114 0 190 -76t76 -210q0 -111 -55.5 -211t-151.5 -161.5t-206 -61.5q-115 0 -193 74.5t-78 212.5q0 155 108 284l6 -6q-104 -126 -104 -278q0 -128 70.5 -199t170.5 -71q97 0 176 65.5t121 168.5t42 218q0 118 -48.5 177.5t-138.5 59.5z" />
    <glyph glyph-name="Ohungarumlaut.1" horiz-adv-x="740" 
d="M676 920h85l-192 -171h-4zM523 920h85l-192 -171h-4zM457 696q-92 0 -162 -63.5t-70 -158.5q0 -59 31 -92t74 -33q76 0 115 82l9 -4q-39 -88 -124 -88q-48 0 -81.5 36.5t-33.5 98.5q0 101 75.5 168.5t181.5 67.5q114 0 190 -76t76 -210q0 -111 -55.5 -211t-151.5 -161.5
t-206 -61.5q-115 0 -193 74.5t-78 212.5q0 155 108 284l6 -6q-104 -126 -104 -278q0 -128 70.5 -199t170.5 -71q97 0 176 65.5t121 168.5t42 218q0 118 -48.5 177.5t-138.5 59.5z" />
    <glyph glyph-name="P.1" horiz-adv-x="850" 
d="M544 708q-135 0 -251 -72.5t-182 -191t-66 -251.5q0 -86 38.5 -136.5t89.5 -50.5q47 0 71.5 33.5t47.5 116.5l69 249q31 113 73 168.5t109 92.5h5q-44 -74 -93 -262l-60 -218q-52 -196 -207 -196q-65 0 -109 55.5t-44 147.5q0 136 67.5 257t188 195.5t263.5 74.5
t237.5 -54.5t94.5 -144.5q0 -58 -29 -103t-75.5 -70.5t-97 -38t-100.5 -12.5q-47 0 -84 8l1 10q32 -7 67 -7q93 0 161.5 55.5t68.5 162.5q0 86 -67 134t-187 48z" />
    <glyph glyph-name="Q.1" horiz-adv-x="743" 
d="M584 -241q-31 0 -60.5 10t-64 35.5t-53 41t-60.5 56t-54 51.5q-92 -29 -178 -29q-52 0 -87.5 20.5t-35.5 54.5q0 35 28 54.5t71 19.5q49 0 97.5 -25.5t117.5 -75.5q178 72 270 251q70 138 70 264q0 213 -184 213q-81 0 -153 -58t-112 -144t-40 -172q0 -79 33 -119.5
t87 -40.5q57 0 100 36t53 92l11 -3q-12 -60 -62 -100.5t-120 -40.5q-73 0 -128 50t-55 140q0 144 117 257t267 113q129 0 205 -75.5t76 -205.5q0 -145 -124 -275t-297 -192q46 -34 70 -50.5t65 -40.5t78 -34.5t74 -10.5q63 0 95 25.5t36 82.5l8 -2q-4 -72 -49 -122.5
t-112 -50.5zM114 -66q86 0 167 29q-109 100 -191 100q-39 0 -64 -16.5t-25 -47.5q0 -30 32.5 -47.5t80.5 -17.5z" />
    <glyph glyph-name="R.1" horiz-adv-x="959" 
d="M757 -10q-65 0 -112.5 43.5t-78.5 146.5l-50 147q9 -1 25 -1q59 0 108.5 18.5t85.5 67t36 120.5q0 85 -58.5 130.5t-168.5 45.5q-135 0 -251 -72.5t-182 -191t-66 -251.5q0 -86 38.5 -136.5t89.5 -50.5q47 0 71.5 33.5t47.5 116.5l69 249q31 113 73 168.5t109 92.5h5
q-44 -74 -93 -262l-60 -218q-52 -196 -207 -196q-65 0 -109 55.5t-44 147.5q0 136 67.5 257t188 195.5t263.5 74.5q135 0 221.5 -52.5t86.5 -140.5q0 -64 -40 -111t-95 -69t-120 -29l50 -129q34 -92 67 -131.5t77 -39.5q41 0 70 33t35 98l10 -2q-7 -73 -49.5 -115
t-109.5 -42z" />
    <glyph glyph-name="Racute.1" horiz-adv-x="959" 
d="M716 920h90l-196 -171h-4zM757 -10q-65 0 -112.5 43.5t-78.5 146.5l-50 147q9 -1 25 -1q59 0 108.5 18.5t85.5 67t36 120.5q0 85 -58.5 130.5t-168.5 45.5q-135 0 -251 -72.5t-182 -191t-66 -251.5q0 -86 38.5 -136.5t89.5 -50.5q47 0 71.5 33.5t47.5 116.5l69 249
q31 113 73 168.5t109 92.5h5q-44 -74 -93 -262l-60 -218q-52 -196 -207 -196q-65 0 -109 55.5t-44 147.5q0 136 67.5 257t188 195.5t263.5 74.5q135 0 221.5 -52.5t86.5 -140.5q0 -64 -40 -111t-95 -69t-120 -29l50 -129q34 -92 67 -131.5t77 -39.5q41 0 70 33t35 98l10 -2
q-7 -73 -49.5 -115t-109.5 -42z" />
    <glyph glyph-name="uni0156.1" horiz-adv-x="959" 
d="M757 -10q-65 0 -112.5 43.5t-78.5 146.5l-50 147q9 -1 25 -1q59 0 108.5 18.5t85.5 67t36 120.5q0 85 -58.5 130.5t-168.5 45.5q-135 0 -251 -72.5t-182 -191t-66 -251.5q0 -86 38.5 -136.5t89.5 -50.5q47 0 71.5 33.5t47.5 116.5l69 249q31 113 73 168.5t109 92.5h5
q-44 -74 -93 -262l-60 -218q-52 -196 -207 -196q-65 0 -109 55.5t-44 147.5q0 136 67.5 257t188 195.5t263.5 74.5q135 0 221.5 -52.5t86.5 -140.5q0 -64 -40 -111t-95 -69t-120 -29l50 -129q34 -92 67 -131.5t77 -39.5q41 0 70 33t35 98l10 -2q-7 -73 -49.5 -115
t-109.5 -42zM390 -152l24 98h100l-25 -99q-12 -50 -48 -79t-97 -24l2 10q108 -8 134 94h-90z" />
    <glyph glyph-name="Rcaron.1" horiz-adv-x="959" 
d="M593 739h-2l-107 189h68l81 -139l151 139h13zM757 -10q-65 0 -112.5 43.5t-78.5 146.5l-50 147q9 -1 25 -1q59 0 108.5 18.5t85.5 67t36 120.5q0 85 -58.5 130.5t-168.5 45.5q-135 0 -251 -72.5t-182 -191t-66 -251.5q0 -86 38.5 -136.5t89.5 -50.5q47 0 71.5 33.5
t47.5 116.5l69 249q31 113 73 168.5t109 92.5h5q-44 -74 -93 -262l-60 -218q-52 -196 -207 -196q-65 0 -109 55.5t-44 147.5q0 136 67.5 257t188 195.5t263.5 74.5q135 0 221.5 -52.5t86.5 -140.5q0 -64 -40 -111t-95 -69t-120 -29l50 -129q34 -92 67 -131.5t77 -39.5
q41 0 70 33t35 98l10 -2q-7 -73 -49.5 -115t-109.5 -42z" />
    <glyph glyph-name="S.1" horiz-adv-x="616" 
d="M606 583q0 -86 -85 -116l-2 9q77 28 77 107q0 52 -37 83.5t-99 31.5q-63 0 -99.5 -38.5t-36.5 -96.5q0 -40 23 -82.5t56 -81t66.5 -78.5t56.5 -91t23 -104q0 -132 -93 -212.5t-224 -80.5q-115 0 -184 64t-69 159q0 84 56 141t130 57l1 -10q-71 0 -124 -54.5t-53 -133.5
q0 -89 65 -150t172 -61q109 0 174 67t65 172q0 54 -22.5 104.5t-54.5 90t-63.5 77t-54 79.5t-22.5 84q0 83 57.5 137t143.5 54q73 0 115 -34.5t42 -92.5z" />
    <glyph glyph-name="Sacute.1" horiz-adv-x="616" 
d="M599 920h90l-196 -171h-4zM606 583q0 -86 -85 -116l-2 9q77 28 77 107q0 52 -37 83.5t-99 31.5q-63 0 -99.5 -38.5t-36.5 -96.5q0 -40 23 -82.5t56 -81t66.5 -78.5t56.5 -91t23 -104q0 -132 -93 -212.5t-224 -80.5q-115 0 -184 64t-69 159q0 84 56 141t130 57l1 -10
q-71 0 -124 -54.5t-53 -133.5q0 -89 65 -150t172 -61q109 0 174 67t65 172q0 54 -22.5 104.5t-54.5 90t-63.5 77t-54 79.5t-22.5 84q0 83 57.5 137t143.5 54q73 0 115 -34.5t42 -92.5z" />
    <glyph glyph-name="Scircumflex.1" horiz-adv-x="616" 
d="M601 741l-81 139l-151 -139h-13l205 189h2l107 -189h-69zM606 583q0 -86 -85 -116l-2 9q77 28 77 107q0 52 -37 83.5t-99 31.5q-63 0 -99.5 -38.5t-36.5 -96.5q0 -40 23 -82.5t56 -81t66.5 -78.5t56.5 -91t23 -104q0 -132 -93 -212.5t-224 -80.5q-115 0 -184 64t-69 159
q0 84 56 141t130 57l1 -10q-71 0 -124 -54.5t-53 -133.5q0 -89 65 -150t172 -61q109 0 174 67t65 172q0 54 -22.5 104.5t-54.5 90t-63.5 77t-54 79.5t-22.5 84q0 83 57.5 137t143.5 54q73 0 115 -34.5t42 -92.5z" />
    <glyph glyph-name="uni015E.1" horiz-adv-x="616" 
d="M186 -385q-36 0 -60 16t-32 42l10 5q14 -50 72 -50q35 0 57.5 25.5t22.5 62.5q0 26 -20 37t-64 11l46 69q-109 4 -174 68t-65 155q0 84 56 141t130 57l1 -10q-71 0 -124 -54.5t-53 -133.5q0 -89 65 -150t172 -61q109 0 174 67t65 172q0 54 -22.5 104.5t-54.5 90t-63.5 77
t-54 79.5t-22.5 84q0 83 57.5 137t143.5 54q73 0 115 -34.5t42 -92.5q0 -86 -85 -116l-2 9q77 28 77 107q0 52 -37 83.5t-99 31.5q-63 0 -99.5 -38.5t-36.5 -96.5q0 -40 23 -82.5t56 -81t66.5 -78.5t56.5 -91t23 -104q0 -133 -94 -213t-227 -80l-40 -61q51 0 84 -17t33 -50
q0 -37 -34.5 -63.5t-84.5 -26.5z" />
    <glyph glyph-name="Scaron.1" horiz-adv-x="616" 
d="M465 739h-2l-107 189h68l81 -139l151 139h13zM606 583q0 -86 -85 -116l-2 9q77 28 77 107q0 52 -37 83.5t-99 31.5q-63 0 -99.5 -38.5t-36.5 -96.5q0 -40 23 -82.5t56 -81t66.5 -78.5t56.5 -91t23 -104q0 -132 -93 -212.5t-224 -80.5q-115 0 -184 64t-69 159q0 84 56 141
t130 57l1 -10q-71 0 -124 -54.5t-53 -133.5q0 -89 65 -150t172 -61q109 0 174 67t65 172q0 54 -22.5 104.5t-54.5 90t-63.5 77t-54 79.5t-22.5 84q0 83 57.5 137t143.5 54q73 0 115 -34.5t42 -92.5z" />
    <glyph glyph-name="uni0218.1" horiz-adv-x="616" 
d="M606 583q0 -86 -85 -116l-2 9q77 28 77 107q0 52 -37 83.5t-99 31.5q-63 0 -99.5 -38.5t-36.5 -96.5q0 -40 23 -82.5t56 -81t66.5 -78.5t56.5 -91t23 -104q0 -132 -93 -212.5t-224 -80.5q-115 0 -184 64t-69 159q0 84 56 141t130 57l1 -10q-71 0 -124 -54.5t-53 -133.5
q0 -89 65 -150t172 -61q109 0 174 67t65 172q0 54 -22.5 104.5t-54.5 90t-63.5 77t-54 79.5t-22.5 84q0 83 57.5 137t143.5 54q73 0 115 -34.5t42 -92.5zM125 -330l24 98h100l-25 -99q-12 -50 -48 -79t-97 -24l2 10q108 -8 134 94h-90z" />
    <glyph glyph-name="T.1" horiz-adv-x="655" 
d="M567 218q-27 -108 -99.5 -168t-176.5 -60q-83 0 -133 48.5t-50 113.5q0 53 26.5 94t66.5 61l4 -9q-87 -47 -87 -146q0 -61 44 -104.5t115 -43.5q76 0 120 47t69 143l62 245q28 109 73 168.5t112 89.5q-51 -12 -118 -10t-115 9t-108 15t-97 8q-69 0 -114.5 -38.5
t-45.5 -99.5q0 -74 78 -108l-4 -8q-37 14 -60.5 44t-23.5 72q0 65 49 106.5t121 41.5q38 0 99.5 -8.5t110.5 -16t119 -9t126 12.5l3 -9q-39 -32 -60 -85.5t-51 -175.5z" />
    <glyph glyph-name="Tcommaaccent.1" horiz-adv-x="655" 
d="M214 -225q-36 0 -60 16t-32 42l10 5q14 -50 72 -50q35 0 57.5 25.5t22.5 62.5q0 26 -20 37t-64 11l47 70q-65 13 -102 58t-37 100q0 53 26.5 94t66.5 61l4 -9q-87 -47 -87 -146q0 -61 44 -104.5t115 -43.5q76 0 120 47t69 143l62 245q28 109 73 168.5t112 89.5
q-51 -12 -118 -10t-115 9t-108 15t-97 8q-69 0 -114.5 -38.5t-45.5 -99.5q0 -74 78 -108l-4 -8q-37 14 -60.5 44t-23.5 72q0 65 49 106.5t121 41.5q38 0 99.5 -8.5t110.5 -16t119 -9t126 12.5l3 -9q-39 -32 -60 -85.5t-51 -175.5l-55 -220q-27 -108 -99.5 -168t-176.5 -60
q-19 0 -35 3l-40 -61q51 0 84 -17t33 -50q0 -37 -34.5 -63.5t-84.5 -26.5z" />
    <glyph glyph-name="Tcaron.1" horiz-adv-x="655" 
d="M487 739h-2l-107 189h68l81 -139l151 139h13zM567 218q-27 -108 -99.5 -168t-176.5 -60q-83 0 -133 48.5t-50 113.5q0 53 26.5 94t66.5 61l4 -9q-87 -47 -87 -146q0 -61 44 -104.5t115 -43.5q76 0 120 47t69 143l62 245q28 109 73 168.5t112 89.5q-51 -12 -118 -10
t-115 9t-108 15t-97 8q-69 0 -114.5 -38.5t-45.5 -99.5q0 -74 78 -108l-4 -8q-37 14 -60.5 44t-23.5 72q0 65 49 106.5t121 41.5q38 0 99.5 -8.5t110.5 -16t119 -9t126 12.5l3 -9q-39 -32 -60 -85.5t-51 -175.5z" />
    <glyph glyph-name="uni021A.1" horiz-adv-x="655" 
d="M567 218q-27 -108 -99.5 -168t-176.5 -60q-83 0 -133 48.5t-50 113.5q0 53 26.5 94t66.5 61l4 -9q-87 -47 -87 -146q0 -61 44 -104.5t115 -43.5q76 0 120 47t69 143l62 245q28 109 73 168.5t112 89.5q-51 -12 -118 -10t-115 9t-108 15t-97 8q-69 0 -114.5 -38.5
t-45.5 -99.5q0 -74 78 -108l-4 -8q-37 14 -60.5 44t-23.5 72q0 65 49 106.5t121 41.5q38 0 99.5 -8.5t110.5 -16t119 -9t126 12.5l3 -9q-39 -32 -60 -85.5t-51 -175.5zM207 -152l24 98h100l-25 -99q-12 -50 -48 -79t-97 -24l2 10q108 -8 134 94h-90z" />
    <glyph glyph-name="U.1" horiz-adv-x="1072" 
d="M874 -10q-53 0 -87.5 35.5t-34.5 96.5q0 27 8 64q-43 -90 -105.5 -143t-139.5 -53q-90 0 -149 65t-59 163q0 133 72 262.5t170 209.5h-134q-158 0 -242.5 -62t-84.5 -148q0 -72 79 -105l-5 -8q-35 13 -59.5 43.5t-24.5 69.5q0 90 88.5 155t249.5 65h155
q-72 -107 -120.5 -237.5t-48.5 -264.5q0 -91 38 -137t101 -46q83 0 148.5 80t99.5 203l108 402h93l-138 -527q-11 -49 -11 -80q0 -39 17.5 -60.5t48.5 -21.5q36 0 68 32t49 85l9 -4q-19 -61 -62 -97.5t-97 -36.5z" />
    <glyph glyph-name="Ugrave.1" horiz-adv-x="1072" 
d="M756 749l-112 171h86l30 -171h-4zM874 -10q-53 0 -87.5 35.5t-34.5 96.5q0 27 8 64q-43 -90 -105.5 -143t-139.5 -53q-90 0 -149 65t-59 163q0 133 72 262.5t170 209.5h-134q-158 0 -242.5 -62t-84.5 -148q0 -72 79 -105l-5 -8q-35 13 -59.5 43.5t-24.5 69.5
q0 90 88.5 155t249.5 65h155q-72 -107 -120.5 -237.5t-48.5 -264.5q0 -91 38 -137t101 -46q83 0 148.5 80t99.5 203l108 402h93l-138 -527q-11 -49 -11 -80q0 -39 17.5 -60.5t48.5 -21.5q36 0 68 32t49 85l9 -4q-19 -61 -62 -97.5t-97 -36.5z" />
    <glyph glyph-name="Uacute.1" horiz-adv-x="1072" 
d="M847 920h90l-196 -171h-4zM874 -10q-53 0 -87.5 35.5t-34.5 96.5q0 27 8 64q-43 -90 -105.5 -143t-139.5 -53q-90 0 -149 65t-59 163q0 133 72 262.5t170 209.5h-134q-158 0 -242.5 -62t-84.5 -148q0 -72 79 -105l-5 -8q-35 13 -59.5 43.5t-24.5 69.5q0 90 88.5 155
t249.5 65h155q-72 -107 -120.5 -237.5t-48.5 -264.5q0 -91 38 -137t101 -46q83 0 148.5 80t99.5 203l108 402h93l-138 -527q-11 -49 -11 -80q0 -39 17.5 -60.5t48.5 -21.5q36 0 68 32t49 85l9 -4q-19 -61 -62 -97.5t-97 -36.5z" />
    <glyph glyph-name="Ucircumflex.1" horiz-adv-x="1072" 
d="M842 741l-81 139l-151 -139h-13l205 189h2l107 -189h-69zM874 -10q-53 0 -87.5 35.5t-34.5 96.5q0 27 8 64q-43 -90 -105.5 -143t-139.5 -53q-90 0 -149 65t-59 163q0 133 72 262.5t170 209.5h-134q-158 0 -242.5 -62t-84.5 -148q0 -72 79 -105l-5 -8q-35 13 -59.5 43.5
t-24.5 69.5q0 90 88.5 155t249.5 65h155q-72 -107 -120.5 -237.5t-48.5 -264.5q0 -91 38 -137t101 -46q83 0 148.5 80t99.5 203l108 402h93l-138 -527q-11 -49 -11 -80q0 -39 17.5 -60.5t48.5 -21.5q36 0 68 32t49 85l9 -4q-19 -61 -62 -97.5t-97 -36.5z" />
    <glyph glyph-name="Udieresis.1" horiz-adv-x="1072" 
d="M773 759l28 112h77l-28 -112h-77zM621 759l28 112h77l-28 -112h-77zM874 -10q-53 0 -87.5 35.5t-34.5 96.5q0 27 8 64q-43 -90 -105.5 -143t-139.5 -53q-90 0 -149 65t-59 163q0 133 72 262.5t170 209.5h-134q-158 0 -242.5 -62t-84.5 -148q0 -72 79 -105l-5 -8
q-35 13 -59.5 43.5t-24.5 69.5q0 90 88.5 155t249.5 65h155q-72 -107 -120.5 -237.5t-48.5 -264.5q0 -91 38 -137t101 -46q83 0 148.5 80t99.5 203l108 402h93l-138 -527q-11 -49 -11 -80q0 -39 17.5 -60.5t48.5 -21.5q36 0 68 32t49 85l9 -4q-19 -61 -62 -97.5t-97 -36.5z
" />
    <glyph glyph-name="Utilde.1" horiz-adv-x="1072" 
d="M812 766q-30 0 -79 42t-76 42q-49 0 -84 -87h-9q20 62 54.5 96.5t75.5 34.5q30 0 79.5 -42t76.5 -42q49 0 83 88h9q-20 -62 -54.5 -97t-75.5 -35zM874 -10q-53 0 -87.5 35.5t-34.5 96.5q0 27 8 64q-43 -90 -105.5 -143t-139.5 -53q-90 0 -149 65t-59 163q0 133 72 262.5
t170 209.5h-134q-158 0 -242.5 -62t-84.5 -148q0 -72 79 -105l-5 -8q-35 13 -59.5 43.5t-24.5 69.5q0 90 88.5 155t249.5 65h155q-72 -107 -120.5 -237.5t-48.5 -264.5q0 -91 38 -137t101 -46q83 0 148.5 80t99.5 203l108 402h93l-138 -527q-11 -49 -11 -80
q0 -39 17.5 -60.5t48.5 -21.5q36 0 68 32t49 85l9 -4q-19 -61 -62 -97.5t-97 -36.5z" />
    <glyph glyph-name="Umacron.1" horiz-adv-x="1072" 
d="M883 785h-281l3 10h281zM874 -10q-53 0 -87.5 35.5t-34.5 96.5q0 27 8 64q-43 -90 -105.5 -143t-139.5 -53q-90 0 -149 65t-59 163q0 133 72 262.5t170 209.5h-134q-158 0 -242.5 -62t-84.5 -148q0 -72 79 -105l-5 -8q-35 13 -59.5 43.5t-24.5 69.5q0 90 88.5 155
t249.5 65h155q-72 -107 -120.5 -237.5t-48.5 -264.5q0 -91 38 -137t101 -46q83 0 148.5 80t99.5 203l108 402h93l-138 -527q-11 -49 -11 -80q0 -39 17.5 -60.5t48.5 -21.5q36 0 68 32t49 85l9 -4q-19 -61 -62 -97.5t-97 -36.5z" />
    <glyph glyph-name="Ubreve.1" horiz-adv-x="1072" 
d="M935 923q-20 -75 -72 -123.5t-115 -48.5q-64 0 -93.5 48.5t-10.5 123.5h8q-13 -59 13.5 -87t94.5 -28q131 0 168 115h7zM874 -10q-53 0 -87.5 35.5t-34.5 96.5q0 27 8 64q-43 -90 -105.5 -143t-139.5 -53q-90 0 -149 65t-59 163q0 133 72 262.5t170 209.5h-134
q-158 0 -242.5 -62t-84.5 -148q0 -72 79 -105l-5 -8q-35 13 -59.5 43.5t-24.5 69.5q0 90 88.5 155t249.5 65h155q-72 -107 -120.5 -237.5t-48.5 -264.5q0 -91 38 -137t101 -46q83 0 148.5 80t99.5 203l108 402h93l-138 -527q-11 -49 -11 -80q0 -39 17.5 -60.5t48.5 -21.5
q36 0 68 32t49 85l9 -4q-19 -61 -62 -97.5t-97 -36.5z" />
    <glyph glyph-name="Uring.1" horiz-adv-x="1072" 
d="M654 785q0 42 30.5 70t70.5 28q34 0 57 -22.5t23 -55.5q0 -42 -30.5 -70t-70.5 -28q-34 0 -57 22.5t-23 55.5zM825 805q0 29 -20 48.5t-50 19.5q-36 0 -63.5 -25t-27.5 -63q0 -29 20 -48.5t50 -19.5q36 0 63.5 25t27.5 63zM874 -10q-53 0 -87.5 35.5t-34.5 96.5
q0 27 8 64q-43 -90 -105.5 -143t-139.5 -53q-90 0 -149 65t-59 163q0 133 72 262.5t170 209.5h-134q-158 0 -242.5 -62t-84.5 -148q0 -72 79 -105l-5 -8q-35 13 -59.5 43.5t-24.5 69.5q0 90 88.5 155t249.5 65h155q-72 -107 -120.5 -237.5t-48.5 -264.5q0 -91 38 -137
t101 -46q83 0 148.5 80t99.5 203l108 402h93l-138 -527q-11 -49 -11 -80q0 -39 17.5 -60.5t48.5 -21.5q36 0 68 32t49 85l9 -4q-19 -61 -62 -97.5t-97 -36.5z" />
    <glyph glyph-name="Uhungarumlaut.1" horiz-adv-x="1072" 
d="M902 920h85l-192 -171h-4zM749 920h85l-192 -171h-4zM874 -10q-53 0 -87.5 35.5t-34.5 96.5q0 27 8 64q-43 -90 -105.5 -143t-139.5 -53q-90 0 -149 65t-59 163q0 133 72 262.5t170 209.5h-134q-158 0 -242.5 -62t-84.5 -148q0 -72 79 -105l-5 -8q-35 13 -59.5 43.5
t-24.5 69.5q0 90 88.5 155t249.5 65h155q-72 -107 -120.5 -237.5t-48.5 -264.5q0 -91 38 -137t101 -46q83 0 148.5 80t99.5 203l108 402h93l-138 -527q-11 -49 -11 -80q0 -39 17.5 -60.5t48.5 -21.5q36 0 68 32t49 85l9 -4q-19 -61 -62 -97.5t-97 -36.5z" />
    <glyph glyph-name="Uogonek.1" horiz-adv-x="1072" 
d="M822 -225q-35 0 -59.5 20t-24.5 51q0 38 37.5 70t117.5 75q-6 -1 -19 -1q-53 0 -87.5 35.5t-34.5 96.5q0 27 8 64q-43 -90 -105.5 -143t-139.5 -53q-90 0 -149 65t-59 163q0 133 72 262.5t170 209.5h-134q-158 0 -242.5 -62t-84.5 -148q0 -72 79 -105l-5 -8
q-35 13 -59.5 43.5t-24.5 69.5q0 90 88.5 155t249.5 65h155q-72 -107 -120.5 -237.5t-48.5 -264.5q0 -91 38 -137t101 -46q83 0 148.5 80t99.5 203l108 402h93l-138 -527q-11 -49 -11 -80q0 -39 17.5 -60.5t48.5 -21.5q36 0 68 32t49 85l9 -4q-30 -95 -108 -125
q-74 -41 -106 -75t-32 -78q0 -25 13.5 -40.5t36.5 -15.5q65 0 110 82l8 -4q-49 -93 -133 -93z" />
    <glyph glyph-name="V.1" horiz-adv-x="925" 
d="M402 194q0 -89 40.5 -134.5t108.5 -45.5q92 0 179 71.5t141.5 189.5t54.5 245q0 81 -34.5 128.5t-96.5 47.5q-92 0 -129 -102l-8 5q16 49 52.5 78t84.5 29q66 0 103.5 -50t37.5 -136q0 -134 -57 -256.5t-155 -198t-210 -75.5q-87 0 -146.5 64.5t-59.5 164.5q0 131 72 261
t171 210h-136q-158 0 -242.5 -62t-84.5 -148q0 -72 79 -105l-5 -8q-35 13 -59.5 43.5t-24.5 69.5q0 90 88.5 155t249.5 65h155q-71 -104 -120 -235.5t-49 -270.5z" />
    <glyph glyph-name="W.1" horiz-adv-x="1298" 
d="M532 14q73 0 130.5 70.5t77.5 146.5l126 469h94l-124 -462q-27 -101 2 -164t107 -63q82 0 164.5 72t135.5 190.5t53 242.5q0 85 -41 136t-105 51q-87 0 -120 -91l-9 3q15 46 49 72t80 26q69 0 112.5 -53t43.5 -145q0 -127 -54 -248.5t-145.5 -199t-191.5 -77.5
q-84 0 -136.5 58.5t-41.5 148.5q-28 -81 -91.5 -144t-146.5 -63q-85 0 -141.5 63t-56.5 163q0 131 77 261.5t181 212.5h-146q-158 0 -242.5 -62t-84.5 -148q0 -72 79 -105l-5 -8q-35 13 -59.5 43.5t-24.5 69.5q0 90 88.5 155t249.5 65h163q-182 -264 -182 -508
q0 -89 38 -133.5t97 -44.5z" />
    <glyph glyph-name="Wcircumflex.1" horiz-adv-x="1298" 
d="M1029 741l-81 139l-151 -139h-13l205 189h2l107 -189h-69zM532 14q73 0 130.5 70.5t77.5 146.5l126 469h94l-124 -462q-27 -101 2 -164t107 -63q82 0 164.5 72t135.5 190.5t53 242.5q0 85 -41 136t-105 51q-87 0 -120 -91l-9 3q15 46 49 72t80 26q69 0 112.5 -53
t43.5 -145q0 -127 -54 -248.5t-145.5 -199t-191.5 -77.5q-84 0 -136.5 58.5t-41.5 148.5q-28 -81 -91.5 -144t-146.5 -63q-85 0 -141.5 63t-56.5 163q0 131 77 261.5t181 212.5h-146q-158 0 -242.5 -62t-84.5 -148q0 -72 79 -105l-5 -8q-35 13 -59.5 43.5t-24.5 69.5
q0 90 88.5 155t249.5 65h163q-182 -264 -182 -508q0 -89 38 -133.5t97 -44.5z" />
    <glyph glyph-name="Wgrave.1" horiz-adv-x="1298" 
d="M943 749l-112 171h86l30 -171h-4zM532 14q73 0 130.5 70.5t77.5 146.5l126 469h94l-124 -462q-27 -101 2 -164t107 -63q82 0 164.5 72t135.5 190.5t53 242.5q0 85 -41 136t-105 51q-87 0 -120 -91l-9 3q15 46 49 72t80 26q69 0 112.5 -53t43.5 -145q0 -127 -54 -248.5
t-145.5 -199t-191.5 -77.5q-84 0 -136.5 58.5t-41.5 148.5q-28 -81 -91.5 -144t-146.5 -63q-85 0 -141.5 63t-56.5 163q0 131 77 261.5t181 212.5h-146q-158 0 -242.5 -62t-84.5 -148q0 -72 79 -105l-5 -8q-35 13 -59.5 43.5t-24.5 69.5q0 90 88.5 155t249.5 65h163
q-182 -264 -182 -508q0 -89 38 -133.5t97 -44.5z" />
    <glyph glyph-name="Wacute.1" horiz-adv-x="1298" 
d="M1036 920h90l-196 -171h-4zM532 14q73 0 130.5 70.5t77.5 146.5l126 469h94l-124 -462q-27 -101 2 -164t107 -63q82 0 164.5 72t135.5 190.5t53 242.5q0 85 -41 136t-105 51q-87 0 -120 -91l-9 3q15 46 49 72t80 26q69 0 112.5 -53t43.5 -145q0 -127 -54 -248.5
t-145.5 -199t-191.5 -77.5q-84 0 -136.5 58.5t-41.5 148.5q-28 -81 -91.5 -144t-146.5 -63q-85 0 -141.5 63t-56.5 163q0 131 77 261.5t181 212.5h-146q-158 0 -242.5 -62t-84.5 -148q0 -72 79 -105l-5 -8q-35 13 -59.5 43.5t-24.5 69.5q0 90 88.5 155t249.5 65h163
q-182 -264 -182 -508q0 -89 38 -133.5t97 -44.5z" />
    <glyph glyph-name="Wdieresis.1" horiz-adv-x="1298" 
d="M959 759l28 112h77l-28 -112h-77zM807 759l28 112h77l-28 -112h-77zM532 14q73 0 130.5 70.5t77.5 146.5l126 469h94l-124 -462q-27 -101 2 -164t107 -63q82 0 164.5 72t135.5 190.5t53 242.5q0 85 -41 136t-105 51q-87 0 -120 -91l-9 3q15 46 49 72t80 26
q69 0 112.5 -53t43.5 -145q0 -127 -54 -248.5t-145.5 -199t-191.5 -77.5q-84 0 -136.5 58.5t-41.5 148.5q-28 -81 -91.5 -144t-146.5 -63q-85 0 -141.5 63t-56.5 163q0 131 77 261.5t181 212.5h-146q-158 0 -242.5 -62t-84.5 -148q0 -72 79 -105l-5 -8q-35 13 -59.5 43.5
t-24.5 69.5q0 90 88.5 155t249.5 65h163q-182 -264 -182 -508q0 -89 38 -133.5t97 -44.5z" />
    <glyph glyph-name="X.1" horiz-adv-x="859" 
d="M358 194q-85 -112 -138.5 -158t-110.5 -46q-50 0 -88 33t-38 92q0 51 37 89t84 48l2 -10q-44 -8 -78.5 -43.5t-34.5 -83.5q0 -56 34.5 -85.5t81.5 -29.5q54 0 105 44t134 154l116 156l-149 346h98l121 -282l88 118q75 98 118.5 137t93.5 39q46 0 73.5 -28t27.5 -75
q0 -32 -17 -57t-41 -37l-5 8q24 12 38.5 35t14.5 51q0 42 -25 67.5t-66 25.5q-45 0 -88.5 -38.5t-114.5 -132.5l-92 -123l175 -408h-97l-148 343z" />
    <glyph glyph-name="Y.1" horiz-adv-x="828" 
d="M453 256l-67 -256h-95l70 260q41 154 41 259q0 84 -35 135t-103 51q-66 0 -109.5 -42t-43.5 -105q0 -66 62 -100l-6 -8q-66 37 -66 108q0 69 50 115t128 46q93 0 148.5 -64.5t55.5 -177.5q0 -50 -10 -114q23 70 51.5 129.5t65.5 110t84 79t98 28.5q60 0 90.5 -34
t30.5 -86q-1 -51 -30.5 -87t-68.5 -51l-1 9q38 16 64 49t26 80q0 48 -27.5 79t-83.5 31q-59 0 -112 -39.5t-92 -106.5t-67 -141t-48 -157z" />
    <glyph glyph-name="Yacute.1" horiz-adv-x="828" 
d="M640 920h90l-196 -171h-4zM453 256l-67 -256h-95l70 260q41 154 41 259q0 84 -35 135t-103 51q-66 0 -109.5 -42t-43.5 -105q0 -66 62 -100l-6 -8q-66 37 -66 108q0 69 50 115t128 46q93 0 148.5 -64.5t55.5 -177.5q0 -50 -10 -114q23 70 51.5 129.5t65.5 110t84 79
t98 28.5q60 0 90.5 -34t30.5 -86q-1 -51 -30.5 -87t-68.5 -51l-1 9q38 16 64 49t26 80q0 48 -27.5 79t-83.5 31q-59 0 -112 -39.5t-92 -106.5t-67 -141t-48 -157z" />
    <glyph glyph-name="Ycircumflex.1" horiz-adv-x="828" 
d="M633 741l-81 139l-151 -139h-13l205 189h2l107 -189h-69zM453 256l-67 -256h-95l70 260q41 154 41 259q0 84 -35 135t-103 51q-66 0 -109.5 -42t-43.5 -105q0 -66 62 -100l-6 -8q-66 37 -66 108q0 69 50 115t128 46q93 0 148.5 -64.5t55.5 -177.5q0 -50 -10 -114
q23 70 51.5 129.5t65.5 110t84 79t98 28.5q60 0 90.5 -34t30.5 -86q-1 -51 -30.5 -87t-68.5 -51l-1 9q38 16 64 49t26 80q0 48 -27.5 79t-83.5 31q-59 0 -112 -39.5t-92 -106.5t-67 -141t-48 -157z" />
    <glyph glyph-name="Ydieresis.1" horiz-adv-x="828" 
d="M564 759l28 112h77l-28 -112h-77zM412 759l28 112h77l-28 -112h-77zM453 256l-67 -256h-95l70 260q41 154 41 259q0 84 -35 135t-103 51q-66 0 -109.5 -42t-43.5 -105q0 -66 62 -100l-6 -8q-66 37 -66 108q0 69 50 115t128 46q93 0 148.5 -64.5t55.5 -177.5
q0 -50 -10 -114q23 70 51.5 129.5t65.5 110t84 79t98 28.5q60 0 90.5 -34t30.5 -86q-1 -51 -30.5 -87t-68.5 -51l-1 9q38 16 64 49t26 80q0 48 -27.5 79t-83.5 31q-59 0 -112 -39.5t-92 -106.5t-67 -141t-48 -157z" />
    <glyph glyph-name="Ygrave.1" horiz-adv-x="828" 
d="M547 749l-112 171h86l30 -171h-4zM453 256l-67 -256h-95l70 260q41 154 41 259q0 84 -35 135t-103 51q-66 0 -109.5 -42t-43.5 -105q0 -66 62 -100l-6 -8q-66 37 -66 108q0 69 50 115t128 46q93 0 148.5 -64.5t55.5 -177.5q0 -50 -10 -114q23 70 51.5 129.5t65.5 110
t84 79t98 28.5q60 0 90.5 -34t30.5 -86q-1 -51 -30.5 -87t-68.5 -51l-1 9q38 16 64 49t26 80q0 48 -27.5 79t-83.5 31q-59 0 -112 -39.5t-92 -106.5t-67 -141t-48 -157z" />
    <glyph glyph-name="Z.1" horiz-adv-x="688" 
d="M454 -124q-39 0 -86 23.5t-89 54.5t-84.5 61t-85 45.5t-76.5 4.5l-74 -60l-6 8l695 565q-38 -13 -88.5 -6.5t-87 19t-90.5 25t-100 12.5q-48 0 -81.5 -26.5t-33.5 -76.5q0 -24 9 -41l-9 -5q-11 19 -11 56q0 73 46.5 124.5t120.5 51.5q43 0 98 -22t95 -45t89 -37.5t79 0.5
l78 64l7 -8l-677 -550q47 8 107.5 -16.5t109.5 -59.5t106 -65t97 -30q46 0 76.5 33t30.5 87q0 26 -15 46l8 6q18 -20 18 -55q0 -77 -51 -130t-125 -53z" />
    <glyph glyph-name="Zacute.1" horiz-adv-x="688" 
d="M625 920h90l-196 -171h-4zM454 -124q-39 0 -86 23.5t-89 54.5t-84.5 61t-85 45.5t-76.5 4.5l-74 -60l-6 8l695 565q-38 -13 -88.5 -6.5t-87 19t-90.5 25t-100 12.5q-48 0 -81.5 -26.5t-33.5 -76.5q0 -24 9 -41l-9 -5q-11 19 -11 56q0 73 46.5 124.5t120.5 51.5
q43 0 98 -22t95 -45t89 -37.5t79 0.5l78 64l7 -8l-677 -550q47 8 107.5 -16.5t109.5 -59.5t106 -65t97 -30q46 0 76.5 33t30.5 87q0 26 -15 46l8 6q18 -20 18 -55q0 -77 -51 -130t-125 -53z" />
    <glyph glyph-name="Zdotaccent.1" horiz-adv-x="688" 
d="M485 759l28 112h96l-28 -112h-96zM454 -124q-39 0 -86 23.5t-89 54.5t-84.5 61t-85 45.5t-76.5 4.5l-74 -60l-6 8l695 565q-38 -13 -88.5 -6.5t-87 19t-90.5 25t-100 12.5q-48 0 -81.5 -26.5t-33.5 -76.5q0 -24 9 -41l-9 -5q-11 19 -11 56q0 73 46.5 124.5t120.5 51.5
q43 0 98 -22t95 -45t89 -37.5t79 0.5l78 64l7 -8l-677 -550q47 8 107.5 -16.5t109.5 -59.5t106 -65t97 -30q46 0 76.5 33t30.5 87q0 26 -15 46l8 6q18 -20 18 -55q0 -77 -51 -130t-125 -53z" />
    <glyph glyph-name="Zcaron.1" horiz-adv-x="688" 
d="M503 739h-2l-107 189h68l81 -139l151 139h13zM454 -124q-39 0 -86 23.5t-89 54.5t-84.5 61t-85 45.5t-76.5 4.5l-74 -60l-6 8l695 565q-38 -13 -88.5 -6.5t-87 19t-90.5 25t-100 12.5q-48 0 -81.5 -26.5t-33.5 -76.5q0 -24 9 -41l-9 -5q-11 19 -11 56q0 73 46.5 124.5
t120.5 51.5q43 0 98 -22t95 -45t89 -37.5t79 0.5l78 64l7 -8l-677 -550q47 8 107.5 -16.5t109.5 -59.5t106 -65t97 -30q46 0 76.5 33t30.5 87q0 26 -15 46l8 6q18 -20 18 -55q0 -77 -51 -130t-125 -53z" />
    <glyph glyph-name="AE.1" horiz-adv-x="1253" 
d="M741 311l94 377q-38 -21 -78.5 -56t-68.5 -64t-71.5 -85t-61.5 -81t-64 -91h250zM663 0l75 300h-255q-42 -59 -69.5 -96t-67.5 -82.5t-72 -70.5t-72 -43t-79 -18q-56 0 -96 34.5t-40 96.5q0 52 33 88.5t79 47.5l3 -11q-43 -9 -74 -43t-31 -82q0 -57 37 -89t89 -32
q69 0 140 56.5t135.5 144.5t128 180.5t142 180t154.5 128.5h-226q-160 0 -245 -60.5t-85 -151.5q0 -70 79 -103l-5 -8q-36 13 -60 42.5t-24 68.5q0 95 88.5 158.5t252.5 63.5h723l-3 -11h-388l-81 -323h289l-3 -11h-289l-85 -344h402l-3 -11h-497z" />
    <glyph glyph-name="AEacute.1" horiz-adv-x="1253" 
d="M1074 920h90l-196 -171h-4zM741 311l94 377q-38 -21 -78.5 -56t-68.5 -64t-71.5 -85t-61.5 -81t-64 -91h250zM663 0l75 300h-255q-42 -59 -69.5 -96t-67.5 -82.5t-72 -70.5t-72 -43t-79 -18q-56 0 -96 34.5t-40 96.5q0 52 33 88.5t79 47.5l3 -11q-43 -9 -74 -43t-31 -82
q0 -57 37 -89t89 -32q69 0 140 56.5t135.5 144.5t128 180.5t142 180t154.5 128.5h-226q-160 0 -245 -60.5t-85 -151.5q0 -70 79 -103l-5 -8q-36 13 -60 42.5t-24 68.5q0 95 88.5 158.5t252.5 63.5h723l-3 -11h-388l-81 -323h289l-3 -11h-289l-85 -344h402l-3 -11h-497z" />
    <glyph glyph-name="Eth.1" horiz-adv-x="920" 
d="M516 -10q-87 0 -137 35l6 8q47 -30 113 -30q94 0 168 61t112.5 157t38.5 207q0 280 -271 280q-135 0 -251.5 -72.5t-183 -191t-66.5 -251.5q0 -86 38.5 -136.5t89.5 -50.5q47 0 71.5 33.5t47.5 116.5l55 199h-101l2 11h102l11 39q31 113 73 168.5t109 92.5h5
q-44 -74 -93 -262l-10 -38h153l-2 -11h-154l-47 -169q-52 -196 -207 -196q-65 0 -109 55.5t-44 147.5q0 136 68 257t188.5 195.5t263.5 74.5q167 0 263 -89t96 -234q0 -107 -52.5 -200.5t-145 -150t-200.5 -56.5z" />
    <glyph glyph-name="Oslash.1" horiz-adv-x="739" 
d="M305 7q97 0 176 65.5t121 168.5t42 218q0 91 -28 146l-456 -551q62 -47 145 -47zM325 -10q-101 0 -172 56l-55 -66l-9 7l55 66q-90 80 -90 224q0 155 108 284l6 -6q-104 -126 -104 -278q0 -141 87 -215l460 554q-47 81 -154 81q-92 0 -162 -64t-70 -159q0 -86 63 -115
l-5 -8q-31 14 -49.5 46t-18.5 77q0 100 75.5 168t182.5 68q100 0 169 -57l55 67l9 -7l-56 -67q88 -80 88 -223q0 -111 -55 -210.5t-151 -161t-207 -61.5z" />
    <glyph glyph-name="Oslashacute.1" horiz-adv-x="739" 
d="M614 920h90l-196 -171h-4zM305 7q97 0 176 65.5t121 168.5t42 218q0 91 -28 146l-456 -551q62 -47 145 -47zM325 -10q-101 0 -172 56l-55 -66l-9 7l55 66q-90 80 -90 224q0 155 108 284l6 -6q-104 -126 -104 -278q0 -141 87 -215l460 554q-47 81 -154 81q-92 0 -162 -64
t-70 -159q0 -86 63 -115l-5 -8q-31 14 -49.5 46t-18.5 77q0 100 75.5 168t182.5 68q100 0 169 -57l55 67l9 -7l-56 -67q88 -80 88 -223q0 -111 -55 -210.5t-151 -161t-207 -61.5z" />
    <glyph glyph-name="Thorn.1" horiz-adv-x="851" 
d="M419 429l-59 -232h145q114 0 186 61t72 180q0 130 -164 130h-142q-14 -44 -38 -139zM143 -10q-52 0 -85 31t-33 77q0 53 44 86l7 -8q-40 -29 -40 -78q0 -41 27 -67t65 -26q47 0 77 40t54 129l67 256q28 108 65.5 165.5t95.5 94.5h-73q-158 0 -242 -62t-84 -148
q0 -72 79 -105l-5 -8q-35 13 -59.5 43.5t-24.5 69.5q0 90 88 155t249 65h96q-30 -50 -51 -121h164q105 0 170.5 -40t65.5 -116q0 -63 -28.5 -110t-77 -74t-106 -40t-122.5 -13h-169q-58 -196 -214 -196z" />
    <glyph glyph-name="Dcroat.1" horiz-adv-x="920" 
d="M516 -10q-87 0 -137 35l6 8q47 -30 113 -30q94 0 168 61t112.5 157t38.5 207q0 280 -271 280q-135 0 -251.5 -72.5t-183 -191t-66.5 -251.5q0 -86 38.5 -136.5t89.5 -50.5q47 0 71.5 33.5t47.5 116.5l55 199h-101l2 11h102l11 39q31 113 73 168.5t109 92.5h5
q-44 -74 -93 -262l-10 -38h153l-2 -11h-154l-47 -169q-52 -196 -207 -196q-65 0 -109 55.5t-44 147.5q0 136 68 257t188.5 195.5t263.5 74.5q167 0 263 -89t96 -234q0 -107 -52.5 -200.5t-145 -150t-200.5 -56.5z" />
    <glyph glyph-name="Hbar.1" horiz-adv-x="1013" 
d="M420 429l-33 -129h337l42 160h-338q-2 -6 -4.5 -16.5t-3.5 -14.5zM810 -10q-54 0 -88.5 35.5t-34.5 96.5q0 38 14 88l21 80h-337l-21 -81q-57 -219 -220 -219q-52 0 -85 31t-33 77q0 53 44 86l7 -8q-40 -29 -40 -78q0 -41 27 -67t65 -26q46 0 77 40t54 129l66 256
q6 20 8 30h-117l2 11h119q27 87 62 136t88 83h-73q-158 0 -242.5 -62t-84.5 -148q0 -72 79 -105l-5 -8q-35 13 -59.5 43.5t-24.5 69.5q0 90 88.5 155t249.5 65h96q-24 -39 -40 -85t-41 -144h337l10 37q53 207 200 207q37 0 63.5 -18.5t36.5 -47.5l-9 -5q-19 56 -75 56
q-44 0 -69.5 -39.5t-48.5 -135.5l-13 -54h122l-2 -11h-123l-72 -287q-12 -47 -12 -80q0 -39 17.5 -60.5t49.5 -21.5q36 0 67.5 32t48.5 85l9 -4q-19 -61 -61.5 -97.5t-96.5 -36.5z" />
    <glyph glyph-name="Ldot.1" horiz-adv-x="694" 
d="M599 260l27 110h91l-27 -110h-91zM481 -108q-38 0 -78.5 21t-66 44t-67.5 66t-61 60q-67 -95 -147 -95q-39 0 -63.5 23t-24.5 56q0 41 30 67t74 26q41 0 105 -38q18 48 34 126q2 11 13.5 92t20.5 123q20 111 95.5 179t175.5 68q71 0 110.5 -35t38.5 -85q0 -49 -29 -82.5
t-70 -45.5l-2 9q40 13 65.5 43.5t25.5 76.5q0 42 -31 72.5t-83 30.5q-140 0 -190 -200l-34 -135q-43 -168 -104 -261q8 -5 41.5 -27.5t46 -31t43 -25.5t50 -24t47 -13.5t52.5 -6.5q61 0 99.5 30t38.5 86q0 32 -21 51l7 6q28 -20 28 -68q0 -75 -49 -129t-120 -54zM59 -2
q74 0 119 111q-52 41 -101 41q-39 0 -66.5 -22.5t-27.5 -60.5q0 -30 21 -49.5t55 -19.5z" />
    <glyph glyph-name="Lslash.1" horiz-adv-x="706" 
d="M493 -108q-38 0 -78.5 21t-65.5 44t-68 66.5t-61 60.5q-66 -96 -147 -96q-39 0 -64 23t-25 56q0 41 30.5 67t74.5 26q41 0 105 -38q24 65 41 178l-91 -24l4 14l89 23q23 139 25 150q19 110 95 178.5t176 68.5q71 0 110.5 -35t38.5 -85q0 -49 -29 -82.5t-70 -45.5l-2 9
q40 13 65.5 43.5t25.5 76.5q0 42 -31.5 72.5t-83.5 30.5q-139 0 -189 -200l-41 -157l149 39l-4 -14l-149 -39q-40 -141 -93 -225q8 -5 35 -23.5t39 -26.5t37 -23t41.5 -22.5t39.5 -16.5t44 -12.5t43 -3.5q61 0 100 30t39 86q0 32 -22 51l8 6q27 -20 27 -68q0 -75 -48.5 -129
t-119.5 -54zM71 -2q74 0 118 112q-53 40 -100 40q-39 0 -66.5 -22.5t-27.5 -60.5q0 -30 21 -49.5t55 -19.5z" />
    <glyph glyph-name="Eng.1" horiz-adv-x="1152" 
d="M604 -225q-38 0 -65.5 24.5t-27.5 62.5q0 39 24 60l8 -3q-22 -27 -22 -57q0 -34 25 -55.5t58 -21.5q64 0 105.5 55.5t67.5 160.5l-258 682q-20 -102 -46 -195.5t-63 -186t-79 -160t-96 -109.5t-112 -42q-55 0 -94.5 34.5t-39.5 96.5q0 52 32 87.5t77 46.5l3 -10
q-42 -10 -71.5 -43t-29.5 -81q0 -56 36 -88.5t87 -32.5q69 0 131 59.5t110 162t84 219t63 249.5h-34q-158 0 -244 -63t-86 -149q0 -70 79 -103l-5 -8q-36 13 -60 42.5t-24 68.5q0 90 90 156t251 66h132l203 -557q25 100 48 178.5t56 160t67 135t79.5 87.5t95.5 34
q40 0 64 -22.5t24 -60.5q0 -32 -17 -55.5t-42 -33.5l-3 8q52 22 52 81q0 33 -20.5 53t-57.5 20q-40 0 -77 -22t-67.5 -65t-57 -94t-51 -122t-43.5 -136t-40 -147l-41 -157q-52 -210 -178 -210z" />
    </font>
</defs>
</svg>
