<?xml version="1.0" encoding="UTF-8"?>
<svg xmlns="http://www.w3.org/2000/svg" xmlns:xlink="http://www.w3.org/1999/xlink" width="30pt" height="30pt" viewBox="0 0 30 30" version="1.1">
<g id="surface1">
<path style=" stroke:none;fill-rule:nonzero;fill:rgb(100%,100%,100%);fill-opacity:1;" d="M 15.339844 21.726562 C 11.570312 21.726562 8.941406 19.539062 8.941406 15.488281 C 8.9375 14.777344 9.027344 14.074219 9.210938 13.386719 C 10.128906 14.316406 11.621094 14.871094 13.515625 15.3125 L 16.171875 15.917969 C 18.394531 16.421875 20.378906 17.324219 20.722656 19.46875 C 19.566406 21.023438 17.609375 21.726562 15.339844 21.726562 M 16.371094 14.671875 L 13.886719 14.074219 C 12.089844 13.640625 10.554688 13.140625 9.789062 12.011719 C 10.859375 10.199219 12.855469 9.25 15.332031 9.25 C 17.90625 9.25 20.054688 10.207031 21.078125 12.195312 L 21.316406 12.195312 C 20.234375 9.976562 17.886719 9.066406 15.328125 9.066406 C 12.949219 9.066406 10.839844 9.914062 9.433594 11.292969 C 9.3125 10.921875 9.253906 10.53125 9.257812 10.136719 C 9.257812 7.613281 11.550781 6.046875 14.515625 6.046875 C 17.429688 6.046875 19.914062 7.285156 21.058594 9.3125 L 21.289062 9.3125 C 20.179688 7.179688 17.695312 5.785156 14.523438 5.785156 C 11.03125 5.785156 8.148438 7.804688 8.148438 10.617188 C 8.132812 11.242188 8.261719 11.867188 8.523438 12.4375 C 7.949219 13.351562 7.644531 14.410156 7.648438 15.488281 C 7.664062 19.179688 11.058594 21.898438 15.328125 21.898438 C 17.476562 21.898438 19.507812 21.28125 20.757812 19.757812 C 20.757812 19.890625 20.773438 20.027344 20.773438 20.164062 C 20.773438 22.570312 18.761719 24.621094 15.101562 24.621094 C 11.816406 24.621094 8.808594 23.15625 7.65625 20.527344 L 7.34375 20.527344 C 8.4375 23.269531 11.648438 24.882812 15.109375 24.882812 C 18.570312 24.882812 21.898438 23.054688 21.898438 19.46875 C 21.898438 16.773438 19.691406 15.472656 16.371094 14.671875 "/>
</g>
</svg>
